<?xml version="1.0" encoding="UTF-8" standalone="no"?>
<!DOCTYPE svg PUBLIC "-//W3C//DTD SVG 1.1//EN"
 "http://www.w3.org/Graphics/SVG/1.1/DTD/svg11.dtd">
<!-- Generated by graphviz version 3.0.0 (20220226.1711)
 -->
<!-- Title: src/include/lmda/sdl/color.h Pages: 1 -->
<svg width="356pt" height="207pt"
 viewBox="0.00 0.00 356.00 207.00" xmlns="http://www.w3.org/2000/svg" xmlns:xlink="http://www.w3.org/1999/xlink">
<g id="graph0" class="graph" transform="scale(1 1) rotate(0) translate(4 203)">
<title>src/include/lmda/sdl/color.h</title>
<polygon fill="white" stroke="transparent" points="-4,4 -4,-203 352,-203 352,4 -4,4"/>
<!-- Node1 -->
<g id="node1" class="node">
<title>Node1</title>
<g id="a_node1"><a xlink:title="Defines symbols for common SDL color values.">
<polygon fill="#bfbfbf" stroke="black" points="38,-168.5 38,-198.5 175,-198.5 175,-168.5 38,-168.5"/>
<text text-anchor="start" x="46" y="-186.5" font-family="Fira Code" font-size="10.00">src/include/lmda/sdl</text>
<text text-anchor="middle" x="106.5" y="-175.5" font-family="Fira Code" font-size="10.00">/color.h</text>
</a>
</g>
</g>
<!-- Node2 -->
<g id="node2" class="node">
<title>Node2</title>
<g id="a_node2"><a xlink:href="sdl_8h.html" target="_top" xlink:title="Interface to the SDL subsystems (rendering, image loading, sound, etc).">
<polygon fill="white" stroke="black" points="83,-112.5 83,-131.5 130,-131.5 130,-112.5 83,-112.5"/>
<text text-anchor="middle" x="106.5" y="-119.5" font-family="Fira Code" font-size="10.00">SDL.h</text>
</a>
</g>
</g>
<!-- Node1&#45;&gt;Node2 -->
<g id="edge1" class="edge">
<title>Node1&#45;&gt;Node2</title>
<path fill="none" stroke="midnightblue" d="M100.66,-168.4C99.63,-160.38 99.47,-150.23 100.19,-141.57"/>
<polygon fill="midnightblue" stroke="midnightblue" points="103.66,-142.04 101.57,-131.66 96.73,-141.08 103.66,-142.04"/>
</g>
<!-- Node2&#45;&gt;Node1 -->
<g id="edge2" class="edge">
<title>Node2&#45;&gt;Node1</title>
<path fill="none" stroke="midnightblue" d="M111.43,-131.66C112.93,-138.65 113.51,-148.86 113.14,-158.29"/>
<polygon fill="midnightblue" stroke="midnightblue" points="109.64,-158.15 112.34,-168.4 116.62,-158.71 109.64,-158.15"/>
</g>
<!-- Node2&#45;&gt;Node2 -->
<g id="edge9" class="edge">
<title>Node2&#45;&gt;Node2</title>
<path fill="none" stroke="midnightblue" d="M124.42,-131.57C136.37,-134.27 148,-131.08 148,-122 148,-115.55 142.12,-112.07 134.43,-111.56"/>
<polygon fill="midnightblue" stroke="midnightblue" points="134.08,-108.08 124.42,-112.43 134.68,-115.06 134.08,-108.08"/>
</g>
<!-- Node3 -->
<g id="node3" class="node">
<title>Node3</title>
<g id="a_node3"><a xlink:href="ttf_8h.html" target="_top" xlink:title=" ">
<polygon fill="white" stroke="black" points="0,-56.5 0,-75.5 101,-75.5 101,-56.5 0,-56.5"/>
<text text-anchor="middle" x="50.5" y="-63.5" font-family="Fira Code" font-size="10.00">lmda/sdl/ttf.h</text>
</a>
</g>
</g>
<!-- Node2&#45;&gt;Node3 -->
<g id="edge3" class="edge">
<title>Node2&#45;&gt;Node3</title>
<path fill="none" stroke="midnightblue" d="M92.39,-112.32C82.68,-104.58 70.3,-93.02 61.35,-83.51"/>
<polygon fill="midnightblue" stroke="midnightblue" points="63.78,-80.98 54.51,-75.83 58.55,-85.63 63.78,-80.98"/>
</g>
<!-- Node5 -->
<g id="node5" class="node">
<title>Node5</title>
<g id="a_node5"><a xlink:href="input_8h.html" target="_top" xlink:title="The game&#39;s interface to the user input devices.">
<polygon fill="white" stroke="black" points="119,-56.5 119,-75.5 208,-75.5 208,-56.5 119,-56.5"/>
<text text-anchor="middle" x="163.5" y="-63.5" font-family="Fira Code" font-size="10.00">lmda/input.h</text>
</a>
</g>
</g>
<!-- Node2&#45;&gt;Node5 -->
<g id="edge6" class="edge">
<title>Node2&#45;&gt;Node5</title>
<path fill="none" stroke="midnightblue" d="M115.66,-112.32C124,-104.42 136.53,-92.55 146.68,-82.94"/>
<polygon fill="midnightblue" stroke="midnightblue" points="149.32,-85.25 154.18,-75.83 144.51,-80.17 149.32,-85.25"/>
</g>
<!-- Node8 -->
<g id="node8" class="node">
<title>Node8</title>
<g id="a_node8"><a xlink:title=" ">
<polygon fill="white" stroke="#bfbfbf" points="226,-56.5 226,-75.5 309,-75.5 309,-56.5 226,-56.5"/>
<text text-anchor="middle" x="267.5" y="-63.5" font-family="Fira Code" font-size="10.00">SDL_image.h</text>
</a>
</g>
</g>
<!-- Node2&#45;&gt;Node8 -->
<g id="edge10" class="edge">
<title>Node2&#45;&gt;Node8</title>
<path fill="none" stroke="midnightblue" d="M130.26,-113.03C157.25,-103.98 201.56,-89.12 232.51,-78.74"/>
<polygon fill="midnightblue" stroke="midnightblue" points="233.68,-82.03 242.05,-75.54 231.46,-75.4 233.68,-82.03"/>
</g>
<!-- Node3&#45;&gt;Node2 -->
<g id="edge4" class="edge">
<title>Node3&#45;&gt;Node2</title>
<path fill="none" stroke="midnightblue" d="M64.71,-75.75C74.38,-83.48 86.68,-94.97 95.6,-104.43"/>
<polygon fill="midnightblue" stroke="midnightblue" points="93.15,-106.95 102.42,-112.08 98.38,-102.29 93.15,-106.95"/>
</g>
<!-- Node4 -->
<g id="node4" class="node">
<title>Node4</title>
<g id="a_node4"><a xlink:title=" ">
<polygon fill="white" stroke="#bfbfbf" points="3,-0.5 3,-19.5 74,-19.5 74,-0.5 3,-0.5"/>
<text text-anchor="middle" x="38.5" y="-7.5" font-family="Fira Code" font-size="10.00">SDL_ttf.h</text>
</a>
</g>
</g>
<!-- Node3&#45;&gt;Node4 -->
<g id="edge5" class="edge">
<title>Node3&#45;&gt;Node4</title>
<path fill="none" stroke="midnightblue" d="M48.52,-56.08C46.93,-48.93 44.64,-38.64 42.65,-29.69"/>
<polygon fill="midnightblue" stroke="midnightblue" points="46.03,-28.75 40.44,-19.75 39.2,-30.27 46.03,-28.75"/>
</g>
<!-- Node6 -->
<g id="node6" class="node">
<title>Node6</title>
<g id="a_node6"><a xlink:href="keyboard_8h.html" target="_top" xlink:title="Defines symbols for SDL keyboard key identifiers.">
<polygon fill="white" stroke="black" points="92,-0.5 92,-19.5 235,-19.5 235,-0.5 92,-0.5"/>
<text text-anchor="middle" x="163.5" y="-7.5" font-family="Fira Code" font-size="10.00">lmda/input/keyboard.h</text>
</a>
</g>
</g>
<!-- Node5&#45;&gt;Node6 -->
<g id="edge7" class="edge">
<title>Node5&#45;&gt;Node6</title>
<path fill="none" stroke="midnightblue" d="M163.5,-56.08C163.5,-49.01 163.5,-38.86 163.5,-29.99"/>
<polygon fill="midnightblue" stroke="midnightblue" points="167,-29.75 163.5,-19.75 160,-29.75 167,-29.75"/>
</g>
<!-- Node7 -->
<g id="node7" class="node">
<title>Node7</title>
<g id="a_node7"><a xlink:href="signal_8h.html" target="_top" xlink:title="Declares the types of signal transitions that may represent a state change.">
<polygon fill="white" stroke="black" points="253,-0.5 253,-19.5 348,-19.5 348,-0.5 253,-0.5"/>
<text text-anchor="middle" x="300.5" y="-7.5" font-family="Fira Code" font-size="10.00">lmda/signal.h</text>
</a>
</g>
</g>
<!-- Node5&#45;&gt;Node7 -->
<g id="edge8" class="edge">
<title>Node5&#45;&gt;Node7</title>
<path fill="none" stroke="midnightblue" d="M185.21,-56.44C207.85,-47.52 243.57,-33.44 269.25,-23.32"/>
<polygon fill="midnightblue" stroke="midnightblue" points="270.87,-26.44 278.89,-19.52 268.31,-19.93 270.87,-26.44"/>
</g>
</g>
</svg>
