<?xml version="1.0" encoding="UTF-8" standalone="no"?>
<!DOCTYPE svg PUBLIC "-//W3C//DTD SVG 1.1//EN"
 "http://www.w3.org/Graphics/SVG/1.1/DTD/svg11.dtd">
<!-- Generated by graphviz version 3.0.0 (20220226.1711)
 -->
<!-- Title: src/include/lmda/sdl/color.h Pages: 1 -->
<!--zoomable 229 -->
<svg id="main" version="1.1" xmlns="http://www.w3.org/2000/svg" xmlns:xlink="http://www.w3.org/1999/xlink" xml:space="preserve" onload="init(evt)">
<style type="text/css"><![CDATA[
.edge:hover path { stroke: red; }
.edge:hover polygon { stroke: red; fill: red; }
]]></style>
<script type="text/javascript"><![CDATA[
var edges = document.getElementsByTagName('g');
if (edges && edges.length) {
  for (var i=0;i<edges.length;i++) {
    if (edges[i].id.substr(0,4)=='edge') {
      edges[i].setAttribute('class','edge');
    }
  }
}
]]></script>
        <defs>
                <circle id="rim" cx="0" cy="0" r="7"/>
                <circle id="rim2" cx="0" cy="0" r="3.5"/>
                <g id="zoomPlus">
                        <use xlink:href="#rim" fill="#404040">
                                <set attributeName="fill" to="#808080" begin="zoomplus.mouseover" end="zoomplus.mouseout"/>
                        </use>
                        <path d="M-4,0h8M0,-4v8" fill="none" stroke="white" stroke-width="1.5" pointer-events="none"/>
                </g>
                <g id="zoomMin">
                        <use xlink:href="#rim" fill="#404040">
                                <set attributeName="fill" to="#808080" begin="zoomminus.mouseover" end="zoomminus.mouseout"/>
                        </use>
                        <path d="M-4,0h8" fill="none" stroke="white" stroke-width="1.5" pointer-events="none"/>
                </g>
                <g id="dirArrow">
                        <path fill="none" stroke="white" stroke-width="1.5" d="M0,-3.0v7 M-2.5,-0.5L0,-3.0L2.5,-0.5"/>
                </g>
               <g id="resetDef">
                       <use xlink:href="#rim2" fill="#404040">
                               <set attributeName="fill" to="#808080" begin="reset.mouseover" end="reset.mouseout"/>
                       </use>
               </g>
        </defs>

<script type="text/javascript">
var viewWidth = 1057;
var viewHeight = 229;
var sectionId = 'dynsection-1';
</script>
<script xlink:href="svgpan.js"/>
<svg id="graph" class="graph">
<g id="viewport">
<title>src/include/lmda/sdl/color.h</title>
<polygon fill="white" stroke="transparent" points="-4,4 -4,-225 1053,-225 1053,4 -4,4"/>
<!-- Node1 -->
<g id="node1" class="node">
<title>Node1</title>
<g id="a_node1"><a xlink:title="Defines symbols for common SDL color values.">
<polygon fill="#bfbfbf" stroke="black" points="379,-190.5 379,-220.5 516,-220.5 516,-190.5 379,-190.5"/>
<text text-anchor="start" x="387" y="-208.5" font-family="Fira Code" font-size="10.00">src/include/lmda/sdl</text>
<text text-anchor="middle" x="447.5" y="-197.5" font-family="Fira Code" font-size="10.00">/color.h</text>
</a>
</g>
</g>
<!-- Node2 -->
<g id="node2" class="node">
<title>Node2</title>
<g id="a_node2"><a xlink:href="sdl_8h.html" target="_top" xlink:title="Interface to the SDL subsystems (rendering, image loading, sound, etc).">
<polygon fill="white" stroke="black" points="373,-134.5 373,-153.5 522,-153.5 522,-134.5 373,-134.5"/>
<text text-anchor="middle" x="447.5" y="-141.5" font-family="Fira Code" font-size="10.00">src/include/lmda/sdl.h</text>
</a>
</g>
</g>
<!-- Node1&#45;&gt;Node2 -->
<g id="edge1" class="edge">
<title>Node1&#45;&gt;Node2</title>
<path fill="none" stroke="midnightblue" d="M440.86,-180.29C440.49,-170.86 441.07,-160.65 442.57,-153.66"/>
<polygon fill="midnightblue" stroke="midnightblue" points="437.38,-180.71 441.66,-190.4 444.36,-180.15 437.38,-180.71"/>
</g>
<!-- Node2&#45;&gt;Node1 -->
<g id="edge11" class="edge">
<title>Node2&#45;&gt;Node1</title>
<path fill="none" stroke="midnightblue" d="M453.81,-163.57C454.53,-172.23 454.37,-182.38 453.34,-190.4"/>
<polygon fill="midnightblue" stroke="midnightblue" points="457.27,-163.08 452.43,-153.66 450.34,-164.04 457.27,-163.08"/>
</g>
<!-- Node2&#45;&gt;Node2 -->
<g id="edge10" class="edge">
<title>Node2&#45;&gt;Node2</title>
<path fill="none" stroke="midnightblue" d="M491.69,-154.67C516.76,-156.76 540,-153.21 540,-144 540,-133.57 510.19,-130.39 481.65,-134.47"/>
<polygon fill="midnightblue" stroke="midnightblue" points="491.98,-151.18 481.65,-153.53 491.2,-158.13 491.98,-151.18"/>
</g>
<!-- Node3 -->
<g id="node3" class="node">
<title>Node3</title>
<g id="a_node3"><a xlink:href="sdl_8c.html" target="_top" xlink:title="High&#45;level SDL operations, e.g. opening a window.">
<polygon fill="white" stroke="black" points="0,-6 0,-25 125,-25 125,-6 0,-6"/>
<text text-anchor="middle" x="62.5" y="-13" font-family="Fira Code" font-size="10.00">src/game/sdl/sdl.c</text>
</a>
</g>
</g>
<!-- Node2&#45;&gt;Node3 -->
<g id="edge2" class="edge">
<title>Node2&#45;&gt;Node3</title>
<path fill="none" stroke="midnightblue" d="M397.54,-132.12C361.82,-123.9 312.77,-111.71 270.5,-98 235.02,-86.49 227.22,-80.64 192.5,-67 154.64,-52.12 110.49,-35.02 84.6,-25.03"/>
<polygon fill="midnightblue" stroke="midnightblue" points="397.19,-135.63 407.71,-134.44 398.74,-128.8 397.19,-135.63"/>
</g>
<!-- Node4 -->
<g id="node4" class="node">
<title>Node4</title>
<g id="a_node4"><a xlink:href="plugin_8h.html" target="_top" xlink:title="Declares the interface to the game library; implementing that interface defines a game plugin.">
<polygon fill="white" stroke="black" points="279,-73 279,-92 446,-92 446,-73 279,-73"/>
<text text-anchor="middle" x="362.5" y="-80" font-family="Fira Code" font-size="10.00">src/include/lmda/plugin.h</text>
</a>
</g>
</g>
<!-- Node2&#45;&gt;Node4 -->
<g id="edge3" class="edge">
<title>Node2&#45;&gt;Node4</title>
<path fill="none" stroke="midnightblue" d="M426.95,-128.61C410.6,-117.17 388.28,-101.55 374.66,-92.01"/>
<polygon fill="midnightblue" stroke="midnightblue" points="425.12,-131.61 435.32,-134.48 429.14,-125.87 425.12,-131.61"/>
</g>
<!-- Node10 -->
<g id="node10" class="node">
<title>Node10</title>
<g id="a_node10"><a xlink:href="event__type__name_8h.html" target="_top" xlink:title=" ">
<polygon fill="white" stroke="black" points="46,-67.5 46,-97.5 183,-97.5 183,-67.5 46,-67.5"/>
<text text-anchor="start" x="54" y="-85.5" font-family="Fira Code" font-size="10.00">src/include/lmda/sdl</text>
<text text-anchor="middle" x="114.5" y="-74.5" font-family="Fira Code" font-size="10.00">/event_type_name.h</text>
</a>
</g>
</g>
<!-- Node2&#45;&gt;Node10 -->
<g id="edge12" class="edge">
<title>Node2&#45;&gt;Node10</title>
<path fill="none" stroke="midnightblue" d="M389.79,-132.69C332.37,-122.43 244.25,-106.68 183.24,-95.78"/>
<polygon fill="midnightblue" stroke="midnightblue" points="389.33,-136.16 399.79,-134.48 390.56,-129.27 389.33,-136.16"/>
</g>
<!-- Node11 -->
<g id="node11" class="node">
<title>Node11</title>
<g id="a_node11"><a xlink:href="ttf_8h.html" target="_top" xlink:title=" ">
<polygon fill="white" stroke="black" points="464,-67.5 464,-97.5 601,-97.5 601,-67.5 464,-67.5"/>
<text text-anchor="start" x="472" y="-85.5" font-family="Fira Code" font-size="10.00">src/include/lmda/sdl</text>
<text text-anchor="middle" x="532.5" y="-74.5" font-family="Fira Code" font-size="10.00">/ttf.h</text>
</a>
</g>
</g>
<!-- Node2&#45;&gt;Node11 -->
<g id="edge14" class="edge">
<title>Node2&#45;&gt;Node11</title>
<path fill="none" stroke="midnightblue" d="M462.72,-128.2C475,-118.81 492.26,-106.75 506.64,-97.52"/>
<polygon fill="midnightblue" stroke="midnightblue" points="460.45,-125.53 454.78,-134.48 464.79,-131.02 460.45,-125.53"/>
</g>
<!-- Node13 -->
<g id="node13" class="node">
<title>Node13</title>
<g id="a_node13"><a xlink:href="fs_8c.html" target="_top" xlink:title="Platform&#45;independent filesystem operations.">
<polygon fill="white" stroke="black" points="619,-73 619,-92 780,-92 780,-73 619,-73"/>
<text text-anchor="middle" x="699.5" y="-80" font-family="Fira Code" font-size="10.00">src/platform/common/fs.c</text>
</a>
</g>
</g>
<!-- Node2&#45;&gt;Node13 -->
<g id="edge18" class="edge">
<title>Node2&#45;&gt;Node13</title>
<path fill="none" stroke="midnightblue" d="M493.61,-132.11C542.52,-120.57 618.77,-102.56 663.46,-92.01"/>
<polygon fill="midnightblue" stroke="midnightblue" points="492.53,-128.77 483.61,-134.48 494.14,-135.58 492.53,-128.77"/>
</g>
<!-- Node4&#45;&gt;Node3 -->
<g id="edge6" class="edge">
<title>Node4&#45;&gt;Node3</title>
<path fill="none" stroke="midnightblue" d="M313.13,-70.8C254.09,-58.01 156.46,-36.86 102.12,-25.08"/>
<polygon fill="midnightblue" stroke="midnightblue" points="312.46,-74.24 322.97,-72.94 313.94,-67.4 312.46,-74.24"/>
</g>
<!-- Node5 -->
<g id="node5" class="node">
<title>Node5</title>
<g id="a_node5"><a xlink:href="main_8c.html" target="_top" xlink:title="Entrypoint to game application (i.e. game plugin host).">
<polygon fill="white" stroke="black" points="805,-6 805,-25 906,-25 906,-6 805,-6"/>
<text text-anchor="middle" x="855.5" y="-13" font-family="Fira Code" font-size="10.00">src/app/main.c</text>
</a>
</g>
</g>
<!-- Node4&#45;&gt;Node5 -->
<g id="edge4" class="edge">
<title>Node4&#45;&gt;Node5</title>
<path fill="none" stroke="midnightblue" d="M424.02,-71.47C434.51,-69.88 445.31,-68.33 455.5,-67 606.61,-47.26 646.38,-57.25 796.5,-31 805.54,-29.42 815.25,-27.24 824.13,-25.05"/>
<polygon fill="midnightblue" stroke="midnightblue" points="423.44,-68.02 414.09,-72.99 424.5,-74.94 423.44,-68.02"/>
</g>
<!-- Node6 -->
<g id="node6" class="node">
<title>Node6</title>
<g id="a_node6"><a xlink:href="game__plugin_8c.html" target="_top" xlink:title="The game plugin itself; implements the plugin interface to run the game.">
<polygon fill="white" stroke="black" points="143,-6 143,-25 292,-25 292,-6 143,-6"/>
<text text-anchor="middle" x="217.5" y="-13" font-family="Fira Code" font-size="10.00">src/game/game_plugin.c</text>
</a>
</g>
</g>
<!-- Node4&#45;&gt;Node6 -->
<g id="edge5" class="edge">
<title>Node4&#45;&gt;Node6</title>
<path fill="none" stroke="midnightblue" d="M333.75,-68.61C305.03,-55.74 261.68,-36.31 236.83,-25.17"/>
<polygon fill="midnightblue" stroke="midnightblue" points="332.69,-71.97 343.25,-72.87 335.55,-65.58 332.69,-71.97"/>
</g>
<!-- Node7 -->
<g id="node7" class="node">
<title>Node7</title>
<g id="a_node7"><a xlink:href="plugin_8c.html" target="_top" xlink:title="Platform&#45;independent plugin loading operations.">
<polygon fill="white" stroke="black" points="310,-0.5 310,-30.5 441,-30.5 441,-0.5 310,-0.5"/>
<text text-anchor="start" x="318" y="-18.5" font-family="Fira Code" font-size="10.00">src/platform/common</text>
<text text-anchor="middle" x="375.5" y="-7.5" font-family="Fira Code" font-size="10.00">/plugin.c</text>
</a>
</g>
</g>
<!-- Node4&#45;&gt;Node7 -->
<g id="edge7" class="edge">
<title>Node4&#45;&gt;Node7</title>
<path fill="none" stroke="midnightblue" d="M366.25,-62.74C368.3,-52.49 370.8,-40 372.68,-30.59"/>
<polygon fill="midnightblue" stroke="midnightblue" points="362.78,-62.24 364.25,-72.73 369.65,-63.61 362.78,-62.24"/>
</g>
<!-- Node8 -->
<g id="node8" class="node">
<title>Node8</title>
<g id="a_node8"><a xlink:href="plugin__mac_8c.html" target="_top" xlink:title="Plugin loading on MacOS.">
<polygon fill="white" stroke="black" points="459,-0.5 459,-30.5 614,-30.5 614,-0.5 459,-0.5"/>
<text text-anchor="start" x="467" y="-18.5" font-family="Fira Code" font-size="10.00">src/platform/mac/plugin</text>
<text text-anchor="middle" x="536.5" y="-7.5" font-family="Fira Code" font-size="10.00">_mac.c</text>
</a>
</g>
</g>
<!-- Node4&#45;&gt;Node8 -->
<g id="edge8" class="edge">
<title>Node4&#45;&gt;Node8</title>
<path fill="none" stroke="midnightblue" d="M395.03,-69.35C424.53,-58.33 467.99,-42.09 498.95,-30.53"/>
<polygon fill="midnightblue" stroke="midnightblue" points="393.75,-66.09 385.61,-72.87 396.2,-72.65 393.75,-66.09"/>
</g>
<!-- Node9 -->
<g id="node9" class="node">
<title>Node9</title>
<g id="a_node9"><a xlink:href="timing__mac_8c.html" target="_top" xlink:title="High&#45;resolution timing on MacOS.">
<polygon fill="white" stroke="black" points="632,-0.5 632,-30.5 787,-30.5 787,-0.5 632,-0.5"/>
<text text-anchor="start" x="640" y="-18.5" font-family="Fira Code" font-size="10.00">src/platform/mac/timing</text>
<text text-anchor="middle" x="709.5" y="-7.5" font-family="Fira Code" font-size="10.00">_mac.c</text>
</a>
</g>
</g>
<!-- Node4&#45;&gt;Node9 -->
<g id="edge9" class="edge">
<title>Node4&#45;&gt;Node9</title>
<path fill="none" stroke="midnightblue" d="M418.4,-71.03C477.03,-60.05 569.49,-42.73 634.45,-30.56"/>
<polygon fill="midnightblue" stroke="midnightblue" points="417.41,-67.65 408.22,-72.94 418.69,-74.53 417.41,-67.65"/>
</g>
<!-- Node10&#45;&gt;Node3 -->
<g id="edge13" class="edge">
<title>Node10&#45;&gt;Node3</title>
<path fill="none" stroke="midnightblue" d="M96.75,-59.32C87.38,-47.6 76.41,-33.88 69.46,-25.19"/>
<polygon fill="midnightblue" stroke="midnightblue" points="94.24,-61.77 103.22,-67.4 99.7,-57.4 94.24,-61.77"/>
</g>
<!-- Node11&#45;&gt;Node2 -->
<g id="edge17" class="edge">
<title>Node11&#45;&gt;Node2</title>
<path fill="none" stroke="midnightblue" d="M509.98,-103.77C495.72,-114.25 477.72,-126.49 464.58,-134.48"/>
<polygon fill="midnightblue" stroke="midnightblue" points="512.4,-106.33 518.3,-97.52 508.2,-100.73 512.4,-106.33"/>
</g>
<!-- Node11&#45;&gt;Node3 -->
<g id="edge15" class="edge">
<title>Node11&#45;&gt;Node3</title>
<path fill="none" stroke="midnightblue" d="M453.72,-66.8C311.36,-45.99 272.55,-52.93 133.5,-31 122.94,-29.33 111.56,-27.18 101.08,-25.04"/>
<polygon fill="midnightblue" stroke="midnightblue" points="453.29,-70.28 463.7,-68.28 454.32,-63.35 453.29,-70.28"/>
</g>
<!-- Node12 -->
<g id="node12" class="node">
<title>Node12</title>
<g id="a_node12"><a xlink:href="ttf_8c.html" target="_top" xlink:title="Rendering text in truetype fonts.">
<polygon fill="white" stroke="black" points="924,-6 924,-25 1049,-25 1049,-6 924,-6"/>
<text text-anchor="middle" x="986.5" y="-13" font-family="Fira Code" font-size="10.00">src/game/sdl/ttf.c</text>
</a>
</g>
</g>
<!-- Node11&#45;&gt;Node12 -->
<g id="edge16" class="edge">
<title>Node11&#45;&gt;Node12</title>
<path fill="none" stroke="midnightblue" d="M611.32,-66.95C747.16,-46.79 783.89,-52.17 915.5,-31 925.93,-29.32 937.16,-27.18 947.55,-25.07"/>
<polygon fill="midnightblue" stroke="midnightblue" points="610.73,-63.5 601.36,-68.44 611.77,-70.42 610.73,-63.5"/>
</g>
</g>
</svg>
        <g id="navigator" transform="translate(0 0)" fill="#404254">
                <rect fill="#f2f5e9" fill-opacity="0.5" stroke="#606060" stroke-width=".5" x="0" y="0" width="60" height="60"/>
                <use id="zoomplus" xlink:href="#zoomPlus" x="17" y="9" onmousedown="handleZoom(evt,'in')"/>
                <use id="zoomminus" xlink:href="#zoomMin" x="42" y="9" onmousedown="handleZoom(evt,'out')"/>
                <use id="reset" xlink:href="#resetDef" x="30" y="36" onmousedown="handleReset()"/>
                <g id="arrowUp" xlink:href="#dirArrow" transform="translate(30 24)" onmousedown="handlePan(0,-1)">
                  <use xlink:href="#rim" fill="#404040">
                        <set attributeName="fill" to="#808080" begin="arrowUp.mouseover" end="arrowUp.mouseout"/>
                  </use>
                  <path fill="none" stroke="white" stroke-width="1.5" d="M0,-3.0v7 M-2.5,-0.5L0,-3.0L2.5,-0.5"/>
                </g>
                <g id="arrowRight" xlink:href="#dirArrow" transform="rotate(90) translate(36 -43)" onmousedown="handlePan(1,0)">
                  <use xlink:href="#rim" fill="#404040">
                        <set attributeName="fill" to="#808080" begin="arrowRight.mouseover" end="arrowRight.mouseout"/>
                  </use>
                  <path fill="none" stroke="white" stroke-width="1.5" d="M0,-3.0v7 M-2.5,-0.5L0,-3.0L2.5,-0.5"/>
                </g>
                <g id="arrowDown" xlink:href="#dirArrow" transform="rotate(180) translate(-30 -48)" onmousedown="handlePan(0,1)">
                  <use xlink:href="#rim" fill="#404040">
                        <set attributeName="fill" to="#808080" begin="arrowDown.mouseover" end="arrowDown.mouseout"/>
                  </use>
                  <path fill="none" stroke="white" stroke-width="1.5" d="M0,-3.0v7 M-2.5,-0.5L0,-3.0L2.5,-0.5"/>
                </g>
                <g id="arrowLeft" xlink:href="#dirArrow" transform="rotate(270) translate(-36 17)" onmousedown="handlePan(-1,0)">
                  <use xlink:href="#rim" fill="#404040">
                        <set attributeName="fill" to="#808080" begin="arrowLeft.mouseover" end="arrowLeft.mouseout"/>
                  </use>
                  <path fill="none" stroke="white" stroke-width="1.5" d="M0,-3.0v7 M-2.5,-0.5L0,-3.0L2.5,-0.5"/>
                </g>
        </g>
        <svg viewBox="0 0 15 15" width="100%" height="30px" preserveAspectRatio="xMaxYMin meet">
         <g id="arrow_out" transform="scale(0.3 0.3)">
          <a xlink:href="color_8h__dep__incl_org.svg" target="_base">
           <rect id="button" ry="5" rx="5" y="6" x="6" height="38" width="38"
                fill="#f2f5e9" fill-opacity="0.5" stroke="#606060" stroke-width="1.0"/>
           <path id="arrow"
             d="M 11.500037,31.436501 C 11.940474,20.09759 22.043105,11.32322 32.158766,21.979434 L 37.068811,17.246167 C 37.068811,17.246167 37.088388,32 37.088388,32 L 22.160133,31.978069 C 22.160133,31.978069 26.997745,27.140456 26.997745,27.140456 C 18.528582,18.264221 13.291696,25.230495 11.500037,31.436501 z"
             style="fill:#404040;"/>
          </a>
         </g>
        </svg>
</svg>
