<?xml version="1.0" encoding="UTF-8" standalone="no"?>
<!DOCTYPE svg PUBLIC "-//W3C//DTD SVG 1.1//EN"
 "http://www.w3.org/Graphics/SVG/1.1/DTD/svg11.dtd">
<!-- Generated by graphviz version 3.0.0 (20220226.1711)
 -->
<!-- Title: src/platform Pages: 1 -->
<svg width="338pt" height="175pt"
 viewBox="0.00 0.00 338.00 175.00" xmlns="http://www.w3.org/2000/svg" xmlns:xlink="http://www.w3.org/1999/xlink">
<g id="graph0" class="graph" transform="scale(1 1) rotate(0) translate(4 171)">
<title>src/platform</title>
<polygon fill="white" stroke="transparent" points="-4,4 -4,-171 334,-171 334,4 -4,4"/>
<g id="clust1" class="cluster">
<title>clusterdir_68267d1309a1af8e8297ef4c3efbcdba</title>
<g id="a_clust1"><a xlink:href="dir_68267d1309a1af8e8297ef4c3efbcdba.html" target="_top" xlink:title="src">
<polygon fill="#edf0f7" stroke="#404040" stroke-dasharray="5,2" points="8,-8 8,-159 322,-159 322,-8 8,-8"/>
<text text-anchor="middle" x="165" y="-147" font-family="Fira Code" font-size="10.00">src</text>
</a>
</g>
</g>
<g id="clust2" class="cluster">
<title>clusterdir_4b68c2fef3e151b6b93d5e93b14f1857</title>
<g id="a_clust2"><a xlink:href="dir_4b68c2fef3e151b6b93d5e93b14f1857.html" target="_top">
<polygon fill="#edf0f7" stroke="#404040" stroke-width="2" points="16,-80 16,-132 314,-132 314,-80 16,-80"/>
</a>
</g>
</g>
<!-- dir_b0856f6b0d80ccb263b2f415c91f9e17 -->
<g id="node1" class="node">
<title>dir_b0856f6b0d80ccb263b2f415c91f9e17</title>
<g id="a_node1"><a xlink:href="dir_b0856f6b0d80ccb263b2f415c91f9e17.html" target="_top" xlink:title="include">
<polygon fill="#a2b4d6" stroke="red" points="152.5,-52 93.5,-52 93.5,-16 152.5,-16 152.5,-52"/>
<text text-anchor="middle" x="123" y="-31.5" font-family="Fira Code" font-size="10.00">include</text>
</a>
</g>
</g>
<!-- dir_4b68c2fef3e151b6b93d5e93b14f1857 -->
<g id="node2" class="node">
<title>dir_4b68c2fef3e151b6b93d5e93b14f1857</title>
<text text-anchor="middle" x="273" y="-103.5" font-family="Fira Code" font-size="10.00">platform</text>
</g>
<!-- dir_5e9e3995bf2704f61854cc01f31ed591 -->
<g id="node3" class="node">
<title>dir_5e9e3995bf2704f61854cc01f31ed591</title>
<g id="a_node3"><a xlink:href="dir_5e9e3995bf2704f61854cc01f31ed591.html" target="_top" xlink:title="common">
<polygon fill="#a2b4d6" stroke="#404040" points="222,-124 168,-124 168,-88 222,-88 222,-124"/>
<text text-anchor="middle" x="195" y="-103.5" font-family="Fira Code" font-size="10.00">common</text>
</a>
</g>
</g>
<!-- dir_5e9e3995bf2704f61854cc01f31ed591&#45;&gt;dir_b0856f6b0d80ccb263b2f415c91f9e17 -->
<g id="edge1" class="edge">
<title>dir_5e9e3995bf2704f61854cc01f31ed591&#45;&gt;dir_b0856f6b0d80ccb263b2f415c91f9e17</title>
<path fill="none" stroke="black" d="M177.2,-87.7C168.4,-79.14 157.62,-68.66 148,-59.3"/>
<polygon fill="black" stroke="black" points="150.2,-56.57 140.59,-52.1 145.32,-61.58 150.2,-56.57"/>
<g id="a_edge1&#45;headlabel"><a xlink:href="dir_000002_000004.html" target="_top" xlink:title="8">
<text text-anchor="middle" x="154.76" y="-54.54" font-family="Fira Code" font-size="10.00">8</text>
</a>
</g>
</g>
<!-- dir_d495f64980bbe38b051833e2ea235ce7 -->
<g id="node4" class="node">
<title>dir_d495f64980bbe38b051833e2ea235ce7</title>
<g id="a_node4"><a xlink:href="dir_d495f64980bbe38b051833e2ea235ce7.html" target="_top" xlink:title="mac">
<polygon fill="#a2b4d6" stroke="#404040" points="150,-124 96,-124 96,-88 150,-88 150,-124"/>
<text text-anchor="middle" x="123" y="-103.5" font-family="Fira Code" font-size="10.00">mac</text>
</a>
</g>
</g>
<!-- dir_d495f64980bbe38b051833e2ea235ce7&#45;&gt;dir_b0856f6b0d80ccb263b2f415c91f9e17 -->
<g id="edge2" class="edge">
<title>dir_d495f64980bbe38b051833e2ea235ce7&#45;&gt;dir_b0856f6b0d80ccb263b2f415c91f9e17</title>
<path fill="none" stroke="black" d="M123,-87.7C123,-79.98 123,-70.71 123,-62.11"/>
<polygon fill="black" stroke="black" points="126.5,-62.1 123,-52.1 119.5,-62.1 126.5,-62.1"/>
<g id="a_edge2&#45;headlabel"><a xlink:href="dir_000008_000004.html" target="_top" xlink:title="7">
<text text-anchor="middle" x="129.34" y="-63.2" font-family="Fira Code" font-size="10.00">7</text>
</a>
</g>
</g>
<!-- dir_034e13885ab824e33fe8acf71c829fe5 -->
<g id="node5" class="node">
<title>dir_034e13885ab824e33fe8acf71c829fe5</title>
<g id="a_node5"><a xlink:href="dir_034e13885ab824e33fe8acf71c829fe5.html" target="_top" xlink:title="win">
<polygon fill="#a2b4d6" stroke="#404040" points="78,-124 24,-124 24,-88 78,-88 78,-124"/>
<text text-anchor="middle" x="51" y="-103.5" font-family="Fira Code" font-size="10.00">win</text>
</a>
</g>
</g>
<!-- dir_034e13885ab824e33fe8acf71c829fe5&#45;&gt;dir_b0856f6b0d80ccb263b2f415c91f9e17 -->
<g id="edge3" class="edge">
<title>dir_034e13885ab824e33fe8acf71c829fe5&#45;&gt;dir_b0856f6b0d80ccb263b2f415c91f9e17</title>
<path fill="none" stroke="black" d="M68.8,-87.7C77.6,-79.14 88.38,-68.66 98,-59.3"/>
<polygon fill="black" stroke="black" points="100.68,-61.58 105.41,-52.1 95.8,-56.57 100.68,-61.58"/>
<g id="a_edge3&#45;headlabel"><a xlink:href="dir_000014_000004.html" target="_top" xlink:title="3">
<text text-anchor="middle" x="100.08" y="-63.63" font-family="Fira Code" font-size="10.00">3</text>
</a>
</g>
</g>
</g>
</svg>
