<?xml version="1.0" encoding="UTF-8" standalone="no"?>
<!DOCTYPE svg PUBLIC "-//W3C//DTD SVG 1.1//EN"
 "http://www.w3.org/Graphics/SVG/1.1/DTD/svg11.dtd">
<!-- Generated by graphviz version 3.0.0 (20220226.1711)
 -->
<!-- Title: src/include/lmda Pages: 1 -->
<svg width="182pt" height="183pt"
 viewBox="0.00 0.00 182.00 183.00" xmlns="http://www.w3.org/2000/svg" xmlns:xlink="http://www.w3.org/1999/xlink">
<g id="graph0" class="graph" transform="scale(1 1) rotate(0) translate(4 179)">
<title>src/include/lmda</title>
<polygon fill="white" stroke="transparent" points="-4,4 -4,-179 178,-179 178,4 -4,4"/>
<g id="clust1" class="cluster">
<title>clusterdir_b0856f6b0d80ccb263b2f415c91f9e17</title>
<g id="a_clust1"><a xlink:href="dir_b0856f6b0d80ccb263b2f415c91f9e17.html" target="_top" xlink:title="include">
<polygon fill="#edf0f7" stroke="#7f7f7f" stroke-dasharray="5,2" points="8,-8 8,-167 166,-167 166,-8 8,-8"/>
<text text-anchor="middle" x="87" y="-155" font-family="Fira Code" font-size="10.00">include</text>
</a>
</g>
</g>
<g id="clust2" class="cluster">
<title>clusterdir_4e4dd790e2c36dacd81b0b00e80dd1d1</title>
<g id="a_clust2"><a xlink:href="dir_4e4dd790e2c36dacd81b0b00e80dd1d1.html" target="_top">
<polygon fill="#edf0f7" stroke="#404040" stroke-width="2" points="16,-16 16,-140 158,-140 158,-16 16,-16"/>
</a>
</g>
</g>
<!-- dir_4e4dd790e2c36dacd81b0b00e80dd1d1 -->
<g id="node1" class="node">
<title>dir_4e4dd790e2c36dacd81b0b00e80dd1d1</title>
<text text-anchor="middle" x="87" y="-111.5" font-family="Fira Code" font-size="10.00">lmda</text>
</g>
<!-- dir_84212f2f63fa66431ce2fe96d9ef4dc0 -->
<g id="node2" class="node">
<title>dir_84212f2f63fa66431ce2fe96d9ef4dc0</title>
<g id="a_node2"><a xlink:href="dir_84212f2f63fa66431ce2fe96d9ef4dc0.html" target="_top" xlink:title="input">
<polygon fill="#a2b4d6" stroke="#404040" points="78,-60 24,-60 24,-24 78,-24 78,-60"/>
<text text-anchor="middle" x="51" y="-39.5" font-family="Fira Code" font-size="10.00">input</text>
</a>
</g>
</g>
<!-- dir_4e4dd790e2c36dacd81b0b00e80dd1d1&#45;&gt;dir_84212f2f63fa66431ce2fe96d9ef4dc0 -->
<g id="edge2" class="edge">
<title>dir_4e4dd790e2c36dacd81b0b00e80dd1d1&#45;&gt;dir_84212f2f63fa66431ce2fe96d9ef4dc0</title>
<path fill="none" stroke="black" d="M78.1,-95.7C74,-87.73 69.05,-78.1 64.51,-69.26"/>
<polygon fill="black" stroke="black" points="67.48,-67.4 59.8,-60.1 61.26,-70.6 67.48,-67.4"/>
<g id="a_edge2&#45;headlabel"><a xlink:href="dir_000007_000006.html" target="_top" xlink:title="1">
<text text-anchor="middle" x="71.65" y="-66.79" font-family="Fira Code" font-size="10.00">1</text>
</a>
</g>
</g>
<!-- dir_7d47b6e4e87b79b4f2aa17b3e2236eda -->
<g id="node3" class="node">
<title>dir_7d47b6e4e87b79b4f2aa17b3e2236eda</title>
<g id="a_node3"><a xlink:href="dir_7d47b6e4e87b79b4f2aa17b3e2236eda.html" target="_top" xlink:title="sdl">
<polygon fill="#a2b4d6" stroke="#404040" points="150,-60 96,-60 96,-24 150,-24 150,-60"/>
<text text-anchor="middle" x="123" y="-39.5" font-family="Fira Code" font-size="10.00">sdl</text>
</a>
</g>
</g>
<!-- dir_4e4dd790e2c36dacd81b0b00e80dd1d1&#45;&gt;dir_7d47b6e4e87b79b4f2aa17b3e2236eda -->
<g id="edge1" class="edge">
<title>dir_4e4dd790e2c36dacd81b0b00e80dd1d1&#45;&gt;dir_7d47b6e4e87b79b4f2aa17b3e2236eda</title>
<path fill="none" stroke="black" d="M95.9,-95.7C100,-87.73 104.95,-78.1 109.49,-69.26"/>
<polygon fill="black" stroke="black" points="112.74,-70.6 114.2,-60.1 106.52,-67.4 112.74,-70.6"/>
<g id="a_edge1&#45;headlabel"><a xlink:href="dir_000007_000011.html" target="_top" xlink:title="2">
<text text-anchor="middle" x="113.62" y="-72.59" font-family="Fira Code" font-size="10.00">2</text>
</a>
</g>
</g>
</g>
</svg>
