<?xml version="1.0" encoding="UTF-8" standalone="no"?>
<!DOCTYPE svg PUBLIC "-//W3C//DTD SVG 1.1//EN"
 "http://www.w3.org/Graphics/SVG/1.1/DTD/svg11.dtd">
<!-- Generated by graphviz version 3.0.0 (20220226.1711)
 -->
<!-- Title: src/game/input Pages: 1 -->
<svg width="94pt" height="151pt"
 viewBox="0.00 0.00 94.00 151.00" xmlns="http://www.w3.org/2000/svg" xmlns:xlink="http://www.w3.org/1999/xlink">
<g id="graph0" class="graph" transform="scale(1 1) rotate(0) translate(4 147)">
<title>src/game/input</title>
<polygon fill="white" stroke="transparent" points="-4,4 -4,-147 90,-147 90,4 -4,4"/>
<g id="clust1" class="cluster">
<title>clusterdir_1699be727a800b1d059c6f7f2b91d2ee</title>
<g id="a_clust1"><a xlink:href="dir_1699be727a800b1d059c6f7f2b91d2ee.html" target="_top" xlink:title="game">
<polygon fill="#edf0f7" stroke="#7f7f7f" stroke-dasharray="5,2" points="8,-64 8,-135 78,-135 78,-64 8,-64"/>
<text text-anchor="middle" x="43" y="-123" font-family="Fira Code" font-size="10.00">game</text>
</a>
</g>
</g>
<!-- dir_4ecc7ac2b9161d9736e08b42aeb2594a -->
<g id="node1" class="node">
<title>dir_4ecc7ac2b9161d9736e08b42aeb2594a</title>
<g id="a_node1"><a xlink:href="dir_4ecc7ac2b9161d9736e08b42aeb2594a.html" target="_top" xlink:title="input">
<polygon fill="#edf0f7" stroke="#404040" stroke-width="2" points="70,-108 16,-108 16,-72 70,-72 70,-108"/>
<text text-anchor="middle" x="43" y="-87.5" font-family="Fira Code" font-size="10.00">input</text>
</a>
</g>
</g>
<!-- dir_b0856f6b0d80ccb263b2f415c91f9e17 -->
<g id="node2" class="node">
<title>dir_b0856f6b0d80ccb263b2f415c91f9e17</title>
<g id="a_node2"><a xlink:href="dir_b0856f6b0d80ccb263b2f415c91f9e17.html" target="_top" xlink:title="include">
<polygon fill="none" stroke="red" stroke-dasharray="5,2" points="72.5,-36 13.5,-36 13.5,0 72.5,0 72.5,-36"/>
<text text-anchor="middle" x="43" y="-15.5" font-family="Fira Code" font-size="10.00">include</text>
</a>
</g>
</g>
<!-- dir_4ecc7ac2b9161d9736e08b42aeb2594a&#45;&gt;dir_b0856f6b0d80ccb263b2f415c91f9e17 -->
<g id="edge1" class="edge">
<title>dir_4ecc7ac2b9161d9736e08b42aeb2594a&#45;&gt;dir_b0856f6b0d80ccb263b2f415c91f9e17</title>
<path fill="none" stroke="black" d="M43,-71.7C43,-63.98 43,-54.71 43,-46.11"/>
<polygon fill="black" stroke="black" points="46.5,-46.1 43,-36.1 39.5,-46.1 46.5,-46.1"/>
<g id="a_edge1&#45;headlabel"><a xlink:href="dir_000005_000004.html" target="_top" xlink:title="1">
<text text-anchor="middle" x="49.34" y="-47.2" font-family="Fira Code" font-size="10.00">1</text>
</a>
</g>
</g>
</g>
</svg>
