<?xml version="1.0" encoding="UTF-8" standalone="no"?>
<!DOCTYPE svg PUBLIC "-//W3C//DTD SVG 1.1//EN"
 "http://www.w3.org/Graphics/SVG/1.1/DTD/svg11.dtd">
<!-- Generated by graphviz version 3.0.0 (20220226.1711)
 -->
<!-- Title: src/game Pages: 1 -->
<svg width="254pt" height="175pt"
 viewBox="0.00 0.00 254.00 175.00" xmlns="http://www.w3.org/2000/svg" xmlns:xlink="http://www.w3.org/1999/xlink">
<g id="graph0" class="graph" transform="scale(1 1) rotate(0) translate(4 171)">
<title>src/game</title>
<polygon fill="white" stroke="transparent" points="-4,4 -4,-171 250,-171 250,4 -4,4"/>
<g id="clust1" class="cluster">
<title>clusterdir_68267d1309a1af8e8297ef4c3efbcdba</title>
<g id="a_clust1"><a xlink:href="dir_68267d1309a1af8e8297ef4c3efbcdba.html" target="_top" xlink:title="src">
<polygon fill="#edf0f7" stroke="#404040" stroke-dasharray="5,2" points="8,-8 8,-159 238,-159 238,-8 8,-8"/>
<text text-anchor="middle" x="123" y="-147" font-family="Fira Code" font-size="10.00">src</text>
</a>
</g>
</g>
<g id="clust2" class="cluster">
<title>clusterdir_1699be727a800b1d059c6f7f2b91d2ee</title>
<g id="a_clust2"><a xlink:href="dir_1699be727a800b1d059c6f7f2b91d2ee.html" target="_top">
<polygon fill="#edf0f7" stroke="#404040" stroke-width="2" points="16,-80 16,-132 230,-132 230,-80 16,-80"/>
</a>
</g>
</g>
<!-- dir_b0856f6b0d80ccb263b2f415c91f9e17 -->
<g id="node1" class="node">
<title>dir_b0856f6b0d80ccb263b2f415c91f9e17</title>
<g id="a_node1"><a xlink:href="dir_b0856f6b0d80ccb263b2f415c91f9e17.html" target="_top" xlink:title="include">
<polygon fill="#a2b4d6" stroke="red" points="152.5,-52 93.5,-52 93.5,-16 152.5,-16 152.5,-52"/>
<text text-anchor="middle" x="123" y="-31.5" font-family="Fira Code" font-size="10.00">include</text>
</a>
</g>
</g>
<!-- dir_1699be727a800b1d059c6f7f2b91d2ee -->
<g id="node2" class="node">
<title>dir_1699be727a800b1d059c6f7f2b91d2ee</title>
<text text-anchor="middle" x="195" y="-103.5" font-family="Fira Code" font-size="10.00">game</text>
</g>
<!-- dir_1699be727a800b1d059c6f7f2b91d2ee&#45;&gt;dir_b0856f6b0d80ccb263b2f415c91f9e17 -->
<g id="edge1" class="edge">
<title>dir_1699be727a800b1d059c6f7f2b91d2ee&#45;&gt;dir_b0856f6b0d80ccb263b2f415c91f9e17</title>
<path fill="none" stroke="black" d="M177.2,-87.7C168.4,-79.14 157.62,-68.66 148,-59.3"/>
<polygon fill="black" stroke="black" points="150.2,-56.57 140.59,-52.1 145.32,-61.58 150.2,-56.57"/>
<g id="a_edge1&#45;headlabel"><a xlink:href="dir_000003_000004.html" target="_top" xlink:title="17">
<text text-anchor="middle" x="154.76" y="-54.54" font-family="Fira Code" font-size="10.00">17</text>
</a>
</g>
</g>
<!-- dir_4ecc7ac2b9161d9736e08b42aeb2594a -->
<g id="node3" class="node">
<title>dir_4ecc7ac2b9161d9736e08b42aeb2594a</title>
<g id="a_node3"><a xlink:href="dir_4ecc7ac2b9161d9736e08b42aeb2594a.html" target="_top" xlink:title="input">
<polygon fill="#a2b4d6" stroke="#404040" points="150,-124 96,-124 96,-88 150,-88 150,-124"/>
<text text-anchor="middle" x="123" y="-103.5" font-family="Fira Code" font-size="10.00">input</text>
</a>
</g>
</g>
<!-- dir_4ecc7ac2b9161d9736e08b42aeb2594a&#45;&gt;dir_b0856f6b0d80ccb263b2f415c91f9e17 -->
<g id="edge2" class="edge">
<title>dir_4ecc7ac2b9161d9736e08b42aeb2594a&#45;&gt;dir_b0856f6b0d80ccb263b2f415c91f9e17</title>
<path fill="none" stroke="black" d="M123,-87.7C123,-79.98 123,-70.71 123,-62.11"/>
<polygon fill="black" stroke="black" points="126.5,-62.1 123,-52.1 119.5,-62.1 126.5,-62.1"/>
<g id="a_edge2&#45;headlabel"><a xlink:href="dir_000005_000004.html" target="_top" xlink:title="1">
<text text-anchor="middle" x="129.34" y="-63.2" font-family="Fira Code" font-size="10.00">1</text>
</a>
</g>
</g>
<!-- dir_e4b7960c2229f92dc4d4b95243fe55d2 -->
<g id="node4" class="node">
<title>dir_e4b7960c2229f92dc4d4b95243fe55d2</title>
<g id="a_node4"><a xlink:href="dir_e4b7960c2229f92dc4d4b95243fe55d2.html" target="_top" xlink:title="sdl">
<polygon fill="#a2b4d6" stroke="#404040" points="78,-124 24,-124 24,-88 78,-88 78,-124"/>
<text text-anchor="middle" x="51" y="-103.5" font-family="Fira Code" font-size="10.00">sdl</text>
</a>
</g>
</g>
<!-- dir_e4b7960c2229f92dc4d4b95243fe55d2&#45;&gt;dir_b0856f6b0d80ccb263b2f415c91f9e17 -->
<g id="edge3" class="edge">
<title>dir_e4b7960c2229f92dc4d4b95243fe55d2&#45;&gt;dir_b0856f6b0d80ccb263b2f415c91f9e17</title>
<path fill="none" stroke="black" d="M68.8,-87.7C77.6,-79.14 88.38,-68.66 98,-59.3"/>
<polygon fill="black" stroke="black" points="100.68,-61.58 105.41,-52.1 95.8,-56.57 100.68,-61.58"/>
<g id="a_edge3&#45;headlabel"><a xlink:href="dir_000010_000004.html" target="_top" xlink:title="9">
<text text-anchor="middle" x="100.08" y="-63.63" font-family="Fira Code" font-size="10.00">9</text>
</a>
</g>
</g>
</g>
</svg>
