<?xml version="1.0" encoding="UTF-8" standalone="no"?>
<!DOCTYPE svg PUBLIC "-//W3C//DTD SVG 1.1//EN"
 "http://www.w3.org/Graphics/SVG/1.1/DTD/svg11.dtd">
<!-- Generated by graphviz version 3.0.0 (20220226.1711)
 -->
<!-- Title: src Pages: 1 -->
<svg width="322pt" height="148pt"
 viewBox="0.00 0.00 322.00 148.00" xmlns="http://www.w3.org/2000/svg" xmlns:xlink="http://www.w3.org/1999/xlink">
<g id="graph0" class="graph" transform="scale(1 1) rotate(0) translate(4 144)">
<title>src</title>
<polygon fill="white" stroke="transparent" points="-4,4 -4,-144 318,-144 318,4 -4,4"/>
<g id="clust1" class="cluster">
<title>clusterdir_68267d1309a1af8e8297ef4c3efbcdba</title>
<g id="a_clust1"><a xlink:href="dir_68267d1309a1af8e8297ef4c3efbcdba.html" target="_top">
<polygon fill="#edf0f7" stroke="#404040" stroke-width="2" points="8,-8 8,-132 306,-132 306,-8 8,-8"/>
</a>
</g>
</g>
<!-- dir_68267d1309a1af8e8297ef4c3efbcdba -->
<g id="node1" class="node">
<title>dir_68267d1309a1af8e8297ef4c3efbcdba</title>
<text text-anchor="middle" x="271" y="-103.5" font-family="Fira Code" font-size="10.00">src</text>
</g>
<!-- dir_5194e5fea318fda12687127c23f8aba1 -->
<g id="node2" class="node">
<title>dir_5194e5fea318fda12687127c23f8aba1</title>
<g id="a_node2"><a xlink:href="dir_5194e5fea318fda12687127c23f8aba1.html" target="_top" xlink:title="app">
<polygon fill="#a2b4d6" stroke="#404040" points="226,-124 172,-124 172,-88 226,-88 226,-124"/>
<text text-anchor="middle" x="199" y="-103.5" font-family="Fira Code" font-size="10.00">app</text>
</a>
</g>
</g>
<!-- dir_b0856f6b0d80ccb263b2f415c91f9e17 -->
<g id="node4" class="node">
<title>dir_b0856f6b0d80ccb263b2f415c91f9e17</title>
<g id="a_node4"><a xlink:href="dir_b0856f6b0d80ccb263b2f415c91f9e17.html" target="_top" xlink:title="include">
<polygon fill="#a2b4d6" stroke="#404040" points="156.5,-52 97.5,-52 97.5,-16 156.5,-16 156.5,-52"/>
<text text-anchor="middle" x="127" y="-31.5" font-family="Fira Code" font-size="10.00">include</text>
</a>
</g>
</g>
<!-- dir_5194e5fea318fda12687127c23f8aba1&#45;&gt;dir_b0856f6b0d80ccb263b2f415c91f9e17 -->
<g id="edge1" class="edge">
<title>dir_5194e5fea318fda12687127c23f8aba1&#45;&gt;dir_b0856f6b0d80ccb263b2f415c91f9e17</title>
<path fill="none" stroke="black" d="M181.2,-87.7C172.4,-79.14 161.62,-68.66 152,-59.3"/>
<polygon fill="black" stroke="black" points="154.2,-56.57 144.59,-52.1 149.32,-61.58 154.2,-56.57"/>
<g id="a_edge1&#45;headlabel"><a xlink:href="dir_000000_000004.html" target="_top" xlink:title="7">
<text text-anchor="middle" x="158.76" y="-54.54" font-family="Fira Code" font-size="10.00">7</text>
</a>
</g>
</g>
<!-- dir_1699be727a800b1d059c6f7f2b91d2ee -->
<g id="node3" class="node">
<title>dir_1699be727a800b1d059c6f7f2b91d2ee</title>
<g id="a_node3"><a xlink:href="dir_1699be727a800b1d059c6f7f2b91d2ee.html" target="_top" xlink:title="game">
<polygon fill="#a2b4d6" stroke="#404040" points="154,-124 100,-124 100,-88 154,-88 154,-124"/>
<text text-anchor="middle" x="127" y="-103.5" font-family="Fira Code" font-size="10.00">game</text>
</a>
</g>
</g>
<!-- dir_1699be727a800b1d059c6f7f2b91d2ee&#45;&gt;dir_b0856f6b0d80ccb263b2f415c91f9e17 -->
<g id="edge2" class="edge">
<title>dir_1699be727a800b1d059c6f7f2b91d2ee&#45;&gt;dir_b0856f6b0d80ccb263b2f415c91f9e17</title>
<path fill="none" stroke="black" d="M127,-87.7C127,-79.98 127,-70.71 127,-62.11"/>
<polygon fill="black" stroke="black" points="130.5,-62.1 127,-52.1 123.5,-62.1 130.5,-62.1"/>
<g id="a_edge2&#45;headlabel"><a xlink:href="dir_000003_000004.html" target="_top" xlink:title="17">
<text text-anchor="middle" x="133.34" y="-63.2" font-family="Fira Code" font-size="10.00">17</text>
</a>
</g>
</g>
<!-- dir_4b68c2fef3e151b6b93d5e93b14f1857 -->
<g id="node5" class="node">
<title>dir_4b68c2fef3e151b6b93d5e93b14f1857</title>
<g id="a_node5"><a xlink:href="dir_4b68c2fef3e151b6b93d5e93b14f1857.html" target="_top" xlink:title="platform">
<polygon fill="#a2b4d6" stroke="#404040" points="81.5,-124 16.5,-124 16.5,-88 81.5,-88 81.5,-124"/>
<text text-anchor="middle" x="49" y="-103.5" font-family="Fira Code" font-size="10.00">platform</text>
</a>
</g>
</g>
<!-- dir_4b68c2fef3e151b6b93d5e93b14f1857&#45;&gt;dir_b0856f6b0d80ccb263b2f415c91f9e17 -->
<g id="edge3" class="edge">
<title>dir_4b68c2fef3e151b6b93d5e93b14f1857&#45;&gt;dir_b0856f6b0d80ccb263b2f415c91f9e17</title>
<path fill="none" stroke="black" d="M68.28,-87.7C77.92,-79.05 89.73,-68.45 100.23,-59.03"/>
<polygon fill="black" stroke="black" points="102.84,-61.39 107.94,-52.1 98.16,-56.18 102.84,-61.39"/>
<g id="a_edge3&#45;headlabel"><a xlink:href="dir_000009_000004.html" target="_top" xlink:title="18">
<text text-anchor="middle" x="102.06" y="-63.4" font-family="Fira Code" font-size="10.00">18</text>
</a>
</g>
</g>
</g>
</svg>
