<?xml version="1.0" encoding="UTF-8" standalone="no"?>
<!DOCTYPE svg PUBLIC "-//W3C//DTD SVG 1.1//EN"
 "http://www.w3.org/Graphics/SVG/1.1/DTD/svg11.dtd">
<!-- Generated by graphviz version 3.0.0 (20220226.1711)
 -->
<!-- Title: src/include/lmda/sdl/event_type_name.h Pages: 1 -->
<svg width="487pt" height="207pt"
 viewBox="0.00 0.00 487.00 207.00" xmlns="http://www.w3.org/2000/svg" xmlns:xlink="http://www.w3.org/1999/xlink">
<g id="graph0" class="graph" transform="scale(1 1) rotate(0) translate(4 203)">
<title>src/include/lmda/sdl/event_type_name.h</title>
<polygon fill="white" stroke="transparent" points="-4,4 -4,-203 483,-203 483,4 -4,4"/>
<!-- Node1 -->
<g id="node1" class="node">
<title>Node1</title>
<g id="a_node1"><a xlink:title=" ">
<polygon fill="#bfbfbf" stroke="black" points="113,-168.5 113,-198.5 250,-198.5 250,-168.5 113,-168.5"/>
<text text-anchor="start" x="121" y="-186.5" font-family="Fira Code" font-size="10.00">src/include/lmda/sdl</text>
<text text-anchor="middle" x="181.5" y="-175.5" font-family="Fira Code" font-size="10.00">/event_type_name.h</text>
</a>
</g>
</g>
<!-- Node2 -->
<g id="node2" class="node">
<title>Node2</title>
<g id="a_node2"><a xlink:href="sdl_8h.html" target="_top" xlink:title="Interface to the SDL subsystems (rendering, image loading, sound, etc).">
<polygon fill="white" stroke="black" points="158,-112.5 158,-131.5 205,-131.5 205,-112.5 158,-112.5"/>
<text text-anchor="middle" x="181.5" y="-119.5" font-family="Fira Code" font-size="10.00">SDL.h</text>
</a>
</g>
</g>
<!-- Node1&#45;&gt;Node2 -->
<g id="edge1" class="edge">
<title>Node1&#45;&gt;Node2</title>
<path fill="none" stroke="midnightblue" d="M181.5,-168.4C181.5,-160.47 181.5,-150.46 181.5,-141.86"/>
<polygon fill="midnightblue" stroke="midnightblue" points="185,-141.66 181.5,-131.66 178,-141.66 185,-141.66"/>
</g>
<!-- Node2&#45;&gt;Node2 -->
<g id="edge10" class="edge">
<title>Node2&#45;&gt;Node2</title>
<path fill="none" stroke="midnightblue" d="M199.42,-131.57C211.37,-134.27 223,-131.08 223,-122 223,-115.55 217.12,-112.07 209.43,-111.56"/>
<polygon fill="midnightblue" stroke="midnightblue" points="209.08,-108.08 199.42,-112.43 209.68,-115.06 209.08,-108.08"/>
</g>
<!-- Node3 -->
<g id="node3" class="node">
<title>Node3</title>
<g id="a_node3"><a xlink:href="color_8h.html" target="_top" xlink:title="Defines symbols for common SDL color values.">
<polygon fill="white" stroke="black" points="0,-56.5 0,-75.5 113,-75.5 113,-56.5 0,-56.5"/>
<text text-anchor="middle" x="56.5" y="-63.5" font-family="Fira Code" font-size="10.00">lmda/sdl/color.h</text>
</a>
</g>
</g>
<!-- Node2&#45;&gt;Node3 -->
<g id="edge2" class="edge">
<title>Node2&#45;&gt;Node3</title>
<path fill="none" stroke="midnightblue" d="M157.8,-112.92C135.62,-104.2 102.93,-90.2 80.62,-79.95"/>
<polygon fill="midnightblue" stroke="midnightblue" points="82.01,-76.74 71.47,-75.68 79.05,-83.08 82.01,-76.74"/>
</g>
<!-- Node4 -->
<g id="node4" class="node">
<title>Node4</title>
<g id="a_node4"><a xlink:href="ttf_8h.html" target="_top" xlink:title=" ">
<polygon fill="white" stroke="black" points="131,-56.5 131,-75.5 232,-75.5 232,-56.5 131,-56.5"/>
<text text-anchor="middle" x="181.5" y="-63.5" font-family="Fira Code" font-size="10.00">lmda/sdl/ttf.h</text>
</a>
</g>
</g>
<!-- Node2&#45;&gt;Node4 -->
<g id="edge4" class="edge">
<title>Node2&#45;&gt;Node4</title>
<path fill="none" stroke="midnightblue" d="M176.33,-112.08C174.82,-104.93 174.39,-94.64 175.04,-85.69"/>
<polygon fill="midnightblue" stroke="midnightblue" points="178.52,-86.13 176.37,-75.75 171.58,-85.2 178.52,-86.13"/>
</g>
<!-- Node6 -->
<g id="node6" class="node">
<title>Node6</title>
<g id="a_node6"><a xlink:href="input_8h.html" target="_top" xlink:title="The game&#39;s interface to the user input devices.">
<polygon fill="white" stroke="black" points="250,-56.5 250,-75.5 339,-75.5 339,-56.5 250,-56.5"/>
<text text-anchor="middle" x="294.5" y="-63.5" font-family="Fira Code" font-size="10.00">lmda/input.h</text>
</a>
</g>
</g>
<!-- Node2&#45;&gt;Node6 -->
<g id="edge7" class="edge">
<title>Node2&#45;&gt;Node6</title>
<path fill="none" stroke="midnightblue" d="M199.41,-112.44C217.75,-103.68 246.51,-89.94 267.59,-79.86"/>
<polygon fill="midnightblue" stroke="midnightblue" points="269.17,-82.99 276.68,-75.52 266.15,-76.67 269.17,-82.99"/>
</g>
<!-- Node9 -->
<g id="node9" class="node">
<title>Node9</title>
<g id="a_node9"><a xlink:title=" ">
<polygon fill="white" stroke="#bfbfbf" points="357,-56.5 357,-75.5 440,-75.5 440,-56.5 357,-56.5"/>
<text text-anchor="middle" x="398.5" y="-63.5" font-family="Fira Code" font-size="10.00">SDL_image.h</text>
</a>
</g>
</g>
<!-- Node2&#45;&gt;Node9 -->
<g id="edge11" class="edge">
<title>Node2&#45;&gt;Node9</title>
<path fill="none" stroke="midnightblue" d="M205.14,-115.12C240.88,-106.22 309.29,-89.2 354.41,-77.97"/>
<polygon fill="midnightblue" stroke="midnightblue" points="355.36,-81.34 364.22,-75.53 353.67,-74.55 355.36,-81.34"/>
</g>
<!-- Node3&#45;&gt;Node2 -->
<g id="edge3" class="edge">
<title>Node3&#45;&gt;Node2</title>
<path fill="none" stroke="midnightblue" d="M81.29,-75.52C103.48,-84.27 135.54,-98.01 157.48,-108.1"/>
<polygon fill="midnightblue" stroke="midnightblue" points="156.24,-111.38 166.78,-112.44 159.21,-105.04 156.24,-111.38"/>
</g>
<!-- Node4&#45;&gt;Node2 -->
<g id="edge5" class="edge">
<title>Node4&#45;&gt;Node2</title>
<path fill="none" stroke="midnightblue" d="M186.63,-75.75C188.16,-82.86 188.6,-93.14 187.97,-102.1"/>
<polygon fill="midnightblue" stroke="midnightblue" points="184.49,-101.71 186.67,-112.08 191.43,-102.62 184.49,-101.71"/>
</g>
<!-- Node5 -->
<g id="node5" class="node">
<title>Node5</title>
<g id="a_node5"><a xlink:title=" ">
<polygon fill="white" stroke="#bfbfbf" points="134,-0.5 134,-19.5 205,-19.5 205,-0.5 134,-0.5"/>
<text text-anchor="middle" x="169.5" y="-7.5" font-family="Fira Code" font-size="10.00">SDL_ttf.h</text>
</a>
</g>
</g>
<!-- Node4&#45;&gt;Node5 -->
<g id="edge6" class="edge">
<title>Node4&#45;&gt;Node5</title>
<path fill="none" stroke="midnightblue" d="M179.52,-56.08C177.93,-48.93 175.64,-38.64 173.65,-29.69"/>
<polygon fill="midnightblue" stroke="midnightblue" points="177.03,-28.75 171.44,-19.75 170.2,-30.27 177.03,-28.75"/>
</g>
<!-- Node7 -->
<g id="node7" class="node">
<title>Node7</title>
<g id="a_node7"><a xlink:href="keyboard_8h.html" target="_top" xlink:title="Defines symbols for SDL keyboard key identifiers.">
<polygon fill="white" stroke="black" points="223,-0.5 223,-19.5 366,-19.5 366,-0.5 223,-0.5"/>
<text text-anchor="middle" x="294.5" y="-7.5" font-family="Fira Code" font-size="10.00">lmda/input/keyboard.h</text>
</a>
</g>
</g>
<!-- Node6&#45;&gt;Node7 -->
<g id="edge8" class="edge">
<title>Node6&#45;&gt;Node7</title>
<path fill="none" stroke="midnightblue" d="M294.5,-56.08C294.5,-49.01 294.5,-38.86 294.5,-29.99"/>
<polygon fill="midnightblue" stroke="midnightblue" points="298,-29.75 294.5,-19.75 291,-29.75 298,-29.75"/>
</g>
<!-- Node8 -->
<g id="node8" class="node">
<title>Node8</title>
<g id="a_node8"><a xlink:href="signal_8h.html" target="_top" xlink:title="Declares the types of signal transitions that may represent a state change.">
<polygon fill="white" stroke="black" points="384,-0.5 384,-19.5 479,-19.5 479,-0.5 384,-0.5"/>
<text text-anchor="middle" x="431.5" y="-7.5" font-family="Fira Code" font-size="10.00">lmda/signal.h</text>
</a>
</g>
</g>
<!-- Node6&#45;&gt;Node8 -->
<g id="edge9" class="edge">
<title>Node6&#45;&gt;Node8</title>
<path fill="none" stroke="midnightblue" d="M316.21,-56.44C338.85,-47.52 374.57,-33.44 400.25,-23.32"/>
<polygon fill="midnightblue" stroke="midnightblue" points="401.87,-26.44 409.89,-19.52 399.31,-19.93 401.87,-26.44"/>
</g>
</g>
</svg>
