<?xml version="1.0" encoding="UTF-8" standalone="no"?>
<!DOCTYPE svg PUBLIC "-//W3C//DTD SVG 1.1//EN"
 "http://www.w3.org/Graphics/SVG/1.1/DTD/svg11.dtd">
<!-- Generated by graphviz version 3.0.0 (20220226.1711)
 -->
<!-- Title: src/include/lmda/fs.h Pages: 1 -->
<svg width="990pt" height="162pt"
 viewBox="0.00 0.00 990.00 162.00" xmlns="http://www.w3.org/2000/svg" xmlns:xlink="http://www.w3.org/1999/xlink">
<g id="graph0" class="graph" transform="scale(1 1) rotate(0) translate(4 158)">
<title>src/include/lmda/fs.h</title>
<polygon fill="white" stroke="transparent" points="-4,4 -4,-158 986,-158 986,4 -4,4"/>
<!-- Node1 -->
<g id="node1" class="node">
<title>Node1</title>
<g id="a_node1"><a xlink:title="Declares the game&#39;s interface to the platform filesystem.">
<polygon fill="#bfbfbf" stroke="black" points="614,-134.5 614,-153.5 757,-153.5 757,-134.5 614,-134.5"/>
<text text-anchor="middle" x="685.5" y="-141.5" font-family="Fira Code" font-size="10.00">src/include/lmda/fs.h</text>
</a>
</g>
</g>
<!-- Node2 -->
<g id="node2" class="node">
<title>Node2</title>
<g id="a_node2"><a xlink:href="plugin_8h.html" target="_top" xlink:title="Declares the interface to the game library; implementing that interface defines a game plugin.">
<polygon fill="white" stroke="black" points="338,-73 338,-92 505,-92 505,-73 338,-73"/>
<text text-anchor="middle" x="421.5" y="-80" font-family="Fira Code" font-size="10.00">src/include/lmda/plugin.h</text>
</a>
</g>
</g>
<!-- Node1&#45;&gt;Node2 -->
<g id="edge1" class="edge">
<title>Node1&#45;&gt;Node2</title>
<path fill="none" stroke="midnightblue" d="M637.84,-132.26C586.63,-120.72 506.27,-102.61 459.25,-92.01"/>
<polygon fill="midnightblue" stroke="midnightblue" points="637.15,-135.69 647.68,-134.48 638.69,-128.86 637.15,-135.69"/>
</g>
<!-- Node9 -->
<g id="node9" class="node">
<title>Node9</title>
<g id="a_node9"><a xlink:href="fs_8c.html" target="_top" xlink:title="Platform&#45;independent filesystem operations.">
<polygon fill="white" stroke="black" points="523,-73 523,-92 684,-92 684,-73 523,-73"/>
<text text-anchor="middle" x="603.5" y="-80" font-family="Fira Code" font-size="10.00">src/platform/common/fs.c</text>
</a>
</g>
</g>
<!-- Node1&#45;&gt;Node9 -->
<g id="edge8" class="edge">
<title>Node1&#45;&gt;Node9</title>
<path fill="none" stroke="midnightblue" d="M665.23,-128.29C649.5,-116.88 628.25,-101.46 615.23,-92.01"/>
<polygon fill="midnightblue" stroke="midnightblue" points="663.6,-131.43 673.75,-134.48 667.71,-125.77 663.6,-131.43"/>
</g>
<!-- Node10 -->
<g id="node10" class="node">
<title>Node10</title>
<g id="a_node10"><a xlink:href="fs__mac_8c.html" target="_top" xlink:title="Filesystem operations on MacOS.">
<polygon fill="white" stroke="black" points="702,-67.5 702,-97.5 833,-97.5 833,-67.5 702,-67.5"/>
<text text-anchor="start" x="710" y="-85.5" font-family="Fira Code" font-size="10.00">src/platform/mac/fs</text>
<text text-anchor="middle" x="767.5" y="-74.5" font-family="Fira Code" font-size="10.00">_mac.c</text>
</a>
</g>
</g>
<!-- Node1&#45;&gt;Node10 -->
<g id="edge9" class="edge">
<title>Node1&#45;&gt;Node10</title>
<path fill="none" stroke="midnightblue" d="M705.53,-128.47C718.51,-119.05 735.33,-106.84 748.17,-97.52"/>
<polygon fill="midnightblue" stroke="midnightblue" points="703.29,-125.77 697.25,-134.48 707.4,-131.43 703.29,-125.77"/>
</g>
<!-- Node11 -->
<g id="node11" class="node">
<title>Node11</title>
<g id="a_node11"><a xlink:href="fs__win_8c.html" target="_top" xlink:title="Filesystem operations on Windows.">
<polygon fill="white" stroke="black" points="851,-67.5 851,-97.5 982,-97.5 982,-67.5 851,-67.5"/>
<text text-anchor="start" x="859" y="-85.5" font-family="Fira Code" font-size="10.00">src/platform/win/fs</text>
<text text-anchor="middle" x="916.5" y="-74.5" font-family="Fira Code" font-size="10.00">_win.c</text>
</a>
</g>
</g>
<!-- Node1&#45;&gt;Node11 -->
<g id="edge10" class="edge">
<title>Node1&#45;&gt;Node11</title>
<path fill="none" stroke="midnightblue" d="M728.75,-131.86C766.47,-122.14 821.36,-108.01 862.06,-97.52"/>
<polygon fill="midnightblue" stroke="midnightblue" points="727.41,-128.59 718.6,-134.48 729.15,-135.37 727.41,-128.59"/>
</g>
<!-- Node3 -->
<g id="node3" class="node">
<title>Node3</title>
<g id="a_node3"><a xlink:href="main_8c.html" target="_top" xlink:title="Entrypoint to game application (i.e. game plugin host).">
<polygon fill="white" stroke="black" points="0,-6 0,-25 101,-25 101,-6 0,-6"/>
<text text-anchor="middle" x="50.5" y="-13" font-family="Fira Code" font-size="10.00">src/app/main.c</text>
</a>
</g>
</g>
<!-- Node2&#45;&gt;Node3 -->
<g id="edge2" class="edge">
<title>Node2&#45;&gt;Node3</title>
<path fill="none" stroke="midnightblue" d="M349.76,-71.57C286.33,-62.38 191.42,-47.67 109.5,-31 100.92,-29.25 91.7,-27.12 83.16,-25.02"/>
<polygon fill="midnightblue" stroke="midnightblue" points="349.27,-75.03 359.67,-72.99 350.27,-68.1 349.27,-75.03"/>
</g>
<!-- Node4 -->
<g id="node4" class="node">
<title>Node4</title>
<g id="a_node4"><a xlink:href="game__plugin_8c.html" target="_top" xlink:title="The game plugin itself; implements the plugin interface to run the game.">
<polygon fill="white" stroke="black" points="119,-6 119,-25 268,-25 268,-6 119,-6"/>
<text text-anchor="middle" x="193.5" y="-13" font-family="Fira Code" font-size="10.00">src/game/game_plugin.c</text>
</a>
</g>
</g>
<!-- Node2&#45;&gt;Node4 -->
<g id="edge3" class="edge">
<title>Node2&#45;&gt;Node4</title>
<path fill="none" stroke="midnightblue" d="M381.48,-70.09C336.38,-57.23 264.07,-36.62 223.54,-25.06"/>
<polygon fill="midnightblue" stroke="midnightblue" points="380.65,-73.49 391.22,-72.87 382.57,-66.76 380.65,-73.49"/>
</g>
<!-- Node5 -->
<g id="node5" class="node">
<title>Node5</title>
<g id="a_node5"><a xlink:href="sdl_8c.html" target="_top" xlink:title="High&#45;level SDL operations, e.g. opening a window.">
<polygon fill="white" stroke="black" points="286,-6 286,-25 411,-25 411,-6 286,-6"/>
<text text-anchor="middle" x="348.5" y="-13" font-family="Fira Code" font-size="10.00">src/game/sdl/sdl.c</text>
</a>
</g>
</g>
<!-- Node2&#45;&gt;Node5 -->
<g id="edge4" class="edge">
<title>Node2&#45;&gt;Node5</title>
<path fill="none" stroke="midnightblue" d="M403.93,-65.86C389.58,-53.08 369.83,-35.49 358.19,-25.13"/>
<polygon fill="midnightblue" stroke="midnightblue" points="401.86,-68.7 411.65,-72.73 406.51,-63.47 401.86,-68.7"/>
</g>
<!-- Node6 -->
<g id="node6" class="node">
<title>Node6</title>
<g id="a_node6"><a xlink:href="plugin_8c.html" target="_top" xlink:title="Platform&#45;independent plugin loading operations.">
<polygon fill="white" stroke="black" points="429,-0.5 429,-30.5 560,-30.5 560,-0.5 429,-0.5"/>
<text text-anchor="start" x="437" y="-18.5" font-family="Fira Code" font-size="10.00">src/platform/common</text>
<text text-anchor="middle" x="494.5" y="-7.5" font-family="Fira Code" font-size="10.00">/plugin.c</text>
</a>
</g>
</g>
<!-- Node2&#45;&gt;Node6 -->
<g id="edge5" class="edge">
<title>Node2&#45;&gt;Node6</title>
<path fill="none" stroke="midnightblue" d="M438.99,-65.93C451.06,-55.18 466.98,-41 478.68,-30.59"/>
<polygon fill="midnightblue" stroke="midnightblue" points="436.49,-63.47 431.35,-72.73 441.14,-68.7 436.49,-63.47"/>
</g>
<!-- Node7 -->
<g id="node7" class="node">
<title>Node7</title>
<g id="a_node7"><a xlink:href="plugin__mac_8c.html" target="_top" xlink:title="Plugin loading on MacOS.">
<polygon fill="white" stroke="black" points="578,-0.5 578,-30.5 733,-30.5 733,-0.5 578,-0.5"/>
<text text-anchor="start" x="586" y="-18.5" font-family="Fira Code" font-size="10.00">src/platform/mac/plugin</text>
<text text-anchor="middle" x="655.5" y="-7.5" font-family="Fira Code" font-size="10.00">_mac.c</text>
</a>
</g>
</g>
<!-- Node2&#45;&gt;Node7 -->
<g id="edge6" class="edge">
<title>Node2&#45;&gt;Node7</title>
<path fill="none" stroke="midnightblue" d="M462.44,-70.13C502.11,-59.11 562.37,-42.37 605,-30.53"/>
<polygon fill="midnightblue" stroke="midnightblue" points="461.27,-66.82 452.57,-72.87 463.15,-73.56 461.27,-66.82"/>
</g>
<!-- Node8 -->
<g id="node8" class="node">
<title>Node8</title>
<g id="a_node8"><a xlink:href="timing__mac_8c.html" target="_top" xlink:title="High&#45;resolution timing on MacOS.">
<polygon fill="white" stroke="black" points="751,-0.5 751,-30.5 906,-30.5 906,-0.5 751,-0.5"/>
<text text-anchor="start" x="759" y="-18.5" font-family="Fira Code" font-size="10.00">src/platform/mac/timing</text>
<text text-anchor="middle" x="828.5" y="-7.5" font-family="Fira Code" font-size="10.00">_mac.c</text>
</a>
</g>
</g>
<!-- Node2&#45;&gt;Node8 -->
<g id="edge7" class="edge">
<title>Node2&#45;&gt;Node8</title>
<path fill="none" stroke="midnightblue" d="M486.34,-71.39C565.42,-59.04 694.47,-38.83 742.5,-31 745.19,-30.56 747.93,-30.11 750.69,-29.66"/>
<polygon fill="midnightblue" stroke="midnightblue" points="485.34,-68 476,-73 486.42,-74.92 485.34,-68"/>
</g>
</g>
</svg>
