<?xml version="1.0" encoding="UTF-8" standalone="no"?>
<!DOCTYPE svg PUBLIC "-//W3C//DTD SVG 1.1//EN"
 "http://www.w3.org/Graphics/SVG/1.1/DTD/svg11.dtd">
<!-- Generated by graphviz version 3.0.0 (20220226.1711)
 -->
<!-- Title: src/platform/common/fs.c Pages: 1 -->
<svg width="632pt" height="196pt"
 viewBox="0.00 0.00 632.00 196.00" xmlns="http://www.w3.org/2000/svg" xmlns:xlink="http://www.w3.org/1999/xlink">
<g id="graph0" class="graph" transform="scale(1 1) rotate(0) translate(4 192)">
<title>src/platform/common/fs.c</title>
<polygon fill="white" stroke="transparent" points="-4,4 -4,-192 628,-192 628,4 -4,4"/>
<!-- Node1 -->
<g id="node1" class="node">
<title>Node1</title>
<g id="a_node1"><a xlink:title="Platform&#45;independent filesystem operations.">
<polygon fill="#bfbfbf" stroke="black" points="112,-168.5 112,-187.5 273,-187.5 273,-168.5 112,-168.5"/>
<text text-anchor="middle" x="192.5" y="-175.5" font-family="Fira Code" font-size="10.00">src/platform/common/fs.c</text>
</a>
</g>
</g>
<!-- Node2 -->
<g id="node2" class="node">
<title>Node2</title>
<g id="a_node2"><a xlink:href="fs_8h.html" target="_top" xlink:title="Declares the game&#39;s interface to the platform filesystem.">
<polygon fill="white" stroke="black" points="0,-112.5 0,-131.5 71,-131.5 71,-112.5 0,-112.5"/>
<text text-anchor="middle" x="35.5" y="-119.5" font-family="Fira Code" font-size="10.00">lmda/fs.h</text>
</a>
</g>
</g>
<!-- Node1&#45;&gt;Node2 -->
<g id="edge1" class="edge">
<title>Node1&#45;&gt;Node2</title>
<path fill="none" stroke="midnightblue" d="M167.62,-168.44C141.21,-159.36 99.28,-144.94 69.76,-134.78"/>
<polygon fill="midnightblue" stroke="midnightblue" points="70.86,-131.46 60.26,-131.52 68.58,-138.08 70.86,-131.46"/>
</g>
<!-- Node3 -->
<g id="node3" class="node">
<title>Node3</title>
<g id="a_node3"><a xlink:href="version_8h.html" target="_top" xlink:title="Defines the build version; the build system labels output based on this.">
<polygon fill="white" stroke="black" points="89,-112.5 89,-131.5 190,-131.5 190,-112.5 89,-112.5"/>
<text text-anchor="middle" x="139.5" y="-119.5" font-family="Fira Code" font-size="10.00">lmda/version.h</text>
</a>
</g>
</g>
<!-- Node1&#45;&gt;Node3 -->
<g id="edge2" class="edge">
<title>Node1&#45;&gt;Node3</title>
<path fill="none" stroke="midnightblue" d="M183.75,-168.08C176.03,-160.22 164.6,-148.57 155.28,-139.08"/>
<polygon fill="midnightblue" stroke="midnightblue" points="157.59,-136.44 148.09,-131.75 152.6,-141.34 157.59,-136.44"/>
</g>
<!-- Node4 -->
<g id="node4" class="node">
<title>Node4</title>
<g id="a_node4"><a xlink:href="log_8h.html" target="_top" xlink:title=" ">
<polygon fill="white" stroke="black" points="208,-112.5 208,-131.5 285,-131.5 285,-112.5 208,-112.5"/>
<text text-anchor="middle" x="246.5" y="-119.5" font-family="Fira Code" font-size="10.00">lmda/log.h</text>
</a>
</g>
</g>
<!-- Node1&#45;&gt;Node4 -->
<g id="edge3" class="edge">
<title>Node1&#45;&gt;Node4</title>
<path fill="none" stroke="midnightblue" d="M201.42,-168.08C209.28,-160.22 220.93,-148.57 230.42,-139.08"/>
<polygon fill="midnightblue" stroke="midnightblue" points="233.15,-141.3 237.75,-131.75 228.2,-136.35 233.15,-141.3"/>
</g>
<!-- Node5 -->
<g id="node5" class="node">
<title>Node5</title>
<g id="a_node5"><a xlink:href="sdl_8h.html" target="_top" xlink:title="Interface to the SDL subsystems (rendering, image loading, sound, etc).">
<polygon fill="white" stroke="black" points="303,-112.5 303,-131.5 350,-131.5 350,-112.5 303,-112.5"/>
<text text-anchor="middle" x="326.5" y="-119.5" font-family="Fira Code" font-size="10.00">SDL.h</text>
</a>
</g>
</g>
<!-- Node1&#45;&gt;Node5 -->
<g id="edge4" class="edge">
<title>Node1&#45;&gt;Node5</title>
<path fill="none" stroke="midnightblue" d="M213.73,-168.44C235.88,-159.52 270.82,-145.44 295.94,-135.32"/>
<polygon fill="midnightblue" stroke="midnightblue" points="297.4,-138.5 305.37,-131.52 294.78,-132.01 297.4,-138.5"/>
</g>
<!-- Node5&#45;&gt;Node5 -->
<g id="edge13" class="edge">
<title>Node5&#45;&gt;Node5</title>
<path fill="none" stroke="midnightblue" d="M344.42,-131.57C356.37,-134.27 368,-131.08 368,-122 368,-115.55 362.12,-112.07 354.43,-111.56"/>
<polygon fill="midnightblue" stroke="midnightblue" points="354.08,-108.08 344.42,-112.43 354.68,-115.06 354.08,-108.08"/>
</g>
<!-- Node6 -->
<g id="node6" class="node">
<title>Node6</title>
<g id="a_node6"><a xlink:href="color_8h.html" target="_top" xlink:title="Defines symbols for common SDL color values.">
<polygon fill="white" stroke="black" points="145,-56.5 145,-75.5 258,-75.5 258,-56.5 145,-56.5"/>
<text text-anchor="middle" x="201.5" y="-63.5" font-family="Fira Code" font-size="10.00">lmda/sdl/color.h</text>
</a>
</g>
</g>
<!-- Node5&#45;&gt;Node6 -->
<g id="edge5" class="edge">
<title>Node5&#45;&gt;Node6</title>
<path fill="none" stroke="midnightblue" d="M302.8,-112.92C280.62,-104.2 247.93,-90.2 225.62,-79.95"/>
<polygon fill="midnightblue" stroke="midnightblue" points="227.01,-76.74 216.47,-75.68 224.05,-83.08 227.01,-76.74"/>
</g>
<!-- Node7 -->
<g id="node7" class="node">
<title>Node7</title>
<g id="a_node7"><a xlink:href="ttf_8h.html" target="_top" xlink:title=" ">
<polygon fill="white" stroke="black" points="276,-56.5 276,-75.5 377,-75.5 377,-56.5 276,-56.5"/>
<text text-anchor="middle" x="326.5" y="-63.5" font-family="Fira Code" font-size="10.00">lmda/sdl/ttf.h</text>
</a>
</g>
</g>
<!-- Node5&#45;&gt;Node7 -->
<g id="edge7" class="edge">
<title>Node5&#45;&gt;Node7</title>
<path fill="none" stroke="midnightblue" d="M321.33,-112.08C319.82,-104.93 319.39,-94.64 320.04,-85.69"/>
<polygon fill="midnightblue" stroke="midnightblue" points="323.52,-86.13 321.37,-75.75 316.58,-85.2 323.52,-86.13"/>
</g>
<!-- Node9 -->
<g id="node9" class="node">
<title>Node9</title>
<g id="a_node9"><a xlink:href="input_8h.html" target="_top" xlink:title="The game&#39;s interface to the user input devices.">
<polygon fill="white" stroke="black" points="395,-56.5 395,-75.5 484,-75.5 484,-56.5 395,-56.5"/>
<text text-anchor="middle" x="439.5" y="-63.5" font-family="Fira Code" font-size="10.00">lmda/input.h</text>
</a>
</g>
</g>
<!-- Node5&#45;&gt;Node9 -->
<g id="edge10" class="edge">
<title>Node5&#45;&gt;Node9</title>
<path fill="none" stroke="midnightblue" d="M344.41,-112.44C362.75,-103.68 391.51,-89.94 412.59,-79.86"/>
<polygon fill="midnightblue" stroke="midnightblue" points="414.17,-82.99 421.68,-75.52 411.15,-76.67 414.17,-82.99"/>
</g>
<!-- Node12 -->
<g id="node12" class="node">
<title>Node12</title>
<g id="a_node12"><a xlink:title=" ">
<polygon fill="white" stroke="#bfbfbf" points="502,-56.5 502,-75.5 585,-75.5 585,-56.5 502,-56.5"/>
<text text-anchor="middle" x="543.5" y="-63.5" font-family="Fira Code" font-size="10.00">SDL_image.h</text>
</a>
</g>
</g>
<!-- Node5&#45;&gt;Node12 -->
<g id="edge14" class="edge">
<title>Node5&#45;&gt;Node12</title>
<path fill="none" stroke="midnightblue" d="M350.14,-115.12C385.88,-106.22 454.29,-89.2 499.41,-77.97"/>
<polygon fill="midnightblue" stroke="midnightblue" points="500.36,-81.34 509.22,-75.53 498.67,-74.55 500.36,-81.34"/>
</g>
<!-- Node6&#45;&gt;Node5 -->
<g id="edge6" class="edge">
<title>Node6&#45;&gt;Node5</title>
<path fill="none" stroke="midnightblue" d="M226.29,-75.52C248.48,-84.27 280.54,-98.01 302.48,-108.1"/>
<polygon fill="midnightblue" stroke="midnightblue" points="301.24,-111.38 311.78,-112.44 304.21,-105.04 301.24,-111.38"/>
</g>
<!-- Node7&#45;&gt;Node5 -->
<g id="edge8" class="edge">
<title>Node7&#45;&gt;Node5</title>
<path fill="none" stroke="midnightblue" d="M331.63,-75.75C333.16,-82.86 333.6,-93.14 332.97,-102.1"/>
<polygon fill="midnightblue" stroke="midnightblue" points="329.49,-101.71 331.67,-112.08 336.43,-102.62 329.49,-101.71"/>
</g>
<!-- Node8 -->
<g id="node8" class="node">
<title>Node8</title>
<g id="a_node8"><a xlink:title=" ">
<polygon fill="white" stroke="#bfbfbf" points="279,-0.5 279,-19.5 350,-19.5 350,-0.5 279,-0.5"/>
<text text-anchor="middle" x="314.5" y="-7.5" font-family="Fira Code" font-size="10.00">SDL_ttf.h</text>
</a>
</g>
</g>
<!-- Node7&#45;&gt;Node8 -->
<g id="edge9" class="edge">
<title>Node7&#45;&gt;Node8</title>
<path fill="none" stroke="midnightblue" d="M324.52,-56.08C322.93,-48.93 320.64,-38.64 318.65,-29.69"/>
<polygon fill="midnightblue" stroke="midnightblue" points="322.03,-28.75 316.44,-19.75 315.2,-30.27 322.03,-28.75"/>
</g>
<!-- Node10 -->
<g id="node10" class="node">
<title>Node10</title>
<g id="a_node10"><a xlink:href="keyboard_8h.html" target="_top" xlink:title="Defines symbols for SDL keyboard key identifiers.">
<polygon fill="white" stroke="black" points="368,-0.5 368,-19.5 511,-19.5 511,-0.5 368,-0.5"/>
<text text-anchor="middle" x="439.5" y="-7.5" font-family="Fira Code" font-size="10.00">lmda/input/keyboard.h</text>
</a>
</g>
</g>
<!-- Node9&#45;&gt;Node10 -->
<g id="edge11" class="edge">
<title>Node9&#45;&gt;Node10</title>
<path fill="none" stroke="midnightblue" d="M439.5,-56.08C439.5,-49.01 439.5,-38.86 439.5,-29.99"/>
<polygon fill="midnightblue" stroke="midnightblue" points="443,-29.75 439.5,-19.75 436,-29.75 443,-29.75"/>
</g>
<!-- Node11 -->
<g id="node11" class="node">
<title>Node11</title>
<g id="a_node11"><a xlink:href="signal_8h.html" target="_top" xlink:title="Declares the types of signal transitions that may represent a state change.">
<polygon fill="white" stroke="black" points="529,-0.5 529,-19.5 624,-19.5 624,-0.5 529,-0.5"/>
<text text-anchor="middle" x="576.5" y="-7.5" font-family="Fira Code" font-size="10.00">lmda/signal.h</text>
</a>
</g>
</g>
<!-- Node9&#45;&gt;Node11 -->
<g id="edge12" class="edge">
<title>Node9&#45;&gt;Node11</title>
<path fill="none" stroke="midnightblue" d="M461.21,-56.44C483.85,-47.52 519.57,-33.44 545.25,-23.32"/>
<polygon fill="midnightblue" stroke="midnightblue" points="546.87,-26.44 554.89,-19.52 544.31,-19.93 546.87,-26.44"/>
</g>
</g>
</svg>
