<?xml version="1.0" encoding="UTF-8" standalone="no"?>
<!DOCTYPE svg PUBLIC "-//W3C//DTD SVG 1.1//EN"
 "http://www.w3.org/Graphics/SVG/1.1/DTD/svg11.dtd">
<!-- Generated by graphviz version 3.0.0 (20220226.1711)
 -->
<!-- Title: src/platform/win/fs_win.c Pages: 1 -->
<svg width="174pt" height="95pt"
 viewBox="0.00 0.00 174.00 95.00" xmlns="http://www.w3.org/2000/svg" xmlns:xlink="http://www.w3.org/1999/xlink">
<g id="graph0" class="graph" transform="scale(1 1) rotate(0) translate(4 91)">
<title>src/platform/win/fs_win.c</title>
<polygon fill="white" stroke="transparent" points="-4,4 -4,-91 170,-91 170,4 -4,4"/>
<!-- Node1 -->
<g id="node1" class="node">
<title>Node1</title>
<g id="a_node1"><a xlink:title="Filesystem operations on Windows.">
<polygon fill="#bfbfbf" stroke="black" points="16,-56.5 16,-86.5 147,-86.5 147,-56.5 16,-56.5"/>
<text text-anchor="start" x="24" y="-74.5" font-family="Fira Code" font-size="10.00">src/platform/win/fs</text>
<text text-anchor="middle" x="81.5" y="-63.5" font-family="Fira Code" font-size="10.00">_win.c</text>
</a>
</g>
</g>
<!-- Node2 -->
<g id="node2" class="node">
<title>Node2</title>
<g id="a_node2"><a xlink:href="fs_8h.html" target="_top" xlink:title="Declares the game&#39;s interface to the platform filesystem.">
<polygon fill="white" stroke="black" points="0,-0.5 0,-19.5 71,-19.5 71,-0.5 0,-0.5"/>
<text text-anchor="middle" x="35.5" y="-7.5" font-family="Fira Code" font-size="10.00">lmda/fs.h</text>
</a>
</g>
</g>
<!-- Node1&#45;&gt;Node2 -->
<g id="edge1" class="edge">
<title>Node1&#45;&gt;Node2</title>
<path fill="none" stroke="midnightblue" d="M70.6,-56.4C63.91,-47.75 55.32,-36.64 48.32,-27.58"/>
<polygon fill="midnightblue" stroke="midnightblue" points="51.08,-25.43 42.19,-19.66 45.54,-29.71 51.08,-25.43"/>
</g>
<!-- Node3 -->
<g id="node3" class="node">
<title>Node3</title>
<g id="a_node3"><a xlink:href="log_8h.html" target="_top" xlink:title=" ">
<polygon fill="white" stroke="black" points="89,-0.5 89,-19.5 166,-19.5 166,-0.5 89,-0.5"/>
<text text-anchor="middle" x="127.5" y="-7.5" font-family="Fira Code" font-size="10.00">lmda/log.h</text>
</a>
</g>
</g>
<!-- Node1&#45;&gt;Node3 -->
<g id="edge2" class="edge">
<title>Node1&#45;&gt;Node3</title>
<path fill="none" stroke="midnightblue" d="M92.4,-56.4C99.09,-47.75 107.68,-36.64 114.68,-27.58"/>
<polygon fill="midnightblue" stroke="midnightblue" points="117.46,-29.71 120.81,-19.66 111.92,-25.43 117.46,-29.71"/>
</g>
</g>
</svg>
