<?xml version="1.0" encoding="UTF-8" standalone="no"?>
<!DOCTYPE svg PUBLIC "-//W3C//DTD SVG 1.1//EN"
 "http://www.w3.org/Graphics/SVG/1.1/DTD/svg11.dtd">
<!-- Generated by graphviz version 3.0.0 (20220226.1711)
 -->
<!-- Title: src/game/game.c Pages: 1 -->
<svg width="168pt" height="84pt"
 viewBox="0.00 0.00 168.00 84.00" xmlns="http://www.w3.org/2000/svg" xmlns:xlink="http://www.w3.org/1999/xlink">
<g id="graph0" class="graph" transform="scale(1 1) rotate(0) translate(4 80)">
<title>src/game/game.c</title>
<polygon fill="white" stroke="transparent" points="-4,4 -4,-80 164,-80 164,4 -4,4"/>
<!-- Node1 -->
<g id="node1" class="node">
<title>Node1</title>
<g id="a_node1"><a xlink:title="Highest&#45;level game state/evolution management.">
<polygon fill="#bfbfbf" stroke="black" points="32,-56.5 32,-75.5 139,-75.5 139,-56.5 32,-56.5"/>
<text text-anchor="middle" x="85.5" y="-63.5" font-family="Fira Code" font-size="10.00">src/game/game.c</text>
</a>
</g>
</g>
<!-- Node2 -->
<g id="node2" class="node">
<title>Node2</title>
<g id="a_node2"><a xlink:href="game_8h.html" target="_top" xlink:title="Declares the highest&#45;level game state and evolution operations.">
<polygon fill="white" stroke="black" points="0,-0.5 0,-19.5 83,-19.5 83,-0.5 0,-0.5"/>
<text text-anchor="middle" x="41.5" y="-7.5" font-family="Fira Code" font-size="10.00">lmda/game.h</text>
</a>
</g>
</g>
<!-- Node1&#45;&gt;Node2 -->
<g id="edge1" class="edge">
<title>Node1&#45;&gt;Node2</title>
<path fill="none" stroke="midnightblue" d="M78.23,-56.08C71.96,-48.38 62.71,-37.03 55.07,-27.65"/>
<polygon fill="midnightblue" stroke="midnightblue" points="57.66,-25.29 48.63,-19.75 52.23,-29.71 57.66,-25.29"/>
</g>
<!-- Node3 -->
<g id="node3" class="node">
<title>Node3</title>
<g id="a_node3"><a xlink:title=" ">
<polygon fill="white" stroke="#bfbfbf" points="101,-0.5 101,-19.5 160,-19.5 160,-0.5 101,-0.5"/>
<text text-anchor="middle" x="130.5" y="-7.5" font-family="Fira Code" font-size="10.00">flecs.h</text>
</a>
</g>
</g>
<!-- Node1&#45;&gt;Node3 -->
<g id="edge2" class="edge">
<title>Node1&#45;&gt;Node3</title>
<path fill="none" stroke="midnightblue" d="M92.93,-56.08C99.35,-48.38 108.81,-37.03 116.62,-27.65"/>
<polygon fill="midnightblue" stroke="midnightblue" points="119.49,-29.67 123.21,-19.75 114.12,-25.19 119.49,-29.67"/>
</g>
</g>
</svg>
