<?xml version="1.0" encoding="UTF-8" standalone="no"?>
<!DOCTYPE svg PUBLIC "-//W3C//DTD SVG 1.1//EN"
 "http://www.w3.org/Graphics/SVG/1.1/DTD/svg11.dtd">
<!-- Generated by graphviz version 3.0.0 (20220226.1711)
 -->
<!-- Title: src/game/game_plugin.c Pages: 1 -->
<svg width="552pt" height="252pt"
 viewBox="0.00 0.00 552.00 252.00" xmlns="http://www.w3.org/2000/svg" xmlns:xlink="http://www.w3.org/1999/xlink">
<g id="graph0" class="graph" transform="scale(1 1) rotate(0) translate(4 248)">
<title>src/game/game_plugin.c</title>
<polygon fill="white" stroke="transparent" points="-4,4 -4,-248 548,-248 548,4 -4,4"/>
<!-- Node1 -->
<g id="node1" class="node">
<title>Node1</title>
<g id="a_node1"><a xlink:title="The game plugin itself; implements the plugin interface to run the game.">
<polygon fill="#bfbfbf" stroke="black" points="159,-224.5 159,-243.5 308,-243.5 308,-224.5 159,-224.5"/>
<text text-anchor="middle" x="233.5" y="-231.5" font-family="Fira Code" font-size="10.00">src/game/game_plugin.c</text>
</a>
</g>
</g>
<!-- Node2 -->
<g id="node2" class="node">
<title>Node2</title>
<g id="a_node2"><a xlink:href="game_8h.html" target="_top" xlink:title="Declares the highest&#45;level game state and evolution operations.">
<polygon fill="white" stroke="black" points="0,-112.5 0,-131.5 83,-131.5 83,-112.5 0,-112.5"/>
<text text-anchor="middle" x="41.5" y="-119.5" font-family="Fira Code" font-size="10.00">lmda/game.h</text>
</a>
</g>
</g>
<!-- Node1&#45;&gt;Node2 -->
<g id="edge1" class="edge">
<title>Node1&#45;&gt;Node2</title>
<path fill="none" stroke="midnightblue" d="M218.43,-224.37C185.21,-205.33 105.41,-159.62 65.33,-136.65"/>
<polygon fill="midnightblue" stroke="midnightblue" points="66.91,-133.53 56.5,-131.59 63.43,-139.6 66.91,-133.53"/>
</g>
<!-- Node3 -->
<g id="node3" class="node">
<title>Node3</title>
<g id="a_node3"><a xlink:href="plugin_8h.html" target="_top" xlink:title="Declares the interface to the game library; implementing that interface defines a game plugin.">
<polygon fill="white" stroke="black" points="186,-168.5 186,-187.5 281,-187.5 281,-168.5 186,-168.5"/>
<text text-anchor="middle" x="233.5" y="-175.5" font-family="Fira Code" font-size="10.00">lmda/plugin.h</text>
</a>
</g>
</g>
<!-- Node1&#45;&gt;Node3 -->
<g id="edge2" class="edge">
<title>Node1&#45;&gt;Node3</title>
<path fill="none" stroke="midnightblue" d="M233.5,-224.08C233.5,-217.01 233.5,-206.86 233.5,-197.99"/>
<polygon fill="midnightblue" stroke="midnightblue" points="237,-197.75 233.5,-187.75 230,-197.75 237,-197.75"/>
</g>
<!-- Node8 -->
<g id="node8" class="node">
<title>Node8</title>
<g id="a_node8"><a xlink:href="log_8h.html" target="_top" xlink:title=" ">
<polygon fill="white" stroke="black" points="455,-112.5 455,-131.5 532,-131.5 532,-112.5 455,-112.5"/>
<text text-anchor="middle" x="493.5" y="-119.5" font-family="Fira Code" font-size="10.00">lmda/log.h</text>
</a>
</g>
</g>
<!-- Node1&#45;&gt;Node8 -->
<g id="edge19" class="edge">
<title>Node1&#45;&gt;Node8</title>
<path fill="none" stroke="midnightblue" d="M253.9,-224.37C299.66,-205.01 410.62,-158.06 463.94,-135.51"/>
<polygon fill="midnightblue" stroke="midnightblue" points="465.35,-138.71 473.19,-131.59 462.62,-132.26 465.35,-138.71"/>
</g>
<!-- Node3&#45;&gt;Node2 -->
<g id="edge4" class="edge">
<title>Node3&#45;&gt;Node2</title>
<path fill="none" stroke="midnightblue" d="M203.08,-168.44C170.22,-159.2 117.72,-144.44 81.53,-134.26"/>
<polygon fill="midnightblue" stroke="midnightblue" points="82.35,-130.85 71.78,-131.52 80.46,-137.59 82.35,-130.85"/>
</g>
<!-- Node4 -->
<g id="node4" class="node">
<title>Node4</title>
<g id="a_node4"><a xlink:href="fs_8h.html" target="_top" xlink:title="Declares the game&#39;s interface to the platform filesystem.">
<polygon fill="white" stroke="black" points="101,-112.5 101,-131.5 172,-131.5 172,-112.5 101,-112.5"/>
<text text-anchor="middle" x="136.5" y="-119.5" font-family="Fira Code" font-size="10.00">lmda/fs.h</text>
</a>
</g>
</g>
<!-- Node3&#45;&gt;Node4 -->
<g id="edge3" class="edge">
<title>Node3&#45;&gt;Node4</title>
<path fill="none" stroke="midnightblue" d="M217.92,-168.32C202.5,-159.74 178.69,-146.49 160.79,-136.52"/>
<polygon fill="midnightblue" stroke="midnightblue" points="162.49,-133.46 152.05,-131.65 159.08,-139.58 162.49,-133.46"/>
</g>
<!-- Node5 -->
<g id="node5" class="node">
<title>Node5</title>
<g id="a_node5"><a xlink:href="input_8h.html" target="_top" xlink:title="The game&#39;s interface to the user input devices.">
<polygon fill="white" stroke="black" points="104,-56.5 104,-75.5 193,-75.5 193,-56.5 104,-56.5"/>
<text text-anchor="middle" x="148.5" y="-63.5" font-family="Fira Code" font-size="10.00">lmda/input.h</text>
</a>
</g>
</g>
<!-- Node3&#45;&gt;Node5 -->
<g id="edge5" class="edge">
<title>Node3&#45;&gt;Node5</title>
<path fill="none" stroke="midnightblue" d="M226.83,-168.37C212.74,-150.14 179.74,-107.43 161.39,-83.68"/>
<polygon fill="midnightblue" stroke="midnightblue" points="164.02,-81.36 155.14,-75.59 158.48,-85.64 164.02,-81.36"/>
</g>
<!-- Node3&#45;&gt;Node8 -->
<g id="edge8" class="edge">
<title>Node3&#45;&gt;Node8</title>
<path fill="none" stroke="midnightblue" d="M274.7,-168.44C320.82,-158.86 395.5,-143.35 444.56,-133.16"/>
<polygon fill="midnightblue" stroke="midnightblue" points="445.54,-136.54 454.62,-131.08 444.12,-129.68 445.54,-136.54"/>
</g>
<!-- Node9 -->
<g id="node9" class="node">
<title>Node9</title>
<g id="a_node9"><a xlink:href="sdl_8h.html" target="_top" xlink:title="Interface to the SDL subsystems (rendering, image loading, sound, etc).">
<polygon fill="white" stroke="black" points="229,-112.5 229,-131.5 306,-131.5 306,-112.5 229,-112.5"/>
<text text-anchor="middle" x="267.5" y="-119.5" font-family="Fira Code" font-size="10.00">lmda/sdl.h</text>
</a>
</g>
</g>
<!-- Node3&#45;&gt;Node9 -->
<g id="edge9" class="edge">
<title>Node3&#45;&gt;Node9</title>
<path fill="none" stroke="midnightblue" d="M239.11,-168.08C243.87,-160.53 250.82,-149.49 256.65,-140.23"/>
<polygon fill="midnightblue" stroke="midnightblue" points="259.62,-142.08 261.99,-131.75 253.7,-138.35 259.62,-142.08"/>
</g>
<!-- Node14 -->
<g id="node14" class="node">
<title>Node14</title>
<g id="a_node14"><a xlink:href="timing_8h.html" target="_top" xlink:title="Platform&#45;independent high&#45;resolution timing interface, for measurement and delays.">
<polygon fill="white" stroke="black" points="342,-112.5 342,-131.5 437,-131.5 437,-112.5 342,-112.5"/>
<text text-anchor="middle" x="389.5" y="-119.5" font-family="Fira Code" font-size="10.00">lmda/timing.h</text>
</a>
</g>
</g>
<!-- Node3&#45;&gt;Node14 -->
<g id="edge18" class="edge">
<title>Node3&#45;&gt;Node14</title>
<path fill="none" stroke="midnightblue" d="M258.22,-168.44C284.35,-159.4 325.76,-145.06 355.08,-134.92"/>
<polygon fill="midnightblue" stroke="midnightblue" points="356.59,-138.1 364.9,-131.52 354.3,-131.48 356.59,-138.1"/>
</g>
<!-- Node6 -->
<g id="node6" class="node">
<title>Node6</title>
<g id="a_node6"><a xlink:href="keyboard_8h.html" target="_top" xlink:title="Defines symbols for SDL keyboard key identifiers.">
<polygon fill="white" stroke="black" points="9,-0.5 9,-19.5 152,-19.5 152,-0.5 9,-0.5"/>
<text text-anchor="middle" x="80.5" y="-7.5" font-family="Fira Code" font-size="10.00">lmda/input/keyboard.h</text>
</a>
</g>
</g>
<!-- Node5&#45;&gt;Node6 -->
<g id="edge6" class="edge">
<title>Node5&#45;&gt;Node6</title>
<path fill="none" stroke="midnightblue" d="M137.57,-56.32C127.33,-48.18 111.78,-35.84 99.5,-26.09"/>
<polygon fill="midnightblue" stroke="midnightblue" points="101.63,-23.31 91.62,-19.83 97.28,-28.79 101.63,-23.31"/>
</g>
<!-- Node7 -->
<g id="node7" class="node">
<title>Node7</title>
<g id="a_node7"><a xlink:href="signal_8h.html" target="_top" xlink:title="Declares the types of signal transitions that may represent a state change.">
<polygon fill="white" stroke="black" points="170,-0.5 170,-19.5 265,-19.5 265,-0.5 170,-0.5"/>
<text text-anchor="middle" x="217.5" y="-7.5" font-family="Fira Code" font-size="10.00">lmda/signal.h</text>
</a>
</g>
</g>
<!-- Node5&#45;&gt;Node7 -->
<g id="edge7" class="edge">
<title>Node5&#45;&gt;Node7</title>
<path fill="none" stroke="midnightblue" d="M159.59,-56.32C169.99,-48.18 185.76,-35.84 198.22,-26.09"/>
<polygon fill="midnightblue" stroke="midnightblue" points="200.49,-28.75 206.21,-19.83 196.18,-23.24 200.49,-28.75"/>
</g>
<!-- Node9&#45;&gt;Node5 -->
<g id="edge15" class="edge">
<title>Node9&#45;&gt;Node5</title>
<path fill="none" stroke="midnightblue" d="M248.64,-112.44C229.23,-103.64 198.77,-89.81 176.54,-79.72"/>
<polygon fill="midnightblue" stroke="midnightblue" points="177.82,-76.46 167.27,-75.52 174.93,-82.84 177.82,-76.46"/>
</g>
<!-- Node9&#45;&gt;Node9 -->
<g id="edge16" class="edge">
<title>Node9&#45;&gt;Node9</title>
<path fill="none" stroke="midnightblue" d="M291.6,-131.53C307.97,-134.31 324,-131.13 324,-122 324,-114.79 314.02,-111.3 301.77,-111.51"/>
<polygon fill="midnightblue" stroke="midnightblue" points="301.22,-108.04 291.6,-112.47 301.88,-115.01 301.22,-108.04"/>
</g>
<!-- Node10 -->
<g id="node10" class="node">
<title>Node10</title>
<g id="a_node10"><a xlink:href="color_8h.html" target="_top" xlink:title="Defines symbols for common SDL color values.">
<polygon fill="white" stroke="black" points="211,-56.5 211,-75.5 324,-75.5 324,-56.5 211,-56.5"/>
<text text-anchor="middle" x="267.5" y="-63.5" font-family="Fira Code" font-size="10.00">lmda/sdl/color.h</text>
</a>
</g>
</g>
<!-- Node9&#45;&gt;Node10 -->
<g id="edge10" class="edge">
<title>Node9&#45;&gt;Node10</title>
<path fill="none" stroke="midnightblue" d="M262.33,-112.08C260.82,-104.93 260.39,-94.64 261.04,-85.69"/>
<polygon fill="midnightblue" stroke="midnightblue" points="264.52,-86.13 262.37,-75.75 257.58,-85.2 264.52,-86.13"/>
</g>
<!-- Node11 -->
<g id="node11" class="node">
<title>Node11</title>
<g id="a_node11"><a xlink:href="ttf_8h.html" target="_top" xlink:title=" ">
<polygon fill="white" stroke="black" points="342,-56.5 342,-75.5 443,-75.5 443,-56.5 342,-56.5"/>
<text text-anchor="middle" x="392.5" y="-63.5" font-family="Fira Code" font-size="10.00">lmda/sdl/ttf.h</text>
</a>
</g>
</g>
<!-- Node9&#45;&gt;Node11 -->
<g id="edge12" class="edge">
<title>Node9&#45;&gt;Node11</title>
<path fill="none" stroke="midnightblue" d="M282.22,-112.44C300.92,-103.52 333.28,-89.44 358.22,-79.32"/>
<polygon fill="midnightblue" stroke="midnightblue" points="359.72,-82.48 367.71,-75.52 357.12,-75.99 359.72,-82.48"/>
</g>
<!-- Node13 -->
<g id="node13" class="node">
<title>Node13</title>
<g id="a_node13"><a xlink:title=" ">
<polygon fill="white" stroke="#bfbfbf" points="461,-56.5 461,-75.5 544,-75.5 544,-56.5 461,-56.5"/>
<text text-anchor="middle" x="502.5" y="-63.5" font-family="Fira Code" font-size="10.00">SDL_image.h</text>
</a>
</g>
</g>
<!-- Node9&#45;&gt;Node13 -->
<g id="edge17" class="edge">
<title>Node9&#45;&gt;Node13</title>
<path fill="none" stroke="midnightblue" d="M304.74,-112.44C345.56,-103.06 411.14,-87.99 455.48,-77.8"/>
<polygon fill="midnightblue" stroke="midnightblue" points="456.48,-81.17 465.44,-75.52 454.91,-74.34 456.48,-81.17"/>
</g>
<!-- Node10&#45;&gt;Node9 -->
<g id="edge11" class="edge">
<title>Node10&#45;&gt;Node9</title>
<path fill="none" stroke="midnightblue" d="M272.63,-75.75C274.16,-82.86 274.6,-93.14 273.97,-102.1"/>
<polygon fill="midnightblue" stroke="midnightblue" points="270.49,-101.71 272.67,-112.08 277.43,-102.62 270.49,-101.71"/>
</g>
<!-- Node11&#45;&gt;Node9 -->
<g id="edge13" class="edge">
<title>Node11&#45;&gt;Node9</title>
<path fill="none" stroke="midnightblue" d="M377.87,-75.52C359.2,-84.43 326.85,-98.5 301.89,-108.64"/>
<polygon fill="midnightblue" stroke="midnightblue" points="300.38,-105.48 292.4,-112.44 302.98,-111.97 300.38,-105.48"/>
</g>
<!-- Node12 -->
<g id="node12" class="node">
<title>Node12</title>
<g id="a_node12"><a xlink:title=" ">
<polygon fill="white" stroke="#bfbfbf" points="357,-0.5 357,-19.5 428,-19.5 428,-0.5 357,-0.5"/>
<text text-anchor="middle" x="392.5" y="-7.5" font-family="Fira Code" font-size="10.00">SDL_ttf.h</text>
</a>
</g>
</g>
<!-- Node11&#45;&gt;Node12 -->
<g id="edge14" class="edge">
<title>Node11&#45;&gt;Node12</title>
<path fill="none" stroke="midnightblue" d="M392.5,-56.08C392.5,-49.01 392.5,-38.86 392.5,-29.99"/>
<polygon fill="midnightblue" stroke="midnightblue" points="396,-29.75 392.5,-19.75 389,-29.75 396,-29.75"/>
</g>
</g>
</svg>
