<?xml version="1.0" encoding="UTF-8" standalone="no"?>
<!DOCTYPE svg PUBLIC "-//W3C//DTD SVG 1.1//EN"
 "http://www.w3.org/Graphics/SVG/1.1/DTD/svg11.dtd">
<!-- Generated by graphviz version 3.0.0 (20220226.1711)
 -->
<!-- Title: src/include/lmda/game.h Pages: 1 -->
<!--zoomable 151 -->
<svg id="main" version="1.1" xmlns="http://www.w3.org/2000/svg" xmlns:xlink="http://www.w3.org/1999/xlink" xml:space="preserve" onload="init(evt)">
<style type="text/css"><![CDATA[
.edge:hover path { stroke: red; }
.edge:hover polygon { stroke: red; fill: red; }
]]></style>
<script type="text/javascript"><![CDATA[
var edges = document.getElementsByTagName('g');
if (edges && edges.length) {
  for (var i=0;i<edges.length;i++) {
    if (edges[i].id.substr(0,4)=='edge') {
      edges[i].setAttribute('class','edge');
    }
  }
}
]]></script>
        <defs>
                <circle id="rim" cx="0" cy="0" r="7"/>
                <circle id="rim2" cx="0" cy="0" r="3.5"/>
                <g id="zoomPlus">
                        <use xlink:href="#rim" fill="#404040">
                                <set attributeName="fill" to="#808080" begin="zoomplus.mouseover" end="zoomplus.mouseout"/>
                        </use>
                        <path d="M-4,0h8M0,-4v8" fill="none" stroke="white" stroke-width="1.5" pointer-events="none"/>
                </g>
                <g id="zoomMin">
                        <use xlink:href="#rim" fill="#404040">
                                <set attributeName="fill" to="#808080" begin="zoomminus.mouseover" end="zoomminus.mouseout"/>
                        </use>
                        <path d="M-4,0h8" fill="none" stroke="white" stroke-width="1.5" pointer-events="none"/>
                </g>
                <g id="dirArrow">
                        <path fill="none" stroke="white" stroke-width="1.5" d="M0,-3.0v7 M-2.5,-0.5L0,-3.0L2.5,-0.5"/>
                </g>
               <g id="resetDef">
                       <use xlink:href="#rim2" fill="#404040">
                               <set attributeName="fill" to="#808080" begin="reset.mouseover" end="reset.mouseout"/>
                       </use>
               </g>
        </defs>

<script type="text/javascript">
var viewWidth = 914;
var viewHeight = 151;
var sectionId = 'dynsection-0';
</script>
<script xlink:href="svgpan.js"/>
<svg id="graph" class="graph">
<g id="viewport">
<title>src/include/lmda/game.h</title>
<polygon fill="white" stroke="transparent" points="-4,4 -4,-147 910,-147 910,4 -4,4"/>
<!-- Node1 -->
<g id="node1" class="node">
<title>Node1</title>
<g id="a_node1"><a xlink:title="Declares the highest&#45;level game state and evolution operations.">
<polygon fill="#bfbfbf" stroke="black" points="78,-123.5 78,-142.5 233,-142.5 233,-123.5 78,-123.5"/>
<text text-anchor="middle" x="155.5" y="-130.5" font-family="Fira Code" font-size="10.00">src/include/lmda/game.h</text>
</a>
</g>
</g>
<!-- Node2 -->
<g id="node2" class="node">
<title>Node2</title>
<g id="a_node2"><a xlink:href="game_8c.html" target="_top" xlink:title="Highest&#45;level game state/evolution management.">
<polygon fill="white" stroke="black" points="20,-67.5 20,-86.5 127,-86.5 127,-67.5 20,-67.5"/>
<text text-anchor="middle" x="73.5" y="-74.5" font-family="Fira Code" font-size="10.00">src/game/game.c</text>
</a>
</g>
</g>
<!-- Node1&#45;&gt;Node2 -->
<g id="edge1" class="edge">
<title>Node1&#45;&gt;Node2</title>
<path fill="none" stroke="midnightblue" d="M133.67,-117.62C118.69,-107.76 99.3,-94.99 86.64,-86.65"/>
<polygon fill="midnightblue" stroke="midnightblue" points="132.05,-120.75 142.33,-123.32 135.9,-114.9 132.05,-120.75"/>
</g>
<!-- Node3 -->
<g id="node3" class="node">
<title>Node3</title>
<g id="a_node3"><a xlink:href="game__plugin_8c.html" target="_top" xlink:title="The game plugin itself; implements the plugin interface to run the game.">
<polygon fill="white" stroke="black" points="0,-6 0,-25 149,-25 149,-6 0,-6"/>
<text text-anchor="middle" x="74.5" y="-13" font-family="Fira Code" font-size="10.00">src/game/game_plugin.c</text>
</a>
</g>
</g>
<!-- Node1&#45;&gt;Node3 -->
<g id="edge2" class="edge">
<title>Node1&#45;&gt;Node3</title>
<path fill="none" stroke="midnightblue" d="M152.68,-113.16C149.96,-99.46 144.82,-80.96 135.5,-67 123.43,-48.94 103.03,-33.93 89.17,-25.09"/>
<polygon fill="midnightblue" stroke="midnightblue" points="149.29,-114.07 154.44,-123.33 156.19,-112.88 149.29,-114.07"/>
</g>
<!-- Node4 -->
<g id="node4" class="node">
<title>Node4</title>
<g id="a_node4"><a xlink:href="plugin_8h.html" target="_top" xlink:title="Declares the interface to the game library; implementing that interface defines a game plugin.">
<polygon fill="white" stroke="black" points="265,-67.5 265,-86.5 432,-86.5 432,-67.5 265,-67.5"/>
<text text-anchor="middle" x="348.5" y="-74.5" font-family="Fira Code" font-size="10.00">src/include/lmda/plugin.h</text>
</a>
</g>
</g>
<!-- Node1&#45;&gt;Node4 -->
<g id="edge3" class="edge">
<title>Node1&#45;&gt;Node4</title>
<path fill="none" stroke="midnightblue" d="M195.89,-120.7C232.32,-110.51 285.09,-95.74 318.06,-86.52"/>
<polygon fill="midnightblue" stroke="midnightblue" points="194.77,-117.38 186.08,-123.44 196.65,-124.12 194.77,-117.38"/>
</g>
<!-- Node4&#45;&gt;Node3 -->
<g id="edge5" class="edge">
<title>Node4&#45;&gt;Node3</title>
<path fill="none" stroke="midnightblue" d="M299.37,-65.33C246.23,-53.79 162.58,-35.63 113.68,-25.01"/>
<polygon fill="midnightblue" stroke="midnightblue" points="298.73,-68.77 309.24,-67.48 300.21,-61.93 298.73,-68.77"/>
</g>
<!-- Node5 -->
<g id="node5" class="node">
<title>Node5</title>
<g id="a_node5"><a xlink:href="main_8c.html" target="_top" xlink:title="Entrypoint to game application (i.e. game plugin host).">
<polygon fill="white" stroke="black" points="167,-6 167,-25 268,-25 268,-6 167,-6"/>
<text text-anchor="middle" x="217.5" y="-13" font-family="Fira Code" font-size="10.00">src/app/main.c</text>
</a>
</g>
</g>
<!-- Node4&#45;&gt;Node5 -->
<g id="edge4" class="edge">
<title>Node4&#45;&gt;Node5</title>
<path fill="none" stroke="midnightblue" d="M320.6,-63.33C295.17,-51.78 258.3,-35.03 236.23,-25.01"/>
<polygon fill="midnightblue" stroke="midnightblue" points="319.18,-66.53 329.73,-67.48 322.07,-60.15 319.18,-66.53"/>
</g>
<!-- Node6 -->
<g id="node6" class="node">
<title>Node6</title>
<g id="a_node6"><a xlink:href="sdl_8c.html" target="_top" xlink:title="High&#45;level SDL operations, e.g. opening a window.">
<polygon fill="white" stroke="black" points="286,-6 286,-25 411,-25 411,-6 286,-6"/>
<text text-anchor="middle" x="348.5" y="-13" font-family="Fira Code" font-size="10.00">src/game/sdl/sdl.c</text>
</a>
</g>
</g>
<!-- Node4&#45;&gt;Node6 -->
<g id="edge6" class="edge">
<title>Node4&#45;&gt;Node6</title>
<path fill="none" stroke="midnightblue" d="M348.5,-57.32C348.5,-46.5 348.5,-33.4 348.5,-25.01"/>
<polygon fill="midnightblue" stroke="midnightblue" points="345,-57.48 348.5,-67.48 352,-57.48 345,-57.48"/>
</g>
<!-- Node7 -->
<g id="node7" class="node">
<title>Node7</title>
<g id="a_node7"><a xlink:href="plugin_8c.html" target="_top" xlink:title="Platform&#45;independent plugin loading operations.">
<polygon fill="white" stroke="black" points="429,-0.5 429,-30.5 560,-30.5 560,-0.5 429,-0.5"/>
<text text-anchor="start" x="437" y="-18.5" font-family="Fira Code" font-size="10.00">src/platform/common</text>
<text text-anchor="middle" x="494.5" y="-7.5" font-family="Fira Code" font-size="10.00">/plugin.c</text>
</a>
</g>
</g>
<!-- Node4&#45;&gt;Node7 -->
<g id="edge7" class="edge">
<title>Node4&#45;&gt;Node7</title>
<path fill="none" stroke="midnightblue" d="M378.95,-63.59C402.62,-53.94 435.47,-40.56 460.09,-30.52"/>
<polygon fill="midnightblue" stroke="midnightblue" points="377.36,-60.46 369.42,-67.48 380,-66.94 377.36,-60.46"/>
</g>
<!-- Node8 -->
<g id="node8" class="node">
<title>Node8</title>
<g id="a_node8"><a xlink:href="plugin__mac_8c.html" target="_top" xlink:title="Plugin loading on MacOS.">
<polygon fill="white" stroke="black" points="578,-0.5 578,-30.5 733,-30.5 733,-0.5 578,-0.5"/>
<text text-anchor="start" x="586" y="-18.5" font-family="Fira Code" font-size="10.00">src/platform/mac/plugin</text>
<text text-anchor="middle" x="655.5" y="-7.5" font-family="Fira Code" font-size="10.00">_mac.c</text>
</a>
</g>
</g>
<!-- Node4&#45;&gt;Node8 -->
<g id="edge8" class="edge">
<title>Node4&#45;&gt;Node8</title>
<path fill="none" stroke="midnightblue" d="M402.49,-65.54C452.67,-55.81 527.79,-41.25 583.15,-30.52"/>
<polygon fill="midnightblue" stroke="midnightblue" points="401.64,-62.14 392.49,-67.48 402.97,-69.01 401.64,-62.14"/>
</g>
<!-- Node9 -->
<g id="node9" class="node">
<title>Node9</title>
<g id="a_node9"><a xlink:href="timing__mac_8c.html" target="_top" xlink:title="High&#45;resolution timing on MacOS.">
<polygon fill="white" stroke="black" points="751,-0.5 751,-30.5 906,-30.5 906,-0.5 751,-0.5"/>
<text text-anchor="start" x="759" y="-18.5" font-family="Fira Code" font-size="10.00">src/platform/mac/timing</text>
<text text-anchor="middle" x="828.5" y="-7.5" font-family="Fira Code" font-size="10.00">_mac.c</text>
</a>
</g>
</g>
<!-- Node4&#45;&gt;Node9 -->
<g id="edge9" class="edge">
<title>Node4&#45;&gt;Node9</title>
<path fill="none" stroke="midnightblue" d="M442.1,-66.73C522.05,-58.47 640.03,-45.48 742.5,-31 745.2,-30.62 747.94,-30.22 750.71,-29.81"/>
<polygon fill="midnightblue" stroke="midnightblue" points="441.65,-63.26 432.06,-67.76 442.37,-70.22 441.65,-63.26"/>
</g>
</g>
</svg>
        <g id="navigator" transform="translate(0 0)" fill="#404254">
                <rect fill="#f2f5e9" fill-opacity="0.5" stroke="#606060" stroke-width=".5" x="0" y="0" width="60" height="60"/>
                <use id="zoomplus" xlink:href="#zoomPlus" x="17" y="9" onmousedown="handleZoom(evt,'in')"/>
                <use id="zoomminus" xlink:href="#zoomMin" x="42" y="9" onmousedown="handleZoom(evt,'out')"/>
                <use id="reset" xlink:href="#resetDef" x="30" y="36" onmousedown="handleReset()"/>
                <g id="arrowUp" xlink:href="#dirArrow" transform="translate(30 24)" onmousedown="handlePan(0,-1)">
                  <use xlink:href="#rim" fill="#404040">
                        <set attributeName="fill" to="#808080" begin="arrowUp.mouseover" end="arrowUp.mouseout"/>
                  </use>
                  <path fill="none" stroke="white" stroke-width="1.5" d="M0,-3.0v7 M-2.5,-0.5L0,-3.0L2.5,-0.5"/>
                </g>
                <g id="arrowRight" xlink:href="#dirArrow" transform="rotate(90) translate(36 -43)" onmousedown="handlePan(1,0)">
                  <use xlink:href="#rim" fill="#404040">
                        <set attributeName="fill" to="#808080" begin="arrowRight.mouseover" end="arrowRight.mouseout"/>
                  </use>
                  <path fill="none" stroke="white" stroke-width="1.5" d="M0,-3.0v7 M-2.5,-0.5L0,-3.0L2.5,-0.5"/>
                </g>
                <g id="arrowDown" xlink:href="#dirArrow" transform="rotate(180) translate(-30 -48)" onmousedown="handlePan(0,1)">
                  <use xlink:href="#rim" fill="#404040">
                        <set attributeName="fill" to="#808080" begin="arrowDown.mouseover" end="arrowDown.mouseout"/>
                  </use>
                  <path fill="none" stroke="white" stroke-width="1.5" d="M0,-3.0v7 M-2.5,-0.5L0,-3.0L2.5,-0.5"/>
                </g>
                <g id="arrowLeft" xlink:href="#dirArrow" transform="rotate(270) translate(-36 17)" onmousedown="handlePan(-1,0)">
                  <use xlink:href="#rim" fill="#404040">
                        <set attributeName="fill" to="#808080" begin="arrowLeft.mouseover" end="arrowLeft.mouseout"/>
                  </use>
                  <path fill="none" stroke="white" stroke-width="1.5" d="M0,-3.0v7 M-2.5,-0.5L0,-3.0L2.5,-0.5"/>
                </g>
        </g>
        <svg viewBox="0 0 15 15" width="100%" height="30px" preserveAspectRatio="xMaxYMin meet">
         <g id="arrow_out" transform="scale(0.3 0.3)">
          <a xlink:href="game_8h__dep__incl_org.svg" target="_base">
           <rect id="button" ry="5" rx="5" y="6" x="6" height="38" width="38"
                fill="#f2f5e9" fill-opacity="0.5" stroke="#606060" stroke-width="1.0"/>
           <path id="arrow"
             d="M 11.500037,31.436501 C 11.940474,20.09759 22.043105,11.32322 32.158766,21.979434 L 37.068811,17.246167 C 37.068811,17.246167 37.088388,32 37.088388,32 L 22.160133,31.978069 C 22.160133,31.978069 26.997745,27.140456 26.997745,27.140456 C 18.528582,18.264221 13.291696,25.230495 11.500037,31.436501 z"
             style="fill:#404040;"/>
          </a>
         </g>
        </svg>
</svg>
