<?xml version="1.0" encoding="UTF-8" standalone="no"?>
<!DOCTYPE svg PUBLIC "-//W3C//DTD SVG 1.1//EN"
 "http://www.w3.org/Graphics/SVG/1.1/DTD/svg11.dtd">
<!-- Generated by graphviz version 3.0.0 (20220226.1711)
 -->
<!-- Title: src/include/lmda/input.h Pages: 1 -->
<svg width="264pt" height="84pt"
 viewBox="0.00 0.00 264.00 84.00" xmlns="http://www.w3.org/2000/svg" xmlns:xlink="http://www.w3.org/1999/xlink">
<g id="graph0" class="graph" transform="scale(1 1) rotate(0) translate(4 80)">
<title>src/include/lmda/input.h</title>
<polygon fill="white" stroke="transparent" points="-4,4 -4,-80 260,-80 260,4 -4,4"/>
<!-- Node1 -->
<g id="node1" class="node">
<title>Node1</title>
<g id="a_node1"><a xlink:title="The game&#39;s interface to the user input devices.">
<polygon fill="#bfbfbf" stroke="black" points="59,-56.5 59,-75.5 220,-75.5 220,-56.5 59,-56.5"/>
<text text-anchor="middle" x="139.5" y="-63.5" font-family="Fira Code" font-size="10.00">src/include/lmda/input.h</text>
</a>
</g>
</g>
<!-- Node2 -->
<g id="node2" class="node">
<title>Node2</title>
<g id="a_node2"><a xlink:href="keyboard_8h.html" target="_top" xlink:title="Defines symbols for SDL keyboard key identifiers.">
<polygon fill="white" stroke="black" points="0,-0.5 0,-19.5 143,-19.5 143,-0.5 0,-0.5"/>
<text text-anchor="middle" x="71.5" y="-7.5" font-family="Fira Code" font-size="10.00">lmda/input/keyboard.h</text>
</a>
</g>
</g>
<!-- Node1&#45;&gt;Node2 -->
<g id="edge1" class="edge">
<title>Node1&#45;&gt;Node2</title>
<path fill="none" stroke="midnightblue" d="M128.57,-56.32C118.33,-48.18 102.78,-35.84 90.5,-26.09"/>
<polygon fill="midnightblue" stroke="midnightblue" points="92.63,-23.31 82.62,-19.83 88.28,-28.79 92.63,-23.31"/>
</g>
<!-- Node3 -->
<g id="node3" class="node">
<title>Node3</title>
<g id="a_node3"><a xlink:href="signal_8h.html" target="_top" xlink:title="Declares the types of signal transitions that may represent a state change.">
<polygon fill="white" stroke="black" points="161,-0.5 161,-19.5 256,-19.5 256,-0.5 161,-0.5"/>
<text text-anchor="middle" x="208.5" y="-7.5" font-family="Fira Code" font-size="10.00">lmda/signal.h</text>
</a>
</g>
</g>
<!-- Node1&#45;&gt;Node3 -->
<g id="edge2" class="edge">
<title>Node1&#45;&gt;Node3</title>
<path fill="none" stroke="midnightblue" d="M150.59,-56.32C160.99,-48.18 176.76,-35.84 189.22,-26.09"/>
<polygon fill="midnightblue" stroke="midnightblue" points="191.49,-28.75 197.21,-19.83 187.18,-23.24 191.49,-28.75"/>
</g>
</g>
</svg>
