<?xml version="1.0" encoding="UTF-8" standalone="no"?>
<!DOCTYPE svg PUBLIC "-//W3C//DTD SVG 1.1//EN"
 "http://www.w3.org/Graphics/SVG/1.1/DTD/svg11.dtd">
<!-- Generated by graphviz version 3.0.0 (20220226.1711)
 -->
<!-- Title: src/include/lmda/input/keyboard.h Pages: 1 -->
<svg width="1189pt" height="285pt"
 viewBox="0.00 0.00 1188.93 285.00" xmlns="http://www.w3.org/2000/svg" xmlns:xlink="http://www.w3.org/1999/xlink">
<g id="graph0" class="graph" transform="scale(1 1) rotate(0) translate(4 281)">
<title>src/include/lmda/input/keyboard.h</title>
<polygon fill="white" stroke="transparent" points="-4,4 -4,-281 1184.93,-281 1184.93,4 -4,4"/>
<!-- Node1 -->
<g id="node1" class="node">
<title>Node1</title>
<g id="a_node1"><a xlink:title="Defines symbols for SDL keyboard key identifiers.">
<polygon fill="#bfbfbf" stroke="black" points="324,-246.5 324,-276.5 473,-276.5 473,-246.5 324,-246.5"/>
<text text-anchor="start" x="332" y="-264.5" font-family="Fira Code" font-size="10.00">src/include/lmda/input</text>
<text text-anchor="middle" x="398.5" y="-253.5" font-family="Fira Code" font-size="10.00">/keyboard.h</text>
</a>
</g>
</g>
<!-- Node2 -->
<g id="node2" class="node">
<title>Node2</title>
<g id="a_node2"><a xlink:href="keyboard_8c.html" target="_top" xlink:title="Implementation of mappings between SDL and LMDA keyboard data.">
<polygon fill="white" stroke="black" points="224,-190.5 224,-209.5 391,-209.5 391,-190.5 224,-190.5"/>
<text text-anchor="middle" x="307.5" y="-197.5" font-family="Fira Code" font-size="10.00">src/game/input/keyboard.c</text>
</a>
</g>
</g>
<!-- Node1&#45;&gt;Node2 -->
<g id="edge1" class="edge">
<title>Node1&#45;&gt;Node2</title>
<path fill="none" stroke="midnightblue" d="M368.33,-240.78C352.21,-230.23 333.17,-217.78 320.74,-209.66"/>
<polygon fill="midnightblue" stroke="midnightblue" points="366.65,-243.86 376.93,-246.4 370.48,-238 366.65,-243.86"/>
</g>
<!-- Node3 -->
<g id="node3" class="node">
<title>Node3</title>
<g id="a_node3"><a xlink:href="input_8h.html" target="_top" xlink:title="The game&#39;s interface to the user input devices.">
<polygon fill="white" stroke="black" points="409,-190.5 409,-209.5 570,-209.5 570,-190.5 409,-190.5"/>
<text text-anchor="middle" x="489.5" y="-197.5" font-family="Fira Code" font-size="10.00">src/include/lmda/input.h</text>
</a>
</g>
</g>
<!-- Node1&#45;&gt;Node3 -->
<g id="edge2" class="edge">
<title>Node1&#45;&gt;Node3</title>
<path fill="none" stroke="midnightblue" d="M428.67,-240.78C444.79,-230.23 463.83,-217.78 476.26,-209.66"/>
<polygon fill="midnightblue" stroke="midnightblue" points="426.52,-238 420.07,-246.4 430.35,-243.86 426.52,-238"/>
</g>
<!-- Node4 -->
<g id="node4" class="node">
<title>Node4</title>
<g id="a_node4"><a xlink:href="main_8c.html" target="_top" xlink:title="Entrypoint to game application (i.e. game plugin host).">
<polygon fill="white" stroke="black" points="0,-6 0,-25 101,-25 101,-6 0,-6"/>
<text text-anchor="middle" x="50.5" y="-13" font-family="Fira Code" font-size="10.00">src/app/main.c</text>
</a>
</g>
</g>
<!-- Node3&#45;&gt;Node4 -->
<g id="edge3" class="edge">
<title>Node3&#45;&gt;Node4</title>
<path fill="none" stroke="midnightblue" d="M445.52,-187.84C415.07,-179.64 373.82,-167.6 338.5,-154 231.47,-112.79 109.23,-48.32 66.35,-25.15"/>
<polygon fill="midnightblue" stroke="midnightblue" points="444.85,-191.28 455.41,-190.47 446.65,-184.52 444.85,-191.28"/>
</g>
<!-- Node5 -->
<g id="node5" class="node">
<title>Node5</title>
<g id="a_node5"><a xlink:href="input_8c.html" target="_top" xlink:title="High&#45;level operations for managing input state and bindings.">
<polygon fill="white" stroke="black" points="348,-134.5 348,-153.5 461,-153.5 461,-134.5 348,-134.5"/>
<text text-anchor="middle" x="404.5" y="-141.5" font-family="Fira Code" font-size="10.00">src/game/input.c</text>
</a>
</g>
</g>
<!-- Node3&#45;&gt;Node5 -->
<g id="edge4" class="edge">
<title>Node3&#45;&gt;Node5</title>
<path fill="none" stroke="midnightblue" d="M467.31,-184.9C451.72,-175 431.37,-162.07 418.12,-153.65"/>
<polygon fill="midnightblue" stroke="midnightblue" points="465.53,-187.92 475.84,-190.32 469.28,-182.01 465.53,-187.92"/>
</g>
<!-- Node6 -->
<g id="node6" class="node">
<title>Node6</title>
<g id="a_node6"><a xlink:href="sdl_8c.html" target="_top" xlink:title="High&#45;level SDL operations, e.g. opening a window.">
<polygon fill="white" stroke="black" points="924,-6 924,-25 1049,-25 1049,-6 924,-6"/>
<text text-anchor="middle" x="986.5" y="-13" font-family="Fira Code" font-size="10.00">src/game/sdl/sdl.c</text>
</a>
</g>
</g>
<!-- Node3&#45;&gt;Node6 -->
<g id="edge5" class="edge">
<title>Node3&#45;&gt;Node6</title>
<path fill="none" stroke="midnightblue" d="M580.09,-199.74C748.03,-198.95 1097.37,-186.43 1171.5,-98 1209.61,-52.55 1116.78,-31.59 1049.28,-22.59"/>
<polygon fill="midnightblue" stroke="midnightblue" points="580.02,-196.24 570.03,-199.77 580.04,-203.24 580.02,-196.24"/>
</g>
<!-- Node7 -->
<g id="node7" class="node">
<title>Node7</title>
<g id="a_node7"><a xlink:href="plugin_8h.html" target="_top" xlink:title="Declares the interface to the game library; implementing that interface defines a game plugin.">
<polygon fill="white" stroke="black" points="333,-73 333,-92 500,-92 500,-73 333,-73"/>
<text text-anchor="middle" x="416.5" y="-80" font-family="Fira Code" font-size="10.00">src/include/lmda/plugin.h</text>
</a>
</g>
</g>
<!-- Node3&#45;&gt;Node7 -->
<g id="edge6" class="edge">
<title>Node3&#45;&gt;Node7</title>
<path fill="none" stroke="midnightblue" d="M486.39,-180.35C483.52,-166.75 478.33,-148.28 469.5,-134 458.8,-116.71 440.77,-101.3 428.76,-92.18"/>
<polygon fill="midnightblue" stroke="midnightblue" points="483,-181.25 488.29,-190.43 489.88,-179.95 483,-181.25"/>
</g>
<!-- Node12 -->
<g id="node12" class="node">
<title>Node12</title>
<g id="a_node12"><a xlink:href="sdl_8h.html" target="_top" xlink:title="Interface to the SDL subsystems (rendering, image loading, sound, etc).">
<polygon fill="white" stroke="black" points="679,-134.5 679,-153.5 828,-153.5 828,-134.5 679,-134.5"/>
<text text-anchor="middle" x="753.5" y="-141.5" font-family="Fira Code" font-size="10.00">src/include/lmda/sdl.h</text>
</a>
</g>
</g>
<!-- Node3&#45;&gt;Node12 -->
<g id="edge13" class="edge">
<title>Node3&#45;&gt;Node12</title>
<path fill="none" stroke="midnightblue" d="M541.28,-188.41C591.17,-178.2 665.7,-162.96 711.86,-153.52"/>
<polygon fill="midnightblue" stroke="midnightblue" points="540.43,-185.01 531.33,-190.44 541.83,-191.87 540.43,-185.01"/>
</g>
<!-- Node7&#45;&gt;Node4 -->
<g id="edge7" class="edge">
<title>Node7&#45;&gt;Node4</title>
<path fill="none" stroke="midnightblue" d="M345.83,-71.47C283.42,-62.24 190.08,-47.5 109.5,-31 100.92,-29.24 91.71,-27.1 83.17,-25.01"/>
<polygon fill="midnightblue" stroke="midnightblue" points="345.55,-74.97 355.95,-72.96 346.57,-68.05 345.55,-74.97"/>
</g>
<!-- Node7&#45;&gt;Node6 -->
<g id="edge9" class="edge">
<title>Node7&#45;&gt;Node6</title>
<path fill="none" stroke="midnightblue" d="M476.59,-71.43C487.2,-69.82 498.16,-68.27 508.5,-67 688.74,-44.85 735.81,-57.21 915.5,-31 926.33,-29.42 938,-27.24 948.69,-25.05"/>
<polygon fill="midnightblue" stroke="midnightblue" points="475.9,-67.99 466.55,-72.98 476.97,-74.91 475.9,-67.99"/>
</g>
<!-- Node8 -->
<g id="node8" class="node">
<title>Node8</title>
<g id="a_node8"><a xlink:href="game__plugin_8c.html" target="_top" xlink:title="The game plugin itself; implements the plugin interface to run the game.">
<polygon fill="white" stroke="black" points="119,-6 119,-25 268,-25 268,-6 119,-6"/>
<text text-anchor="middle" x="193.5" y="-13" font-family="Fira Code" font-size="10.00">src/game/game_plugin.c</text>
</a>
</g>
</g>
<!-- Node7&#45;&gt;Node8 -->
<g id="edge8" class="edge">
<title>Node7&#45;&gt;Node8</title>
<path fill="none" stroke="midnightblue" d="M377.08,-70.01C332.95,-57.15 262.44,-36.59 222.88,-25.06"/>
<polygon fill="midnightblue" stroke="midnightblue" points="376.31,-73.43 386.89,-72.87 378.27,-66.71 376.31,-73.43"/>
</g>
<!-- Node9 -->
<g id="node9" class="node">
<title>Node9</title>
<g id="a_node9"><a xlink:href="plugin_8c.html" target="_top" xlink:title="Platform&#45;independent plugin loading operations.">
<polygon fill="white" stroke="black" points="286,-0.5 286,-30.5 417,-30.5 417,-0.5 286,-0.5"/>
<text text-anchor="start" x="294" y="-18.5" font-family="Fira Code" font-size="10.00">src/platform/common</text>
<text text-anchor="middle" x="351.5" y="-7.5" font-family="Fira Code" font-size="10.00">/plugin.c</text>
</a>
</g>
</g>
<!-- Node7&#45;&gt;Node9 -->
<g id="edge10" class="edge">
<title>Node7&#45;&gt;Node9</title>
<path fill="none" stroke="midnightblue" d="M400.62,-65.62C389.91,-54.91 375.9,-40.9 365.59,-30.59"/>
<polygon fill="midnightblue" stroke="midnightblue" points="398.19,-68.14 407.73,-72.73 403.14,-63.19 398.19,-68.14"/>
</g>
<!-- Node10 -->
<g id="node10" class="node">
<title>Node10</title>
<g id="a_node10"><a xlink:href="plugin__mac_8c.html" target="_top" xlink:title="Plugin loading on MacOS.">
<polygon fill="white" stroke="black" points="435,-0.5 435,-30.5 590,-30.5 590,-0.5 435,-0.5"/>
<text text-anchor="start" x="443" y="-18.5" font-family="Fira Code" font-size="10.00">src/platform/mac/plugin</text>
<text text-anchor="middle" x="512.5" y="-7.5" font-family="Fira Code" font-size="10.00">_mac.c</text>
</a>
</g>
</g>
<!-- Node7&#45;&gt;Node10 -->
<g id="edge11" class="edge">
<title>Node7&#45;&gt;Node10</title>
<path fill="none" stroke="midnightblue" d="M438.14,-66.85C454.16,-56 475.87,-41.3 491.69,-30.59"/>
<polygon fill="midnightblue" stroke="midnightblue" points="435.77,-64.23 429.45,-72.73 439.69,-70.03 435.77,-64.23"/>
</g>
<!-- Node11 -->
<g id="node11" class="node">
<title>Node11</title>
<g id="a_node11"><a xlink:href="timing__mac_8c.html" target="_top" xlink:title="High&#45;resolution timing on MacOS.">
<polygon fill="white" stroke="black" points="608,-0.5 608,-30.5 763,-30.5 763,-0.5 608,-0.5"/>
<text text-anchor="start" x="616" y="-18.5" font-family="Fira Code" font-size="10.00">src/platform/mac/timing</text>
<text text-anchor="middle" x="685.5" y="-7.5" font-family="Fira Code" font-size="10.00">_mac.c</text>
</a>
</g>
</g>
<!-- Node7&#45;&gt;Node11 -->
<g id="edge12" class="edge">
<title>Node7&#45;&gt;Node11</title>
<path fill="none" stroke="midnightblue" d="M461.83,-70.55C507.36,-59.55 577.69,-42.55 627.32,-30.56"/>
<polygon fill="midnightblue" stroke="midnightblue" points="460.84,-67.18 451.94,-72.94 462.49,-73.99 460.84,-67.18"/>
</g>
<!-- Node12&#45;&gt;Node6 -->
<g id="edge14" class="edge">
<title>Node12&#45;&gt;Node6</title>
<path fill="none" stroke="midnightblue" d="M838.43,-139.37C949.62,-133.74 1132.9,-121.05 1153.5,-98 1188.97,-58.31 1109.34,-35.93 1048.25,-25.03"/>
<polygon fill="midnightblue" stroke="midnightblue" points="838.04,-135.89 828.23,-139.88 838.39,-142.88 838.04,-135.89"/>
</g>
<!-- Node12&#45;&gt;Node7 -->
<g id="edge15" class="edge">
<title>Node12&#45;&gt;Node7</title>
<path fill="none" stroke="midnightblue" d="M695.09,-132.69C629.86,-121.17 525.46,-102.74 464.69,-92.01"/>
<polygon fill="midnightblue" stroke="midnightblue" points="694.76,-136.18 705.22,-134.48 695.98,-129.29 694.76,-136.18"/>
</g>
<!-- Node12&#45;&gt;Node12 -->
<g id="edge16" class="edge">
<title>Node12&#45;&gt;Node12</title>
<path fill="none" stroke="midnightblue" d="M802.93,-154.29C825.91,-155.42 846,-151.99 846,-144 846,-134.87 819.76,-131.69 792.95,-134.47"/>
<polygon fill="midnightblue" stroke="midnightblue" points="803.19,-150.8 792.95,-153.53 802.65,-157.78 803.19,-150.8"/>
</g>
<!-- Node13 -->
<g id="node13" class="node">
<title>Node13</title>
<g id="a_node13"><a xlink:href="color_8h.html" target="_top" xlink:title="Defines symbols for common SDL color values.">
<polygon fill="white" stroke="black" points="1007,-67.5 1007,-97.5 1144,-97.5 1144,-67.5 1007,-67.5"/>
<text text-anchor="start" x="1015" y="-85.5" font-family="Fira Code" font-size="10.00">src/include/lmda/sdl</text>
<text text-anchor="middle" x="1075.5" y="-74.5" font-family="Fira Code" font-size="10.00">/color.h</text>
</a>
</g>
</g>
<!-- Node12&#45;&gt;Node13 -->
<g id="edge17" class="edge">
<title>Node12&#45;&gt;Node13</title>
<path fill="none" stroke="midnightblue" d="M803.85,-132.51C851.67,-123.44 925.33,-109.93 989.5,-98 995.12,-96.96 1000.96,-95.86 1006.85,-94.77"/>
<polygon fill="midnightblue" stroke="midnightblue" points="802.93,-129.13 793.76,-134.44 804.24,-136 802.93,-129.13"/>
</g>
<!-- Node14 -->
<g id="node14" class="node">
<title>Node14</title>
<g id="a_node14"><a xlink:href="event__type__name_8h.html" target="_top" xlink:title=" ">
<polygon fill="white" stroke="black" points="852,-67.5 852,-97.5 989,-97.5 989,-67.5 852,-67.5"/>
<text text-anchor="start" x="860" y="-85.5" font-family="Fira Code" font-size="10.00">src/include/lmda/sdl</text>
<text text-anchor="middle" x="920.5" y="-74.5" font-family="Fira Code" font-size="10.00">/event_type_name.h</text>
</a>
</g>
</g>
<!-- Node12&#45;&gt;Node14 -->
<g id="edge19" class="edge">
<title>Node12&#45;&gt;Node14</title>
<path fill="none" stroke="midnightblue" d="M786.89,-131.1C814.06,-121.42 852.47,-107.74 881.14,-97.52"/>
<polygon fill="midnightblue" stroke="midnightblue" points="785.67,-127.82 777.43,-134.48 788.02,-134.42 785.67,-127.82"/>
</g>
<!-- Node15 -->
<g id="node15" class="node">
<title>Node15</title>
<g id="a_node15"><a xlink:href="ttf_8h.html" target="_top" xlink:title=" ">
<polygon fill="white" stroke="black" points="518,-67.5 518,-97.5 655,-97.5 655,-67.5 518,-67.5"/>
<text text-anchor="start" x="526" y="-85.5" font-family="Fira Code" font-size="10.00">src/include/lmda/sdl</text>
<text text-anchor="middle" x="586.5" y="-74.5" font-family="Fira Code" font-size="10.00">/ttf.h</text>
</a>
</g>
</g>
<!-- Node12&#45;&gt;Node15 -->
<g id="edge21" class="edge">
<title>Node12&#45;&gt;Node15</title>
<path fill="none" stroke="midnightblue" d="M714.96,-131.23C686.22,-121.54 647.49,-107.78 620.03,-97.52"/>
<polygon fill="midnightblue" stroke="midnightblue" points="714.08,-134.63 724.67,-134.48 716.3,-127.99 714.08,-134.63"/>
</g>
<!-- Node17 -->
<g id="node17" class="node">
<title>Node17</title>
<g id="a_node17"><a xlink:href="fs_8c.html" target="_top" xlink:title="Platform&#45;independent filesystem operations.">
<polygon fill="white" stroke="black" points="673,-73 673,-92 834,-92 834,-73 673,-73"/>
<text text-anchor="middle" x="753.5" y="-80" font-family="Fira Code" font-size="10.00">src/platform/common/fs.c</text>
</a>
</g>
</g>
<!-- Node12&#45;&gt;Node17 -->
<g id="edge25" class="edge">
<title>Node12&#45;&gt;Node17</title>
<path fill="none" stroke="midnightblue" d="M753.5,-124.32C753.5,-113.5 753.5,-100.4 753.5,-92.01"/>
<polygon fill="midnightblue" stroke="midnightblue" points="750,-124.48 753.5,-134.48 757,-124.48 750,-124.48"/>
</g>
<!-- Node13&#45;&gt;Node12 -->
<g id="edge18" class="edge">
<title>Node13&#45;&gt;Node12</title>
<path fill="none" stroke="midnightblue" d="M999.84,-99.42C931.2,-112.17 856.39,-125.85 807.2,-134.44"/>
<polygon fill="midnightblue" stroke="midnightblue" points="1000.73,-102.82 1009.92,-97.55 999.45,-95.94 1000.73,-102.82"/>
</g>
<!-- Node14&#45;&gt;Node6 -->
<g id="edge20" class="edge">
<title>Node14&#45;&gt;Node6</title>
<path fill="none" stroke="midnightblue" d="M941.99,-60.34C954.11,-48.4 968.59,-34.14 977.67,-25.19"/>
<polygon fill="midnightblue" stroke="midnightblue" points="939.49,-57.89 934.82,-67.4 944.4,-62.87 939.49,-57.89"/>
</g>
<!-- Node15&#45;&gt;Node6 -->
<g id="edge22" class="edge">
<title>Node15&#45;&gt;Node6</title>
<path fill="none" stroke="midnightblue" d="M665.38,-66.9C777.4,-48.77 807.61,-49.74 915.5,-31 925.66,-29.23 936.6,-27.11 946.77,-25.04"/>
<polygon fill="midnightblue" stroke="midnightblue" points="664.68,-63.47 655.38,-68.54 665.81,-70.38 664.68,-63.47"/>
</g>
<!-- Node15&#45;&gt;Node12 -->
<g id="edge24" class="edge">
<title>Node15&#45;&gt;Node12</title>
<path fill="none" stroke="midnightblue" d="M641.41,-100.86C673.47,-111.91 711.86,-125.74 734.47,-134.48"/>
<polygon fill="midnightblue" stroke="midnightblue" points="642.28,-97.45 631.69,-97.52 640.01,-104.08 642.28,-97.45"/>
</g>
<!-- Node16 -->
<g id="node16" class="node">
<title>Node16</title>
<g id="a_node16"><a xlink:href="ttf_8c.html" target="_top" xlink:title="Rendering text in truetype fonts.">
<polygon fill="white" stroke="black" points="781,-6 781,-25 906,-25 906,-6 781,-6"/>
<text text-anchor="middle" x="843.5" y="-13" font-family="Fira Code" font-size="10.00">src/game/sdl/ttf.c</text>
</a>
</g>
</g>
<!-- Node15&#45;&gt;Node16 -->
<g id="edge23" class="edge">
<title>Node15&#45;&gt;Node16</title>
<path fill="none" stroke="midnightblue" d="M651.78,-64.99C702.14,-52.25 769.77,-35.15 809.78,-25.03"/>
<polygon fill="midnightblue" stroke="midnightblue" points="650.79,-61.63 641.95,-67.48 652.5,-68.42 650.79,-61.63"/>
</g>
</g>
</svg>
