<?xml version="1.0" encoding="UTF-8" standalone="no"?>
<!DOCTYPE svg PUBLIC "-//W3C//DTD SVG 1.1//EN"
 "http://www.w3.org/Graphics/SVG/1.1/DTD/svg11.dtd">
<!-- Generated by graphviz version 3.0.0 (20220226.1711)
 -->
<!-- Title: src/include/lmda/log.h Pages: 1 -->
<!--zoomable 162 -->
<svg id="main" version="1.1" xmlns="http://www.w3.org/2000/svg" xmlns:xlink="http://www.w3.org/1999/xlink" xml:space="preserve" onload="init(evt)">
<style type="text/css"><![CDATA[
.edge:hover path { stroke: red; }
.edge:hover polygon { stroke: red; fill: red; }
]]></style>
<script type="text/javascript"><![CDATA[
var edges = document.getElementsByTagName('g');
if (edges && edges.length) {
  for (var i=0;i<edges.length;i++) {
    if (edges[i].id.substr(0,4)=='edge') {
      edges[i].setAttribute('class','edge');
    }
  }
}
]]></script>
        <defs>
                <circle id="rim" cx="0" cy="0" r="7"/>
                <circle id="rim2" cx="0" cy="0" r="3.5"/>
                <g id="zoomPlus">
                        <use xlink:href="#rim" fill="#404040">
                                <set attributeName="fill" to="#808080" begin="zoomplus.mouseover" end="zoomplus.mouseout"/>
                        </use>
                        <path d="M-4,0h8M0,-4v8" fill="none" stroke="white" stroke-width="1.5" pointer-events="none"/>
                </g>
                <g id="zoomMin">
                        <use xlink:href="#rim" fill="#404040">
                                <set attributeName="fill" to="#808080" begin="zoomminus.mouseover" end="zoomminus.mouseout"/>
                        </use>
                        <path d="M-4,0h8" fill="none" stroke="white" stroke-width="1.5" pointer-events="none"/>
                </g>
                <g id="dirArrow">
                        <path fill="none" stroke="white" stroke-width="1.5" d="M0,-3.0v7 M-2.5,-0.5L0,-3.0L2.5,-0.5"/>
                </g>
               <g id="resetDef">
                       <use xlink:href="#rim2" fill="#404040">
                               <set attributeName="fill" to="#808080" begin="reset.mouseover" end="reset.mouseout"/>
                       </use>
               </g>
        </defs>

<script type="text/javascript">
var viewWidth = 1498;
var viewHeight = 162;
var sectionId = 'dynsection-0';
</script>
<script xlink:href="svgpan.js"/>
<svg id="graph" class="graph">
<g id="viewport">
<title>src/include/lmda/log.h</title>
<polygon fill="white" stroke="transparent" points="-4,4 -4,-158 1494,-158 1494,4 -4,4"/>
<!-- Node1 -->
<g id="node1" class="node">
<title>Node1</title>
<g id="a_node1"><a xlink:title=" ">
<polygon fill="#bfbfbf" stroke="black" points="535,-134.5 535,-153.5 684,-153.5 684,-134.5 535,-134.5"/>
<text text-anchor="middle" x="609.5" y="-141.5" font-family="Fira Code" font-size="10.00">src/include/lmda/log.h</text>
</a>
</g>
</g>
<!-- Node2 -->
<g id="node2" class="node">
<title>Node2</title>
<g id="a_node2"><a xlink:href="main_8c.html" target="_top" xlink:title="Entrypoint to game application (i.e. game plugin host).">
<polygon fill="white" stroke="black" points="0,-6 0,-25 101,-25 101,-6 0,-6"/>
<text text-anchor="middle" x="50.5" y="-13" font-family="Fira Code" font-size="10.00">src/app/main.c</text>
</a>
</g>
</g>
<!-- Node1&#45;&gt;Node2 -->
<g id="edge1" class="edge">
<title>Node1&#45;&gt;Node2</title>
<path fill="none" stroke="midnightblue" d="M524.39,-138.13C452.18,-132.59 346.32,-121.1 256.5,-98 184.05,-79.36 102.78,-42 67.91,-25.12"/>
<polygon fill="midnightblue" stroke="midnightblue" points="524.56,-141.65 534.79,-138.91 525.08,-134.67 524.56,-141.65"/>
</g>
<!-- Node3 -->
<g id="node3" class="node">
<title>Node3</title>
<g id="a_node3"><a xlink:href="game__plugin_8c.html" target="_top" xlink:title="The game plugin itself; implements the plugin interface to run the game.">
<polygon fill="white" stroke="black" points="119,-6 119,-25 268,-25 268,-6 119,-6"/>
<text text-anchor="middle" x="193.5" y="-13" font-family="Fira Code" font-size="10.00">src/game/game_plugin.c</text>
</a>
</g>
</g>
<!-- Node1&#45;&gt;Node3 -->
<g id="edge2" class="edge">
<title>Node1&#45;&gt;Node3</title>
<path fill="none" stroke="midnightblue" d="M524.83,-139.5C465.19,-134.77 384.37,-123.72 317.5,-98 270.61,-79.97 223.21,-42.12 203.28,-25.11"/>
<polygon fill="midnightblue" stroke="midnightblue" points="524.73,-143 534.97,-140.26 525.25,-136.02 524.73,-143"/>
</g>
<!-- Node4 -->
<g id="node4" class="node">
<title>Node4</title>
<g id="a_node4"><a xlink:href="input_8c.html" target="_top" xlink:title="High&#45;level operations for managing input state and bindings.">
<polygon fill="white" stroke="black" points="638,-73 638,-92 751,-92 751,-73 638,-73"/>
<text text-anchor="middle" x="694.5" y="-80" font-family="Fira Code" font-size="10.00">src/game/input.c</text>
</a>
</g>
</g>
<!-- Node1&#45;&gt;Node4 -->
<g id="edge3" class="edge">
<title>Node1&#45;&gt;Node4</title>
<path fill="none" stroke="midnightblue" d="M630.05,-128.61C646.4,-117.17 668.72,-101.55 682.34,-92.01"/>
<polygon fill="midnightblue" stroke="midnightblue" points="627.86,-125.87 621.68,-134.48 631.88,-131.61 627.86,-125.87"/>
</g>
<!-- Node5 -->
<g id="node5" class="node">
<title>Node5</title>
<g id="a_node5"><a xlink:href="log_8c.html" target="_top" xlink:title="Write log messages to the console and to a file.">
<polygon fill="white" stroke="black" points="769,-73 769,-92 870,-92 870,-73 769,-73"/>
<text text-anchor="middle" x="819.5" y="-80" font-family="Fira Code" font-size="10.00">src/game/log.c</text>
</a>
</g>
</g>
<!-- Node1&#45;&gt;Node5 -->
<g id="edge4" class="edge">
<title>Node1&#45;&gt;Node5</title>
<path fill="none" stroke="midnightblue" d="M649.47,-131.68C690.27,-120.11 752.69,-102.43 789.47,-92.01"/>
<polygon fill="midnightblue" stroke="midnightblue" points="648.26,-128.38 639.59,-134.48 650.16,-135.12 648.26,-128.38"/>
</g>
<!-- Node6 -->
<g id="node6" class="node">
<title>Node6</title>
<g id="a_node6"><a xlink:href="sdl_8c.html" target="_top" xlink:title="High&#45;level SDL operations, e.g. opening a window.">
<polygon fill="white" stroke="black" points="286,-6 286,-25 411,-25 411,-6 286,-6"/>
<text text-anchor="middle" x="348.5" y="-13" font-family="Fira Code" font-size="10.00">src/game/sdl/sdl.c</text>
</a>
</g>
</g>
<!-- Node1&#45;&gt;Node6 -->
<g id="edge5" class="edge">
<title>Node1&#45;&gt;Node6</title>
<path fill="none" stroke="midnightblue" d="M524.68,-141.13C451.37,-137.51 353.37,-127.17 328.5,-98 310.35,-76.71 330.68,-41.51 341.97,-25.24"/>
<polygon fill="midnightblue" stroke="midnightblue" points="524.7,-144.64 534.85,-141.6 525.02,-137.65 524.7,-144.64"/>
</g>
<!-- Node7 -->
<g id="node7" class="node">
<title>Node7</title>
<g id="a_node7"><a xlink:href="ttf_8c.html" target="_top" xlink:title="Rendering text in truetype fonts.">
<polygon fill="white" stroke="black" points="888,-73 888,-92 1013,-92 1013,-73 888,-73"/>
<text text-anchor="middle" x="950.5" y="-80" font-family="Fira Code" font-size="10.00">src/game/sdl/ttf.c</text>
</a>
</g>
</g>
<!-- Node1&#45;&gt;Node7 -->
<g id="edge6" class="edge">
<title>Node1&#45;&gt;Node7</title>
<path fill="none" stroke="midnightblue" d="M674.08,-132.91C728.85,-124.2 809.45,-110.99 879.5,-98 889.4,-96.17 900.04,-94.06 910,-92.04"/>
<polygon fill="midnightblue" stroke="midnightblue" points="673.49,-129.46 664.16,-134.49 674.58,-136.38 673.49,-129.46"/>
</g>
<!-- Node8 -->
<g id="node8" class="node">
<title>Node8</title>
<g id="a_node8"><a xlink:href="plugin_8h.html" target="_top" xlink:title="Declares the interface to the game library; implementing that interface defines a game plugin.">
<polygon fill="white" stroke="black" points="338,-73 338,-92 505,-92 505,-73 338,-73"/>
<text text-anchor="middle" x="421.5" y="-80" font-family="Fira Code" font-size="10.00">src/include/lmda/plugin.h</text>
</a>
</g>
</g>
<!-- Node1&#45;&gt;Node8 -->
<g id="edge7" class="edge">
<title>Node1&#45;&gt;Node8</title>
<path fill="none" stroke="midnightblue" d="M572.79,-131.38C536.24,-119.82 481.03,-102.34 448.39,-92.01"/>
<polygon fill="midnightblue" stroke="midnightblue" points="571.97,-134.79 582.56,-134.48 574.09,-128.12 571.97,-134.79"/>
</g>
<!-- Node9 -->
<g id="node9" class="node">
<title>Node9</title>
<g id="a_node9"><a xlink:href="plugin_8c.html" target="_top" xlink:title="Platform&#45;independent plugin loading operations.">
<polygon fill="white" stroke="black" points="429,-0.5 429,-30.5 560,-30.5 560,-0.5 429,-0.5"/>
<text text-anchor="start" x="437" y="-18.5" font-family="Fira Code" font-size="10.00">src/platform/common</text>
<text text-anchor="middle" x="494.5" y="-7.5" font-family="Fira Code" font-size="10.00">/plugin.c</text>
</a>
</g>
</g>
<!-- Node1&#45;&gt;Node9 -->
<g id="edge15" class="edge">
<title>Node1&#45;&gt;Node9</title>
<path fill="none" stroke="midnightblue" d="M594.76,-126.78C572.12,-101.89 529.17,-54.64 507.58,-30.89"/>
<polygon fill="midnightblue" stroke="midnightblue" points="592.28,-129.26 601.6,-134.31 597.46,-124.55 592.28,-129.26"/>
</g>
<!-- Node10 -->
<g id="node10" class="node">
<title>Node10</title>
<g id="a_node10"><a xlink:href="plugin__mac_8c.html" target="_top" xlink:title="Plugin loading on MacOS.">
<polygon fill="white" stroke="black" points="578,-0.5 578,-30.5 733,-30.5 733,-0.5 578,-0.5"/>
<text text-anchor="start" x="586" y="-18.5" font-family="Fira Code" font-size="10.00">src/platform/mac/plugin</text>
<text text-anchor="middle" x="655.5" y="-7.5" font-family="Fira Code" font-size="10.00">_mac.c</text>
</a>
</g>
</g>
<!-- Node1&#45;&gt;Node10 -->
<g id="edge17" class="edge">
<title>Node1&#45;&gt;Node10</title>
<path fill="none" stroke="midnightblue" d="M600.26,-124.9C593.49,-108.99 586.86,-85.56 595.5,-67 602.68,-51.57 617.15,-39.17 630.09,-30.52"/>
<polygon fill="midnightblue" stroke="midnightblue" points="597.17,-126.55 604.57,-134.14 603.52,-123.59 597.17,-126.55"/>
</g>
<!-- Node11 -->
<g id="node11" class="node">
<title>Node11</title>
<g id="a_node11"><a xlink:href="timing__mac_8c.html" target="_top" xlink:title="High&#45;resolution timing on MacOS.">
<polygon fill="white" stroke="black" points="751,-0.5 751,-30.5 906,-30.5 906,-0.5 751,-0.5"/>
<text text-anchor="start" x="759" y="-18.5" font-family="Fira Code" font-size="10.00">src/platform/mac/timing</text>
<text text-anchor="middle" x="828.5" y="-7.5" font-family="Fira Code" font-size="10.00">_mac.c</text>
</a>
</g>
</g>
<!-- Node1&#45;&gt;Node11 -->
<g id="edge18" class="edge">
<title>Node1&#45;&gt;Node11</title>
<path fill="none" stroke="midnightblue" d="M609.37,-123.86C610.31,-106.67 614.46,-81.91 629.5,-67 638.98,-57.61 705.46,-41.92 759.01,-30.52"/>
<polygon fill="midnightblue" stroke="midnightblue" points="605.86,-124.26 609.13,-134.34 612.85,-124.42 605.86,-124.26"/>
</g>
<!-- Node12 -->
<g id="node12" class="node">
<title>Node12</title>
<g id="a_node12"><a xlink:href="fs_8c.html" target="_top" xlink:title="Platform&#45;independent filesystem operations.">
<polygon fill="white" stroke="black" points="1031,-73 1031,-92 1192,-92 1192,-73 1031,-73"/>
<text text-anchor="middle" x="1111.5" y="-80" font-family="Fira Code" font-size="10.00">src/platform/common/fs.c</text>
</a>
</g>
</g>
<!-- Node1&#45;&gt;Node12 -->
<g id="edge14" class="edge">
<title>Node1&#45;&gt;Node12</title>
<path fill="none" stroke="midnightblue" d="M694.46,-135.07C778.07,-126.95 909.3,-113.38 1022.5,-98 1035.38,-96.25 1049.26,-94.11 1062.14,-92.02"/>
<polygon fill="midnightblue" stroke="midnightblue" points="693.87,-131.61 684.25,-136.06 694.55,-138.58 693.87,-131.61"/>
</g>
<!-- Node13 -->
<g id="node13" class="node">
<title>Node13</title>
<g id="a_node13"><a xlink:href="timing_8c.html" target="_top" xlink:title="Platform&#45;independent timing operations.">
<polygon fill="white" stroke="black" points="1210,-67.5 1210,-97.5 1341,-97.5 1341,-67.5 1210,-67.5"/>
<text text-anchor="start" x="1218" y="-85.5" font-family="Fira Code" font-size="10.00">src/platform/common</text>
<text text-anchor="middle" x="1275.5" y="-74.5" font-family="Fira Code" font-size="10.00">/timing.c</text>
</a>
</g>
</g>
<!-- Node1&#45;&gt;Node13 -->
<g id="edge16" class="edge">
<title>Node1&#45;&gt;Node13</title>
<path fill="none" stroke="midnightblue" d="M694.26,-139.69C809.48,-134.49 1021.79,-122.35 1201.5,-98 1204.22,-97.63 1207,-97.22 1209.8,-96.79"/>
<polygon fill="midnightblue" stroke="midnightblue" points="693.93,-136.21 684.09,-140.15 694.24,-143.2 693.93,-136.21"/>
</g>
<!-- Node14 -->
<g id="node14" class="node">
<title>Node14</title>
<g id="a_node14"><a xlink:href="fs__win_8c.html" target="_top" xlink:title="Filesystem operations on Windows.">
<polygon fill="white" stroke="black" points="1359,-67.5 1359,-97.5 1490,-97.5 1490,-67.5 1359,-67.5"/>
<text text-anchor="start" x="1367" y="-85.5" font-family="Fira Code" font-size="10.00">src/platform/win/fs</text>
<text text-anchor="middle" x="1424.5" y="-74.5" font-family="Fira Code" font-size="10.00">_win.c</text>
</a>
</g>
</g>
<!-- Node1&#45;&gt;Node14 -->
<g id="edge19" class="edge">
<title>Node1&#45;&gt;Node14</title>
<path fill="none" stroke="midnightblue" d="M694.31,-141.51C832.35,-138.26 1114,-128.22 1350.5,-98 1353.23,-97.65 1356,-97.26 1358.81,-96.84"/>
<polygon fill="midnightblue" stroke="midnightblue" points="694.14,-138.01 684.22,-141.74 694.3,-145.01 694.14,-138.01"/>
</g>
<!-- Node8&#45;&gt;Node2 -->
<g id="edge8" class="edge">
<title>Node8&#45;&gt;Node2</title>
<path fill="none" stroke="midnightblue" d="M349.76,-71.57C286.33,-62.38 191.42,-47.67 109.5,-31 100.92,-29.25 91.7,-27.12 83.16,-25.02"/>
<polygon fill="midnightblue" stroke="midnightblue" points="349.27,-75.03 359.67,-72.99 350.27,-68.1 349.27,-75.03"/>
</g>
<!-- Node8&#45;&gt;Node3 -->
<g id="edge9" class="edge">
<title>Node8&#45;&gt;Node3</title>
<path fill="none" stroke="midnightblue" d="M381.48,-70.09C336.38,-57.23 264.07,-36.62 223.54,-25.06"/>
<polygon fill="midnightblue" stroke="midnightblue" points="380.65,-73.49 391.22,-72.87 382.57,-66.76 380.65,-73.49"/>
</g>
<!-- Node8&#45;&gt;Node6 -->
<g id="edge10" class="edge">
<title>Node8&#45;&gt;Node6</title>
<path fill="none" stroke="midnightblue" d="M403.93,-65.86C389.58,-53.08 369.83,-35.49 358.19,-25.13"/>
<polygon fill="midnightblue" stroke="midnightblue" points="401.86,-68.7 411.65,-72.73 406.51,-63.47 401.86,-68.7"/>
</g>
<!-- Node8&#45;&gt;Node9 -->
<g id="edge11" class="edge">
<title>Node8&#45;&gt;Node9</title>
<path fill="none" stroke="midnightblue" d="M438.99,-65.93C451.06,-55.18 466.98,-41 478.68,-30.59"/>
<polygon fill="midnightblue" stroke="midnightblue" points="436.49,-63.47 431.35,-72.73 441.14,-68.7 436.49,-63.47"/>
</g>
<!-- Node8&#45;&gt;Node10 -->
<g id="edge12" class="edge">
<title>Node8&#45;&gt;Node10</title>
<path fill="none" stroke="midnightblue" d="M462.44,-70.13C502.11,-59.11 562.37,-42.37 605,-30.53"/>
<polygon fill="midnightblue" stroke="midnightblue" points="461.27,-66.82 452.57,-72.87 463.15,-73.56 461.27,-66.82"/>
</g>
<!-- Node8&#45;&gt;Node11 -->
<g id="edge13" class="edge">
<title>Node8&#45;&gt;Node11</title>
<path fill="none" stroke="midnightblue" d="M487,-71.41C551.89,-61.36 654.1,-45.4 742.5,-31 745.19,-30.56 747.93,-30.11 750.69,-29.66"/>
<polygon fill="midnightblue" stroke="midnightblue" points="486.26,-67.98 476.91,-72.97 487.33,-74.9 486.26,-67.98"/>
</g>
</g>
</svg>
        <g id="navigator" transform="translate(0 0)" fill="#404254">
                <rect fill="#f2f5e9" fill-opacity="0.5" stroke="#606060" stroke-width=".5" x="0" y="0" width="60" height="60"/>
                <use id="zoomplus" xlink:href="#zoomPlus" x="17" y="9" onmousedown="handleZoom(evt,'in')"/>
                <use id="zoomminus" xlink:href="#zoomMin" x="42" y="9" onmousedown="handleZoom(evt,'out')"/>
                <use id="reset" xlink:href="#resetDef" x="30" y="36" onmousedown="handleReset()"/>
                <g id="arrowUp" xlink:href="#dirArrow" transform="translate(30 24)" onmousedown="handlePan(0,-1)">
                  <use xlink:href="#rim" fill="#404040">
                        <set attributeName="fill" to="#808080" begin="arrowUp.mouseover" end="arrowUp.mouseout"/>
                  </use>
                  <path fill="none" stroke="white" stroke-width="1.5" d="M0,-3.0v7 M-2.5,-0.5L0,-3.0L2.5,-0.5"/>
                </g>
                <g id="arrowRight" xlink:href="#dirArrow" transform="rotate(90) translate(36 -43)" onmousedown="handlePan(1,0)">
                  <use xlink:href="#rim" fill="#404040">
                        <set attributeName="fill" to="#808080" begin="arrowRight.mouseover" end="arrowRight.mouseout"/>
                  </use>
                  <path fill="none" stroke="white" stroke-width="1.5" d="M0,-3.0v7 M-2.5,-0.5L0,-3.0L2.5,-0.5"/>
                </g>
                <g id="arrowDown" xlink:href="#dirArrow" transform="rotate(180) translate(-30 -48)" onmousedown="handlePan(0,1)">
                  <use xlink:href="#rim" fill="#404040">
                        <set attributeName="fill" to="#808080" begin="arrowDown.mouseover" end="arrowDown.mouseout"/>
                  </use>
                  <path fill="none" stroke="white" stroke-width="1.5" d="M0,-3.0v7 M-2.5,-0.5L0,-3.0L2.5,-0.5"/>
                </g>
                <g id="arrowLeft" xlink:href="#dirArrow" transform="rotate(270) translate(-36 17)" onmousedown="handlePan(-1,0)">
                  <use xlink:href="#rim" fill="#404040">
                        <set attributeName="fill" to="#808080" begin="arrowLeft.mouseover" end="arrowLeft.mouseout"/>
                  </use>
                  <path fill="none" stroke="white" stroke-width="1.5" d="M0,-3.0v7 M-2.5,-0.5L0,-3.0L2.5,-0.5"/>
                </g>
        </g>
        <svg viewBox="0 0 15 15" width="100%" height="30px" preserveAspectRatio="xMaxYMin meet">
         <g id="arrow_out" transform="scale(0.3 0.3)">
          <a xlink:href="log_8h__dep__incl_org.svg" target="_base">
           <rect id="button" ry="5" rx="5" y="6" x="6" height="38" width="38"
                fill="#f2f5e9" fill-opacity="0.5" stroke="#606060" stroke-width="1.0"/>
           <path id="arrow"
             d="M 11.500037,31.436501 C 11.940474,20.09759 22.043105,11.32322 32.158766,21.979434 L 37.068811,17.246167 C 37.068811,17.246167 37.088388,32 37.088388,32 L 22.160133,31.978069 C 22.160133,31.978069 26.997745,27.140456 26.997745,27.140456 C 18.528582,18.264221 13.291696,25.230495 11.500037,31.436501 z"
             style="fill:#404040;"/>
          </a>
         </g>
        </svg>
</svg>
