<?xml version="1.0" encoding="UTF-8" standalone="no"?>
<!DOCTYPE svg PUBLIC "-//W3C//DTD SVG 1.1//EN"
 "http://www.w3.org/Graphics/SVG/1.1/DTD/svg11.dtd">
<!-- Generated by graphviz version 3.0.0 (20220226.1711)
 -->
<!-- Title: src/app/main.c Pages: 1 -->
<svg width="729pt" height="252pt"
 viewBox="0.00 0.00 729.00 252.00" xmlns="http://www.w3.org/2000/svg" xmlns:xlink="http://www.w3.org/1999/xlink">
<g id="graph0" class="graph" transform="scale(1 1) rotate(0) translate(4 248)">
<title>src/app/main.c</title>
<polygon fill="white" stroke="transparent" points="-4,4 -4,-248 725,-248 725,4 -4,4"/>
<!-- Node1 -->
<g id="node1" class="node">
<title>Node1</title>
<g id="a_node1"><a xlink:title="Entrypoint to game application (i.e. game plugin host).">
<polygon fill="#bfbfbf" stroke="black" points="111,-224.5 111,-243.5 212,-243.5 212,-224.5 111,-224.5"/>
<text text-anchor="middle" x="161.5" y="-231.5" font-family="Fira Code" font-size="10.00">src/app/main.c</text>
</a>
</g>
</g>
<!-- Node2 -->
<g id="node2" class="node">
<title>Node2</title>
<g id="a_node2"><a xlink:href="input_8h.html" target="_top" xlink:title="The game&#39;s interface to the user input devices.">
<polygon fill="white" stroke="black" points="228,-56.5 228,-75.5 317,-75.5 317,-56.5 228,-56.5"/>
<text text-anchor="middle" x="272.5" y="-63.5" font-family="Fira Code" font-size="10.00">lmda/input.h</text>
</a>
</g>
</g>
<!-- Node1&#45;&gt;Node2 -->
<g id="edge1" class="edge">
<title>Node1&#45;&gt;Node2</title>
<path fill="none" stroke="midnightblue" d="M144.45,-224.42C107.48,-204.71 25.97,-154.63 60.5,-112 79.9,-88.05 161.27,-76.33 217.36,-70.99"/>
<polygon fill="midnightblue" stroke="midnightblue" points="217.88,-74.46 227.52,-70.06 217.25,-67.48 217.88,-74.46"/>
</g>
<!-- Node4 -->
<g id="node4" class="node">
<title>Node4</title>
<g id="a_node4"><a xlink:href="signal_8h.html" target="_top" xlink:title="Declares the types of signal transitions that may represent a state change.">
<polygon fill="white" stroke="black" points="0,-0.5 0,-19.5 95,-19.5 95,-0.5 0,-0.5"/>
<text text-anchor="middle" x="47.5" y="-7.5" font-family="Fira Code" font-size="10.00">lmda/signal.h</text>
</a>
</g>
</g>
<!-- Node1&#45;&gt;Node4 -->
<g id="edge24" class="edge">
<title>Node1&#45;&gt;Node4</title>
<path fill="none" stroke="midnightblue" d="M125.53,-224.36C104.95,-217.66 80.18,-206.34 64.5,-188 25.76,-142.69 35.79,-65.03 43.06,-29.6"/>
<polygon fill="midnightblue" stroke="midnightblue" points="46.51,-30.19 45.26,-19.67 39.68,-28.68 46.51,-30.19"/>
</g>
<!-- Node5 -->
<g id="node5" class="node">
<title>Node5</title>
<g id="a_node5"><a xlink:href="log_8h.html" target="_top" xlink:title=" ">
<polygon fill="white" stroke="black" points="189,-112.5 189,-131.5 266,-131.5 266,-112.5 189,-112.5"/>
<text text-anchor="middle" x="227.5" y="-119.5" font-family="Fira Code" font-size="10.00">lmda/log.h</text>
</a>
</g>
</g>
<!-- Node1&#45;&gt;Node5 -->
<g id="edge4" class="edge">
<title>Node1&#45;&gt;Node5</title>
<path fill="none" stroke="midnightblue" d="M181.81,-224.46C196.47,-217.11 215.25,-205 224.5,-188 232.18,-173.89 232.25,-155.4 230.8,-141.75"/>
<polygon fill="midnightblue" stroke="midnightblue" points="234.23,-141.03 229.36,-131.63 227.3,-142.02 234.23,-141.03"/>
</g>
<!-- Node6 -->
<g id="node6" class="node">
<title>Node6</title>
<g id="a_node6"><a xlink:href="platform_8h.html" target="_top" xlink:title="Declares generic platform initialization to allow platforms to do specialized setup (e....">
<polygon fill="white" stroke="black" points="108,-168.5 108,-187.5 215,-187.5 215,-168.5 108,-168.5"/>
<text text-anchor="middle" x="161.5" y="-175.5" font-family="Fira Code" font-size="10.00">lmda/platform.h</text>
</a>
</g>
</g>
<!-- Node1&#45;&gt;Node6 -->
<g id="edge5" class="edge">
<title>Node1&#45;&gt;Node6</title>
<path fill="none" stroke="midnightblue" d="M161.5,-224.08C161.5,-217.01 161.5,-206.86 161.5,-197.99"/>
<polygon fill="midnightblue" stroke="midnightblue" points="165,-197.75 161.5,-187.75 158,-197.75 165,-197.75"/>
</g>
<!-- Node7 -->
<g id="node7" class="node">
<title>Node7</title>
<g id="a_node7"><a xlink:href="version_8h.html" target="_top" xlink:title="Defines the build version; the build system labels output based on this.">
<polygon fill="white" stroke="black" points="70,-112.5 70,-131.5 171,-131.5 171,-112.5 70,-112.5"/>
<text text-anchor="middle" x="120.5" y="-119.5" font-family="Fira Code" font-size="10.00">lmda/version.h</text>
</a>
</g>
</g>
<!-- Node1&#45;&gt;Node7 -->
<g id="edge23" class="edge">
<title>Node1&#45;&gt;Node7</title>
<path fill="none" stroke="midnightblue" d="M140.65,-224.43C125.92,-217.13 107.3,-205.09 98.5,-188 90.53,-172.51 98.84,-153.5 107.44,-140.05"/>
<polygon fill="midnightblue" stroke="midnightblue" points="110.39,-141.95 113.24,-131.74 104.65,-137.94 110.39,-141.95"/>
</g>
<!-- Node8 -->
<g id="node8" class="node">
<title>Node8</title>
<g id="a_node8"><a xlink:href="plugin_8h.html" target="_top" xlink:title="Declares the interface to the game library; implementing that interface defines a game plugin.">
<polygon fill="white" stroke="black" points="367,-168.5 367,-187.5 462,-187.5 462,-168.5 367,-168.5"/>
<text text-anchor="middle" x="414.5" y="-175.5" font-family="Fira Code" font-size="10.00">lmda/plugin.h</text>
</a>
</g>
</g>
<!-- Node1&#45;&gt;Node8 -->
<g id="edge7" class="edge">
<title>Node1&#45;&gt;Node8</title>
<path fill="none" stroke="midnightblue" d="M201.59,-224.44C245.82,-215 317.04,-199.8 364.78,-189.61"/>
<polygon fill="midnightblue" stroke="midnightblue" points="365.55,-193.03 374.6,-187.52 364.09,-186.18 365.55,-193.03"/>
</g>
<!-- Node16 -->
<g id="node16" class="node">
<title>Node16</title>
<g id="a_node16"><a xlink:href="timing_8h.html" target="_top" xlink:title="Platform&#45;independent high&#45;resolution timing interface, for measurement and delays.">
<polygon fill="white" stroke="black" points="626,-112.5 626,-131.5 721,-131.5 721,-112.5 626,-112.5"/>
<text text-anchor="middle" x="673.5" y="-119.5" font-family="Fira Code" font-size="10.00">lmda/timing.h</text>
</a>
</g>
</g>
<!-- Node1&#45;&gt;Node16 -->
<g id="edge22" class="edge">
<title>Node1&#45;&gt;Node16</title>
<path fill="none" stroke="midnightblue" d="M212.18,-228.27C273.97,-221.91 381.3,-208.9 471.5,-188 532.74,-173.81 602.09,-149.65 641.53,-135.13"/>
<polygon fill="midnightblue" stroke="midnightblue" points="642.97,-138.33 651.13,-131.56 640.53,-131.76 642.97,-138.33"/>
</g>
<!-- Node3 -->
<g id="node3" class="node">
<title>Node3</title>
<g id="a_node3"><a xlink:href="keyboard_8h.html" target="_top" xlink:title="Defines symbols for SDL keyboard key identifiers.">
<polygon fill="white" stroke="black" points="201,-0.5 201,-19.5 344,-19.5 344,-0.5 201,-0.5"/>
<text text-anchor="middle" x="272.5" y="-7.5" font-family="Fira Code" font-size="10.00">lmda/input/keyboard.h</text>
</a>
</g>
</g>
<!-- Node2&#45;&gt;Node3 -->
<g id="edge2" class="edge">
<title>Node2&#45;&gt;Node3</title>
<path fill="none" stroke="midnightblue" d="M272.5,-56.08C272.5,-49.01 272.5,-38.86 272.5,-29.99"/>
<polygon fill="midnightblue" stroke="midnightblue" points="276,-29.75 272.5,-19.75 269,-29.75 276,-29.75"/>
</g>
<!-- Node2&#45;&gt;Node4 -->
<g id="edge3" class="edge">
<title>Node2&#45;&gt;Node4</title>
<path fill="none" stroke="midnightblue" d="M236.85,-56.44C197.84,-47.08 135.23,-32.06 92.78,-21.87"/>
<polygon fill="midnightblue" stroke="midnightblue" points="93.53,-18.45 82.99,-19.52 91.89,-25.25 93.53,-18.45"/>
</g>
<!-- Node6&#45;&gt;Node7 -->
<g id="edge6" class="edge">
<title>Node6&#45;&gt;Node7</title>
<path fill="none" stroke="midnightblue" d="M154.73,-168.08C148.94,-160.46 140.44,-149.26 133.36,-139.94"/>
<polygon fill="midnightblue" stroke="midnightblue" points="135.98,-137.6 127.14,-131.75 130.4,-141.83 135.98,-137.6"/>
</g>
<!-- Node8&#45;&gt;Node2 -->
<g id="edge10" class="edge">
<title>Node8&#45;&gt;Node2</title>
<path fill="none" stroke="midnightblue" d="M429.9,-168.35C450.17,-155.88 481.46,-132.11 465.5,-112 448.49,-90.57 378.12,-78.4 327.26,-72.25"/>
<polygon fill="midnightblue" stroke="midnightblue" points="327.39,-68.74 317.05,-71.07 326.58,-75.7 327.39,-68.74"/>
</g>
<!-- Node8&#45;&gt;Node5 -->
<g id="edge11" class="edge">
<title>Node8&#45;&gt;Node5</title>
<path fill="none" stroke="midnightblue" d="M384.87,-168.44C353,-159.24 302.17,-144.56 266.94,-134.39"/>
<polygon fill="midnightblue" stroke="midnightblue" points="267.57,-130.93 256.99,-131.52 265.63,-137.65 267.57,-130.93"/>
</g>
<!-- Node9 -->
<g id="node9" class="node">
<title>Node9</title>
<g id="a_node9"><a xlink:href="fs_8h.html" target="_top" xlink:title="Declares the game&#39;s interface to the platform filesystem.">
<polygon fill="white" stroke="black" points="284,-112.5 284,-131.5 355,-131.5 355,-112.5 284,-112.5"/>
<text text-anchor="middle" x="319.5" y="-119.5" font-family="Fira Code" font-size="10.00">lmda/fs.h</text>
</a>
</g>
</g>
<!-- Node8&#45;&gt;Node9 -->
<g id="edge8" class="edge">
<title>Node8&#45;&gt;Node9</title>
<path fill="none" stroke="midnightblue" d="M399.24,-168.32C384.28,-159.82 361.25,-146.73 343.77,-136.8"/>
<polygon fill="midnightblue" stroke="midnightblue" points="345.15,-133.55 334.73,-131.65 341.69,-139.64 345.15,-133.55"/>
</g>
<!-- Node10 -->
<g id="node10" class="node">
<title>Node10</title>
<g id="a_node10"><a xlink:href="game_8h.html" target="_top" xlink:title="Declares the highest&#45;level game state and evolution operations.">
<polygon fill="white" stroke="black" points="373,-112.5 373,-131.5 456,-131.5 456,-112.5 373,-112.5"/>
<text text-anchor="middle" x="414.5" y="-119.5" font-family="Fira Code" font-size="10.00">lmda/game.h</text>
</a>
</g>
</g>
<!-- Node8&#45;&gt;Node10 -->
<g id="edge9" class="edge">
<title>Node8&#45;&gt;Node10</title>
<path fill="none" stroke="midnightblue" d="M414.5,-168.08C414.5,-161.01 414.5,-150.86 414.5,-141.99"/>
<polygon fill="midnightblue" stroke="midnightblue" points="418,-141.75 414.5,-131.75 411,-141.75 418,-141.75"/>
</g>
<!-- Node11 -->
<g id="node11" class="node">
<title>Node11</title>
<g id="a_node11"><a xlink:href="sdl_8h.html" target="_top" xlink:title="Interface to the SDL subsystems (rendering, image loading, sound, etc).">
<polygon fill="white" stroke="black" points="513,-112.5 513,-131.5 590,-131.5 590,-112.5 513,-112.5"/>
<text text-anchor="middle" x="551.5" y="-119.5" font-family="Fira Code" font-size="10.00">lmda/sdl.h</text>
</a>
</g>
</g>
<!-- Node8&#45;&gt;Node11 -->
<g id="edge12" class="edge">
<title>Node8&#45;&gt;Node11</title>
<path fill="none" stroke="midnightblue" d="M436.21,-168.44C458.85,-159.52 494.57,-145.44 520.25,-135.32"/>
<polygon fill="midnightblue" stroke="midnightblue" points="521.87,-138.44 529.89,-131.52 519.31,-131.93 521.87,-138.44"/>
</g>
<!-- Node8&#45;&gt;Node16 -->
<g id="edge21" class="edge">
<title>Node8&#45;&gt;Node16</title>
<path fill="none" stroke="midnightblue" d="M455.54,-168.44C500.82,-159 573.73,-143.8 622.61,-133.61"/>
<polygon fill="midnightblue" stroke="midnightblue" points="623.58,-136.98 632.65,-131.52 622.15,-130.13 623.58,-136.98"/>
</g>
<!-- Node11&#45;&gt;Node2 -->
<g id="edge18" class="edge">
<title>Node11&#45;&gt;Node2</title>
<path fill="none" stroke="midnightblue" d="M513,-113.55C464.59,-104.18 381.2,-88.04 326.45,-77.44"/>
<polygon fill="midnightblue" stroke="midnightblue" points="327.06,-74 316.58,-75.53 325.73,-80.87 327.06,-74"/>
</g>
<!-- Node11&#45;&gt;Node11 -->
<g id="edge19" class="edge">
<title>Node11&#45;&gt;Node11</title>
<path fill="none" stroke="midnightblue" d="M575.6,-131.53C591.97,-134.31 608,-131.13 608,-122 608,-114.79 598.02,-111.3 585.77,-111.51"/>
<polygon fill="midnightblue" stroke="midnightblue" points="585.22,-108.04 575.6,-112.47 585.88,-115.01 585.22,-108.04"/>
</g>
<!-- Node12 -->
<g id="node12" class="node">
<title>Node12</title>
<g id="a_node12"><a xlink:href="color_8h.html" target="_top" xlink:title="Defines symbols for common SDL color values.">
<polygon fill="white" stroke="black" points="379,-56.5 379,-75.5 492,-75.5 492,-56.5 379,-56.5"/>
<text text-anchor="middle" x="435.5" y="-63.5" font-family="Fira Code" font-size="10.00">lmda/sdl/color.h</text>
</a>
</g>
</g>
<!-- Node11&#45;&gt;Node12 -->
<g id="edge13" class="edge">
<title>Node11&#45;&gt;Node12</title>
<path fill="none" stroke="midnightblue" d="M528.03,-112.44C507.46,-103.75 478.04,-90.18 457.82,-80.13"/>
<polygon fill="midnightblue" stroke="midnightblue" points="459.22,-76.91 448.71,-75.52 456.05,-83.16 459.22,-76.91"/>
</g>
<!-- Node13 -->
<g id="node13" class="node">
<title>Node13</title>
<g id="a_node13"><a xlink:href="ttf_8h.html" target="_top" xlink:title=" ">
<polygon fill="white" stroke="black" points="611,-56.5 611,-75.5 712,-75.5 712,-56.5 611,-56.5"/>
<text text-anchor="middle" x="661.5" y="-63.5" font-family="Fira Code" font-size="10.00">lmda/sdl/ttf.h</text>
</a>
</g>
</g>
<!-- Node11&#45;&gt;Node13 -->
<g id="edge15" class="edge">
<title>Node11&#45;&gt;Node13</title>
<path fill="none" stroke="midnightblue" d="M564.06,-112.32C580.04,-103.55 607.64,-89.88 629.49,-79.84"/>
<polygon fill="midnightblue" stroke="midnightblue" points="631.09,-82.96 638.76,-75.65 628.21,-76.58 631.09,-82.96"/>
</g>
<!-- Node15 -->
<g id="node15" class="node">
<title>Node15</title>
<g id="a_node15"><a xlink:title=" ">
<polygon fill="white" stroke="#bfbfbf" points="510,-56.5 510,-75.5 593,-75.5 593,-56.5 510,-56.5"/>
<text text-anchor="middle" x="551.5" y="-63.5" font-family="Fira Code" font-size="10.00">SDL_image.h</text>
</a>
</g>
</g>
<!-- Node11&#45;&gt;Node15 -->
<g id="edge20" class="edge">
<title>Node11&#45;&gt;Node15</title>
<path fill="none" stroke="midnightblue" d="M551.5,-112.08C551.5,-105.01 551.5,-94.86 551.5,-85.99"/>
<polygon fill="midnightblue" stroke="midnightblue" points="555,-85.75 551.5,-75.75 548,-85.75 555,-85.75"/>
</g>
<!-- Node12&#45;&gt;Node11 -->
<g id="edge14" class="edge">
<title>Node12&#45;&gt;Node11</title>
<path fill="none" stroke="midnightblue" d="M459.2,-75.65C479.66,-84.31 508.76,-97.73 528.89,-107.73"/>
<polygon fill="midnightblue" stroke="midnightblue" points="527.47,-110.93 537.98,-112.32 530.64,-104.69 527.47,-110.93"/>
</g>
<!-- Node13&#45;&gt;Node11 -->
<g id="edge16" class="edge">
<title>Node13&#45;&gt;Node11</title>
<path fill="none" stroke="midnightblue" d="M649.23,-75.52C633.26,-84.31 605.35,-98.13 583.34,-108.23"/>
<polygon fill="midnightblue" stroke="midnightblue" points="581.69,-105.14 574.02,-112.44 584.57,-111.52 581.69,-105.14"/>
</g>
<!-- Node14 -->
<g id="node14" class="node">
<title>Node14</title>
<g id="a_node14"><a xlink:title=" ">
<polygon fill="white" stroke="#bfbfbf" points="626,-0.5 626,-19.5 697,-19.5 697,-0.5 626,-0.5"/>
<text text-anchor="middle" x="661.5" y="-7.5" font-family="Fira Code" font-size="10.00">SDL_ttf.h</text>
</a>
</g>
</g>
<!-- Node13&#45;&gt;Node14 -->
<g id="edge17" class="edge">
<title>Node13&#45;&gt;Node14</title>
<path fill="none" stroke="midnightblue" d="M661.5,-56.08C661.5,-49.01 661.5,-38.86 661.5,-29.99"/>
<polygon fill="midnightblue" stroke="midnightblue" points="665,-29.75 661.5,-19.75 658,-29.75 665,-29.75"/>
</g>
</g>
</svg>
