<?xml version="1.0" encoding="UTF-8" standalone="no"?>
<!DOCTYPE svg PUBLIC "-//W3C//DTD SVG 1.1//EN"
 "http://www.w3.org/Graphics/SVG/1.1/DTD/svg11.dtd">
<!-- Generated by graphviz version 3.0.0 (20220226.1711)
 -->
<!-- Title: src/include/lmda/platform.h Pages: 1 -->
<svg width="479pt" height="95pt"
 viewBox="0.00 0.00 479.00 95.00" xmlns="http://www.w3.org/2000/svg" xmlns:xlink="http://www.w3.org/1999/xlink">
<g id="graph0" class="graph" transform="scale(1 1) rotate(0) translate(4 91)">
<title>src/include/lmda/platform.h</title>
<polygon fill="white" stroke="transparent" points="-4,4 -4,-91 475,-91 475,4 -4,4"/>
<!-- Node1 -->
<g id="node1" class="node">
<title>Node1</title>
<g id="a_node1"><a xlink:title="Declares generic platform initialization to allow platforms to do specialized setup (e....">
<polygon fill="#bfbfbf" stroke="black" points="113,-67.5 113,-86.5 292,-86.5 292,-67.5 113,-67.5"/>
<text text-anchor="middle" x="202.5" y="-74.5" font-family="Fira Code" font-size="10.00">src/include/lmda/platform.h</text>
</a>
</g>
</g>
<!-- Node2 -->
<g id="node2" class="node">
<title>Node2</title>
<g id="a_node2"><a xlink:href="main_8c.html" target="_top" xlink:title="Entrypoint to game application (i.e. game plugin host).">
<polygon fill="white" stroke="black" points="0,-6 0,-25 101,-25 101,-6 0,-6"/>
<text text-anchor="middle" x="50.5" y="-13" font-family="Fira Code" font-size="10.00">src/app/main.c</text>
</a>
</g>
</g>
<!-- Node1&#45;&gt;Node2 -->
<g id="edge1" class="edge">
<title>Node1&#45;&gt;Node2</title>
<path fill="none" stroke="midnightblue" d="M171.29,-63.78C141.75,-52.22 98.18,-35.16 72.24,-25.01"/>
<polygon fill="midnightblue" stroke="midnightblue" points="170.13,-67.09 180.72,-67.48 172.69,-60.57 170.13,-67.09"/>
</g>
<!-- Node3 -->
<g id="node3" class="node">
<title>Node3</title>
<g id="a_node3"><a xlink:href="platform__mac_8c.html" target="_top" xlink:title="Generic platform initialization on MacOS.">
<polygon fill="white" stroke="black" points="119,-0.5 119,-30.5 286,-30.5 286,-0.5 119,-0.5"/>
<text text-anchor="start" x="127" y="-18.5" font-family="Fira Code" font-size="10.00">src/platform/mac/platform</text>
<text text-anchor="middle" x="202.5" y="-7.5" font-family="Fira Code" font-size="10.00">_mac.c</text>
</a>
</g>
</g>
<!-- Node1&#45;&gt;Node3 -->
<g id="edge2" class="edge">
<title>Node1&#45;&gt;Node3</title>
<path fill="none" stroke="midnightblue" d="M202.5,-57.23C202.5,-48.59 202.5,-38.5 202.5,-30.52"/>
<polygon fill="midnightblue" stroke="midnightblue" points="199,-57.48 202.5,-67.48 206,-57.48 199,-57.48"/>
</g>
<!-- Node4 -->
<g id="node4" class="node">
<title>Node4</title>
<g id="a_node4"><a xlink:href="platform__win_8c.html" target="_top" xlink:title="Generic platform initialization on Windows.">
<polygon fill="white" stroke="black" points="304,-0.5 304,-30.5 471,-30.5 471,-0.5 304,-0.5"/>
<text text-anchor="start" x="312" y="-18.5" font-family="Fira Code" font-size="10.00">src/platform/win/platform</text>
<text text-anchor="middle" x="387.5" y="-7.5" font-family="Fira Code" font-size="10.00">_win.c</text>
</a>
</g>
</g>
<!-- Node1&#45;&gt;Node4 -->
<g id="edge3" class="edge">
<title>Node1&#45;&gt;Node4</title>
<path fill="none" stroke="midnightblue" d="M238.7,-64.36C268.85,-54.66 311.86,-40.83 343.9,-30.52"/>
<polygon fill="midnightblue" stroke="midnightblue" points="237.45,-61.08 229.01,-67.48 239.6,-67.75 237.45,-61.08"/>
</g>
</g>
</svg>
