<?xml version="1.0" encoding="UTF-8" standalone="no"?>
<!DOCTYPE svg PUBLIC "-//W3C//DTD SVG 1.1//EN"
 "http://www.w3.org/Graphics/SVG/1.1/DTD/svg11.dtd">
<!-- Generated by graphviz version 3.0.0 (20220226.1711)
 -->
<!-- Title: src/platform/mac/platform_mac.c Pages: 1 -->
<svg width="175pt" height="151pt"
 viewBox="0.00 0.00 175.00 151.00" xmlns="http://www.w3.org/2000/svg" xmlns:xlink="http://www.w3.org/1999/xlink">
<g id="graph0" class="graph" transform="scale(1 1) rotate(0) translate(4 147)">
<title>src/platform/mac/platform_mac.c</title>
<polygon fill="white" stroke="transparent" points="-4,4 -4,-147 171,-147 171,4 -4,4"/>
<!-- Node1 -->
<g id="node1" class="node">
<title>Node1</title>
<g id="a_node1"><a xlink:title="Generic platform initialization on MacOS.">
<polygon fill="#bfbfbf" stroke="black" points="0,-112.5 0,-142.5 167,-142.5 167,-112.5 0,-112.5"/>
<text text-anchor="start" x="8" y="-130.5" font-family="Fira Code" font-size="10.00">src/platform/mac/platform</text>
<text text-anchor="middle" x="83.5" y="-119.5" font-family="Fira Code" font-size="10.00">_mac.c</text>
</a>
</g>
</g>
<!-- Node2 -->
<g id="node2" class="node">
<title>Node2</title>
<g id="a_node2"><a xlink:href="platform_8h.html" target="_top" xlink:title="Declares generic platform initialization to allow platforms to do specialized setup (e....">
<polygon fill="white" stroke="black" points="30,-56.5 30,-75.5 137,-75.5 137,-56.5 30,-56.5"/>
<text text-anchor="middle" x="83.5" y="-63.5" font-family="Fira Code" font-size="10.00">lmda/platform.h</text>
</a>
</g>
</g>
<!-- Node1&#45;&gt;Node2 -->
<g id="edge1" class="edge">
<title>Node1&#45;&gt;Node2</title>
<path fill="none" stroke="midnightblue" d="M83.5,-112.4C83.5,-104.47 83.5,-94.46 83.5,-85.86"/>
<polygon fill="midnightblue" stroke="midnightblue" points="87,-85.66 83.5,-75.66 80,-85.66 87,-85.66"/>
</g>
<!-- Node3 -->
<g id="node3" class="node">
<title>Node3</title>
<g id="a_node3"><a xlink:href="version_8h.html" target="_top" xlink:title="Defines the build version; the build system labels output based on this.">
<polygon fill="white" stroke="black" points="33,-0.5 33,-19.5 134,-19.5 134,-0.5 33,-0.5"/>
<text text-anchor="middle" x="83.5" y="-7.5" font-family="Fira Code" font-size="10.00">lmda/version.h</text>
</a>
</g>
</g>
<!-- Node2&#45;&gt;Node3 -->
<g id="edge2" class="edge">
<title>Node2&#45;&gt;Node3</title>
<path fill="none" stroke="midnightblue" d="M83.5,-56.08C83.5,-49.01 83.5,-38.86 83.5,-29.99"/>
<polygon fill="midnightblue" stroke="midnightblue" points="87,-29.75 83.5,-19.75 80,-29.75 87,-29.75"/>
</g>
</g>
</svg>
