<?xml version="1.0" encoding="UTF-8" standalone="no"?>
<!DOCTYPE svg PUBLIC "-//W3C//DTD SVG 1.1//EN"
 "http://www.w3.org/Graphics/SVG/1.1/DTD/svg11.dtd">
<!-- Generated by graphviz version 3.0.0 (20220226.1711)
 -->
<!-- Title: src/platform/common/plugin.c Pages: 1 -->
<!--zoomable 263 -->
<svg id="main" version="1.1" xmlns="http://www.w3.org/2000/svg" xmlns:xlink="http://www.w3.org/1999/xlink" xml:space="preserve" onload="init(evt)">
<style type="text/css"><![CDATA[
.edge:hover path { stroke: red; }
.edge:hover polygon { stroke: red; fill: red; }
]]></style>
<script type="text/javascript"><![CDATA[
var edges = document.getElementsByTagName('g');
if (edges && edges.length) {
  for (var i=0;i<edges.length;i++) {
    if (edges[i].id.substr(0,4)=='edge') {
      edges[i].setAttribute('class','edge');
    }
  }
}
]]></script>
        <defs>
                <circle id="rim" cx="0" cy="0" r="7"/>
                <circle id="rim2" cx="0" cy="0" r="3.5"/>
                <g id="zoomPlus">
                        <use xlink:href="#rim" fill="#404040">
                                <set attributeName="fill" to="#808080" begin="zoomplus.mouseover" end="zoomplus.mouseout"/>
                        </use>
                        <path d="M-4,0h8M0,-4v8" fill="none" stroke="white" stroke-width="1.5" pointer-events="none"/>
                </g>
                <g id="zoomMin">
                        <use xlink:href="#rim" fill="#404040">
                                <set attributeName="fill" to="#808080" begin="zoomminus.mouseover" end="zoomminus.mouseout"/>
                        </use>
                        <path d="M-4,0h8" fill="none" stroke="white" stroke-width="1.5" pointer-events="none"/>
                </g>
                <g id="dirArrow">
                        <path fill="none" stroke="white" stroke-width="1.5" d="M0,-3.0v7 M-2.5,-0.5L0,-3.0L2.5,-0.5"/>
                </g>
               <g id="resetDef">
                       <use xlink:href="#rim2" fill="#404040">
                               <set attributeName="fill" to="#808080" begin="reset.mouseover" end="reset.mouseout"/>
                       </use>
               </g>
        </defs>

<script type="text/javascript">
var viewWidth = 647;
var viewHeight = 263;
var sectionId = 'dynsection-0';
</script>
<script xlink:href="svgpan.js"/>
<svg id="graph" class="graph">
<g id="viewport">
<title>src/platform/common/plugin.c</title>
<polygon fill="white" stroke="transparent" points="-4,4 -4,-259 643,-259 643,4 -4,4"/>
<!-- Node1 -->
<g id="node1" class="node">
<title>Node1</title>
<g id="a_node1"><a xlink:title="Platform&#45;independent plugin loading operations.">
<polygon fill="#bfbfbf" stroke="black" points="67,-224.5 67,-254.5 198,-254.5 198,-224.5 67,-224.5"/>
<text text-anchor="start" x="75" y="-242.5" font-family="Fira Code" font-size="10.00">src/platform/common</text>
<text text-anchor="middle" x="132.5" y="-231.5" font-family="Fira Code" font-size="10.00">/plugin.c</text>
</a>
</g>
</g>
<!-- Node2 -->
<g id="node2" class="node">
<title>Node2</title>
<g id="a_node2"><a xlink:href="log_8h.html" target="_top" xlink:title=" ">
<polygon fill="white" stroke="black" points="0,-112.5 0,-131.5 77,-131.5 77,-112.5 0,-112.5"/>
<text text-anchor="middle" x="38.5" y="-119.5" font-family="Fira Code" font-size="10.00">lmda/log.h</text>
</a>
</g>
</g>
<!-- Node1&#45;&gt;Node2 -->
<g id="edge1" class="edge">
<title>Node1&#45;&gt;Node2</title>
<path fill="none" stroke="midnightblue" d="M120.97,-224.34C103.5,-202.86 70.38,-162.17 51.87,-139.43"/>
<polygon fill="midnightblue" stroke="midnightblue" points="54.58,-137.22 45.56,-131.67 49.15,-141.63 54.58,-137.22"/>
</g>
<!-- Node3 -->
<g id="node3" class="node">
<title>Node3</title>
<g id="a_node3"><a xlink:href="plugin_8h.html" target="_top" xlink:title="Declares the interface to the game library; implementing that interface defines a game plugin.">
<polygon fill="white" stroke="black" points="178,-168.5 178,-187.5 273,-187.5 273,-168.5 178,-168.5"/>
<text text-anchor="middle" x="225.5" y="-175.5" font-family="Fira Code" font-size="10.00">lmda/plugin.h</text>
</a>
</g>
</g>
<!-- Node1&#45;&gt;Node3 -->
<g id="edge2" class="edge">
<title>Node1&#45;&gt;Node3</title>
<path fill="none" stroke="midnightblue" d="M154.54,-224.4C169.31,-214.95 188.68,-202.56 203.45,-193.11"/>
<polygon fill="midnightblue" stroke="midnightblue" points="205.43,-196 211.97,-187.66 201.66,-190.1 205.43,-196"/>
</g>
<!-- Node3&#45;&gt;Node2 -->
<g id="edge8" class="edge">
<title>Node3&#45;&gt;Node2</title>
<path fill="none" stroke="midnightblue" d="M195.87,-168.44C164,-159.24 113.17,-144.56 77.94,-134.39"/>
<polygon fill="midnightblue" stroke="midnightblue" points="78.57,-130.93 67.99,-131.52 76.63,-137.65 78.57,-130.93"/>
</g>
<!-- Node4 -->
<g id="node4" class="node">
<title>Node4</title>
<g id="a_node4"><a xlink:href="fs_8h.html" target="_top" xlink:title="Declares the game&#39;s interface to the platform filesystem.">
<polygon fill="white" stroke="black" points="95,-112.5 95,-131.5 166,-131.5 166,-112.5 95,-112.5"/>
<text text-anchor="middle" x="130.5" y="-119.5" font-family="Fira Code" font-size="10.00">lmda/fs.h</text>
</a>
</g>
</g>
<!-- Node3&#45;&gt;Node4 -->
<g id="edge3" class="edge">
<title>Node3&#45;&gt;Node4</title>
<path fill="none" stroke="midnightblue" d="M210.24,-168.32C195.28,-159.82 172.25,-146.73 154.77,-136.8"/>
<polygon fill="midnightblue" stroke="midnightblue" points="156.15,-133.55 145.73,-131.65 152.69,-139.64 156.15,-133.55"/>
</g>
<!-- Node5 -->
<g id="node5" class="node">
<title>Node5</title>
<g id="a_node5"><a xlink:href="game_8h.html" target="_top" xlink:title="Declares the highest&#45;level game state and evolution operations.">
<polygon fill="white" stroke="black" points="184,-112.5 184,-131.5 267,-131.5 267,-112.5 184,-112.5"/>
<text text-anchor="middle" x="225.5" y="-119.5" font-family="Fira Code" font-size="10.00">lmda/game.h</text>
</a>
</g>
</g>
<!-- Node3&#45;&gt;Node5 -->
<g id="edge4" class="edge">
<title>Node3&#45;&gt;Node5</title>
<path fill="none" stroke="midnightblue" d="M225.5,-168.08C225.5,-161.01 225.5,-150.86 225.5,-141.99"/>
<polygon fill="midnightblue" stroke="midnightblue" points="229,-141.75 225.5,-131.75 222,-141.75 229,-141.75"/>
</g>
<!-- Node6 -->
<g id="node6" class="node">
<title>Node6</title>
<g id="a_node6"><a xlink:href="input_8h.html" target="_top" xlink:title="The game&#39;s interface to the user input devices.">
<polygon fill="white" stroke="black" points="199,-56.5 199,-75.5 288,-75.5 288,-56.5 199,-56.5"/>
<text text-anchor="middle" x="243.5" y="-63.5" font-family="Fira Code" font-size="10.00">lmda/input.h</text>
</a>
</g>
</g>
<!-- Node3&#45;&gt;Node6 -->
<g id="edge5" class="edge">
<title>Node3&#45;&gt;Node6</title>
<path fill="none" stroke="midnightblue" d="M240.45,-168.47C252.43,-160.7 268.37,-148 275.5,-132 282.97,-115.22 271.51,-96.44 260.28,-83.39"/>
<polygon fill="midnightblue" stroke="midnightblue" points="262.52,-80.66 253.14,-75.73 257.4,-85.43 262.52,-80.66"/>
</g>
<!-- Node9 -->
<g id="node9" class="node">
<title>Node9</title>
<g id="a_node9"><a xlink:href="sdl_8h.html" target="_top" xlink:title="Interface to the SDL subsystems (rendering, image loading, sound, etc).">
<polygon fill="white" stroke="black" points="324,-112.5 324,-131.5 401,-131.5 401,-112.5 324,-112.5"/>
<text text-anchor="middle" x="362.5" y="-119.5" font-family="Fira Code" font-size="10.00">lmda/sdl.h</text>
</a>
</g>
</g>
<!-- Node3&#45;&gt;Node9 -->
<g id="edge9" class="edge">
<title>Node3&#45;&gt;Node9</title>
<path fill="none" stroke="midnightblue" d="M247.21,-168.44C269.85,-159.52 305.57,-145.44 331.25,-135.32"/>
<polygon fill="midnightblue" stroke="midnightblue" points="332.87,-138.44 340.89,-131.52 330.31,-131.93 332.87,-138.44"/>
</g>
<!-- Node14 -->
<g id="node14" class="node">
<title>Node14</title>
<g id="a_node14"><a xlink:href="timing_8h.html" target="_top" xlink:title="Platform&#45;independent high&#45;resolution timing interface, for measurement and delays.">
<polygon fill="white" stroke="black" points="437,-112.5 437,-131.5 532,-131.5 532,-112.5 437,-112.5"/>
<text text-anchor="middle" x="484.5" y="-119.5" font-family="Fira Code" font-size="10.00">lmda/timing.h</text>
</a>
</g>
</g>
<!-- Node3&#45;&gt;Node14 -->
<g id="edge18" class="edge">
<title>Node3&#45;&gt;Node14</title>
<path fill="none" stroke="midnightblue" d="M266.54,-168.44C311.82,-159 384.73,-143.8 433.61,-133.61"/>
<polygon fill="midnightblue" stroke="midnightblue" points="434.58,-136.98 443.65,-131.52 433.15,-130.13 434.58,-136.98"/>
</g>
<!-- Node7 -->
<g id="node7" class="node">
<title>Node7</title>
<g id="a_node7"><a xlink:href="keyboard_8h.html" target="_top" xlink:title="Defines symbols for SDL keyboard key identifiers.">
<polygon fill="white" stroke="black" points="104,-0.5 104,-19.5 247,-19.5 247,-0.5 104,-0.5"/>
<text text-anchor="middle" x="175.5" y="-7.5" font-family="Fira Code" font-size="10.00">lmda/input/keyboard.h</text>
</a>
</g>
</g>
<!-- Node6&#45;&gt;Node7 -->
<g id="edge6" class="edge">
<title>Node6&#45;&gt;Node7</title>
<path fill="none" stroke="midnightblue" d="M232.57,-56.32C222.33,-48.18 206.78,-35.84 194.5,-26.09"/>
<polygon fill="midnightblue" stroke="midnightblue" points="196.63,-23.31 186.62,-19.83 192.28,-28.79 196.63,-23.31"/>
</g>
<!-- Node8 -->
<g id="node8" class="node">
<title>Node8</title>
<g id="a_node8"><a xlink:href="signal_8h.html" target="_top" xlink:title="Declares the types of signal transitions that may represent a state change.">
<polygon fill="white" stroke="black" points="265,-0.5 265,-19.5 360,-19.5 360,-0.5 265,-0.5"/>
<text text-anchor="middle" x="312.5" y="-7.5" font-family="Fira Code" font-size="10.00">lmda/signal.h</text>
</a>
</g>
</g>
<!-- Node6&#45;&gt;Node8 -->
<g id="edge7" class="edge">
<title>Node6&#45;&gt;Node8</title>
<path fill="none" stroke="midnightblue" d="M254.59,-56.32C264.99,-48.18 280.76,-35.84 293.22,-26.09"/>
<polygon fill="midnightblue" stroke="midnightblue" points="295.49,-28.75 301.21,-19.83 291.18,-23.24 295.49,-28.75"/>
</g>
<!-- Node9&#45;&gt;Node6 -->
<g id="edge15" class="edge">
<title>Node9&#45;&gt;Node6</title>
<path fill="none" stroke="midnightblue" d="M343.64,-112.44C324.23,-103.64 293.77,-89.81 271.54,-79.72"/>
<polygon fill="midnightblue" stroke="midnightblue" points="272.82,-76.46 262.27,-75.52 269.93,-82.84 272.82,-76.46"/>
</g>
<!-- Node9&#45;&gt;Node9 -->
<g id="edge16" class="edge">
<title>Node9&#45;&gt;Node9</title>
<path fill="none" stroke="midnightblue" d="M386.6,-131.53C402.97,-134.31 419,-131.13 419,-122 419,-114.79 409.02,-111.3 396.77,-111.51"/>
<polygon fill="midnightblue" stroke="midnightblue" points="396.22,-108.04 386.6,-112.47 396.88,-115.01 396.22,-108.04"/>
</g>
<!-- Node10 -->
<g id="node10" class="node">
<title>Node10</title>
<g id="a_node10"><a xlink:href="color_8h.html" target="_top" xlink:title="Defines symbols for common SDL color values.">
<polygon fill="white" stroke="black" points="306,-56.5 306,-75.5 419,-75.5 419,-56.5 306,-56.5"/>
<text text-anchor="middle" x="362.5" y="-63.5" font-family="Fira Code" font-size="10.00">lmda/sdl/color.h</text>
</a>
</g>
</g>
<!-- Node9&#45;&gt;Node10 -->
<g id="edge10" class="edge">
<title>Node9&#45;&gt;Node10</title>
<path fill="none" stroke="midnightblue" d="M357.33,-112.08C355.82,-104.93 355.39,-94.64 356.04,-85.69"/>
<polygon fill="midnightblue" stroke="midnightblue" points="359.52,-86.13 357.37,-75.75 352.58,-85.2 359.52,-86.13"/>
</g>
<!-- Node11 -->
<g id="node11" class="node">
<title>Node11</title>
<g id="a_node11"><a xlink:href="ttf_8h.html" target="_top" xlink:title=" ">
<polygon fill="white" stroke="black" points="437,-56.5 437,-75.5 538,-75.5 538,-56.5 437,-56.5"/>
<text text-anchor="middle" x="487.5" y="-63.5" font-family="Fira Code" font-size="10.00">lmda/sdl/ttf.h</text>
</a>
</g>
</g>
<!-- Node9&#45;&gt;Node11 -->
<g id="edge12" class="edge">
<title>Node9&#45;&gt;Node11</title>
<path fill="none" stroke="midnightblue" d="M377.22,-112.44C395.92,-103.52 428.28,-89.44 453.22,-79.32"/>
<polygon fill="midnightblue" stroke="midnightblue" points="454.72,-82.48 462.71,-75.52 452.12,-75.99 454.72,-82.48"/>
</g>
<!-- Node13 -->
<g id="node13" class="node">
<title>Node13</title>
<g id="a_node13"><a xlink:title=" ">
<polygon fill="white" stroke="#bfbfbf" points="556,-56.5 556,-75.5 639,-75.5 639,-56.5 556,-56.5"/>
<text text-anchor="middle" x="597.5" y="-63.5" font-family="Fira Code" font-size="10.00">SDL_image.h</text>
</a>
</g>
</g>
<!-- Node9&#45;&gt;Node13 -->
<g id="edge17" class="edge">
<title>Node9&#45;&gt;Node13</title>
<path fill="none" stroke="midnightblue" d="M399.74,-112.44C440.56,-103.06 506.14,-87.99 550.48,-77.8"/>
<polygon fill="midnightblue" stroke="midnightblue" points="551.48,-81.17 560.44,-75.52 549.91,-74.34 551.48,-81.17"/>
</g>
<!-- Node10&#45;&gt;Node9 -->
<g id="edge11" class="edge">
<title>Node10&#45;&gt;Node9</title>
<path fill="none" stroke="midnightblue" d="M367.63,-75.75C369.16,-82.86 369.6,-93.14 368.97,-102.1"/>
<polygon fill="midnightblue" stroke="midnightblue" points="365.49,-101.71 367.67,-112.08 372.43,-102.62 365.49,-101.71"/>
</g>
<!-- Node11&#45;&gt;Node9 -->
<g id="edge13" class="edge">
<title>Node11&#45;&gt;Node9</title>
<path fill="none" stroke="midnightblue" d="M472.87,-75.52C454.2,-84.43 421.85,-98.5 396.89,-108.64"/>
<polygon fill="midnightblue" stroke="midnightblue" points="395.38,-105.48 387.4,-112.44 397.98,-111.97 395.38,-105.48"/>
</g>
<!-- Node12 -->
<g id="node12" class="node">
<title>Node12</title>
<g id="a_node12"><a xlink:title=" ">
<polygon fill="white" stroke="#bfbfbf" points="452,-0.5 452,-19.5 523,-19.5 523,-0.5 452,-0.5"/>
<text text-anchor="middle" x="487.5" y="-7.5" font-family="Fira Code" font-size="10.00">SDL_ttf.h</text>
</a>
</g>
</g>
<!-- Node11&#45;&gt;Node12 -->
<g id="edge14" class="edge">
<title>Node11&#45;&gt;Node12</title>
<path fill="none" stroke="midnightblue" d="M487.5,-56.08C487.5,-49.01 487.5,-38.86 487.5,-29.99"/>
<polygon fill="midnightblue" stroke="midnightblue" points="491,-29.75 487.5,-19.75 484,-29.75 491,-29.75"/>
</g>
</g>
</svg>
        <g id="navigator" transform="translate(0 0)" fill="#404254">
                <rect fill="#f2f5e9" fill-opacity="0.5" stroke="#606060" stroke-width=".5" x="0" y="0" width="60" height="60"/>
                <use id="zoomplus" xlink:href="#zoomPlus" x="17" y="9" onmousedown="handleZoom(evt,'in')"/>
                <use id="zoomminus" xlink:href="#zoomMin" x="42" y="9" onmousedown="handleZoom(evt,'out')"/>
                <use id="reset" xlink:href="#resetDef" x="30" y="36" onmousedown="handleReset()"/>
                <g id="arrowUp" xlink:href="#dirArrow" transform="translate(30 24)" onmousedown="handlePan(0,-1)">
                  <use xlink:href="#rim" fill="#404040">
                        <set attributeName="fill" to="#808080" begin="arrowUp.mouseover" end="arrowUp.mouseout"/>
                  </use>
                  <path fill="none" stroke="white" stroke-width="1.5" d="M0,-3.0v7 M-2.5,-0.5L0,-3.0L2.5,-0.5"/>
                </g>
                <g id="arrowRight" xlink:href="#dirArrow" transform="rotate(90) translate(36 -43)" onmousedown="handlePan(1,0)">
                  <use xlink:href="#rim" fill="#404040">
                        <set attributeName="fill" to="#808080" begin="arrowRight.mouseover" end="arrowRight.mouseout"/>
                  </use>
                  <path fill="none" stroke="white" stroke-width="1.5" d="M0,-3.0v7 M-2.5,-0.5L0,-3.0L2.5,-0.5"/>
                </g>
                <g id="arrowDown" xlink:href="#dirArrow" transform="rotate(180) translate(-30 -48)" onmousedown="handlePan(0,1)">
                  <use xlink:href="#rim" fill="#404040">
                        <set attributeName="fill" to="#808080" begin="arrowDown.mouseover" end="arrowDown.mouseout"/>
                  </use>
                  <path fill="none" stroke="white" stroke-width="1.5" d="M0,-3.0v7 M-2.5,-0.5L0,-3.0L2.5,-0.5"/>
                </g>
                <g id="arrowLeft" xlink:href="#dirArrow" transform="rotate(270) translate(-36 17)" onmousedown="handlePan(-1,0)">
                  <use xlink:href="#rim" fill="#404040">
                        <set attributeName="fill" to="#808080" begin="arrowLeft.mouseover" end="arrowLeft.mouseout"/>
                  </use>
                  <path fill="none" stroke="white" stroke-width="1.5" d="M0,-3.0v7 M-2.5,-0.5L0,-3.0L2.5,-0.5"/>
                </g>
        </g>
        <svg viewBox="0 0 15 15" width="100%" height="30px" preserveAspectRatio="xMaxYMin meet">
         <g id="arrow_out" transform="scale(0.3 0.3)">
          <a xlink:href="plugin_8c__incl_org.svg" target="_base">
           <rect id="button" ry="5" rx="5" y="6" x="6" height="38" width="38"
                fill="#f2f5e9" fill-opacity="0.5" stroke="#606060" stroke-width="1.0"/>
           <path id="arrow"
             d="M 11.500037,31.436501 C 11.940474,20.09759 22.043105,11.32322 32.158766,21.979434 L 37.068811,17.246167 C 37.068811,17.246167 37.088388,32 37.088388,32 L 22.160133,31.978069 C 22.160133,31.978069 26.997745,27.140456 26.997745,27.140456 C 18.528582,18.264221 13.291696,25.230495 11.500037,31.436501 z"
             style="fill:#404040;"/>
          </a>
         </g>
        </svg>
</svg>
