<?xml version="1.0" encoding="UTF-8" standalone="no"?>
<!DOCTYPE svg PUBLIC "-//W3C//DTD SVG 1.1//EN"
 "http://www.w3.org/Graphics/SVG/1.1/DTD/svg11.dtd">
<!-- Generated by graphviz version 3.0.0 (20220226.1711)
 -->
<!-- Title: src/include/lmda/plugin.h Pages: 1 -->
<svg width="914pt" height="95pt"
 viewBox="0.00 0.00 914.00 95.00" xmlns="http://www.w3.org/2000/svg" xmlns:xlink="http://www.w3.org/1999/xlink">
<g id="graph0" class="graph" transform="scale(1 1) rotate(0) translate(4 91)">
<title>src/include/lmda/plugin.h</title>
<polygon fill="white" stroke="transparent" points="-4,4 -4,-91 910,-91 910,4 -4,4"/>
<!-- Node1 -->
<g id="node1" class="node">
<title>Node1</title>
<g id="a_node1"><a xlink:title="Declares the interface to the game library; implementing that interface defines a game plugin.">
<polygon fill="#bfbfbf" stroke="black" points="338,-67.5 338,-86.5 505,-86.5 505,-67.5 338,-67.5"/>
<text text-anchor="middle" x="421.5" y="-74.5" font-family="Fira Code" font-size="10.00">src/include/lmda/plugin.h</text>
</a>
</g>
</g>
<!-- Node2 -->
<g id="node2" class="node">
<title>Node2</title>
<g id="a_node2"><a xlink:href="main_8c.html" target="_top" xlink:title="Entrypoint to game application (i.e. game plugin host).">
<polygon fill="white" stroke="black" points="0,-6 0,-25 101,-25 101,-6 0,-6"/>
<text text-anchor="middle" x="50.5" y="-13" font-family="Fira Code" font-size="10.00">src/app/main.c</text>
</a>
</g>
</g>
<!-- Node1&#45;&gt;Node2 -->
<g id="edge1" class="edge">
<title>Node1&#45;&gt;Node2</title>
<path fill="none" stroke="midnightblue" d="M337.75,-66.18C274.72,-58.24 186.34,-45.95 109.5,-31 100.8,-29.31 91.46,-27.17 82.83,-25.05"/>
<polygon fill="midnightblue" stroke="midnightblue" points="337.68,-69.7 348.03,-67.46 338.54,-62.75 337.68,-69.7"/>
</g>
<!-- Node3 -->
<g id="node3" class="node">
<title>Node3</title>
<g id="a_node3"><a xlink:href="game__plugin_8c.html" target="_top" xlink:title="The game plugin itself; implements the plugin interface to run the game.">
<polygon fill="white" stroke="black" points="119,-6 119,-25 268,-25 268,-6 119,-6"/>
<text text-anchor="middle" x="193.5" y="-13" font-family="Fira Code" font-size="10.00">src/game/game_plugin.c</text>
</a>
</g>
</g>
<!-- Node1&#45;&gt;Node3 -->
<g id="edge2" class="edge">
<title>Node1&#45;&gt;Node3</title>
<path fill="none" stroke="midnightblue" d="M378.95,-64.9C334.67,-53.34 266.29,-35.5 226.11,-25.01"/>
<polygon fill="midnightblue" stroke="midnightblue" points="378.27,-68.34 388.83,-67.48 380.04,-61.56 378.27,-68.34"/>
</g>
<!-- Node4 -->
<g id="node4" class="node">
<title>Node4</title>
<g id="a_node4"><a xlink:href="sdl_8c.html" target="_top" xlink:title="High&#45;level SDL operations, e.g. opening a window.">
<polygon fill="white" stroke="black" points="286,-6 286,-25 411,-25 411,-6 286,-6"/>
<text text-anchor="middle" x="348.5" y="-13" font-family="Fira Code" font-size="10.00">src/game/sdl/sdl.c</text>
</a>
</g>
</g>
<!-- Node1&#45;&gt;Node4 -->
<g id="edge3" class="edge">
<title>Node1&#45;&gt;Node4</title>
<path fill="none" stroke="midnightblue" d="M403.06,-60.97C389.1,-49.59 370.42,-34.37 358.94,-25.01"/>
<polygon fill="midnightblue" stroke="midnightblue" points="401.08,-63.87 411.04,-67.48 405.5,-58.44 401.08,-63.87"/>
</g>
<!-- Node5 -->
<g id="node5" class="node">
<title>Node5</title>
<g id="a_node5"><a xlink:href="plugin_8c.html" target="_top" xlink:title="Platform&#45;independent plugin loading operations.">
<polygon fill="white" stroke="black" points="429,-0.5 429,-30.5 560,-30.5 560,-0.5 429,-0.5"/>
<text text-anchor="start" x="437" y="-18.5" font-family="Fira Code" font-size="10.00">src/platform/common</text>
<text text-anchor="middle" x="494.5" y="-7.5" font-family="Fira Code" font-size="10.00">/plugin.c</text>
</a>
</g>
</g>
<!-- Node1&#45;&gt;Node5 -->
<g id="edge4" class="edge">
<title>Node1&#45;&gt;Node5</title>
<path fill="none" stroke="midnightblue" d="M440,-60.92C451.46,-51.58 466.08,-39.66 477.3,-30.52"/>
<polygon fill="midnightblue" stroke="midnightblue" points="437.5,-58.44 431.96,-67.48 441.92,-63.87 437.5,-58.44"/>
</g>
<!-- Node6 -->
<g id="node6" class="node">
<title>Node6</title>
<g id="a_node6"><a xlink:href="plugin__mac_8c.html" target="_top" xlink:title="Plugin loading on MacOS.">
<polygon fill="white" stroke="black" points="578,-0.5 578,-30.5 733,-30.5 733,-0.5 578,-0.5"/>
<text text-anchor="start" x="586" y="-18.5" font-family="Fira Code" font-size="10.00">src/platform/mac/plugin</text>
<text text-anchor="middle" x="655.5" y="-7.5" font-family="Fira Code" font-size="10.00">_mac.c</text>
</a>
</g>
</g>
<!-- Node1&#45;&gt;Node6 -->
<g id="edge5" class="edge">
<title>Node1&#45;&gt;Node6</title>
<path fill="none" stroke="midnightblue" d="M464.83,-64.98C503.05,-55.27 558.95,-41.05 600.35,-30.52"/>
<polygon fill="midnightblue" stroke="midnightblue" points="463.86,-61.62 455.03,-67.48 465.58,-68.4 463.86,-61.62"/>
</g>
<!-- Node7 -->
<g id="node7" class="node">
<title>Node7</title>
<g id="a_node7"><a xlink:href="timing__mac_8c.html" target="_top" xlink:title="High&#45;resolution timing on MacOS.">
<polygon fill="white" stroke="black" points="751,-0.5 751,-30.5 906,-30.5 906,-0.5 751,-0.5"/>
<text text-anchor="start" x="759" y="-18.5" font-family="Fira Code" font-size="10.00">src/platform/mac/timing</text>
<text text-anchor="middle" x="828.5" y="-7.5" font-family="Fira Code" font-size="10.00">_mac.c</text>
</a>
</g>
</g>
<!-- Node1&#45;&gt;Node7 -->
<g id="edge6" class="edge">
<title>Node1&#45;&gt;Node7</title>
<path fill="none" stroke="midnightblue" d="M496.31,-66.11C561.42,-57.36 658.3,-44 742.5,-31 745.19,-30.58 747.93,-30.16 750.7,-29.72"/>
<polygon fill="midnightblue" stroke="midnightblue" points="495.58,-62.68 486.14,-67.48 496.51,-69.61 495.58,-62.68"/>
</g>
</g>
</svg>
