<?xml version="1.0" encoding="UTF-8" standalone="no"?>
<!DOCTYPE svg PUBLIC "-//W3C//DTD SVG 1.1//EN"
 "http://www.w3.org/Graphics/SVG/1.1/DTD/svg11.dtd">
<!-- Generated by graphviz version 3.0.0 (20220226.1711)
 -->
<!-- Title: src/include/lmda/plugin.h Pages: 1 -->
<!--zoomable 196 -->
<svg id="main" version="1.1" xmlns="http://www.w3.org/2000/svg" xmlns:xlink="http://www.w3.org/1999/xlink" xml:space="preserve" onload="init(evt)">
<style type="text/css"><![CDATA[
.edge:hover path { stroke: red; }
.edge:hover polygon { stroke: red; fill: red; }
]]></style>
<script type="text/javascript"><![CDATA[
var edges = document.getElementsByTagName('g');
if (edges && edges.length) {
  for (var i=0;i<edges.length;i++) {
    if (edges[i].id.substr(0,4)=='edge') {
      edges[i].setAttribute('class','edge');
    }
  }
}
]]></script>
        <defs>
                <circle id="rim" cx="0" cy="0" r="7"/>
                <circle id="rim2" cx="0" cy="0" r="3.5"/>
                <g id="zoomPlus">
                        <use xlink:href="#rim" fill="#404040">
                                <set attributeName="fill" to="#808080" begin="zoomplus.mouseover" end="zoomplus.mouseout"/>
                        </use>
                        <path d="M-4,0h8M0,-4v8" fill="none" stroke="white" stroke-width="1.5" pointer-events="none"/>
                </g>
                <g id="zoomMin">
                        <use xlink:href="#rim" fill="#404040">
                                <set attributeName="fill" to="#808080" begin="zoomminus.mouseover" end="zoomminus.mouseout"/>
                        </use>
                        <path d="M-4,0h8" fill="none" stroke="white" stroke-width="1.5" pointer-events="none"/>
                </g>
                <g id="dirArrow">
                        <path fill="none" stroke="white" stroke-width="1.5" d="M0,-3.0v7 M-2.5,-0.5L0,-3.0L2.5,-0.5"/>
                </g>
               <g id="resetDef">
                       <use xlink:href="#rim2" fill="#404040">
                               <set attributeName="fill" to="#808080" begin="reset.mouseover" end="reset.mouseout"/>
                       </use>
               </g>
        </defs>

<script type="text/javascript">
var viewWidth = 604;
var viewHeight = 196;
var sectionId = 'dynsection-0';
</script>
<script xlink:href="svgpan.js"/>
<svg id="graph" class="graph">
<g id="viewport">
<title>src/include/lmda/plugin.h</title>
<polygon fill="white" stroke="transparent" points="-4,4 -4,-192 600,-192 600,4 -4,4"/>
<!-- Node1 -->
<g id="node1" class="node">
<title>Node1</title>
<g id="a_node1"><a xlink:title="Declares the interface to the game library; implementing that interface defines a game plugin.">
<polygon fill="#bfbfbf" stroke="black" points="150,-168.5 150,-187.5 317,-187.5 317,-168.5 150,-168.5"/>
<text text-anchor="middle" x="233.5" y="-175.5" font-family="Fira Code" font-size="10.00">src/include/lmda/plugin.h</text>
</a>
</g>
</g>
<!-- Node2 -->
<g id="node2" class="node">
<title>Node2</title>
<g id="a_node2"><a xlink:href="fs_8h.html" target="_top" xlink:title="Declares the game&#39;s interface to the platform filesystem.">
<polygon fill="white" stroke="black" points="0,-112.5 0,-131.5 71,-131.5 71,-112.5 0,-112.5"/>
<text text-anchor="middle" x="35.5" y="-119.5" font-family="Fira Code" font-size="10.00">lmda/fs.h</text>
</a>
</g>
</g>
<!-- Node1&#45;&gt;Node2 -->
<g id="edge1" class="edge">
<title>Node1&#45;&gt;Node2</title>
<path fill="none" stroke="midnightblue" d="M202.13,-168.44C168.24,-159.2 114.1,-144.44 76.78,-134.26"/>
<polygon fill="midnightblue" stroke="midnightblue" points="77.3,-130.77 66.73,-131.52 75.45,-137.52 77.3,-130.77"/>
</g>
<!-- Node3 -->
<g id="node3" class="node">
<title>Node3</title>
<g id="a_node3"><a xlink:href="game_8h.html" target="_top" xlink:title="Declares the highest&#45;level game state and evolution operations.">
<polygon fill="white" stroke="black" points="89,-112.5 89,-131.5 172,-131.5 172,-112.5 89,-112.5"/>
<text text-anchor="middle" x="130.5" y="-119.5" font-family="Fira Code" font-size="10.00">lmda/game.h</text>
</a>
</g>
</g>
<!-- Node1&#45;&gt;Node3 -->
<g id="edge2" class="edge">
<title>Node1&#45;&gt;Node3</title>
<path fill="none" stroke="midnightblue" d="M216.95,-168.32C200.51,-159.7 175.07,-146.36 156.03,-136.39"/>
<polygon fill="midnightblue" stroke="midnightblue" points="157.49,-133.2 147.01,-131.65 154.24,-139.4 157.49,-133.2"/>
</g>
<!-- Node4 -->
<g id="node4" class="node">
<title>Node4</title>
<g id="a_node4"><a xlink:href="input_8h.html" target="_top" xlink:title="The game&#39;s interface to the user input devices.">
<polygon fill="white" stroke="black" points="156,-56.5 156,-75.5 245,-75.5 245,-56.5 156,-56.5"/>
<text text-anchor="middle" x="200.5" y="-63.5" font-family="Fira Code" font-size="10.00">lmda/input.h</text>
</a>
</g>
</g>
<!-- Node1&#45;&gt;Node4 -->
<g id="edge3" class="edge">
<title>Node1&#45;&gt;Node4</title>
<path fill="none" stroke="midnightblue" d="M230.77,-168.39C227.92,-159.34 223.33,-144.69 219.5,-132 214.78,-116.35 209.58,-98.52 205.82,-85.5"/>
<polygon fill="midnightblue" stroke="midnightblue" points="209.17,-84.49 203.03,-75.85 202.44,-86.42 209.17,-84.49"/>
</g>
<!-- Node7 -->
<g id="node7" class="node">
<title>Node7</title>
<g id="a_node7"><a xlink:href="log_8h.html" target="_top" xlink:title=" ">
<polygon fill="white" stroke="black" points="229,-112.5 229,-131.5 306,-131.5 306,-112.5 229,-112.5"/>
<text text-anchor="middle" x="267.5" y="-119.5" font-family="Fira Code" font-size="10.00">lmda/log.h</text>
</a>
</g>
</g>
<!-- Node1&#45;&gt;Node7 -->
<g id="edge6" class="edge">
<title>Node1&#45;&gt;Node7</title>
<path fill="none" stroke="midnightblue" d="M239.11,-168.08C243.87,-160.53 250.82,-149.49 256.65,-140.23"/>
<polygon fill="midnightblue" stroke="midnightblue" points="259.62,-142.08 261.99,-131.75 253.7,-138.35 259.62,-142.08"/>
</g>
<!-- Node8 -->
<g id="node8" class="node">
<title>Node8</title>
<g id="a_node8"><a xlink:href="sdl_8h.html" target="_top" xlink:title="Interface to the SDL subsystems (rendering, image loading, sound, etc).">
<polygon fill="white" stroke="black" points="324,-112.5 324,-131.5 401,-131.5 401,-112.5 324,-112.5"/>
<text text-anchor="middle" x="362.5" y="-119.5" font-family="Fira Code" font-size="10.00">lmda/sdl.h</text>
</a>
</g>
</g>
<!-- Node1&#45;&gt;Node8 -->
<g id="edge7" class="edge">
<title>Node1&#45;&gt;Node8</title>
<path fill="none" stroke="midnightblue" d="M253.94,-168.44C275.17,-159.56 308.6,-145.56 332.75,-135.45"/>
<polygon fill="midnightblue" stroke="midnightblue" points="334.28,-138.61 342.16,-131.52 331.58,-132.15 334.28,-138.61"/>
</g>
<!-- Node13 -->
<g id="node13" class="node">
<title>Node13</title>
<g id="a_node13"><a xlink:href="timing_8h.html" target="_top" xlink:title="Platform&#45;independent high&#45;resolution timing interface, for measurement and delays.">
<polygon fill="white" stroke="black" points="437,-112.5 437,-131.5 532,-131.5 532,-112.5 437,-112.5"/>
<text text-anchor="middle" x="484.5" y="-119.5" font-family="Fira Code" font-size="10.00">lmda/timing.h</text>
</a>
</g>
</g>
<!-- Node1&#45;&gt;Node13 -->
<g id="edge16" class="edge">
<title>Node1&#45;&gt;Node13</title>
<path fill="none" stroke="midnightblue" d="M273.27,-168.44C317.06,-159.02 387.51,-143.87 434.88,-133.68"/>
<polygon fill="midnightblue" stroke="midnightblue" points="435.87,-137.04 444.91,-131.52 434.4,-130.2 435.87,-137.04"/>
</g>
<!-- Node5 -->
<g id="node5" class="node">
<title>Node5</title>
<g id="a_node5"><a xlink:href="keyboard_8h.html" target="_top" xlink:title="Defines symbols for SDL keyboard key identifiers.">
<polygon fill="white" stroke="black" points="61,-0.5 61,-19.5 204,-19.5 204,-0.5 61,-0.5"/>
<text text-anchor="middle" x="132.5" y="-7.5" font-family="Fira Code" font-size="10.00">lmda/input/keyboard.h</text>
</a>
</g>
</g>
<!-- Node4&#45;&gt;Node5 -->
<g id="edge4" class="edge">
<title>Node4&#45;&gt;Node5</title>
<path fill="none" stroke="midnightblue" d="M189.57,-56.32C179.33,-48.18 163.78,-35.84 151.5,-26.09"/>
<polygon fill="midnightblue" stroke="midnightblue" points="153.63,-23.31 143.62,-19.83 149.28,-28.79 153.63,-23.31"/>
</g>
<!-- Node6 -->
<g id="node6" class="node">
<title>Node6</title>
<g id="a_node6"><a xlink:href="signal_8h.html" target="_top" xlink:title="Declares the types of signal transitions that may represent a state change.">
<polygon fill="white" stroke="black" points="222,-0.5 222,-19.5 317,-19.5 317,-0.5 222,-0.5"/>
<text text-anchor="middle" x="269.5" y="-7.5" font-family="Fira Code" font-size="10.00">lmda/signal.h</text>
</a>
</g>
</g>
<!-- Node4&#45;&gt;Node6 -->
<g id="edge5" class="edge">
<title>Node4&#45;&gt;Node6</title>
<path fill="none" stroke="midnightblue" d="M211.59,-56.32C221.99,-48.18 237.76,-35.84 250.22,-26.09"/>
<polygon fill="midnightblue" stroke="midnightblue" points="252.49,-28.75 258.21,-19.83 248.18,-23.24 252.49,-28.75"/>
</g>
<!-- Node8&#45;&gt;Node4 -->
<g id="edge13" class="edge">
<title>Node8&#45;&gt;Node4</title>
<path fill="none" stroke="midnightblue" d="M336.83,-112.44C309.58,-103.36 266.32,-88.94 235.85,-78.78"/>
<polygon fill="midnightblue" stroke="midnightblue" points="236.64,-75.36 226.05,-75.52 234.43,-82 236.64,-75.36"/>
</g>
<!-- Node8&#45;&gt;Node8 -->
<g id="edge14" class="edge">
<title>Node8&#45;&gt;Node8</title>
<path fill="none" stroke="midnightblue" d="M386.6,-131.53C402.97,-134.31 419,-131.13 419,-122 419,-114.79 409.02,-111.3 396.77,-111.51"/>
<polygon fill="midnightblue" stroke="midnightblue" points="396.22,-108.04 386.6,-112.47 396.88,-115.01 396.22,-108.04"/>
</g>
<!-- Node9 -->
<g id="node9" class="node">
<title>Node9</title>
<g id="a_node9"><a xlink:href="color_8h.html" target="_top" xlink:title="Defines symbols for common SDL color values.">
<polygon fill="white" stroke="black" points="263,-56.5 263,-75.5 376,-75.5 376,-56.5 263,-56.5"/>
<text text-anchor="middle" x="319.5" y="-63.5" font-family="Fira Code" font-size="10.00">lmda/sdl/color.h</text>
</a>
</g>
</g>
<!-- Node8&#45;&gt;Node9 -->
<g id="edge8" class="edge">
<title>Node8&#45;&gt;Node9</title>
<path fill="none" stroke="midnightblue" d="M350.23,-112.08C342.63,-104.53 333.45,-93.49 326.88,-84.23"/>
<polygon fill="midnightblue" stroke="midnightblue" points="329.74,-82.21 321.34,-75.75 323.88,-86.04 329.74,-82.21"/>
</g>
<!-- Node10 -->
<g id="node10" class="node">
<title>Node10</title>
<g id="a_node10"><a xlink:href="ttf_8h.html" target="_top" xlink:title=" ">
<polygon fill="white" stroke="black" points="394,-56.5 394,-75.5 495,-75.5 495,-56.5 394,-56.5"/>
<text text-anchor="middle" x="444.5" y="-63.5" font-family="Fira Code" font-size="10.00">lmda/sdl/ttf.h</text>
</a>
</g>
</g>
<!-- Node8&#45;&gt;Node10 -->
<g id="edge10" class="edge">
<title>Node8&#45;&gt;Node10</title>
<path fill="none" stroke="midnightblue" d="M370.56,-112.32C381.63,-103.82 401.23,-90.73 417.57,-80.8"/>
<polygon fill="midnightblue" stroke="midnightblue" points="419.43,-83.77 426.25,-75.65 415.86,-77.74 419.43,-83.77"/>
</g>
<!-- Node12 -->
<g id="node12" class="node">
<title>Node12</title>
<g id="a_node12"><a xlink:title=" ">
<polygon fill="white" stroke="#bfbfbf" points="513,-56.5 513,-75.5 596,-75.5 596,-56.5 513,-56.5"/>
<text text-anchor="middle" x="554.5" y="-63.5" font-family="Fira Code" font-size="10.00">SDL_image.h</text>
</a>
</g>
</g>
<!-- Node8&#45;&gt;Node12 -->
<g id="edge15" class="edge">
<title>Node8&#45;&gt;Node12</title>
<path fill="none" stroke="midnightblue" d="M392.92,-112.44C425.78,-103.2 478.28,-88.44 514.47,-78.26"/>
<polygon fill="midnightblue" stroke="midnightblue" points="515.54,-81.59 524.22,-75.52 513.65,-74.85 515.54,-81.59"/>
</g>
<!-- Node9&#45;&gt;Node8 -->
<g id="edge9" class="edge">
<title>Node9&#45;&gt;Node8</title>
<path fill="none" stroke="midnightblue" d="M331.6,-75.75C339.18,-83.25 348.37,-94.27 354.98,-103.57"/>
<polygon fill="midnightblue" stroke="midnightblue" points="352.15,-105.64 360.57,-112.08 358,-101.8 352.15,-105.64"/>
</g>
<!-- Node10&#45;&gt;Node8 -->
<g id="edge11" class="edge">
<title>Node10&#45;&gt;Node8</title>
<path fill="none" stroke="midnightblue" d="M436.23,-75.83C425.13,-84.34 405.66,-97.34 389.41,-107.21"/>
<polygon fill="midnightblue" stroke="midnightblue" points="387.61,-104.21 380.79,-112.32 391.18,-110.23 387.61,-104.21"/>
</g>
<!-- Node11 -->
<g id="node11" class="node">
<title>Node11</title>
<g id="a_node11"><a xlink:title=" ">
<polygon fill="white" stroke="#bfbfbf" points="409,-0.5 409,-19.5 480,-19.5 480,-0.5 409,-0.5"/>
<text text-anchor="middle" x="444.5" y="-7.5" font-family="Fira Code" font-size="10.00">SDL_ttf.h</text>
</a>
</g>
</g>
<!-- Node10&#45;&gt;Node11 -->
<g id="edge12" class="edge">
<title>Node10&#45;&gt;Node11</title>
<path fill="none" stroke="midnightblue" d="M444.5,-56.08C444.5,-49.01 444.5,-38.86 444.5,-29.99"/>
<polygon fill="midnightblue" stroke="midnightblue" points="448,-29.75 444.5,-19.75 441,-29.75 448,-29.75"/>
</g>
</g>
</svg>
        <g id="navigator" transform="translate(0 0)" fill="#404254">
                <rect fill="#f2f5e9" fill-opacity="0.5" stroke="#606060" stroke-width=".5" x="0" y="0" width="60" height="60"/>
                <use id="zoomplus" xlink:href="#zoomPlus" x="17" y="9" onmousedown="handleZoom(evt,'in')"/>
                <use id="zoomminus" xlink:href="#zoomMin" x="42" y="9" onmousedown="handleZoom(evt,'out')"/>
                <use id="reset" xlink:href="#resetDef" x="30" y="36" onmousedown="handleReset()"/>
                <g id="arrowUp" xlink:href="#dirArrow" transform="translate(30 24)" onmousedown="handlePan(0,-1)">
                  <use xlink:href="#rim" fill="#404040">
                        <set attributeName="fill" to="#808080" begin="arrowUp.mouseover" end="arrowUp.mouseout"/>
                  </use>
                  <path fill="none" stroke="white" stroke-width="1.5" d="M0,-3.0v7 M-2.5,-0.5L0,-3.0L2.5,-0.5"/>
                </g>
                <g id="arrowRight" xlink:href="#dirArrow" transform="rotate(90) translate(36 -43)" onmousedown="handlePan(1,0)">
                  <use xlink:href="#rim" fill="#404040">
                        <set attributeName="fill" to="#808080" begin="arrowRight.mouseover" end="arrowRight.mouseout"/>
                  </use>
                  <path fill="none" stroke="white" stroke-width="1.5" d="M0,-3.0v7 M-2.5,-0.5L0,-3.0L2.5,-0.5"/>
                </g>
                <g id="arrowDown" xlink:href="#dirArrow" transform="rotate(180) translate(-30 -48)" onmousedown="handlePan(0,1)">
                  <use xlink:href="#rim" fill="#404040">
                        <set attributeName="fill" to="#808080" begin="arrowDown.mouseover" end="arrowDown.mouseout"/>
                  </use>
                  <path fill="none" stroke="white" stroke-width="1.5" d="M0,-3.0v7 M-2.5,-0.5L0,-3.0L2.5,-0.5"/>
                </g>
                <g id="arrowLeft" xlink:href="#dirArrow" transform="rotate(270) translate(-36 17)" onmousedown="handlePan(-1,0)">
                  <use xlink:href="#rim" fill="#404040">
                        <set attributeName="fill" to="#808080" begin="arrowLeft.mouseover" end="arrowLeft.mouseout"/>
                  </use>
                  <path fill="none" stroke="white" stroke-width="1.5" d="M0,-3.0v7 M-2.5,-0.5L0,-3.0L2.5,-0.5"/>
                </g>
        </g>
        <svg viewBox="0 0 15 15" width="100%" height="30px" preserveAspectRatio="xMaxYMin meet">
         <g id="arrow_out" transform="scale(0.3 0.3)">
          <a xlink:href="plugin_8h__incl_org.svg" target="_base">
           <rect id="button" ry="5" rx="5" y="6" x="6" height="38" width="38"
                fill="#f2f5e9" fill-opacity="0.5" stroke="#606060" stroke-width="1.0"/>
           <path id="arrow"
             d="M 11.500037,31.436501 C 11.940474,20.09759 22.043105,11.32322 32.158766,21.979434 L 37.068811,17.246167 C 37.068811,17.246167 37.088388,32 37.088388,32 L 22.160133,31.978069 C 22.160133,31.978069 26.997745,27.140456 26.997745,27.140456 C 18.528582,18.264221 13.291696,25.230495 11.500037,31.436501 z"
             style="fill:#404040;"/>
          </a>
         </g>
        </svg>
</svg>
