<?xml version="1.0" encoding="UTF-8" standalone="no"?>
<!DOCTYPE svg PUBLIC "-//W3C//DTD SVG 1.1//EN"
 "http://www.w3.org/Graphics/SVG/1.1/DTD/svg11.dtd">
<!-- Generated by graphviz version 3.0.0 (20220226.1711)
 -->
<!-- Title: src/platform/mac/plugin_mac.c Pages: 1 -->
<svg width="552pt" height="263pt"
 viewBox="0.00 0.00 552.00 263.00" xmlns="http://www.w3.org/2000/svg" xmlns:xlink="http://www.w3.org/1999/xlink">
<g id="graph0" class="graph" transform="scale(1 1) rotate(0) translate(4 259)">
<title>src/platform/mac/plugin_mac.c</title>
<polygon fill="white" stroke="transparent" points="-4,4 -4,-259 548,-259 548,4 -4,4"/>
<!-- Node1 -->
<g id="node1" class="node">
<title>Node1</title>
<g id="a_node1"><a xlink:title="Plugin loading on MacOS.">
<polygon fill="#bfbfbf" stroke="black" points="228,-224.5 228,-254.5 383,-254.5 383,-224.5 228,-224.5"/>
<text text-anchor="start" x="236" y="-242.5" font-family="Fira Code" font-size="10.00">src/platform/mac/plugin</text>
<text text-anchor="middle" x="305.5" y="-231.5" font-family="Fira Code" font-size="10.00">_mac.c</text>
</a>
</g>
</g>
<!-- Node2 -->
<g id="node2" class="node">
<title>Node2</title>
<g id="a_node2"><a xlink:href="plugin_8h.html" target="_top" xlink:title="Declares the interface to the game library; implementing that interface defines a game plugin.">
<polygon fill="white" stroke="black" points="220,-168.5 220,-187.5 315,-187.5 315,-168.5 220,-168.5"/>
<text text-anchor="middle" x="267.5" y="-175.5" font-family="Fira Code" font-size="10.00">lmda/plugin.h</text>
</a>
</g>
</g>
<!-- Node1&#45;&gt;Node2 -->
<g id="edge1" class="edge">
<title>Node1&#45;&gt;Node2</title>
<path fill="none" stroke="midnightblue" d="M296.49,-224.4C291.09,-215.93 284.17,-205.1 278.45,-196.14"/>
<polygon fill="midnightblue" stroke="midnightblue" points="281.36,-194.2 273.03,-187.66 275.46,-197.97 281.36,-194.2"/>
</g>
<!-- Node8 -->
<g id="node8" class="node">
<title>Node8</title>
<g id="a_node8"><a xlink:href="log_8h.html" target="_top" xlink:title=" ">
<polygon fill="white" stroke="black" points="455,-112.5 455,-131.5 532,-131.5 532,-112.5 455,-112.5"/>
<text text-anchor="middle" x="493.5" y="-119.5" font-family="Fira Code" font-size="10.00">lmda/log.h</text>
</a>
</g>
</g>
<!-- Node1&#45;&gt;Node8 -->
<g id="edge18" class="edge">
<title>Node1&#45;&gt;Node8</title>
<path fill="none" stroke="midnightblue" d="M328.55,-224.34C364.74,-202.11 434.45,-159.28 470.56,-137.09"/>
<polygon fill="midnightblue" stroke="midnightblue" points="472.7,-139.89 479.39,-131.67 469.04,-133.92 472.7,-139.89"/>
</g>
<!-- Node3 -->
<g id="node3" class="node">
<title>Node3</title>
<g id="a_node3"><a xlink:href="fs_8h.html" target="_top" xlink:title="Declares the game&#39;s interface to the platform filesystem.">
<polygon fill="white" stroke="black" points="0,-112.5 0,-131.5 71,-131.5 71,-112.5 0,-112.5"/>
<text text-anchor="middle" x="35.5" y="-119.5" font-family="Fira Code" font-size="10.00">lmda/fs.h</text>
</a>
</g>
</g>
<!-- Node2&#45;&gt;Node3 -->
<g id="edge2" class="edge">
<title>Node2&#45;&gt;Node3</title>
<path fill="none" stroke="midnightblue" d="M230.74,-168.44C190.2,-159.01 124.93,-143.82 81.15,-133.62"/>
<polygon fill="midnightblue" stroke="midnightblue" points="81.86,-130.2 71.33,-131.34 80.27,-137.01 81.86,-130.2"/>
</g>
<!-- Node4 -->
<g id="node4" class="node">
<title>Node4</title>
<g id="a_node4"><a xlink:href="game_8h.html" target="_top" xlink:title="Declares the highest&#45;level game state and evolution operations.">
<polygon fill="white" stroke="black" points="89,-112.5 89,-131.5 172,-131.5 172,-112.5 89,-112.5"/>
<text text-anchor="middle" x="130.5" y="-119.5" font-family="Fira Code" font-size="10.00">lmda/game.h</text>
</a>
</g>
</g>
<!-- Node2&#45;&gt;Node4 -->
<g id="edge3" class="edge">
<title>Node2&#45;&gt;Node4</title>
<path fill="none" stroke="midnightblue" d="M245.79,-168.44C223.15,-159.52 187.43,-145.44 161.75,-135.32"/>
<polygon fill="midnightblue" stroke="midnightblue" points="162.69,-131.93 152.11,-131.52 160.13,-138.44 162.69,-131.93"/>
</g>
<!-- Node5 -->
<g id="node5" class="node">
<title>Node5</title>
<g id="a_node5"><a xlink:href="input_8h.html" target="_top" xlink:title="The game&#39;s interface to the user input devices.">
<polygon fill="white" stroke="black" points="104,-56.5 104,-75.5 193,-75.5 193,-56.5 104,-56.5"/>
<text text-anchor="middle" x="148.5" y="-63.5" font-family="Fira Code" font-size="10.00">lmda/input.h</text>
</a>
</g>
</g>
<!-- Node2&#45;&gt;Node5 -->
<g id="edge4" class="edge">
<title>Node2&#45;&gt;Node5</title>
<path fill="none" stroke="midnightblue" d="M258.16,-168.37C238.09,-149.81 190.6,-105.91 165.2,-82.44"/>
<polygon fill="midnightblue" stroke="midnightblue" points="167.51,-79.81 157.79,-75.59 162.76,-84.95 167.51,-79.81"/>
</g>
<!-- Node2&#45;&gt;Node8 -->
<g id="edge7" class="edge">
<title>Node2&#45;&gt;Node8</title>
<path fill="none" stroke="midnightblue" d="M303.31,-168.44C342.49,-159.08 405.38,-144.06 448.02,-133.87"/>
<polygon fill="midnightblue" stroke="midnightblue" points="448.94,-137.24 457.86,-131.52 447.32,-130.44 448.94,-137.24"/>
</g>
<!-- Node9 -->
<g id="node9" class="node">
<title>Node9</title>
<g id="a_node9"><a xlink:href="sdl_8h.html" target="_top" xlink:title="Interface to the SDL subsystems (rendering, image loading, sound, etc).">
<polygon fill="white" stroke="black" points="229,-112.5 229,-131.5 306,-131.5 306,-112.5 229,-112.5"/>
<text text-anchor="middle" x="267.5" y="-119.5" font-family="Fira Code" font-size="10.00">lmda/sdl.h</text>
</a>
</g>
</g>
<!-- Node2&#45;&gt;Node9 -->
<g id="edge8" class="edge">
<title>Node2&#45;&gt;Node9</title>
<path fill="none" stroke="midnightblue" d="M267.5,-168.08C267.5,-161.01 267.5,-150.86 267.5,-141.99"/>
<polygon fill="midnightblue" stroke="midnightblue" points="271,-141.75 267.5,-131.75 264,-141.75 271,-141.75"/>
</g>
<!-- Node14 -->
<g id="node14" class="node">
<title>Node14</title>
<g id="a_node14"><a xlink:href="timing_8h.html" target="_top" xlink:title="Platform&#45;independent high&#45;resolution timing interface, for measurement and delays.">
<polygon fill="white" stroke="black" points="342,-112.5 342,-131.5 437,-131.5 437,-112.5 342,-112.5"/>
<text text-anchor="middle" x="389.5" y="-119.5" font-family="Fira Code" font-size="10.00">lmda/timing.h</text>
</a>
</g>
</g>
<!-- Node2&#45;&gt;Node14 -->
<g id="edge17" class="edge">
<title>Node2&#45;&gt;Node14</title>
<path fill="none" stroke="midnightblue" d="M286.83,-168.44C306.82,-159.6 338.24,-145.69 361.06,-135.59"/>
<polygon fill="midnightblue" stroke="midnightblue" points="362.53,-138.76 370.26,-131.52 359.7,-132.36 362.53,-138.76"/>
</g>
<!-- Node6 -->
<g id="node6" class="node">
<title>Node6</title>
<g id="a_node6"><a xlink:href="keyboard_8h.html" target="_top" xlink:title="Defines symbols for SDL keyboard key identifiers.">
<polygon fill="white" stroke="black" points="9,-0.5 9,-19.5 152,-19.5 152,-0.5 9,-0.5"/>
<text text-anchor="middle" x="80.5" y="-7.5" font-family="Fira Code" font-size="10.00">lmda/input/keyboard.h</text>
</a>
</g>
</g>
<!-- Node5&#45;&gt;Node6 -->
<g id="edge5" class="edge">
<title>Node5&#45;&gt;Node6</title>
<path fill="none" stroke="midnightblue" d="M137.57,-56.32C127.33,-48.18 111.78,-35.84 99.5,-26.09"/>
<polygon fill="midnightblue" stroke="midnightblue" points="101.63,-23.31 91.62,-19.83 97.28,-28.79 101.63,-23.31"/>
</g>
<!-- Node7 -->
<g id="node7" class="node">
<title>Node7</title>
<g id="a_node7"><a xlink:href="signal_8h.html" target="_top" xlink:title="Declares the types of signal transitions that may represent a state change.">
<polygon fill="white" stroke="black" points="170,-0.5 170,-19.5 265,-19.5 265,-0.5 170,-0.5"/>
<text text-anchor="middle" x="217.5" y="-7.5" font-family="Fira Code" font-size="10.00">lmda/signal.h</text>
</a>
</g>
</g>
<!-- Node5&#45;&gt;Node7 -->
<g id="edge6" class="edge">
<title>Node5&#45;&gt;Node7</title>
<path fill="none" stroke="midnightblue" d="M159.59,-56.32C169.99,-48.18 185.76,-35.84 198.22,-26.09"/>
<polygon fill="midnightblue" stroke="midnightblue" points="200.49,-28.75 206.21,-19.83 196.18,-23.24 200.49,-28.75"/>
</g>
<!-- Node9&#45;&gt;Node5 -->
<g id="edge14" class="edge">
<title>Node9&#45;&gt;Node5</title>
<path fill="none" stroke="midnightblue" d="M248.64,-112.44C229.23,-103.64 198.77,-89.81 176.54,-79.72"/>
<polygon fill="midnightblue" stroke="midnightblue" points="177.82,-76.46 167.27,-75.52 174.93,-82.84 177.82,-76.46"/>
</g>
<!-- Node9&#45;&gt;Node9 -->
<g id="edge15" class="edge">
<title>Node9&#45;&gt;Node9</title>
<path fill="none" stroke="midnightblue" d="M291.6,-131.53C307.97,-134.31 324,-131.13 324,-122 324,-114.79 314.02,-111.3 301.77,-111.51"/>
<polygon fill="midnightblue" stroke="midnightblue" points="301.22,-108.04 291.6,-112.47 301.88,-115.01 301.22,-108.04"/>
</g>
<!-- Node10 -->
<g id="node10" class="node">
<title>Node10</title>
<g id="a_node10"><a xlink:href="color_8h.html" target="_top" xlink:title="Defines symbols for common SDL color values.">
<polygon fill="white" stroke="black" points="211,-56.5 211,-75.5 324,-75.5 324,-56.5 211,-56.5"/>
<text text-anchor="middle" x="267.5" y="-63.5" font-family="Fira Code" font-size="10.00">lmda/sdl/color.h</text>
</a>
</g>
</g>
<!-- Node9&#45;&gt;Node10 -->
<g id="edge9" class="edge">
<title>Node9&#45;&gt;Node10</title>
<path fill="none" stroke="midnightblue" d="M262.33,-112.08C260.82,-104.93 260.39,-94.64 261.04,-85.69"/>
<polygon fill="midnightblue" stroke="midnightblue" points="264.52,-86.13 262.37,-75.75 257.58,-85.2 264.52,-86.13"/>
</g>
<!-- Node11 -->
<g id="node11" class="node">
<title>Node11</title>
<g id="a_node11"><a xlink:href="ttf_8h.html" target="_top" xlink:title=" ">
<polygon fill="white" stroke="black" points="342,-56.5 342,-75.5 443,-75.5 443,-56.5 342,-56.5"/>
<text text-anchor="middle" x="392.5" y="-63.5" font-family="Fira Code" font-size="10.00">lmda/sdl/ttf.h</text>
</a>
</g>
</g>
<!-- Node9&#45;&gt;Node11 -->
<g id="edge11" class="edge">
<title>Node9&#45;&gt;Node11</title>
<path fill="none" stroke="midnightblue" d="M282.22,-112.44C300.92,-103.52 333.28,-89.44 358.22,-79.32"/>
<polygon fill="midnightblue" stroke="midnightblue" points="359.72,-82.48 367.71,-75.52 357.12,-75.99 359.72,-82.48"/>
</g>
<!-- Node13 -->
<g id="node13" class="node">
<title>Node13</title>
<g id="a_node13"><a xlink:title=" ">
<polygon fill="white" stroke="#bfbfbf" points="461,-56.5 461,-75.5 544,-75.5 544,-56.5 461,-56.5"/>
<text text-anchor="middle" x="502.5" y="-63.5" font-family="Fira Code" font-size="10.00">SDL_image.h</text>
</a>
</g>
</g>
<!-- Node9&#45;&gt;Node13 -->
<g id="edge16" class="edge">
<title>Node9&#45;&gt;Node13</title>
<path fill="none" stroke="midnightblue" d="M304.74,-112.44C345.56,-103.06 411.14,-87.99 455.48,-77.8"/>
<polygon fill="midnightblue" stroke="midnightblue" points="456.48,-81.17 465.44,-75.52 454.91,-74.34 456.48,-81.17"/>
</g>
<!-- Node10&#45;&gt;Node9 -->
<g id="edge10" class="edge">
<title>Node10&#45;&gt;Node9</title>
<path fill="none" stroke="midnightblue" d="M272.63,-75.75C274.16,-82.86 274.6,-93.14 273.97,-102.1"/>
<polygon fill="midnightblue" stroke="midnightblue" points="270.49,-101.71 272.67,-112.08 277.43,-102.62 270.49,-101.71"/>
</g>
<!-- Node11&#45;&gt;Node9 -->
<g id="edge12" class="edge">
<title>Node11&#45;&gt;Node9</title>
<path fill="none" stroke="midnightblue" d="M377.87,-75.52C359.2,-84.43 326.85,-98.5 301.89,-108.64"/>
<polygon fill="midnightblue" stroke="midnightblue" points="300.38,-105.48 292.4,-112.44 302.98,-111.97 300.38,-105.48"/>
</g>
<!-- Node12 -->
<g id="node12" class="node">
<title>Node12</title>
<g id="a_node12"><a xlink:title=" ">
<polygon fill="white" stroke="#bfbfbf" points="357,-0.5 357,-19.5 428,-19.5 428,-0.5 357,-0.5"/>
<text text-anchor="middle" x="392.5" y="-7.5" font-family="Fira Code" font-size="10.00">SDL_ttf.h</text>
</a>
</g>
</g>
<!-- Node11&#45;&gt;Node12 -->
<g id="edge13" class="edge">
<title>Node11&#45;&gt;Node12</title>
<path fill="none" stroke="midnightblue" d="M392.5,-56.08C392.5,-49.01 392.5,-38.86 392.5,-29.99"/>
<polygon fill="midnightblue" stroke="midnightblue" points="396,-29.75 392.5,-19.75 389,-29.75 396,-29.75"/>
</g>
</g>
</svg>
