<?xml version="1.0" encoding="UTF-8" standalone="no"?>
<!DOCTYPE svg PUBLIC "-//W3C//DTD SVG 1.1//EN"
 "http://www.w3.org/Graphics/SVG/1.1/DTD/svg11.dtd">
<!-- Generated by graphviz version 3.0.0 (20220226.1711)
 -->
<!-- Title: src/game/sdl/sdl.c Pages: 1 -->
<!--zoomable 263 -->
<svg id="main" version="1.1" xmlns="http://www.w3.org/2000/svg" xmlns:xlink="http://www.w3.org/1999/xlink" xml:space="preserve" onload="init(evt)">
<style type="text/css"><![CDATA[
.edge:hover path { stroke: red; }
.edge:hover polygon { stroke: red; fill: red; }
]]></style>
<script type="text/javascript"><![CDATA[
var edges = document.getElementsByTagName('g');
if (edges && edges.length) {
  for (var i=0;i<edges.length;i++) {
    if (edges[i].id.substr(0,4)=='edge') {
      edges[i].setAttribute('class','edge');
    }
  }
}
]]></script>
        <defs>
                <circle id="rim" cx="0" cy="0" r="7"/>
                <circle id="rim2" cx="0" cy="0" r="3.5"/>
                <g id="zoomPlus">
                        <use xlink:href="#rim" fill="#404040">
                                <set attributeName="fill" to="#808080" begin="zoomplus.mouseover" end="zoomplus.mouseout"/>
                        </use>
                        <path d="M-4,0h8M0,-4v8" fill="none" stroke="white" stroke-width="1.5" pointer-events="none"/>
                </g>
                <g id="zoomMin">
                        <use xlink:href="#rim" fill="#404040">
                                <set attributeName="fill" to="#808080" begin="zoomminus.mouseover" end="zoomminus.mouseout"/>
                        </use>
                        <path d="M-4,0h8" fill="none" stroke="white" stroke-width="1.5" pointer-events="none"/>
                </g>
                <g id="dirArrow">
                        <path fill="none" stroke="white" stroke-width="1.5" d="M0,-3.0v7 M-2.5,-0.5L0,-3.0L2.5,-0.5"/>
                </g>
               <g id="resetDef">
                       <use xlink:href="#rim2" fill="#404040">
                               <set attributeName="fill" to="#808080" begin="reset.mouseover" end="reset.mouseout"/>
                       </use>
               </g>
        </defs>

<script type="text/javascript">
var viewWidth = 769;
var viewHeight = 263;
var sectionId = 'dynsection-0';
</script>
<script xlink:href="svgpan.js"/>
<svg id="graph" class="graph">
<g id="viewport">
<title>src/game/sdl/sdl.c</title>
<polygon fill="white" stroke="transparent" points="-4,4 -4,-259 765,-259 765,4 -4,4"/>
<!-- Node1 -->
<g id="node1" class="node">
<title>Node1</title>
<g id="a_node1"><a xlink:title="High&#45;level SDL operations, e.g. opening a window.">
<polygon fill="#bfbfbf" stroke="black" points="404,-235.5 404,-254.5 529,-254.5 529,-235.5 404,-235.5"/>
<text text-anchor="middle" x="466.5" y="-242.5" font-family="Fira Code" font-size="10.00">src/game/sdl/sdl.c</text>
</a>
</g>
</g>
<!-- Node2 -->
<g id="node2" class="node">
<title>Node2</title>
<g id="a_node2"><a xlink:href="log_8h.html" target="_top" xlink:title=" ">
<polygon fill="white" stroke="black" points="0,-112.5 0,-131.5 77,-131.5 77,-112.5 0,-112.5"/>
<text text-anchor="middle" x="38.5" y="-119.5" font-family="Fira Code" font-size="10.00">lmda/log.h</text>
</a>
</g>
</g>
<!-- Node1&#45;&gt;Node2 -->
<g id="edge1" class="edge">
<title>Node1&#45;&gt;Node2</title>
<path fill="none" stroke="midnightblue" d="M409.18,-235.43C362.68,-227.83 295.71,-215.39 238.5,-199 176.06,-181.11 105.6,-152.2 67.21,-135.67"/>
<polygon fill="midnightblue" stroke="midnightblue" points="68.29,-132.32 57.72,-131.55 65.5,-138.74 68.29,-132.32"/>
</g>
<!-- Node3 -->
<g id="node3" class="node">
<title>Node3</title>
<g id="a_node3"><a xlink:href="plugin_8h.html" target="_top" xlink:title="Declares the interface to the game library; implementing that interface defines a game plugin.">
<polygon fill="white" stroke="black" points="248,-174 248,-193 343,-193 343,-174 248,-174"/>
<text text-anchor="middle" x="295.5" y="-181" font-family="Fira Code" font-size="10.00">lmda/plugin.h</text>
</a>
</g>
</g>
<!-- Node1&#45;&gt;Node3 -->
<g id="edge2" class="edge">
<title>Node1&#45;&gt;Node3</title>
<path fill="none" stroke="midnightblue" d="M442,-235.48C412.54,-225.22 362.92,-207.96 329.7,-196.4"/>
<polygon fill="midnightblue" stroke="midnightblue" points="330.55,-192.99 319.95,-193.01 328.25,-199.6 330.55,-192.99"/>
</g>
<!-- Node6 -->
<g id="node6" class="node">
<title>Node6</title>
<g id="a_node6"><a xlink:href="input_8h.html" target="_top" xlink:title="The game&#39;s interface to the user input devices.">
<polygon fill="white" stroke="black" points="284,-56.5 284,-75.5 373,-75.5 373,-56.5 284,-56.5"/>
<text text-anchor="middle" x="328.5" y="-63.5" font-family="Fira Code" font-size="10.00">lmda/input.h</text>
</a>
</g>
</g>
<!-- Node1&#45;&gt;Node6 -->
<g id="edge23" class="edge">
<title>Node1&#45;&gt;Node6</title>
<path fill="none" stroke="midnightblue" d="M466.33,-235.45C465.42,-212.59 459.96,-149.33 427.5,-112 413.79,-96.23 393.42,-85.68 374.72,-78.79"/>
<polygon fill="midnightblue" stroke="midnightblue" points="375.73,-75.44 365.14,-75.51 373.46,-82.06 375.73,-75.44"/>
</g>
<!-- Node9 -->
<g id="node9" class="node">
<title>Node9</title>
<g id="a_node9"><a xlink:href="sdl_8h.html" target="_top" xlink:title="Interface to the SDL subsystems (rendering, image loading, sound, etc).">
<polygon fill="white" stroke="black" points="476,-112.5 476,-131.5 553,-131.5 553,-112.5 476,-112.5"/>
<text text-anchor="middle" x="514.5" y="-119.5" font-family="Fira Code" font-size="10.00">lmda/sdl.h</text>
</a>
</g>
</g>
<!-- Node1&#45;&gt;Node9 -->
<g id="edge19" class="edge">
<title>Node1&#45;&gt;Node9</title>
<path fill="none" stroke="midnightblue" d="M469.95,-235.3C477.74,-215.68 496.79,-167.64 507.28,-141.19"/>
<polygon fill="midnightblue" stroke="midnightblue" points="510.65,-142.21 511.08,-131.62 504.14,-139.63 510.65,-142.21"/>
</g>
<!-- Node11 -->
<g id="node11" class="node">
<title>Node11</title>
<g id="a_node11"><a xlink:href="ttf_8h.html" target="_top" xlink:title=" ">
<polygon fill="white" stroke="black" points="623,-56.5 623,-75.5 724,-75.5 724,-56.5 623,-56.5"/>
<text text-anchor="middle" x="673.5" y="-63.5" font-family="Fira Code" font-size="10.00">lmda/sdl/ttf.h</text>
</a>
</g>
</g>
<!-- Node1&#45;&gt;Node11 -->
<g id="edge22" class="edge">
<title>Node1&#45;&gt;Node11</title>
<path fill="none" stroke="midnightblue" d="M529.23,-236.6C577.14,-229.61 637.71,-217.41 654.5,-199 682.88,-167.88 680.52,-114.32 676.78,-85.94"/>
<polygon fill="midnightblue" stroke="midnightblue" points="680.19,-85.12 675.23,-75.76 673.27,-86.18 680.19,-85.12"/>
</g>
<!-- Node14 -->
<g id="node14" class="node">
<title>Node14</title>
<g id="a_node14"><a xlink:href="timing_8h.html" target="_top" xlink:title="Platform&#45;independent high&#45;resolution timing interface, for measurement and delays.">
<polygon fill="white" stroke="black" points="324,-112.5 324,-131.5 419,-131.5 419,-112.5 324,-112.5"/>
<text text-anchor="middle" x="371.5" y="-119.5" font-family="Fira Code" font-size="10.00">lmda/timing.h</text>
</a>
</g>
</g>
<!-- Node1&#45;&gt;Node14 -->
<g id="edge24" class="edge">
<title>Node1&#45;&gt;Node14</title>
<path fill="none" stroke="midnightblue" d="M459.67,-235.3C443.99,-215.33 405.2,-165.92 384.69,-139.8"/>
<polygon fill="midnightblue" stroke="midnightblue" points="387.2,-137.33 378.27,-131.62 381.69,-141.65 387.2,-137.33"/>
</g>
<!-- Node15 -->
<g id="node15" class="node">
<title>Node15</title>
<g id="a_node15"><a xlink:href="event__type__name_8h.html" target="_top" xlink:title=" ">
<polygon fill="white" stroke="black" points="514,-168.5 514,-198.5 645,-198.5 645,-168.5 514,-168.5"/>
<text text-anchor="start" x="522" y="-186.5" font-family="Fira Code" font-size="10.00">lmda/sdl/event_type</text>
<text text-anchor="middle" x="579.5" y="-175.5" font-family="Fira Code" font-size="10.00">_name.h</text>
</a>
</g>
</g>
<!-- Node1&#45;&gt;Node15 -->
<g id="edge20" class="edge">
<title>Node1&#45;&gt;Node15</title>
<path fill="none" stroke="midnightblue" d="M482.69,-235.48C498.57,-227.12 523.3,-214.09 543.8,-203.3"/>
<polygon fill="midnightblue" stroke="midnightblue" points="545.65,-206.28 552.87,-198.52 542.39,-200.09 545.65,-206.28"/>
</g>
<!-- Node16 -->
<g id="node16" class="node">
<title>Node16</title>
<g id="a_node16"><a xlink:title=" ">
<polygon fill="white" stroke="#bfbfbf" points="702,-174 702,-193 761,-193 761,-174 702,-174"/>
<text text-anchor="middle" x="731.5" y="-181" font-family="Fira Code" font-size="10.00">flecs.h</text>
</a>
</g>
</g>
<!-- Node1&#45;&gt;Node16 -->
<g id="edge25" class="edge">
<title>Node1&#45;&gt;Node16</title>
<path fill="none" stroke="midnightblue" d="M516.92,-235.48C561.97,-227.45 629.6,-214.38 687.5,-199 690.69,-198.15 693.98,-197.21 697.27,-196.21"/>
<polygon fill="midnightblue" stroke="midnightblue" points="698.5,-199.49 706.99,-193.14 696.4,-192.82 698.5,-199.49"/>
</g>
<!-- Node3&#45;&gt;Node2 -->
<g id="edge8" class="edge">
<title>Node3&#45;&gt;Node2</title>
<path fill="none" stroke="midnightblue" d="M258.68,-173.98C212.97,-163.39 134.97,-145.34 85.13,-133.8"/>
<polygon fill="midnightblue" stroke="midnightblue" points="85.79,-130.35 75.25,-131.51 84.21,-137.17 85.79,-130.35"/>
</g>
<!-- Node4 -->
<g id="node4" class="node">
<title>Node4</title>
<g id="a_node4"><a xlink:href="fs_8h.html" target="_top" xlink:title="Declares the game&#39;s interface to the platform filesystem.">
<polygon fill="white" stroke="black" points="95,-112.5 95,-131.5 166,-131.5 166,-112.5 95,-112.5"/>
<text text-anchor="middle" x="130.5" y="-119.5" font-family="Fira Code" font-size="10.00">lmda/fs.h</text>
</a>
</g>
</g>
<!-- Node3&#45;&gt;Node4 -->
<g id="edge3" class="edge">
<title>Node3&#45;&gt;Node4</title>
<path fill="none" stroke="midnightblue" d="M271.86,-173.98C243.56,-163.77 195.97,-146.61 163.91,-135.05"/>
<polygon fill="midnightblue" stroke="midnightblue" points="164.69,-131.61 154.1,-131.51 162.32,-138.19 164.69,-131.61"/>
</g>
<!-- Node5 -->
<g id="node5" class="node">
<title>Node5</title>
<g id="a_node5"><a xlink:href="game_8h.html" target="_top" xlink:title="Declares the highest&#45;level game state and evolution operations.">
<polygon fill="white" stroke="black" points="184,-112.5 184,-131.5 267,-131.5 267,-112.5 184,-112.5"/>
<text text-anchor="middle" x="225.5" y="-119.5" font-family="Fira Code" font-size="10.00">lmda/game.h</text>
</a>
</g>
</g>
<!-- Node3&#45;&gt;Node5 -->
<g id="edge4" class="edge">
<title>Node3&#45;&gt;Node5</title>
<path fill="none" stroke="midnightblue" d="M285.47,-173.98C274.45,-164.61 256.54,-149.38 243.16,-138.01"/>
<polygon fill="midnightblue" stroke="midnightblue" points="245.4,-135.32 235.51,-131.51 240.86,-140.65 245.4,-135.32"/>
</g>
<!-- Node3&#45;&gt;Node6 -->
<g id="edge5" class="edge">
<title>Node3&#45;&gt;Node6</title>
<path fill="none" stroke="midnightblue" d="M297.73,-173.79C301.18,-160.44 308.07,-134.16 314.5,-112 317.07,-103.15 320.09,-93.37 322.66,-85.2"/>
<polygon fill="midnightblue" stroke="midnightblue" points="326.02,-86.19 325.72,-75.6 319.35,-84.07 326.02,-86.19"/>
</g>
<!-- Node3&#45;&gt;Node9 -->
<g id="edge9" class="edge">
<title>Node3&#45;&gt;Node9</title>
<path fill="none" stroke="midnightblue" d="M326.88,-173.98C365.42,-163.5 430.91,-145.71 473.42,-134.16"/>
<polygon fill="midnightblue" stroke="midnightblue" points="474.45,-137.51 483.18,-131.51 472.61,-130.75 474.45,-137.51"/>
</g>
<!-- Node3&#45;&gt;Node14 -->
<g id="edge18" class="edge">
<title>Node3&#45;&gt;Node14</title>
<path fill="none" stroke="midnightblue" d="M306.39,-173.98C318.47,-164.52 338.17,-149.1 352.74,-137.69"/>
<polygon fill="midnightblue" stroke="midnightblue" points="354.91,-140.43 360.63,-131.51 350.6,-134.92 354.91,-140.43"/>
</g>
<!-- Node7 -->
<g id="node7" class="node">
<title>Node7</title>
<g id="a_node7"><a xlink:href="keyboard_8h.html" target="_top" xlink:title="Defines symbols for SDL keyboard key identifiers.">
<polygon fill="white" stroke="black" points="326,-0.5 326,-19.5 469,-19.5 469,-0.5 326,-0.5"/>
<text text-anchor="middle" x="397.5" y="-7.5" font-family="Fira Code" font-size="10.00">lmda/input/keyboard.h</text>
</a>
</g>
</g>
<!-- Node6&#45;&gt;Node7 -->
<g id="edge6" class="edge">
<title>Node6&#45;&gt;Node7</title>
<path fill="none" stroke="midnightblue" d="M339.59,-56.32C349.99,-48.18 365.76,-35.84 378.22,-26.09"/>
<polygon fill="midnightblue" stroke="midnightblue" points="380.49,-28.75 386.21,-19.83 376.18,-23.24 380.49,-28.75"/>
</g>
<!-- Node8 -->
<g id="node8" class="node">
<title>Node8</title>
<g id="a_node8"><a xlink:href="signal_8h.html" target="_top" xlink:title="Declares the types of signal transitions that may represent a state change.">
<polygon fill="white" stroke="black" points="213,-0.5 213,-19.5 308,-19.5 308,-0.5 213,-0.5"/>
<text text-anchor="middle" x="260.5" y="-7.5" font-family="Fira Code" font-size="10.00">lmda/signal.h</text>
</a>
</g>
</g>
<!-- Node6&#45;&gt;Node8 -->
<g id="edge7" class="edge">
<title>Node6&#45;&gt;Node8</title>
<path fill="none" stroke="midnightblue" d="M317.57,-56.32C307.33,-48.18 291.78,-35.84 279.5,-26.09"/>
<polygon fill="midnightblue" stroke="midnightblue" points="281.63,-23.31 271.62,-19.83 277.28,-28.79 281.63,-23.31"/>
</g>
<!-- Node9&#45;&gt;Node6 -->
<g id="edge15" class="edge">
<title>Node9&#45;&gt;Node6</title>
<path fill="none" stroke="midnightblue" d="M485.03,-112.44C453.33,-103.24 402.77,-88.56 367.73,-78.39"/>
<polygon fill="midnightblue" stroke="midnightblue" points="368.41,-74.94 357.83,-75.52 366.46,-81.67 368.41,-74.94"/>
</g>
<!-- Node9&#45;&gt;Node9 -->
<g id="edge16" class="edge">
<title>Node9&#45;&gt;Node9</title>
<path fill="none" stroke="midnightblue" d="M538.6,-131.53C554.97,-134.31 571,-131.13 571,-122 571,-114.79 561.02,-111.3 548.77,-111.51"/>
<polygon fill="midnightblue" stroke="midnightblue" points="548.22,-108.04 538.6,-112.47 548.88,-115.01 548.22,-108.04"/>
</g>
<!-- Node10 -->
<g id="node10" class="node">
<title>Node10</title>
<g id="a_node10"><a xlink:href="color_8h.html" target="_top" xlink:title="Defines symbols for common SDL color values.">
<polygon fill="white" stroke="black" points="391,-56.5 391,-75.5 504,-75.5 504,-56.5 391,-56.5"/>
<text text-anchor="middle" x="447.5" y="-63.5" font-family="Fira Code" font-size="10.00">lmda/sdl/color.h</text>
</a>
</g>
</g>
<!-- Node9&#45;&gt;Node10 -->
<g id="edge10" class="edge">
<title>Node9&#45;&gt;Node10</title>
<path fill="none" stroke="midnightblue" d="M498.62,-112.32C486.99,-104.34 471.71,-92.31 460.73,-82.65"/>
<polygon fill="midnightblue" stroke="midnightblue" points="463.04,-80.02 453.31,-75.83 458.31,-85.18 463.04,-80.02"/>
</g>
<!-- Node9&#45;&gt;Node11 -->
<g id="edge12" class="edge">
<title>Node9&#45;&gt;Node11</title>
<path fill="none" stroke="midnightblue" d="M534.61,-112.44C559.47,-103.32 601.99,-88.81 633.53,-78.65"/>
<polygon fill="midnightblue" stroke="midnightblue" points="634.88,-81.89 643.34,-75.52 632.75,-75.22 634.88,-81.89"/>
</g>
<!-- Node13 -->
<g id="node13" class="node">
<title>Node13</title>
<g id="a_node13"><a xlink:title=" ">
<polygon fill="white" stroke="#bfbfbf" points="522,-56.5 522,-75.5 605,-75.5 605,-56.5 522,-56.5"/>
<text text-anchor="middle" x="563.5" y="-63.5" font-family="Fira Code" font-size="10.00">SDL_image.h</text>
</a>
</g>
</g>
<!-- Node9&#45;&gt;Node13 -->
<g id="edge17" class="edge">
<title>Node9&#45;&gt;Node13</title>
<path fill="none" stroke="midnightblue" d="M522.59,-112.08C529.66,-104.3 540.09,-92.8 548.65,-83.37"/>
<polygon fill="midnightblue" stroke="midnightblue" points="551.43,-85.51 555.56,-75.75 546.25,-80.8 551.43,-85.51"/>
</g>
<!-- Node10&#45;&gt;Node9 -->
<g id="edge11" class="edge">
<title>Node10&#45;&gt;Node9</title>
<path fill="none" stroke="midnightblue" d="M463.35,-75.65C475.04,-83.68 490.44,-95.8 501.43,-105.49"/>
<polygon fill="midnightblue" stroke="midnightblue" points="499.12,-108.12 508.85,-112.32 503.87,-102.97 499.12,-108.12"/>
</g>
<!-- Node11&#45;&gt;Node9 -->
<g id="edge13" class="edge">
<title>Node11&#45;&gt;Node9</title>
<path fill="none" stroke="midnightblue" d="M653.5,-75.52C628.69,-84.62 586.18,-99.13 554.61,-109.3"/>
<polygon fill="midnightblue" stroke="midnightblue" points="553.24,-106.07 544.78,-112.44 555.37,-112.74 553.24,-106.07"/>
</g>
<!-- Node12 -->
<g id="node12" class="node">
<title>Node12</title>
<g id="a_node12"><a xlink:title=" ">
<polygon fill="white" stroke="#bfbfbf" points="638,-0.5 638,-19.5 709,-19.5 709,-0.5 638,-0.5"/>
<text text-anchor="middle" x="673.5" y="-7.5" font-family="Fira Code" font-size="10.00">SDL_ttf.h</text>
</a>
</g>
</g>
<!-- Node11&#45;&gt;Node12 -->
<g id="edge14" class="edge">
<title>Node11&#45;&gt;Node12</title>
<path fill="none" stroke="midnightblue" d="M673.5,-56.08C673.5,-49.01 673.5,-38.86 673.5,-29.99"/>
<polygon fill="midnightblue" stroke="midnightblue" points="677,-29.75 673.5,-19.75 670,-29.75 677,-29.75"/>
</g>
<!-- Node15&#45;&gt;Node9 -->
<g id="edge21" class="edge">
<title>Node15&#45;&gt;Node9</title>
<path fill="none" stroke="midnightblue" d="M564.1,-168.4C554.26,-159.4 541.51,-147.72 531.39,-138.47"/>
<polygon fill="midnightblue" stroke="midnightblue" points="533.7,-135.83 523.96,-131.66 528.97,-140.99 533.7,-135.83"/>
</g>
</g>
</svg>
        <g id="navigator" transform="translate(0 0)" fill="#404254">
                <rect fill="#f2f5e9" fill-opacity="0.5" stroke="#606060" stroke-width=".5" x="0" y="0" width="60" height="60"/>
                <use id="zoomplus" xlink:href="#zoomPlus" x="17" y="9" onmousedown="handleZoom(evt,'in')"/>
                <use id="zoomminus" xlink:href="#zoomMin" x="42" y="9" onmousedown="handleZoom(evt,'out')"/>
                <use id="reset" xlink:href="#resetDef" x="30" y="36" onmousedown="handleReset()"/>
                <g id="arrowUp" xlink:href="#dirArrow" transform="translate(30 24)" onmousedown="handlePan(0,-1)">
                  <use xlink:href="#rim" fill="#404040">
                        <set attributeName="fill" to="#808080" begin="arrowUp.mouseover" end="arrowUp.mouseout"/>
                  </use>
                  <path fill="none" stroke="white" stroke-width="1.5" d="M0,-3.0v7 M-2.5,-0.5L0,-3.0L2.5,-0.5"/>
                </g>
                <g id="arrowRight" xlink:href="#dirArrow" transform="rotate(90) translate(36 -43)" onmousedown="handlePan(1,0)">
                  <use xlink:href="#rim" fill="#404040">
                        <set attributeName="fill" to="#808080" begin="arrowRight.mouseover" end="arrowRight.mouseout"/>
                  </use>
                  <path fill="none" stroke="white" stroke-width="1.5" d="M0,-3.0v7 M-2.5,-0.5L0,-3.0L2.5,-0.5"/>
                </g>
                <g id="arrowDown" xlink:href="#dirArrow" transform="rotate(180) translate(-30 -48)" onmousedown="handlePan(0,1)">
                  <use xlink:href="#rim" fill="#404040">
                        <set attributeName="fill" to="#808080" begin="arrowDown.mouseover" end="arrowDown.mouseout"/>
                  </use>
                  <path fill="none" stroke="white" stroke-width="1.5" d="M0,-3.0v7 M-2.5,-0.5L0,-3.0L2.5,-0.5"/>
                </g>
                <g id="arrowLeft" xlink:href="#dirArrow" transform="rotate(270) translate(-36 17)" onmousedown="handlePan(-1,0)">
                  <use xlink:href="#rim" fill="#404040">
                        <set attributeName="fill" to="#808080" begin="arrowLeft.mouseover" end="arrowLeft.mouseout"/>
                  </use>
                  <path fill="none" stroke="white" stroke-width="1.5" d="M0,-3.0v7 M-2.5,-0.5L0,-3.0L2.5,-0.5"/>
                </g>
        </g>
        <svg viewBox="0 0 15 15" width="100%" height="30px" preserveAspectRatio="xMaxYMin meet">
         <g id="arrow_out" transform="scale(0.3 0.3)">
          <a xlink:href="sdl_8c__incl_org.svg" target="_base">
           <rect id="button" ry="5" rx="5" y="6" x="6" height="38" width="38"
                fill="#f2f5e9" fill-opacity="0.5" stroke="#606060" stroke-width="1.0"/>
           <path id="arrow"
             d="M 11.500037,31.436501 C 11.940474,20.09759 22.043105,11.32322 32.158766,21.979434 L 37.068811,17.246167 C 37.068811,17.246167 37.088388,32 37.088388,32 L 22.160133,31.978069 C 22.160133,31.978069 26.997745,27.140456 26.997745,27.140456 C 18.528582,18.264221 13.291696,25.230495 11.500037,31.436501 z"
             style="fill:#404040;"/>
          </a>
         </g>
        </svg>
</svg>
