<?xml version="1.0" encoding="UTF-8" standalone="no"?>
<!DOCTYPE svg PUBLIC "-//W3C//DTD SVG 1.1//EN"
 "http://www.w3.org/Graphics/SVG/1.1/DTD/svg11.dtd">
<!-- Generated by graphviz version 3.0.0 (20220226.1711)
 -->
<!-- Title: src/include/lmda/sdl.h Pages: 1 -->
<!--zoomable 164 -->
<svg id="main" version="1.1" xmlns="http://www.w3.org/2000/svg" xmlns:xlink="http://www.w3.org/1999/xlink" xml:space="preserve" onload="init(evt)">
<style type="text/css"><![CDATA[
.edge:hover path { stroke: red; }
.edge:hover polygon { stroke: red; fill: red; }
]]></style>
<script type="text/javascript"><![CDATA[
var edges = document.getElementsByTagName('g');
if (edges && edges.length) {
  for (var i=0;i<edges.length;i++) {
    if (edges[i].id.substr(0,4)=='edge') {
      edges[i].setAttribute('class','edge');
    }
  }
}
]]></script>
        <defs>
                <circle id="rim" cx="0" cy="0" r="7"/>
                <circle id="rim2" cx="0" cy="0" r="3.5"/>
                <g id="zoomPlus">
                        <use xlink:href="#rim" fill="#404040">
                                <set attributeName="fill" to="#808080" begin="zoomplus.mouseover" end="zoomplus.mouseout"/>
                        </use>
                        <path d="M-4,0h8M0,-4v8" fill="none" stroke="white" stroke-width="1.5" pointer-events="none"/>
                </g>
                <g id="zoomMin">
                        <use xlink:href="#rim" fill="#404040">
                                <set attributeName="fill" to="#808080" begin="zoomminus.mouseover" end="zoomminus.mouseout"/>
                        </use>
                        <path d="M-4,0h8" fill="none" stroke="white" stroke-width="1.5" pointer-events="none"/>
                </g>
                <g id="dirArrow">
                        <path fill="none" stroke="white" stroke-width="1.5" d="M0,-3.0v7 M-2.5,-0.5L0,-3.0L2.5,-0.5"/>
                </g>
               <g id="resetDef">
                       <use xlink:href="#rim2" fill="#404040">
                               <set attributeName="fill" to="#808080" begin="reset.mouseover" end="reset.mouseout"/>
                       </use>
               </g>
        </defs>

<script type="text/javascript">
var viewWidth = 1254;
var viewHeight = 164;
var sectionId = 'dynsection-1';
</script>
<script xlink:href="svgpan.js"/>
<svg id="graph" class="graph">
<g id="viewport">
<title>src/include/lmda/sdl.h</title>
<polygon fill="white" stroke="transparent" points="-4,4 -4,-159.72 1250,-159.72 1250,4 -4,4"/>
<!-- Node1 -->
<g id="node1" class="node">
<title>Node1</title>
<g id="a_node1"><a xlink:title="Interface to the SDL subsystems (rendering, image loading, sound, etc).">
<polygon fill="#bfbfbf" stroke="black" points="691,-134.5 691,-153.5 840,-153.5 840,-134.5 691,-134.5"/>
<text text-anchor="middle" x="765.5" y="-141.5" font-family="Fira Code" font-size="10.00">src/include/lmda/sdl.h</text>
</a>
</g>
</g>
<!-- Node1&#45;&gt;Node1 -->
<g id="edge9" class="edge">
<title>Node1&#45;&gt;Node1</title>
<path fill="none" stroke="midnightblue" d="M809.69,-154.67C834.76,-156.76 858,-153.21 858,-144 858,-133.57 828.19,-130.39 799.65,-134.47"/>
<polygon fill="midnightblue" stroke="midnightblue" points="809.98,-151.18 799.65,-153.53 809.2,-158.13 809.98,-151.18"/>
</g>
<!-- Node2 -->
<g id="node2" class="node">
<title>Node2</title>
<g id="a_node2"><a xlink:href="sdl_8c.html" target="_top" xlink:title="High&#45;level SDL operations, e.g. opening a window.">
<polygon fill="white" stroke="black" points="781,-6 781,-25 906,-25 906,-6 781,-6"/>
<text text-anchor="middle" x="843.5" y="-13" font-family="Fira Code" font-size="10.00">src/game/sdl/sdl.c</text>
</a>
</g>
</g>
<!-- Node1&#45;&gt;Node2 -->
<g id="edge1" class="edge">
<title>Node1&#45;&gt;Node2</title>
<path fill="none" stroke="midnightblue" d="M692.36,-132.51C639.68,-121.84 582.44,-101.79 610.5,-67 612.02,-65.11 736.31,-38.9 802.71,-25.01"/>
<polygon fill="midnightblue" stroke="midnightblue" points="691.98,-136.01 702.46,-134.46 693.3,-129.13 691.98,-136.01"/>
</g>
<!-- Node3 -->
<g id="node3" class="node">
<title>Node3</title>
<g id="a_node3"><a xlink:href="plugin_8h.html" target="_top" xlink:title="Declares the interface to the game library; implementing that interface defines a game plugin.">
<polygon fill="white" stroke="black" points="396,-73 396,-92 563,-92 563,-73 396,-73"/>
<text text-anchor="middle" x="479.5" y="-80" font-family="Fira Code" font-size="10.00">src/include/lmda/plugin.h</text>
</a>
</g>
</g>
<!-- Node1&#45;&gt;Node3 -->
<g id="edge2" class="edge">
<title>Node1&#45;&gt;Node3</title>
<path fill="none" stroke="midnightblue" d="M714.56,-132.4C659.11,-120.87 571.55,-102.65 520.4,-92.01"/>
<polygon fill="midnightblue" stroke="midnightblue" points="714.02,-135.86 724.52,-134.48 715.45,-129.01 714.02,-135.86"/>
</g>
<!-- Node9 -->
<g id="node9" class="node">
<title>Node9</title>
<g id="a_node9"><a xlink:href="color_8h.html" target="_top" xlink:title="Defines symbols for common SDL color values.">
<polygon fill="white" stroke="black" points="620,-67.5 620,-97.5 757,-97.5 757,-67.5 620,-67.5"/>
<text text-anchor="start" x="628" y="-85.5" font-family="Fira Code" font-size="10.00">src/include/lmda/sdl</text>
<text text-anchor="middle" x="688.5" y="-74.5" font-family="Fira Code" font-size="10.00">/color.h</text>
</a>
</g>
</g>
<!-- Node1&#45;&gt;Node9 -->
<g id="edge10" class="edge">
<title>Node1&#45;&gt;Node9</title>
<path fill="none" stroke="midnightblue" d="M741.18,-128.74C727.75,-119.28 711.78,-106.93 700.82,-97.52"/>
<polygon fill="midnightblue" stroke="midnightblue" points="739.34,-131.72 749.57,-134.48 743.29,-125.94 739.34,-131.72"/>
</g>
<!-- Node10 -->
<g id="node10" class="node">
<title>Node10</title>
<g id="a_node10"><a xlink:href="event__type__name_8h.html" target="_top" xlink:title=" ">
<polygon fill="white" stroke="black" points="775,-67.5 775,-97.5 912,-97.5 912,-67.5 775,-67.5"/>
<text text-anchor="start" x="783" y="-85.5" font-family="Fira Code" font-size="10.00">src/include/lmda/sdl</text>
<text text-anchor="middle" x="843.5" y="-74.5" font-family="Fira Code" font-size="10.00">/event_type_name.h</text>
</a>
</g>
</g>
<!-- Node1&#45;&gt;Node10 -->
<g id="edge12" class="edge">
<title>Node1&#45;&gt;Node10</title>
<path fill="none" stroke="midnightblue" d="M784.91,-128.2C797.21,-118.81 813.02,-106.75 825.12,-97.52"/>
<polygon fill="midnightblue" stroke="midnightblue" points="782.5,-125.63 776.68,-134.48 786.75,-131.19 782.5,-125.63"/>
</g>
<!-- Node11 -->
<g id="node11" class="node">
<title>Node11</title>
<g id="a_node11"><a xlink:href="ttf_8h.html" target="_top" xlink:title=" ">
<polygon fill="white" stroke="black" points="930,-67.5 930,-97.5 1067,-97.5 1067,-67.5 930,-67.5"/>
<text text-anchor="start" x="938" y="-85.5" font-family="Fira Code" font-size="10.00">src/include/lmda/sdl</text>
<text text-anchor="middle" x="998.5" y="-74.5" font-family="Fira Code" font-size="10.00">/ttf.h</text>
</a>
</g>
</g>
<!-- Node1&#45;&gt;Node11 -->
<g id="edge14" class="edge">
<title>Node1&#45;&gt;Node11</title>
<path fill="none" stroke="midnightblue" d="M803.72,-131.86C840.13,-122.14 895.35,-108.01 937.76,-97.52"/>
<polygon fill="midnightblue" stroke="midnightblue" points="802.73,-128.5 793.98,-134.48 804.55,-135.26 802.73,-128.5"/>
</g>
<!-- Node13 -->
<g id="node13" class="node">
<title>Node13</title>
<g id="a_node13"><a xlink:href="fs_8c.html" target="_top" xlink:title="Platform&#45;independent filesystem operations.">
<polygon fill="white" stroke="black" points="1085,-73 1085,-92 1246,-92 1246,-73 1085,-73"/>
<text text-anchor="middle" x="1165.5" y="-80" font-family="Fira Code" font-size="10.00">src/platform/common/fs.c</text>
</a>
</g>
</g>
<!-- Node1&#45;&gt;Node13 -->
<g id="edge18" class="edge">
<title>Node1&#45;&gt;Node13</title>
<path fill="none" stroke="midnightblue" d="M836.86,-133.04C899.93,-124.15 994.39,-110.63 1076.5,-98 1088.72,-96.12 1101.88,-94.02 1114.23,-92.01"/>
<polygon fill="midnightblue" stroke="midnightblue" points="836.04,-129.62 826.62,-134.48 837.01,-136.56 836.04,-129.62"/>
</g>
<!-- Node3&#45;&gt;Node2 -->
<g id="edge5" class="edge">
<title>Node3&#45;&gt;Node2</title>
<path fill="none" stroke="midnightblue" d="M541.2,-71.34C600.36,-61.47 692.15,-45.85 771.5,-31 781.4,-29.15 792.05,-27.06 802.04,-25.05"/>
<polygon fill="midnightblue" stroke="midnightblue" points="540.56,-67.89 531.27,-72.99 541.71,-74.8 540.56,-67.89"/>
</g>
<!-- Node4 -->
<g id="node4" class="node">
<title>Node4</title>
<g id="a_node4"><a xlink:href="main_8c.html" target="_top" xlink:title="Entrypoint to game application (i.e. game plugin host).">
<polygon fill="white" stroke="black" points="0,-6 0,-25 101,-25 101,-6 0,-6"/>
<text text-anchor="middle" x="50.5" y="-13" font-family="Fira Code" font-size="10.00">src/app/main.c</text>
</a>
</g>
</g>
<!-- Node3&#45;&gt;Node4 -->
<g id="edge3" class="edge">
<title>Node3&#45;&gt;Node4</title>
<path fill="none" stroke="midnightblue" d="M388.61,-71.8C313.45,-63.13 204.08,-49.03 109.5,-31 100.69,-29.32 91.23,-27.16 82.52,-25.02"/>
<polygon fill="midnightblue" stroke="midnightblue" points="388.66,-75.33 398.99,-72.99 389.45,-68.37 388.66,-75.33"/>
</g>
<!-- Node5 -->
<g id="node5" class="node">
<title>Node5</title>
<g id="a_node5"><a xlink:href="game__plugin_8c.html" target="_top" xlink:title="The game plugin itself; implements the plugin interface to run the game.">
<polygon fill="white" stroke="black" points="119,-6 119,-25 268,-25 268,-6 119,-6"/>
<text text-anchor="middle" x="193.5" y="-13" font-family="Fira Code" font-size="10.00">src/game/game_plugin.c</text>
</a>
</g>
</g>
<!-- Node3&#45;&gt;Node5 -->
<g id="edge4" class="edge">
<title>Node3&#45;&gt;Node5</title>
<path fill="none" stroke="midnightblue" d="M431.73,-70.64C375.38,-57.84 282.86,-36.81 231.27,-25.08"/>
<polygon fill="midnightblue" stroke="midnightblue" points="431.29,-74.13 441.82,-72.94 432.84,-67.31 431.29,-74.13"/>
</g>
<!-- Node6 -->
<g id="node6" class="node">
<title>Node6</title>
<g id="a_node6"><a xlink:href="plugin_8c.html" target="_top" xlink:title="Platform&#45;independent plugin loading operations.">
<polygon fill="white" stroke="black" points="286,-0.5 286,-30.5 417,-30.5 417,-0.5 286,-0.5"/>
<text text-anchor="start" x="294" y="-18.5" font-family="Fira Code" font-size="10.00">src/platform/common</text>
<text text-anchor="middle" x="351.5" y="-7.5" font-family="Fira Code" font-size="10.00">/plugin.c</text>
</a>
</g>
</g>
<!-- Node3&#45;&gt;Node6 -->
<g id="edge6" class="edge">
<title>Node3&#45;&gt;Node6</title>
<path fill="none" stroke="midnightblue" d="M453.3,-68.19C431.77,-57.26 401.34,-41.81 379.37,-30.65"/>
<polygon fill="midnightblue" stroke="midnightblue" points="452,-71.46 462.5,-72.87 455.17,-65.22 452,-71.46"/>
</g>
<!-- Node7 -->
<g id="node7" class="node">
<title>Node7</title>
<g id="a_node7"><a xlink:href="plugin__mac_8c.html" target="_top" xlink:title="Plugin loading on MacOS.">
<polygon fill="white" stroke="black" points="435,-0.5 435,-30.5 590,-30.5 590,-0.5 435,-0.5"/>
<text text-anchor="start" x="443" y="-18.5" font-family="Fira Code" font-size="10.00">src/platform/mac/plugin</text>
<text text-anchor="middle" x="512.5" y="-7.5" font-family="Fira Code" font-size="10.00">_mac.c</text>
</a>
</g>
</g>
<!-- Node3&#45;&gt;Node7 -->
<g id="edge7" class="edge">
<title>Node3&#45;&gt;Node7</title>
<path fill="none" stroke="midnightblue" d="M488.53,-63.71C493.82,-53.29 500.42,-40.3 505.35,-30.59"/>
<polygon fill="midnightblue" stroke="midnightblue" points="485.36,-62.23 483.95,-72.73 491.6,-65.4 485.36,-62.23"/>
</g>
<!-- Node8 -->
<g id="node8" class="node">
<title>Node8</title>
<g id="a_node8"><a xlink:href="timing__mac_8c.html" target="_top" xlink:title="High&#45;resolution timing on MacOS.">
<polygon fill="white" stroke="black" points="608,-0.5 608,-30.5 763,-30.5 763,-0.5 608,-0.5"/>
<text text-anchor="start" x="616" y="-18.5" font-family="Fira Code" font-size="10.00">src/platform/mac/timing</text>
<text text-anchor="middle" x="685.5" y="-7.5" font-family="Fira Code" font-size="10.00">_mac.c</text>
</a>
</g>
</g>
<!-- Node3&#45;&gt;Node8 -->
<g id="edge8" class="edge">
<title>Node3&#45;&gt;Node8</title>
<path fill="none" stroke="midnightblue" d="M516.66,-69.77C551.59,-58.75 603.91,-42.24 641.04,-30.53"/>
<polygon fill="midnightblue" stroke="midnightblue" points="515.34,-66.52 506.86,-72.87 517.44,-73.2 515.34,-66.52"/>
</g>
<!-- Node9&#45;&gt;Node1 -->
<g id="edge11" class="edge">
<title>Node9&#45;&gt;Node1</title>
<path fill="none" stroke="midnightblue" d="M720.76,-103.47C735.16,-114.02 750.7,-126.42 759.37,-134.48"/>
<polygon fill="midnightblue" stroke="midnightblue" points="722.64,-100.51 712.48,-97.52 718.56,-106.2 722.64,-100.51"/>
</g>
<!-- Node10&#45;&gt;Node2 -->
<g id="edge13" class="edge">
<title>Node10&#45;&gt;Node2</title>
<path fill="none" stroke="midnightblue" d="M843.5,-57.25C843.5,-46.02 843.5,-33.38 843.5,-25.19"/>
<polygon fill="midnightblue" stroke="midnightblue" points="840,-57.4 843.5,-67.4 847,-57.4 840,-57.4"/>
</g>
<!-- Node11&#45;&gt;Node1 -->
<g id="edge17" class="edge">
<title>Node11&#45;&gt;Node1</title>
<path fill="none" stroke="midnightblue" d="M939.72,-100.07C897.1,-111.25 840.76,-125.53 803.78,-134.48"/>
<polygon fill="midnightblue" stroke="midnightblue" points="940.64,-103.45 949.42,-97.52 938.85,-96.68 940.64,-103.45"/>
</g>
<!-- Node11&#45;&gt;Node2 -->
<g id="edge15" class="edge">
<title>Node11&#45;&gt;Node2</title>
<path fill="none" stroke="midnightblue" d="M955.48,-63.46C925.53,-50.9 886.96,-34.72 863.79,-25.01"/>
<polygon fill="midnightblue" stroke="midnightblue" points="954.29,-66.76 964.87,-67.4 957,-60.3 954.29,-66.76"/>
</g>
<!-- Node12 -->
<g id="node12" class="node">
<title>Node12</title>
<g id="a_node12"><a xlink:href="ttf_8c.html" target="_top" xlink:title="Rendering text in truetype fonts.">
<polygon fill="white" stroke="black" points="936,-6 936,-25 1061,-25 1061,-6 936,-6"/>
<text text-anchor="middle" x="998.5" y="-13" font-family="Fira Code" font-size="10.00">src/game/sdl/ttf.c</text>
</a>
</g>
</g>
<!-- Node11&#45;&gt;Node12 -->
<g id="edge16" class="edge">
<title>Node11&#45;&gt;Node12</title>
<path fill="none" stroke="midnightblue" d="M998.5,-57.25C998.5,-46.02 998.5,-33.38 998.5,-25.19"/>
<polygon fill="midnightblue" stroke="midnightblue" points="995,-57.4 998.5,-67.4 1002,-57.4 995,-57.4"/>
</g>
</g>
</svg>
        <g id="navigator" transform="translate(0 0)" fill="#404254">
                <rect fill="#f2f5e9" fill-opacity="0.5" stroke="#606060" stroke-width=".5" x="0" y="0" width="60" height="60"/>
                <use id="zoomplus" xlink:href="#zoomPlus" x="17" y="9" onmousedown="handleZoom(evt,'in')"/>
                <use id="zoomminus" xlink:href="#zoomMin" x="42" y="9" onmousedown="handleZoom(evt,'out')"/>
                <use id="reset" xlink:href="#resetDef" x="30" y="36" onmousedown="handleReset()"/>
                <g id="arrowUp" xlink:href="#dirArrow" transform="translate(30 24)" onmousedown="handlePan(0,-1)">
                  <use xlink:href="#rim" fill="#404040">
                        <set attributeName="fill" to="#808080" begin="arrowUp.mouseover" end="arrowUp.mouseout"/>
                  </use>
                  <path fill="none" stroke="white" stroke-width="1.5" d="M0,-3.0v7 M-2.5,-0.5L0,-3.0L2.5,-0.5"/>
                </g>
                <g id="arrowRight" xlink:href="#dirArrow" transform="rotate(90) translate(36 -43)" onmousedown="handlePan(1,0)">
                  <use xlink:href="#rim" fill="#404040">
                        <set attributeName="fill" to="#808080" begin="arrowRight.mouseover" end="arrowRight.mouseout"/>
                  </use>
                  <path fill="none" stroke="white" stroke-width="1.5" d="M0,-3.0v7 M-2.5,-0.5L0,-3.0L2.5,-0.5"/>
                </g>
                <g id="arrowDown" xlink:href="#dirArrow" transform="rotate(180) translate(-30 -48)" onmousedown="handlePan(0,1)">
                  <use xlink:href="#rim" fill="#404040">
                        <set attributeName="fill" to="#808080" begin="arrowDown.mouseover" end="arrowDown.mouseout"/>
                  </use>
                  <path fill="none" stroke="white" stroke-width="1.5" d="M0,-3.0v7 M-2.5,-0.5L0,-3.0L2.5,-0.5"/>
                </g>
                <g id="arrowLeft" xlink:href="#dirArrow" transform="rotate(270) translate(-36 17)" onmousedown="handlePan(-1,0)">
                  <use xlink:href="#rim" fill="#404040">
                        <set attributeName="fill" to="#808080" begin="arrowLeft.mouseover" end="arrowLeft.mouseout"/>
                  </use>
                  <path fill="none" stroke="white" stroke-width="1.5" d="M0,-3.0v7 M-2.5,-0.5L0,-3.0L2.5,-0.5"/>
                </g>
        </g>
        <svg viewBox="0 0 15 15" width="100%" height="30px" preserveAspectRatio="xMaxYMin meet">
         <g id="arrow_out" transform="scale(0.3 0.3)">
          <a xlink:href="sdl_8h__dep__incl_org.svg" target="_base">
           <rect id="button" ry="5" rx="5" y="6" x="6" height="38" width="38"
                fill="#f2f5e9" fill-opacity="0.5" stroke="#606060" stroke-width="1.0"/>
           <path id="arrow"
             d="M 11.500037,31.436501 C 11.940474,20.09759 22.043105,11.32322 32.158766,21.979434 L 37.068811,17.246167 C 37.068811,17.246167 37.088388,32 37.088388,32 L 22.160133,31.978069 C 22.160133,31.978069 26.997745,27.140456 26.997745,27.140456 C 18.528582,18.264221 13.291696,25.230495 11.500037,31.436501 z"
             style="fill:#404040;"/>
          </a>
         </g>
        </svg>
</svg>
