<?xml version="1.0" encoding="UTF-8" standalone="no"?>
<!DOCTYPE svg PUBLIC "-//W3C//DTD SVG 1.1//EN"
 "http://www.w3.org/Graphics/SVG/1.1/DTD/svg11.dtd">
<!-- Generated by graphviz version 3.0.0 (20220226.1711)
 -->
<!-- Title: src/include/lmda/signal.h Pages: 1 -->
<!--zoomable 274 -->
<svg id="main" version="1.1" xmlns="http://www.w3.org/2000/svg" xmlns:xlink="http://www.w3.org/1999/xlink" xml:space="preserve" onload="init(evt)">
<style type="text/css"><![CDATA[
.edge:hover path { stroke: red; }
.edge:hover polygon { stroke: red; fill: red; }
]]></style>
<script type="text/javascript"><![CDATA[
var edges = document.getElementsByTagName('g');
if (edges && edges.length) {
  for (var i=0;i<edges.length;i++) {
    if (edges[i].id.substr(0,4)=='edge') {
      edges[i].setAttribute('class','edge');
    }
  }
}
]]></script>
        <defs>
                <circle id="rim" cx="0" cy="0" r="7"/>
                <circle id="rim2" cx="0" cy="0" r="3.5"/>
                <g id="zoomPlus">
                        <use xlink:href="#rim" fill="#404040">
                                <set attributeName="fill" to="#808080" begin="zoomplus.mouseover" end="zoomplus.mouseout"/>
                        </use>
                        <path d="M-4,0h8M0,-4v8" fill="none" stroke="white" stroke-width="1.5" pointer-events="none"/>
                </g>
                <g id="zoomMin">
                        <use xlink:href="#rim" fill="#404040">
                                <set attributeName="fill" to="#808080" begin="zoomminus.mouseover" end="zoomminus.mouseout"/>
                        </use>
                        <path d="M-4,0h8" fill="none" stroke="white" stroke-width="1.5" pointer-events="none"/>
                </g>
                <g id="dirArrow">
                        <path fill="none" stroke="white" stroke-width="1.5" d="M0,-3.0v7 M-2.5,-0.5L0,-3.0L2.5,-0.5"/>
                </g>
               <g id="resetDef">
                       <use xlink:href="#rim2" fill="#404040">
                               <set attributeName="fill" to="#808080" begin="reset.mouseover" end="reset.mouseout"/>
                       </use>
               </g>
        </defs>

<script type="text/javascript">
var viewWidth = 1118;
var viewHeight = 274;
var sectionId = 'dynsection-0';
</script>
<script xlink:href="svgpan.js"/>
<svg id="graph" class="graph">
<g id="viewport">
<title>src/include/lmda/signal.h</title>
<polygon fill="white" stroke="transparent" points="-4,4 -4,-270 1114.11,-270 1114.11,4 -4,4"/>
<!-- Node1 -->
<g id="node1" class="node">
<title>Node1</title>
<g id="a_node1"><a xlink:title="Declares the types of signal transitions that may represent a state change.">
<polygon fill="#bfbfbf" stroke="black" points="75,-246.5 75,-265.5 242,-265.5 242,-246.5 75,-246.5"/>
<text text-anchor="middle" x="158.5" y="-253.5" font-family="Fira Code" font-size="10.00">src/include/lmda/signal.h</text>
</a>
</g>
</g>
<!-- Node2 -->
<g id="node2" class="node">
<title>Node2</title>
<g id="a_node2"><a xlink:href="main_8c.html" target="_top" xlink:title="Entrypoint to game application (i.e. game plugin host).">
<polygon fill="white" stroke="black" points="0,-6 0,-25 101,-25 101,-6 0,-6"/>
<text text-anchor="middle" x="50.5" y="-13" font-family="Fira Code" font-size="10.00">src/app/main.c</text>
</a>
</g>
</g>
<!-- Node1&#45;&gt;Node2 -->
<g id="edge1" class="edge">
<title>Node1&#45;&gt;Node2</title>
<path fill="none" stroke="midnightblue" d="M150.39,-237.08C128.72,-189.23 70.07,-59.71 54.39,-25.1"/>
<polygon fill="midnightblue" stroke="midnightblue" points="147.21,-238.56 154.53,-246.23 153.59,-235.68 147.21,-238.56"/>
</g>
<!-- Node3 -->
<g id="node3" class="node">
<title>Node3</title>
<g id="a_node3"><a xlink:href="input_8h.html" target="_top" xlink:title="The game&#39;s interface to the user input devices.">
<polygon fill="white" stroke="black" points="204,-190.5 204,-209.5 365,-209.5 365,-190.5 204,-190.5"/>
<text text-anchor="middle" x="284.5" y="-197.5" font-family="Fira Code" font-size="10.00">src/include/lmda/input.h</text>
</a>
</g>
</g>
<!-- Node1&#45;&gt;Node3 -->
<g id="edge2" class="edge">
<title>Node1&#45;&gt;Node3</title>
<path fill="none" stroke="midnightblue" d="M187.66,-242.5C211.28,-232.38 243.93,-218.39 264.63,-209.52"/>
<polygon fill="midnightblue" stroke="midnightblue" points="186.28,-239.29 178.47,-246.44 189.04,-245.72 186.28,-239.29"/>
</g>
<!-- Node3&#45;&gt;Node2 -->
<g id="edge3" class="edge">
<title>Node3&#45;&gt;Node2</title>
<path fill="none" stroke="midnightblue" d="M242.17,-187.23C221.02,-179.96 195.86,-169.09 176.5,-154 138.43,-124.33 144.77,-101.97 111.5,-67 95.96,-50.66 75.3,-34.53 62.45,-25.05"/>
<polygon fill="midnightblue" stroke="midnightblue" points="241.3,-190.63 251.89,-190.42 243.48,-183.98 241.3,-190.63"/>
</g>
<!-- Node4 -->
<g id="node4" class="node">
<title>Node4</title>
<g id="a_node4"><a xlink:href="input_8c.html" target="_top" xlink:title="High&#45;level operations for managing input state and bindings.">
<polygon fill="white" stroke="black" points="186,-134.5 186,-153.5 299,-153.5 299,-134.5 186,-134.5"/>
<text text-anchor="middle" x="242.5" y="-141.5" font-family="Fira Code" font-size="10.00">src/game/input.c</text>
</a>
</g>
</g>
<!-- Node3&#45;&gt;Node4 -->
<g id="edge4" class="edge">
<title>Node3&#45;&gt;Node4</title>
<path fill="none" stroke="midnightblue" d="M271.39,-182.14C264.07,-172.74 255.26,-161.4 249.31,-153.75"/>
<polygon fill="midnightblue" stroke="midnightblue" points="268.66,-184.34 277.56,-190.08 274.19,-180.04 268.66,-184.34"/>
</g>
<!-- Node5 -->
<g id="node5" class="node">
<title>Node5</title>
<g id="a_node5"><a xlink:href="sdl_8c.html" target="_top" xlink:title="High&#45;level SDL operations, e.g. opening a window.">
<polygon fill="white" stroke="black" points="781,-6 781,-25 906,-25 906,-6 781,-6"/>
<text text-anchor="middle" x="843.5" y="-13" font-family="Fira Code" font-size="10.00">src/game/sdl/sdl.c</text>
</a>
</g>
</g>
<!-- Node3&#45;&gt;Node5 -->
<g id="edge5" class="edge">
<title>Node3&#45;&gt;Node5</title>
<path fill="none" stroke="midnightblue" d="M375.33,-194.66C578.86,-183.99 1057.33,-153.23 1103.5,-98 1112.34,-87.43 1112.26,-77.63 1103.5,-67 1090.98,-51.81 978.86,-34.34 906,-24.45"/>
<polygon fill="midnightblue" stroke="midnightblue" points="375.06,-191.17 365.26,-195.19 375.43,-198.16 375.06,-191.17"/>
</g>
<!-- Node6 -->
<g id="node6" class="node">
<title>Node6</title>
<g id="a_node6"><a xlink:href="plugin_8h.html" target="_top" xlink:title="Declares the interface to the game library; implementing that interface defines a game plugin.">
<polygon fill="white" stroke="black" points="244,-73 244,-92 411,-92 411,-73 244,-73"/>
<text text-anchor="middle" x="327.5" y="-80" font-family="Fira Code" font-size="10.00">src/include/lmda/plugin.h</text>
</a>
</g>
</g>
<!-- Node3&#45;&gt;Node6 -->
<g id="edge6" class="edge">
<title>Node3&#45;&gt;Node6</title>
<path fill="none" stroke="midnightblue" d="M294.53,-181.36C298.9,-173.21 303.85,-163.29 307.5,-154 315.97,-132.45 322.51,-105.91 325.58,-92.36"/>
<polygon fill="midnightblue" stroke="midnightblue" points="291.38,-179.83 289.61,-190.27 297.51,-183.21 291.38,-179.83"/>
</g>
<!-- Node11 -->
<g id="node11" class="node">
<title>Node11</title>
<g id="a_node11"><a xlink:href="sdl_8h.html" target="_top" xlink:title="Interface to the SDL subsystems (rendering, image loading, sound, etc).">
<polygon fill="white" stroke="black" points="617,-134.5 617,-153.5 766,-153.5 766,-134.5 617,-134.5"/>
<text text-anchor="middle" x="691.5" y="-141.5" font-family="Fira Code" font-size="10.00">src/include/lmda/sdl.h</text>
</a>
</g>
</g>
<!-- Node3&#45;&gt;Node11 -->
<g id="edge13" class="edge">
<title>Node3&#45;&gt;Node11</title>
<path fill="none" stroke="midnightblue" d="M359.08,-189.1C435.94,-178.91 554.5,-163.18 627.31,-153.52"/>
<polygon fill="midnightblue" stroke="midnightblue" points="358.44,-185.66 348.99,-190.44 359.36,-192.6 358.44,-185.66"/>
</g>
<!-- Node6&#45;&gt;Node2 -->
<g id="edge7" class="edge">
<title>Node6&#45;&gt;Node2</title>
<path fill="none" stroke="midnightblue" d="M280.17,-70.73C235.98,-60.62 168.22,-45.02 109.5,-31 101.5,-29.09 92.89,-27 84.8,-25.01"/>
<polygon fill="midnightblue" stroke="midnightblue" points="279.52,-74.17 290.05,-72.98 281.08,-67.34 279.52,-74.17"/>
</g>
<!-- Node6&#45;&gt;Node5 -->
<g id="edge9" class="edge">
<title>Node6&#45;&gt;Node5</title>
<path fill="none" stroke="midnightblue" d="M392.2,-71.52C403.3,-69.93 414.72,-68.36 425.5,-67 578.9,-47.68 618.66,-54.29 771.5,-31 782.34,-29.35 794.02,-27.17 804.76,-25.01"/>
<polygon fill="midnightblue" stroke="midnightblue" points="391.52,-68.09 382.13,-72.99 392.53,-75.01 391.52,-68.09"/>
</g>
<!-- Node7 -->
<g id="node7" class="node">
<title>Node7</title>
<g id="a_node7"><a xlink:href="game__plugin_8c.html" target="_top" xlink:title="The game plugin itself; implements the plugin interface to run the game.">
<polygon fill="white" stroke="black" points="292,-6 292,-25 441,-25 441,-6 292,-6"/>
<text text-anchor="middle" x="366.5" y="-13" font-family="Fira Code" font-size="10.00">src/game/game_plugin.c</text>
</a>
</g>
</g>
<!-- Node6&#45;&gt;Node7 -->
<g id="edge8" class="edge">
<title>Node6&#45;&gt;Node7</title>
<path fill="none" stroke="midnightblue" d="M337.98,-64.03C345.53,-51.45 355.4,-35.01 361.32,-25.13"/>
<polygon fill="midnightblue" stroke="midnightblue" points="334.9,-62.36 332.76,-72.73 340.91,-65.96 334.9,-62.36"/>
</g>
<!-- Node8 -->
<g id="node8" class="node">
<title>Node8</title>
<g id="a_node8"><a xlink:href="plugin_8c.html" target="_top" xlink:title="Platform&#45;independent plugin loading operations.">
<polygon fill="white" stroke="black" points="459,-0.5 459,-30.5 590,-30.5 590,-0.5 459,-0.5"/>
<text text-anchor="start" x="467" y="-18.5" font-family="Fira Code" font-size="10.00">src/platform/common</text>
<text text-anchor="middle" x="524.5" y="-7.5" font-family="Fira Code" font-size="10.00">/plugin.c</text>
</a>
</g>
</g>
<!-- Node6&#45;&gt;Node8 -->
<g id="edge10" class="edge">
<title>Node6&#45;&gt;Node8</title>
<path fill="none" stroke="midnightblue" d="M363.47,-69.63C396.87,-58.61 446.63,-42.19 481.98,-30.53"/>
<polygon fill="midnightblue" stroke="midnightblue" points="362.06,-66.41 353.66,-72.87 364.25,-73.06 362.06,-66.41"/>
</g>
<!-- Node9 -->
<g id="node9" class="node">
<title>Node9</title>
<g id="a_node9"><a xlink:href="plugin__mac_8c.html" target="_top" xlink:title="Plugin loading on MacOS.">
<polygon fill="white" stroke="black" points="608,-0.5 608,-30.5 763,-30.5 763,-0.5 608,-0.5"/>
<text text-anchor="start" x="616" y="-18.5" font-family="Fira Code" font-size="10.00">src/platform/mac/plugin</text>
<text text-anchor="middle" x="685.5" y="-7.5" font-family="Fira Code" font-size="10.00">_mac.c</text>
</a>
</g>
</g>
<!-- Node6&#45;&gt;Node9 -->
<g id="edge11" class="edge">
<title>Node6&#45;&gt;Node9</title>
<path fill="none" stroke="midnightblue" d="M384.8,-71.1C445.26,-60.12 540.92,-42.75 608.07,-30.56"/>
<polygon fill="midnightblue" stroke="midnightblue" points="383.88,-67.71 374.67,-72.94 385.13,-74.59 383.88,-67.71"/>
</g>
<!-- Node10 -->
<g id="node10" class="node">
<title>Node10</title>
<g id="a_node10"><a xlink:href="timing__mac_8c.html" target="_top" xlink:title="High&#45;resolution timing on MacOS.">
<polygon fill="white" stroke="black" points="119,-0.5 119,-30.5 274,-30.5 274,-0.5 119,-0.5"/>
<text text-anchor="start" x="127" y="-18.5" font-family="Fira Code" font-size="10.00">src/platform/mac/timing</text>
<text text-anchor="middle" x="196.5" y="-7.5" font-family="Fira Code" font-size="10.00">_mac.c</text>
</a>
</g>
</g>
<!-- Node6&#45;&gt;Node10 -->
<g id="edge12" class="edge">
<title>Node6&#45;&gt;Node10</title>
<path fill="none" stroke="midnightblue" d="M300.98,-68.34C278.93,-57.4 247.61,-41.86 225.02,-30.65"/>
<polygon fill="midnightblue" stroke="midnightblue" points="299.59,-71.56 310.1,-72.87 302.7,-65.29 299.59,-71.56"/>
</g>
<!-- Node11&#45;&gt;Node5 -->
<g id="edge14" class="edge">
<title>Node11&#45;&gt;Node5</title>
<path fill="none" stroke="midnightblue" d="M606.83,-140.91C522.45,-135.88 411.7,-119.49 458.5,-67 505.09,-14.74 702.34,-41.92 771.5,-31 782.21,-29.31 793.74,-27.14 804.37,-25"/>
<polygon fill="midnightblue" stroke="midnightblue" points="606.8,-144.41 616.97,-141.47 607.18,-137.42 606.8,-144.41"/>
</g>
<!-- Node11&#45;&gt;Node6 -->
<g id="edge15" class="edge">
<title>Node11&#45;&gt;Node6</title>
<path fill="none" stroke="midnightblue" d="M629.28,-132.83C558.88,-121.32 445.46,-102.78 379.56,-92.01"/>
<polygon fill="midnightblue" stroke="midnightblue" points="628.91,-136.32 639.35,-134.48 630.04,-129.41 628.91,-136.32"/>
</g>
<!-- Node11&#45;&gt;Node11 -->
<g id="edge16" class="edge">
<title>Node11&#45;&gt;Node11</title>
<path fill="none" stroke="midnightblue" d="M740.93,-154.29C763.91,-155.42 784,-151.99 784,-144 784,-134.87 757.76,-131.69 730.95,-134.47"/>
<polygon fill="midnightblue" stroke="midnightblue" points="741.19,-150.8 730.95,-153.53 740.65,-157.78 741.19,-150.8"/>
</g>
<!-- Node12 -->
<g id="node12" class="node">
<title>Node12</title>
<g id="a_node12"><a xlink:href="color_8h.html" target="_top" xlink:title="Defines symbols for common SDL color values.">
<polygon fill="white" stroke="black" points="623,-67.5 623,-97.5 760,-97.5 760,-67.5 623,-67.5"/>
<text text-anchor="start" x="631" y="-85.5" font-family="Fira Code" font-size="10.00">src/include/lmda/sdl</text>
<text text-anchor="middle" x="691.5" y="-74.5" font-family="Fira Code" font-size="10.00">/color.h</text>
</a>
</g>
</g>
<!-- Node11&#45;&gt;Node12 -->
<g id="edge17" class="edge">
<title>Node11&#45;&gt;Node12</title>
<path fill="none" stroke="midnightblue" d="M685.2,-124.53C684.47,-115.81 684.63,-105.59 685.67,-97.52"/>
<polygon fill="midnightblue" stroke="midnightblue" points="681.74,-125.06 686.6,-134.48 688.67,-124.09 681.74,-125.06"/>
</g>
<!-- Node13 -->
<g id="node13" class="node">
<title>Node13</title>
<g id="a_node13"><a xlink:href="event__type__name_8h.html" target="_top" xlink:title=" ">
<polygon fill="white" stroke="black" points="468,-67.5 468,-97.5 605,-97.5 605,-67.5 468,-67.5"/>
<text text-anchor="start" x="476" y="-85.5" font-family="Fira Code" font-size="10.00">src/include/lmda/sdl</text>
<text text-anchor="middle" x="536.5" y="-74.5" font-family="Fira Code" font-size="10.00">/event_type_name.h</text>
</a>
</g>
</g>
<!-- Node11&#45;&gt;Node13 -->
<g id="edge19" class="edge">
<title>Node11&#45;&gt;Node13</title>
<path fill="none" stroke="midnightblue" d="M659.84,-130.85C634.66,-121.18 599.4,-107.65 573.03,-97.52"/>
<polygon fill="midnightblue" stroke="midnightblue" points="658.7,-134.16 669.29,-134.48 661.21,-127.62 658.7,-134.16"/>
</g>
<!-- Node14 -->
<g id="node14" class="node">
<title>Node14</title>
<g id="a_node14"><a xlink:href="ttf_8h.html" target="_top" xlink:title=" ">
<polygon fill="white" stroke="black" points="957,-67.5 957,-97.5 1094,-97.5 1094,-67.5 957,-67.5"/>
<text text-anchor="start" x="965" y="-85.5" font-family="Fira Code" font-size="10.00">src/include/lmda/sdl</text>
<text text-anchor="middle" x="1025.5" y="-74.5" font-family="Fira Code" font-size="10.00">/ttf.h</text>
</a>
</g>
</g>
<!-- Node11&#45;&gt;Node14 -->
<g id="edge21" class="edge">
<title>Node11&#45;&gt;Node14</title>
<path fill="none" stroke="midnightblue" d="M744.29,-132.63C794.34,-123.62 871.41,-110.13 938.5,-98 944.46,-96.92 950.68,-95.79 956.94,-94.64"/>
<polygon fill="midnightblue" stroke="midnightblue" points="743.56,-129.21 734.34,-134.43 744.8,-136.1 743.56,-129.21"/>
</g>
<!-- Node16 -->
<g id="node16" class="node">
<title>Node16</title>
<g id="a_node16"><a xlink:href="fs_8c.html" target="_top" xlink:title="Platform&#45;independent filesystem operations.">
<polygon fill="white" stroke="black" points="778,-73 778,-92 939,-92 939,-73 778,-73"/>
<text text-anchor="middle" x="858.5" y="-80" font-family="Fira Code" font-size="10.00">src/platform/common/fs.c</text>
</a>
</g>
</g>
<!-- Node11&#45;&gt;Node16 -->
<g id="edge25" class="edge">
<title>Node11&#45;&gt;Node16</title>
<path fill="none" stroke="midnightblue" d="M724.95,-131.08C757.41,-119.52 805.87,-102.25 834.62,-92.01"/>
<polygon fill="midnightblue" stroke="midnightblue" points="723.67,-127.82 715.43,-134.48 726.02,-134.42 723.67,-127.82"/>
</g>
<!-- Node12&#45;&gt;Node11 -->
<g id="edge18" class="edge">
<title>Node12&#45;&gt;Node11</title>
<path fill="none" stroke="midnightblue" d="M698.14,-107.7C698.51,-117.19 697.93,-127.47 696.4,-134.48"/>
<polygon fill="midnightblue" stroke="midnightblue" points="701.62,-107.21 697.33,-97.52 694.64,-107.77 701.62,-107.21"/>
</g>
<!-- Node13&#45;&gt;Node5 -->
<g id="edge20" class="edge">
<title>Node13&#45;&gt;Node5</title>
<path fill="none" stroke="midnightblue" d="M612.61,-65.39C672.96,-52.61 754.92,-35.25 803.22,-25.03"/>
<polygon fill="midnightblue" stroke="midnightblue" points="611.79,-61.98 602.74,-67.48 613.24,-68.83 611.79,-61.98"/>
</g>
<!-- Node14&#45;&gt;Node5 -->
<g id="edge22" class="edge">
<title>Node14&#45;&gt;Node5</title>
<path fill="none" stroke="midnightblue" d="M976.35,-63.95C941,-51.32 894.88,-34.85 867.32,-25.01"/>
<polygon fill="midnightblue" stroke="midnightblue" points="975.41,-67.33 986.01,-67.4 977.77,-60.74 975.41,-67.33"/>
</g>
<!-- Node14&#45;&gt;Node11 -->
<g id="edge24" class="edge">
<title>Node14&#45;&gt;Node11</title>
<path fill="none" stroke="midnightblue" d="M948.89,-99.37C877.25,-112.28 798.99,-125.93 747.57,-134.47"/>
<polygon fill="midnightblue" stroke="midnightblue" points="949.73,-102.78 958.95,-97.56 948.49,-95.89 949.73,-102.78"/>
</g>
<!-- Node15 -->
<g id="node15" class="node">
<title>Node15</title>
<g id="a_node15"><a xlink:href="ttf_8c.html" target="_top" xlink:title="Rendering text in truetype fonts.">
<polygon fill="white" stroke="black" points="963,-6 963,-25 1088,-25 1088,-6 963,-6"/>
<text text-anchor="middle" x="1025.5" y="-13" font-family="Fira Code" font-size="10.00">src/game/sdl/ttf.c</text>
</a>
</g>
</g>
<!-- Node14&#45;&gt;Node15 -->
<g id="edge23" class="edge">
<title>Node14&#45;&gt;Node15</title>
<path fill="none" stroke="midnightblue" d="M1025.5,-57.25C1025.5,-46.02 1025.5,-33.38 1025.5,-25.19"/>
<polygon fill="midnightblue" stroke="midnightblue" points="1022,-57.4 1025.5,-67.4 1029,-57.4 1022,-57.4"/>
</g>
</g>
</svg>
        <g id="navigator" transform="translate(0 0)" fill="#404254">
                <rect fill="#f2f5e9" fill-opacity="0.5" stroke="#606060" stroke-width=".5" x="0" y="0" width="60" height="60"/>
                <use id="zoomplus" xlink:href="#zoomPlus" x="17" y="9" onmousedown="handleZoom(evt,'in')"/>
                <use id="zoomminus" xlink:href="#zoomMin" x="42" y="9" onmousedown="handleZoom(evt,'out')"/>
                <use id="reset" xlink:href="#resetDef" x="30" y="36" onmousedown="handleReset()"/>
                <g id="arrowUp" xlink:href="#dirArrow" transform="translate(30 24)" onmousedown="handlePan(0,-1)">
                  <use xlink:href="#rim" fill="#404040">
                        <set attributeName="fill" to="#808080" begin="arrowUp.mouseover" end="arrowUp.mouseout"/>
                  </use>
                  <path fill="none" stroke="white" stroke-width="1.5" d="M0,-3.0v7 M-2.5,-0.5L0,-3.0L2.5,-0.5"/>
                </g>
                <g id="arrowRight" xlink:href="#dirArrow" transform="rotate(90) translate(36 -43)" onmousedown="handlePan(1,0)">
                  <use xlink:href="#rim" fill="#404040">
                        <set attributeName="fill" to="#808080" begin="arrowRight.mouseover" end="arrowRight.mouseout"/>
                  </use>
                  <path fill="none" stroke="white" stroke-width="1.5" d="M0,-3.0v7 M-2.5,-0.5L0,-3.0L2.5,-0.5"/>
                </g>
                <g id="arrowDown" xlink:href="#dirArrow" transform="rotate(180) translate(-30 -48)" onmousedown="handlePan(0,1)">
                  <use xlink:href="#rim" fill="#404040">
                        <set attributeName="fill" to="#808080" begin="arrowDown.mouseover" end="arrowDown.mouseout"/>
                  </use>
                  <path fill="none" stroke="white" stroke-width="1.5" d="M0,-3.0v7 M-2.5,-0.5L0,-3.0L2.5,-0.5"/>
                </g>
                <g id="arrowLeft" xlink:href="#dirArrow" transform="rotate(270) translate(-36 17)" onmousedown="handlePan(-1,0)">
                  <use xlink:href="#rim" fill="#404040">
                        <set attributeName="fill" to="#808080" begin="arrowLeft.mouseover" end="arrowLeft.mouseout"/>
                  </use>
                  <path fill="none" stroke="white" stroke-width="1.5" d="M0,-3.0v7 M-2.5,-0.5L0,-3.0L2.5,-0.5"/>
                </g>
        </g>
        <svg viewBox="0 0 15 15" width="100%" height="30px" preserveAspectRatio="xMaxYMin meet">
         <g id="arrow_out" transform="scale(0.3 0.3)">
          <a xlink:href="signal_8h__dep__incl_org.svg" target="_base">
           <rect id="button" ry="5" rx="5" y="6" x="6" height="38" width="38"
                fill="#f2f5e9" fill-opacity="0.5" stroke="#606060" stroke-width="1.0"/>
           <path id="arrow"
             d="M 11.500037,31.436501 C 11.940474,20.09759 22.043105,11.32322 32.158766,21.979434 L 37.068811,17.246167 C 37.068811,17.246167 37.088388,32 37.088388,32 L 22.160133,31.978069 C 22.160133,31.978069 26.997745,27.140456 26.997745,27.140456 C 18.528582,18.264221 13.291696,25.230495 11.500037,31.436501 z"
             style="fill:#404040;"/>
          </a>
         </g>
        </svg>
</svg>
