<?xml version="1.0" encoding="UTF-8" standalone="no"?>
<!DOCTYPE svg PUBLIC "-//W3C//DTD SVG 1.1//EN"
 "http://www.w3.org/Graphics/SVG/1.1/DTD/svg11.dtd">
<!-- Generated by graphviz version 3.0.0 (20220226.1711)
 -->
<!-- Title: GameContext Pages: 1 -->
<svg width="303pt" height="308pt"
 viewBox="0.00 0.00 303.00 308.00" xmlns="http://www.w3.org/2000/svg" xmlns:xlink="http://www.w3.org/1999/xlink">
<g id="graph0" class="graph" transform="scale(1 1) rotate(0) translate(4 304)">
<title>GameContext</title>
<polygon fill="white" stroke="transparent" points="-4,4 -4,-304 299,-304 299,4 -4,4"/>
<!-- Node1 -->
<g id="node1" class="node">
<title>Node1</title>
<g id="a_node1"><a xlink:title="Parent node of the entire game state.">
<polygon fill="#bfbfbf" stroke="black" points="157,-0.5 157,-19.5 240,-19.5 240,-0.5 157,-0.5"/>
<text text-anchor="middle" x="198.5" y="-7.5" font-family="Fira Code" font-size="10.00">GameContext</text>
</a>
</g>
</g>
<!-- Node2 -->
<g id="node2" class="node">
<title>Node2</title>
<g id="a_node2"><a xlink:href="struct_sim_clock.html" target="_top" xlink:title="Represents time inside the game world.">
<polygon fill="white" stroke="black" points="117,-78.5 117,-97.5 182,-97.5 182,-78.5 117,-78.5"/>
<text text-anchor="middle" x="149.5" y="-85.5" font-family="Fira Code" font-size="10.00">SimClock</text>
</a>
</g>
</g>
<!-- Node2&#45;&gt;Node1 -->
<g id="edge1" class="edge">
<title>Node2&#45;&gt;Node1</title>
<path fill="none" stroke="#9a32cd" stroke-dasharray="5,2" d="M160.74,-69.57C170.81,-53.95 185.15,-31.7 192.94,-19.62"/>
<polygon fill="#9a32cd" stroke="#9a32cd" points="157.6,-67.98 155.12,-78.28 163.48,-71.77 157.6,-67.98"/>
<text text-anchor="middle" x="199" y="-46.5" font-family="Fira Code" font-size="10.00"> clock</text>
</g>
<!-- Node3 -->
<g id="node3" class="node">
<title>Node3</title>
<g id="a_node3"><a xlink:href="struct_wall_clock.html" target="_top" xlink:title="Represents real outside&#45;world time.">
<polygon fill="white" stroke="black" points="114,-179.5 114,-198.5 185,-198.5 185,-179.5 114,-179.5"/>
<text text-anchor="middle" x="149.5" y="-186.5" font-family="Fira Code" font-size="10.00">WallClock</text>
</a>
</g>
</g>
<!-- Node3&#45;&gt;Node2 -->
<g id="edge2" class="edge">
<title>Node3&#45;&gt;Node2</title>
<path fill="none" stroke="#9a32cd" stroke-dasharray="5,2" d="M149.5,-169.03C149.5,-147.54 149.5,-113.47 149.5,-97.62"/>
<polygon fill="#9a32cd" stroke="#9a32cd" points="146,-169.21 149.5,-179.21 153,-169.21 146,-169.21"/>
<text text-anchor="middle" x="165" y="-124.5" font-family="Fira Code" font-size="10.00"> real</text>
</g>
<!-- Node4 -->
<g id="node4" class="node">
<title>Node4</title>
<g id="a_node4"><a xlink:title=" ">
<polygon fill="white" stroke="black" points="0,-280.5 0,-299.5 65,-299.5 65,-280.5 0,-280.5"/>
<text text-anchor="middle" x="32.5" y="-287.5" font-family="Fira Code" font-size="10.00">uint64_t</text>
</a>
</g>
</g>
<!-- Node4&#45;&gt;Node2 -->
<g id="edge4" class="edge">
<title>Node4&#45;&gt;Node2</title>
<path fill="none" stroke="#9a32cd" stroke-dasharray="5,2" d="M25.54,-270.72C16.45,-243.58 4.06,-191.96 25.5,-156 45.11,-123.11 87.09,-105.39 116.75,-96.59"/>
<polygon fill="#9a32cd" stroke="#9a32cd" points="22.35,-272.2 29.01,-280.44 28.94,-269.85 22.35,-272.2"/>
<text text-anchor="middle" x="65" y="-214" font-family="Fira Code" font-size="10.00"> Dt</text>
<text text-anchor="middle" x="65" y="-203" font-family="Fira Code" font-size="10.00">period</text>
<text text-anchor="middle" x="65" y="-192" font-family="Fira Code" font-size="10.00">t</text>
<text text-anchor="middle" x="65" y="-181" font-family="Fira Code" font-size="10.00">tick</text>
<text text-anchor="middle" x="65" y="-170" font-family="Fira Code" font-size="10.00">tpsAccumNs</text>
<text text-anchor="middle" x="65" y="-159" font-family="Fira Code" font-size="10.00">tpsAccumTicks</text>
</g>
<!-- Node4&#45;&gt;Node3 -->
<g id="edge3" class="edge">
<title>Node4&#45;&gt;Node3</title>
<path fill="none" stroke="#9a32cd" stroke-dasharray="5,2" d="M50.53,-273.75C75.41,-252.69 119.46,-215.42 139.31,-198.62"/>
<polygon fill="#9a32cd" stroke="#9a32cd" points="48.26,-271.08 42.88,-280.21 52.78,-276.43 48.26,-271.08"/>
<text text-anchor="middle" x="94" y="-254" font-family="Fira Code" font-size="10.00"> t</text>
<text text-anchor="middle" x="94" y="-243" font-family="Fira Code" font-size="10.00">t0</text>
</g>
<!-- Node5 -->
<g id="node5" class="node">
<title>Node5</title>
<g id="a_node5"><a xlink:title=" ">
<polygon fill="white" stroke="black" points="203,-179.5 203,-198.5 250,-198.5 250,-179.5 203,-179.5"/>
<text text-anchor="middle" x="226.5" y="-186.5" font-family="Fira Code" font-size="10.00">float</text>
</a>
</g>
</g>
<!-- Node5&#45;&gt;Node2 -->
<g id="edge5" class="edge">
<title>Node5&#45;&gt;Node2</title>
<path fill="none" stroke="#9a32cd" stroke-dasharray="5,2" d="M218.4,-169.92C210.96,-154.55 198.94,-132.43 184.5,-116 178.32,-108.97 170.08,-102.5 163.15,-97.67"/>
<polygon fill="#9a32cd" stroke="#9a32cd" points="215.38,-171.74 222.78,-179.33 221.73,-168.79 215.38,-171.74"/>
<text text-anchor="middle" x="209" y="-130" font-family="Fira Code" font-size="10.00"> dt</text>
<text text-anchor="middle" x="209" y="-119" font-family="Fira Code" font-size="10.00">tps</text>
</g>
<!-- Node6 -->
<g id="node6" class="node">
<title>Node6</title>
<g id="a_node6"><a xlink:title=" ">
<polygon fill="white" stroke="black" points="200,-78.5 200,-97.5 295,-97.5 295,-78.5 200,-78.5"/>
<text text-anchor="middle" x="247.5" y="-85.5" font-family="Fira Code" font-size="10.00">volatile bool</text>
</a>
</g>
</g>
<!-- Node6&#45;&gt;Node1 -->
<g id="edge6" class="edge">
<title>Node6&#45;&gt;Node1</title>
<path fill="none" stroke="#9a32cd" stroke-dasharray="5,2" d="M239.17,-69.09C234.46,-59.56 228.18,-47.83 221.5,-38 217.07,-31.48 211.32,-24.73 206.68,-19.61"/>
<polygon fill="#9a32cd" stroke="#9a32cd" points="236.14,-70.85 243.62,-78.35 242.45,-67.82 236.14,-70.85"/>
<text text-anchor="middle" x="255" y="-52" font-family="Fira Code" font-size="10.00"> paused</text>
<text text-anchor="middle" x="255" y="-41" font-family="Fira Code" font-size="10.00">running</text>
</g>
</g>
</svg>
