<?xml version="1.0" encoding="UTF-8" standalone="no"?>
<!DOCTYPE svg PUBLIC "-//W3C//DTD SVG 1.1//EN"
 "http://www.w3.org/Graphics/SVG/1.1/DTD/svg11.dtd">
<!-- Generated by graphviz version 3.0.0 (20220226.1711)
 -->
<!-- Title: InputActionArgs Pages: 1 -->
<svg width="1141pt" height="902pt"
 viewBox="0.00 0.00 1141.00 902.41" xmlns="http://www.w3.org/2000/svg" xmlns:xlink="http://www.w3.org/1999/xlink">
<g id="graph0" class="graph" transform="scale(1 1) rotate(0) translate(4 898.41)">
<title>InputActionArgs</title>
<polygon fill="white" stroke="transparent" points="-4,4 -4,-898.41 1137,-898.41 1137,4 -4,4"/>
<!-- Node1 -->
<g id="node1" class="node">
<title>Node1</title>
<g id="a_node1"><a xlink:title="Arguments to an input action callback.">
<polygon fill="#bfbfbf" stroke="black" points="252,-445.91 252,-464.91 359,-464.91 359,-445.91 252,-445.91"/>
<text text-anchor="middle" x="305.5" y="-452.91" font-family="Fira Code" font-size="10.00">InputActionArgs</text>
</a>
</g>
</g>
<!-- Node4 -->
<g id="node4" class="node">
<title>Node4</title>
<g id="a_node4"><a xlink:href="struct_input_action.html" target="_top" xlink:title="An input action is triggered by a button binding and may respond to either activation or deactivation...">
<polygon fill="white" stroke="black" points="495,-495.91 495,-514.91 578,-514.91 578,-495.91 495,-495.91"/>
<text text-anchor="middle" x="536.5" y="-502.91" font-family="Fira Code" font-size="10.00">InputAction</text>
</a>
</g>
</g>
<!-- Node1&#45;&gt;Node4 -->
<g id="edge5" class="edge">
<title>Node1&#45;&gt;Node4</title>
<path fill="none" stroke="#9a32cd" stroke-dasharray="5,2" d="M338.26,-468.72C351.84,-473.96 367.99,-479.63 383,-483.41 420.35,-492.83 463.93,-498.62 494.92,-501.87"/>
<polygon fill="#9a32cd" stroke="#9a32cd" points="339.46,-465.43 328.87,-465 336.88,-471.94 339.46,-465.43"/>
<text text-anchor="middle" x="416.5" y="-498.41" font-family="Fira Code" font-size="10.00"> on_action</text>
</g>
<!-- Node2 -->
<g id="node2" class="node">
<title>Node2</title>
<g id="a_node2"><a xlink:href="struct_context.html" target="_top" xlink:title="The plugin context is a persistent state representing the entire application to the game plugin acros...">
<polygon fill="white" stroke="black" points="1074,-428.91 1074,-447.91 1133,-447.91 1133,-428.91 1074,-428.91"/>
<text text-anchor="middle" x="1103.5" y="-435.91" font-family="Fira Code" font-size="10.00">Context</text>
</a>
</g>
</g>
<!-- Node2&#45;&gt;Node1 -->
<g id="edge1" class="edge">
<title>Node2&#45;&gt;Node1</title>
<path fill="none" stroke="#9a32cd" stroke-dasharray="5,2" d="M1063.69,-438.41C1034.49,-438.41 993.48,-438.41 957.5,-438.41 535.5,-438.41 535.5,-438.41 535.5,-438.41 474.9,-438.41 405.53,-444.41 359.17,-449.28"/>
<polygon fill="#9a32cd" stroke="#9a32cd" points="1063.89,-441.91 1073.89,-438.41 1063.89,-434.91 1063.89,-441.91"/>
<text text-anchor="middle" x="758.5" y="-441.41" font-family="Fira Code" font-size="10.00"> ctx</text>
</g>
<!-- Node3 -->
<g id="node3" class="node">
<title>Node3</title>
<g id="a_node3"><a xlink:href="struct_host_context.html" target="_top" xlink:title="Provides the plugin with an interface to the host for platform and application&#45;level operations.">
<polygon fill="white" stroke="black" points="717,-495.91 717,-514.91 800,-514.91 800,-495.91 717,-495.91"/>
<text text-anchor="middle" x="758.5" y="-502.91" font-family="Fira Code" font-size="10.00">HostContext</text>
</a>
</g>
</g>
<!-- Node3&#45;&gt;Node2 -->
<g id="edge2" class="edge">
<title>Node3&#45;&gt;Node2</title>
<path fill="none" stroke="#9a32cd" stroke-dasharray="5,2" d="M810.32,-498.16C869.67,-489.27 970.6,-472.83 1056,-452.41 1061.74,-451.04 1067.82,-449.37 1073.62,-447.67"/>
<polygon fill="#9a32cd" stroke="#9a32cd" points="809.47,-494.75 800.09,-499.68 810.5,-501.67 809.47,-494.75"/>
<text text-anchor="middle" x="956.5" y="-484.41" font-family="Fira Code" font-size="10.00"> host</text>
</g>
<!-- Node4&#45;&gt;Node1 -->
<g id="edge47" class="edge">
<title>Node4&#45;&gt;Node1</title>
<path fill="none" stroke="#9a32cd" stroke-dasharray="5,2" d="M507.18,-491.44C490.85,-483.99 469.71,-475.37 450,-470.41 420.48,-462.99 386.66,-459.24 359.27,-457.34"/>
<polygon fill="#9a32cd" stroke="#9a32cd" points="506.13,-494.81 516.67,-495.88 509.1,-488.47 506.13,-494.81"/>
<text text-anchor="middle" x="416.5" y="-473.41" font-family="Fira Code" font-size="10.00"> action</text>
</g>
<!-- Node4&#45;&gt;Node3 -->
<g id="edge3" class="edge">
<title>Node4&#45;&gt;Node3</title>
<path fill="none" stroke="#9a32cd" stroke-dasharray="5,2" d="M588.21,-505.41C627.24,-505.41 680.47,-505.41 716.76,-505.41"/>
<polygon fill="#9a32cd" stroke="#9a32cd" points="588.11,-501.91 578.11,-505.41 588.11,-508.91 588.11,-501.91"/>
<text text-anchor="middle" x="656.5" y="-508.41" font-family="Fira Code" font-size="10.00"> quitAction</text>
</g>
<!-- Node10 -->
<g id="node10" class="node">
<title>Node10</title>
<g id="a_node10"><a xlink:href="struct_sdl_context.html" target="_top" xlink:title="Parent node of the entire SDL state.">
<polygon fill="white" stroke="black" points="918,-613.91 918,-632.91 995,-632.91 995,-613.91 918,-613.91"/>
<text text-anchor="middle" x="956.5" y="-620.91" font-family="Fira Code" font-size="10.00">SdlContext</text>
</a>
</g>
</g>
<!-- Node4&#45;&gt;Node10 -->
<g id="edge18" class="edge">
<title>Node4&#45;&gt;Node10</title>
<path fill="none" stroke="#9a32cd" stroke-dasharray="5,2" d="M588.04,-517.08C642.79,-529.98 732.57,-551.95 809,-574.41 851.33,-586.85 899.75,-603.54 928.95,-613.88"/>
<polygon fill="#9a32cd" stroke="#9a32cd" points="588.77,-513.65 578.23,-514.77 587.17,-520.47 588.77,-513.65"/>
<text text-anchor="middle" x="758.5" y="-577.41" font-family="Fira Code" font-size="10.00"> clickAction</text>
</g>
<!-- Node26 -->
<g id="node26" class="node">
<title>Node26</title>
<g id="a_node26"><a xlink:href="struct_action_binding.html" target="_top" xlink:title="Closes over the callback for an input binding to a particular type of input device,...">
<polygon fill="white" stroke="black" points="711,-305.91 711,-324.91 806,-324.91 806,-305.91 711,-305.91"/>
<text text-anchor="middle" x="758.5" y="-312.91" font-family="Fira Code" font-size="10.00">ActionBinding</text>
</a>
</g>
</g>
<!-- Node4&#45;&gt;Node26 -->
<g id="edge31" class="edge">
<title>Node4&#45;&gt;Node26</title>
<path fill="none" stroke="#9a32cd" stroke-dasharray="5,2" d="M553.48,-488.51C582.62,-458.17 647.01,-393.26 708,-346.41 718.29,-338.51 730.67,-330.76 740.47,-324.98"/>
<polygon fill="#9a32cd" stroke="#9a32cd" points="550.92,-486.13 546.55,-495.78 555.98,-490.96 550.92,-486.13"/>
<text text-anchor="middle" x="656.5" y="-419.41" font-family="Fira Code" font-size="10.00"> action</text>
</g>
<!-- Node5 -->
<g id="node5" class="node">
<title>Node5</title>
<g id="a_node5"><a xlink:title=" ">
<polygon fill="white" stroke="black" points="279,-523.91 279,-542.91 332,-542.91 332,-523.91 279,-523.91"/>
<text text-anchor="middle" x="305.5" y="-530.91" font-family="Fira Code" font-size="10.00">char *</text>
</a>
</g>
</g>
<!-- Node5&#45;&gt;Node4 -->
<g id="edge4" class="edge">
<title>Node5&#45;&gt;Node4</title>
<path fill="none" stroke="#9a32cd" stroke-dasharray="5,2" d="M342.27,-529.71C371.32,-526.63 413.34,-522.03 450,-517.41 464.57,-515.58 480.52,-513.39 494.65,-511.39"/>
<polygon fill="#9a32cd" stroke="#9a32cd" points="341.77,-526.24 332.19,-530.77 342.5,-533.21 341.77,-526.24"/>
<text text-anchor="middle" x="416.5" y="-527.41" font-family="Fira Code" font-size="10.00"> name</text>
</g>
<!-- Node6 -->
<g id="node6" class="node">
<title>Node6</title>
<g id="a_node6"><a xlink:href="struct_log_state.html" target="_top" xlink:title="Used to persist the log output streams between hot&#45;reloads.">
<polygon fill="white" stroke="black" points="504,-594.91 504,-613.91 569,-613.91 569,-594.91 504,-594.91"/>
<text text-anchor="middle" x="536.5" y="-601.91" font-family="Fira Code" font-size="10.00">LogState</text>
</a>
</g>
</g>
<!-- Node6&#45;&gt;Node3 -->
<g id="edge6" class="edge">
<title>Node6&#45;&gt;Node3</title>
<path fill="none" stroke="#9a32cd" stroke-dasharray="5,2" d="M568.32,-590.54C613.65,-570.14 697.14,-532.58 736.24,-514.98"/>
<polygon fill="#9a32cd" stroke="#9a32cd" points="566.68,-587.45 559,-594.74 569.55,-593.83 566.68,-587.45"/>
<text text-anchor="middle" x="656.5" y="-566.41" font-family="Fira Code" font-size="10.00"> log</text>
</g>
<!-- Node7 -->
<g id="node7" class="node">
<title>Node7</title>
<g id="a_node7"><a xlink:title=" ">
<polygon fill="white" stroke="black" points="288,-721.91 288,-740.91 323,-740.91 323,-721.91 288,-721.91"/>
<text text-anchor="middle" x="305.5" y="-728.91" font-family="Fira Code" font-size="10.00">int</text>
</a>
</g>
</g>
<!-- Node7&#45;&gt;Node6 -->
<g id="edge7" class="edge">
<title>Node7&#45;&gt;Node6</title>
<path fill="none" stroke="#9a32cd" stroke-dasharray="5,2" d="M333.53,-733.24C364.31,-733.97 414.87,-730.96 450,-707.41 462.6,-698.97 458.85,-690.51 468,-678.41 486.67,-653.73 512.01,-627.59 525.72,-613.96"/>
<polygon fill="#9a32cd" stroke="#9a32cd" points="333.28,-729.73 323.15,-732.83 333,-736.72 333.28,-729.73"/>
<text text-anchor="middle" x="416.5" y="-733.41" font-family="Fira Code" font-size="10.00"> level</text>
</g>
<!-- Node14 -->
<g id="node14" class="node">
<title>Node14</title>
<g id="a_node14"><a xlink:href="struct_text.html" target="_top" xlink:title="Represents a texture generated by rendering text in a TTF font.">
<polygon fill="white" stroke="black" points="516,-794.91 516,-813.91 557,-813.91 557,-794.91 516,-794.91"/>
<text text-anchor="middle" x="536.5" y="-801.91" font-family="Fira Code" font-size="10.00">Text</text>
</a>
</g>
</g>
<!-- Node7&#45;&gt;Node14 -->
<g id="edge17" class="edge">
<title>Node7&#45;&gt;Node14</title>
<path fill="none" stroke="#9a32cd" stroke-dasharray="5,2" d="M332.95,-736.38C362.05,-742.19 410.01,-752.77 450,-766.41 473.52,-774.44 499.47,-786.44 516.54,-794.81"/>
<polygon fill="#9a32cd" stroke="#9a32cd" points="333.62,-732.95 323.13,-734.46 332.27,-739.82 333.62,-732.95"/>
<text text-anchor="middle" x="416.5" y="-780.41" font-family="Fira Code" font-size="10.00"> height</text>
<text text-anchor="middle" x="416.5" y="-769.41" font-family="Fira Code" font-size="10.00">width</text>
</g>
<!-- Node36 -->
<g id="node36" class="node">
<title>Node36</title>
<g id="a_node36"><a xlink:href="struct_mouse_axes.html" target="_top" xlink:title="Represents the mouse state.">
<polygon fill="white" stroke="black" points="501,-368.91 501,-387.91 572,-387.91 572,-368.91 501,-368.91"/>
<text text-anchor="middle" x="536.5" y="-375.91" font-family="Fira Code" font-size="10.00">MouseAxes</text>
</a>
</g>
</g>
<!-- Node7&#45;&gt;Node36 -->
<g id="edge45" class="edge">
<title>Node7&#45;&gt;Node36</title>
<path fill="none" stroke="#9a32cd" stroke-dasharray="5,2" d="M316.73,-713.23C329.54,-692.13 353.42,-657.77 383,-638.41 408.9,-621.47 429.72,-642.8 450,-619.41 489.08,-574.35 447.74,-542.52 468,-486.41 482.34,-446.69 512.86,-406.12 527.43,-388.08"/>
<polygon fill="#9a32cd" stroke="#9a32cd" points="313.69,-711.5 311.65,-721.89 319.73,-715.04 313.69,-711.5"/>
<text text-anchor="middle" x="416.5" y="-663.41" font-family="Fira Code" font-size="10.00"> scroll</text>
<text text-anchor="middle" x="416.5" y="-652.41" font-family="Fira Code" font-size="10.00">x</text>
<text text-anchor="middle" x="416.5" y="-641.41" font-family="Fira Code" font-size="10.00">y</text>
</g>
<!-- Node8 -->
<g id="node8" class="node">
<title>Node8</title>
<g id="a_node8"><a xlink:title=" ">
<polygon fill="white" stroke="black" points="285,-561.91 285,-580.91 326,-580.91 326,-561.91 285,-561.91"/>
<text text-anchor="middle" x="305.5" y="-568.91" font-family="Fira Code" font-size="10.00">bool</text>
</a>
</g>
</g>
<!-- Node8&#45;&gt;Node6 -->
<g id="edge8" class="edge">
<title>Node8&#45;&gt;Node6</title>
<path fill="none" stroke="#9a32cd" stroke-dasharray="5,2" d="M336.31,-575.09C365.36,-578.74 410.76,-584.6 450,-590.41 467.86,-593.06 487.76,-596.3 503.86,-599"/>
<polygon fill="#9a32cd" stroke="#9a32cd" points="336.38,-571.57 326.02,-573.81 335.51,-578.52 336.38,-571.57"/>
<text text-anchor="middle" x="416.5" y="-593.41" font-family="Fira Code" font-size="10.00"> quiet</text>
</g>
<!-- Node17 -->
<g id="node17" class="node">
<title>Node17</title>
<g id="a_node17"><a xlink:href="struct_sdl_mouse_cursor.html" target="_top" xlink:title="Represents the mouse cursor state.">
<polygon fill="white" stroke="black" points="486,-687.91 486,-706.91 587,-706.91 587,-687.91 486,-687.91"/>
<text text-anchor="middle" x="536.5" y="-694.91" font-family="Fira Code" font-size="10.00">SdlMouseCursor</text>
</a>
</g>
</g>
<!-- Node8&#45;&gt;Node17 -->
<g id="edge21" class="edge">
<title>Node8&#45;&gt;Node17</title>
<path fill="none" stroke="#9a32cd" stroke-dasharray="5,2" d="M336.18,-574.86C346.63,-577.52 357.61,-582.2 365,-590.41 390.83,-619.12 354.82,-649.02 383,-675.41 397.59,-689.08 447.15,-694.29 485.86,-696.26"/>
<polygon fill="#9a32cd" stroke="#9a32cd" points="336.54,-571.36 326.05,-572.82 335.16,-578.23 336.54,-571.36"/>
<text text-anchor="middle" x="416.5" y="-695.41" font-family="Fira Code" font-size="10.00"> visible</text>
</g>
<!-- Node29 -->
<g id="node29" class="node">
<title>Node29</title>
<g id="a_node29"><a xlink:href="struct_keybind.html" target="_top" xlink:title="Represents a keyboard key combination the state of which is being tracked by an action.">
<polygon fill="white" stroke="black" points="507,-285.91 507,-304.91 566,-304.91 566,-285.91 507,-285.91"/>
<text text-anchor="middle" x="536.5" y="-292.91" font-family="Fira Code" font-size="10.00">Keybind</text>
</a>
</g>
</g>
<!-- Node8&#45;&gt;Node29 -->
<g id="edge37" class="edge">
<title>Node8&#45;&gt;Node29</title>
<path fill="none" stroke="#9a32cd" stroke-dasharray="5,2" d="M336.17,-568.57C346.86,-566 358,-561.22 365,-552.41 394,-515.91 353.82,-379.76 383,-343.41 402.54,-319.08 420.8,-333.44 450,-322.41 458.19,-319.32 459.77,-317.38 468,-314.41 480.6,-309.87 494.83,-305.72 506.97,-302.47"/>
<polygon fill="#9a32cd" stroke="#9a32cd" points="335.4,-565.15 326.2,-570.42 336.67,-572.03 335.4,-565.15"/>
<text text-anchor="middle" x="416.5" y="-346.41" font-family="Fira Code" font-size="10.00"> state</text>
</g>
<!-- Node32 -->
<g id="node32" class="node">
<title>Node32</title>
<g id="a_node32"><a xlink:href="struct_mousebind.html" target="_top" xlink:title="Represents a mouse button combination the state of which is being tracked by an action.">
<polygon fill="white" stroke="black" points="501,-323.91 501,-342.91 572,-342.91 572,-323.91 501,-323.91"/>
<text text-anchor="middle" x="536.5" y="-330.91" font-family="Fira Code" font-size="10.00">Mousebind</text>
</a>
</g>
</g>
<!-- Node8&#45;&gt;Node32 -->
<g id="edge41" class="edge">
<title>Node8&#45;&gt;Node32</title>
<path fill="none" stroke="#9a32cd" stroke-dasharray="5,2" d="M336.04,-568.22C346.62,-565.59 357.71,-560.88 365,-552.41 396.75,-515.54 360.24,-487.42 383,-444.41 402.26,-408.02 421.68,-410.31 450,-380.41 458.45,-371.49 457.96,-366.51 468,-359.41 477.85,-352.46 489.8,-347.06 500.9,-343.04"/>
<polygon fill="#9a32cd" stroke="#9a32cd" points="335.34,-564.79 326.2,-570.14 336.69,-571.66 335.34,-564.79"/>
<text text-anchor="middle" x="416.5" y="-447.41" font-family="Fira Code" font-size="10.00"> state</text>
</g>
<!-- Node9 -->
<g id="node9" class="node">
<title>Node9</title>
<g id="a_node9"><a xlink:title=" ">
<polygon fill="white" stroke="black" points="279,-599.91 279,-618.91 332,-618.91 332,-599.91 279,-599.91"/>
<text text-anchor="middle" x="305.5" y="-606.91" font-family="Fira Code" font-size="10.00">FILE *</text>
</a>
</g>
</g>
<!-- Node9&#45;&gt;Node6 -->
<g id="edge9" class="edge">
<title>Node9&#45;&gt;Node6</title>
<path fill="none" stroke="#9a32cd" stroke-dasharray="5,2" d="M342.38,-608.63C386.76,-607.66 461.63,-606.03 503.93,-605.1"/>
<polygon fill="#9a32cd" stroke="#9a32cd" points="342.25,-605.13 332.32,-608.85 342.4,-612.13 342.25,-605.13"/>
<text text-anchor="middle" x="416.5" y="-610.41" font-family="Fira Code" font-size="10.00"> file</text>
</g>
<!-- Node10&#45;&gt;Node2 -->
<g id="edge10" class="edge">
<title>Node10&#45;&gt;Node2</title>
<path fill="none" stroke="#9a32cd" stroke-dasharray="5,2" d="M973.23,-606.39C993.27,-584.41 1028.59,-544.67 1056,-508.41 1071.66,-487.7 1088.02,-461.95 1096.54,-448.18"/>
<polygon fill="#9a32cd" stroke="#9a32cd" points="970.52,-604.17 966.35,-613.9 975.68,-608.9 970.52,-604.17"/>
<text text-anchor="middle" x="1037.5" y="-556.41" font-family="Fira Code" font-size="10.00"> sdl</text>
</g>
<!-- Node11 -->
<g id="node11" class="node">
<title>Node11</title>
<g id="a_node11"><a xlink:title=" ">
<polygon fill="white" stroke="black" points="714,-632.91 714,-651.91 803,-651.91 803,-632.91 714,-632.91"/>
<text text-anchor="middle" x="758.5" y="-639.91" font-family="Fira Code" font-size="10.00">SDL_Window *</text>
</a>
</g>
</g>
<!-- Node11&#45;&gt;Node10 -->
<g id="edge11" class="edge">
<title>Node11&#45;&gt;Node10</title>
<path fill="none" stroke="#9a32cd" stroke-dasharray="5,2" d="M813.49,-637.18C846.66,-633.96 888.33,-629.93 917.93,-627.06"/>
<polygon fill="#9a32cd" stroke="#9a32cd" points="813.1,-633.7 803.49,-638.15 813.78,-640.67 813.1,-633.7"/>
<text text-anchor="middle" x="860.5" y="-638.41" font-family="Fira Code" font-size="10.00"> window</text>
</g>
<!-- Node12 -->
<g id="node12" class="node">
<title>Node12</title>
<g id="a_node12"><a xlink:title=" ">
<polygon fill="white" stroke="black" points="708,-594.91 708,-613.91 809,-613.91 809,-594.91 708,-594.91"/>
<text text-anchor="middle" x="758.5" y="-601.91" font-family="Fira Code" font-size="10.00">SDL_Renderer *</text>
</a>
</g>
</g>
<!-- Node12&#45;&gt;Node10 -->
<g id="edge12" class="edge">
<title>Node12&#45;&gt;Node10</title>
<path fill="none" stroke="#9a32cd" stroke-dasharray="5,2" d="M819.2,-607.94C842.56,-609.56 869.57,-611.72 894,-614.41 901.72,-615.26 909.97,-616.35 917.83,-617.47"/>
<polygon fill="#9a32cd" stroke="#9a32cd" points="819.3,-604.44 809.08,-607.25 818.82,-611.42 819.3,-604.44"/>
<text text-anchor="middle" x="860.5" y="-617.41" font-family="Fira Code" font-size="10.00"> renderer</text>
</g>
<!-- Node13 -->
<g id="node13" class="node">
<title>Node13</title>
<g id="a_node13"><a xlink:href="struct_font_book.html" target="_top" xlink:title=" ">
<polygon fill="white" stroke="black" points="726,-747.91 726,-766.91 791,-766.91 791,-747.91 726,-747.91"/>
<text text-anchor="middle" x="758.5" y="-754.91" font-family="Fira Code" font-size="10.00">FontBook</text>
</a>
</g>
</g>
<!-- Node13&#45;&gt;Node10 -->
<g id="edge13" class="edge">
<title>Node13&#45;&gt;Node10</title>
<path fill="none" stroke="#9a32cd" stroke-dasharray="5,2" d="M801.14,-749.03C829.42,-741.8 866.54,-729.16 894,-708.41 921.76,-687.44 942.33,-650.45 950.99,-633.01"/>
<polygon fill="#9a32cd" stroke="#9a32cd" points="800.05,-745.7 791.15,-751.46 801.7,-752.5 800.05,-745.7"/>
<text text-anchor="middle" x="860.5" y="-743.41" font-family="Fira Code" font-size="10.00"> fonts</text>
</g>
<!-- Node14&#45;&gt;Node13 -->
<g id="edge14" class="edge">
<title>Node14&#45;&gt;Node13</title>
<path fill="none" stroke="#9a32cd" stroke-dasharray="5,2" d="M567.02,-798.11C608.37,-789.27 683.25,-773.28 725.76,-764.19"/>
<polygon fill="#9a32cd" stroke="#9a32cd" points="566.07,-794.73 557.02,-800.24 567.53,-801.58 566.07,-794.73"/>
<text text-anchor="middle" x="656.5" y="-787.41" font-family="Fira Code" font-size="10.00"> fpsFont</text>
</g>
<!-- Node15 -->
<g id="node15" class="node">
<title>Node15</title>
<g id="a_node15"><a xlink:title=" ">
<polygon fill="white" stroke="black" points="267,-874.91 267,-893.91 344,-893.91 344,-874.91 267,-874.91"/>
<text text-anchor="middle" x="305.5" y="-881.91" font-family="Fira Code" font-size="10.00">TTF_Font *</text>
</a>
</g>
</g>
<!-- Node15&#45;&gt;Node14 -->
<g id="edge15" class="edge">
<title>Node15&#45;&gt;Node14</title>
<path fill="none" stroke="#9a32cd" stroke-dasharray="5,2" d="M354.23,-876.35C382.6,-870.76 418.99,-862.2 450,-850.41 476,-840.53 504,-824.28 520.63,-813.97"/>
<polygon fill="#9a32cd" stroke="#9a32cd" points="353.33,-872.96 344.16,-878.27 354.64,-879.83 353.33,-872.96"/>
<text text-anchor="middle" x="416.5" y="-872.41" font-family="Fira Code" font-size="10.00"> font</text>
</g>
<!-- Node16 -->
<g id="node16" class="node">
<title>Node16</title>
<g id="a_node16"><a xlink:title=" ">
<polygon fill="white" stroke="black" points="258,-836.91 258,-855.91 353,-855.91 353,-836.91 258,-836.91"/>
<text text-anchor="middle" x="305.5" y="-843.91" font-family="Fira Code" font-size="10.00">SDL_Texture *</text>
</a>
</g>
</g>
<!-- Node16&#45;&gt;Node14 -->
<g id="edge16" class="edge">
<title>Node16&#45;&gt;Node14</title>
<path fill="none" stroke="#9a32cd" stroke-dasharray="5,2" d="M363.41,-838.73C389.82,-834.89 421.6,-829.9 450,-824.41 472.75,-820.02 498.63,-813.79 515.9,-809.46"/>
<polygon fill="#9a32cd" stroke="#9a32cd" points="362.59,-835.31 353.19,-840.19 363.58,-842.24 362.59,-835.31"/>
<text text-anchor="middle" x="416.5" y="-838.41" font-family="Fira Code" font-size="10.00"> tex</text>
</g>
<!-- Node17&#45;&gt;Node10 -->
<g id="edge19" class="edge">
<title>Node17&#45;&gt;Node10</title>
<path fill="none" stroke="#9a32cd" stroke-dasharray="5,2" d="M597.3,-694.69C668.96,-690.24 792.14,-678.87 894,-650.41 909.16,-646.18 925.44,-638.9 937.43,-632.97"/>
<polygon fill="#9a32cd" stroke="#9a32cd" points="596.88,-691.2 587.11,-695.29 597.3,-698.19 596.88,-691.2"/>
<text text-anchor="middle" x="758.5" y="-686.41" font-family="Fira Code" font-size="10.00"> mouseCursor</text>
</g>
<!-- Node18 -->
<g id="node18" class="node">
<title>Node18</title>
<g id="a_node18"><a xlink:title=" ">
<polygon fill="white" stroke="black" points="270,-798.91 270,-817.91 341,-817.91 341,-798.91 270,-798.91"/>
<text text-anchor="middle" x="305.5" y="-805.91" font-family="Fira Code" font-size="10.00">SDL_Color</text>
</a>
</g>
</g>
<!-- Node18&#45;&gt;Node17 -->
<g id="edge20" class="edge">
<title>Node18&#45;&gt;Node17</title>
<path fill="none" stroke="#9a32cd" stroke-dasharray="5,2" d="M351.23,-809.72C380.78,-808.83 419.52,-804.18 450,-788.41 487.54,-768.99 517.5,-726.36 529.64,-707.14"/>
<polygon fill="#9a32cd" stroke="#9a32cd" points="351.13,-806.22 341.2,-809.89 351.25,-813.22 351.13,-806.22"/>
<text text-anchor="middle" x="416.5" y="-809.41" font-family="Fira Code" font-size="10.00"> color</text>
</g>
<!-- Node19 -->
<g id="node19" class="node">
<title>Node19</title>
<g id="a_node19"><a xlink:href="struct_game_context.html" target="_top" xlink:title="Parent node of the entire game state.">
<polygon fill="white" stroke="black" points="915,-112.91 915,-131.91 998,-131.91 998,-112.91 915,-112.91"/>
<text text-anchor="middle" x="956.5" y="-119.91" font-family="Fira Code" font-size="10.00">GameContext</text>
</a>
</g>
</g>
<!-- Node19&#45;&gt;Node2 -->
<g id="edge22" class="edge">
<title>Node19&#45;&gt;Node2</title>
<path fill="none" stroke="#9a32cd" stroke-dasharray="5,2" d="M966.33,-141.66C993.91,-201.75 1077.78,-384.54 1098.05,-428.72"/>
<polygon fill="#9a32cd" stroke="#9a32cd" points="969.35,-139.85 962,-132.22 962.99,-142.77 969.35,-139.85"/>
<text text-anchor="middle" x="1037.5" y="-338.41" font-family="Fira Code" font-size="10.00"> game</text>
</g>
<!-- Node20 -->
<g id="node20" class="node">
<title>Node20</title>
<g id="a_node20"><a xlink:href="struct_sim_clock.html" target="_top" xlink:title="Represents time inside the game world.">
<polygon fill="white" stroke="black" points="726,-108.91 726,-127.91 791,-127.91 791,-108.91 726,-108.91"/>
<text text-anchor="middle" x="758.5" y="-115.91" font-family="Fira Code" font-size="10.00">SimClock</text>
</a>
</g>
</g>
<!-- Node20&#45;&gt;Node19 -->
<g id="edge23" class="edge">
<title>Node20&#45;&gt;Node19</title>
<path fill="none" stroke="#9a32cd" stroke-dasharray="5,2" d="M801.8,-119.28C835.26,-119.96 881.69,-120.91 914.74,-121.58"/>
<polygon fill="#9a32cd" stroke="#9a32cd" points="801.5,-115.77 791.43,-119.07 801.35,-122.77 801.5,-115.77"/>
<text text-anchor="middle" x="860.5" y="-124.41" font-family="Fira Code" font-size="10.00"> clock</text>
</g>
<!-- Node21 -->
<g id="node21" class="node">
<title>Node21</title>
<g id="a_node21"><a xlink:href="struct_wall_clock.html" target="_top" xlink:title="Represents real outside&#45;world time.">
<polygon fill="white" stroke="black" points="501,-88.91 501,-107.91 572,-107.91 572,-88.91 501,-88.91"/>
<text text-anchor="middle" x="536.5" y="-95.91" font-family="Fira Code" font-size="10.00">WallClock</text>
</a>
</g>
</g>
<!-- Node21&#45;&gt;Node20 -->
<g id="edge24" class="edge">
<title>Node21&#45;&gt;Node20</title>
<path fill="none" stroke="#9a32cd" stroke-dasharray="5,2" d="M582.36,-100.93C612.78,-102.82 653.86,-105.7 690,-109.41 701.76,-110.62 714.63,-112.26 725.95,-113.81"/>
<polygon fill="#9a32cd" stroke="#9a32cd" points="582.27,-97.42 572.07,-100.31 581.84,-104.41 582.27,-97.42"/>
<text text-anchor="middle" x="656.5" y="-112.41" font-family="Fira Code" font-size="10.00"> real</text>
</g>
<!-- Node22 -->
<g id="node22" class="node">
<title>Node22</title>
<g id="a_node22"><a xlink:title=" ">
<polygon fill="white" stroke="black" points="273,-41.91 273,-60.91 338,-60.91 338,-41.91 273,-41.91"/>
<text text-anchor="middle" x="305.5" y="-48.91" font-family="Fira Code" font-size="10.00">uint64_t</text>
</a>
</g>
</g>
<!-- Node22&#45;&gt;Node20 -->
<g id="edge26" class="edge">
<title>Node22&#45;&gt;Node20</title>
<path fill="none" stroke="#9a32cd" stroke-dasharray="5,2" d="M338.29,-38.11C393.97,-16.81 512.05,19.38 605,-13.41 660.44,-32.97 657.83,-65.77 708,-96.41 715.7,-101.12 724.59,-105.39 732.69,-108.89"/>
<polygon fill="#9a32cd" stroke="#9a32cd" points="336.99,-34.86 328.96,-41.76 339.55,-41.37 336.99,-34.86"/>
<text text-anchor="middle" x="536.5" y="-71.41" font-family="Fira Code" font-size="10.00"> Dt</text>
<text text-anchor="middle" x="536.5" y="-60.41" font-family="Fira Code" font-size="10.00">period</text>
<text text-anchor="middle" x="536.5" y="-49.41" font-family="Fira Code" font-size="10.00">t</text>
<text text-anchor="middle" x="536.5" y="-38.41" font-family="Fira Code" font-size="10.00">tick</text>
<text text-anchor="middle" x="536.5" y="-27.41" font-family="Fira Code" font-size="10.00">tpsAccumNs</text>
<text text-anchor="middle" x="536.5" y="-16.41" font-family="Fira Code" font-size="10.00">tpsAccumTicks</text>
</g>
<!-- Node22&#45;&gt;Node21 -->
<g id="edge25" class="edge">
<title>Node22&#45;&gt;Node21</title>
<path fill="none" stroke="#9a32cd" stroke-dasharray="5,2" d="M348.38,-60.01C392.17,-69 460.1,-82.94 500.94,-91.32"/>
<polygon fill="#9a32cd" stroke="#9a32cd" points="348.84,-56.53 338.34,-57.95 347.43,-63.39 348.84,-56.53"/>
<text text-anchor="middle" x="416.5" y="-95.41" font-family="Fira Code" font-size="10.00"> t</text>
<text text-anchor="middle" x="416.5" y="-84.41" font-family="Fira Code" font-size="10.00">t0</text>
</g>
<!-- Node23 -->
<g id="node23" class="node">
<title>Node23</title>
<g id="a_node23"><a xlink:title=" ">
<polygon fill="white" stroke="black" points="513,-126.91 513,-145.91 560,-145.91 560,-126.91 513,-126.91"/>
<text text-anchor="middle" x="536.5" y="-133.91" font-family="Fira Code" font-size="10.00">float</text>
</a>
</g>
</g>
<!-- Node23&#45;&gt;Node20 -->
<g id="edge27" class="edge">
<title>Node23&#45;&gt;Node20</title>
<path fill="none" stroke="#9a32cd" stroke-dasharray="5,2" d="M570.45,-133.72C612.39,-130.29 684.37,-124.4 725.74,-121.01"/>
<polygon fill="#9a32cd" stroke="#9a32cd" points="569.9,-130.25 560.22,-134.55 570.47,-137.23 569.9,-130.25"/>
<text text-anchor="middle" x="656.5" y="-143.41" font-family="Fira Code" font-size="10.00"> dt</text>
<text text-anchor="middle" x="656.5" y="-132.41" font-family="Fira Code" font-size="10.00">tps</text>
</g>
<!-- Node24 -->
<g id="node24" class="node">
<title>Node24</title>
<g id="a_node24"><a xlink:title=" ">
<polygon fill="white" stroke="black" points="711,-67.91 711,-86.91 806,-86.91 806,-67.91 711,-67.91"/>
<text text-anchor="middle" x="758.5" y="-74.91" font-family="Fira Code" font-size="10.00">volatile bool</text>
</a>
</g>
</g>
<!-- Node24&#45;&gt;Node19 -->
<g id="edge28" class="edge">
<title>Node24&#45;&gt;Node19</title>
<path fill="none" stroke="#9a32cd" stroke-dasharray="5,2" d="M816.37,-80.78C840.63,-83.19 869.04,-87.33 894,-94.41 909.57,-98.83 926.23,-106.62 938.27,-112.87"/>
<polygon fill="#9a32cd" stroke="#9a32cd" points="816.53,-77.28 806.25,-79.85 815.89,-84.25 816.53,-77.28"/>
<text text-anchor="middle" x="860.5" y="-108.41" font-family="Fira Code" font-size="10.00"> paused</text>
<text text-anchor="middle" x="860.5" y="-97.41" font-family="Fira Code" font-size="10.00">running</text>
</g>
<!-- Node25 -->
<g id="node25" class="node">
<title>Node25</title>
<g id="a_node25"><a xlink:href="struct_input_context.html" target="_top" xlink:title="Represents the complete state of all input devices and all buffered inputs.">
<polygon fill="white" stroke="black" points="912,-338.91 912,-357.91 1001,-357.91 1001,-338.91 912,-338.91"/>
<text text-anchor="middle" x="956.5" y="-345.91" font-family="Fira Code" font-size="10.00">InputContext</text>
</a>
</g>
</g>
<!-- Node25&#45;&gt;Node2 -->
<g id="edge29" class="edge">
<title>Node25&#45;&gt;Node2</title>
<path fill="none" stroke="#9a32cd" stroke-dasharray="5,2" d="M981.62,-363.38C1011.6,-381.99 1061.88,-413.2 1087.09,-428.85"/>
<polygon fill="#9a32cd" stroke="#9a32cd" points="983.36,-360.34 973.02,-358.05 979.67,-366.29 983.36,-360.34"/>
<text text-anchor="middle" x="1037.5" y="-411.41" font-family="Fira Code" font-size="10.00"> input</text>
</g>
<!-- Node26&#45;&gt;Node25 -->
<g id="edge30" class="edge">
<title>Node26&#45;&gt;Node25</title>
<path fill="none" stroke="#9a32cd" stroke-dasharray="5,2" d="M816.16,-320.93C840.27,-323.71 868.62,-327.53 894,-332.41 903.21,-334.19 913.08,-336.54 922.16,-338.91"/>
<polygon fill="#9a32cd" stroke="#9a32cd" points="816.43,-317.44 806.11,-319.81 815.66,-324.4 816.43,-317.44"/>
<text text-anchor="middle" x="860.5" y="-346.41" font-family="Fira Code" font-size="10.00"> keybinds</text>
<text text-anchor="middle" x="860.5" y="-335.41" font-family="Fira Code" font-size="10.00">mousebinds</text>
</g>
<!-- Node27 -->
<g id="node27" class="node">
<title>Node27</title>
<g id="a_node27"><a xlink:title=" ">
<polygon fill="white" stroke="black" points="0,-242.91 0,-261.91 143,-261.91 143,-242.91 0,-242.91"/>
<text text-anchor="middle" x="71.5" y="-249.91" font-family="Fira Code" font-size="10.00">enum SignalTransition</text>
</a>
</g>
</g>
<!-- Node27&#45;&gt;Node1 -->
<g id="edge48" class="edge">
<title>Node27&#45;&gt;Node1</title>
<path fill="none" stroke="#9a32cd" stroke-dasharray="5,2" d="M91.13,-268.72C137.39,-309.19 256.41,-413.33 293.37,-445.68"/>
<polygon fill="#9a32cd" stroke="#9a32cd" points="93.21,-265.88 83.38,-261.93 88.6,-271.15 93.21,-265.88"/>
<text text-anchor="middle" x="194.5" y="-386.41" font-family="Fira Code" font-size="10.00"> transition</text>
</g>
<!-- Node27&#45;&gt;Node26 -->
<g id="edge32" class="edge">
<title>Node27&#45;&gt;Node26</title>
<path fill="none" stroke="#9a32cd" stroke-dasharray="5,2" d="M103.9,-238.94C138.14,-224.91 194.88,-203.6 246,-193.41 305.84,-181.49 322.01,-186.41 383,-184.41 520.36,-179.91 593.15,-123.91 690,-221.41 714.16,-245.73 685.4,-270.64 708,-296.41 711.4,-300.29 715.68,-303.38 720.29,-305.84"/>
<polygon fill="#9a32cd" stroke="#9a32cd" points="102.34,-235.79 94.44,-242.86 105.02,-242.26 102.34,-235.79"/>
<text text-anchor="middle" x="416.5" y="-187.41" font-family="Fira Code" font-size="10.00"> transition</text>
</g>
<!-- Node28 -->
<g id="node28" class="node">
<title>Node28</title>
<g id="a_node28"><a xlink:title=" ">
<polygon fill="white" stroke="black" points="468,-209.91 468,-228.91 605,-228.91 605,-209.91 468,-209.91"/>
<text text-anchor="middle" x="536.5" y="-216.91" font-family="Fira Code" font-size="10.00">enum InputDeviceType</text>
</a>
</g>
</g>
<!-- Node28&#45;&gt;Node26 -->
<g id="edge33" class="edge">
<title>Node28&#45;&gt;Node26</title>
<path fill="none" stroke="#9a32cd" stroke-dasharray="5,2" d="M615.04,-222.48C641.27,-226.97 669.16,-235.97 690,-253.41 705.89,-266.71 693.13,-281.98 708,-296.41 711.96,-300.26 716.79,-303.35 721.85,-305.82"/>
<polygon fill="#9a32cd" stroke="#9a32cd" points="615.5,-219.01 605.09,-220.97 614.45,-225.93 615.5,-219.01"/>
<text text-anchor="middle" x="656.5" y="-256.41" font-family="Fira Code" font-size="10.00"> type</text>
</g>
<!-- Node29&#45;&gt;Node26 -->
<g id="edge34" class="edge">
<title>Node29&#45;&gt;Node26</title>
<path fill="none" stroke="#9a32cd" stroke-dasharray="5,2" d="M576.56,-297.1C607.41,-298.64 651.53,-301.31 690,-305.41 696.71,-306.13 703.79,-307.02 710.72,-307.98"/>
<polygon fill="#9a32cd" stroke="#9a32cd" points="576.39,-293.58 566.23,-296.6 576.05,-300.58 576.39,-293.58"/>
<text text-anchor="middle" x="656.5" y="-308.41" font-family="Fira Code" font-size="10.00"> keybind</text>
</g>
<!-- Node30 -->
<g id="node30" class="node">
<title>Node30</title>
<g id="a_node30"><a xlink:title=" ">
<polygon fill="white" stroke="black" points="255,-202.91 255,-221.91 356,-221.91 356,-202.91 255,-202.91"/>
<text text-anchor="middle" x="305.5" y="-209.91" font-family="Fira Code" font-size="10.00">unsigned short</text>
</a>
</g>
</g>
<!-- Node30&#45;&gt;Node29 -->
<g id="edge35" class="edge">
<title>Node30&#45;&gt;Node29</title>
<path fill="none" stroke="#9a32cd" stroke-dasharray="5,2" d="M352.83,-201.21C383.45,-196.65 422.82,-196.55 450,-217.41 471.75,-234.11 448.4,-257.24 468,-276.41 478.27,-286.46 493.41,-291.28 506.75,-293.56"/>
<polygon fill="#9a32cd" stroke="#9a32cd" points="352.08,-197.79 342.8,-202.91 353.25,-204.69 352.08,-197.79"/>
<text text-anchor="middle" x="416.5" y="-220.41" font-family="Fira Code" font-size="10.00"> keyIndex</text>
</g>
<!-- Node31 -->
<g id="node31" class="node">
<title>Node31</title>
<g id="a_node31"><a xlink:title=" ">
<polygon fill="white" stroke="black" points="246,-251.91 246,-270.91 365,-270.91 365,-251.91 246,-251.91"/>
<text text-anchor="middle" x="305.5" y="-258.91" font-family="Fira Code" font-size="10.00">enum ModifierKeys</text>
</a>
</g>
</g>
<!-- Node31&#45;&gt;Node29 -->
<g id="edge36" class="edge">
<title>Node31&#45;&gt;Node29</title>
<path fill="none" stroke="#9a32cd" stroke-dasharray="5,2" d="M335.44,-247.81C366.06,-235.58 414.74,-222.48 450,-243.41 464.37,-251.94 454.94,-266 468,-276.41 479.04,-285.22 493.94,-289.94 506.93,-292.48"/>
<polygon fill="#9a32cd" stroke="#9a32cd" points="334.03,-244.61 326.17,-251.71 336.75,-251.06 334.03,-244.61"/>
<text text-anchor="middle" x="416.5" y="-246.41" font-family="Fira Code" font-size="10.00"> mod</text>
</g>
<!-- Node31&#45;&gt;Node32 -->
<g id="edge40" class="edge">
<title>Node31&#45;&gt;Node32</title>
<path fill="none" stroke="#9a32cd" stroke-dasharray="5,2" d="M375.45,-266.8C400.33,-271.11 427.74,-278.8 450,-292.41 460.78,-299.01 457.43,-307.49 468,-314.41 477.78,-320.82 489.71,-325.09 500.82,-327.93"/>
<polygon fill="#9a32cd" stroke="#9a32cd" points="375.75,-263.3 365.33,-265.2 374.66,-270.21 375.75,-263.3"/>
<text text-anchor="middle" x="416.5" y="-295.41" font-family="Fira Code" font-size="10.00"> mod</text>
</g>
<!-- Node32&#45;&gt;Node26 -->
<g id="edge38" class="edge">
<title>Node32&#45;&gt;Node26</title>
<path fill="none" stroke="#9a32cd" stroke-dasharray="5,2" d="M582.48,-329.73C619.92,-326.67 673.04,-322.32 710.92,-319.22"/>
<polygon fill="#9a32cd" stroke="#9a32cd" points="582.04,-326.26 572.36,-330.56 582.61,-333.23 582.04,-326.26"/>
<text text-anchor="middle" x="656.5" y="-328.41" font-family="Fira Code" font-size="10.00"> mousebind</text>
</g>
<!-- Node33 -->
<g id="node33" class="node">
<title>Node33</title>
<g id="a_node33"><a xlink:title=" ">
<polygon fill="white" stroke="black" points="246,-334.91 246,-353.91 365,-353.91 365,-334.91 246,-334.91"/>
<text text-anchor="middle" x="305.5" y="-341.91" font-family="Fira Code" font-size="10.00">enum MouseButtons</text>
</a>
</g>
</g>
<!-- Node33&#45;&gt;Node32 -->
<g id="edge39" class="edge">
<title>Node33&#45;&gt;Node32</title>
<path fill="none" stroke="#9a32cd" stroke-dasharray="5,2" d="M332.42,-330.09C346.84,-322.94 365.39,-315.05 383,-311.41 412.16,-305.39 420.46,-307.67 450,-311.41 460.04,-312.68 482.45,-318.49 501.82,-323.82"/>
<polygon fill="#9a32cd" stroke="#9a32cd" points="330.45,-327.17 323.16,-334.86 333.65,-333.39 330.45,-327.17"/>
<text text-anchor="middle" x="416.5" y="-314.41" font-family="Fira Code" font-size="10.00"> button</text>
</g>
<!-- Node33&#45;&gt;Node36 -->
<g id="edge46" class="edge">
<title>Node33&#45;&gt;Node36</title>
<path fill="none" stroke="#9a32cd" stroke-dasharray="5,2" d="M375.38,-355.26C377.95,-355.65 380.5,-356.04 383,-356.41 423.47,-362.51 470.04,-369.17 500.96,-373.55"/>
<polygon fill="#9a32cd" stroke="#9a32cd" points="375.79,-351.78 365.38,-353.72 374.73,-358.7 375.79,-351.78"/>
<text text-anchor="middle" x="416.5" y="-368.41" font-family="Fira Code" font-size="10.00"> buttons</text>
</g>
<!-- Node34 -->
<g id="node34" class="node">
<title>Node34</title>
<g id="a_node34"><a xlink:title=" ">
<polygon fill="white" stroke="black" points="492,-247.91 492,-266.91 581,-266.91 581,-247.91 492,-247.91"/>
<text text-anchor="middle" x="536.5" y="-254.91" font-family="Fira Code" font-size="10.00">anonymous:@1</text>
</a>
</g>
</g>
<!-- Node34&#45;&gt;Node26 -->
<g id="edge42" class="edge">
<title>Node34&#45;&gt;Node26</title>
<path fill="none" stroke="#9a32cd" stroke-dasharray="5,2" d="M591.25,-262.4C621.07,-266.37 658.4,-273.34 690,-285.41 698.76,-288.76 699.59,-292.27 708,-296.41 714.94,-299.83 722.65,-303.05 729.89,-305.83"/>
<polygon fill="#9a32cd" stroke="#9a32cd" points="591.4,-258.9 581.04,-261.12 590.53,-265.84 591.4,-258.9"/>
<text text-anchor="middle" x="656.5" y="-288.41" font-family="Fira Code" font-size="10.00"> @1</text>
</g>
<!-- Node35 -->
<g id="node35" class="node">
<title>Node35</title>
<g id="a_node35"><a xlink:title=" ">
<polygon fill="white" stroke="black" points="732,-267.91 732,-286.91 785,-286.91 785,-267.91 732,-267.91"/>
<text text-anchor="middle" x="758.5" y="-274.91" font-family="Fira Code" font-size="10.00">size_t</text>
</a>
</g>
</g>
<!-- Node35&#45;&gt;Node25 -->
<g id="edge43" class="edge">
<title>Node35&#45;&gt;Node25</title>
<path fill="none" stroke="#9a32cd" stroke-dasharray="5,2" d="M795.36,-276.72C823.36,-277.45 862.65,-281.33 894,-295.41 916.37,-305.46 936.74,-326.34 947.5,-338.68"/>
<polygon fill="#9a32cd" stroke="#9a32cd" points="795.26,-273.22 785.22,-276.58 795.17,-280.22 795.26,-273.22"/>
<text text-anchor="middle" x="860.5" y="-309.41" font-family="Fira Code" font-size="10.00"> nKeybinds</text>
<text text-anchor="middle" x="860.5" y="-298.41" font-family="Fira Code" font-size="10.00">nMousebinds</text>
</g>
<!-- Node36&#45;&gt;Node25 -->
<g id="edge44" class="edge">
<title>Node36&#45;&gt;Node25</title>
<path fill="none" stroke="#9a32cd" stroke-dasharray="5,2" d="M582.48,-375.82C650.13,-371.82 782.06,-363.64 894,-354.41 899.77,-353.94 905.85,-353.4 911.84,-352.84"/>
<polygon fill="#9a32cd" stroke="#9a32cd" points="581.97,-372.34 572.19,-376.43 582.38,-379.33 581.97,-372.34"/>
<text text-anchor="middle" x="758.5" y="-370.41" font-family="Fira Code" font-size="10.00"> mouse</text>
</g>
</g>
</svg>
