<?xml version="1.0" encoding="UTF-8" standalone="no"?>
<!DOCTYPE svg PUBLIC "-//W3C//DTD SVG 1.1//EN"
 "http://www.w3.org/Graphics/SVG/1.1/DTD/svg11.dtd">
<!-- Generated by graphviz version 3.0.0 (20220226.1711)
 -->
<!-- Title: FontBook Pages: 1 -->
<svg width="251pt" height="173pt"
 viewBox="0.00 0.00 251.00 173.00" xmlns="http://www.w3.org/2000/svg" xmlns:xlink="http://www.w3.org/1999/xlink">
<g id="graph0" class="graph" transform="scale(1 1) rotate(0) translate(4 169)">
<title>FontBook</title>
<polygon fill="white" stroke="transparent" points="-4,4 -4,-169 247,-169 247,4 -4,4"/>
<!-- Node1 -->
<g id="node1" class="node">
<title>Node1</title>
<g id="a_node1"><a xlink:title=" ">
<polygon fill="#bfbfbf" stroke="black" points="110,-0.5 110,-19.5 175,-19.5 175,-0.5 110,-0.5"/>
<text text-anchor="middle" x="142.5" y="-7.5" font-family="Fira Code" font-size="10.00">FontBook</text>
</a>
</g>
</g>
<!-- Node2 -->
<g id="node2" class="node">
<title>Node2</title>
<g id="a_node2"><a xlink:href="struct_text.html" target="_top" xlink:title="Represents a texture generated by rendering text in a TTF font.">
<polygon fill="white" stroke="black" points="122,-67.5 122,-86.5 163,-86.5 163,-67.5 122,-67.5"/>
<text text-anchor="middle" x="142.5" y="-74.5" font-family="Fira Code" font-size="10.00">Text</text>
</a>
</g>
</g>
<!-- Node2&#45;&gt;Node1 -->
<g id="edge1" class="edge">
<title>Node2&#45;&gt;Node1</title>
<path fill="none" stroke="#9a32cd" stroke-dasharray="5,2" d="M142.5,-57.04C142.5,-44.67 142.5,-29.12 142.5,-19.63"/>
<polygon fill="#9a32cd" stroke="#9a32cd" points="139,-57.23 142.5,-67.23 146,-57.23 139,-57.23"/>
<text text-anchor="middle" x="167" y="-41" font-family="Fira Code" font-size="10.00"> fpsFont</text>
</g>
<!-- Node3 -->
<g id="node3" class="node">
<title>Node3</title>
<g id="a_node3"><a xlink:title=" ">
<polygon fill="white" stroke="black" points="0,-145.5 0,-164.5 77,-164.5 77,-145.5 0,-145.5"/>
<text text-anchor="middle" x="38.5" y="-152.5" font-family="Fira Code" font-size="10.00">TTF_Font *</text>
</a>
</g>
</g>
<!-- Node3&#45;&gt;Node2 -->
<g id="edge2" class="edge">
<title>Node3&#45;&gt;Node2</title>
<path fill="none" stroke="#9a32cd" stroke-dasharray="5,2" d="M58.53,-139.36C79.94,-123.72 113.16,-99.44 130.71,-86.62"/>
<polygon fill="#9a32cd" stroke="#9a32cd" points="56.44,-136.56 50.43,-145.28 60.57,-142.21 56.44,-136.56"/>
<text text-anchor="middle" x="119" y="-113.5" font-family="Fira Code" font-size="10.00"> font</text>
</g>
<!-- Node4 -->
<g id="node4" class="node">
<title>Node4</title>
<g id="a_node4"><a xlink:title=" ">
<polygon fill="white" stroke="black" points="95,-145.5 95,-164.5 190,-164.5 190,-145.5 95,-145.5"/>
<text text-anchor="middle" x="142.5" y="-152.5" font-family="Fira Code" font-size="10.00">SDL_Texture *</text>
</a>
</g>
</g>
<!-- Node4&#45;&gt;Node2 -->
<g id="edge3" class="edge">
<title>Node4&#45;&gt;Node2</title>
<path fill="none" stroke="#9a32cd" stroke-dasharray="5,2" d="M142.5,-135.22C142.5,-119.7 142.5,-98.36 142.5,-86.62"/>
<polygon fill="#9a32cd" stroke="#9a32cd" points="139,-135.28 142.5,-145.28 146,-135.28 139,-135.28"/>
<text text-anchor="middle" x="155" y="-113.5" font-family="Fira Code" font-size="10.00"> tex</text>
</g>
<!-- Node5 -->
<g id="node5" class="node">
<title>Node5</title>
<g id="a_node5"><a xlink:title=" ">
<polygon fill="white" stroke="black" points="208,-145.5 208,-164.5 243,-164.5 243,-145.5 208,-145.5"/>
<text text-anchor="middle" x="225.5" y="-152.5" font-family="Fira Code" font-size="10.00">int</text>
</a>
</g>
</g>
<!-- Node5&#45;&gt;Node2 -->
<g id="edge4" class="edge">
<title>Node5&#45;&gt;Node2</title>
<path fill="none" stroke="#9a32cd" stroke-dasharray="5,2" d="M208.36,-138.3C191.25,-122.64 165.6,-99.16 151.91,-86.62"/>
<polygon fill="#9a32cd" stroke="#9a32cd" points="206.24,-141.11 215.98,-145.28 210.97,-135.95 206.24,-141.11"/>
<text text-anchor="middle" x="215" y="-119" font-family="Fira Code" font-size="10.00"> height</text>
<text text-anchor="middle" x="215" y="-108" font-family="Fira Code" font-size="10.00">width</text>
</g>
</g>
</svg>
