<?xml version="1.0" encoding="UTF-8" standalone="no"?>
<!DOCTYPE svg PUBLIC "-//W3C//DTD SVG 1.1//EN"
 "http://www.w3.org/Graphics/SVG/1.1/DTD/svg11.dtd">
<!-- Generated by graphviz version 3.0.0 (20220226.1711)
 -->
<!-- Title: LogEvent Pages: 1 -->
<svg width="328pt" height="106pt"
 viewBox="0.00 0.00 328.00 106.00" xmlns="http://www.w3.org/2000/svg" xmlns:xlink="http://www.w3.org/1999/xlink">
<g id="graph0" class="graph" transform="scale(1 1) rotate(0) translate(4 102)">
<title>LogEvent</title>
<polygon fill="white" stroke="transparent" points="-4,4 -4,-102 324,-102 324,4 -4,4"/>
<!-- Node1 -->
<g id="node1" class="node">
<title>Node1</title>
<g id="a_node1"><a xlink:title="Represents a log message with associated severity.">
<polygon fill="#bfbfbf" stroke="black" points="141,-0.5 141,-19.5 206,-19.5 206,-0.5 141,-0.5"/>
<text text-anchor="middle" x="173.5" y="-7.5" font-family="Fira Code" font-size="10.00">LogEvent</text>
</a>
</g>
</g>
<!-- Node2 -->
<g id="node2" class="node">
<title>Node2</title>
<g id="a_node2"><a xlink:title=" ">
<polygon fill="white" stroke="black" points="0,-78.5 0,-97.5 59,-97.5 59,-78.5 0,-78.5"/>
<text text-anchor="middle" x="29.5" y="-85.5" font-family="Fira Code" font-size="10.00">va_list</text>
</a>
</g>
</g>
<!-- Node2&#45;&gt;Node1 -->
<g id="edge1" class="edge">
<title>Node2&#45;&gt;Node1</title>
<path fill="none" stroke="#9a32cd" stroke-dasharray="5,2" d="M53.6,-73.33C71.42,-63.32 96.32,-49.54 118.5,-38 130.77,-31.62 144.76,-24.75 155.56,-19.54"/>
<polygon fill="#9a32cd" stroke="#9a32cd" points="51.49,-70.5 44.5,-78.46 54.93,-76.6 51.49,-70.5"/>
<text text-anchor="middle" x="128" y="-46.5" font-family="Fira Code" font-size="10.00"> ap</text>
</g>
<!-- Node3 -->
<g id="node3" class="node">
<title>Node3</title>
<g id="a_node3"><a xlink:title=" ">
<polygon fill="white" stroke="black" points="77,-78.5 77,-97.5 166,-97.5 166,-78.5 77,-78.5"/>
<text text-anchor="middle" x="121.5" y="-85.5" font-family="Fira Code" font-size="10.00">char const *</text>
</a>
</g>
</g>
<!-- Node3&#45;&gt;Node1 -->
<g id="edge2" class="edge">
<title>Node3&#45;&gt;Node1</title>
<path fill="none" stroke="#9a32cd" stroke-dasharray="5,2" d="M133.13,-70.01C143.83,-54.37 159.26,-31.81 167.6,-19.62"/>
<polygon fill="#9a32cd" stroke="#9a32cd" points="130.22,-68.05 127.47,-78.28 136,-72.01 130.22,-68.05"/>
<text text-anchor="middle" x="169" y="-52" font-family="Fira Code" font-size="10.00"> file</text>
<text text-anchor="middle" x="169" y="-41" font-family="Fira Code" font-size="10.00">fmt</text>
</g>
<!-- Node4 -->
<g id="node4" class="node">
<title>Node4</title>
<g id="a_node4"><a xlink:title=" ">
<polygon fill="white" stroke="black" points="184,-78.5 184,-97.5 267,-97.5 267,-78.5 184,-78.5"/>
<text text-anchor="middle" x="225.5" y="-85.5" font-family="Fira Code" font-size="10.00">struct tm *</text>
</a>
</g>
</g>
<!-- Node4&#45;&gt;Node1 -->
<g id="edge3" class="edge">
<title>Node4&#45;&gt;Node1</title>
<path fill="none" stroke="#9a32cd" stroke-dasharray="5,2" d="M213.87,-70.01C203.17,-54.37 187.74,-31.81 179.4,-19.62"/>
<polygon fill="#9a32cd" stroke="#9a32cd" points="211,-72.01 219.53,-78.28 216.78,-68.05 211,-72.01"/>
<text text-anchor="middle" x="221" y="-46.5" font-family="Fira Code" font-size="10.00"> time</text>
</g>
<!-- Node5 -->
<g id="node5" class="node">
<title>Node5</title>
<g id="a_node5"><a xlink:title=" ">
<polygon fill="white" stroke="black" points="285,-78.5 285,-97.5 320,-97.5 320,-78.5 285,-78.5"/>
<text text-anchor="middle" x="302.5" y="-85.5" font-family="Fira Code" font-size="10.00">int</text>
</a>
</g>
</g>
<!-- Node5&#45;&gt;Node1 -->
<g id="edge4" class="edge">
<title>Node5&#45;&gt;Node1</title>
<path fill="none" stroke="#9a32cd" stroke-dasharray="5,2" d="M285.67,-71.52C273.71,-61.08 256.92,-47.53 240.5,-38 227.7,-30.57 212.47,-24.25 199.76,-19.6"/>
<polygon fill="#9a32cd" stroke="#9a32cd" points="283.66,-74.41 293.45,-78.46 288.32,-69.19 283.66,-74.41"/>
<text text-anchor="middle" x="289" y="-52" font-family="Fira Code" font-size="10.00"> level</text>
<text text-anchor="middle" x="289" y="-41" font-family="Fira Code" font-size="10.00">line</text>
</g>
</g>
</svg>
