<?xml version="1.0" encoding="UTF-8" standalone="no"?>
<!DOCTYPE svg PUBLIC "-//W3C//DTD SVG 1.1//EN"
 "http://www.w3.org/Graphics/SVG/1.1/DTD/svg11.dtd">
<!-- Generated by graphviz version 3.0.0 (20220226.1711)
 -->
<!-- Title: LogState Pages: 1 -->
<svg width="177pt" height="95pt"
 viewBox="0.00 0.00 177.00 95.00" xmlns="http://www.w3.org/2000/svg" xmlns:xlink="http://www.w3.org/1999/xlink">
<g id="graph0" class="graph" transform="scale(1 1) rotate(0) translate(4 91)">
<title>LogState</title>
<polygon fill="white" stroke="transparent" points="-4,4 -4,-91 173,-91 173,4 -4,4"/>
<!-- Node1 -->
<g id="node1" class="node">
<title>Node1</title>
<g id="a_node1"><a xlink:title="Used to persist the log output streams between hot&#45;reloads.">
<polygon fill="#bfbfbf" stroke="black" points="45,-0.5 45,-19.5 110,-19.5 110,-0.5 45,-0.5"/>
<text text-anchor="middle" x="77.5" y="-7.5" font-family="Fira Code" font-size="10.00">LogState</text>
</a>
</g>
</g>
<!-- Node2 -->
<g id="node2" class="node">
<title>Node2</title>
<g id="a_node2"><a xlink:title=" ">
<polygon fill="white" stroke="black" points="0,-67.5 0,-86.5 35,-86.5 35,-67.5 0,-67.5"/>
<text text-anchor="middle" x="17.5" y="-74.5" font-family="Fira Code" font-size="10.00">int</text>
</a>
</g>
</g>
<!-- Node2&#45;&gt;Node1 -->
<g id="edge1" class="edge">
<title>Node2&#45;&gt;Node1</title>
<path fill="none" stroke="#9a32cd" stroke-dasharray="5,2" d="M24.28,-57.73C27.34,-51.04 31.42,-43.72 36.5,-38 43.18,-30.48 52.41,-24.16 60.42,-19.52"/>
<polygon fill="#9a32cd" stroke="#9a32cd" points="20.88,-56.81 20.32,-67.39 27.35,-59.46 20.88,-56.81"/>
<text text-anchor="middle" x="55" y="-41" font-family="Fira Code" font-size="10.00"> level</text>
</g>
<!-- Node3 -->
<g id="node3" class="node">
<title>Node3</title>
<g id="a_node3"><a xlink:title=" ">
<polygon fill="white" stroke="black" points="57,-67.5 57,-86.5 98,-86.5 98,-67.5 57,-67.5"/>
<text text-anchor="middle" x="77.5" y="-74.5" font-family="Fira Code" font-size="10.00">bool</text>
</a>
</g>
</g>
<!-- Node3&#45;&gt;Node1 -->
<g id="edge2" class="edge">
<title>Node3&#45;&gt;Node1</title>
<path fill="none" stroke="#9a32cd" stroke-dasharray="5,2" d="M77.5,-57.04C77.5,-44.67 77.5,-29.12 77.5,-19.63"/>
<polygon fill="#9a32cd" stroke="#9a32cd" points="74,-57.23 77.5,-67.23 81,-57.23 74,-57.23"/>
<text text-anchor="middle" x="96" y="-41" font-family="Fira Code" font-size="10.00"> quiet</text>
</g>
<!-- Node4 -->
<g id="node4" class="node">
<title>Node4</title>
<g id="a_node4"><a xlink:title=" ">
<polygon fill="white" stroke="black" points="116,-67.5 116,-86.5 169,-86.5 169,-67.5 116,-67.5"/>
<text text-anchor="middle" x="142.5" y="-74.5" font-family="Fira Code" font-size="10.00">FILE *</text>
</a>
</g>
</g>
<!-- Node4&#45;&gt;Node1 -->
<g id="edge3" class="edge">
<title>Node4&#45;&gt;Node1</title>
<path fill="none" stroke="#9a32cd" stroke-dasharray="5,2" d="M133.42,-58.26C129.42,-51.46 124.3,-43.91 118.5,-38 111.34,-30.7 101.88,-24.31 93.85,-19.58"/>
<polygon fill="#9a32cd" stroke="#9a32cd" points="130.57,-60.33 138.44,-67.43 136.71,-56.97 130.57,-60.33"/>
<text text-anchor="middle" x="142" y="-41" font-family="Fira Code" font-size="10.00"> file</text>
</g>
</g>
</svg>
