<?xml version="1.0" encoding="UTF-8" standalone="no"?>
<!DOCTYPE svg PUBLIC "-//W3C//DTD SVG 1.1//EN"
 "http://www.w3.org/Graphics/SVG/1.1/DTD/svg11.dtd">
<!-- Generated by graphviz version 3.0.0 (20220226.1711)
 -->
<!-- Title: Keybind Pages: 1 -->
<svg width="305pt" height="95pt"
 viewBox="0.00 0.00 305.00 95.00" xmlns="http://www.w3.org/2000/svg" xmlns:xlink="http://www.w3.org/1999/xlink">
<g id="graph0" class="graph" transform="scale(1 1) rotate(0) translate(4 91)">
<title>Keybind</title>
<polygon fill="white" stroke="transparent" points="-4,4 -4,-91 301,-91 301,4 -4,4"/>
<!-- Node1 -->
<g id="node1" class="node">
<title>Node1</title>
<g id="a_node1"><a xlink:title="Represents a keyboard key combination the state of which is being tracked by an action.">
<polygon fill="#bfbfbf" stroke="black" points="149,-0.5 149,-19.5 208,-19.5 208,-0.5 149,-0.5"/>
<text text-anchor="middle" x="178.5" y="-7.5" font-family="Fira Code" font-size="10.00">Keybind</text>
</a>
</g>
</g>
<!-- Node2 -->
<g id="node2" class="node">
<title>Node2</title>
<g id="a_node2"><a xlink:title=" ">
<polygon fill="white" stroke="black" points="0,-67.5 0,-86.5 101,-86.5 101,-67.5 0,-67.5"/>
<text text-anchor="middle" x="50.5" y="-74.5" font-family="Fira Code" font-size="10.00">unsigned short</text>
</a>
</g>
</g>
<!-- Node2&#45;&gt;Node1 -->
<g id="edge1" class="edge">
<title>Node2&#45;&gt;Node1</title>
<path fill="none" stroke="#9a32cd" stroke-dasharray="5,2" d="M74.3,-62.32C87.5,-54.88 104.26,-45.67 119.5,-38 132.48,-31.47 147.36,-24.66 158.93,-19.52"/>
<polygon fill="#9a32cd" stroke="#9a32cd" points="72.37,-59.39 65.4,-67.37 75.83,-65.48 72.37,-59.39"/>
<text text-anchor="middle" x="147" y="-41" font-family="Fira Code" font-size="10.00"> keyIndex</text>
</g>
<!-- Node3 -->
<g id="node3" class="node">
<title>Node3</title>
<g id="a_node3"><a xlink:title=" ">
<polygon fill="white" stroke="black" points="119,-67.5 119,-86.5 238,-86.5 238,-67.5 119,-67.5"/>
<text text-anchor="middle" x="178.5" y="-74.5" font-family="Fira Code" font-size="10.00">enum ModifierKeys</text>
</a>
</g>
</g>
<!-- Node3&#45;&gt;Node1 -->
<g id="edge2" class="edge">
<title>Node3&#45;&gt;Node1</title>
<path fill="none" stroke="#9a32cd" stroke-dasharray="5,2" d="M178.5,-57.04C178.5,-44.67 178.5,-29.12 178.5,-19.63"/>
<polygon fill="#9a32cd" stroke="#9a32cd" points="175,-57.23 178.5,-67.23 182,-57.23 175,-57.23"/>
<text text-anchor="middle" x="191" y="-41" font-family="Fira Code" font-size="10.00"> mod</text>
</g>
<!-- Node4 -->
<g id="node4" class="node">
<title>Node4</title>
<g id="a_node4"><a xlink:title=" ">
<polygon fill="white" stroke="black" points="256,-67.5 256,-86.5 297,-86.5 297,-67.5 256,-67.5"/>
<text text-anchor="middle" x="276.5" y="-74.5" font-family="Fira Code" font-size="10.00">bool</text>
</a>
</g>
</g>
<!-- Node4&#45;&gt;Node1 -->
<g id="edge3" class="edge">
<title>Node4&#45;&gt;Node1</title>
<path fill="none" stroke="#9a32cd" stroke-dasharray="5,2" d="M254.78,-61.59C235.39,-48.74 207.64,-30.33 191.51,-19.63"/>
<polygon fill="#9a32cd" stroke="#9a32cd" points="253.02,-64.62 263.28,-67.23 256.88,-58.79 253.02,-64.62"/>
<text text-anchor="middle" x="251" y="-41" font-family="Fira Code" font-size="10.00"> state</text>
</g>
</g>
</svg>
