<?xml version="1.0" encoding="UTF-8" standalone="no"?>
<!DOCTYPE svg PUBLIC "-//W3C//DTD SVG 1.1//EN"
 "http://www.w3.org/Graphics/SVG/1.1/DTD/svg11.dtd">
<!-- Generated by graphviz version 3.0.0 (20220226.1711)
 -->
<!-- Title: ActionBinding Pages: 1 -->
<svg width="1483pt" height="706pt"
 viewBox="0.00 0.00 1483.00 705.58" xmlns="http://www.w3.org/2000/svg" xmlns:xlink="http://www.w3.org/1999/xlink">
<g id="graph0" class="graph" transform="scale(1 1) rotate(0) translate(4 701.58)">
<title>ActionBinding</title>
<polygon fill="white" stroke="transparent" points="-4,4 -4,-701.58 1479,-701.58 1479,4 -4,4"/>
<!-- Node1 -->
<g id="node1" class="node">
<title>Node1</title>
<g id="a_node1"><a xlink:title="Closes over the callback for an input binding to a particular type of input device,...">
<polygon fill="#bfbfbf" stroke="black" points="456,-430.08 456,-449.08 551,-449.08 551,-430.08 456,-430.08"/>
<text text-anchor="middle" x="503.5" y="-437.08" font-family="Fira Code" font-size="10.00">ActionBinding</text>
</a>
</g>
</g>
<!-- Node26 -->
<g id="node26" class="node">
<title>Node26</title>
<g id="a_node26"><a xlink:href="struct_input_context.html" target="_top" xlink:title="Represents the complete state of all input devices and all buffered inputs.">
<polygon fill="white" stroke="black" points="654,-294.08 654,-313.08 743,-313.08 743,-294.08 654,-294.08"/>
<text text-anchor="middle" x="698.5" y="-301.08" font-family="Fira Code" font-size="10.00">InputContext</text>
</a>
</g>
</g>
<!-- Node1&#45;&gt;Node26 -->
<g id="edge31" class="edge">
<title>Node1&#45;&gt;Node26</title>
<path fill="none" stroke="#9a32cd" stroke-dasharray="5,2" d="M526.39,-424.15C566.57,-395.84 651.01,-336.33 683.94,-313.13"/>
<polygon fill="#9a32cd" stroke="#9a32cd" points="524.23,-421.39 518.07,-430.01 528.26,-427.12 524.23,-421.39"/>
<text text-anchor="middle" x="602.5" y="-405.58" font-family="Fira Code" font-size="10.00"> keybinds</text>
<text text-anchor="middle" x="602.5" y="-394.58" font-family="Fira Code" font-size="10.00">mousebinds</text>
</g>
<!-- Node2 -->
<g id="node2" class="node">
<title>Node2</title>
<g id="a_node2"><a xlink:href="struct_input_action.html" target="_top" xlink:title="An input action is triggered by a button binding and may respond to either activation or deactivation...">
<polygon fill="white" stroke="black" points="1191,-496.08 1191,-515.08 1274,-515.08 1274,-496.08 1191,-496.08"/>
<text text-anchor="middle" x="1232.5" y="-503.08" font-family="Fira Code" font-size="10.00">InputAction</text>
</a>
</g>
</g>
<!-- Node2&#45;&gt;Node1 -->
<g id="edge1" class="edge">
<title>Node2&#45;&gt;Node1</title>
<path fill="none" stroke="#9a32cd" stroke-dasharray="5,2" d="M1199.62,-519.02C1160.85,-534.13 1093.07,-556.58 1032.5,-556.58 697.5,-556.58 697.5,-556.58 697.5,-556.58 614.82,-556.58 537.32,-477.1 512.63,-449.15"/>
<polygon fill="#9a32cd" stroke="#9a32cd" points="1201.3,-522.12 1209.3,-515.17 1198.71,-515.62 1201.3,-522.12"/>
<text text-anchor="middle" x="880.5" y="-559.58" font-family="Fira Code" font-size="10.00"> action</text>
</g>
<!-- Node4 -->
<g id="node4" class="node">
<title>Node4</title>
<g id="a_node4"><a xlink:href="struct_input_action_args.html" target="_top" xlink:title="Arguments to an input action callback.">
<polygon fill="white" stroke="black" points="978,-496.08 978,-515.08 1085,-515.08 1085,-496.08 978,-496.08"/>
<text text-anchor="middle" x="1031.5" y="-503.08" font-family="Fira Code" font-size="10.00">InputActionArgs</text>
</a>
</g>
</g>
<!-- Node2&#45;&gt;Node4 -->
<g id="edge36" class="edge">
<title>Node2&#45;&gt;Node4</title>
<path fill="none" stroke="#9a32cd" stroke-dasharray="5,2" d="M1180.82,-497.25C1175.16,-496.56 1169.46,-495.98 1164,-495.58 1136.96,-493.59 1130.04,-493.67 1103,-495.58 1097.2,-495.99 1091.16,-496.58 1085.15,-497.28"/>
<polygon fill="#9a32cd" stroke="#9a32cd" points="1180.55,-500.74 1190.92,-498.58 1181.46,-493.8 1180.55,-500.74"/>
<text text-anchor="middle" x="1133.5" y="-498.58" font-family="Fira Code" font-size="10.00"> action</text>
</g>
<!-- Node6 -->
<g id="node6" class="node">
<title>Node6</title>
<g id="a_node6"><a xlink:href="struct_host_context.html" target="_top" xlink:title="Provides the plugin with an interface to the host for platform and application&#45;level operations.">
<polygon fill="white" stroke="black" points="1392,-398.08 1392,-417.08 1475,-417.08 1475,-398.08 1392,-398.08"/>
<text text-anchor="middle" x="1433.5" y="-405.08" font-family="Fira Code" font-size="10.00">HostContext</text>
</a>
</g>
</g>
<!-- Node2&#45;&gt;Node6 -->
<g id="edge6" class="edge">
<title>Node2&#45;&gt;Node6</title>
<path fill="none" stroke="#9a32cd" stroke-dasharray="5,2" d="M1262.13,-491.48C1303.19,-471.26 1377.7,-434.57 1412.98,-417.19"/>
<polygon fill="#9a32cd" stroke="#9a32cd" points="1260.37,-488.44 1252.94,-496 1263.46,-494.72 1260.37,-488.44"/>
<text text-anchor="middle" x="1337.5" y="-473.58" font-family="Fira Code" font-size="10.00"> quitAction</text>
</g>
<!-- Node11 -->
<g id="node11" class="node">
<title>Node11</title>
<g id="a_node11"><a xlink:href="struct_sdl_context.html" target="_top" xlink:title="Parent node of the entire SDL state.">
<polygon fill="white" stroke="black" points="1395,-575.08 1395,-594.08 1472,-594.08 1472,-575.08 1395,-575.08"/>
<text text-anchor="middle" x="1433.5" y="-582.08" font-family="Fira Code" font-size="10.00">SdlContext</text>
</a>
</g>
</g>
<!-- Node2&#45;&gt;Node11 -->
<g id="edge19" class="edge">
<title>Node2&#45;&gt;Node11</title>
<path fill="none" stroke="#9a32cd" stroke-dasharray="5,2" d="M1271.92,-518.38C1300.38,-528.14 1339.97,-542.3 1374,-556.58 1387.5,-562.24 1402.37,-569.37 1413.74,-575.02"/>
<polygon fill="#9a32cd" stroke="#9a32cd" points="1272.94,-515.03 1262.34,-515.12 1270.68,-521.66 1272.94,-515.03"/>
<text text-anchor="middle" x="1337.5" y="-559.58" font-family="Fira Code" font-size="10.00"> clickAction</text>
</g>
<!-- Node3 -->
<g id="node3" class="node">
<title>Node3</title>
<g id="a_node3"><a xlink:title=" ">
<polygon fill="white" stroke="black" points="1005,-453.08 1005,-472.08 1058,-472.08 1058,-453.08 1005,-453.08"/>
<text text-anchor="middle" x="1031.5" y="-460.08" font-family="Fira Code" font-size="10.00">char *</text>
</a>
</g>
</g>
<!-- Node3&#45;&gt;Node2 -->
<g id="edge2" class="edge">
<title>Node3&#45;&gt;Node2</title>
<path fill="none" stroke="#9a32cd" stroke-dasharray="5,2" d="M1068.11,-464.41C1094.84,-466.38 1132.14,-470.41 1164,-478.58 1180.51,-482.81 1198.37,-490.08 1211.58,-496.02"/>
<polygon fill="#9a32cd" stroke="#9a32cd" points="1068.28,-460.91 1058.07,-463.73 1067.81,-467.89 1068.28,-460.91"/>
<text text-anchor="middle" x="1133.5" y="-481.58" font-family="Fira Code" font-size="10.00"> name</text>
</g>
<!-- Node4&#45;&gt;Node2 -->
<g id="edge3" class="edge">
<title>Node4&#45;&gt;Node2</title>
<path fill="none" stroke="#9a32cd" stroke-dasharray="5,2" d="M1095.32,-508.39C1097.91,-508.46 1100.48,-508.52 1103,-508.58 1130.1,-509.15 1136.9,-509.18 1164,-508.58 1172.68,-508.38 1181.98,-508.05 1190.82,-507.68"/>
<polygon fill="#9a32cd" stroke="#9a32cd" points="1095.34,-504.89 1085.23,-508.07 1095.12,-511.88 1095.34,-504.89"/>
<text text-anchor="middle" x="1133.5" y="-511.58" font-family="Fira Code" font-size="10.00"> on_action</text>
</g>
<!-- Node5 -->
<g id="node5" class="node">
<title>Node5</title>
<g id="a_node5"><a xlink:href="struct_context.html" target="_top" xlink:title="The plugin context is a persistent state representing the entire application to the game plugin acros...">
<polygon fill="white" stroke="black" points="851,-322.08 851,-341.08 910,-341.08 910,-322.08 851,-322.08"/>
<text text-anchor="middle" x="880.5" y="-329.08" font-family="Fira Code" font-size="10.00">Context</text>
</a>
</g>
</g>
<!-- Node5&#45;&gt;Node4 -->
<g id="edge4" class="edge">
<title>Node5&#45;&gt;Node4</title>
<path fill="none" stroke="#9a32cd" stroke-dasharray="5,2" d="M889.01,-350.47C902.37,-381.88 933.18,-444.97 978,-481.58 985.3,-487.54 994.31,-492.36 1002.8,-496.07"/>
<polygon fill="#9a32cd" stroke="#9a32cd" points="892.2,-349.03 885.14,-341.12 885.73,-351.7 892.2,-349.03"/>
<text text-anchor="middle" x="947.5" y="-464.58" font-family="Fira Code" font-size="10.00"> ctx</text>
</g>
<!-- Node6&#45;&gt;Node5 -->
<g id="edge5" class="edge">
<title>Node6&#45;&gt;Node5</title>
<path fill="none" stroke="#9a32cd" stroke-dasharray="5,2" d="M1418.42,-390.23C1407.63,-378.27 1391.63,-363.21 1374,-355.58 1210.98,-285.03 988.67,-313.08 910.28,-326.24"/>
<polygon fill="#9a32cd" stroke="#9a32cd" points="1415.84,-392.59 1425.02,-397.88 1421.14,-388.02 1415.84,-392.59"/>
<text text-anchor="middle" x="1133.5" y="-313.58" font-family="Fira Code" font-size="10.00"> host</text>
</g>
<!-- Node7 -->
<g id="node7" class="node">
<title>Node7</title>
<g id="a_node7"><a xlink:href="struct_log_state.html" target="_top" xlink:title="Used to persist the log output streams between hot&#45;reloads.">
<polygon fill="white" stroke="black" points="471,-329.08 471,-348.08 536,-348.08 536,-329.08 471,-329.08"/>
<text text-anchor="middle" x="503.5" y="-336.08" font-family="Fira Code" font-size="10.00">LogState</text>
</a>
</g>
</g>
<!-- Node7&#45;&gt;Node6 -->
<g id="edge7" class="edge">
<title>Node7&#45;&gt;Node6</title>
<path fill="none" stroke="#9a32cd" stroke-dasharray="5,2" d="M519.47,-356.03C531.47,-368.74 549.49,-385.16 569,-393.58 621.75,-416.33 640.05,-407.58 697.5,-407.58 697.5,-407.58 697.5,-407.58 1233.5,-407.58 1288.26,-407.58 1351.5,-407.58 1391.72,-407.58"/>
<polygon fill="#9a32cd" stroke="#9a32cd" points="521.8,-353.39 512.49,-348.33 516.61,-358.09 521.8,-353.39"/>
<text text-anchor="middle" x="947.5" y="-410.58" font-family="Fira Code" font-size="10.00"> log</text>
</g>
<!-- Node8 -->
<g id="node8" class="node">
<title>Node8</title>
<g id="a_node8"><a xlink:title=" ">
<polygon fill="white" stroke="black" points="264,-269.08 264,-288.08 299,-288.08 299,-269.08 264,-269.08"/>
<text text-anchor="middle" x="281.5" y="-276.08" font-family="Fira Code" font-size="10.00">int</text>
</a>
</g>
</g>
<!-- Node8&#45;&gt;Node7 -->
<g id="edge8" class="edge">
<title>Node8&#45;&gt;Node7</title>
<path fill="none" stroke="#9a32cd" stroke-dasharray="5,2" d="M309.13,-283.32C340.35,-289.17 393.48,-300.02 438,-313.58 452.36,-317.95 468.08,-324.01 480.4,-329.07"/>
<polygon fill="#9a32cd" stroke="#9a32cd" points="309.52,-279.84 299.05,-281.47 308.25,-286.72 309.52,-279.84"/>
<text text-anchor="middle" x="404.5" y="-316.58" font-family="Fira Code" font-size="10.00"> level</text>
</g>
<!-- Node15 -->
<g id="node15" class="node">
<title>Node15</title>
<g id="a_node15"><a xlink:href="struct_text.html" target="_top" xlink:title="Represents a texture generated by rendering text in a TTF font.">
<polygon fill="white" stroke="black" points="483,-633.08 483,-652.08 524,-652.08 524,-633.08 483,-633.08"/>
<text text-anchor="middle" x="503.5" y="-640.08" font-family="Fira Code" font-size="10.00">Text</text>
</a>
</g>
</g>
<!-- Node8&#45;&gt;Node15 -->
<g id="edge18" class="edge">
<title>Node8&#45;&gt;Node15</title>
<path fill="none" stroke="#9a32cd" stroke-dasharray="5,2" d="M309.54,-278.84C324.57,-280.49 342.34,-285.22 353,-297.58 398.02,-349.75 326.32,-399.11 371,-451.58 391.07,-475.14 415.23,-449.61 438,-470.58 487.5,-516.16 499.22,-603.45 501.81,-632.73"/>
<polygon fill="#9a32cd" stroke="#9a32cd" points="309.44,-275.32 299.22,-278.11 308.95,-282.3 309.44,-275.32"/>
<text text-anchor="middle" x="404.5" y="-484.58" font-family="Fira Code" font-size="10.00"> height</text>
<text text-anchor="middle" x="404.5" y="-473.58" font-family="Fira Code" font-size="10.00">width</text>
</g>
<!-- Node28 -->
<g id="node28" class="node">
<title>Node28</title>
<g id="a_node28"><a xlink:href="struct_mouse_axes.html" target="_top" xlink:title="Represents the mouse state.">
<polygon fill="white" stroke="black" points="468,-247.08 468,-266.08 539,-266.08 539,-247.08 468,-247.08"/>
<text text-anchor="middle" x="503.5" y="-254.08" font-family="Fira Code" font-size="10.00">MouseAxes</text>
</a>
</g>
</g>
<!-- Node8&#45;&gt;Node28 -->
<g id="edge34" class="edge">
<title>Node8&#45;&gt;Node28</title>
<path fill="none" stroke="#9a32cd" stroke-dasharray="5,2" d="M309.27,-270.56C326.68,-265.76 349.97,-260.12 371,-257.58 403.64,-253.63 441.17,-253.81 467.76,-254.72"/>
<polygon fill="#9a32cd" stroke="#9a32cd" points="307.92,-267.3 299.26,-273.4 309.84,-274.04 307.92,-267.3"/>
<text text-anchor="middle" x="404.5" y="-282.58" font-family="Fira Code" font-size="10.00"> scroll</text>
<text text-anchor="middle" x="404.5" y="-271.58" font-family="Fira Code" font-size="10.00">x</text>
<text text-anchor="middle" x="404.5" y="-260.58" font-family="Fira Code" font-size="10.00">y</text>
</g>
<!-- Node9 -->
<g id="node9" class="node">
<title>Node9</title>
<g id="a_node9"><a xlink:title=" ">
<polygon fill="white" stroke="black" points="39,-392.08 39,-411.08 80,-411.08 80,-392.08 39,-392.08"/>
<text text-anchor="middle" x="59.5" y="-399.08" font-family="Fira Code" font-size="10.00">bool</text>
</a>
</g>
</g>
<!-- Node9&#45;&gt;Node7 -->
<g id="edge9" class="edge">
<title>Node9&#45;&gt;Node7</title>
<path fill="none" stroke="#9a32cd" stroke-dasharray="5,2" d="M90.37,-402.01C117.06,-402.13 157.21,-401.66 192,-398.58 264.13,-392.18 289.74,-408.81 353,-373.58 363.74,-367.6 360.12,-358.3 371,-352.58 402.09,-336.23 442.99,-334.42 470.87,-335.61"/>
<polygon fill="#9a32cd" stroke="#9a32cd" points="90.18,-398.51 80.15,-401.93 90.12,-405.51 90.18,-398.51"/>
<text text-anchor="middle" x="281.5" y="-399.58" font-family="Fira Code" font-size="10.00"> quiet</text>
</g>
<!-- Node18 -->
<g id="node18" class="node">
<title>Node18</title>
<g id="a_node18"><a xlink:href="struct_sdl_mouse_cursor.html" target="_top" xlink:title="Represents the mouse cursor state.">
<polygon fill="white" stroke="black" points="231,-591.08 231,-610.08 332,-610.08 332,-591.08 231,-591.08"/>
<text text-anchor="middle" x="281.5" y="-598.08" font-family="Fira Code" font-size="10.00">SdlMouseCursor</text>
</a>
</g>
</g>
<!-- Node9&#45;&gt;Node18 -->
<g id="edge22" class="edge">
<title>Node9&#45;&gt;Node18</title>
<path fill="none" stroke="#9a32cd" stroke-dasharray="5,2" d="M71.11,-420.41C92.56,-456.73 144.62,-536.66 210,-579.58 217.37,-584.41 225.88,-588.17 234.4,-591.07"/>
<polygon fill="#9a32cd" stroke="#9a32cd" points="73.93,-418.29 65.89,-411.38 67.87,-421.79 73.93,-418.29"/>
<text text-anchor="middle" x="164.5" y="-567.58" font-family="Fira Code" font-size="10.00"> visible</text>
</g>
<!-- Node32 -->
<g id="node32" class="node">
<title>Node32</title>
<g id="a_node32"><a xlink:href="struct_keybind.html" target="_top" xlink:title="Represents a keyboard key combination the state of which is being tracked by an action.">
<polygon fill="white" stroke="black" points="252,-345.08 252,-364.08 311,-364.08 311,-345.08 252,-345.08"/>
<text text-anchor="middle" x="281.5" y="-352.08" font-family="Fira Code" font-size="10.00">Keybind</text>
</a>
</g>
</g>
<!-- Node9&#45;&gt;Node32 -->
<g id="edge43" class="edge">
<title>Node9&#45;&gt;Node32</title>
<path fill="none" stroke="#9a32cd" stroke-dasharray="5,2" d="M89.99,-395.28C132.33,-386.23 209.85,-369.67 251.77,-360.72"/>
<polygon fill="#9a32cd" stroke="#9a32cd" points="89.07,-391.89 80.02,-397.41 90.53,-398.74 89.07,-391.89"/>
<text text-anchor="middle" x="164.5" y="-387.58" font-family="Fira Code" font-size="10.00"> state</text>
</g>
<!-- Node35 -->
<g id="node35" class="node">
<title>Node35</title>
<g id="a_node35"><a xlink:href="struct_mousebind.html" target="_top" xlink:title="Represents a mouse button combination the state of which is being tracked by an action.">
<polygon fill="white" stroke="black" points="246,-307.08 246,-326.08 317,-326.08 317,-307.08 246,-307.08"/>
<text text-anchor="middle" x="281.5" y="-314.08" font-family="Fira Code" font-size="10.00">Mousebind</text>
</a>
</g>
</g>
<!-- Node9&#45;&gt;Node35 -->
<g id="edge47" class="edge">
<title>Node9&#45;&gt;Node35</title>
<path fill="none" stroke="#9a32cd" stroke-dasharray="5,2" d="M89.45,-390.99C99.68,-386.22 110.69,-379.78 119,-371.58 131.17,-359.57 123.03,-347.44 137,-337.58 168.78,-315.15 214.47,-312.14 245.7,-313.28"/>
<polygon fill="#9a32cd" stroke="#9a32cd" points="87.8,-387.89 80,-395.06 90.57,-394.32 87.8,-387.89"/>
<text text-anchor="middle" x="164.5" y="-340.58" font-family="Fira Code" font-size="10.00"> state</text>
</g>
<!-- Node10 -->
<g id="node10" class="node">
<title>Node10</title>
<g id="a_node10"><a xlink:title=" ">
<polygon fill="white" stroke="black" points="255,-213.08 255,-232.08 308,-232.08 308,-213.08 255,-213.08"/>
<text text-anchor="middle" x="281.5" y="-220.08" font-family="Fira Code" font-size="10.00">FILE *</text>
</a>
</g>
</g>
<!-- Node10&#45;&gt;Node7 -->
<g id="edge10" class="edge">
<title>Node10&#45;&gt;Node7</title>
<path fill="none" stroke="#9a32cd" stroke-dasharray="5,2" d="M318.35,-215.42C353.26,-210.67 405.67,-209.8 438,-238.58 465.55,-263.1 432.22,-291.39 456,-319.58 459.94,-324.24 465.2,-327.78 470.76,-330.45"/>
<polygon fill="#9a32cd" stroke="#9a32cd" points="317.47,-212.01 308.11,-216.98 318.53,-218.93 317.47,-212.01"/>
<text text-anchor="middle" x="404.5" y="-241.58" font-family="Fira Code" font-size="10.00"> file</text>
</g>
<!-- Node11&#45;&gt;Node5 -->
<g id="edge11" class="edge">
<title>Node11&#45;&gt;Node5</title>
<path fill="none" stroke="#9a32cd" stroke-dasharray="5,2" d="M1430.77,-564.82C1426.81,-532.03 1414.06,-466.53 1374,-431.58 1303.41,-369.99 1004.68,-341.36 910.24,-333.73"/>
<polygon fill="#9a32cd" stroke="#9a32cd" points="1427.31,-565.37 1431.84,-574.95 1434.27,-564.64 1427.31,-565.37"/>
<text text-anchor="middle" x="1133.5" y="-366.58" font-family="Fira Code" font-size="10.00"> sdl</text>
</g>
<!-- Node12 -->
<g id="node12" class="node">
<title>Node12</title>
<g id="a_node12"><a xlink:title=" ">
<polygon fill="white" stroke="black" points="1188,-678.08 1188,-697.08 1277,-697.08 1277,-678.08 1188,-678.08"/>
<text text-anchor="middle" x="1232.5" y="-685.08" font-family="Fira Code" font-size="10.00">SDL_Window *</text>
</a>
</g>
</g>
<!-- Node12&#45;&gt;Node11 -->
<g id="edge12" class="edge">
<title>Node12&#45;&gt;Node11</title>
<path fill="none" stroke="#9a32cd" stroke-dasharray="5,2" d="M1287.6,-687.73C1315.21,-685.57 1348.3,-679.38 1374,-663.58 1401.62,-646.59 1420.47,-611.3 1428.35,-594.24"/>
<polygon fill="#9a32cd" stroke="#9a32cd" points="1287.08,-684.25 1277.31,-688.37 1287.51,-691.24 1287.08,-684.25"/>
<text text-anchor="middle" x="1337.5" y="-688.58" font-family="Fira Code" font-size="10.00"> window</text>
</g>
<!-- Node13 -->
<g id="node13" class="node">
<title>Node13</title>
<g id="a_node13"><a xlink:title=" ">
<polygon fill="white" stroke="black" points="1182,-556.08 1182,-575.08 1283,-575.08 1283,-556.08 1182,-556.08"/>
<text text-anchor="middle" x="1232.5" y="-563.08" font-family="Fira Code" font-size="10.00">SDL_Renderer *</text>
</a>
</g>
</g>
<!-- Node13&#45;&gt;Node11 -->
<g id="edge13" class="edge">
<title>Node13&#45;&gt;Node11</title>
<path fill="none" stroke="#9a32cd" stroke-dasharray="5,2" d="M1293.3,-570.98C1318.25,-573.27 1347.54,-576 1374,-578.58 1380.71,-579.23 1387.84,-579.95 1394.74,-580.65"/>
<polygon fill="#9a32cd" stroke="#9a32cd" points="1293.53,-567.49 1283.25,-570.06 1292.89,-574.46 1293.53,-567.49"/>
<text text-anchor="middle" x="1337.5" y="-581.58" font-family="Fira Code" font-size="10.00"> renderer</text>
</g>
<!-- Node14 -->
<g id="node14" class="node">
<title>Node14</title>
<g id="a_node14"><a xlink:href="struct_font_book.html" target="_top" xlink:title=" ">
<polygon fill="white" stroke="black" points="761,-638.08 761,-657.08 826,-657.08 826,-638.08 761,-638.08"/>
<text text-anchor="middle" x="793.5" y="-645.08" font-family="Fira Code" font-size="10.00">FontBook</text>
</a>
</g>
</g>
<!-- Node14&#45;&gt;Node11 -->
<g id="edge14" class="edge">
<title>Node14&#45;&gt;Node11</title>
<path fill="none" stroke="#9a32cd" stroke-dasharray="5,2" d="M836.51,-648.43C867.02,-648.97 909.32,-649.58 946.5,-649.58 946.5,-649.58 946.5,-649.58 1233.5,-649.58 1297.54,-649.58 1314.26,-640.66 1374,-617.58 1389.88,-611.44 1406.67,-601.57 1418.18,-594.22"/>
<polygon fill="#9a32cd" stroke="#9a32cd" points="836.29,-644.92 826.23,-648.24 836.16,-651.92 836.29,-644.92"/>
<text text-anchor="middle" x="1031.5" y="-652.58" font-family="Fira Code" font-size="10.00"> fonts</text>
</g>
<!-- Node15&#45;&gt;Node14 -->
<g id="edge15" class="edge">
<title>Node15&#45;&gt;Node14</title>
<path fill="none" stroke="#9a32cd" stroke-dasharray="5,2" d="M534.38,-643.1C589.03,-644.04 704.62,-646.05 760.68,-647.03"/>
<polygon fill="#9a32cd" stroke="#9a32cd" points="534.35,-639.6 524.3,-642.92 534.23,-646.59 534.35,-639.6"/>
<text text-anchor="middle" x="602.5" y="-647.58" font-family="Fira Code" font-size="10.00"> fpsFont</text>
</g>
<!-- Node16 -->
<g id="node16" class="node">
<title>Node16</title>
<g id="a_node16"><a xlink:title=" ">
<polygon fill="white" stroke="black" points="243,-668.08 243,-687.08 320,-687.08 320,-668.08 243,-668.08"/>
<text text-anchor="middle" x="281.5" y="-675.08" font-family="Fira Code" font-size="10.00">TTF_Font *</text>
</a>
</g>
</g>
<!-- Node16&#45;&gt;Node15 -->
<g id="edge16" class="edge">
<title>Node16&#45;&gt;Node15</title>
<path fill="none" stroke="#9a32cd" stroke-dasharray="5,2" d="M330.34,-671.54C361.15,-667.48 402.03,-661.74 438,-655.58 453.09,-652.99 470.05,-649.55 482.8,-646.86"/>
<polygon fill="#9a32cd" stroke="#9a32cd" points="329.76,-668.09 320.3,-672.86 330.67,-675.03 329.76,-668.09"/>
<text text-anchor="middle" x="404.5" y="-667.58" font-family="Fira Code" font-size="10.00"> font</text>
</g>
<!-- Node17 -->
<g id="node17" class="node">
<title>Node17</title>
<g id="a_node17"><a xlink:title=" ">
<polygon fill="white" stroke="black" points="234,-630.08 234,-649.08 329,-649.08 329,-630.08 234,-630.08"/>
<text text-anchor="middle" x="281.5" y="-637.08" font-family="Fira Code" font-size="10.00">SDL_Texture *</text>
</a>
</g>
</g>
<!-- Node17&#45;&gt;Node15 -->
<g id="edge17" class="edge">
<title>Node17&#45;&gt;Node15</title>
<path fill="none" stroke="#9a32cd" stroke-dasharray="5,2" d="M339.25,-640.35C386.47,-641 450.94,-641.87 482.89,-642.31"/>
<polygon fill="#9a32cd" stroke="#9a32cd" points="339.2,-636.85 329.16,-640.21 339.11,-643.85 339.2,-636.85"/>
<text text-anchor="middle" x="404.5" y="-644.58" font-family="Fira Code" font-size="10.00"> tex</text>
</g>
<!-- Node18&#45;&gt;Node11 -->
<g id="edge20" class="edge">
<title>Node18&#45;&gt;Node11</title>
<path fill="none" stroke="#9a32cd" stroke-dasharray="5,2" d="M342.31,-601.83C386.55,-602.66 448.28,-603.58 502.5,-603.58 502.5,-603.58 502.5,-603.58 1233.5,-603.58 1289.9,-603.58 1354.88,-595.92 1394.82,-590.33"/>
<polygon fill="#9a32cd" stroke="#9a32cd" points="342.37,-598.33 332.3,-601.64 342.23,-605.33 342.37,-598.33"/>
<text text-anchor="middle" x="880.5" y="-606.58" font-family="Fira Code" font-size="10.00"> mouseCursor</text>
</g>
<!-- Node19 -->
<g id="node19" class="node">
<title>Node19</title>
<g id="a_node19"><a xlink:title=" ">
<polygon fill="white" stroke="black" points="24,-591.08 24,-610.08 95,-610.08 95,-591.08 24,-591.08"/>
<text text-anchor="middle" x="59.5" y="-598.08" font-family="Fira Code" font-size="10.00">SDL_Color</text>
</a>
</g>
</g>
<!-- Node19&#45;&gt;Node18 -->
<g id="edge21" class="edge">
<title>Node19&#45;&gt;Node18</title>
<path fill="none" stroke="#9a32cd" stroke-dasharray="5,2" d="M105.67,-600.58C142.04,-600.58 193.11,-600.58 230.67,-600.58"/>
<polygon fill="#9a32cd" stroke="#9a32cd" points="105.36,-597.08 95.36,-600.58 105.36,-604.08 105.36,-597.08"/>
<text text-anchor="middle" x="164.5" y="-603.58" font-family="Fira Code" font-size="10.00"> color</text>
</g>
<!-- Node20 -->
<g id="node20" class="node">
<title>Node20</title>
<g id="a_node20"><a xlink:href="struct_game_context.html" target="_top" xlink:title="Parent node of the entire game state.">
<polygon fill="white" stroke="black" points="657,-197.08 657,-216.08 740,-216.08 740,-197.08 657,-197.08"/>
<text text-anchor="middle" x="698.5" y="-204.08" font-family="Fira Code" font-size="10.00">GameContext</text>
</a>
</g>
</g>
<!-- Node20&#45;&gt;Node5 -->
<g id="edge23" class="edge">
<title>Node20&#45;&gt;Node5</title>
<path fill="none" stroke="#9a32cd" stroke-dasharray="5,2" d="M721.6,-221.92C759.2,-248.04 834.56,-300.37 865.63,-321.94"/>
<polygon fill="#9a32cd" stroke="#9a32cd" points="723.54,-219.01 713.33,-216.18 719.54,-224.76 723.54,-219.01"/>
<text text-anchor="middle" x="793.5" y="-293.58" font-family="Fira Code" font-size="10.00"> game</text>
</g>
<!-- Node21 -->
<g id="node21" class="node">
<title>Node21</title>
<g id="a_node21"><a xlink:href="struct_sim_clock.html" target="_top" xlink:title="Represents time inside the game world.">
<polygon fill="white" stroke="black" points="471,-109.08 471,-128.08 536,-128.08 536,-109.08 471,-109.08"/>
<text text-anchor="middle" x="503.5" y="-116.08" font-family="Fira Code" font-size="10.00">SimClock</text>
</a>
</g>
</g>
<!-- Node21&#45;&gt;Node20 -->
<g id="edge24" class="edge">
<title>Node21&#45;&gt;Node20</title>
<path fill="none" stroke="#9a32cd" stroke-dasharray="5,2" d="M534.91,-132.44C574.4,-150.45 642.3,-181.41 676.5,-197"/>
<polygon fill="#9a32cd" stroke="#9a32cd" points="536.07,-129.13 525.52,-128.16 533.17,-135.5 536.07,-129.13"/>
<text text-anchor="middle" x="602.5" y="-180.58" font-family="Fira Code" font-size="10.00"> clock</text>
</g>
<!-- Node22 -->
<g id="node22" class="node">
<title>Node22</title>
<g id="a_node22"><a xlink:href="struct_wall_clock.html" target="_top" xlink:title="Represents real outside&#45;world time.">
<polygon fill="white" stroke="black" points="246,-90.08 246,-109.08 317,-109.08 317,-90.08 246,-90.08"/>
<text text-anchor="middle" x="281.5" y="-97.08" font-family="Fira Code" font-size="10.00">WallClock</text>
</a>
</g>
</g>
<!-- Node22&#45;&gt;Node21 -->
<g id="edge25" class="edge">
<title>Node22&#45;&gt;Node21</title>
<path fill="none" stroke="#9a32cd" stroke-dasharray="5,2" d="M327.34,-98.87C358.49,-98.9 400.91,-99.99 438,-104.58 448.8,-105.91 460.47,-108.18 470.87,-110.51"/>
<polygon fill="#9a32cd" stroke="#9a32cd" points="327.22,-95.37 317.23,-98.9 327.23,-102.37 327.22,-95.37"/>
<text text-anchor="middle" x="404.5" y="-107.58" font-family="Fira Code" font-size="10.00"> real</text>
</g>
<!-- Node23 -->
<g id="node23" class="node">
<title>Node23</title>
<g id="a_node23"><a xlink:title=" ">
<polygon fill="white" stroke="black" points="27,-20.08 27,-39.08 92,-39.08 92,-20.08 27,-20.08"/>
<text text-anchor="middle" x="59.5" y="-27.08" font-family="Fira Code" font-size="10.00">uint64_t</text>
</a>
</g>
</g>
<!-- Node23&#45;&gt;Node21 -->
<g id="edge27" class="edge">
<title>Node23&#45;&gt;Node21</title>
<path fill="none" stroke="#9a32cd" stroke-dasharray="5,2" d="M101.99,-18.56C159.75,-5.2 266.95,12.41 353,-14.58 413.64,-33.59 471.22,-86.86 493.16,-108.87"/>
<polygon fill="#9a32cd" stroke="#9a32cd" points="101.06,-15.18 92.14,-20.91 102.68,-21.99 101.06,-15.18"/>
<text text-anchor="middle" x="281.5" y="-72.58" font-family="Fira Code" font-size="10.00"> Dt</text>
<text text-anchor="middle" x="281.5" y="-61.58" font-family="Fira Code" font-size="10.00">period</text>
<text text-anchor="middle" x="281.5" y="-50.58" font-family="Fira Code" font-size="10.00">t</text>
<text text-anchor="middle" x="281.5" y="-39.58" font-family="Fira Code" font-size="10.00">tick</text>
<text text-anchor="middle" x="281.5" y="-28.58" font-family="Fira Code" font-size="10.00">tpsAccumNs</text>
<text text-anchor="middle" x="281.5" y="-17.58" font-family="Fira Code" font-size="10.00">tpsAccumTicks</text>
</g>
<!-- Node23&#45;&gt;Node22 -->
<g id="edge26" class="edge">
<title>Node23&#45;&gt;Node22</title>
<path fill="none" stroke="#9a32cd" stroke-dasharray="5,2" d="M100.24,-42.22C143.41,-55.96 211.41,-77.6 250.38,-89.99"/>
<polygon fill="#9a32cd" stroke="#9a32cd" points="101.22,-38.86 90.63,-39.16 99.1,-45.53 101.22,-38.86"/>
<text text-anchor="middle" x="164.5" y="-85.58" font-family="Fira Code" font-size="10.00"> t</text>
<text text-anchor="middle" x="164.5" y="-74.58" font-family="Fira Code" font-size="10.00">t0</text>
</g>
<!-- Node24 -->
<g id="node24" class="node">
<title>Node24</title>
<g id="a_node24"><a xlink:title=" ">
<polygon fill="white" stroke="black" points="258,-128.08 258,-147.08 305,-147.08 305,-128.08 258,-128.08"/>
<text text-anchor="middle" x="281.5" y="-135.08" font-family="Fira Code" font-size="10.00">float</text>
</a>
</g>
</g>
<!-- Node24&#45;&gt;Node21 -->
<g id="edge28" class="edge">
<title>Node24&#45;&gt;Node21</title>
<path fill="none" stroke="#9a32cd" stroke-dasharray="5,2" d="M315.18,-134.76C357.08,-131.14 429.28,-124.9 470.74,-121.32"/>
<polygon fill="#9a32cd" stroke="#9a32cd" points="314.88,-131.27 305.22,-135.62 315.48,-138.24 314.88,-131.27"/>
<text text-anchor="middle" x="404.5" y="-143.58" font-family="Fira Code" font-size="10.00"> dt</text>
<text text-anchor="middle" x="404.5" y="-132.58" font-family="Fira Code" font-size="10.00">tps</text>
</g>
<!-- Node25 -->
<g id="node25" class="node">
<title>Node25</title>
<g id="a_node25"><a xlink:title=" ">
<polygon fill="white" stroke="black" points="456,-197.08 456,-216.08 551,-216.08 551,-197.08 456,-197.08"/>
<text text-anchor="middle" x="503.5" y="-204.08" font-family="Fira Code" font-size="10.00">volatile bool</text>
</a>
</g>
</g>
<!-- Node25&#45;&gt;Node20 -->
<g id="edge29" class="edge">
<title>Node25&#45;&gt;Node20</title>
<path fill="none" stroke="#9a32cd" stroke-dasharray="5,2" d="M561.34,-206.58C591.96,-206.58 629.05,-206.58 656.77,-206.58"/>
<polygon fill="#9a32cd" stroke="#9a32cd" points="561.22,-203.08 551.22,-206.58 561.22,-210.08 561.22,-203.08"/>
<text text-anchor="middle" x="602.5" y="-220.58" font-family="Fira Code" font-size="10.00"> paused</text>
<text text-anchor="middle" x="602.5" y="-209.58" font-family="Fira Code" font-size="10.00">running</text>
</g>
<!-- Node26&#45;&gt;Node5 -->
<g id="edge30" class="edge">
<title>Node26&#45;&gt;Node5</title>
<path fill="none" stroke="#9a32cd" stroke-dasharray="5,2" d="M753.2,-311.93C785.27,-316.92 824.73,-323.06 850.92,-327.13"/>
<polygon fill="#9a32cd" stroke="#9a32cd" points="753.49,-308.43 743.07,-310.36 752.42,-315.35 753.49,-308.43"/>
<text text-anchor="middle" x="793.5" y="-324.58" font-family="Fira Code" font-size="10.00"> input</text>
</g>
<!-- Node27 -->
<g id="node27" class="node">
<title>Node27</title>
<g id="a_node27"><a xlink:title=" ">
<polygon fill="white" stroke="black" points="477,-291.08 477,-310.08 530,-310.08 530,-291.08 477,-291.08"/>
<text text-anchor="middle" x="503.5" y="-298.08" font-family="Fira Code" font-size="10.00">size_t</text>
</a>
</g>
</g>
<!-- Node27&#45;&gt;Node26 -->
<g id="edge32" class="edge">
<title>Node27&#45;&gt;Node26</title>
<path fill="none" stroke="#9a32cd" stroke-dasharray="5,2" d="M540.37,-301.14C572.39,-301.63 619.38,-302.36 653.63,-302.9"/>
<polygon fill="#9a32cd" stroke="#9a32cd" points="540.18,-297.63 530.13,-300.98 540.07,-304.63 540.18,-297.63"/>
<text text-anchor="middle" x="602.5" y="-316.58" font-family="Fira Code" font-size="10.00"> nKeybinds</text>
<text text-anchor="middle" x="602.5" y="-305.58" font-family="Fira Code" font-size="10.00">nMousebinds</text>
</g>
<!-- Node28&#45;&gt;Node26 -->
<g id="edge33" class="edge">
<title>Node28&#45;&gt;Node26</title>
<path fill="none" stroke="#9a32cd" stroke-dasharray="5,2" d="M548.98,-266.2C574.51,-271.85 607.14,-279.3 636,-286.58 645.13,-288.88 654.98,-291.53 664.06,-294.04"/>
<polygon fill="#9a32cd" stroke="#9a32cd" points="549.73,-262.78 539.21,-264.05 548.22,-269.62 549.73,-262.78"/>
<text text-anchor="middle" x="602.5" y="-289.58" font-family="Fira Code" font-size="10.00"> mouse</text>
</g>
<!-- Node29 -->
<g id="node29" class="node">
<title>Node29</title>
<g id="a_node29"><a xlink:title=" ">
<polygon fill="white" stroke="black" points="0,-191.08 0,-210.08 119,-210.08 119,-191.08 0,-191.08"/>
<text text-anchor="middle" x="59.5" y="-198.08" font-family="Fira Code" font-size="10.00">enum MouseButtons</text>
</a>
</g>
</g>
<!-- Node29&#45;&gt;Node28 -->
<g id="edge35" class="edge">
<title>Node29&#45;&gt;Node28</title>
<path fill="none" stroke="#9a32cd" stroke-dasharray="5,2" d="M110.49,-188.99C185.93,-174.22 331.37,-156.48 438,-209.58 447.58,-214.35 447.53,-219.04 456,-225.58 465.98,-233.28 477.82,-241.16 487.05,-247.04"/>
<polygon fill="#9a32cd" stroke="#9a32cd" points="109.43,-185.64 100.32,-191.05 110.82,-192.5 109.43,-185.64"/>
<text text-anchor="middle" x="281.5" y="-184.58" font-family="Fira Code" font-size="10.00"> buttons</text>
</g>
<!-- Node29&#45;&gt;Node35 -->
<g id="edge45" class="edge">
<title>Node29&#45;&gt;Node35</title>
<path fill="none" stroke="#9a32cd" stroke-dasharray="5,2" d="M129.42,-198.84C151.87,-201.7 175.29,-208.86 192,-224.58 216.34,-247.47 186.63,-273.7 210,-297.58 219.4,-307.18 233.1,-312.09 245.93,-314.54"/>
<polygon fill="#9a32cd" stroke="#9a32cd" points="129.51,-195.33 119.21,-197.81 128.81,-202.29 129.51,-195.33"/>
<text text-anchor="middle" x="164.5" y="-227.58" font-family="Fira Code" font-size="10.00"> button</text>
</g>
<!-- Node30 -->
<g id="node30" class="node">
<title>Node30</title>
<g id="a_node30"><a xlink:title=" ">
<polygon fill="white" stroke="black" points="210,-551.08 210,-570.08 353,-570.08 353,-551.08 210,-551.08"/>
<text text-anchor="middle" x="281.5" y="-558.08" font-family="Fira Code" font-size="10.00">enum SignalTransition</text>
</a>
</g>
</g>
<!-- Node30&#45;&gt;Node1 -->
<g id="edge38" class="edge">
<title>Node30&#45;&gt;Node1</title>
<path fill="none" stroke="#9a32cd" stroke-dasharray="5,2" d="M363.3,-549.98C394.23,-544.79 425.16,-537.86 438,-529.58 469.34,-509.36 490.22,-468.1 498.5,-449.3"/>
<polygon fill="#9a32cd" stroke="#9a32cd" points="362.59,-546.55 353.28,-551.6 363.71,-553.46 362.59,-546.55"/>
<text text-anchor="middle" x="404.5" y="-550.58" font-family="Fira Code" font-size="10.00"> transition</text>
</g>
<!-- Node30&#45;&gt;Node4 -->
<g id="edge37" class="edge">
<title>Node30&#45;&gt;Node4</title>
<path fill="none" stroke="#9a32cd" stroke-dasharray="5,2" d="M363.49,-563.48C387.49,-563.84 413.81,-563.74 438,-562.58 637.99,-552.98 874.65,-525.26 977.91,-512.35"/>
<polygon fill="#9a32cd" stroke="#9a32cd" points="363.42,-559.98 353.36,-563.3 363.3,-566.98 363.42,-559.98"/>
<text text-anchor="middle" x="698.5" y="-549.58" font-family="Fira Code" font-size="10.00"> transition</text>
</g>
<!-- Node31 -->
<g id="node31" class="node">
<title>Node31</title>
<g id="a_node31"><a xlink:title=" ">
<polygon fill="white" stroke="black" points="213,-509.08 213,-528.08 350,-528.08 350,-509.08 213,-509.08"/>
<text text-anchor="middle" x="281.5" y="-516.08" font-family="Fira Code" font-size="10.00">enum InputDeviceType</text>
</a>
</g>
</g>
<!-- Node31&#45;&gt;Node1 -->
<g id="edge39" class="edge">
<title>Node31&#45;&gt;Node1</title>
<path fill="none" stroke="#9a32cd" stroke-dasharray="5,2" d="M360.41,-516.45C386.04,-513.46 414.07,-507.62 438,-496.58 462.15,-485.44 483.9,-462.23 494.91,-449.12"/>
<polygon fill="#9a32cd" stroke="#9a32cd" points="359.94,-512.98 350.35,-517.49 360.66,-519.94 359.94,-512.98"/>
<text text-anchor="middle" x="404.5" y="-517.58" font-family="Fira Code" font-size="10.00"> type</text>
</g>
<!-- Node32&#45;&gt;Node1 -->
<g id="edge40" class="edge">
<title>Node32&#45;&gt;Node1</title>
<path fill="none" stroke="#9a32cd" stroke-dasharray="5,2" d="M320.83,-367.17C331.31,-370.73 342.63,-374.7 353,-378.58 398.69,-395.66 451.33,-417.7 480.37,-430.07"/>
<polygon fill="#9a32cd" stroke="#9a32cd" points="321.7,-363.77 311.11,-363.89 319.47,-370.4 321.7,-363.77"/>
<text text-anchor="middle" x="404.5" y="-413.58" font-family="Fira Code" font-size="10.00"> keybind</text>
</g>
<!-- Node33 -->
<g id="node33" class="node">
<title>Node33</title>
<g id="a_node33"><a xlink:title=" ">
<polygon fill="white" stroke="black" points="9,-343.08 9,-362.08 110,-362.08 110,-343.08 9,-343.08"/>
<text text-anchor="middle" x="59.5" y="-350.08" font-family="Fira Code" font-size="10.00">unsigned short</text>
</a>
</g>
</g>
<!-- Node33&#45;&gt;Node32 -->
<g id="edge41" class="edge">
<title>Node33&#45;&gt;Node32</title>
<path fill="none" stroke="#9a32cd" stroke-dasharray="5,2" d="M120.23,-352.99C142.73,-353.15 168.54,-353.36 192,-353.58 211.97,-353.77 234.48,-354.02 251.8,-354.23"/>
<polygon fill="#9a32cd" stroke="#9a32cd" points="120.17,-349.48 110.14,-352.91 120.12,-356.48 120.17,-349.48"/>
<text text-anchor="middle" x="164.5" y="-356.58" font-family="Fira Code" font-size="10.00"> keyIndex</text>
</g>
<!-- Node34 -->
<g id="node34" class="node">
<title>Node34</title>
<g id="a_node34"><a xlink:title=" ">
<polygon fill="white" stroke="black" points="0,-260.08 0,-279.08 119,-279.08 119,-260.08 0,-260.08"/>
<text text-anchor="middle" x="59.5" y="-267.08" font-family="Fira Code" font-size="10.00">enum ModifierKeys</text>
</a>
</g>
</g>
<!-- Node34&#45;&gt;Node32 -->
<g id="edge42" class="edge">
<title>Node34&#45;&gt;Node32</title>
<path fill="none" stroke="#9a32cd" stroke-dasharray="5,2" d="M129.1,-264.3C151.19,-265.94 174.46,-271.59 192,-285.58 210.47,-300.3 192.63,-319.58 210,-335.58 221.28,-345.97 237.65,-350.78 251.77,-352.97"/>
<polygon fill="#9a32cd" stroke="#9a32cd" points="129.22,-260.8 119.07,-263.82 128.89,-267.8 129.22,-260.8"/>
<text text-anchor="middle" x="164.5" y="-288.58" font-family="Fira Code" font-size="10.00"> mod</text>
</g>
<!-- Node34&#45;&gt;Node35 -->
<g id="edge46" class="edge">
<title>Node34&#45;&gt;Node35</title>
<path fill="none" stroke="#9a32cd" stroke-dasharray="5,2" d="M87.77,-255.75C116.26,-243.46 161.01,-230.43 192,-251.58 210.13,-263.95 193.65,-282.93 210,-297.58 219.82,-306.37 233.3,-311.16 245.84,-313.74"/>
<polygon fill="#9a32cd" stroke="#9a32cd" points="86.08,-252.68 78.43,-260.01 88.98,-259.05 86.08,-252.68"/>
<text text-anchor="middle" x="164.5" y="-254.58" font-family="Fira Code" font-size="10.00"> mod</text>
</g>
<!-- Node35&#45;&gt;Node1 -->
<g id="edge44" class="edge">
<title>Node35&#45;&gt;Node1</title>
<path fill="none" stroke="#9a32cd" stroke-dasharray="5,2" d="M326.87,-325.24C359.69,-333.18 404.34,-347.31 438,-370.58 462.55,-387.55 484.79,-415.26 495.6,-429.87"/>
<polygon fill="#9a32cd" stroke="#9a32cd" points="327.62,-321.82 317.09,-322.97 326.04,-328.64 327.62,-321.82"/>
<text text-anchor="middle" x="404.5" y="-373.58" font-family="Fira Code" font-size="10.00"> mousebind</text>
</g>
<!-- Node36 -->
<g id="node36" class="node">
<title>Node36</title>
<g id="a_node36"><a xlink:title=" ">
<polygon fill="white" stroke="black" points="237,-430.08 237,-449.08 326,-449.08 326,-430.08 237,-430.08"/>
<text text-anchor="middle" x="281.5" y="-437.08" font-family="Fira Code" font-size="10.00">anonymous:@1</text>
</a>
</g>
</g>
<!-- Node36&#45;&gt;Node1 -->
<g id="edge48" class="edge">
<title>Node36&#45;&gt;Node1</title>
<path fill="none" stroke="#9a32cd" stroke-dasharray="5,2" d="M336.23,-439.58C372.83,-439.58 420.81,-439.58 455.81,-439.58"/>
<polygon fill="#9a32cd" stroke="#9a32cd" points="336.23,-436.08 326.23,-439.58 336.23,-443.08 336.23,-436.08"/>
<text text-anchor="middle" x="404.5" y="-442.58" font-family="Fira Code" font-size="10.00"> @1</text>
</g>
</g>
</svg>
