<?xml version="1.0" encoding="UTF-8" standalone="no"?>
<!DOCTYPE svg PUBLIC "-//W3C//DTD SVG 1.1//EN"
 "http://www.w3.org/Graphics/SVG/1.1/DTD/svg11.dtd">
<!-- Generated by graphviz version 3.0.0 (20220226.1711)
 -->
<!-- Title: InputAction Pages: 1 -->
<!--zoomable 757 -->
<svg id="main" version="1.1" xmlns="http://www.w3.org/2000/svg" xmlns:xlink="http://www.w3.org/1999/xlink" xml:space="preserve" onload="init(evt)">
<style type="text/css"><![CDATA[
.edge:hover path { stroke: red; }
.edge:hover polygon { stroke: red; fill: red; }
]]></style>
<script type="text/javascript"><![CDATA[
var edges = document.getElementsByTagName('g');
if (edges && edges.length) {
  for (var i=0;i<edges.length;i++) {
    if (edges[i].id.substr(0,4)=='edge') {
      edges[i].setAttribute('class','edge');
    }
  }
}
]]></script>
        <defs>
                <circle id="rim" cx="0" cy="0" r="7"/>
                <circle id="rim2" cx="0" cy="0" r="3.5"/>
                <g id="zoomPlus">
                        <use xlink:href="#rim" fill="#404040">
                                <set attributeName="fill" to="#808080" begin="zoomplus.mouseover" end="zoomplus.mouseout"/>
                        </use>
                        <path d="M-4,0h8M0,-4v8" fill="none" stroke="white" stroke-width="1.5" pointer-events="none"/>
                </g>
                <g id="zoomMin">
                        <use xlink:href="#rim" fill="#404040">
                                <set attributeName="fill" to="#808080" begin="zoomminus.mouseover" end="zoomminus.mouseout"/>
                        </use>
                        <path d="M-4,0h8" fill="none" stroke="white" stroke-width="1.5" pointer-events="none"/>
                </g>
                <g id="dirArrow">
                        <path fill="none" stroke="white" stroke-width="1.5" d="M0,-3.0v7 M-2.5,-0.5L0,-3.0L2.5,-0.5"/>
                </g>
               <g id="resetDef">
                       <use xlink:href="#rim2" fill="#404040">
                               <set attributeName="fill" to="#808080" begin="reset.mouseover" end="reset.mouseout"/>
                       </use>
               </g>
        </defs>

<script type="text/javascript">
var viewWidth = 1057;
var viewHeight = 757;
var sectionId = 'dynsection-0';
</script>
<script xlink:href="svgpan.js"/>
<svg id="graph" class="graph">
<g id="viewport">
<title>InputAction</title>
<polygon fill="white" stroke="transparent" points="-4,4 -4,-753 1053,-753 1053,4 -4,4"/>
<!-- Node1 -->
<g id="node1" class="node">
<title>Node1</title>
<g id="a_node1"><a xlink:title="An input action is triggered by a button binding and may respond to either activation or deactivation...">
<polygon fill="#bfbfbf" stroke="black" points="240,-648.5 240,-667.5 323,-667.5 323,-648.5 240,-648.5"/>
<text text-anchor="middle" x="281.5" y="-655.5" font-family="Fira Code" font-size="10.00">InputAction</text>
</a>
</g>
</g>
<!-- Node3 -->
<g id="node3" class="node">
<title>Node3</title>
<g id="a_node3"><a xlink:href="struct_input_action_args.html" target="_top" xlink:title="Arguments to an input action callback.">
<polygon fill="white" stroke="black" points="942,-619.5 942,-638.5 1049,-638.5 1049,-619.5 942,-619.5"/>
<text text-anchor="middle" x="995.5" y="-626.5" font-family="Fira Code" font-size="10.00">InputActionArgs</text>
</a>
</g>
</g>
<!-- Node1&#45;&gt;Node3 -->
<g id="edge47" class="edge">
<title>Node1&#45;&gt;Node3</title>
<path fill="none" stroke="#9a32cd" stroke-dasharray="5,2" d="M306.49,-672.82C346.28,-695.94 429.15,-738 505.5,-738 505.5,-738 505.5,-738 852.5,-738 917.45,-738 971,-665.35 988.47,-638.67"/>
<polygon fill="#9a32cd" stroke="#9a32cd" points="308.16,-669.74 297.77,-667.65 304.59,-675.76 308.16,-669.74"/>
<text text-anchor="middle" x="704.5" y="-741" font-family="Fira Code" font-size="10.00"> action</text>
</g>
<!-- Node5 -->
<g id="node5" class="node">
<title>Node5</title>
<g id="a_node5"><a xlink:href="struct_host_context.html" target="_top" xlink:title="Provides the plugin with an interface to the host for platform and application&#45;level operations.">
<polygon fill="white" stroke="black" points="465,-435.5 465,-454.5 548,-454.5 548,-435.5 465,-435.5"/>
<text text-anchor="middle" x="506.5" y="-442.5" font-family="Fira Code" font-size="10.00">HostContext</text>
</a>
</g>
</g>
<!-- Node1&#45;&gt;Node5 -->
<g id="edge5" class="edge">
<title>Node1&#45;&gt;Node5</title>
<path fill="none" stroke="#9a32cd" stroke-dasharray="5,2" d="M307.58,-642.84C322.88,-632.35 341.61,-617.05 353,-599 370.14,-571.83 352.76,-555.44 371,-529 397.26,-490.94 416.17,-492.5 456,-469 464.88,-463.76 475.08,-458.67 483.9,-454.53"/>
<polygon fill="#9a32cd" stroke="#9a32cd" points="305.49,-640.02 299.06,-648.44 309.34,-645.87 305.49,-640.02"/>
<text text-anchor="middle" x="404.5" y="-532" font-family="Fira Code" font-size="10.00"> quitAction</text>
</g>
<!-- Node10 -->
<g id="node10" class="node">
<title>Node10</title>
<g id="a_node10"><a xlink:href="struct_sdl_context.html" target="_top" xlink:title="Parent node of the entire SDL state.">
<polygon fill="white" stroke="black" points="666,-553.5 666,-572.5 743,-572.5 743,-553.5 666,-553.5"/>
<text text-anchor="middle" x="704.5" y="-560.5" font-family="Fira Code" font-size="10.00">SdlContext</text>
</a>
</g>
</g>
<!-- Node1&#45;&gt;Node10 -->
<g id="edge18" class="edge">
<title>Node1&#45;&gt;Node10</title>
<path fill="none" stroke="#9a32cd" stroke-dasharray="5,2" d="M309.18,-643.69C342.5,-626.55 401.73,-598.48 456,-585 528.64,-566.96 616.5,-563.27 665.59,-562.76"/>
<polygon fill="#9a32cd" stroke="#9a32cd" points="307.35,-640.69 300.1,-648.42 310.59,-646.9 307.35,-640.69"/>
<text text-anchor="middle" x="506.5" y="-588" font-family="Fira Code" font-size="10.00"> clickAction</text>
</g>
<!-- Node26 -->
<g id="node26" class="node">
<title>Node26</title>
<g id="a_node26"><a xlink:href="struct_action_binding.html" target="_top" xlink:title="Closes over the callback for an input binding to a particular type of input device,...">
<polygon fill="white" stroke="black" points="459,-118.5 459,-137.5 554,-137.5 554,-118.5 459,-118.5"/>
<text text-anchor="middle" x="506.5" y="-125.5" font-family="Fira Code" font-size="10.00">ActionBinding</text>
</a>
</g>
</g>
<!-- Node1&#45;&gt;Node26 -->
<g id="edge31" class="edge">
<title>Node1&#45;&gt;Node26</title>
<path fill="none" stroke="#9a32cd" stroke-dasharray="5,2" d="M309.07,-642.98C324.61,-632.7 343.05,-617.59 353,-599 387.8,-533.96 328.69,-494.43 371,-434 390.04,-406.81 419.46,-428.54 438,-401 469.1,-354.79 424.37,-196.85 456,-151 459.98,-145.23 465.8,-140.87 472.05,-137.59"/>
<polygon fill="#9a32cd" stroke="#9a32cd" points="306.96,-640.17 300.35,-648.46 310.68,-646.1 306.96,-640.17"/>
<text text-anchor="middle" x="404.5" y="-437" font-family="Fira Code" font-size="10.00"> action</text>
</g>
<!-- Node2 -->
<g id="node2" class="node">
<title>Node2</title>
<g id="a_node2"><a xlink:title=" ">
<polygon fill="white" stroke="black" points="33,-669.5 33,-688.5 86,-688.5 86,-669.5 33,-669.5"/>
<text text-anchor="middle" x="59.5" y="-676.5" font-family="Fira Code" font-size="10.00">char *</text>
</a>
</g>
</g>
<!-- Node2&#45;&gt;Node1 -->
<g id="edge1" class="edge">
<title>Node2&#45;&gt;Node1</title>
<path fill="none" stroke="#9a32cd" stroke-dasharray="5,2" d="M96.34,-675.58C135.63,-671.83 198.54,-665.82 239.69,-661.9"/>
<polygon fill="#9a32cd" stroke="#9a32cd" points="95.79,-672.12 86.17,-676.55 96.45,-679.08 95.79,-672.12"/>
<text text-anchor="middle" x="164.5" y="-674" font-family="Fira Code" font-size="10.00"> name</text>
</g>
<!-- Node3&#45;&gt;Node1 -->
<g id="edge2" class="edge">
<title>Node3&#45;&gt;Node1</title>
<path fill="none" stroke="#9a32cd" stroke-dasharray="5,2" d="M973.84,-644.49C947.24,-662.85 898.9,-691 852.5,-691 505.5,-691 505.5,-691 505.5,-691 440.92,-691 366.95,-677.29 322.52,-667.54"/>
<polygon fill="#9a32cd" stroke="#9a32cd" points="975.88,-647.34 982,-638.69 971.82,-641.63 975.88,-647.34"/>
<text text-anchor="middle" x="704.5" y="-694" font-family="Fira Code" font-size="10.00"> on_action</text>
</g>
<!-- Node4 -->
<g id="node4" class="node">
<title>Node4</title>
<g id="a_node4"><a xlink:href="struct_context.html" target="_top" xlink:title="The plugin context is a persistent state representing the entire application to the game plugin acros...">
<polygon fill="white" stroke="black" points="822,-435.5 822,-454.5 881,-454.5 881,-435.5 822,-435.5"/>
<text text-anchor="middle" x="851.5" y="-442.5" font-family="Fira Code" font-size="10.00">Context</text>
</a>
</g>
</g>
<!-- Node4&#45;&gt;Node3 -->
<g id="edge3" class="edge">
<title>Node4&#45;&gt;Node3</title>
<path fill="none" stroke="#9a32cd" stroke-dasharray="5,2" d="M866.24,-462.81C895.79,-501.09 964.52,-590.15 987.14,-619.46"/>
<polygon fill="#9a32cd" stroke="#9a32cd" points="868.82,-460.41 859.93,-454.63 863.27,-464.69 868.82,-460.41"/>
<text text-anchor="middle" x="911.5" y="-540" font-family="Fira Code" font-size="10.00"> ctx</text>
</g>
<!-- Node5&#45;&gt;Node4 -->
<g id="edge4" class="edge">
<title>Node5&#45;&gt;Node4</title>
<path fill="none" stroke="#9a32cd" stroke-dasharray="5,2" d="M558.54,-445C631.64,-445 763.73,-445 821.8,-445"/>
<polygon fill="#9a32cd" stroke="#9a32cd" points="558.19,-441.5 548.19,-445 558.19,-448.5 558.19,-441.5"/>
<text text-anchor="middle" x="704.5" y="-448" font-family="Fira Code" font-size="10.00"> host</text>
</g>
<!-- Node6 -->
<g id="node6" class="node">
<title>Node6</title>
<g id="a_node6"><a xlink:href="struct_log_state.html" target="_top" xlink:title="Used to persist the log output streams between hot&#45;reloads.">
<polygon fill="white" stroke="black" points="249,-448.5 249,-467.5 314,-467.5 314,-448.5 249,-448.5"/>
<text text-anchor="middle" x="281.5" y="-455.5" font-family="Fira Code" font-size="10.00">LogState</text>
</a>
</g>
</g>
<!-- Node6&#45;&gt;Node5 -->
<g id="edge6" class="edge">
<title>Node6&#45;&gt;Node5</title>
<path fill="none" stroke="#9a32cd" stroke-dasharray="5,2" d="M324.48,-455.55C364.74,-453.21 425.12,-449.69 464.91,-447.37"/>
<polygon fill="#9a32cd" stroke="#9a32cd" points="324.23,-452.06 314.45,-456.14 324.64,-459.05 324.23,-452.06"/>
<text text-anchor="middle" x="404.5" y="-455" font-family="Fira Code" font-size="10.00"> log</text>
</g>
<!-- Node7 -->
<g id="node7" class="node">
<title>Node7</title>
<g id="a_node7"><a xlink:title=" ">
<polygon fill="white" stroke="black" points="42,-482.5 42,-501.5 77,-501.5 77,-482.5 42,-482.5"/>
<text text-anchor="middle" x="59.5" y="-489.5" font-family="Fira Code" font-size="10.00">int</text>
</a>
</g>
</g>
<!-- Node7&#45;&gt;Node6 -->
<g id="edge7" class="edge">
<title>Node7&#45;&gt;Node6</title>
<path fill="none" stroke="#9a32cd" stroke-dasharray="5,2" d="M87,-487.9C127.65,-481.62 205.28,-469.63 248.83,-462.89"/>
<polygon fill="#9a32cd" stroke="#9a32cd" points="86.38,-484.46 77.04,-489.44 87.45,-491.38 86.38,-484.46"/>
<text text-anchor="middle" x="164.5" y="-483" font-family="Fira Code" font-size="10.00"> level</text>
</g>
<!-- Node14 -->
<g id="node14" class="node">
<title>Node14</title>
<g id="a_node14"><a xlink:href="struct_text.html" target="_top" xlink:title="Represents a texture generated by rendering text in a TTF font.">
<polygon fill="white" stroke="black" points="261,-570.5 261,-589.5 302,-589.5 302,-570.5 261,-570.5"/>
<text text-anchor="middle" x="281.5" y="-577.5" font-family="Fira Code" font-size="10.00">Text</text>
</a>
</g>
</g>
<!-- Node7&#45;&gt;Node14 -->
<g id="edge17" class="edge">
<title>Node7&#45;&gt;Node14</title>
<path fill="none" stroke="#9a32cd" stroke-dasharray="5,2" d="M87,-497.18C97.58,-500.09 109.48,-504.49 119,-511 129.43,-518.13 126.58,-525.86 137,-533 176.14,-559.82 231.67,-572.21 260.85,-577.17"/>
<polygon fill="#9a32cd" stroke="#9a32cd" points="87.55,-493.71 77,-494.75 85.89,-500.51 87.55,-493.71"/>
<text text-anchor="middle" x="164.5" y="-572" font-family="Fira Code" font-size="10.00"> height</text>
<text text-anchor="middle" x="164.5" y="-561" font-family="Fira Code" font-size="10.00">width</text>
</g>
<!-- Node36 -->
<g id="node36" class="node">
<title>Node36</title>
<g id="a_node36"><a xlink:href="struct_mouse_axes.html" target="_top" xlink:title="Represents the mouse state.">
<polygon fill="white" stroke="black" points="246,-201.5 246,-220.5 317,-220.5 317,-201.5 246,-201.5"/>
<text text-anchor="middle" x="281.5" y="-208.5" font-family="Fira Code" font-size="10.00">MouseAxes</text>
</a>
</g>
</g>
<!-- Node7&#45;&gt;Node36 -->
<g id="edge45" class="edge">
<title>Node7&#45;&gt;Node36</title>
<path fill="none" stroke="#9a32cd" stroke-dasharray="5,2" d="M87.15,-489.44C98.54,-486.98 111.02,-482.21 119,-473 149.72,-437.55 107.76,-405.68 137,-369 153.52,-348.28 175.59,-366.81 192,-346 222.95,-306.76 177.74,-273.17 210,-235 218.93,-224.43 232.71,-218.51 245.73,-215.19"/>
<polygon fill="#9a32cd" stroke="#9a32cd" points="86.44,-486.01 77.16,-491.12 87.6,-492.92 86.44,-486.01"/>
<text text-anchor="middle" x="164.5" y="-394" font-family="Fira Code" font-size="10.00"> scroll</text>
<text text-anchor="middle" x="164.5" y="-383" font-family="Fira Code" font-size="10.00">x</text>
<text text-anchor="middle" x="164.5" y="-372" font-family="Fira Code" font-size="10.00">y</text>
</g>
<!-- Node8 -->
<g id="node8" class="node">
<title>Node8</title>
<g id="a_node8"><a xlink:title=" ">
<polygon fill="white" stroke="black" points="39,-203.5 39,-222.5 80,-222.5 80,-203.5 39,-203.5"/>
<text text-anchor="middle" x="59.5" y="-210.5" font-family="Fira Code" font-size="10.00">bool</text>
</a>
</g>
</g>
<!-- Node8&#45;&gt;Node6 -->
<g id="edge8" class="edge">
<title>Node8&#45;&gt;Node6</title>
<path fill="none" stroke="#9a32cd" stroke-dasharray="5,2" d="M90.07,-222.79C120.79,-234.59 167.69,-257.51 192,-294 220.44,-336.69 182.96,-364.41 210,-408 221.47,-426.49 242.56,-440.07 258.7,-448.38"/>
<polygon fill="#9a32cd" stroke="#9a32cd" points="90.92,-219.37 80.33,-219.21 88.51,-225.94 90.92,-219.37"/>
<text text-anchor="middle" x="164.5" y="-297" font-family="Fira Code" font-size="10.00"> quiet</text>
</g>
<!-- Node17 -->
<g id="node17" class="node">
<title>Node17</title>
<g id="a_node17"><a xlink:href="struct_sdl_mouse_cursor.html" target="_top" xlink:title="Represents the mouse cursor state.">
<polygon fill="white" stroke="black" points="231,-486.5 231,-505.5 332,-505.5 332,-486.5 231,-486.5"/>
<text text-anchor="middle" x="281.5" y="-493.5" font-family="Fira Code" font-size="10.00">SdlMouseCursor</text>
</a>
</g>
</g>
<!-- Node8&#45;&gt;Node17 -->
<g id="edge21" class="edge">
<title>Node8&#45;&gt;Node17</title>
<path fill="none" stroke="#9a32cd" stroke-dasharray="5,2" d="M82.91,-228.77C95.65,-239 110.67,-253.48 119,-270 145.65,-322.87 106.01,-351.55 137,-402 152.55,-427.32 172.64,-417.46 192,-440 203.91,-453.87 195.9,-465.35 210,-477 216.06,-482.01 223.32,-485.7 230.84,-488.43"/>
<polygon fill="#9a32cd" stroke="#9a32cd" points="85.03,-225.98 74.96,-222.68 80.77,-231.54 85.03,-225.98"/>
<text text-anchor="middle" x="164.5" y="-443" font-family="Fira Code" font-size="10.00"> visible</text>
</g>
<!-- Node29 -->
<g id="node29" class="node">
<title>Node29</title>
<g id="a_node29"><a xlink:href="struct_keybind.html" target="_top" xlink:title="Represents a keyboard key combination the state of which is being tracked by an action.">
<polygon fill="white" stroke="black" points="252,-49.5 252,-68.5 311,-68.5 311,-49.5 252,-49.5"/>
<text text-anchor="middle" x="281.5" y="-56.5" font-family="Fira Code" font-size="10.00">Keybind</text>
</a>
</g>
</g>
<!-- Node8&#45;&gt;Node29 -->
<g id="edge37" class="edge">
<title>Node8&#45;&gt;Node29</title>
<path fill="none" stroke="#9a32cd" stroke-dasharray="5,2" d="M89.86,-204.48C100.32,-200.14 111.38,-193.86 119,-185 136.88,-164.21 118.29,-146.04 137,-126 154.86,-106.87 171.55,-121.33 192,-105 203.27,-96 198.29,-86.42 210,-78 222.15,-69.27 238.08,-64.55 251.72,-62"/>
<polygon fill="#9a32cd" stroke="#9a32cd" points="88.32,-201.31 80.15,-208.06 90.74,-207.88 88.32,-201.31"/>
<text text-anchor="middle" x="164.5" y="-129" font-family="Fira Code" font-size="10.00"> state</text>
</g>
<!-- Node32 -->
<g id="node32" class="node">
<title>Node32</title>
<g id="a_node32"><a xlink:href="struct_mousebind.html" target="_top" xlink:title="Represents a mouse button combination the state of which is being tracked by an action.">
<polygon fill="white" stroke="black" points="246,-87.5 246,-106.5 317,-106.5 317,-87.5 246,-87.5"/>
<text text-anchor="middle" x="281.5" y="-94.5" font-family="Fira Code" font-size="10.00">Mousebind</text>
</a>
</g>
</g>
<!-- Node8&#45;&gt;Node32 -->
<g id="edge41" class="edge">
<title>Node8&#45;&gt;Node32</title>
<path fill="none" stroke="#9a32cd" stroke-dasharray="5,2" d="M90.16,-205.54C126.63,-196.13 184.63,-180.29 192,-173 210.88,-154.31 190.82,-134.38 210,-116 219.61,-106.79 233.2,-101.94 245.88,-99.42"/>
<polygon fill="#9a32cd" stroke="#9a32cd" points="88.88,-202.25 80.06,-208.12 90.62,-209.03 88.88,-202.25"/>
<text text-anchor="middle" x="164.5" y="-196" font-family="Fira Code" font-size="10.00"> state</text>
</g>
<!-- Node9 -->
<g id="node9" class="node">
<title>Node9</title>
<g id="a_node9"><a xlink:title=" ">
<polygon fill="white" stroke="black" points="33,-444.5 33,-463.5 86,-463.5 86,-444.5 33,-444.5"/>
<text text-anchor="middle" x="59.5" y="-451.5" font-family="Fira Code" font-size="10.00">FILE *</text>
</a>
</g>
</g>
<!-- Node9&#45;&gt;Node6 -->
<g id="edge9" class="edge">
<title>Node9&#45;&gt;Node6</title>
<path fill="none" stroke="#9a32cd" stroke-dasharray="5,2" d="M96.31,-454.65C138.69,-455.42 208.57,-456.69 248.98,-457.43"/>
<polygon fill="#9a32cd" stroke="#9a32cd" points="96.23,-451.15 86.17,-454.47 96.1,-458.15 96.23,-451.15"/>
<text text-anchor="middle" x="164.5" y="-459" font-family="Fira Code" font-size="10.00"> file</text>
</g>
<!-- Node10&#45;&gt;Node4 -->
<g id="edge10" class="edge">
<title>Node10&#45;&gt;Node4</title>
<path fill="none" stroke="#9a32cd" stroke-dasharray="5,2" d="M725.2,-546.97C755.71,-522.14 813.47,-475.13 838.47,-454.79"/>
<polygon fill="#9a32cd" stroke="#9a32cd" points="722.91,-544.32 717.37,-553.34 727.33,-549.75 722.91,-544.32"/>
<text text-anchor="middle" x="785.5" y="-514" font-family="Fira Code" font-size="10.00"> sdl</text>
</g>
<!-- Node11 -->
<g id="node11" class="node">
<title>Node11</title>
<g id="a_node11"><a xlink:title=" ">
<polygon fill="white" stroke="black" points="462,-643.5 462,-662.5 551,-662.5 551,-643.5 462,-643.5"/>
<text text-anchor="middle" x="506.5" y="-650.5" font-family="Fira Code" font-size="10.00">SDL_Window *</text>
</a>
</g>
</g>
<!-- Node11&#45;&gt;Node10 -->
<g id="edge11" class="edge">
<title>Node11&#45;&gt;Node10</title>
<path fill="none" stroke="#9a32cd" stroke-dasharray="5,2" d="M560.93,-646.28C586.57,-641.5 617.05,-633.44 642,-620 664.56,-607.85 685.17,-585.47 695.84,-572.66"/>
<polygon fill="#9a32cd" stroke="#9a32cd" points="560.25,-642.85 551.01,-648.02 561.46,-649.74 560.25,-642.85"/>
<text text-anchor="middle" x="608.5" y="-645" font-family="Fira Code" font-size="10.00"> window</text>
</g>
<!-- Node12 -->
<g id="node12" class="node">
<title>Node12</title>
<g id="a_node12"><a xlink:title=" ">
<polygon fill="white" stroke="black" points="456,-605.5 456,-624.5 557,-624.5 557,-605.5 456,-605.5"/>
<text text-anchor="middle" x="506.5" y="-612.5" font-family="Fira Code" font-size="10.00">SDL_Renderer *</text>
</a>
</g>
</g>
<!-- Node12&#45;&gt;Node10 -->
<g id="edge12" class="edge">
<title>Node12&#45;&gt;Node10</title>
<path fill="none" stroke="#9a32cd" stroke-dasharray="5,2" d="M566.93,-606.98C590.58,-603 617.87,-597.43 642,-590 656.82,-585.44 672.84,-578.33 684.82,-572.55"/>
<polygon fill="#9a32cd" stroke="#9a32cd" points="566.34,-603.52 557.03,-608.58 567.46,-610.43 566.34,-603.52"/>
<text text-anchor="middle" x="608.5" y="-608" font-family="Fira Code" font-size="10.00"> renderer</text>
</g>
<!-- Node13 -->
<g id="node13" class="node">
<title>Node13</title>
<g id="a_node13"><a xlink:href="struct_font_book.html" target="_top" xlink:title=" ">
<polygon fill="white" stroke="black" points="474,-520.5 474,-539.5 539,-539.5 539,-520.5 474,-520.5"/>
<text text-anchor="middle" x="506.5" y="-527.5" font-family="Fira Code" font-size="10.00">FontBook</text>
</a>
</g>
</g>
<!-- Node13&#45;&gt;Node10 -->
<g id="edge13" class="edge">
<title>Node13&#45;&gt;Node10</title>
<path fill="none" stroke="#9a32cd" stroke-dasharray="5,2" d="M549.19,-536.09C575.79,-540.08 610.97,-545.55 642,-551 649.71,-552.35 657.95,-553.9 665.81,-555.41"/>
<polygon fill="#9a32cd" stroke="#9a32cd" points="549.49,-532.6 539.08,-534.59 548.45,-539.52 549.49,-532.6"/>
<text text-anchor="middle" x="608.5" y="-554" font-family="Fira Code" font-size="10.00"> fonts</text>
</g>
<!-- Node14&#45;&gt;Node13 -->
<g id="edge14" class="edge">
<title>Node14&#45;&gt;Node13</title>
<path fill="none" stroke="#9a32cd" stroke-dasharray="5,2" d="M312.15,-572.8C329.32,-568.68 351.36,-563.45 371,-559 406.18,-551.03 446.65,-542.38 473.94,-536.61"/>
<polygon fill="#9a32cd" stroke="#9a32cd" points="311.06,-569.47 302.16,-575.21 312.7,-576.27 311.06,-569.47"/>
<text text-anchor="middle" x="404.5" y="-562" font-family="Fira Code" font-size="10.00"> fpsFont</text>
</g>
<!-- Node15 -->
<g id="node15" class="node">
<title>Node15</title>
<g id="a_node15"><a xlink:title=" ">
<polygon fill="white" stroke="black" points="21,-593.5 21,-612.5 98,-612.5 98,-593.5 21,-593.5"/>
<text text-anchor="middle" x="59.5" y="-600.5" font-family="Fira Code" font-size="10.00">TTF_Font *</text>
</a>
</g>
</g>
<!-- Node15&#45;&gt;Node14 -->
<g id="edge15" class="edge">
<title>Node15&#45;&gt;Node14</title>
<path fill="none" stroke="#9a32cd" stroke-dasharray="5,2" d="M108.42,-597.99C156.08,-593.01 226.88,-585.61 260.88,-582.05"/>
<polygon fill="#9a32cd" stroke="#9a32cd" points="107.9,-594.53 98.32,-599.05 108.63,-601.49 107.9,-594.53"/>
<text text-anchor="middle" x="164.5" y="-597" font-family="Fira Code" font-size="10.00"> font</text>
</g>
<!-- Node16 -->
<g id="node16" class="node">
<title>Node16</title>
<g id="a_node16"><a xlink:title=" ">
<polygon fill="white" stroke="black" points="12,-631.5 12,-650.5 107,-650.5 107,-631.5 12,-631.5"/>
<text text-anchor="middle" x="59.5" y="-638.5" font-family="Fira Code" font-size="10.00">SDL_Texture *</text>
</a>
</g>
</g>
<!-- Node16&#45;&gt;Node14 -->
<g id="edge16" class="edge">
<title>Node16&#45;&gt;Node14</title>
<path fill="none" stroke="#9a32cd" stroke-dasharray="5,2" d="M113.38,-629.13C137.47,-623.46 166.3,-616.33 192,-609 215.95,-602.17 243.11,-593.07 260.95,-586.89"/>
<polygon fill="#9a32cd" stroke="#9a32cd" points="112.31,-625.78 103.36,-631.46 113.89,-632.6 112.31,-625.78"/>
<text text-anchor="middle" x="164.5" y="-626" font-family="Fira Code" font-size="10.00"> tex</text>
</g>
<!-- Node17&#45;&gt;Node10 -->
<g id="edge19" class="edge">
<title>Node17&#45;&gt;Node10</title>
<path fill="none" stroke="#9a32cd" stroke-dasharray="5,2" d="M342.34,-490.32C398.45,-486.54 484.34,-484.69 557,-500 606.85,-510.5 660.72,-538.45 687.08,-553.34"/>
<polygon fill="#9a32cd" stroke="#9a32cd" points="341.95,-486.84 332.22,-491.05 342.45,-493.83 341.95,-486.84"/>
<text text-anchor="middle" x="506.5" y="-503" font-family="Fira Code" font-size="10.00"> mouseCursor</text>
</g>
<!-- Node18 -->
<g id="node18" class="node">
<title>Node18</title>
<g id="a_node18"><a xlink:title=" ">
<polygon fill="white" stroke="black" points="24,-520.5 24,-539.5 95,-539.5 95,-520.5 24,-520.5"/>
<text text-anchor="middle" x="59.5" y="-527.5" font-family="Fira Code" font-size="10.00">SDL_Color</text>
</a>
</g>
</g>
<!-- Node18&#45;&gt;Node17 -->
<g id="edge20" class="edge">
<title>Node18&#45;&gt;Node17</title>
<path fill="none" stroke="#9a32cd" stroke-dasharray="5,2" d="M105.67,-523.02C142.04,-517.4 193.11,-509.51 230.67,-503.7"/>
<polygon fill="#9a32cd" stroke="#9a32cd" points="104.71,-519.63 95.36,-524.61 105.78,-526.54 104.71,-519.63"/>
<text text-anchor="middle" x="164.5" y="-521" font-family="Fira Code" font-size="10.00"> color</text>
</g>
<!-- Node19 -->
<g id="node19" class="node">
<title>Node19</title>
<g id="a_node19"><a xlink:href="struct_game_context.html" target="_top" xlink:title="Parent node of the entire game state.">
<polygon fill="white" stroke="black" points="663,-385.5 663,-404.5 746,-404.5 746,-385.5 663,-385.5"/>
<text text-anchor="middle" x="704.5" y="-392.5" font-family="Fira Code" font-size="10.00">GameContext</text>
</a>
</g>
</g>
<!-- Node19&#45;&gt;Node4 -->
<g id="edge22" class="edge">
<title>Node19&#45;&gt;Node4</title>
<path fill="none" stroke="#9a32cd" stroke-dasharray="5,2" d="M756.42,-405.41C771.94,-409.25 788.89,-414.12 804,-420 814.76,-424.19 826.2,-430.31 835.03,-435.45"/>
<polygon fill="#9a32cd" stroke="#9a32cd" points="756.99,-401.95 746.46,-403.03 755.37,-408.76 756.99,-401.95"/>
<text text-anchor="middle" x="785.5" y="-423" font-family="Fira Code" font-size="10.00"> game</text>
</g>
<!-- Node20 -->
<g id="node20" class="node">
<title>Node20</title>
<g id="a_node20"><a xlink:href="struct_sim_clock.html" target="_top" xlink:title="Represents time inside the game world.">
<polygon fill="white" stroke="black" points="474,-345.5 474,-364.5 539,-364.5 539,-345.5 474,-345.5"/>
<text text-anchor="middle" x="506.5" y="-352.5" font-family="Fira Code" font-size="10.00">SimClock</text>
</a>
</g>
</g>
<!-- Node20&#45;&gt;Node19 -->
<g id="edge23" class="edge">
<title>Node20&#45;&gt;Node19</title>
<path fill="none" stroke="#9a32cd" stroke-dasharray="5,2" d="M549.24,-362.14C575.86,-366.85 611.04,-373.35 642,-380 649.74,-381.66 657.99,-383.57 665.85,-385.47"/>
<polygon fill="#9a32cd" stroke="#9a32cd" points="549.58,-358.65 539.12,-360.37 548.37,-365.54 549.58,-358.65"/>
<text text-anchor="middle" x="608.5" y="-383" font-family="Fira Code" font-size="10.00"> clock</text>
</g>
<!-- Node21 -->
<g id="node21" class="node">
<title>Node21</title>
<g id="a_node21"><a xlink:href="struct_wall_clock.html" target="_top" xlink:title="Represents real outside&#45;world time.">
<polygon fill="white" stroke="black" points="246,-341.5 246,-360.5 317,-360.5 317,-341.5 246,-341.5"/>
<text text-anchor="middle" x="281.5" y="-348.5" font-family="Fira Code" font-size="10.00">WallClock</text>
</a>
</g>
</g>
<!-- Node21&#45;&gt;Node20 -->
<g id="edge24" class="edge">
<title>Node21&#45;&gt;Node20</title>
<path fill="none" stroke="#9a32cd" stroke-dasharray="5,2" d="M327.18,-350.84C358.26,-350.84 400.66,-351.05 438,-352 449.73,-352.3 462.59,-352.82 473.92,-353.35"/>
<polygon fill="#9a32cd" stroke="#9a32cd" points="327.09,-347.34 317.09,-350.85 327.1,-354.34 327.09,-347.34"/>
<text text-anchor="middle" x="404.5" y="-355" font-family="Fira Code" font-size="10.00"> real</text>
</g>
<!-- Node22 -->
<g id="node22" class="node">
<title>Node22</title>
<g id="a_node22"><a xlink:title=" ">
<polygon fill="white" stroke="black" points="27,-279.5 27,-298.5 92,-298.5 92,-279.5 27,-279.5"/>
<text text-anchor="middle" x="59.5" y="-286.5" font-family="Fira Code" font-size="10.00">uint64_t</text>
</a>
</g>
</g>
<!-- Node22&#45;&gt;Node20 -->
<g id="edge26" class="edge">
<title>Node22&#45;&gt;Node20</title>
<path fill="none" stroke="#9a32cd" stroke-dasharray="5,2" d="M102.13,-277.03C159.6,-262.44 266.03,-242.48 353,-266 411,-281.69 469.58,-325.52 493.85,-345.21"/>
<polygon fill="#9a32cd" stroke="#9a32cd" points="101.11,-273.67 92.32,-279.59 102.88,-280.45 101.11,-273.67"/>
<text text-anchor="middle" x="281.5" y="-324" font-family="Fira Code" font-size="10.00"> Dt</text>
<text text-anchor="middle" x="281.5" y="-313" font-family="Fira Code" font-size="10.00">period</text>
<text text-anchor="middle" x="281.5" y="-302" font-family="Fira Code" font-size="10.00">t</text>
<text text-anchor="middle" x="281.5" y="-291" font-family="Fira Code" font-size="10.00">tick</text>
<text text-anchor="middle" x="281.5" y="-280" font-family="Fira Code" font-size="10.00">tpsAccumNs</text>
<text text-anchor="middle" x="281.5" y="-269" font-family="Fira Code" font-size="10.00">tpsAccumTicks</text>
</g>
<!-- Node22&#45;&gt;Node21 -->
<g id="edge25" class="edge">
<title>Node22&#45;&gt;Node21</title>
<path fill="none" stroke="#9a32cd" stroke-dasharray="5,2" d="M102.07,-299.66C128,-306.4 162.02,-315.44 192,-324 211.46,-329.56 233.21,-336.18 250.27,-341.48"/>
<polygon fill="#9a32cd" stroke="#9a32cd" points="102.77,-296.22 92.21,-297.1 101.01,-303 102.77,-296.22"/>
<text text-anchor="middle" x="164.5" y="-338" font-family="Fira Code" font-size="10.00"> t</text>
<text text-anchor="middle" x="164.5" y="-327" font-family="Fira Code" font-size="10.00">t0</text>
</g>
<!-- Node23 -->
<g id="node23" class="node">
<title>Node23</title>
<g id="a_node23"><a xlink:title=" ">
<polygon fill="white" stroke="black" points="258,-379.5 258,-398.5 305,-398.5 305,-379.5 258,-379.5"/>
<text text-anchor="middle" x="281.5" y="-386.5" font-family="Fira Code" font-size="10.00">float</text>
</a>
</g>
</g>
<!-- Node23&#45;&gt;Node20 -->
<g id="edge27" class="edge">
<title>Node23&#45;&gt;Node20</title>
<path fill="none" stroke="#9a32cd" stroke-dasharray="5,2" d="M315.23,-384.01C357.86,-377.51 431.87,-366.23 473.92,-359.81"/>
<polygon fill="#9a32cd" stroke="#9a32cd" points="314.47,-380.59 305.11,-385.55 315.52,-387.51 314.47,-380.59"/>
<text text-anchor="middle" x="404.5" y="-389" font-family="Fira Code" font-size="10.00"> dt</text>
<text text-anchor="middle" x="404.5" y="-378" font-family="Fira Code" font-size="10.00">tps</text>
</g>
<!-- Node24 -->
<g id="node24" class="node">
<title>Node24</title>
<g id="a_node24"><a xlink:title=" ">
<polygon fill="white" stroke="black" points="459,-385.5 459,-404.5 554,-404.5 554,-385.5 459,-385.5"/>
<text text-anchor="middle" x="506.5" y="-392.5" font-family="Fira Code" font-size="10.00">volatile bool</text>
</a>
</g>
</g>
<!-- Node24&#45;&gt;Node19 -->
<g id="edge28" class="edge">
<title>Node24&#45;&gt;Node19</title>
<path fill="none" stroke="#9a32cd" stroke-dasharray="5,2" d="M564.83,-395C596.29,-395 634.55,-395 662.91,-395"/>
<polygon fill="#9a32cd" stroke="#9a32cd" points="564.45,-391.5 554.45,-395 564.45,-398.5 564.45,-391.5"/>
<text text-anchor="middle" x="608.5" y="-409" font-family="Fira Code" font-size="10.00"> paused</text>
<text text-anchor="middle" x="608.5" y="-398" font-family="Fira Code" font-size="10.00">running</text>
</g>
<!-- Node25 -->
<g id="node25" class="node">
<title>Node25</title>
<g id="a_node25"><a xlink:href="struct_input_context.html" target="_top" xlink:title="Represents the complete state of all input devices and all buffered inputs.">
<polygon fill="white" stroke="black" points="660,-183.5 660,-202.5 749,-202.5 749,-183.5 660,-183.5"/>
<text text-anchor="middle" x="704.5" y="-190.5" font-family="Fira Code" font-size="10.00">InputContext</text>
</a>
</g>
</g>
<!-- Node25&#45;&gt;Node4 -->
<g id="edge29" class="edge">
<title>Node25&#45;&gt;Node4</title>
<path fill="none" stroke="#9a32cd" stroke-dasharray="5,2" d="M716.04,-211.33C744.73,-261.17 823.44,-397.98 844.99,-435.42"/>
<polygon fill="#9a32cd" stroke="#9a32cd" points="719.03,-209.49 711.01,-202.57 712.96,-212.98 719.03,-209.49"/>
<text text-anchor="middle" x="785.5" y="-366" font-family="Fira Code" font-size="10.00"> input</text>
</g>
<!-- Node26&#45;&gt;Node25 -->
<g id="edge30" class="edge">
<title>Node26&#45;&gt;Node25</title>
<path fill="none" stroke="#9a32cd" stroke-dasharray="5,2" d="M564.37,-130.36C588.97,-132.91 617.64,-138 642,-148 662.32,-156.34 682.14,-172.79 693.57,-183.32"/>
<polygon fill="#9a32cd" stroke="#9a32cd" points="564.38,-126.85 554.1,-129.42 563.74,-133.82 564.38,-126.85"/>
<text text-anchor="middle" x="608.5" y="-162" font-family="Fira Code" font-size="10.00"> keybinds</text>
<text text-anchor="middle" x="608.5" y="-151" font-family="Fira Code" font-size="10.00">mousebinds</text>
</g>
<!-- Node27 -->
<g id="node27" class="node">
<title>Node27</title>
<g id="a_node27"><a xlink:title=" ">
<polygon fill="white" stroke="black" points="210,-0.5 210,-19.5 353,-19.5 353,-0.5 210,-0.5"/>
<text text-anchor="middle" x="281.5" y="-7.5" font-family="Fira Code" font-size="10.00">enum SignalTransition</text>
</a>
</g>
</g>
<!-- Node27&#45;&gt;Node3 -->
<g id="edge48" class="edge">
<title>Node27&#45;&gt;Node3</title>
<path fill="none" stroke="#9a32cd" stroke-dasharray="5,2" d="M363.27,-4.63C405.61,-2.26 458.33,0 505.5,0 505.5,0 505.5,0 852.5,0 985.3,0 993.91,-540.24 994.46,-619.37"/>
<polygon fill="#9a32cd" stroke="#9a32cd" points="362.8,-1.15 353.02,-5.22 363.2,-8.14 362.8,-1.15"/>
<text text-anchor="middle" x="704.5" y="-3" font-family="Fira Code" font-size="10.00"> transition</text>
</g>
<!-- Node27&#45;&gt;Node26 -->
<g id="edge32" class="edge">
<title>Node27&#45;&gt;Node26</title>
<path fill="none" stroke="#9a32cd" stroke-dasharray="5,2" d="M340.27,-22.11C370.81,-30.16 408.07,-42.68 438,-61 463.63,-76.69 486.93,-103.93 498.27,-118.37"/>
<polygon fill="#9a32cd" stroke="#9a32cd" points="340.75,-18.62 330.19,-19.56 339.02,-25.41 340.75,-18.62"/>
<text text-anchor="middle" x="404.5" y="-64" font-family="Fira Code" font-size="10.00"> transition</text>
</g>
<!-- Node28 -->
<g id="node28" class="node">
<title>Node28</title>
<g id="a_node28"><a xlink:title=" ">
<polygon fill="white" stroke="black" points="213,-125.5 213,-144.5 350,-144.5 350,-125.5 213,-125.5"/>
<text text-anchor="middle" x="281.5" y="-132.5" font-family="Fira Code" font-size="10.00">enum InputDeviceType</text>
</a>
</g>
</g>
<!-- Node28&#45;&gt;Node26 -->
<g id="edge33" class="edge">
<title>Node28&#45;&gt;Node26</title>
<path fill="none" stroke="#9a32cd" stroke-dasharray="5,2" d="M360.06,-132.57C392.93,-131.53 430.15,-130.37 458.71,-129.47"/>
<polygon fill="#9a32cd" stroke="#9a32cd" points="359.9,-129.07 350.01,-132.88 360.12,-136.07 359.9,-129.07"/>
<text text-anchor="middle" x="404.5" y="-136" font-family="Fira Code" font-size="10.00"> type</text>
</g>
<!-- Node29&#45;&gt;Node26 -->
<g id="edge34" class="edge">
<title>Node29&#45;&gt;Node26</title>
<path fill="none" stroke="#9a32cd" stroke-dasharray="5,2" d="M321.48,-64.6C353.42,-69.88 399.47,-79.08 438,-93 456.62,-99.73 476.6,-110.59 489.94,-118.43"/>
<polygon fill="#9a32cd" stroke="#9a32cd" points="321.65,-61.08 311.22,-62.96 320.54,-67.99 321.65,-61.08"/>
<text text-anchor="middle" x="404.5" y="-96" font-family="Fira Code" font-size="10.00"> keybind</text>
</g>
<!-- Node30 -->
<g id="node30" class="node">
<title>Node30</title>
<g id="a_node30"><a xlink:title=" ">
<polygon fill="white" stroke="black" points="9,-15.5 9,-34.5 110,-34.5 110,-15.5 9,-15.5"/>
<text text-anchor="middle" x="59.5" y="-22.5" font-family="Fira Code" font-size="10.00">unsigned short</text>
</a>
</g>
</g>
<!-- Node30&#45;&gt;Node29 -->
<g id="edge35" class="edge">
<title>Node30&#45;&gt;Node29</title>
<path fill="none" stroke="#9a32cd" stroke-dasharray="5,2" d="M120.34,-31.95C142.85,-34.77 168.64,-38.25 192,-42 212.08,-45.22 234.59,-49.56 251.88,-53.04"/>
<polygon fill="#9a32cd" stroke="#9a32cd" points="120.6,-28.46 110.25,-30.7 119.74,-35.4 120.6,-28.46"/>
<text text-anchor="middle" x="164.5" y="-45" font-family="Fira Code" font-size="10.00"> keyIndex</text>
</g>
<!-- Node31 -->
<g id="node31" class="node">
<title>Node31</title>
<g id="a_node31"><a xlink:title=" ">
<polygon fill="white" stroke="black" points="0,-68.5 0,-87.5 119,-87.5 119,-68.5 0,-68.5"/>
<text text-anchor="middle" x="59.5" y="-75.5" font-family="Fira Code" font-size="10.00">enum ModifierKeys</text>
</a>
</g>
</g>
<!-- Node31&#45;&gt;Node29 -->
<g id="edge36" class="edge">
<title>Node31&#45;&gt;Node29</title>
<path fill="none" stroke="#9a32cd" stroke-dasharray="5,2" d="M103.76,-66.04C114.53,-63.56 126.12,-61.3 137,-60 176.58,-55.27 222.74,-56.06 251.79,-57.32"/>
<polygon fill="#9a32cd" stroke="#9a32cd" points="102.62,-62.72 93.72,-68.47 104.27,-69.52 102.62,-62.72"/>
<text text-anchor="middle" x="164.5" y="-63" font-family="Fira Code" font-size="10.00"> mod</text>
</g>
<!-- Node31&#45;&gt;Node32 -->
<g id="edge40" class="edge">
<title>Node31&#45;&gt;Node32</title>
<path fill="none" stroke="#9a32cd" stroke-dasharray="5,2" d="M129.35,-83.95C168.12,-87.29 214.86,-91.33 246,-94.02"/>
<polygon fill="#9a32cd" stroke="#9a32cd" points="129.43,-80.44 119.17,-83.07 128.83,-87.41 129.43,-80.44"/>
<text text-anchor="middle" x="164.5" y="-93" font-family="Fira Code" font-size="10.00"> mod</text>
</g>
<!-- Node32&#45;&gt;Node26 -->
<g id="edge38" class="edge">
<title>Node32&#45;&gt;Node26</title>
<path fill="none" stroke="#9a32cd" stroke-dasharray="5,2" d="M327.26,-101.82C358.38,-105.32 400.79,-110.42 438,-116 444.71,-117.01 451.78,-118.16 458.71,-119.34"/>
<polygon fill="#9a32cd" stroke="#9a32cd" points="327.49,-98.32 317.16,-100.69 326.71,-105.28 327.49,-98.32"/>
<text text-anchor="middle" x="404.5" y="-119" font-family="Fira Code" font-size="10.00"> mousebind</text>
</g>
<!-- Node33 -->
<g id="node33" class="node">
<title>Node33</title>
<g id="a_node33"><a xlink:title=" ">
<polygon fill="white" stroke="black" points="0,-156.5 0,-175.5 119,-175.5 119,-156.5 0,-156.5"/>
<text text-anchor="middle" x="59.5" y="-163.5" font-family="Fira Code" font-size="10.00">enum MouseButtons</text>
</a>
</g>
</g>
<!-- Node33&#45;&gt;Node32 -->
<g id="edge39" class="edge">
<title>Node33&#45;&gt;Node32</title>
<path fill="none" stroke="#9a32cd" stroke-dasharray="5,2" d="M129.1,-161.17C150.44,-157.32 173.27,-150.6 192,-139 203.03,-132.16 199.18,-123.17 210,-116 220.57,-109 233.64,-104.57 245.64,-101.77"/>
<polygon fill="#9a32cd" stroke="#9a32cd" points="128.4,-157.74 119.09,-162.8 129.52,-164.65 128.4,-157.74"/>
<text text-anchor="middle" x="164.5" y="-163" font-family="Fira Code" font-size="10.00"> button</text>
</g>
<!-- Node33&#45;&gt;Node36 -->
<g id="edge46" class="edge">
<title>Node33&#45;&gt;Node36</title>
<path fill="none" stroke="#9a32cd" stroke-dasharray="5,2" d="M92.19,-179.9C101.04,-184.12 110.54,-188.98 119,-194 127.48,-199.04 127.65,-203.83 137,-207 172.64,-219.08 216.16,-218.3 245.87,-215.63"/>
<polygon fill="#9a32cd" stroke="#9a32cd" points="93.48,-176.64 82.93,-175.6 90.53,-182.98 93.48,-176.64"/>
<text text-anchor="middle" x="164.5" y="-220" font-family="Fira Code" font-size="10.00"> buttons</text>
</g>
<!-- Node34 -->
<g id="node34" class="node">
<title>Node34</title>
<g id="a_node34"><a xlink:title=" ">
<polygon fill="white" stroke="black" points="237,-163.5 237,-182.5 326,-182.5 326,-163.5 237,-163.5"/>
<text text-anchor="middle" x="281.5" y="-170.5" font-family="Fira Code" font-size="10.00">anonymous:@1</text>
</a>
</g>
</g>
<!-- Node34&#45;&gt;Node26 -->
<g id="edge42" class="edge">
<title>Node34&#45;&gt;Node26</title>
<path fill="none" stroke="#9a32cd" stroke-dasharray="5,2" d="M336.31,-166.09C366.4,-161.79 404.49,-155.62 438,-148 450.63,-145.13 464.38,-141.2 476.15,-137.59"/>
<polygon fill="#9a32cd" stroke="#9a32cd" points="335.44,-162.68 326.02,-167.53 336.41,-169.61 335.44,-162.68"/>
<text text-anchor="middle" x="404.5" y="-164" font-family="Fira Code" font-size="10.00"> @1</text>
</g>
<!-- Node35 -->
<g id="node35" class="node">
<title>Node35</title>
<g id="a_node35"><a xlink:title=" ">
<polygon fill="white" stroke="black" points="480,-160.5 480,-179.5 533,-179.5 533,-160.5 480,-160.5"/>
<text text-anchor="middle" x="506.5" y="-167.5" font-family="Fira Code" font-size="10.00">size_t</text>
</a>
</g>
</g>
<!-- Node35&#45;&gt;Node25 -->
<g id="edge43" class="edge">
<title>Node35&#45;&gt;Node25</title>
<path fill="none" stroke="#9a32cd" stroke-dasharray="5,2" d="M543.35,-171.36C570.52,-172.7 608.74,-175.27 642,-180 648.59,-180.94 655.53,-182.17 662.28,-183.49"/>
<polygon fill="#9a32cd" stroke="#9a32cd" points="543.3,-167.85 533.14,-170.88 542.97,-174.84 543.3,-167.85"/>
<text text-anchor="middle" x="608.5" y="-194" font-family="Fira Code" font-size="10.00"> nKeybinds</text>
<text text-anchor="middle" x="608.5" y="-183" font-family="Fira Code" font-size="10.00">nMousebinds</text>
</g>
<!-- Node36&#45;&gt;Node25 -->
<g id="edge44" class="edge">
<title>Node36&#45;&gt;Node25</title>
<path fill="none" stroke="#9a32cd" stroke-dasharray="5,2" d="M327.39,-211.61C395.52,-212.13 529.07,-211.64 642,-202 647.81,-201.5 653.9,-200.82 659.9,-200.04"/>
<polygon fill="#9a32cd" stroke="#9a32cd" points="327.06,-208.1 317.03,-211.51 327,-215.1 327.06,-208.1"/>
<text text-anchor="middle" x="506.5" y="-214" font-family="Fira Code" font-size="10.00"> mouse</text>
</g>
</g>
</svg>
        <g id="navigator" transform="translate(0 0)" fill="#404254">
                <rect fill="#f2f5e9" fill-opacity="0.5" stroke="#606060" stroke-width=".5" x="0" y="0" width="60" height="60"/>
                <use id="zoomplus" xlink:href="#zoomPlus" x="17" y="9" onmousedown="handleZoom(evt,'in')"/>
                <use id="zoomminus" xlink:href="#zoomMin" x="42" y="9" onmousedown="handleZoom(evt,'out')"/>
                <use id="reset" xlink:href="#resetDef" x="30" y="36" onmousedown="handleReset()"/>
                <g id="arrowUp" xlink:href="#dirArrow" transform="translate(30 24)" onmousedown="handlePan(0,-1)">
                  <use xlink:href="#rim" fill="#404040">
                        <set attributeName="fill" to="#808080" begin="arrowUp.mouseover" end="arrowUp.mouseout"/>
                  </use>
                  <path fill="none" stroke="white" stroke-width="1.5" d="M0,-3.0v7 M-2.5,-0.5L0,-3.0L2.5,-0.5"/>
                </g>
                <g id="arrowRight" xlink:href="#dirArrow" transform="rotate(90) translate(36 -43)" onmousedown="handlePan(1,0)">
                  <use xlink:href="#rim" fill="#404040">
                        <set attributeName="fill" to="#808080" begin="arrowRight.mouseover" end="arrowRight.mouseout"/>
                  </use>
                  <path fill="none" stroke="white" stroke-width="1.5" d="M0,-3.0v7 M-2.5,-0.5L0,-3.0L2.5,-0.5"/>
                </g>
                <g id="arrowDown" xlink:href="#dirArrow" transform="rotate(180) translate(-30 -48)" onmousedown="handlePan(0,1)">
                  <use xlink:href="#rim" fill="#404040">
                        <set attributeName="fill" to="#808080" begin="arrowDown.mouseover" end="arrowDown.mouseout"/>
                  </use>
                  <path fill="none" stroke="white" stroke-width="1.5" d="M0,-3.0v7 M-2.5,-0.5L0,-3.0L2.5,-0.5"/>
                </g>
                <g id="arrowLeft" xlink:href="#dirArrow" transform="rotate(270) translate(-36 17)" onmousedown="handlePan(-1,0)">
                  <use xlink:href="#rim" fill="#404040">
                        <set attributeName="fill" to="#808080" begin="arrowLeft.mouseover" end="arrowLeft.mouseout"/>
                  </use>
                  <path fill="none" stroke="white" stroke-width="1.5" d="M0,-3.0v7 M-2.5,-0.5L0,-3.0L2.5,-0.5"/>
                </g>
        </g>
        <svg viewBox="0 0 15 15" width="100%" height="30px" preserveAspectRatio="xMaxYMin meet">
         <g id="arrow_out" transform="scale(0.3 0.3)">
          <a xlink:href="struct_input_action__coll__graph_org.svg" target="_base">
           <rect id="button" ry="5" rx="5" y="6" x="6" height="38" width="38"
                fill="#f2f5e9" fill-opacity="0.5" stroke="#606060" stroke-width="1.0"/>
           <path id="arrow"
             d="M 11.500037,31.436501 C 11.940474,20.09759 22.043105,11.32322 32.158766,21.979434 L 37.068811,17.246167 C 37.068811,17.246167 37.088388,32 37.088388,32 L 22.160133,31.978069 C 22.160133,31.978069 26.997745,27.140456 26.997745,27.140456 C 18.528582,18.264221 13.291696,25.230495 11.500037,31.436501 z"
             style="fill:#404040;"/>
          </a>
         </g>
        </svg>
</svg>
