<?xml version="1.0" encoding="UTF-8" standalone="no"?>
<!DOCTYPE svg PUBLIC "-//W3C//DTD SVG 1.1//EN"
 "http://www.w3.org/Graphics/SVG/1.1/DTD/svg11.dtd">
<!-- Generated by graphviz version 3.0.0 (20220226.1711)
 -->
<!-- Title: Text Pages: 1 -->
<svg width="251pt" height="106pt"
 viewBox="0.00 0.00 251.00 106.00" xmlns="http://www.w3.org/2000/svg" xmlns:xlink="http://www.w3.org/1999/xlink">
<g id="graph0" class="graph" transform="scale(1 1) rotate(0) translate(4 102)">
<title>Text</title>
<polygon fill="white" stroke="transparent" points="-4,4 -4,-102 247,-102 247,4 -4,4"/>
<!-- Node1 -->
<g id="node1" class="node">
<title>Node1</title>
<g id="a_node1"><a xlink:title="Represents a texture generated by rendering text in a TTF font.">
<polygon fill="#bfbfbf" stroke="black" points="122,-0.5 122,-19.5 163,-19.5 163,-0.5 122,-0.5"/>
<text text-anchor="middle" x="142.5" y="-7.5" font-family="Fira Code" font-size="10.00">Text</text>
</a>
</g>
</g>
<!-- Node2 -->
<g id="node2" class="node">
<title>Node2</title>
<g id="a_node2"><a xlink:title=" ">
<polygon fill="white" stroke="black" points="0,-78.5 0,-97.5 77,-97.5 77,-78.5 0,-78.5"/>
<text text-anchor="middle" x="38.5" y="-85.5" font-family="Fira Code" font-size="10.00">TTF_Font *</text>
</a>
</g>
</g>
<!-- Node2&#45;&gt;Node1 -->
<g id="edge1" class="edge">
<title>Node2&#45;&gt;Node1</title>
<path fill="none" stroke="#9a32cd" stroke-dasharray="5,2" d="M58.53,-72.36C79.94,-56.72 113.16,-32.44 130.71,-19.62"/>
<polygon fill="#9a32cd" stroke="#9a32cd" points="56.44,-69.56 50.43,-78.28 60.57,-75.21 56.44,-69.56"/>
<text text-anchor="middle" x="119" y="-46.5" font-family="Fira Code" font-size="10.00"> font</text>
</g>
<!-- Node3 -->
<g id="node3" class="node">
<title>Node3</title>
<g id="a_node3"><a xlink:title=" ">
<polygon fill="white" stroke="black" points="95,-78.5 95,-97.5 190,-97.5 190,-78.5 95,-78.5"/>
<text text-anchor="middle" x="142.5" y="-85.5" font-family="Fira Code" font-size="10.00">SDL_Texture *</text>
</a>
</g>
</g>
<!-- Node3&#45;&gt;Node1 -->
<g id="edge2" class="edge">
<title>Node3&#45;&gt;Node1</title>
<path fill="none" stroke="#9a32cd" stroke-dasharray="5,2" d="M142.5,-68.22C142.5,-52.7 142.5,-31.36 142.5,-19.62"/>
<polygon fill="#9a32cd" stroke="#9a32cd" points="139,-68.28 142.5,-78.28 146,-68.28 139,-68.28"/>
<text text-anchor="middle" x="155" y="-46.5" font-family="Fira Code" font-size="10.00"> tex</text>
</g>
<!-- Node4 -->
<g id="node4" class="node">
<title>Node4</title>
<g id="a_node4"><a xlink:title=" ">
<polygon fill="white" stroke="black" points="208,-78.5 208,-97.5 243,-97.5 243,-78.5 208,-78.5"/>
<text text-anchor="middle" x="225.5" y="-85.5" font-family="Fira Code" font-size="10.00">int</text>
</a>
</g>
</g>
<!-- Node4&#45;&gt;Node1 -->
<g id="edge3" class="edge">
<title>Node4&#45;&gt;Node1</title>
<path fill="none" stroke="#9a32cd" stroke-dasharray="5,2" d="M208.36,-71.3C191.25,-55.64 165.6,-32.16 151.91,-19.62"/>
<polygon fill="#9a32cd" stroke="#9a32cd" points="206.24,-74.11 215.98,-78.28 210.97,-68.95 206.24,-74.11"/>
<text text-anchor="middle" x="215" y="-52" font-family="Fira Code" font-size="10.00"> height</text>
<text text-anchor="middle" x="215" y="-41" font-family="Fira Code" font-size="10.00">width</text>
</g>
</g>
</svg>
