<?xml version="1.0" encoding="UTF-8" standalone="no"?>
<!DOCTYPE svg PUBLIC "-//W3C//DTD SVG 1.1//EN"
 "http://www.w3.org/Graphics/SVG/1.1/DTD/svg11.dtd">
<!-- Generated by graphviz version 3.0.0 (20220226.1711)
 -->
<!-- Title: HostContext Pages: 1 -->
<!--zoomable 691 -->
<svg id="main" version="1.1" xmlns="http://www.w3.org/2000/svg" xmlns:xlink="http://www.w3.org/1999/xlink" xml:space="preserve" onload="init(evt)">
<style type="text/css"><![CDATA[
.edge:hover path { stroke: red; }
.edge:hover polygon { stroke: red; fill: red; }
]]></style>
<script type="text/javascript"><![CDATA[
var edges = document.getElementsByTagName('g');
if (edges && edges.length) {
  for (var i=0;i<edges.length;i++) {
    if (edges[i].id.substr(0,4)=='edge') {
      edges[i].setAttribute('class','edge');
    }
  }
}
]]></script>
        <defs>
                <circle id="rim" cx="0" cy="0" r="7"/>
                <circle id="rim2" cx="0" cy="0" r="3.5"/>
                <g id="zoomPlus">
                        <use xlink:href="#rim" fill="#404040">
                                <set attributeName="fill" to="#808080" begin="zoomplus.mouseover" end="zoomplus.mouseout"/>
                        </use>
                        <path d="M-4,0h8M0,-4v8" fill="none" stroke="white" stroke-width="1.5" pointer-events="none"/>
                </g>
                <g id="zoomMin">
                        <use xlink:href="#rim" fill="#404040">
                                <set attributeName="fill" to="#808080" begin="zoomminus.mouseover" end="zoomminus.mouseout"/>
                        </use>
                        <path d="M-4,0h8" fill="none" stroke="white" stroke-width="1.5" pointer-events="none"/>
                </g>
                <g id="dirArrow">
                        <path fill="none" stroke="white" stroke-width="1.5" d="M0,-3.0v7 M-2.5,-0.5L0,-3.0L2.5,-0.5"/>
                </g>
               <g id="resetDef">
                       <use xlink:href="#rim2" fill="#404040">
                               <set attributeName="fill" to="#808080" begin="reset.mouseover" end="reset.mouseout"/>
                       </use>
               </g>
        </defs>

<script type="text/javascript">
var viewWidth = 1697;
var viewHeight = 691;
var sectionId = 'dynsection-0';
</script>
<script xlink:href="svgpan.js"/>
<svg id="graph" class="graph">
<g id="viewport">
<title>HostContext</title>
<polygon fill="white" stroke="transparent" points="-4,4 -4,-687 1693,-687 1693,4 -4,4"/>
<!-- Node1 -->
<g id="node1" class="node">
<title>Node1</title>
<g id="a_node1"><a xlink:title="Provides the plugin with an interface to the host for platform and application&#45;level operations.">
<polygon fill="#bfbfbf" stroke="black" points="510,-328.5 510,-347.5 593,-347.5 593,-328.5 510,-328.5"/>
<text text-anchor="middle" x="551.5" y="-335.5" font-family="Fira Code" font-size="10.00">HostContext</text>
</a>
</g>
</g>
<!-- Node5 -->
<g id="node5" class="node">
<title>Node5</title>
<g id="a_node5"><a xlink:href="struct_context.html" target="_top" xlink:title="The plugin context is a persistent state representing the entire application to the game plugin acros...">
<polygon fill="white" stroke="black" points="736,-393.5 736,-412.5 795,-412.5 795,-393.5 736,-393.5"/>
<text text-anchor="middle" x="765.5" y="-400.5" font-family="Fira Code" font-size="10.00">Context</text>
</a>
</g>
</g>
<!-- Node1&#45;&gt;Node5 -->
<g id="edge5" class="edge">
<title>Node1&#45;&gt;Node5</title>
<path fill="none" stroke="#9a32cd" stroke-dasharray="5,2" d="M593.39,-350.54C635.2,-363.36 699.08,-382.94 735.81,-394.2"/>
<polygon fill="#9a32cd" stroke="#9a32cd" points="594.37,-347.18 583.78,-347.59 592.32,-353.87 594.37,-347.18"/>
<text text-anchor="middle" x="643.5" y="-378" font-family="Fira Code" font-size="10.00"> host</text>
</g>
<!-- Node2 -->
<g id="node2" class="node">
<title>Node2</title>
<g id="a_node2"><a xlink:href="struct_input_action.html" target="_top" xlink:title="An input action is triggered by a button binding and may respond to either activation or deactivation...">
<polygon fill="white" stroke="black" points="1183,-326.5 1183,-345.5 1266,-345.5 1266,-326.5 1183,-326.5"/>
<text text-anchor="middle" x="1224.5" y="-333.5" font-family="Fira Code" font-size="10.00">InputAction</text>
</a>
</g>
</g>
<!-- Node2&#45;&gt;Node1 -->
<g id="edge1" class="edge">
<title>Node2&#45;&gt;Node1</title>
<path fill="none" stroke="#9a32cd" stroke-dasharray="5,2" d="M1178.25,-323.96C1165.31,-320.77 1151.15,-317.52 1138,-315 1013.82,-291.24 980.98,-275.25 855,-286 760.49,-294.06 651.16,-316.05 593.31,-328.71"/>
<polygon fill="#9a32cd" stroke="#9a32cd" points="1177.77,-327.45 1188.32,-326.49 1179.48,-320.66 1177.77,-327.45"/>
<text text-anchor="middle" x="891.5" y="-289" font-family="Fira Code" font-size="10.00"> quitAction</text>
</g>
<!-- Node4 -->
<g id="node4" class="node">
<title>Node4</title>
<g id="a_node4"><a xlink:href="struct_input_action_args.html" target="_top" xlink:title="Arguments to an input action callback.">
<polygon fill="white" stroke="black" points="946,-321.5 946,-340.5 1053,-340.5 1053,-321.5 946,-321.5"/>
<text text-anchor="middle" x="999.5" y="-328.5" font-family="Fira Code" font-size="10.00">InputActionArgs</text>
</a>
</g>
</g>
<!-- Node2&#45;&gt;Node4 -->
<g id="edge43" class="edge">
<title>Node2&#45;&gt;Node4</title>
<path fill="none" stroke="#9a32cd" stroke-dasharray="5,2" d="M1172.57,-334.86C1136.82,-334.06 1089.16,-332.99 1053.07,-332.18"/>
<polygon fill="#9a32cd" stroke="#9a32cd" points="1172.7,-338.36 1182.78,-335.09 1172.86,-331.36 1172.7,-338.36"/>
<text text-anchor="middle" x="1104.5" y="-337" font-family="Fira Code" font-size="10.00"> action</text>
</g>
<!-- Node6 -->
<g id="node6" class="node">
<title>Node6</title>
<g id="a_node6"><a xlink:href="struct_sdl_context.html" target="_top" xlink:title="Parent node of the entire SDL state.">
<polygon fill="white" stroke="black" points="1411,-499.5 1411,-518.5 1488,-518.5 1488,-499.5 1411,-499.5"/>
<text text-anchor="middle" x="1449.5" y="-506.5" font-family="Fira Code" font-size="10.00">SdlContext</text>
</a>
</g>
</g>
<!-- Node2&#45;&gt;Node6 -->
<g id="edge14" class="edge">
<title>Node2&#45;&gt;Node6</title>
<path fill="none" stroke="#9a32cd" stroke-dasharray="5,2" d="M1257.33,-349.81C1291.07,-365.41 1344.78,-393.1 1384,-427 1409.76,-449.27 1432.47,-483.05 1442.72,-499.43"/>
<polygon fill="#9a32cd" stroke="#9a32cd" points="1258.51,-346.5 1247.96,-345.54 1255.61,-352.87 1258.51,-346.5"/>
<text text-anchor="middle" x="1347.5" y="-430" font-family="Fira Code" font-size="10.00"> clickAction</text>
</g>
<!-- Node24 -->
<g id="node24" class="node">
<title>Node24</title>
<g id="a_node24"><a xlink:href="struct_action_binding.html" target="_top" xlink:title="Closes over the callback for an input binding to a particular type of input device,...">
<polygon fill="white" stroke="black" points="1402,-154.5 1402,-173.5 1497,-173.5 1497,-154.5 1402,-154.5"/>
<text text-anchor="middle" x="1449.5" y="-161.5" font-family="Fira Code" font-size="10.00">ActionBinding</text>
</a>
</g>
</g>
<!-- Node2&#45;&gt;Node24 -->
<g id="edge27" class="edge">
<title>Node2&#45;&gt;Node24</title>
<path fill="none" stroke="#9a32cd" stroke-dasharray="5,2" d="M1268.56,-323.16C1302.69,-311.38 1350.12,-291.28 1384,-262 1414.05,-236.03 1435.74,-192.76 1444.38,-173.62"/>
<polygon fill="#9a32cd" stroke="#9a32cd" points="1267.23,-319.91 1258.86,-326.41 1269.46,-326.55 1267.23,-319.91"/>
<text text-anchor="middle" x="1347.5" y="-310" font-family="Fira Code" font-size="10.00"> action</text>
</g>
<!-- Node3 -->
<g id="node3" class="node">
<title>Node3</title>
<g id="a_node3"><a xlink:title=" ">
<polygon fill="white" stroke="black" points="973,-365.5 973,-384.5 1026,-384.5 1026,-365.5 973,-365.5"/>
<text text-anchor="middle" x="999.5" y="-372.5" font-family="Fira Code" font-size="10.00">char *</text>
</a>
</g>
</g>
<!-- Node3&#45;&gt;Node2 -->
<g id="edge2" class="edge">
<title>Node3&#45;&gt;Node2</title>
<path fill="none" stroke="#9a32cd" stroke-dasharray="5,2" d="M1036.17,-368.76C1076.15,-361.77 1140.84,-350.46 1182.77,-343.12"/>
<polygon fill="#9a32cd" stroke="#9a32cd" points="1035.33,-365.36 1026.08,-370.53 1036.53,-372.25 1035.33,-365.36"/>
<text text-anchor="middle" x="1104.5" y="-366" font-family="Fira Code" font-size="10.00"> name</text>
</g>
<!-- Node4&#45;&gt;Node2 -->
<g id="edge3" class="edge">
<title>Node4&#45;&gt;Node2</title>
<path fill="none" stroke="#9a32cd" stroke-dasharray="5,2" d="M1063.26,-320.7C1065.87,-320.43 1068.46,-320.2 1071,-320 1100.69,-317.7 1108.35,-317.25 1138,-320 1152.74,-321.37 1168.72,-324.03 1182.84,-326.8"/>
<polygon fill="#9a32cd" stroke="#9a32cd" points="1062.67,-317.25 1053.14,-321.88 1063.47,-324.2 1062.67,-317.25"/>
<text text-anchor="middle" x="1104.5" y="-323" font-family="Fira Code" font-size="10.00"> on_action</text>
</g>
<!-- Node5&#45;&gt;Node4 -->
<g id="edge4" class="edge">
<title>Node5&#45;&gt;Node4</title>
<path fill="none" stroke="#9a32cd" stroke-dasharray="5,2" d="M805.25,-390.98C850.91,-376.8 925.87,-353.54 967.74,-340.55"/>
<polygon fill="#9a32cd" stroke="#9a32cd" points="803.93,-387.72 795.41,-394.03 806,-394.41 803.93,-387.72"/>
<text text-anchor="middle" x="891.5" y="-377" font-family="Fira Code" font-size="10.00"> ctx</text>
</g>
<!-- Node6&#45;&gt;Node5 -->
<g id="edge6" class="edge">
<title>Node6&#45;&gt;Node5</title>
<path fill="none" stroke="#9a32cd" stroke-dasharray="5,2" d="M1425.01,-494.24C1413.16,-487.52 1398.3,-480.15 1384,-476 1157.25,-410.15 1087.36,-468.94 855,-427 834.79,-423.35 812.48,-417.29 795.31,-412.17"/>
<polygon fill="#9a32cd" stroke="#9a32cd" points="1423.41,-497.36 1433.8,-499.42 1426.96,-491.33 1423.41,-497.36"/>
<text text-anchor="middle" x="1104.5" y="-447" font-family="Fira Code" font-size="10.00"> sdl</text>
</g>
<!-- Node7 -->
<g id="node7" class="node">
<title>Node7</title>
<g id="a_node7"><a xlink:title=" ">
<polygon fill="white" stroke="black" points="1180,-556.5 1180,-575.5 1269,-575.5 1269,-556.5 1180,-556.5"/>
<text text-anchor="middle" x="1224.5" y="-563.5" font-family="Fira Code" font-size="10.00">SDL_Window *</text>
</a>
</g>
</g>
<!-- Node7&#45;&gt;Node6 -->
<g id="edge7" class="edge">
<title>Node7&#45;&gt;Node6</title>
<path fill="none" stroke="#9a32cd" stroke-dasharray="5,2" d="M1279.25,-558.1C1310.23,-552.9 1349.7,-545.17 1384,-535 1398.93,-530.57 1415.19,-524.01 1427.65,-518.58"/>
<polygon fill="#9a32cd" stroke="#9a32cd" points="1278.39,-554.69 1269.09,-559.76 1279.52,-561.6 1278.39,-554.69"/>
<text text-anchor="middle" x="1347.5" y="-554" font-family="Fira Code" font-size="10.00"> window</text>
</g>
<!-- Node8 -->
<g id="node8" class="node">
<title>Node8</title>
<g id="a_node8"><a xlink:title=" ">
<polygon fill="white" stroke="black" points="1174,-518.5 1174,-537.5 1275,-537.5 1275,-518.5 1174,-518.5"/>
<text text-anchor="middle" x="1224.5" y="-525.5" font-family="Fira Code" font-size="10.00">SDL_Renderer *</text>
</a>
</g>
</g>
<!-- Node8&#45;&gt;Node6 -->
<g id="edge8" class="edge">
<title>Node8&#45;&gt;Node6</title>
<path fill="none" stroke="#9a32cd" stroke-dasharray="5,2" d="M1285.4,-522.9C1325.25,-519.5 1376.37,-515.15 1410.67,-512.22"/>
<polygon fill="#9a32cd" stroke="#9a32cd" points="1284.93,-519.42 1275.27,-523.76 1285.53,-526.4 1284.93,-519.42"/>
<text text-anchor="middle" x="1347.5" y="-523" font-family="Fira Code" font-size="10.00"> renderer</text>
</g>
<!-- Node9 -->
<g id="node9" class="node">
<title>Node9</title>
<g id="a_node9"><a xlink:href="struct_font_book.html" target="_top" xlink:title=" ">
<polygon fill="white" stroke="black" points="611,-607.5 611,-626.5 676,-626.5 676,-607.5 611,-607.5"/>
<text text-anchor="middle" x="643.5" y="-614.5" font-family="Fira Code" font-size="10.00">FontBook</text>
</a>
</g>
</g>
<!-- Node9&#45;&gt;Node6 -->
<g id="edge9" class="edge">
<title>Node9&#45;&gt;Node6</title>
<path fill="none" stroke="#9a32cd" stroke-dasharray="5,2" d="M686.55,-616.73C735.53,-616.43 818.88,-616 890.5,-616 890.5,-616 890.5,-616 1225.5,-616 1299.37,-616 1319.7,-602.36 1384,-566 1406.63,-553.2 1428.3,-531.47 1439.85,-518.86"/>
<polygon fill="#9a32cd" stroke="#9a32cd" points="686.32,-613.23 676.34,-616.79 686.37,-620.23 686.32,-613.23"/>
<text text-anchor="middle" x="999.5" y="-619" font-family="Fira Code" font-size="10.00"> fonts</text>
</g>
<!-- Node10 -->
<g id="node10" class="node">
<title>Node10</title>
<g id="a_node10"><a xlink:href="struct_text.html" target="_top" xlink:title="Represents a texture generated by rendering text in a TTF font.">
<polygon fill="white" stroke="black" points="354,-612.5 354,-631.5 395,-631.5 395,-612.5 354,-612.5"/>
<text text-anchor="middle" x="374.5" y="-619.5" font-family="Fira Code" font-size="10.00">Text</text>
</a>
</g>
</g>
<!-- Node10&#45;&gt;Node9 -->
<g id="edge10" class="edge">
<title>Node10&#45;&gt;Node9</title>
<path fill="none" stroke="#9a32cd" stroke-dasharray="5,2" d="M405.44,-621.44C456.22,-620.49 558.8,-618.57 610.78,-617.59"/>
<polygon fill="#9a32cd" stroke="#9a32cd" points="405.07,-617.95 395.13,-621.63 405.2,-624.94 405.07,-617.95"/>
<text text-anchor="middle" x="467.5" y="-623" font-family="Fira Code" font-size="10.00"> fpsFont</text>
</g>
<!-- Node11 -->
<g id="node11" class="node">
<title>Node11</title>
<g id="a_node11"><a xlink:title=" ">
<polygon fill="white" stroke="black" points="135,-663.5 135,-682.5 212,-682.5 212,-663.5 135,-663.5"/>
<text text-anchor="middle" x="173.5" y="-670.5" font-family="Fira Code" font-size="10.00">TTF_Font *</text>
</a>
</g>
</g>
<!-- Node11&#45;&gt;Node10 -->
<g id="edge11" class="edge">
<title>Node11&#45;&gt;Node10</title>
<path fill="none" stroke="#9a32cd" stroke-dasharray="5,2" d="M222.15,-663.67C247.24,-658.46 278.44,-651.51 306,-644 322.29,-639.56 340.48,-633.57 353.86,-628.96"/>
<polygon fill="#9a32cd" stroke="#9a32cd" points="221.24,-660.28 212.15,-665.72 222.65,-667.14 221.24,-660.28"/>
<text text-anchor="middle" x="278.5" y="-660" font-family="Fira Code" font-size="10.00"> font</text>
</g>
<!-- Node12 -->
<g id="node12" class="node">
<title>Node12</title>
<g id="a_node12"><a xlink:title=" ">
<polygon fill="white" stroke="black" points="126,-625.5 126,-644.5 221,-644.5 221,-625.5 126,-625.5"/>
<text text-anchor="middle" x="173.5" y="-632.5" font-family="Fira Code" font-size="10.00">SDL_Texture *</text>
</a>
</g>
</g>
<!-- Node12&#45;&gt;Node10 -->
<g id="edge12" class="edge">
<title>Node12&#45;&gt;Node10</title>
<path fill="none" stroke="#9a32cd" stroke-dasharray="5,2" d="M231.34,-631.29C272.51,-628.6 325.7,-625.12 353.91,-623.28"/>
<polygon fill="#9a32cd" stroke="#9a32cd" points="230.91,-627.81 221.16,-631.95 231.36,-634.79 230.91,-627.81"/>
<text text-anchor="middle" x="278.5" y="-632" font-family="Fira Code" font-size="10.00"> tex</text>
</g>
<!-- Node13 -->
<g id="node13" class="node">
<title>Node13</title>
<g id="a_node13"><a xlink:title=" ">
<polygon fill="white" stroke="black" points="156,-319.5 156,-338.5 191,-338.5 191,-319.5 156,-319.5"/>
<text text-anchor="middle" x="173.5" y="-326.5" font-family="Fira Code" font-size="10.00">int</text>
</a>
</g>
</g>
<!-- Node13&#45;&gt;Node10 -->
<g id="edge13" class="edge">
<title>Node13&#45;&gt;Node10</title>
<path fill="none" stroke="#9a32cd" stroke-dasharray="5,2" d="M201.1,-331.36C212.58,-333.77 225.16,-338.57 233,-348 272.53,-395.58 212.31,-437.74 251,-486 267.27,-506.29 286.04,-489.32 306,-506 341.93,-536.04 363.05,-590.42 370.47,-612.4"/>
<polygon fill="#9a32cd" stroke="#9a32cd" points="201.45,-327.87 191.02,-329.74 200.34,-334.78 201.45,-327.87"/>
<text text-anchor="middle" x="278.5" y="-520" font-family="Fira Code" font-size="10.00"> height</text>
<text text-anchor="middle" x="278.5" y="-509" font-family="Fira Code" font-size="10.00">width</text>
</g>
<!-- Node34 -->
<g id="node34" class="node">
<title>Node34</title>
<g id="a_node34"><a xlink:href="struct_mouse_axes.html" target="_top" xlink:title="Represents the mouse state.">
<polygon fill="white" stroke="black" points="339,-204.5 339,-223.5 410,-223.5 410,-204.5 339,-204.5"/>
<text text-anchor="middle" x="374.5" y="-211.5" font-family="Fira Code" font-size="10.00">MouseAxes</text>
</a>
</g>
</g>
<!-- Node13&#45;&gt;Node34 -->
<g id="edge41" class="edge">
<title>Node13&#45;&gt;Node34</title>
<path fill="none" stroke="#9a32cd" stroke-dasharray="5,2" d="M193.1,-312.46C204.85,-301.78 220.17,-287.43 233,-274 241.49,-265.11 240.75,-259.79 251,-253 277.7,-235.31 312.96,-225.2 338.79,-219.73"/>
<polygon fill="#9a32cd" stroke="#9a32cd" points="190.7,-309.91 185.62,-319.2 195.39,-315.11 190.7,-309.91"/>
<text text-anchor="middle" x="278.5" y="-278" font-family="Fira Code" font-size="10.00"> scroll</text>
<text text-anchor="middle" x="278.5" y="-267" font-family="Fira Code" font-size="10.00">x</text>
<text text-anchor="middle" x="278.5" y="-256" font-family="Fira Code" font-size="10.00">y</text>
</g>
<!-- Node35 -->
<g id="node35" class="node">
<title>Node35</title>
<g id="a_node35"><a xlink:href="struct_log_state.html" target="_top" xlink:title="Used to persist the log output streams between hot&#45;reloads.">
<polygon fill="white" stroke="black" points="342,-328.5 342,-347.5 407,-347.5 407,-328.5 342,-328.5"/>
<text text-anchor="middle" x="374.5" y="-335.5" font-family="Fira Code" font-size="10.00">LogState</text>
</a>
</g>
</g>
<!-- Node13&#45;&gt;Node35 -->
<g id="edge46" class="edge">
<title>Node13&#45;&gt;Node35</title>
<path fill="none" stroke="#9a32cd" stroke-dasharray="5,2" d="M201.49,-330.22C238.04,-331.87 303.15,-334.82 341.93,-336.57"/>
<polygon fill="#9a32cd" stroke="#9a32cd" points="201.27,-326.71 191.12,-329.75 200.96,-333.7 201.27,-326.71"/>
<text text-anchor="middle" x="278.5" y="-338" font-family="Fira Code" font-size="10.00"> level</text>
</g>
<!-- Node14 -->
<g id="node14" class="node">
<title>Node14</title>
<g id="a_node14"><a xlink:href="struct_sdl_mouse_cursor.html" target="_top" xlink:title="Represents the mouse cursor state.">
<polygon fill="white" stroke="black" points="324,-480.5 324,-499.5 425,-499.5 425,-480.5 324,-480.5"/>
<text text-anchor="middle" x="374.5" y="-487.5" font-family="Fira Code" font-size="10.00">SdlMouseCursor</text>
</a>
</g>
</g>
<!-- Node14&#45;&gt;Node6 -->
<g id="edge15" class="edge">
<title>Node14&#45;&gt;Node6</title>
<path fill="none" stroke="#9a32cd" stroke-dasharray="5,2" d="M435.46,-490C469.25,-490 512.23,-490 550.5,-490 550.5,-490 550.5,-490 1225.5,-490 1290.78,-490 1366.42,-498.18 1410.7,-503.81"/>
<polygon fill="#9a32cd" stroke="#9a32cd" points="435.29,-486.5 425.29,-490 435.29,-493.5 435.29,-486.5"/>
<text text-anchor="middle" x="891.5" y="-493" font-family="Fira Code" font-size="10.00"> mouseCursor</text>
</g>
<!-- Node15 -->
<g id="node15" class="node">
<title>Node15</title>
<g id="a_node15"><a xlink:title=" ">
<polygon fill="white" stroke="black" points="138,-587.5 138,-606.5 209,-606.5 209,-587.5 138,-587.5"/>
<text text-anchor="middle" x="173.5" y="-594.5" font-family="Fira Code" font-size="10.00">SDL_Color</text>
</a>
</g>
</g>
<!-- Node15&#45;&gt;Node14 -->
<g id="edge16" class="edge">
<title>Node15&#45;&gt;Node14</title>
<path fill="none" stroke="#9a32cd" stroke-dasharray="5,2" d="M219.49,-598.3C246.27,-597.17 279.98,-592.28 306,-577 337.98,-558.22 360.25,-517.94 369.17,-499.53"/>
<polygon fill="#9a32cd" stroke="#9a32cd" points="219.14,-594.81 209.23,-598.56 219.32,-601.8 219.14,-594.81"/>
<text text-anchor="middle" x="278.5" y="-598" font-family="Fira Code" font-size="10.00"> color</text>
</g>
<!-- Node16 -->
<g id="node16" class="node">
<title>Node16</title>
<g id="a_node16"><a xlink:title=" ">
<polygon fill="white" stroke="black" points="153,-245.5 153,-264.5 194,-264.5 194,-245.5 153,-245.5"/>
<text text-anchor="middle" x="173.5" y="-252.5" font-family="Fira Code" font-size="10.00">bool</text>
</a>
</g>
</g>
<!-- Node16&#45;&gt;Node14 -->
<g id="edge17" class="edge">
<title>Node16&#45;&gt;Node14</title>
<path fill="none" stroke="#9a32cd" stroke-dasharray="5,2" d="M197.68,-270.74C210.21,-280.53 224.77,-294.24 233,-310 258.38,-358.58 218.38,-387.96 251,-432 269.91,-457.53 302.94,-472.26 329.94,-480.48"/>
<polygon fill="#9a32cd" stroke="#9a32cd" points="199.55,-267.76 189.43,-264.61 195.37,-273.38 199.55,-267.76"/>
<text text-anchor="middle" x="278.5" y="-474" font-family="Fira Code" font-size="10.00"> visible</text>
</g>
<!-- Node27 -->
<g id="node27" class="node">
<title>Node27</title>
<g id="a_node27"><a xlink:href="struct_keybind.html" target="_top" xlink:title="Represents a keyboard key combination the state of which is being tracked by an action.">
<polygon fill="white" stroke="black" points="345,-34.5 345,-53.5 404,-53.5 404,-34.5 345,-34.5"/>
<text text-anchor="middle" x="374.5" y="-41.5" font-family="Fira Code" font-size="10.00">Keybind</text>
</a>
</g>
</g>
<!-- Node16&#45;&gt;Node27 -->
<g id="edge33" class="edge">
<title>Node16&#45;&gt;Node27</title>
<path fill="none" stroke="#9a32cd" stroke-dasharray="5,2" d="M196.36,-239.12C208.83,-228.97 223.77,-214.77 233,-199 249.22,-171.28 232.65,-155.37 251,-129 252.86,-126.33 327.32,-75.45 359.22,-53.71"/>
<polygon fill="#9a32cd" stroke="#9a32cd" points="193.95,-236.56 188.22,-245.47 198.25,-242.08 193.95,-236.56"/>
<text text-anchor="middle" x="278.5" y="-132" font-family="Fira Code" font-size="10.00"> state</text>
</g>
<!-- Node30 -->
<g id="node30" class="node">
<title>Node30</title>
<g id="a_node30"><a xlink:href="struct_mousebind.html" target="_top" xlink:title="Represents a mouse button combination the state of which is being tracked by an action.">
<polygon fill="white" stroke="black" points="339,-144.5 339,-163.5 410,-163.5 410,-144.5 339,-144.5"/>
<text text-anchor="middle" x="374.5" y="-151.5" font-family="Fira Code" font-size="10.00">Mousebind</text>
</a>
</g>
</g>
<!-- Node16&#45;&gt;Node30 -->
<g id="edge37" class="edge">
<title>Node16&#45;&gt;Node30</title>
<path fill="none" stroke="#9a32cd" stroke-dasharray="5,2" d="M192.53,-238.4C204.27,-227.43 219.8,-212.61 233,-199 241.33,-190.41 240.62,-184.94 251,-179 278.04,-163.53 313.25,-157.55 338.98,-155.28"/>
<polygon fill="#9a32cd" stroke="#9a32cd" points="190.03,-235.94 185.08,-245.31 194.79,-241.07 190.03,-235.94"/>
<text text-anchor="middle" x="278.5" y="-182" font-family="Fira Code" font-size="10.00"> state</text>
</g>
<!-- Node16&#45;&gt;Node35 -->
<g id="edge47" class="edge">
<title>Node16&#45;&gt;Node35</title>
<path fill="none" stroke="#9a32cd" stroke-dasharray="5,2" d="M203.74,-267.19C243.57,-283.81 314.09,-313.22 350.43,-328.38"/>
<polygon fill="#9a32cd" stroke="#9a32cd" points="204.89,-263.88 194.31,-263.26 202.19,-270.34 204.89,-263.88"/>
<text text-anchor="middle" x="278.5" y="-312" font-family="Fira Code" font-size="10.00"> quiet</text>
</g>
<!-- Node17 -->
<g id="node17" class="node">
<title>Node17</title>
<g id="a_node17"><a xlink:href="struct_game_context.html" target="_top" xlink:title="Parent node of the entire game state.">
<polygon fill="white" stroke="black" points="510,-393.5 510,-412.5 593,-412.5 593,-393.5 510,-393.5"/>
<text text-anchor="middle" x="551.5" y="-400.5" font-family="Fira Code" font-size="10.00">GameContext</text>
</a>
</g>
</g>
<!-- Node17&#45;&gt;Node5 -->
<g id="edge18" class="edge">
<title>Node17&#45;&gt;Node5</title>
<path fill="none" stroke="#9a32cd" stroke-dasharray="5,2" d="M603.57,-403C645.08,-403 702.12,-403 735.96,-403"/>
<polygon fill="#9a32cd" stroke="#9a32cd" points="603.38,-399.5 593.38,-403 603.38,-406.5 603.38,-399.5"/>
<text text-anchor="middle" x="643.5" y="-406" font-family="Fira Code" font-size="10.00"> game</text>
</g>
<!-- Node18 -->
<g id="node18" class="node">
<title>Node18</title>
<g id="a_node18"><a xlink:href="struct_sim_clock.html" target="_top" xlink:title="Represents time inside the game world.">
<polygon fill="white" stroke="black" points="342,-432.5 342,-451.5 407,-451.5 407,-432.5 342,-432.5"/>
<text text-anchor="middle" x="374.5" y="-439.5" font-family="Fira Code" font-size="10.00">SimClock</text>
</a>
</g>
</g>
<!-- Node18&#45;&gt;Node17 -->
<g id="edge19" class="edge">
<title>Node18&#45;&gt;Node17</title>
<path fill="none" stroke="#9a32cd" stroke-dasharray="5,2" d="M417.45,-435.08C439.71,-431.16 467.46,-425.87 492,-420 501.05,-417.84 510.79,-415.15 519.68,-412.56"/>
<polygon fill="#9a32cd" stroke="#9a32cd" points="416.57,-431.68 407.32,-436.84 417.77,-438.58 416.57,-431.68"/>
<text text-anchor="middle" x="467.5" y="-434" font-family="Fira Code" font-size="10.00"> clock</text>
</g>
<!-- Node19 -->
<g id="node19" class="node">
<title>Node19</title>
<g id="a_node19"><a xlink:href="struct_wall_clock.html" target="_top" xlink:title="Represents real outside&#45;world time.">
<polygon fill="white" stroke="black" points="138,-395.5 138,-414.5 209,-414.5 209,-395.5 138,-395.5"/>
<text text-anchor="middle" x="173.5" y="-402.5" font-family="Fira Code" font-size="10.00">WallClock</text>
</a>
</g>
</g>
<!-- Node19&#45;&gt;Node18 -->
<g id="edge20" class="edge">
<title>Node19&#45;&gt;Node18</title>
<path fill="none" stroke="#9a32cd" stroke-dasharray="5,2" d="M219.39,-406.17C245.02,-407.56 277.61,-410.57 306,-417 321.84,-420.59 339,-426.98 352.06,-432.4"/>
<polygon fill="#9a32cd" stroke="#9a32cd" points="219.38,-402.66 209.22,-405.68 219.04,-409.66 219.38,-402.66"/>
<text text-anchor="middle" x="278.5" y="-420" font-family="Fira Code" font-size="10.00"> real</text>
</g>
<!-- Node20 -->
<g id="node20" class="node">
<title>Node20</title>
<g id="a_node20"><a xlink:title=" ">
<polygon fill="white" stroke="black" points="0,-420.5 0,-439.5 65,-439.5 65,-420.5 0,-420.5"/>
<text text-anchor="middle" x="32.5" y="-427.5" font-family="Fira Code" font-size="10.00">uint64_t</text>
</a>
</g>
</g>
<!-- Node20&#45;&gt;Node18 -->
<g id="edge22" class="edge">
<title>Node20&#45;&gt;Node18</title>
<path fill="none" stroke="#9a32cd" stroke-dasharray="5,2" d="M75.24,-436.27C77.86,-436.55 80.46,-436.8 83,-437 176.78,-444.41 288.1,-443.68 341.63,-442.73"/>
<polygon fill="#9a32cd" stroke="#9a32cd" points="75.47,-432.78 65.12,-435.06 74.64,-439.73 75.47,-432.78"/>
<text text-anchor="middle" x="173.5" y="-502" font-family="Fira Code" font-size="10.00"> Dt</text>
<text text-anchor="middle" x="173.5" y="-491" font-family="Fira Code" font-size="10.00">period</text>
<text text-anchor="middle" x="173.5" y="-480" font-family="Fira Code" font-size="10.00">t</text>
<text text-anchor="middle" x="173.5" y="-469" font-family="Fira Code" font-size="10.00">tick</text>
<text text-anchor="middle" x="173.5" y="-458" font-family="Fira Code" font-size="10.00">tpsAccumNs</text>
<text text-anchor="middle" x="173.5" y="-447" font-family="Fira Code" font-size="10.00">tpsAccumTicks</text>
</g>
<!-- Node20&#45;&gt;Node19 -->
<g id="edge21" class="edge">
<title>Node20&#45;&gt;Node19</title>
<path fill="none" stroke="#9a32cd" stroke-dasharray="5,2" d="M71.7,-417.67C75.5,-416.67 79.31,-415.76 83,-415 100.92,-411.32 121.15,-408.91 137.84,-407.39"/>
<polygon fill="#9a32cd" stroke="#9a32cd" points="70.48,-414.38 61.8,-420.45 72.38,-421.12 70.48,-414.38"/>
<text text-anchor="middle" x="89.5" y="-429" font-family="Fira Code" font-size="10.00"> t</text>
<text text-anchor="middle" x="89.5" y="-418" font-family="Fira Code" font-size="10.00">t0</text>
</g>
<!-- Node21 -->
<g id="node21" class="node">
<title>Node21</title>
<g id="a_node21"><a xlink:title=" ">
<polygon fill="white" stroke="black" points="150,-544.5 150,-563.5 197,-563.5 197,-544.5 150,-544.5"/>
<text text-anchor="middle" x="173.5" y="-551.5" font-family="Fira Code" font-size="10.00">float</text>
</a>
</g>
</g>
<!-- Node21&#45;&gt;Node18 -->
<g id="edge23" class="edge">
<title>Node21&#45;&gt;Node18</title>
<path fill="none" stroke="#9a32cd" stroke-dasharray="5,2" d="M207.15,-552.43C241.25,-550.14 291.71,-544.66 306,-532 327.16,-513.26 306.58,-493.26 324,-471 330.57,-462.61 340.29,-456.16 349.39,-451.51"/>
<polygon fill="#9a32cd" stroke="#9a32cd" points="206.92,-548.94 197.16,-553.05 207.35,-555.93 206.92,-548.94"/>
<text text-anchor="middle" x="278.5" y="-561" font-family="Fira Code" font-size="10.00"> dt</text>
<text text-anchor="middle" x="278.5" y="-550" font-family="Fira Code" font-size="10.00">tps</text>
</g>
<!-- Node22 -->
<g id="node22" class="node">
<title>Node22</title>
<g id="a_node22"><a xlink:title=" ">
<polygon fill="white" stroke="black" points="327,-387.5 327,-406.5 422,-406.5 422,-387.5 327,-387.5"/>
<text text-anchor="middle" x="374.5" y="-394.5" font-family="Fira Code" font-size="10.00">volatile bool</text>
</a>
</g>
</g>
<!-- Node22&#45;&gt;Node17 -->
<g id="edge24" class="edge">
<title>Node22&#45;&gt;Node17</title>
<path fill="none" stroke="#9a32cd" stroke-dasharray="5,2" d="M432.03,-396.61C451.09,-396.72 472.48,-397.08 492,-398 497.8,-398.27 503.92,-398.67 509.93,-399.13"/>
<polygon fill="#9a32cd" stroke="#9a32cd" points="432.02,-393.11 422.01,-396.58 432,-400.11 432.02,-393.11"/>
<text text-anchor="middle" x="467.5" y="-412" font-family="Fira Code" font-size="10.00"> paused</text>
<text text-anchor="middle" x="467.5" y="-401" font-family="Fira Code" font-size="10.00">running</text>
</g>
<!-- Node23 -->
<g id="node23" class="node">
<title>Node23</title>
<g id="a_node23"><a xlink:href="struct_input_context.html" target="_top" xlink:title="Represents the complete state of all input devices and all buffered inputs.">
<polygon fill="white" stroke="black" points="1600,-180.5 1600,-199.5 1689,-199.5 1689,-180.5 1600,-180.5"/>
<text text-anchor="middle" x="1644.5" y="-187.5" font-family="Fira Code" font-size="10.00">InputContext</text>
</a>
</g>
</g>
<!-- Node23&#45;&gt;Node5 -->
<g id="edge25" class="edge">
<title>Node23&#45;&gt;Node5</title>
<path fill="none" stroke="#9a32cd" stroke-dasharray="5,2" d="M1637.34,-209.35C1618.76,-263.57 1557.8,-413 1450.5,-413 998.5,-413 998.5,-413 998.5,-413 925.13,-413 838.82,-407.95 795.06,-405.02"/>
<polygon fill="#9a32cd" stroke="#9a32cd" points="1640.76,-210.18 1640.58,-199.58 1634.11,-207.97 1640.76,-210.18"/>
<text text-anchor="middle" x="1224.5" y="-416" font-family="Fira Code" font-size="10.00"> input</text>
</g>
<!-- Node24&#45;&gt;Node23 -->
<g id="edge26" class="edge">
<title>Node24&#45;&gt;Node23</title>
<path fill="none" stroke="#9a32cd" stroke-dasharray="5,2" d="M1507.1,-165.38C1530.42,-166.59 1557.63,-168.84 1582,-173 1592.48,-174.79 1603.75,-177.63 1613.74,-180.48"/>
<polygon fill="#9a32cd" stroke="#9a32cd" points="1507.17,-161.88 1497.02,-164.9 1506.85,-168.87 1507.17,-161.88"/>
<text text-anchor="middle" x="1548.5" y="-187" font-family="Fira Code" font-size="10.00"> keybinds</text>
<text text-anchor="middle" x="1548.5" y="-176" font-family="Fira Code" font-size="10.00">mousebinds</text>
</g>
<!-- Node25 -->
<g id="node25" class="node">
<title>Node25</title>
<g id="a_node25"><a xlink:title=" ">
<polygon fill="white" stroke="black" points="694,-238.5 694,-257.5 837,-257.5 837,-238.5 694,-238.5"/>
<text text-anchor="middle" x="765.5" y="-245.5" font-family="Fira Code" font-size="10.00">enum SignalTransition</text>
</a>
</g>
</g>
<!-- Node25&#45;&gt;Node4 -->
<g id="edge44" class="edge">
<title>Node25&#45;&gt;Node4</title>
<path fill="none" stroke="#9a32cd" stroke-dasharray="5,2" d="M787.52,-263.35C804.83,-275.29 830.43,-291.39 855,-301 884.04,-312.36 918.14,-319.71 945.82,-324.3"/>
<polygon fill="#9a32cd" stroke="#9a32cd" points="789.47,-260.44 779.28,-257.54 785.44,-266.16 789.47,-260.44"/>
<text text-anchor="middle" x="891.5" y="-324" font-family="Fira Code" font-size="10.00"> transition</text>
</g>
<!-- Node25&#45;&gt;Node24 -->
<g id="edge28" class="edge">
<title>Node25&#45;&gt;Node24</title>
<path fill="none" stroke="#9a32cd" stroke-dasharray="5,2" d="M847.64,-245.29C923.08,-242.12 1038.47,-235.61 1138,-223 1248.35,-209.02 1274.81,-198.21 1384,-177 1389.72,-175.89 1395.72,-174.7 1401.66,-173.52"/>
<polygon fill="#9a32cd" stroke="#9a32cd" points="847.11,-241.81 837.27,-245.72 847.4,-248.8 847.11,-241.81"/>
<text text-anchor="middle" x="1104.5" y="-234" font-family="Fira Code" font-size="10.00"> transition</text>
</g>
<!-- Node26 -->
<g id="node26" class="node">
<title>Node26</title>
<g id="a_node26"><a xlink:title=" ">
<polygon fill="white" stroke="black" points="1156,-115.5 1156,-134.5 1293,-134.5 1293,-115.5 1156,-115.5"/>
<text text-anchor="middle" x="1224.5" y="-122.5" font-family="Fira Code" font-size="10.00">enum InputDeviceType</text>
</a>
</g>
</g>
<!-- Node26&#45;&gt;Node24 -->
<g id="edge29" class="edge">
<title>Node26&#45;&gt;Node24</title>
<path fill="none" stroke="#9a32cd" stroke-dasharray="5,2" d="M1303.44,-126.72C1329.34,-128.52 1358.15,-131.88 1384,-138 1385.1,-138.26 1407.06,-147.14 1425.05,-154.45"/>
<polygon fill="#9a32cd" stroke="#9a32cd" points="1303.5,-123.21 1293.3,-126.08 1303.06,-130.2 1303.5,-123.21"/>
<text text-anchor="middle" x="1347.5" y="-141" font-family="Fira Code" font-size="10.00"> type</text>
</g>
<!-- Node27&#45;&gt;Node24 -->
<g id="edge30" class="edge">
<title>Node27&#45;&gt;Node24</title>
<path fill="none" stroke="#9a32cd" stroke-dasharray="5,2" d="M414.69,-44C450.16,-44 503.83,-44 550.5,-44 550.5,-44 550.5,-44 1225.5,-44 1298.15,-44 1331.62,-33.66 1384,-84 1404.38,-103.59 1383.05,-124.03 1402,-145 1405.51,-148.88 1409.93,-151.99 1414.64,-154.47"/>
<polygon fill="#9a32cd" stroke="#9a32cd" points="414.3,-40.5 404.3,-44 414.3,-47.5 414.3,-40.5"/>
<text text-anchor="middle" x="891.5" y="-47" font-family="Fira Code" font-size="10.00"> keybind</text>
</g>
<!-- Node28 -->
<g id="node28" class="node">
<title>Node28</title>
<g id="a_node28"><a xlink:title=" ">
<polygon fill="white" stroke="black" points="123,-0.5 123,-19.5 224,-19.5 224,-0.5 123,-0.5"/>
<text text-anchor="middle" x="173.5" y="-7.5" font-family="Fira Code" font-size="10.00">unsigned short</text>
</a>
</g>
</g>
<!-- Node28&#45;&gt;Node27 -->
<g id="edge31" class="edge">
<title>Node28&#45;&gt;Node27</title>
<path fill="none" stroke="#9a32cd" stroke-dasharray="5,2" d="M234.18,-16.2C256.77,-18.95 282.66,-22.57 306,-27 318.82,-29.43 332.84,-32.84 344.76,-35.97"/>
<polygon fill="#9a32cd" stroke="#9a32cd" points="234.39,-12.7 224.05,-15 233.57,-19.66 234.39,-12.7"/>
<text text-anchor="middle" x="278.5" y="-30" font-family="Fira Code" font-size="10.00"> keyIndex</text>
</g>
<!-- Node29 -->
<g id="node29" class="node">
<title>Node29</title>
<g id="a_node29"><a xlink:title=" ">
<polygon fill="white" stroke="black" points="114,-53.5 114,-72.5 233,-72.5 233,-53.5 114,-53.5"/>
<text text-anchor="middle" x="173.5" y="-60.5" font-family="Fira Code" font-size="10.00">enum ModifierKeys</text>
</a>
</g>
</g>
<!-- Node29&#45;&gt;Node27 -->
<g id="edge32" class="edge">
<title>Node29&#45;&gt;Node27</title>
<path fill="none" stroke="#9a32cd" stroke-dasharray="5,2" d="M217.76,-51.05C228.53,-48.57 240.12,-46.31 251,-45 282.89,-41.17 319.78,-41.51 344.67,-42.43"/>
<polygon fill="#9a32cd" stroke="#9a32cd" points="216.62,-47.73 207.72,-53.48 218.27,-54.53 216.62,-47.73"/>
<text text-anchor="middle" x="278.5" y="-48" font-family="Fira Code" font-size="10.00"> mod</text>
</g>
<!-- Node29&#45;&gt;Node30 -->
<g id="edge36" class="edge">
<title>Node29&#45;&gt;Node30</title>
<path fill="none" stroke="#9a32cd" stroke-dasharray="5,2" d="M243.3,-62.18C264.36,-64.3 286.97,-69.11 306,-79 335.37,-94.28 358.17,-127.87 368.09,-144.42"/>
<polygon fill="#9a32cd" stroke="#9a32cd" points="243.36,-58.67 233.11,-61.35 242.79,-65.65 243.36,-58.67"/>
<text text-anchor="middle" x="278.5" y="-82" font-family="Fira Code" font-size="10.00"> mod</text>
</g>
<!-- Node30&#45;&gt;Node24 -->
<g id="edge34" class="edge">
<title>Node30&#45;&gt;Node24</title>
<path fill="none" stroke="#9a32cd" stroke-dasharray="5,2" d="M420,-157.55C455.35,-160.07 506.06,-163 550.5,-163 550.5,-163 550.5,-163 1225.5,-163 1286.48,-163 1356.83,-163.38 1401.95,-163.67"/>
<polygon fill="#9a32cd" stroke="#9a32cd" points="420.23,-154.06 410.01,-156.82 419.72,-161.04 420.23,-154.06"/>
<text text-anchor="middle" x="891.5" y="-166" font-family="Fira Code" font-size="10.00"> mousebind</text>
</g>
<!-- Node31 -->
<g id="node31" class="node">
<title>Node31</title>
<g id="a_node31"><a xlink:title=" ">
<polygon fill="white" stroke="black" points="114,-170.5 114,-189.5 233,-189.5 233,-170.5 114,-170.5"/>
<text text-anchor="middle" x="173.5" y="-177.5" font-family="Fira Code" font-size="10.00">enum MouseButtons</text>
</a>
</g>
</g>
<!-- Node31&#45;&gt;Node30 -->
<g id="edge35" class="edge">
<title>Node31&#45;&gt;Node30</title>
<path fill="none" stroke="#9a32cd" stroke-dasharray="5,2" d="M200.42,-165.67C214.84,-158.52 233.39,-150.64 251,-147 280.21,-140.97 314.1,-143.63 338.83,-147.28"/>
<polygon fill="#9a32cd" stroke="#9a32cd" points="198.45,-162.75 191.16,-170.45 201.65,-168.98 198.45,-162.75"/>
<text text-anchor="middle" x="278.5" y="-150" font-family="Fira Code" font-size="10.00"> button</text>
</g>
<!-- Node31&#45;&gt;Node34 -->
<g id="edge42" class="edge">
<title>Node31&#45;&gt;Node34</title>
<path fill="none" stroke="#9a32cd" stroke-dasharray="5,2" d="M240.21,-191.23C273.13,-196.85 311.64,-203.43 338.78,-208.07"/>
<polygon fill="#9a32cd" stroke="#9a32cd" points="240.64,-187.75 230.2,-189.52 239.46,-194.65 240.64,-187.75"/>
<text text-anchor="middle" x="278.5" y="-206" font-family="Fira Code" font-size="10.00"> buttons</text>
</g>
<!-- Node32 -->
<g id="node32" class="node">
<title>Node32</title>
<g id="a_node32"><a xlink:title=" ">
<polygon fill="white" stroke="black" points="1180,-77.5 1180,-96.5 1269,-96.5 1269,-77.5 1180,-77.5"/>
<text text-anchor="middle" x="1224.5" y="-84.5" font-family="Fira Code" font-size="10.00">anonymous:@1</text>
</a>
</g>
</g>
<!-- Node32&#45;&gt;Node24 -->
<g id="edge38" class="edge">
<title>Node32&#45;&gt;Node24</title>
<path fill="none" stroke="#9a32cd" stroke-dasharray="5,2" d="M1279.66,-84.53C1312.52,-85.63 1353.8,-91.87 1384,-113 1397.37,-122.35 1389.77,-134.2 1402,-145 1406.32,-148.81 1411.5,-151.92 1416.81,-154.43"/>
<polygon fill="#9a32cd" stroke="#9a32cd" points="1279.38,-81.03 1269.32,-84.35 1279.25,-88.03 1279.38,-81.03"/>
<text text-anchor="middle" x="1347.5" y="-116" font-family="Fira Code" font-size="10.00"> @1</text>
</g>
<!-- Node33 -->
<g id="node33" class="node">
<title>Node33</title>
<g id="a_node33"><a xlink:title=" ">
<polygon fill="white" stroke="black" points="1423,-116.5 1423,-135.5 1476,-135.5 1476,-116.5 1423,-116.5"/>
<text text-anchor="middle" x="1449.5" y="-123.5" font-family="Fira Code" font-size="10.00">size_t</text>
</a>
</g>
</g>
<!-- Node33&#45;&gt;Node23 -->
<g id="edge39" class="edge">
<title>Node33&#45;&gt;Node23</title>
<path fill="none" stroke="#9a32cd" stroke-dasharray="5,2" d="M1486.27,-124.4C1513.51,-124.44 1551.4,-127.27 1582,-140 1603.85,-149.09 1624.1,-168.54 1635.04,-180.32"/>
<polygon fill="#9a32cd" stroke="#9a32cd" points="1485.98,-120.9 1476.02,-124.51 1486.06,-127.9 1485.98,-120.9"/>
<text text-anchor="middle" x="1548.5" y="-154" font-family="Fira Code" font-size="10.00"> nKeybinds</text>
<text text-anchor="middle" x="1548.5" y="-143" font-family="Fira Code" font-size="10.00">nMousebinds</text>
</g>
<!-- Node34&#45;&gt;Node23 -->
<g id="edge40" class="edge">
<title>Node34&#45;&gt;Node23</title>
<path fill="none" stroke="#9a32cd" stroke-dasharray="5,2" d="M420.03,-212.03C455.39,-210.63 506.1,-209 550.5,-209 550.5,-209 550.5,-209 1450.5,-209 1502.01,-209 1560.89,-202.21 1599.93,-196.75"/>
<polygon fill="#9a32cd" stroke="#9a32cd" points="419.87,-208.53 410.02,-212.43 420.16,-215.52 419.87,-208.53"/>
<text text-anchor="middle" x="999.5" y="-212" font-family="Fira Code" font-size="10.00"> mouse</text>
</g>
<!-- Node35&#45;&gt;Node1 -->
<g id="edge45" class="edge">
<title>Node35&#45;&gt;Node1</title>
<path fill="none" stroke="#9a32cd" stroke-dasharray="5,2" d="M417.46,-338C445.45,-338 482.06,-338 509.79,-338"/>
<polygon fill="#9a32cd" stroke="#9a32cd" points="417.19,-334.5 407.19,-338 417.19,-341.5 417.19,-334.5"/>
<text text-anchor="middle" x="467.5" y="-341" font-family="Fira Code" font-size="10.00"> log</text>
</g>
<!-- Node36 -->
<g id="node36" class="node">
<title>Node36</title>
<g id="a_node36"><a xlink:title=" ">
<polygon fill="white" stroke="black" points="147,-357.5 147,-376.5 200,-376.5 200,-357.5 147,-357.5"/>
<text text-anchor="middle" x="173.5" y="-364.5" font-family="Fira Code" font-size="10.00">FILE *</text>
</a>
</g>
</g>
<!-- Node36&#45;&gt;Node35 -->
<g id="edge48" class="edge">
<title>Node36&#45;&gt;Node35</title>
<path fill="none" stroke="#9a32cd" stroke-dasharray="5,2" d="M210.21,-362.85C236.7,-359.65 273.66,-354.96 306,-350 317.76,-348.19 330.64,-345.97 341.96,-343.93"/>
<polygon fill="#9a32cd" stroke="#9a32cd" points="209.77,-359.38 200.25,-364.04 210.6,-366.33 209.77,-359.38"/>
<text text-anchor="middle" x="278.5" y="-361" font-family="Fira Code" font-size="10.00"> file</text>
</g>
</g>
</svg>
        <g id="navigator" transform="translate(0 0)" fill="#404254">
                <rect fill="#f2f5e9" fill-opacity="0.5" stroke="#606060" stroke-width=".5" x="0" y="0" width="60" height="60"/>
                <use id="zoomplus" xlink:href="#zoomPlus" x="17" y="9" onmousedown="handleZoom(evt,'in')"/>
                <use id="zoomminus" xlink:href="#zoomMin" x="42" y="9" onmousedown="handleZoom(evt,'out')"/>
                <use id="reset" xlink:href="#resetDef" x="30" y="36" onmousedown="handleReset()"/>
                <g id="arrowUp" xlink:href="#dirArrow" transform="translate(30 24)" onmousedown="handlePan(0,-1)">
                  <use xlink:href="#rim" fill="#404040">
                        <set attributeName="fill" to="#808080" begin="arrowUp.mouseover" end="arrowUp.mouseout"/>
                  </use>
                  <path fill="none" stroke="white" stroke-width="1.5" d="M0,-3.0v7 M-2.5,-0.5L0,-3.0L2.5,-0.5"/>
                </g>
                <g id="arrowRight" xlink:href="#dirArrow" transform="rotate(90) translate(36 -43)" onmousedown="handlePan(1,0)">
                  <use xlink:href="#rim" fill="#404040">
                        <set attributeName="fill" to="#808080" begin="arrowRight.mouseover" end="arrowRight.mouseout"/>
                  </use>
                  <path fill="none" stroke="white" stroke-width="1.5" d="M0,-3.0v7 M-2.5,-0.5L0,-3.0L2.5,-0.5"/>
                </g>
                <g id="arrowDown" xlink:href="#dirArrow" transform="rotate(180) translate(-30 -48)" onmousedown="handlePan(0,1)">
                  <use xlink:href="#rim" fill="#404040">
                        <set attributeName="fill" to="#808080" begin="arrowDown.mouseover" end="arrowDown.mouseout"/>
                  </use>
                  <path fill="none" stroke="white" stroke-width="1.5" d="M0,-3.0v7 M-2.5,-0.5L0,-3.0L2.5,-0.5"/>
                </g>
                <g id="arrowLeft" xlink:href="#dirArrow" transform="rotate(270) translate(-36 17)" onmousedown="handlePan(-1,0)">
                  <use xlink:href="#rim" fill="#404040">
                        <set attributeName="fill" to="#808080" begin="arrowLeft.mouseover" end="arrowLeft.mouseout"/>
                  </use>
                  <path fill="none" stroke="white" stroke-width="1.5" d="M0,-3.0v7 M-2.5,-0.5L0,-3.0L2.5,-0.5"/>
                </g>
        </g>
        <svg viewBox="0 0 15 15" width="100%" height="30px" preserveAspectRatio="xMaxYMin meet">
         <g id="arrow_out" transform="scale(0.3 0.3)">
          <a xlink:href="struct_host_context__coll__graph_org.svg" target="_base">
           <rect id="button" ry="5" rx="5" y="6" x="6" height="38" width="38"
                fill="#f2f5e9" fill-opacity="0.5" stroke="#606060" stroke-width="1.0"/>
           <path id="arrow"
             d="M 11.500037,31.436501 C 11.940474,20.09759 22.043105,11.32322 32.158766,21.979434 L 37.068811,17.246167 C 37.068811,17.246167 37.088388,32 37.088388,32 L 22.160133,31.978069 C 22.160133,31.978069 26.997745,27.140456 26.997745,27.140456 C 18.528582,18.264221 13.291696,25.230495 11.500037,31.436501 z"
             style="fill:#404040;"/>
          </a>
         </g>
        </svg>
</svg>
