<?xml version="1.0" encoding="UTF-8" standalone="no"?>
<!DOCTYPE svg PUBLIC "-//W3C//DTD SVG 1.1//EN"
 "http://www.w3.org/Graphics/SVG/1.1/DTD/svg11.dtd">
<!-- Generated by graphviz version 3.0.0 (20220226.1711)
 -->
<!-- Title: InputContext Pages: 1 -->
<!--zoomable 743 -->
<svg id="main" version="1.1" xmlns="http://www.w3.org/2000/svg" xmlns:xlink="http://www.w3.org/1999/xlink" xml:space="preserve" onload="init(evt)">
<style type="text/css"><![CDATA[
.edge:hover path { stroke: red; }
.edge:hover polygon { stroke: red; fill: red; }
]]></style>
<script type="text/javascript"><![CDATA[
var edges = document.getElementsByTagName('g');
if (edges && edges.length) {
  for (var i=0;i<edges.length;i++) {
    if (edges[i].id.substr(0,4)=='edge') {
      edges[i].setAttribute('class','edge');
    }
  }
}
]]></script>
        <defs>
                <circle id="rim" cx="0" cy="0" r="7"/>
                <circle id="rim2" cx="0" cy="0" r="3.5"/>
                <g id="zoomPlus">
                        <use xlink:href="#rim" fill="#404040">
                                <set attributeName="fill" to="#808080" begin="zoomplus.mouseover" end="zoomplus.mouseout"/>
                        </use>
                        <path d="M-4,0h8M0,-4v8" fill="none" stroke="white" stroke-width="1.5" pointer-events="none"/>
                </g>
                <g id="zoomMin">
                        <use xlink:href="#rim" fill="#404040">
                                <set attributeName="fill" to="#808080" begin="zoomminus.mouseover" end="zoomminus.mouseout"/>
                        </use>
                        <path d="M-4,0h8" fill="none" stroke="white" stroke-width="1.5" pointer-events="none"/>
                </g>
                <g id="dirArrow">
                        <path fill="none" stroke="white" stroke-width="1.5" d="M0,-3.0v7 M-2.5,-0.5L0,-3.0L2.5,-0.5"/>
                </g>
               <g id="resetDef">
                       <use xlink:href="#rim2" fill="#404040">
                               <set attributeName="fill" to="#808080" begin="reset.mouseover" end="reset.mouseout"/>
                       </use>
               </g>
        </defs>

<script type="text/javascript">
var viewWidth = 1523;
var viewHeight = 743;
var sectionId = 'dynsection-0';
</script>
<script xlink:href="svgpan.js"/>
<svg id="graph" class="graph">
<g id="viewport">
<title>InputContext</title>
<polygon fill="white" stroke="transparent" points="-4,4 -4,-739 1519,-739 1519,4 -4,4"/>
<!-- Node1 -->
<g id="node1" class="node">
<title>Node1</title>
<g id="a_node1"><a xlink:title="Represents the complete state of all input devices and all buffered inputs.">
<polygon fill="#bfbfbf" stroke="black" points="516,-458.5 516,-477.5 605,-477.5 605,-458.5 516,-458.5"/>
<text text-anchor="middle" x="560.5" y="-465.5" font-family="Fira Code" font-size="10.00">InputContext</text>
</a>
</g>
</g>
<!-- Node6 -->
<g id="node6" class="node">
<title>Node6</title>
<g id="a_node6"><a xlink:href="struct_context.html" target="_top" xlink:title="The plugin context is a persistent state representing the entire application to the game plugin acros...">
<polygon fill="white" stroke="black" points="748,-258.5 748,-277.5 807,-277.5 807,-258.5 748,-258.5"/>
<text text-anchor="middle" x="777.5" y="-265.5" font-family="Fira Code" font-size="10.00">Context</text>
</a>
</g>
</g>
<!-- Node1&#45;&gt;Node6 -->
<g id="edge31" class="edge">
<title>Node1&#45;&gt;Node6</title>
<path fill="none" stroke="#9a32cd" stroke-dasharray="5,2" d="M615.12,-461.3C640.71,-455.35 669.67,-444.15 688,-423 714.44,-392.51 686.34,-369.24 706,-334 719.64,-309.55 745.49,-288.91 761.81,-277.52"/>
<polygon fill="#9a32cd" stroke="#9a32cd" points="614.2,-457.91 605.14,-463.4 615.65,-464.76 614.2,-457.91"/>
<text text-anchor="middle" x="655.5" y="-462" font-family="Fira Code" font-size="10.00"> input</text>
</g>
<!-- Node2 -->
<g id="node2" class="node">
<title>Node2</title>
<g id="a_node2"><a xlink:href="struct_action_binding.html" target="_top" xlink:title="Closes over the callback for an input binding to a particular type of input device,...">
<polygon fill="white" stroke="black" points="1420,-529.5 1420,-548.5 1515,-548.5 1515,-529.5 1420,-529.5"/>
<text text-anchor="middle" x="1467.5" y="-536.5" font-family="Fira Code" font-size="10.00">ActionBinding</text>
</a>
</g>
</g>
<!-- Node2&#45;&gt;Node1 -->
<g id="edge1" class="edge">
<title>Node2&#45;&gt;Node1</title>
<path fill="none" stroke="#9a32cd" stroke-dasharray="5,2" d="M1447.59,-555.04C1435.27,-564.83 1418.47,-576.96 1402,-585 1364.09,-603.5 1351.92,-601.73 1311,-612 1155.04,-651.16 1107.11,-699.4 952,-657 820.54,-621.06 813.82,-553.37 688,-501 661.39,-489.92 630.05,-481.71 605.22,-476.26"/>
<polygon fill="#9a32cd" stroke="#9a32cd" points="1449.81,-557.75 1455.35,-548.72 1445.39,-552.32 1449.81,-557.75"/>
<text text-anchor="middle" x="1011.5" y="-687" font-family="Fira Code" font-size="10.00"> keybinds</text>
<text text-anchor="middle" x="1011.5" y="-676" font-family="Fira Code" font-size="10.00">mousebinds</text>
</g>
<!-- Node3 -->
<g id="node3" class="node">
<title>Node3</title>
<g id="a_node3"><a xlink:href="struct_input_action.html" target="_top" xlink:title="An input action is triggered by a button binding and may respond to either activation or deactivation...">
<polygon fill="white" stroke="black" points="1201,-258.5 1201,-277.5 1284,-277.5 1284,-258.5 1201,-258.5"/>
<text text-anchor="middle" x="1242.5" y="-265.5" font-family="Fira Code" font-size="10.00">InputAction</text>
</a>
</g>
</g>
<!-- Node3&#45;&gt;Node2 -->
<g id="edge2" class="edge">
<title>Node3&#45;&gt;Node2</title>
<path fill="none" stroke="#9a32cd" stroke-dasharray="5,2" d="M1294.04,-278.11C1337.39,-287.21 1394.11,-300.3 1402,-308 1466.98,-371.37 1468.07,-494.33 1466.95,-529.43"/>
<polygon fill="#9a32cd" stroke="#9a32cd" points="1294.68,-274.67 1284.18,-276.06 1293.26,-281.52 1294.68,-274.67"/>
<text text-anchor="middle" x="1365.5" y="-311" font-family="Fira Code" font-size="10.00"> action</text>
</g>
<!-- Node5 -->
<g id="node5" class="node">
<title>Node5</title>
<g id="a_node5"><a xlink:href="struct_input_action_args.html" target="_top" xlink:title="Arguments to an input action callback.">
<polygon fill="white" stroke="black" points="958,-275.5 958,-294.5 1065,-294.5 1065,-275.5 958,-275.5"/>
<text text-anchor="middle" x="1011.5" y="-282.5" font-family="Fira Code" font-size="10.00">InputActionArgs</text>
</a>
</g>
</g>
<!-- Node3&#45;&gt;Node5 -->
<g id="edge32" class="edge">
<title>Node3&#45;&gt;Node5</title>
<path fill="none" stroke="#9a32cd" stroke-dasharray="5,2" d="M1190.75,-264.58C1161.01,-263.34 1122.76,-263.08 1089,-267 1074.63,-268.67 1059.05,-272.04 1045.72,-275.42"/>
<polygon fill="#9a32cd" stroke="#9a32cd" points="1190.75,-268.08 1200.9,-265.05 1191.07,-261.09 1190.75,-268.08"/>
<text text-anchor="middle" x="1122.5" y="-270" font-family="Fira Code" font-size="10.00"> action</text>
</g>
<!-- Node7 -->
<g id="node7" class="node">
<title>Node7</title>
<g id="a_node7"><a xlink:href="struct_host_context.html" target="_top" xlink:title="Provides the plugin with an interface to the host for platform and application&#45;level operations.">
<polygon fill="white" stroke="black" points="1426,-258.5 1426,-277.5 1509,-277.5 1509,-258.5 1426,-258.5"/>
<text text-anchor="middle" x="1467.5" y="-265.5" font-family="Fira Code" font-size="10.00">HostContext</text>
</a>
</g>
</g>
<!-- Node3&#45;&gt;Node7 -->
<g id="edge7" class="edge">
<title>Node3&#45;&gt;Node7</title>
<path fill="none" stroke="#9a32cd" stroke-dasharray="5,2" d="M1294.18,-268C1334.01,-268 1388.75,-268 1425.76,-268"/>
<polygon fill="#9a32cd" stroke="#9a32cd" points="1294.14,-264.5 1284.14,-268 1294.14,-271.5 1294.14,-264.5"/>
<text text-anchor="middle" x="1365.5" y="-271" font-family="Fira Code" font-size="10.00"> quitAction</text>
</g>
<!-- Node12 -->
<g id="node12" class="node">
<title>Node12</title>
<g id="a_node12"><a xlink:href="struct_sdl_context.html" target="_top" xlink:title="Parent node of the entire SDL state.">
<polygon fill="white" stroke="black" points="1429,-95.5 1429,-114.5 1506,-114.5 1506,-95.5 1429,-95.5"/>
<text text-anchor="middle" x="1467.5" y="-102.5" font-family="Fira Code" font-size="10.00">SdlContext</text>
</a>
</g>
</g>
<!-- Node3&#45;&gt;Node12 -->
<g id="edge20" class="edge">
<title>Node3&#45;&gt;Node12</title>
<path fill="none" stroke="#9a32cd" stroke-dasharray="5,2" d="M1270.92,-253.36C1303.52,-235.4 1358.95,-203.1 1402,-169 1423.76,-151.76 1446.09,-127.98 1457.92,-114.79"/>
<polygon fill="#9a32cd" stroke="#9a32cd" points="1269.06,-250.38 1261.96,-258.25 1272.42,-256.53 1269.06,-250.38"/>
<text text-anchor="middle" x="1365.5" y="-222" font-family="Fira Code" font-size="10.00"> clickAction</text>
</g>
<!-- Node4 -->
<g id="node4" class="node">
<title>Node4</title>
<g id="a_node4"><a xlink:title=" ">
<polygon fill="white" stroke="black" points="985,-228.5 985,-247.5 1038,-247.5 1038,-228.5 985,-228.5"/>
<text text-anchor="middle" x="1011.5" y="-235.5" font-family="Fira Code" font-size="10.00">char *</text>
</a>
</g>
</g>
<!-- Node4&#45;&gt;Node3 -->
<g id="edge3" class="edge">
<title>Node4&#45;&gt;Node3</title>
<path fill="none" stroke="#9a32cd" stroke-dasharray="5,2" d="M1048.13,-239.32C1077.26,-240.74 1119.46,-243.57 1156,-249 1171.79,-251.35 1189.01,-254.97 1203.83,-258.42"/>
<polygon fill="#9a32cd" stroke="#9a32cd" points="1048.17,-235.82 1038.03,-238.86 1047.86,-242.81 1048.17,-235.82"/>
<text text-anchor="middle" x="1122.5" y="-252" font-family="Fira Code" font-size="10.00"> name</text>
</g>
<!-- Node5&#45;&gt;Node3 -->
<g id="edge4" class="edge">
<title>Node5&#45;&gt;Node3</title>
<path fill="none" stroke="#9a32cd" stroke-dasharray="5,2" d="M1075.21,-284.24C1100.36,-283.56 1129.59,-282.31 1156,-280 1170.63,-278.72 1186.59,-276.66 1200.72,-274.61"/>
<polygon fill="#9a32cd" stroke="#9a32cd" points="1074.97,-280.74 1065.06,-284.49 1075.14,-287.74 1074.97,-280.74"/>
<text text-anchor="middle" x="1122.5" y="-287" font-family="Fira Code" font-size="10.00"> on_action</text>
</g>
<!-- Node6&#45;&gt;Node5 -->
<g id="edge5" class="edge">
<title>Node6&#45;&gt;Node5</title>
<path fill="none" stroke="#9a32cd" stroke-dasharray="5,2" d="M817.69,-270.87C856.18,-273.69 915.15,-278.01 957.74,-281.13"/>
<polygon fill="#9a32cd" stroke="#9a32cd" points="817.64,-267.36 807.41,-270.12 817.13,-274.34 817.64,-267.36"/>
<text text-anchor="middle" x="900.5" y="-283" font-family="Fira Code" font-size="10.00"> ctx</text>
</g>
<!-- Node7&#45;&gt;Node6 -->
<g id="edge6" class="edge">
<title>Node7&#45;&gt;Node6</title>
<path fill="none" stroke="#9a32cd" stroke-dasharray="5,2" d="M1452.11,-250.7C1440.21,-237.82 1422.04,-221.28 1402,-214 1308.01,-179.85 1050.97,-204.62 952,-219 898.26,-226.81 837.67,-246.54 804.2,-258.45"/>
<polygon fill="#9a32cd" stroke="#9a32cd" points="1449.75,-253.31 1458.99,-258.49 1455,-248.67 1449.75,-253.31"/>
<text text-anchor="middle" x="1122.5" y="-207" font-family="Fira Code" font-size="10.00"> host</text>
</g>
<!-- Node8 -->
<g id="node8" class="node">
<title>Node8</title>
<g id="a_node8"><a xlink:href="struct_log_state.html" target="_top" xlink:title="Used to persist the log output streams between hot&#45;reloads.">
<polygon fill="white" stroke="black" points="1210,-339.5 1210,-358.5 1275,-358.5 1275,-339.5 1210,-339.5"/>
<text text-anchor="middle" x="1242.5" y="-346.5" font-family="Fira Code" font-size="10.00">LogState</text>
</a>
</g>
</g>
<!-- Node8&#45;&gt;Node7 -->
<g id="edge8" class="edge">
<title>Node8&#45;&gt;Node7</title>
<path fill="none" stroke="#9a32cd" stroke-dasharray="5,2" d="M1285.26,-348.24C1318.31,-346.23 1364.91,-340.21 1402,-323 1425.5,-312.1 1447.17,-290.19 1458.42,-277.56"/>
<polygon fill="#9a32cd" stroke="#9a32cd" points="1284.84,-344.76 1275.04,-348.76 1285.2,-351.75 1284.84,-344.76"/>
<text text-anchor="middle" x="1365.5" y="-347" font-family="Fira Code" font-size="10.00"> log</text>
</g>
<!-- Node9 -->
<g id="node9" class="node">
<title>Node9</title>
<g id="a_node9"><a xlink:title=" ">
<polygon fill="white" stroke="black" points="156,-398.5 156,-417.5 191,-417.5 191,-398.5 156,-398.5"/>
<text text-anchor="middle" x="173.5" y="-405.5" font-family="Fira Code" font-size="10.00">int</text>
</a>
</g>
</g>
<!-- Node9&#45;&gt;Node8 -->
<g id="edge9" class="edge">
<title>Node9&#45;&gt;Node8</title>
<path fill="none" stroke="#9a32cd" stroke-dasharray="5,2" d="M201.39,-408C238.21,-408 306.36,-408 364.5,-408 364.5,-408 364.5,-408 901.5,-408 905.38,-408 1126.35,-369.24 1209.93,-354.55"/>
<polygon fill="#9a32cd" stroke="#9a32cd" points="201.02,-404.5 191.02,-408 201.02,-411.5 201.02,-404.5"/>
<text text-anchor="middle" x="655.5" y="-411" font-family="Fira Code" font-size="10.00"> level</text>
</g>
<!-- Node16 -->
<g id="node16" class="node">
<title>Node16</title>
<g id="a_node16"><a xlink:href="struct_text.html" target="_top" xlink:title="Represents a texture generated by rendering text in a TTF font.">
<polygon fill="white" stroke="black" points="345,-125.5 345,-144.5 386,-144.5 386,-125.5 345,-125.5"/>
<text text-anchor="middle" x="365.5" y="-132.5" font-family="Fira Code" font-size="10.00">Text</text>
</a>
</g>
</g>
<!-- Node9&#45;&gt;Node16 -->
<g id="edge19" class="edge">
<title>Node9&#45;&gt;Node16</title>
<path fill="none" stroke="#9a32cd" stroke-dasharray="5,2" d="M200.45,-397.81C211.21,-392.82 223.39,-386.13 233,-378 271.06,-345.79 275.65,-331.52 300,-288 310.52,-269.2 309.74,-262.89 318,-243 333.11,-206.61 351.87,-163.71 360.18,-144.79"/>
<polygon fill="#9a32cd" stroke="#9a32cd" points="198.85,-394.69 191.09,-401.89 201.66,-401.1 198.85,-394.69"/>
<text text-anchor="middle" x="275.5" y="-375" font-family="Fira Code" font-size="10.00"> height</text>
<text text-anchor="middle" x="275.5" y="-364" font-family="Fira Code" font-size="10.00">width</text>
</g>
<!-- Node36 -->
<g id="node36" class="node">
<title>Node36</title>
<g id="a_node36"><a xlink:href="struct_mouse_axes.html" target="_top" xlink:title="Represents the mouse state.">
<polygon fill="white" stroke="black" points="330,-437.5 330,-456.5 401,-456.5 401,-437.5 330,-437.5"/>
<text text-anchor="middle" x="365.5" y="-444.5" font-family="Fira Code" font-size="10.00">MouseAxes</text>
</a>
</g>
</g>
<!-- Node9&#45;&gt;Node36 -->
<g id="edge47" class="edge">
<title>Node9&#45;&gt;Node36</title>
<path fill="none" stroke="#9a32cd" stroke-dasharray="5,2" d="M201.02,-413.44C234.6,-420.34 292.56,-432.23 329.68,-439.85"/>
<polygon fill="#9a32cd" stroke="#9a32cd" points="201.53,-409.98 191.03,-411.39 200.12,-416.83 201.53,-409.98"/>
<text text-anchor="middle" x="275.5" y="-458" font-family="Fira Code" font-size="10.00"> scroll</text>
<text text-anchor="middle" x="275.5" y="-447" font-family="Fira Code" font-size="10.00">x</text>
<text text-anchor="middle" x="275.5" y="-436" font-family="Fira Code" font-size="10.00">y</text>
</g>
<!-- Node10 -->
<g id="node10" class="node">
<title>Node10</title>
<g id="a_node10"><a xlink:title=" ">
<polygon fill="white" stroke="black" points="991,-464.5 991,-483.5 1032,-483.5 1032,-464.5 991,-464.5"/>
<text text-anchor="middle" x="1011.5" y="-471.5" font-family="Fira Code" font-size="10.00">bool</text>
</a>
</g>
</g>
<!-- Node10&#45;&gt;Node8 -->
<g id="edge10" class="edge">
<title>Node10&#45;&gt;Node8</title>
<path fill="none" stroke="#9a32cd" stroke-dasharray="5,2" d="M1041.98,-469.32C1078.1,-463.24 1136.86,-452.06 1156,-441 1192.81,-419.72 1223.15,-377.48 1235.52,-358.56"/>
<polygon fill="#9a32cd" stroke="#9a32cd" points="1041.3,-465.89 1032,-470.97 1042.44,-472.8 1041.3,-465.89"/>
<text text-anchor="middle" x="1122.5" y="-463" font-family="Fira Code" font-size="10.00"> quiet</text>
</g>
<!-- Node19 -->
<g id="node19" class="node">
<title>Node19</title>
<g id="a_node19"><a xlink:href="struct_sdl_mouse_cursor.html" target="_top" xlink:title="Represents the mouse cursor state.">
<polygon fill="white" stroke="black" points="1192,-152.5 1192,-171.5 1293,-171.5 1293,-152.5 1192,-152.5"/>
<text text-anchor="middle" x="1242.5" y="-159.5" font-family="Fira Code" font-size="10.00">SdlMouseCursor</text>
</a>
</g>
</g>
<!-- Node10&#45;&gt;Node19 -->
<g id="edge23" class="edge">
<title>Node10&#45;&gt;Node19</title>
<path fill="none" stroke="#9a32cd" stroke-dasharray="5,2" d="M1027.74,-456.41C1042.53,-439.86 1066.04,-414.87 1089,-396 1116.52,-373.38 1136.44,-381.77 1156,-352 1181.52,-313.16 1155.2,-291.5 1174,-249 1188.07,-217.18 1216.25,-186.63 1231.37,-171.63"/>
<polygon fill="#9a32cd" stroke="#9a32cd" points="1024.84,-454.41 1020.85,-464.22 1030.09,-459.04 1024.84,-454.41"/>
<text text-anchor="middle" x="1122.5" y="-399" font-family="Fira Code" font-size="10.00"> visible</text>
</g>
<!-- Node29 -->
<g id="node29" class="node">
<title>Node29</title>
<g id="a_node29"><a xlink:href="struct_keybind.html" target="_top" xlink:title="Represents a keyboard key combination the state of which is being tracked by an action.">
<polygon fill="white" stroke="black" points="1213,-583.5 1213,-602.5 1272,-602.5 1272,-583.5 1213,-583.5"/>
<text text-anchor="middle" x="1242.5" y="-590.5" font-family="Fira Code" font-size="10.00">Keybind</text>
</a>
</g>
</g>
<!-- Node10&#45;&gt;Node29 -->
<g id="edge39" class="edge">
<title>Node10&#45;&gt;Node29</title>
<path fill="none" stroke="#9a32cd" stroke-dasharray="5,2" d="M1040.12,-488.38C1072.28,-505.12 1126.98,-533.58 1174,-558 1190.64,-566.64 1209.58,-576.46 1223.16,-583.5"/>
<polygon fill="#9a32cd" stroke="#9a32cd" points="1041.39,-485.09 1030.9,-483.58 1038.16,-491.3 1041.39,-485.09"/>
<text text-anchor="middle" x="1122.5" y="-549" font-family="Fira Code" font-size="10.00"> state</text>
</g>
<!-- Node32 -->
<g id="node32" class="node">
<title>Node32</title>
<g id="a_node32"><a xlink:href="struct_mousebind.html" target="_top" xlink:title="Represents a mouse button combination the state of which is being tracked by an action.">
<polygon fill="white" stroke="black" points="1207,-529.5 1207,-548.5 1278,-548.5 1278,-529.5 1207,-529.5"/>
<text text-anchor="middle" x="1242.5" y="-536.5" font-family="Fira Code" font-size="10.00">Mousebind</text>
</a>
</g>
</g>
<!-- Node10&#45;&gt;Node32 -->
<g id="edge43" class="edge">
<title>Node10&#45;&gt;Node32</title>
<path fill="none" stroke="#9a32cd" stroke-dasharray="5,2" d="M1042.07,-473.03C1072.59,-473.32 1120.62,-477.49 1156,-498 1166.93,-504.34 1163.43,-513.08 1174,-520 1183.78,-526.4 1195.71,-530.67 1206.82,-533.51"/>
<polygon fill="#9a32cd" stroke="#9a32cd" points="1042.04,-469.53 1032.05,-473.07 1042.06,-476.53 1042.04,-469.53"/>
<text text-anchor="middle" x="1122.5" y="-501" font-family="Fira Code" font-size="10.00"> state</text>
</g>
<!-- Node11 -->
<g id="node11" class="node">
<title>Node11</title>
<g id="a_node11"><a xlink:title=" ">
<polygon fill="white" stroke="black" points="985,-322.5 985,-341.5 1038,-341.5 1038,-322.5 985,-322.5"/>
<text text-anchor="middle" x="1011.5" y="-329.5" font-family="Fira Code" font-size="10.00">FILE *</text>
</a>
</g>
</g>
<!-- Node11&#45;&gt;Node8 -->
<g id="edge11" class="edge">
<title>Node11&#45;&gt;Node8</title>
<path fill="none" stroke="#9a32cd" stroke-dasharray="5,2" d="M1048.3,-332.21C1077.37,-332.63 1119.4,-333.8 1156,-337 1173.92,-338.57 1193.83,-341.3 1209.92,-343.76"/>
<polygon fill="#9a32cd" stroke="#9a32cd" points="1048.25,-328.71 1038.21,-332.09 1048.17,-335.71 1048.25,-328.71"/>
<text text-anchor="middle" x="1122.5" y="-340" font-family="Fira Code" font-size="10.00"> file</text>
</g>
<!-- Node12&#45;&gt;Node6 -->
<g id="edge12" class="edge">
<title>Node12&#45;&gt;Node6</title>
<path fill="none" stroke="#9a32cd" stroke-dasharray="5,2" d="M1418.86,-108.72C1413.18,-109.15 1407.46,-109.59 1402,-110 1202.03,-125.08 1140.46,-74.47 952,-143 880.48,-169.01 812.25,-233.52 787.9,-258.19"/>
<polygon fill="#9a32cd" stroke="#9a32cd" points="1419.28,-112.19 1428.98,-107.93 1418.75,-105.21 1419.28,-112.19"/>
<text text-anchor="middle" x="1122.5" y="-112" font-family="Fira Code" font-size="10.00"> sdl</text>
</g>
<!-- Node13 -->
<g id="node13" class="node">
<title>Node13</title>
<g id="a_node13"><a xlink:title=" ">
<polygon fill="white" stroke="black" points="1198,-76.5 1198,-95.5 1287,-95.5 1287,-76.5 1198,-76.5"/>
<text text-anchor="middle" x="1242.5" y="-83.5" font-family="Fira Code" font-size="10.00">SDL_Window *</text>
</a>
</g>
</g>
<!-- Node13&#45;&gt;Node12 -->
<g id="edge13" class="edge">
<title>Node13&#45;&gt;Node12</title>
<path fill="none" stroke="#9a32cd" stroke-dasharray="5,2" d="M1297.3,-90.27C1327.99,-92.74 1367.16,-95.95 1402,-99 1410.74,-99.76 1420.14,-100.62 1428.99,-101.44"/>
<polygon fill="#9a32cd" stroke="#9a32cd" points="1297.49,-86.77 1287.24,-89.46 1296.93,-93.75 1297.49,-86.77"/>
<text text-anchor="middle" x="1365.5" y="-102" font-family="Fira Code" font-size="10.00"> window</text>
</g>
<!-- Node14 -->
<g id="node14" class="node">
<title>Node14</title>
<g id="a_node14"><a xlink:title=" ">
<polygon fill="white" stroke="black" points="1192,-0.5 1192,-19.5 1293,-19.5 1293,-0.5 1192,-0.5"/>
<text text-anchor="middle" x="1242.5" y="-7.5" font-family="Fira Code" font-size="10.00">SDL_Renderer *</text>
</a>
</g>
</g>
<!-- Node14&#45;&gt;Node12 -->
<g id="edge14" class="edge">
<title>Node14&#45;&gt;Node12</title>
<path fill="none" stroke="#9a32cd" stroke-dasharray="5,2" d="M1303.44,-3.86C1334.55,-3.32 1372.17,-6.97 1402,-23 1432.63,-39.46 1453.6,-77.36 1462.17,-95.27"/>
<polygon fill="#9a32cd" stroke="#9a32cd" points="1303.05,-0.37 1293.17,-4.19 1303.27,-7.37 1303.05,-0.37"/>
<text text-anchor="middle" x="1365.5" y="-26" font-family="Fira Code" font-size="10.00"> renderer</text>
</g>
<!-- Node15 -->
<g id="node15" class="node">
<title>Node15</title>
<g id="a_node15"><a xlink:href="struct_font_book.html" target="_top" xlink:title=" ">
<polygon fill="white" stroke="black" points="623,-45.5 623,-64.5 688,-64.5 688,-45.5 623,-45.5"/>
<text text-anchor="middle" x="655.5" y="-52.5" font-family="Fira Code" font-size="10.00">FontBook</text>
</a>
</g>
</g>
<!-- Node15&#45;&gt;Node12 -->
<g id="edge15" class="edge">
<title>Node15&#45;&gt;Node12</title>
<path fill="none" stroke="#9a32cd" stroke-dasharray="5,2" d="M698.43,-53.06C746.86,-50.99 828.92,-48 899.5,-48 899.5,-48 899.5,-48 1243.5,-48 1319.22,-48 1405.03,-79.23 1444.5,-95.46"/>
<polygon fill="#9a32cd" stroke="#9a32cd" points="698.17,-49.57 688.33,-53.5 698.48,-56.56 698.17,-49.57"/>
<text text-anchor="middle" x="1011.5" y="-51" font-family="Fira Code" font-size="10.00"> fonts</text>
</g>
<!-- Node16&#45;&gt;Node15 -->
<g id="edge16" class="edge">
<title>Node16&#45;&gt;Node15</title>
<path fill="none" stroke="#9a32cd" stroke-dasharray="5,2" d="M396.04,-126.8C450.54,-111.65 566.5,-79.44 622.68,-63.84"/>
<polygon fill="#9a32cd" stroke="#9a32cd" points="394.99,-123.45 386.3,-129.5 396.87,-130.2 394.99,-123.45"/>
<text text-anchor="middle" x="464.5" y="-120" font-family="Fira Code" font-size="10.00"> fpsFont</text>
</g>
<!-- Node17 -->
<g id="node17" class="node">
<title>Node17</title>
<g id="a_node17"><a xlink:title=" ">
<polygon fill="white" stroke="black" points="135,-102.5 135,-121.5 212,-121.5 212,-102.5 135,-102.5"/>
<text text-anchor="middle" x="173.5" y="-109.5" font-family="Fira Code" font-size="10.00">TTF_Font *</text>
</a>
</g>
</g>
<!-- Node17&#45;&gt;Node16 -->
<g id="edge17" class="edge">
<title>Node17&#45;&gt;Node16</title>
<path fill="none" stroke="#9a32cd" stroke-dasharray="5,2" d="M222.19,-117.01C245.65,-119.55 274.32,-122.78 300,-126 315.03,-127.89 332,-130.26 344.76,-132.1"/>
<polygon fill="#9a32cd" stroke="#9a32cd" points="222.47,-113.52 212.15,-115.93 221.72,-120.48 222.47,-113.52"/>
<text text-anchor="middle" x="275.5" y="-129" font-family="Fira Code" font-size="10.00"> font</text>
</g>
<!-- Node18 -->
<g id="node18" class="node">
<title>Node18</title>
<g id="a_node18"><a xlink:title=" ">
<polygon fill="white" stroke="black" points="126,-140.5 126,-159.5 221,-159.5 221,-140.5 126,-140.5"/>
<text text-anchor="middle" x="173.5" y="-147.5" font-family="Fira Code" font-size="10.00">SDL_Texture *</text>
</a>
</g>
</g>
<!-- Node18&#45;&gt;Node16 -->
<g id="edge18" class="edge">
<title>Node18&#45;&gt;Node16</title>
<path fill="none" stroke="#9a32cd" stroke-dasharray="5,2" d="M231.48,-145.5C269.82,-142.47 318.04,-138.67 344.63,-136.57"/>
<polygon fill="#9a32cd" stroke="#9a32cd" points="231.16,-142.02 221.47,-146.29 231.71,-148.99 231.16,-142.02"/>
<text text-anchor="middle" x="275.5" y="-147" font-family="Fira Code" font-size="10.00"> tex</text>
</g>
<!-- Node19&#45;&gt;Node12 -->
<g id="edge21" class="edge">
<title>Node19&#45;&gt;Node12</title>
<path fill="none" stroke="#9a32cd" stroke-dasharray="5,2" d="M1303.25,-156.92C1333.37,-153.27 1370.16,-147.14 1402,-137 1419.39,-131.46 1437.92,-121.83 1450.64,-114.58"/>
<polygon fill="#9a32cd" stroke="#9a32cd" points="1302.84,-153.44 1293.3,-158.06 1303.64,-160.4 1302.84,-153.44"/>
<text text-anchor="middle" x="1365.5" y="-157" font-family="Fira Code" font-size="10.00"> mouseCursor</text>
</g>
<!-- Node20 -->
<g id="node20" class="node">
<title>Node20</title>
<g id="a_node20"><a xlink:title=" ">
<polygon fill="white" stroke="black" points="976,-152.5 976,-171.5 1047,-171.5 1047,-152.5 976,-152.5"/>
<text text-anchor="middle" x="1011.5" y="-159.5" font-family="Fira Code" font-size="10.00">SDL_Color</text>
</a>
</g>
</g>
<!-- Node20&#45;&gt;Node19 -->
<g id="edge22" class="edge">
<title>Node20&#45;&gt;Node19</title>
<path fill="none" stroke="#9a32cd" stroke-dasharray="5,2" d="M1057.72,-162C1096.41,-162 1152.02,-162 1191.93,-162"/>
<polygon fill="#9a32cd" stroke="#9a32cd" points="1057.28,-158.5 1047.28,-162 1057.28,-165.5 1057.28,-158.5"/>
<text text-anchor="middle" x="1122.5" y="-165" font-family="Fira Code" font-size="10.00"> color</text>
</g>
<!-- Node21 -->
<g id="node21" class="node">
<title>Node21</title>
<g id="a_node21"><a xlink:href="struct_game_context.html" target="_top" xlink:title="Parent node of the entire game state.">
<polygon fill="white" stroke="black" points="519,-258.5 519,-277.5 602,-277.5 602,-258.5 519,-258.5"/>
<text text-anchor="middle" x="560.5" y="-265.5" font-family="Fira Code" font-size="10.00">GameContext</text>
</a>
</g>
</g>
<!-- Node21&#45;&gt;Node6 -->
<g id="edge24" class="edge">
<title>Node21&#45;&gt;Node6</title>
<path fill="none" stroke="#9a32cd" stroke-dasharray="5,2" d="M612.31,-268C654.66,-268 713.46,-268 747.99,-268"/>
<polygon fill="#9a32cd" stroke="#9a32cd" points="612.19,-264.5 602.19,-268 612.19,-271.5 612.19,-264.5"/>
<text text-anchor="middle" x="655.5" y="-271" font-family="Fira Code" font-size="10.00"> game</text>
</g>
<!-- Node22 -->
<g id="node22" class="node">
<title>Node22</title>
<g id="a_node22"><a xlink:href="struct_sim_clock.html" target="_top" xlink:title="Represents time inside the game world.">
<polygon fill="white" stroke="black" points="333,-252.5 333,-271.5 398,-271.5 398,-252.5 333,-252.5"/>
<text text-anchor="middle" x="365.5" y="-259.5" font-family="Fira Code" font-size="10.00">SimClock</text>
</a>
</g>
</g>
<!-- Node22&#45;&gt;Node21 -->
<g id="edge25" class="edge">
<title>Node22&#45;&gt;Node21</title>
<path fill="none" stroke="#9a32cd" stroke-dasharray="5,2" d="M408.53,-263.31C441.28,-264.32 486.46,-265.73 518.85,-266.74"/>
<polygon fill="#9a32cd" stroke="#9a32cd" points="408.47,-259.8 398.37,-262.99 408.26,-266.8 408.47,-259.8"/>
<text text-anchor="middle" x="464.5" y="-270" font-family="Fira Code" font-size="10.00"> clock</text>
</g>
<!-- Node23 -->
<g id="node23" class="node">
<title>Node23</title>
<g id="a_node23"><a xlink:href="struct_wall_clock.html" target="_top" xlink:title="Represents real outside&#45;world time.">
<polygon fill="white" stroke="black" points="138,-214.5 138,-233.5 209,-233.5 209,-214.5 138,-214.5"/>
<text text-anchor="middle" x="173.5" y="-221.5" font-family="Fira Code" font-size="10.00">WallClock</text>
</a>
</g>
</g>
<!-- Node23&#45;&gt;Node22 -->
<g id="edge26" class="edge">
<title>Node23&#45;&gt;Node22</title>
<path fill="none" stroke="#9a32cd" stroke-dasharray="5,2" d="M219.11,-231.65C243.13,-235.9 273.24,-241.44 300,-247 310.69,-249.22 322.33,-251.86 332.74,-254.3"/>
<polygon fill="#9a32cd" stroke="#9a32cd" points="219.67,-228.19 209.21,-229.91 218.45,-235.09 219.67,-228.19"/>
<text text-anchor="middle" x="275.5" y="-250" font-family="Fira Code" font-size="10.00"> real</text>
</g>
<!-- Node24 -->
<g id="node24" class="node">
<title>Node24</title>
<g id="a_node24"><a xlink:title=" ">
<polygon fill="white" stroke="black" points="0,-267.5 0,-286.5 65,-286.5 65,-267.5 0,-267.5"/>
<text text-anchor="middle" x="32.5" y="-274.5" font-family="Fira Code" font-size="10.00">uint64_t</text>
</a>
</g>
</g>
<!-- Node24&#45;&gt;Node22 -->
<g id="edge28" class="edge">
<title>Node24&#45;&gt;Node22</title>
<path fill="none" stroke="#9a32cd" stroke-dasharray="5,2" d="M75.03,-284.6C127.84,-292.93 221.58,-303.21 300,-288 301.11,-287.78 323.06,-278.9 341.05,-271.57"/>
<polygon fill="#9a32cd" stroke="#9a32cd" points="75.47,-281.13 65.03,-282.97 74.34,-288.04 75.47,-281.13"/>
<text text-anchor="middle" x="173.5" y="-354" font-family="Fira Code" font-size="10.00"> Dt</text>
<text text-anchor="middle" x="173.5" y="-343" font-family="Fira Code" font-size="10.00">period</text>
<text text-anchor="middle" x="173.5" y="-332" font-family="Fira Code" font-size="10.00">t</text>
<text text-anchor="middle" x="173.5" y="-321" font-family="Fira Code" font-size="10.00">tick</text>
<text text-anchor="middle" x="173.5" y="-310" font-family="Fira Code" font-size="10.00">tpsAccumNs</text>
<text text-anchor="middle" x="173.5" y="-299" font-family="Fira Code" font-size="10.00">tpsAccumTicks</text>
</g>
<!-- Node24&#45;&gt;Node23 -->
<g id="edge27" class="edge">
<title>Node24&#45;&gt;Node23</title>
<path fill="none" stroke="#9a32cd" stroke-dasharray="5,2" d="M64.1,-263.35C79.03,-256.87 97.32,-249.22 114,-243 122.81,-239.72 132.47,-236.45 141.36,-233.57"/>
<polygon fill="#9a32cd" stroke="#9a32cd" points="62.58,-260.19 54.83,-267.4 65.39,-266.6 62.58,-260.19"/>
<text text-anchor="middle" x="89.5" y="-269" font-family="Fira Code" font-size="10.00"> t</text>
<text text-anchor="middle" x="89.5" y="-258" font-family="Fira Code" font-size="10.00">t0</text>
</g>
<!-- Node25 -->
<g id="node25" class="node">
<title>Node25</title>
<g id="a_node25"><a xlink:title=" ">
<polygon fill="white" stroke="black" points="150,-252.5 150,-271.5 197,-271.5 197,-252.5 150,-252.5"/>
<text text-anchor="middle" x="173.5" y="-259.5" font-family="Fira Code" font-size="10.00">float</text>
</a>
</g>
</g>
<!-- Node25&#45;&gt;Node22 -->
<g id="edge29" class="edge">
<title>Node25&#45;&gt;Node22</title>
<path fill="none" stroke="#9a32cd" stroke-dasharray="5,2" d="M207.27,-262C242.48,-262 298.05,-262 332.83,-262"/>
<polygon fill="#9a32cd" stroke="#9a32cd" points="207.04,-258.5 197.04,-262 207.04,-265.5 207.04,-258.5"/>
<text text-anchor="middle" x="275.5" y="-276" font-family="Fira Code" font-size="10.00"> dt</text>
<text text-anchor="middle" x="275.5" y="-265" font-family="Fira Code" font-size="10.00">tps</text>
</g>
<!-- Node26 -->
<g id="node26" class="node">
<title>Node26</title>
<g id="a_node26"><a xlink:title=" ">
<polygon fill="white" stroke="black" points="318,-290.5 318,-309.5 413,-309.5 413,-290.5 318,-290.5"/>
<text text-anchor="middle" x="365.5" y="-297.5" font-family="Fira Code" font-size="10.00">volatile bool</text>
</a>
</g>
</g>
<!-- Node26&#45;&gt;Node21 -->
<g id="edge30" class="edge">
<title>Node26&#45;&gt;Node21</title>
<path fill="none" stroke="#9a32cd" stroke-dasharray="5,2" d="M423.34,-290.58C453.96,-285.5 491.05,-279.35 518.77,-274.75"/>
<polygon fill="#9a32cd" stroke="#9a32cd" points="422.51,-287.17 413.22,-292.25 423.66,-294.07 422.51,-287.17"/>
<text text-anchor="middle" x="464.5" y="-303" font-family="Fira Code" font-size="10.00"> paused</text>
<text text-anchor="middle" x="464.5" y="-292" font-family="Fira Code" font-size="10.00">running</text>
</g>
<!-- Node27 -->
<g id="node27" class="node">
<title>Node27</title>
<g id="a_node27"><a xlink:title=" ">
<polygon fill="white" stroke="black" points="706,-343.5 706,-362.5 849,-362.5 849,-343.5 706,-343.5"/>
<text text-anchor="middle" x="777.5" y="-350.5" font-family="Fira Code" font-size="10.00">enum SignalTransition</text>
</a>
</g>
</g>
<!-- Node27&#45;&gt;Node2 -->
<g id="edge34" class="edge">
<title>Node27&#45;&gt;Node2</title>
<path fill="none" stroke="#9a32cd" stroke-dasharray="5,2" d="M847.79,-364.23C923.93,-377.16 1049.57,-400.23 1156,-428 1267.24,-457.03 1295.28,-465.23 1402,-508 1417.91,-514.38 1435.41,-522.89 1448.17,-529.38"/>
<polygon fill="#9a32cd" stroke="#9a32cd" points="848.28,-360.77 837.84,-362.55 847.12,-367.67 848.28,-360.77"/>
<text text-anchor="middle" x="1122.5" y="-431" font-family="Fira Code" font-size="10.00"> transition</text>
</g>
<!-- Node27&#45;&gt;Node5 -->
<g id="edge33" class="edge">
<title>Node27&#45;&gt;Node5</title>
<path fill="none" stroke="#9a32cd" stroke-dasharray="5,2" d="M821.06,-340.53C866.31,-327.26 936.89,-306.57 977.92,-294.55"/>
<polygon fill="#9a32cd" stroke="#9a32cd" points="819.86,-337.23 811.25,-343.4 821.83,-343.95 819.86,-337.23"/>
<text text-anchor="middle" x="900.5" y="-329" font-family="Fira Code" font-size="10.00"> transition</text>
</g>
<!-- Node28 -->
<g id="node28" class="node">
<title>Node28</title>
<g id="a_node28"><a xlink:title=" ">
<polygon fill="white" stroke="black" points="1174,-491.5 1174,-510.5 1311,-510.5 1311,-491.5 1174,-491.5"/>
<text text-anchor="middle" x="1242.5" y="-498.5" font-family="Fira Code" font-size="10.00">enum InputDeviceType</text>
</a>
</g>
</g>
<!-- Node28&#45;&gt;Node2 -->
<g id="edge35" class="edge">
<title>Node28&#45;&gt;Node2</title>
<path fill="none" stroke="#9a32cd" stroke-dasharray="5,2" d="M1321.28,-510.95C1347.05,-514.61 1375.83,-519.07 1402,-524 1410.36,-525.58 1419.28,-527.49 1427.73,-529.42"/>
<polygon fill="#9a32cd" stroke="#9a32cd" points="1321.58,-507.46 1311.19,-509.54 1320.61,-514.39 1321.58,-507.46"/>
<text text-anchor="middle" x="1365.5" y="-527" font-family="Fira Code" font-size="10.00"> type</text>
</g>
<!-- Node29&#45;&gt;Node2 -->
<g id="edge36" class="edge">
<title>Node29&#45;&gt;Node2</title>
<path fill="none" stroke="#9a32cd" stroke-dasharray="5,2" d="M1281.98,-583.68C1322.54,-573.86 1386.09,-558.47 1427.02,-548.56"/>
<polygon fill="#9a32cd" stroke="#9a32cd" points="1281.09,-580.3 1272.2,-586.05 1282.74,-587.1 1281.09,-580.3"/>
<text text-anchor="middle" x="1365.5" y="-573" font-family="Fira Code" font-size="10.00"> keybind</text>
</g>
<!-- Node30 -->
<g id="node30" class="node">
<title>Node30</title>
<g id="a_node30"><a xlink:title=" ">
<polygon fill="white" stroke="black" points="961,-628.5 961,-647.5 1062,-647.5 1062,-628.5 961,-628.5"/>
<text text-anchor="middle" x="1011.5" y="-635.5" font-family="Fira Code" font-size="10.00">unsigned short</text>
</a>
</g>
</g>
<!-- Node30&#45;&gt;Node29 -->
<g id="edge37" class="edge">
<title>Node30&#45;&gt;Node29</title>
<path fill="none" stroke="#9a32cd" stroke-dasharray="5,2" d="M1072.33,-631.64C1098.21,-628.38 1128.75,-623.85 1156,-618 1175.2,-613.88 1196.4,-607.69 1212.88,-602.51"/>
<polygon fill="#9a32cd" stroke="#9a32cd" points="1071.79,-628.18 1062.29,-632.87 1072.64,-635.13 1071.79,-628.18"/>
<text text-anchor="middle" x="1122.5" y="-632" font-family="Fira Code" font-size="10.00"> keyIndex</text>
</g>
<!-- Node31 -->
<g id="node31" class="node">
<title>Node31</title>
<g id="a_node31"><a xlink:title=" ">
<polygon fill="white" stroke="black" points="952,-585.5 952,-604.5 1071,-604.5 1071,-585.5 952,-585.5"/>
<text text-anchor="middle" x="1011.5" y="-592.5" font-family="Fira Code" font-size="10.00">enum ModifierKeys</text>
</a>
</g>
</g>
<!-- Node31&#45;&gt;Node29 -->
<g id="edge38" class="edge">
<title>Node31&#45;&gt;Node29</title>
<path fill="none" stroke="#9a32cd" stroke-dasharray="5,2" d="M1081.37,-601.6C1083.94,-601.75 1086.49,-601.89 1089,-602 1118.75,-603.36 1126.26,-603.56 1156,-602 1174.93,-601.01 1196.12,-598.78 1212.67,-596.8"/>
<polygon fill="#9a32cd" stroke="#9a32cd" points="1081.56,-598.1 1071.35,-600.93 1081.1,-605.09 1081.56,-598.1"/>
<text text-anchor="middle" x="1122.5" y="-606" font-family="Fira Code" font-size="10.00"> mod</text>
</g>
<!-- Node31&#45;&gt;Node32 -->
<g id="edge42" class="edge">
<title>Node31&#45;&gt;Node32</title>
<path fill="none" stroke="#9a32cd" stroke-dasharray="5,2" d="M1081.23,-584.1C1105.07,-579.78 1131.86,-574.33 1156,-568 1176.62,-562.59 1199.46,-554.75 1216.34,-548.58"/>
<polygon fill="#9a32cd" stroke="#9a32cd" points="1080.45,-580.69 1071.22,-585.88 1081.67,-587.58 1080.45,-580.69"/>
<text text-anchor="middle" x="1122.5" y="-585" font-family="Fira Code" font-size="10.00"> mod</text>
</g>
<!-- Node32&#45;&gt;Node2 -->
<g id="edge40" class="edge">
<title>Node32&#45;&gt;Node2</title>
<path fill="none" stroke="#9a32cd" stroke-dasharray="5,2" d="M1288.65,-539C1326.83,-539 1381.31,-539 1419.89,-539"/>
<polygon fill="#9a32cd" stroke="#9a32cd" points="1288.34,-535.5 1278.34,-539 1288.34,-542.5 1288.34,-535.5"/>
<text text-anchor="middle" x="1365.5" y="-542" font-family="Fira Code" font-size="10.00"> mousebind</text>
</g>
<!-- Node33 -->
<g id="node33" class="node">
<title>Node33</title>
<g id="a_node33"><a xlink:title=" ">
<polygon fill="white" stroke="black" points="114,-500.5 114,-519.5 233,-519.5 233,-500.5 114,-500.5"/>
<text text-anchor="middle" x="173.5" y="-507.5" font-family="Fira Code" font-size="10.00">enum MouseButtons</text>
</a>
</g>
</g>
<!-- Node33&#45;&gt;Node32 -->
<g id="edge41" class="edge">
<title>Node33&#45;&gt;Node32</title>
<path fill="none" stroke="#9a32cd" stroke-dasharray="5,2" d="M243.46,-516.99C279.49,-520.07 324.33,-523 364.5,-523 364.5,-523 364.5,-523 1012.5,-523 1081.45,-523 1161.79,-530.31 1206.64,-535.04"/>
<polygon fill="#9a32cd" stroke="#9a32cd" points="243.33,-513.47 233.06,-516.08 242.72,-520.44 243.33,-513.47"/>
<text text-anchor="middle" x="655.5" y="-526" font-family="Fira Code" font-size="10.00"> button</text>
</g>
<!-- Node33&#45;&gt;Node36 -->
<g id="edge48" class="edge">
<title>Node33&#45;&gt;Node36</title>
<path fill="none" stroke="#9a32cd" stroke-dasharray="5,2" d="M215.26,-497.39C239.87,-489.69 271.82,-479.51 300,-470 312.62,-465.74 326.54,-460.81 338.21,-456.6"/>
<polygon fill="#9a32cd" stroke="#9a32cd" points="214.04,-494.11 205.54,-500.43 216.13,-500.79 214.04,-494.11"/>
<text text-anchor="middle" x="275.5" y="-488" font-family="Fira Code" font-size="10.00"> buttons</text>
</g>
<!-- Node34 -->
<g id="node34" class="node">
<title>Node34</title>
<g id="a_node34"><a xlink:title=" ">
<polygon fill="white" stroke="black" points="1198,-712.5 1198,-731.5 1287,-731.5 1287,-712.5 1198,-712.5"/>
<text text-anchor="middle" x="1242.5" y="-719.5" font-family="Fira Code" font-size="10.00">anonymous:@1</text>
</a>
</g>
</g>
<!-- Node34&#45;&gt;Node2 -->
<g id="edge44" class="edge">
<title>Node34&#45;&gt;Node2</title>
<path fill="none" stroke="#9a32cd" stroke-dasharray="5,2" d="M1297.14,-726.58C1330.59,-726.6 1372.69,-721.12 1402,-698 1451.12,-659.26 1463.05,-577.08 1465.76,-548.8"/>
<polygon fill="#9a32cd" stroke="#9a32cd" points="1297.12,-723.08 1287.06,-726.41 1297,-730.08 1297.12,-723.08"/>
<text text-anchor="middle" x="1365.5" y="-727" font-family="Fira Code" font-size="10.00"> @1</text>
</g>
<!-- Node35 -->
<g id="node35" class="node">
<title>Node35</title>
<g id="a_node35"><a xlink:title=" ">
<polygon fill="white" stroke="black" points="339,-475.5 339,-494.5 392,-494.5 392,-475.5 339,-475.5"/>
<text text-anchor="middle" x="365.5" y="-482.5" font-family="Fira Code" font-size="10.00">size_t</text>
</a>
</g>
</g>
<!-- Node35&#45;&gt;Node1 -->
<g id="edge45" class="edge">
<title>Node35&#45;&gt;Node1</title>
<path fill="none" stroke="#9a32cd" stroke-dasharray="5,2" d="M402.37,-481.84C434.39,-479.02 481.38,-474.88 515.63,-471.86"/>
<polygon fill="#9a32cd" stroke="#9a32cd" points="401.78,-478.38 392.13,-482.74 402.4,-485.35 401.78,-478.38"/>
<text text-anchor="middle" x="464.5" y="-493" font-family="Fira Code" font-size="10.00"> nKeybinds</text>
<text text-anchor="middle" x="464.5" y="-482" font-family="Fira Code" font-size="10.00">nMousebinds</text>
</g>
<!-- Node36&#45;&gt;Node1 -->
<g id="edge46" class="edge">
<title>Node36&#45;&gt;Node1</title>
<path fill="none" stroke="#9a32cd" stroke-dasharray="5,2" d="M411.29,-449.88C436.76,-451.73 469.22,-454.46 498,-458 503.8,-458.71 509.89,-459.57 515.88,-460.48"/>
<polygon fill="#9a32cd" stroke="#9a32cd" points="411.41,-446.38 401.18,-449.16 410.91,-453.36 411.41,-446.38"/>
<text text-anchor="middle" x="464.5" y="-461" font-family="Fira Code" font-size="10.00"> mouse</text>
</g>
</g>
</svg>
        <g id="navigator" transform="translate(0 0)" fill="#404254">
                <rect fill="#f2f5e9" fill-opacity="0.5" stroke="#606060" stroke-width=".5" x="0" y="0" width="60" height="60"/>
                <use id="zoomplus" xlink:href="#zoomPlus" x="17" y="9" onmousedown="handleZoom(evt,'in')"/>
                <use id="zoomminus" xlink:href="#zoomMin" x="42" y="9" onmousedown="handleZoom(evt,'out')"/>
                <use id="reset" xlink:href="#resetDef" x="30" y="36" onmousedown="handleReset()"/>
                <g id="arrowUp" xlink:href="#dirArrow" transform="translate(30 24)" onmousedown="handlePan(0,-1)">
                  <use xlink:href="#rim" fill="#404040">
                        <set attributeName="fill" to="#808080" begin="arrowUp.mouseover" end="arrowUp.mouseout"/>
                  </use>
                  <path fill="none" stroke="white" stroke-width="1.5" d="M0,-3.0v7 M-2.5,-0.5L0,-3.0L2.5,-0.5"/>
                </g>
                <g id="arrowRight" xlink:href="#dirArrow" transform="rotate(90) translate(36 -43)" onmousedown="handlePan(1,0)">
                  <use xlink:href="#rim" fill="#404040">
                        <set attributeName="fill" to="#808080" begin="arrowRight.mouseover" end="arrowRight.mouseout"/>
                  </use>
                  <path fill="none" stroke="white" stroke-width="1.5" d="M0,-3.0v7 M-2.5,-0.5L0,-3.0L2.5,-0.5"/>
                </g>
                <g id="arrowDown" xlink:href="#dirArrow" transform="rotate(180) translate(-30 -48)" onmousedown="handlePan(0,1)">
                  <use xlink:href="#rim" fill="#404040">
                        <set attributeName="fill" to="#808080" begin="arrowDown.mouseover" end="arrowDown.mouseout"/>
                  </use>
                  <path fill="none" stroke="white" stroke-width="1.5" d="M0,-3.0v7 M-2.5,-0.5L0,-3.0L2.5,-0.5"/>
                </g>
                <g id="arrowLeft" xlink:href="#dirArrow" transform="rotate(270) translate(-36 17)" onmousedown="handlePan(-1,0)">
                  <use xlink:href="#rim" fill="#404040">
                        <set attributeName="fill" to="#808080" begin="arrowLeft.mouseover" end="arrowLeft.mouseout"/>
                  </use>
                  <path fill="none" stroke="white" stroke-width="1.5" d="M0,-3.0v7 M-2.5,-0.5L0,-3.0L2.5,-0.5"/>
                </g>
        </g>
        <svg viewBox="0 0 15 15" width="100%" height="30px" preserveAspectRatio="xMaxYMin meet">
         <g id="arrow_out" transform="scale(0.3 0.3)">
          <a xlink:href="struct_input_context__coll__graph_org.svg" target="_base">
           <rect id="button" ry="5" rx="5" y="6" x="6" height="38" width="38"
                fill="#f2f5e9" fill-opacity="0.5" stroke="#606060" stroke-width="1.0"/>
           <path id="arrow"
             d="M 11.500037,31.436501 C 11.940474,20.09759 22.043105,11.32322 32.158766,21.979434 L 37.068811,17.246167 C 37.068811,17.246167 37.088388,32 37.088388,32 L 22.160133,31.978069 C 22.160133,31.978069 26.997745,27.140456 26.997745,27.140456 C 18.528582,18.264221 13.291696,25.230495 11.500037,31.436501 z"
             style="fill:#404040;"/>
          </a>
         </g>
        </svg>
</svg>
