<?xml version="1.0" encoding="UTF-8" standalone="no"?>
<!DOCTYPE svg PUBLIC "-//W3C//DTD SVG 1.1//EN"
 "http://www.w3.org/Graphics/SVG/1.1/DTD/svg11.dtd">
<!-- Generated by graphviz version 3.0.0 (20220226.1711)
 -->
<!-- Title: Context Pages: 1 -->
<!--zoomable 827 -->
<svg id="main" version="1.1" xmlns="http://www.w3.org/2000/svg" xmlns:xlink="http://www.w3.org/1999/xlink" xml:space="preserve" onload="init(evt)">
<style type="text/css"><![CDATA[
.edge:hover path { stroke: red; }
.edge:hover polygon { stroke: red; fill: red; }
]]></style>
<script type="text/javascript"><![CDATA[
var edges = document.getElementsByTagName('g');
if (edges && edges.length) {
  for (var i=0;i<edges.length;i++) {
    if (edges[i].id.substr(0,4)=='edge') {
      edges[i].setAttribute('class','edge');
    }
  }
}
]]></script>
        <defs>
                <circle id="rim" cx="0" cy="0" r="7"/>
                <circle id="rim2" cx="0" cy="0" r="3.5"/>
                <g id="zoomPlus">
                        <use xlink:href="#rim" fill="#404040">
                                <set attributeName="fill" to="#808080" begin="zoomplus.mouseover" end="zoomplus.mouseout"/>
                        </use>
                        <path d="M-4,0h8M0,-4v8" fill="none" stroke="white" stroke-width="1.5" pointer-events="none"/>
                </g>
                <g id="zoomMin">
                        <use xlink:href="#rim" fill="#404040">
                                <set attributeName="fill" to="#808080" begin="zoomminus.mouseover" end="zoomminus.mouseout"/>
                        </use>
                        <path d="M-4,0h8" fill="none" stroke="white" stroke-width="1.5" pointer-events="none"/>
                </g>
                <g id="dirArrow">
                        <path fill="none" stroke="white" stroke-width="1.5" d="M0,-3.0v7 M-2.5,-0.5L0,-3.0L2.5,-0.5"/>
                </g>
               <g id="resetDef">
                       <use xlink:href="#rim2" fill="#404040">
                               <set attributeName="fill" to="#808080" begin="reset.mouseover" end="reset.mouseout"/>
                       </use>
               </g>
        </defs>

<script type="text/javascript">
var viewWidth = 1593;
var viewHeight = 827;
var sectionId = 'dynsection-0';
</script>
<script xlink:href="svgpan.js"/>
<svg id="graph" class="graph">
<g id="viewport">
<title>Context</title>
<polygon fill="white" stroke="transparent" points="-4,4 -4,-822.67 1589,-822.67 1589,4 -4,4"/>
<!-- Node1 -->
<g id="node1" class="node">
<title>Node1</title>
<g id="a_node1"><a xlink:title="The plugin context is a persistent state representing the entire application to the game plugin acros...">
<polygon fill="#bfbfbf" stroke="black" points="626,-682.17 626,-701.17 685,-701.17 685,-682.17 626,-682.17"/>
<text text-anchor="middle" x="655.5" y="-689.17" font-family="Fira Code" font-size="10.00">Context</text>
</a>
</g>
</g>
<!-- Node5 -->
<g id="node5" class="node">
<title>Node5</title>
<g id="a_node5"><a xlink:href="struct_input_action_args.html" target="_top" xlink:title="Arguments to an input action callback.">
<polygon fill="white" stroke="black" points="836,-442.17 836,-461.17 943,-461.17 943,-442.17 836,-442.17"/>
<text text-anchor="middle" x="889.5" y="-449.17" font-family="Fira Code" font-size="10.00">InputActionArgs</text>
</a>
</g>
</g>
<!-- Node1&#45;&gt;Node5 -->
<g id="edge5" class="edge">
<title>Node1&#45;&gt;Node5</title>
<path fill="none" stroke="#9a32cd" stroke-dasharray="5,2" d="M695.06,-684.81C706.58,-681.11 718.42,-675.41 727,-666.67 744.72,-648.61 726.95,-630.39 745,-612.67 767.26,-590.8 791.42,-615.13 812,-591.67 842.64,-556.73 804.15,-527.28 830,-488.67 838.22,-476.38 852.05,-467.36 864.2,-461.3"/>
<polygon fill="#9a32cd" stroke="#9a32cd" points="693.8,-681.53 685.11,-687.58 695.68,-688.27 693.8,-681.53"/>
<text text-anchor="middle" x="778.5" y="-615.67" font-family="Fira Code" font-size="10.00"> ctx</text>
</g>
<!-- Node2 -->
<g id="node2" class="node">
<title>Node2</title>
<g id="a_node2"><a xlink:href="struct_host_context.html" target="_top" xlink:title="Provides the plugin with an interface to the host for platform and application&#45;level operations.">
<polygon fill="white" stroke="black" points="1304,-456.17 1304,-475.17 1387,-475.17 1387,-456.17 1304,-456.17"/>
<text text-anchor="middle" x="1345.5" y="-463.17" font-family="Fira Code" font-size="10.00">HostContext</text>
</a>
</g>
</g>
<!-- Node2&#45;&gt;Node1 -->
<g id="edge1" class="edge">
<title>Node2&#45;&gt;Node1</title>
<path fill="none" stroke="#9a32cd" stroke-dasharray="5,2" d="M1293.85,-474.75C1266.92,-480.95 1233.92,-490.79 1207,-505.67 1197.63,-510.84 1198.3,-516.36 1189,-521.67 1133.46,-553.37 1096.12,-519.37 1052,-565.67 1030.73,-587.99 1056.94,-612.06 1034,-632.67 982.49,-678.92 763.97,-688.97 685.07,-691.11"/>
<polygon fill="#9a32cd" stroke="#9a32cd" points="1294.83,-478.12 1303.85,-472.56 1293.33,-471.29 1294.83,-478.12"/>
<text text-anchor="middle" x="1000.5" y="-664.67" font-family="Fira Code" font-size="10.00"> host</text>
</g>
<!-- Node3 -->
<g id="node3" class="node">
<title>Node3</title>
<g id="a_node3"><a xlink:href="struct_input_action.html" target="_top" xlink:title="An input action is triggered by a button binding and may respond to either activation or deactivation...">
<polygon fill="white" stroke="black" points="1079,-422.17 1079,-441.17 1162,-441.17 1162,-422.17 1079,-422.17"/>
<text text-anchor="middle" x="1120.5" y="-429.17" font-family="Fira Code" font-size="10.00">InputAction</text>
</a>
</g>
</g>
<!-- Node3&#45;&gt;Node2 -->
<g id="edge2" class="edge">
<title>Node3&#45;&gt;Node2</title>
<path fill="none" stroke="#9a32cd" stroke-dasharray="5,2" d="M1172.47,-426.06C1203.91,-424.05 1244.82,-424.07 1280,-432.67 1298.57,-437.2 1317.83,-447.99 1330.41,-456"/>
<polygon fill="#9a32cd" stroke="#9a32cd" points="1171.91,-422.59 1162.19,-426.81 1172.42,-429.57 1171.91,-422.59"/>
<text text-anchor="middle" x="1243.5" y="-435.67" font-family="Fira Code" font-size="10.00"> quitAction</text>
</g>
<!-- Node3&#45;&gt;Node5 -->
<g id="edge6" class="edge">
<title>Node3&#45;&gt;Node5</title>
<path fill="none" stroke="#9a32cd" stroke-dasharray="5,2" d="M1068.51,-439.53C1057.17,-441.09 1045.19,-442.57 1034,-443.67 1003.95,-446.61 970.25,-448.55 943.06,-449.79"/>
<polygon fill="#9a32cd" stroke="#9a32cd" points="1069.29,-442.96 1078.7,-438.1 1068.31,-436.03 1069.29,-442.96"/>
<text text-anchor="middle" x="1000.5" y="-451.67" font-family="Fira Code" font-size="10.00"> action</text>
</g>
<!-- Node11 -->
<g id="node11" class="node">
<title>Node11</title>
<g id="a_node11"><a xlink:href="struct_sdl_context.html" target="_top" xlink:title="Parent node of the entire SDL state.">
<polygon fill="white" stroke="black" points="1307,-600.17 1307,-619.17 1384,-619.17 1384,-600.17 1307,-600.17"/>
<text text-anchor="middle" x="1345.5" y="-607.17" font-family="Fira Code" font-size="10.00">SdlContext</text>
</a>
</g>
</g>
<!-- Node3&#45;&gt;Node11 -->
<g id="edge20" class="edge">
<title>Node3&#45;&gt;Node11</title>
<path fill="none" stroke="#9a32cd" stroke-dasharray="5,2" d="M1147.82,-446.65C1161.76,-455.77 1178.2,-468.56 1189,-483.67 1203.47,-503.9 1190.88,-517.72 1207,-536.67 1209.15,-539.19 1289.01,-580.85 1326.02,-600.08"/>
<polygon fill="#9a32cd" stroke="#9a32cd" points="1149.43,-443.53 1139.09,-441.21 1145.72,-449.47 1149.43,-443.53"/>
<text text-anchor="middle" x="1243.5" y="-577.67" font-family="Fira Code" font-size="10.00"> clickAction</text>
</g>
<!-- Node27 -->
<g id="node27" class="node">
<title>Node27</title>
<g id="a_node27"><a xlink:href="struct_action_binding.html" target="_top" xlink:title="Closes over the callback for an input binding to a particular type of input device,...">
<polygon fill="white" stroke="black" points="1298,-205.17 1298,-224.17 1393,-224.17 1393,-205.17 1298,-205.17"/>
<text text-anchor="middle" x="1345.5" y="-212.17" font-family="Fira Code" font-size="10.00">ActionBinding</text>
</a>
</g>
</g>
<!-- Node3&#45;&gt;Node27 -->
<g id="edge33" class="edge">
<title>Node3&#45;&gt;Node27</title>
<path fill="none" stroke="#9a32cd" stroke-dasharray="5,2" d="M1144.99,-416.3C1158.38,-407.14 1175.19,-394.93 1189,-382.67 1250.82,-327.79 1314.84,-251.18 1336.67,-224.38"/>
<polygon fill="#9a32cd" stroke="#9a32cd" points="1142.69,-413.63 1136.35,-422.12 1146.6,-419.44 1142.69,-413.63"/>
<text text-anchor="middle" x="1243.5" y="-369.67" font-family="Fira Code" font-size="10.00"> action</text>
</g>
<!-- Node4 -->
<g id="node4" class="node">
<title>Node4</title>
<g id="a_node4"><a xlink:title=" ">
<polygon fill="white" stroke="black" points="863,-390.17 863,-409.17 916,-409.17 916,-390.17 863,-390.17"/>
<text text-anchor="middle" x="889.5" y="-397.17" font-family="Fira Code" font-size="10.00">char *</text>
</a>
</g>
</g>
<!-- Node4&#45;&gt;Node3 -->
<g id="edge3" class="edge">
<title>Node4&#45;&gt;Node3</title>
<path fill="none" stroke="#9a32cd" stroke-dasharray="5,2" d="M926.35,-402.49C955.45,-405 997.49,-409.14 1034,-414.67 1048.66,-416.89 1064.63,-419.9 1078.75,-422.77"/>
<polygon fill="#9a32cd" stroke="#9a32cd" points="926.51,-398.99 916.25,-401.64 925.92,-405.97 926.51,-398.99"/>
<text text-anchor="middle" x="1000.5" y="-417.67" font-family="Fira Code" font-size="10.00"> name</text>
</g>
<!-- Node5&#45;&gt;Node3 -->
<g id="edge4" class="edge">
<title>Node5&#45;&gt;Node3</title>
<path fill="none" stroke="#9a32cd" stroke-dasharray="5,2" d="M931.51,-439.58C942.9,-436.75 955.34,-434.13 967,-432.67 1004.7,-427.93 1048.05,-428.19 1078.87,-429.33"/>
<polygon fill="#9a32cd" stroke="#9a32cd" points="930.62,-436.2 921.82,-442.11 932.38,-442.97 930.62,-436.2"/>
<text text-anchor="middle" x="1000.5" y="-435.67" font-family="Fira Code" font-size="10.00"> on_action</text>
</g>
<!-- Node6 -->
<g id="node6" class="node">
<title>Node6</title>
<g id="a_node6"><a xlink:title=" ">
<polygon fill="white" stroke="black" points="584,-7.17 584,-26.17 727,-26.17 727,-7.17 584,-7.17"/>
<text text-anchor="middle" x="655.5" y="-14.17" font-family="Fira Code" font-size="10.00">enum SignalTransition</text>
</a>
</g>
</g>
<!-- Node6&#45;&gt;Node5 -->
<g id="edge7" class="edge">
<title>Node6&#45;&gt;Node5</title>
<path fill="none" stroke="#9a32cd" stroke-dasharray="5,2" d="M660.34,-36.49C673.42,-99.5 721.63,-298.14 830,-418.67 839.2,-428.9 852.35,-436.71 863.85,-442.16"/>
<polygon fill="#9a32cd" stroke="#9a32cd" points="663.7,-35.46 658.29,-26.35 656.84,-36.84 663.7,-35.46"/>
<text text-anchor="middle" x="778.5" y="-394.67" font-family="Fira Code" font-size="10.00"> transition</text>
</g>
<!-- Node6&#45;&gt;Node27 -->
<g id="edge34" class="edge">
<title>Node6&#45;&gt;Node27</title>
<path fill="none" stroke="#9a32cd" stroke-dasharray="5,2" d="M734.84,-6.11C844.28,4.69 1045.62,9.81 1189,-72.67 1238.58,-101.18 1242.95,-120.09 1280,-163.67 1288.87,-174.1 1287.78,-179.55 1298,-188.67 1305.32,-195.19 1314.55,-200.77 1322.85,-205.07"/>
<polygon fill="#9a32cd" stroke="#9a32cd" points="734.45,-2.63 724.86,-7.13 735.16,-9.59 734.45,-2.63"/>
<text text-anchor="middle" x="1000.5" y="-19.67" font-family="Fira Code" font-size="10.00"> transition</text>
</g>
<!-- Node7 -->
<g id="node7" class="node">
<title>Node7</title>
<g id="a_node7"><a xlink:href="struct_log_state.html" target="_top" xlink:title="Used to persist the log output streams between hot&#45;reloads.">
<polygon fill="white" stroke="black" points="1088,-493.17 1088,-512.17 1153,-512.17 1153,-493.17 1088,-493.17"/>
<text text-anchor="middle" x="1120.5" y="-500.17" font-family="Fira Code" font-size="10.00">LogState</text>
</a>
</g>
</g>
<!-- Node7&#45;&gt;Node2 -->
<g id="edge8" class="edge">
<title>Node7&#45;&gt;Node2</title>
<path fill="none" stroke="#9a32cd" stroke-dasharray="5,2" d="M1147.56,-488.54C1164.07,-480.4 1186.16,-470.95 1207,-466.67 1239.03,-460.08 1276.16,-460.25 1303.75,-461.84"/>
<polygon fill="#9a32cd" stroke="#9a32cd" points="1145.86,-485.48 1138.54,-493.13 1149.04,-491.71 1145.86,-485.48"/>
<text text-anchor="middle" x="1243.5" y="-469.67" font-family="Fira Code" font-size="10.00"> log</text>
</g>
<!-- Node8 -->
<g id="node8" class="node">
<title>Node8</title>
<g id="a_node8"><a xlink:title=" ">
<polygon fill="white" stroke="black" points="638,-492.17 638,-511.17 673,-511.17 673,-492.17 638,-492.17"/>
<text text-anchor="middle" x="655.5" y="-499.17" font-family="Fira Code" font-size="10.00">int</text>
</a>
</g>
</g>
<!-- Node8&#45;&gt;Node7 -->
<g id="edge9" class="edge">
<title>Node8&#45;&gt;Node7</title>
<path fill="none" stroke="#9a32cd" stroke-dasharray="5,2" d="M683.12,-503.81C744.84,-508.48 902.45,-518.57 1034,-511.67 1051.89,-510.73 1071.79,-508.69 1087.89,-506.79"/>
<polygon fill="#9a32cd" stroke="#9a32cd" points="683.31,-500.32 673.07,-503.04 682.77,-507.3 683.31,-500.32"/>
<text text-anchor="middle" x="889.5" y="-517.67" font-family="Fira Code" font-size="10.00"> level</text>
</g>
<!-- Node15 -->
<g id="node15" class="node">
<title>Node15</title>
<g id="a_node15"><a xlink:href="struct_text.html" target="_top" xlink:title="Represents a texture generated by rendering text in a TTF font.">
<polygon fill="white" stroke="black" points="869,-599.17 869,-618.17 910,-618.17 910,-599.17 869,-599.17"/>
<text text-anchor="middle" x="889.5" y="-606.17" font-family="Fira Code" font-size="10.00">Text</text>
</a>
</g>
</g>
<!-- Node8&#45;&gt;Node15 -->
<g id="edge19" class="edge">
<title>Node8&#45;&gt;Node15</title>
<path fill="none" stroke="#9a32cd" stroke-dasharray="5,2" d="M683.47,-504.32C716.67,-508.77 773.39,-520.35 812,-549.67 823.78,-558.61 819.11,-567.65 830,-577.67 841.25,-588.01 856.6,-595.97 868.76,-601.24"/>
<polygon fill="#9a32cd" stroke="#9a32cd" points="683.52,-500.8 673.17,-503.07 682.68,-507.75 683.52,-500.8"/>
<text text-anchor="middle" x="778.5" y="-563.67" font-family="Fira Code" font-size="10.00"> height</text>
<text text-anchor="middle" x="778.5" y="-552.67" font-family="Fira Code" font-size="10.00">width</text>
</g>
<!-- Node36 -->
<g id="node36" class="node">
<title>Node36</title>
<g id="a_node36"><a xlink:href="struct_mouse_axes.html" target="_top" xlink:title="Represents the mouse state.">
<polygon fill="white" stroke="black" points="1085,-82.17 1085,-101.17 1156,-101.17 1156,-82.17 1085,-82.17"/>
<text text-anchor="middle" x="1120.5" y="-89.17" font-family="Fira Code" font-size="10.00">MouseAxes</text>
</a>
</g>
</g>
<!-- Node8&#45;&gt;Node36 -->
<g id="edge47" class="edge">
<title>Node8&#45;&gt;Node36</title>
<path fill="none" stroke="#9a32cd" stroke-dasharray="5,2" d="M657.23,-481.92C661.06,-411.08 684.69,-168.82 830,-70.67 914.98,-13.27 1047.79,-60.39 1098.69,-82.14"/>
<polygon fill="#9a32cd" stroke="#9a32cd" points="653.73,-481.95 656.76,-492.1 660.72,-482.27 653.73,-481.95"/>
<text text-anchor="middle" x="889.5" y="-95.67" font-family="Fira Code" font-size="10.00"> scroll</text>
<text text-anchor="middle" x="889.5" y="-84.67" font-family="Fira Code" font-size="10.00">x</text>
<text text-anchor="middle" x="889.5" y="-73.67" font-family="Fira Code" font-size="10.00">y</text>
</g>
<!-- Node9 -->
<g id="node9" class="node">
<title>Node9</title>
<g id="a_node9"><a xlink:title=" ">
<polygon fill="white" stroke="black" points="869,-300.17 869,-319.17 910,-319.17 910,-300.17 869,-300.17"/>
<text text-anchor="middle" x="889.5" y="-307.17" font-family="Fira Code" font-size="10.00">bool</text>
</a>
</g>
</g>
<!-- Node9&#45;&gt;Node7 -->
<g id="edge10" class="edge">
<title>Node9&#45;&gt;Node7</title>
<path fill="none" stroke="#9a32cd" stroke-dasharray="5,2" d="M919.54,-319.67C930.44,-324.86 941.9,-332.34 949,-342.67 979.81,-387.46 930.58,-423.3 967,-463.67 997.48,-497.45 1052.82,-503.78 1087.79,-504.09"/>
<polygon fill="#9a32cd" stroke="#9a32cd" points="920.8,-316.4 910.23,-315.68 918.04,-322.83 920.8,-316.4"/>
<text text-anchor="middle" x="1000.5" y="-501.67" font-family="Fira Code" font-size="10.00"> quiet</text>
</g>
<!-- Node18 -->
<g id="node18" class="node">
<title>Node18</title>
<g id="a_node18"><a xlink:href="struct_sdl_mouse_cursor.html" target="_top" xlink:title="Represents the mouse cursor state.">
<polygon fill="white" stroke="black" points="1070,-354.17 1070,-373.17 1171,-373.17 1171,-354.17 1070,-354.17"/>
<text text-anchor="middle" x="1120.5" y="-361.17" font-family="Fira Code" font-size="10.00">SdlMouseCursor</text>
</a>
</g>
</g>
<!-- Node9&#45;&gt;Node18 -->
<g id="edge23" class="edge">
<title>Node9&#45;&gt;Node18</title>
<path fill="none" stroke="#9a32cd" stroke-dasharray="5,2" d="M919.81,-316.58C960.29,-326.12 1033.45,-343.37 1079.09,-354.14"/>
<polygon fill="#9a32cd" stroke="#9a32cd" points="920.56,-313.16 910.02,-314.27 918.95,-319.97 920.56,-313.16"/>
<text text-anchor="middle" x="1000.5" y="-346.67" font-family="Fira Code" font-size="10.00"> visible</text>
</g>
<!-- Node29 -->
<g id="node29" class="node">
<title>Node29</title>
<g id="a_node29"><a xlink:href="struct_keybind.html" target="_top" xlink:title="Represents a keyboard key combination the state of which is being tracked by an action.">
<polygon fill="white" stroke="black" points="1091,-222.17 1091,-241.17 1150,-241.17 1150,-222.17 1091,-222.17"/>
<text text-anchor="middle" x="1120.5" y="-229.17" font-family="Fira Code" font-size="10.00">Keybind</text>
</a>
</g>
</g>
<!-- Node9&#45;&gt;Node29 -->
<g id="edge39" class="edge">
<title>Node9&#45;&gt;Node29</title>
<path fill="none" stroke="#9a32cd" stroke-dasharray="5,2" d="M920.27,-307.83C950.97,-304.72 999.13,-296.33 1034,-273.67 1044.88,-266.59 1041.22,-257.89 1052,-250.67 1063.53,-242.94 1078.17,-238.32 1090.88,-235.58"/>
<polygon fill="#9a32cd" stroke="#9a32cd" points="919.85,-304.36 910.2,-308.73 920.47,-311.33 919.85,-304.36"/>
<text text-anchor="middle" x="1000.5" y="-303.67" font-family="Fira Code" font-size="10.00"> state</text>
</g>
<!-- Node32 -->
<g id="node32" class="node">
<title>Node32</title>
<g id="a_node32"><a xlink:href="struct_mousebind.html" target="_top" xlink:title="Represents a mouse button combination the state of which is being tracked by an action.">
<polygon fill="white" stroke="black" points="1085,-146.17 1085,-165.17 1156,-165.17 1156,-146.17 1085,-146.17"/>
<text text-anchor="middle" x="1120.5" y="-153.17" font-family="Fira Code" font-size="10.00">Mousebind</text>
</a>
</g>
</g>
<!-- Node9&#45;&gt;Node32 -->
<g id="edge43" class="edge">
<title>Node9&#45;&gt;Node32</title>
<path fill="none" stroke="#9a32cd" stroke-dasharray="5,2" d="M911.61,-293.97C926.5,-283.45 947.23,-269.89 967,-260.67 995.28,-247.47 1012.31,-262.1 1034,-239.67 1054.84,-218.12 1030.85,-195.91 1052,-174.67 1060.68,-165.95 1073.01,-161.16 1084.77,-158.54"/>
<polygon fill="#9a32cd" stroke="#9a32cd" points="909.22,-291.37 903.16,-300.06 913.32,-297.05 909.22,-291.37"/>
<text text-anchor="middle" x="1000.5" y="-263.67" font-family="Fira Code" font-size="10.00"> state</text>
</g>
<!-- Node10 -->
<g id="node10" class="node">
<title>Node10</title>
<g id="a_node10"><a xlink:title=" ">
<polygon fill="white" stroke="black" points="863,-549.17 863,-568.17 916,-568.17 916,-549.17 863,-549.17"/>
<text text-anchor="middle" x="889.5" y="-556.17" font-family="Fira Code" font-size="10.00">FILE *</text>
</a>
</g>
</g>
<!-- Node10&#45;&gt;Node7 -->
<g id="edge11" class="edge">
<title>Node10&#45;&gt;Node7</title>
<path fill="none" stroke="#9a32cd" stroke-dasharray="5,2" d="M926.18,-555.46C955.5,-552.29 997.93,-546.47 1034,-536.67 1046.26,-533.34 1076.27,-521.03 1097.26,-512.18"/>
<polygon fill="#9a32cd" stroke="#9a32cd" points="925.59,-552.01 916.01,-556.51 926.31,-558.97 925.59,-552.01"/>
<text text-anchor="middle" x="1000.5" y="-553.67" font-family="Fira Code" font-size="10.00"> file</text>
</g>
<!-- Node11&#45;&gt;Node1 -->
<g id="edge12" class="edge">
<title>Node11&#45;&gt;Node1</title>
<path fill="none" stroke="#9a32cd" stroke-dasharray="5,2" d="M1328.8,-626.48C1316.64,-638.45 1298.75,-653.92 1280,-662.67 1242.71,-680.05 1229.92,-675.41 1189,-679.67 997.46,-699.58 765.17,-695.04 685.18,-692.65"/>
<polygon fill="#9a32cd" stroke="#9a32cd" points="1331.42,-628.81 1335.92,-619.22 1326.42,-623.91 1331.42,-628.81"/>
<text text-anchor="middle" x="1000.5" y="-695.67" font-family="Fira Code" font-size="10.00"> sdl</text>
</g>
<!-- Node12 -->
<g id="node12" class="node">
<title>Node12</title>
<g id="a_node12"><a xlink:title=" ">
<polygon fill="white" stroke="black" points="1076,-651.17 1076,-670.17 1165,-670.17 1165,-651.17 1076,-651.17"/>
<text text-anchor="middle" x="1120.5" y="-658.17" font-family="Fira Code" font-size="10.00">SDL_Window *</text>
</a>
</g>
</g>
<!-- Node12&#45;&gt;Node11 -->
<g id="edge13" class="edge">
<title>Node12&#45;&gt;Node11</title>
<path fill="none" stroke="#9a32cd" stroke-dasharray="5,2" d="M1175.45,-653.43C1206.34,-648.72 1245.66,-641.75 1280,-632.67 1293.68,-629.05 1308.58,-623.82 1320.6,-619.27"/>
<polygon fill="#9a32cd" stroke="#9a32cd" points="1174.69,-650.01 1165.32,-654.94 1175.73,-656.93 1174.69,-650.01"/>
<text text-anchor="middle" x="1243.5" y="-650.67" font-family="Fira Code" font-size="10.00"> window</text>
</g>
<!-- Node13 -->
<g id="node13" class="node">
<title>Node13</title>
<g id="a_node13"><a xlink:title=" ">
<polygon fill="white" stroke="black" points="1070,-575.17 1070,-594.17 1171,-594.17 1171,-575.17 1070,-575.17"/>
<text text-anchor="middle" x="1120.5" y="-582.17" font-family="Fira Code" font-size="10.00">SDL_Renderer *</text>
</a>
</g>
</g>
<!-- Node13&#45;&gt;Node11 -->
<g id="edge14" class="edge">
<title>Node13&#45;&gt;Node11</title>
<path fill="none" stroke="#9a32cd" stroke-dasharray="5,2" d="M1181.44,-588.81C1211.15,-591.16 1247.53,-594.47 1280,-598.67 1288.67,-599.79 1297.97,-601.23 1306.72,-602.7"/>
<polygon fill="#9a32cd" stroke="#9a32cd" points="1181.47,-585.3 1171.23,-588.02 1180.93,-592.28 1181.47,-585.3"/>
<text text-anchor="middle" x="1243.5" y="-601.67" font-family="Fira Code" font-size="10.00"> renderer</text>
</g>
<!-- Node14 -->
<g id="node14" class="node">
<title>Node14</title>
<g id="a_node14"><a xlink:href="struct_font_book.html" target="_top" xlink:title=" ">
<polygon fill="white" stroke="black" points="1088,-613.17 1088,-632.17 1153,-632.17 1153,-613.17 1088,-613.17"/>
<text text-anchor="middle" x="1120.5" y="-620.17" font-family="Fira Code" font-size="10.00">FontBook</text>
</a>
</g>
</g>
<!-- Node14&#45;&gt;Node11 -->
<g id="edge15" class="edge">
<title>Node14&#45;&gt;Node11</title>
<path fill="none" stroke="#9a32cd" stroke-dasharray="5,2" d="M1163.44,-620.22C1204.63,-617.82 1266.92,-614.19 1306.64,-611.87"/>
<polygon fill="#9a32cd" stroke="#9a32cd" points="1163.23,-616.73 1153.45,-620.8 1163.64,-623.71 1163.23,-616.73"/>
<text text-anchor="middle" x="1243.5" y="-620.67" font-family="Fira Code" font-size="10.00"> fonts</text>
</g>
<!-- Node15&#45;&gt;Node14 -->
<g id="edge16" class="edge">
<title>Node15&#45;&gt;Node14</title>
<path fill="none" stroke="#9a32cd" stroke-dasharray="5,2" d="M920.18,-610.48C963.42,-613.12 1043.4,-618.01 1087.77,-620.73"/>
<polygon fill="#9a32cd" stroke="#9a32cd" points="920.22,-606.98 910.02,-609.86 919.79,-613.96 920.22,-606.98"/>
<text text-anchor="middle" x="1000.5" y="-620.67" font-family="Fira Code" font-size="10.00"> fpsFont</text>
</g>
<!-- Node16 -->
<g id="node16" class="node">
<title>Node16</title>
<g id="a_node16"><a xlink:title=" ">
<polygon fill="white" stroke="black" points="617,-638.17 617,-657.17 694,-657.17 694,-638.17 617,-638.17"/>
<text text-anchor="middle" x="655.5" y="-645.17" font-family="Fira Code" font-size="10.00">TTF_Font *</text>
</a>
</g>
</g>
<!-- Node16&#45;&gt;Node15 -->
<g id="edge17" class="edge">
<title>Node16&#45;&gt;Node15</title>
<path fill="none" stroke="#9a32cd" stroke-dasharray="5,2" d="M704.08,-641.91C734.94,-637.94 775.97,-632.21 812,-625.67 831.41,-622.14 853.37,-617.16 868.77,-613.49"/>
<polygon fill="#9a32cd" stroke="#9a32cd" points="703.5,-638.46 694.02,-643.19 704.38,-645.4 703.5,-638.46"/>
<text text-anchor="middle" x="778.5" y="-639.67" font-family="Fira Code" font-size="10.00"> font</text>
</g>
<!-- Node17 -->
<g id="node17" class="node">
<title>Node17</title>
<g id="a_node17"><a xlink:title=" ">
<polygon fill="white" stroke="black" points="608,-570.17 608,-589.17 703,-589.17 703,-570.17 608,-570.17"/>
<text text-anchor="middle" x="655.5" y="-577.17" font-family="Fira Code" font-size="10.00">SDL_Texture *</text>
</a>
</g>
</g>
<!-- Node17&#45;&gt;Node15 -->
<g id="edge18" class="edge">
<title>Node17&#45;&gt;Node15</title>
<path fill="none" stroke="#9a32cd" stroke-dasharray="5,2" d="M713.32,-575.38C742.96,-574.31 779.68,-574.83 812,-580.67 832.04,-584.28 853.74,-592.69 868.89,-599.35"/>
<polygon fill="#9a32cd" stroke="#9a32cd" points="712.99,-571.89 703.15,-575.82 713.29,-578.89 712.99,-571.89"/>
<text text-anchor="middle" x="778.5" y="-583.67" font-family="Fira Code" font-size="10.00"> tex</text>
</g>
<!-- Node18&#45;&gt;Node11 -->
<g id="edge21" class="edge">
<title>Node18&#45;&gt;Node11</title>
<path fill="none" stroke="#9a32cd" stroke-dasharray="5,2" d="M1150.31,-378.43C1163.9,-386.76 1179.25,-398.38 1189,-412.67 1206.87,-438.84 1187.77,-456.47 1207,-481.67 1229.71,-511.42 1251.98,-498.85 1280,-523.67 1306.55,-547.17 1329.22,-583.16 1339.14,-600.15"/>
<polygon fill="#9a32cd" stroke="#9a32cd" points="1151.67,-375.17 1141.26,-373.19 1148.16,-381.23 1151.67,-375.17"/>
<text text-anchor="middle" x="1243.5" y="-526.67" font-family="Fira Code" font-size="10.00"> mouseCursor</text>
</g>
<!-- Node19 -->
<g id="node19" class="node">
<title>Node19</title>
<g id="a_node19"><a xlink:title=" ">
<polygon fill="white" stroke="black" points="854,-352.17 854,-371.17 925,-371.17 925,-352.17 854,-352.17"/>
<text text-anchor="middle" x="889.5" y="-359.17" font-family="Fira Code" font-size="10.00">SDL_Color</text>
</a>
</g>
</g>
<!-- Node19&#45;&gt;Node18 -->
<g id="edge22" class="edge">
<title>Node19&#45;&gt;Node18</title>
<path fill="none" stroke="#9a32cd" stroke-dasharray="5,2" d="M935.72,-362.06C974.41,-362.4 1030.02,-362.88 1069.93,-363.23"/>
<polygon fill="#9a32cd" stroke="#9a32cd" points="935.31,-358.56 925.28,-361.97 935.25,-365.56 935.31,-358.56"/>
<text text-anchor="middle" x="1000.5" y="-366.67" font-family="Fira Code" font-size="10.00"> color</text>
</g>
<!-- Node20 -->
<g id="node20" class="node">
<title>Node20</title>
<g id="a_node20"><a xlink:href="struct_game_context.html" target="_top" xlink:title="Parent node of the entire game state.">
<polygon fill="white" stroke="black" points="434,-682.17 434,-701.17 517,-701.17 517,-682.17 434,-682.17"/>
<text text-anchor="middle" x="475.5" y="-689.17" font-family="Fira Code" font-size="10.00">GameContext</text>
</a>
</g>
</g>
<!-- Node20&#45;&gt;Node1 -->
<g id="edge24" class="edge">
<title>Node20&#45;&gt;Node1</title>
<path fill="none" stroke="#9a32cd" stroke-dasharray="5,2" d="M527.39,-691.67C559.3,-691.67 599.27,-691.67 625.78,-691.67"/>
<polygon fill="#9a32cd" stroke="#9a32cd" points="527.34,-688.17 517.34,-691.67 527.34,-695.17 527.34,-688.17"/>
<text text-anchor="middle" x="550.5" y="-694.67" font-family="Fira Code" font-size="10.00"> game</text>
</g>
<!-- Node21 -->
<g id="node21" class="node">
<title>Node21</title>
<g id="a_node21"><a xlink:href="struct_sim_clock.html" target="_top" xlink:title="Represents time inside the game world.">
<polygon fill="white" stroke="black" points="275,-705.17 275,-724.17 340,-724.17 340,-705.17 275,-705.17"/>
<text text-anchor="middle" x="307.5" y="-712.17" font-family="Fira Code" font-size="10.00">SimClock</text>
</a>
</g>
</g>
<!-- Node21&#45;&gt;Node20 -->
<g id="edge25" class="edge">
<title>Node21&#45;&gt;Node20</title>
<path fill="none" stroke="#9a32cd" stroke-dasharray="5,2" d="M350.26,-708.88C375.86,-705.33 408.48,-700.81 433.87,-697.29"/>
<polygon fill="#9a32cd" stroke="#9a32cd" points="349.54,-705.45 340.11,-710.29 350.5,-712.38 349.54,-705.45"/>
<text text-anchor="middle" x="394.5" y="-707.67" font-family="Fira Code" font-size="10.00"> clock</text>
</g>
<!-- Node22 -->
<g id="node22" class="node">
<title>Node22</title>
<g id="a_node22"><a xlink:href="struct_wall_clock.html" target="_top" xlink:title="Represents real outside&#45;world time.">
<polygon fill="white" stroke="black" points="118,-799.17 118,-818.17 189,-818.17 189,-799.17 118,-799.17"/>
<text text-anchor="middle" x="153.5" y="-806.17" font-family="Fira Code" font-size="10.00">WallClock</text>
</a>
</g>
</g>
<!-- Node22&#45;&gt;Node21 -->
<g id="edge26" class="edge">
<title>Node22&#45;&gt;Node21</title>
<path fill="none" stroke="#9a32cd" stroke-dasharray="5,2" d="M178.53,-793.8C210.06,-774.3 264.5,-740.64 291.05,-724.22"/>
<polygon fill="#9a32cd" stroke="#9a32cd" points="176.58,-790.9 169.91,-799.14 180.26,-796.85 176.58,-790.9"/>
<text text-anchor="middle" x="226.5" y="-775.67" font-family="Fira Code" font-size="10.00"> real</text>
</g>
<!-- Node23 -->
<g id="node23" class="node">
<title>Node23</title>
<g id="a_node23"><a xlink:title=" ">
<polygon fill="white" stroke="black" points="0,-721.17 0,-740.17 65,-740.17 65,-721.17 0,-721.17"/>
<text text-anchor="middle" x="32.5" y="-728.17" font-family="Fira Code" font-size="10.00">uint64_t</text>
</a>
</g>
</g>
<!-- Node23&#45;&gt;Node21 -->
<g id="edge28" class="edge">
<title>Node23&#45;&gt;Node21</title>
<path fill="none" stroke="#9a32cd" stroke-dasharray="5,2" d="M75.32,-726.71C87.76,-725.62 101.42,-724.51 114,-723.67 170.58,-719.88 236.63,-717.16 274.8,-715.76"/>
<polygon fill="#9a32cd" stroke="#9a32cd" points="74.86,-723.24 65.21,-727.61 75.48,-730.21 74.86,-723.24"/>
<text text-anchor="middle" x="153.5" y="-781.67" font-family="Fira Code" font-size="10.00"> Dt</text>
<text text-anchor="middle" x="153.5" y="-770.67" font-family="Fira Code" font-size="10.00">period</text>
<text text-anchor="middle" x="153.5" y="-759.67" font-family="Fira Code" font-size="10.00">t</text>
<text text-anchor="middle" x="153.5" y="-748.67" font-family="Fira Code" font-size="10.00">tick</text>
<text text-anchor="middle" x="153.5" y="-737.67" font-family="Fira Code" font-size="10.00">tpsAccumNs</text>
<text text-anchor="middle" x="153.5" y="-726.67" font-family="Fira Code" font-size="10.00">tpsAccumTicks</text>
</g>
<!-- Node23&#45;&gt;Node22 -->
<g id="edge27" class="edge">
<title>Node23&#45;&gt;Node22</title>
<path fill="none" stroke="#9a32cd" stroke-dasharray="5,2" d="M56.06,-746.09C72.12,-757 94.27,-771.91 114,-784.67 121.41,-789.46 129.7,-794.65 136.69,-798.98"/>
<polygon fill="#9a32cd" stroke="#9a32cd" points="57.6,-742.91 47.37,-740.17 53.66,-748.69 57.6,-742.91"/>
<text text-anchor="middle" x="89.5" y="-784.67" font-family="Fira Code" font-size="10.00"> t</text>
<text text-anchor="middle" x="89.5" y="-773.67" font-family="Fira Code" font-size="10.00">t0</text>
</g>
<!-- Node24 -->
<g id="node24" class="node">
<title>Node24</title>
<g id="a_node24"><a xlink:title=" ">
<polygon fill="white" stroke="black" points="130,-659.17 130,-678.17 177,-678.17 177,-659.17 130,-659.17"/>
<text text-anchor="middle" x="153.5" y="-666.17" font-family="Fira Code" font-size="10.00">float</text>
</a>
</g>
</g>
<!-- Node24&#45;&gt;Node21 -->
<g id="edge29" class="edge">
<title>Node24&#45;&gt;Node21</title>
<path fill="none" stroke="#9a32cd" stroke-dasharray="5,2" d="M187.66,-669.38C204.3,-670.5 224.57,-673.05 242,-678.67 242.32,-678.77 270.33,-694.43 289.33,-705.05"/>
<polygon fill="#9a32cd" stroke="#9a32cd" points="187.48,-665.87 177.31,-668.83 187.11,-672.86 187.48,-665.87"/>
<text text-anchor="middle" x="226.5" y="-692.67" font-family="Fira Code" font-size="10.00"> dt</text>
<text text-anchor="middle" x="226.5" y="-681.67" font-family="Fira Code" font-size="10.00">tps</text>
</g>
<!-- Node25 -->
<g id="node25" class="node">
<title>Node25</title>
<g id="a_node25"><a xlink:title=" ">
<polygon fill="white" stroke="black" points="260,-660.17 260,-679.17 355,-679.17 355,-660.17 260,-660.17"/>
<text text-anchor="middle" x="307.5" y="-667.17" font-family="Fira Code" font-size="10.00">volatile bool</text>
</a>
</g>
</g>
<!-- Node25&#45;&gt;Node20 -->
<g id="edge30" class="edge">
<title>Node25&#45;&gt;Node20</title>
<path fill="none" stroke="#9a32cd" stroke-dasharray="5,2" d="M365.17,-666.65C381.66,-666.73 399.64,-667.74 416,-670.67 428.75,-672.95 442.4,-677.7 453.3,-682.11"/>
<polygon fill="#9a32cd" stroke="#9a32cd" points="365.09,-663.15 355.11,-666.72 365.14,-670.15 365.09,-663.15"/>
<text text-anchor="middle" x="394.5" y="-684.67" font-family="Fira Code" font-size="10.00"> paused</text>
<text text-anchor="middle" x="394.5" y="-673.67" font-family="Fira Code" font-size="10.00">running</text>
</g>
<!-- Node26 -->
<g id="node26" class="node">
<title>Node26</title>
<g id="a_node26"><a xlink:href="struct_input_context.html" target="_top" xlink:title="Represents the complete state of all input devices and all buffered inputs.">
<polygon fill="white" stroke="black" points="1496,-182.17 1496,-201.17 1585,-201.17 1585,-182.17 1496,-182.17"/>
<text text-anchor="middle" x="1540.5" y="-189.17" font-family="Fira Code" font-size="10.00">InputContext</text>
</a>
</g>
</g>
<!-- Node26&#45;&gt;Node1 -->
<g id="edge31" class="edge">
<title>Node26&#45;&gt;Node1</title>
<path fill="none" stroke="#9a32cd" stroke-dasharray="5,2" d="M1537.08,-211.33C1524.4,-309.81 1461.92,-744.67 1346.5,-744.67 888.5,-744.67 888.5,-744.67 888.5,-744.67 811.45,-744.67 723.53,-716.54 681.48,-701.26"/>
<polygon fill="#9a32cd" stroke="#9a32cd" points="1540.57,-211.62 1538.35,-201.26 1533.62,-210.75 1540.57,-211.62"/>
<text text-anchor="middle" x="1120.5" y="-747.67" font-family="Fira Code" font-size="10.00"> input</text>
</g>
<!-- Node27&#45;&gt;Node26 -->
<g id="edge32" class="edge">
<title>Node27&#45;&gt;Node26</title>
<path fill="none" stroke="#9a32cd" stroke-dasharray="5,2" d="M1403.4,-207.88C1432.95,-204.36 1468.5,-200.13 1495.86,-196.87"/>
<polygon fill="#9a32cd" stroke="#9a32cd" points="1402.74,-204.44 1393.22,-209.1 1403.56,-211.39 1402.74,-204.44"/>
<text text-anchor="middle" x="1444.5" y="-220.67" font-family="Fira Code" font-size="10.00"> keybinds</text>
<text text-anchor="middle" x="1444.5" y="-209.67" font-family="Fira Code" font-size="10.00">mousebinds</text>
</g>
<!-- Node28 -->
<g id="node28" class="node">
<title>Node28</title>
<g id="a_node28"><a xlink:title=" ">
<polygon fill="white" stroke="black" points="1052,-184.17 1052,-203.17 1189,-203.17 1189,-184.17 1052,-184.17"/>
<text text-anchor="middle" x="1120.5" y="-191.17" font-family="Fira Code" font-size="10.00">enum InputDeviceType</text>
</a>
</g>
</g>
<!-- Node28&#45;&gt;Node27 -->
<g id="edge35" class="edge">
<title>Node28&#45;&gt;Node27</title>
<path fill="none" stroke="#9a32cd" stroke-dasharray="5,2" d="M1199.16,-198.56C1224.91,-200.45 1253.72,-202.84 1280,-205.67 1285.73,-206.28 1291.74,-207.01 1297.69,-207.78"/>
<polygon fill="#9a32cd" stroke="#9a32cd" points="1199.3,-195.06 1189.07,-197.84 1198.79,-202.05 1199.3,-195.06"/>
<text text-anchor="middle" x="1243.5" y="-208.67" font-family="Fira Code" font-size="10.00"> type</text>
</g>
<!-- Node29&#45;&gt;Node27 -->
<g id="edge36" class="edge">
<title>Node29&#45;&gt;Node27</title>
<path fill="none" stroke="#9a32cd" stroke-dasharray="5,2" d="M1160.41,-228.7C1198.61,-225.79 1256.91,-221.34 1297.64,-218.24"/>
<polygon fill="#9a32cd" stroke="#9a32cd" points="1159.9,-225.23 1150.2,-229.48 1160.43,-232.21 1159.9,-225.23"/>
<text text-anchor="middle" x="1243.5" y="-228.67" font-family="Fira Code" font-size="10.00"> keybind</text>
</g>
<!-- Node30 -->
<g id="node30" class="node">
<title>Node30</title>
<g id="a_node30"><a xlink:title=" ">
<polygon fill="white" stroke="black" points="839,-218.17 839,-237.17 940,-237.17 940,-218.17 839,-218.17"/>
<text text-anchor="middle" x="889.5" y="-225.17" font-family="Fira Code" font-size="10.00">unsigned short</text>
</a>
</g>
</g>
<!-- Node30&#45;&gt;Node29 -->
<g id="edge37" class="edge">
<title>Node30&#45;&gt;Node29</title>
<path fill="none" stroke="#9a32cd" stroke-dasharray="5,2" d="M950.65,-227.71C976.33,-227.82 1006.63,-228.09 1034,-228.67 1052.86,-229.06 1074.05,-229.8 1090.62,-230.45"/>
<polygon fill="#9a32cd" stroke="#9a32cd" points="950.33,-224.21 940.31,-227.67 950.3,-231.21 950.33,-224.21"/>
<text text-anchor="middle" x="1000.5" y="-231.67" font-family="Fira Code" font-size="10.00"> keyIndex</text>
</g>
<!-- Node31 -->
<g id="node31" class="node">
<title>Node31</title>
<g id="a_node31"><a xlink:title=" ">
<polygon fill="white" stroke="black" points="830,-164.17 830,-183.17 949,-183.17 949,-164.17 830,-164.17"/>
<text text-anchor="middle" x="889.5" y="-171.17" font-family="Fira Code" font-size="10.00">enum ModifierKeys</text>
</a>
</g>
</g>
<!-- Node31&#45;&gt;Node29 -->
<g id="edge38" class="edge">
<title>Node31&#45;&gt;Node29</title>
<path fill="none" stroke="#9a32cd" stroke-dasharray="5,2" d="M937.83,-185.65C983.98,-197.34 1052.64,-214.73 1090.98,-224.44"/>
<polygon fill="#9a32cd" stroke="#9a32cd" points="938.61,-182.24 928.06,-183.18 936.89,-189.03 938.61,-182.24"/>
<text text-anchor="middle" x="1000.5" y="-212.67" font-family="Fira Code" font-size="10.00"> mod</text>
</g>
<!-- Node31&#45;&gt;Node32 -->
<g id="edge42" class="edge">
<title>Node31&#45;&gt;Node32</title>
<path fill="none" stroke="#9a32cd" stroke-dasharray="5,2" d="M950.53,-162.67C956.08,-161.9 961.64,-161.21 967,-160.67 1007.32,-156.6 1053.92,-155.61 1084.89,-155.47"/>
<polygon fill="#9a32cd" stroke="#9a32cd" points="949.95,-159.22 940.57,-164.16 950.98,-166.15 949.95,-159.22"/>
<text text-anchor="middle" x="1000.5" y="-163.67" font-family="Fira Code" font-size="10.00"> mod</text>
</g>
<!-- Node32&#45;&gt;Node27 -->
<g id="edge40" class="edge">
<title>Node32&#45;&gt;Node27</title>
<path fill="none" stroke="#9a32cd" stroke-dasharray="5,2" d="M1166.12,-160.74C1198.3,-165.14 1242.48,-172.72 1280,-184.67 1296.59,-189.95 1314.47,-198.51 1327.19,-205.14"/>
<polygon fill="#9a32cd" stroke="#9a32cd" points="1166.5,-157.26 1156.13,-159.42 1165.58,-164.2 1166.5,-157.26"/>
<text text-anchor="middle" x="1243.5" y="-187.67" font-family="Fira Code" font-size="10.00"> mousebind</text>
</g>
<!-- Node33 -->
<g id="node33" class="node">
<title>Node33</title>
<g id="a_node33"><a xlink:title=" ">
<polygon fill="white" stroke="black" points="830,-113.17 830,-132.17 949,-132.17 949,-113.17 830,-113.17"/>
<text text-anchor="middle" x="889.5" y="-120.17" font-family="Fira Code" font-size="10.00">enum MouseButtons</text>
</a>
</g>
</g>
<!-- Node33&#45;&gt;Node32 -->
<g id="edge41" class="edge">
<title>Node33&#45;&gt;Node32</title>
<path fill="none" stroke="#9a32cd" stroke-dasharray="5,2" d="M959.17,-131.32C982.9,-134.43 1009.64,-138.06 1034,-141.67 1050.66,-144.13 1069.11,-147.12 1084.59,-149.7"/>
<polygon fill="#9a32cd" stroke="#9a32cd" points="959.57,-127.85 949.2,-130.03 958.67,-134.79 959.57,-127.85"/>
<text text-anchor="middle" x="1000.5" y="-144.67" font-family="Fira Code" font-size="10.00"> button</text>
</g>
<!-- Node33&#45;&gt;Node36 -->
<g id="edge48" class="edge">
<title>Node33&#45;&gt;Node36</title>
<path fill="none" stroke="#9a32cd" stroke-dasharray="5,2" d="M918.3,-108.91C932.5,-102.63 950.27,-95.89 967,-92.67 1006.91,-84.98 1053.79,-86.16 1084.93,-88.32"/>
<polygon fill="#9a32cd" stroke="#9a32cd" points="916.72,-105.78 909.1,-113.14 919.64,-112.15 916.72,-105.78"/>
<text text-anchor="middle" x="1000.5" y="-95.67" font-family="Fira Code" font-size="10.00"> buttons</text>
</g>
<!-- Node34 -->
<g id="node34" class="node">
<title>Node34</title>
<g id="a_node34"><a xlink:title=" ">
<polygon fill="white" stroke="black" points="1076,-260.17 1076,-279.17 1165,-279.17 1165,-260.17 1076,-260.17"/>
<text text-anchor="middle" x="1120.5" y="-267.17" font-family="Fira Code" font-size="10.00">anonymous:@1</text>
</a>
</g>
</g>
<!-- Node34&#45;&gt;Node27 -->
<g id="edge44" class="edge">
<title>Node34&#45;&gt;Node27</title>
<path fill="none" stroke="#9a32cd" stroke-dasharray="5,2" d="M1175.26,-262.59C1206.24,-257.83 1245.72,-250.6 1280,-240.67 1295.08,-236.3 1311.47,-229.66 1323.96,-224.19"/>
<polygon fill="#9a32cd" stroke="#9a32cd" points="1174.47,-259.17 1165.1,-264.11 1175.51,-266.1 1174.47,-259.17"/>
<text text-anchor="middle" x="1243.5" y="-259.67" font-family="Fira Code" font-size="10.00"> @1</text>
</g>
<!-- Node35 -->
<g id="node35" class="node">
<title>Node35</title>
<g id="a_node35"><a xlink:title=" ">
<polygon fill="white" stroke="black" points="1319,-160.17 1319,-179.17 1372,-179.17 1372,-160.17 1319,-160.17"/>
<text text-anchor="middle" x="1345.5" y="-167.17" font-family="Fira Code" font-size="10.00">size_t</text>
</a>
</g>
</g>
<!-- Node35&#45;&gt;Node26 -->
<g id="edge45" class="edge">
<title>Node35&#45;&gt;Node26</title>
<path fill="none" stroke="#9a32cd" stroke-dasharray="5,2" d="M1382.42,-166.86C1409.01,-165.52 1446.01,-165.23 1478,-170.67 1491.35,-172.93 1505.69,-177.69 1517.17,-182.1"/>
<polygon fill="#9a32cd" stroke="#9a32cd" points="1382.2,-163.36 1372.42,-167.43 1382.6,-170.35 1382.2,-163.36"/>
<text text-anchor="middle" x="1444.5" y="-184.67" font-family="Fira Code" font-size="10.00"> nKeybinds</text>
<text text-anchor="middle" x="1444.5" y="-173.67" font-family="Fira Code" font-size="10.00">nMousebinds</text>
</g>
<!-- Node36&#45;&gt;Node26 -->
<g id="edge46" class="edge">
<title>Node36&#45;&gt;Node26</title>
<path fill="none" stroke="#9a32cd" stroke-dasharray="5,2" d="M1166.18,-96.05C1234.92,-103.78 1369.97,-122.93 1478,-162.67 1492.96,-168.17 1509.24,-175.93 1521.29,-182.04"/>
<polygon fill="#9a32cd" stroke="#9a32cd" points="1166.46,-92.55 1156.13,-94.94 1165.69,-99.51 1166.46,-92.55"/>
<text text-anchor="middle" x="1345.5" y="-138.67" font-family="Fira Code" font-size="10.00"> mouse</text>
</g>
</g>
</svg>
        <g id="navigator" transform="translate(0 0)" fill="#404254">
                <rect fill="#f2f5e9" fill-opacity="0.5" stroke="#606060" stroke-width=".5" x="0" y="0" width="60" height="60"/>
                <use id="zoomplus" xlink:href="#zoomPlus" x="17" y="9" onmousedown="handleZoom(evt,'in')"/>
                <use id="zoomminus" xlink:href="#zoomMin" x="42" y="9" onmousedown="handleZoom(evt,'out')"/>
                <use id="reset" xlink:href="#resetDef" x="30" y="36" onmousedown="handleReset()"/>
                <g id="arrowUp" xlink:href="#dirArrow" transform="translate(30 24)" onmousedown="handlePan(0,-1)">
                  <use xlink:href="#rim" fill="#404040">
                        <set attributeName="fill" to="#808080" begin="arrowUp.mouseover" end="arrowUp.mouseout"/>
                  </use>
                  <path fill="none" stroke="white" stroke-width="1.5" d="M0,-3.0v7 M-2.5,-0.5L0,-3.0L2.5,-0.5"/>
                </g>
                <g id="arrowRight" xlink:href="#dirArrow" transform="rotate(90) translate(36 -43)" onmousedown="handlePan(1,0)">
                  <use xlink:href="#rim" fill="#404040">
                        <set attributeName="fill" to="#808080" begin="arrowRight.mouseover" end="arrowRight.mouseout"/>
                  </use>
                  <path fill="none" stroke="white" stroke-width="1.5" d="M0,-3.0v7 M-2.5,-0.5L0,-3.0L2.5,-0.5"/>
                </g>
                <g id="arrowDown" xlink:href="#dirArrow" transform="rotate(180) translate(-30 -48)" onmousedown="handlePan(0,1)">
                  <use xlink:href="#rim" fill="#404040">
                        <set attributeName="fill" to="#808080" begin="arrowDown.mouseover" end="arrowDown.mouseout"/>
                  </use>
                  <path fill="none" stroke="white" stroke-width="1.5" d="M0,-3.0v7 M-2.5,-0.5L0,-3.0L2.5,-0.5"/>
                </g>
                <g id="arrowLeft" xlink:href="#dirArrow" transform="rotate(270) translate(-36 17)" onmousedown="handlePan(-1,0)">
                  <use xlink:href="#rim" fill="#404040">
                        <set attributeName="fill" to="#808080" begin="arrowLeft.mouseover" end="arrowLeft.mouseout"/>
                  </use>
                  <path fill="none" stroke="white" stroke-width="1.5" d="M0,-3.0v7 M-2.5,-0.5L0,-3.0L2.5,-0.5"/>
                </g>
        </g>
        <svg viewBox="0 0 15 15" width="100%" height="30px" preserveAspectRatio="xMaxYMin meet">
         <g id="arrow_out" transform="scale(0.3 0.3)">
          <a xlink:href="struct_context__coll__graph_org.svg" target="_base">
           <rect id="button" ry="5" rx="5" y="6" x="6" height="38" width="38"
                fill="#f2f5e9" fill-opacity="0.5" stroke="#606060" stroke-width="1.0"/>
           <path id="arrow"
             d="M 11.500037,31.436501 C 11.940474,20.09759 22.043105,11.32322 32.158766,21.979434 L 37.068811,17.246167 C 37.068811,17.246167 37.088388,32 37.088388,32 L 22.160133,31.978069 C 22.160133,31.978069 26.997745,27.140456 26.997745,27.140456 C 18.528582,18.264221 13.291696,25.230495 11.500037,31.436501 z"
             style="fill:#404040;"/>
          </a>
         </g>
        </svg>
</svg>
