<?xml version="1.0" encoding="UTF-8" standalone="no"?>
<!DOCTYPE svg PUBLIC "-//W3C//DTD SVG 1.1//EN"
 "http://www.w3.org/Graphics/SVG/1.1/DTD/svg11.dtd">
<!-- Generated by graphviz version 3.0.0 (20220226.1711)
 -->
<!-- Title: SimClock Pages: 1 -->
<svg width="258pt" height="230pt"
 viewBox="0.00 0.00 258.00 230.00" xmlns="http://www.w3.org/2000/svg" xmlns:xlink="http://www.w3.org/1999/xlink">
<g id="graph0" class="graph" transform="scale(1 1) rotate(0) translate(4 226)">
<title>SimClock</title>
<polygon fill="white" stroke="transparent" points="-4,4 -4,-226 254,-226 254,4 -4,4"/>
<!-- Node1 -->
<g id="node1" class="node">
<title>Node1</title>
<g id="a_node1"><a xlink:title="Represents time inside the game world.">
<polygon fill="#bfbfbf" stroke="black" points="117,-0.5 117,-19.5 182,-19.5 182,-0.5 117,-0.5"/>
<text text-anchor="middle" x="149.5" y="-7.5" font-family="Fira Code" font-size="10.00">SimClock</text>
</a>
</g>
</g>
<!-- Node2 -->
<g id="node2" class="node">
<title>Node2</title>
<g id="a_node2"><a xlink:href="struct_wall_clock.html" target="_top" xlink:title="Represents real outside&#45;world time.">
<polygon fill="white" stroke="black" points="114,-101.5 114,-120.5 185,-120.5 185,-101.5 114,-101.5"/>
<text text-anchor="middle" x="149.5" y="-108.5" font-family="Fira Code" font-size="10.00">WallClock</text>
</a>
</g>
</g>
<!-- Node2&#45;&gt;Node1 -->
<g id="edge1" class="edge">
<title>Node2&#45;&gt;Node1</title>
<path fill="none" stroke="#9a32cd" stroke-dasharray="5,2" d="M149.5,-91.03C149.5,-69.54 149.5,-35.47 149.5,-19.62"/>
<polygon fill="#9a32cd" stroke="#9a32cd" points="146,-91.21 149.5,-101.21 153,-91.21 146,-91.21"/>
<text text-anchor="middle" x="165" y="-46.5" font-family="Fira Code" font-size="10.00"> real</text>
</g>
<!-- Node3 -->
<g id="node3" class="node">
<title>Node3</title>
<g id="a_node3"><a xlink:title=" ">
<polygon fill="white" stroke="black" points="0,-202.5 0,-221.5 65,-221.5 65,-202.5 0,-202.5"/>
<text text-anchor="middle" x="32.5" y="-209.5" font-family="Fira Code" font-size="10.00">uint64_t</text>
</a>
</g>
</g>
<!-- Node3&#45;&gt;Node1 -->
<g id="edge3" class="edge">
<title>Node3&#45;&gt;Node1</title>
<path fill="none" stroke="#9a32cd" stroke-dasharray="5,2" d="M25.54,-192.72C16.45,-165.58 4.06,-113.96 25.5,-78 45.11,-45.11 87.09,-27.39 116.75,-18.59"/>
<polygon fill="#9a32cd" stroke="#9a32cd" points="22.35,-194.2 29.01,-202.44 28.94,-191.85 22.35,-194.2"/>
<text text-anchor="middle" x="65" y="-136" font-family="Fira Code" font-size="10.00"> Dt</text>
<text text-anchor="middle" x="65" y="-125" font-family="Fira Code" font-size="10.00">period</text>
<text text-anchor="middle" x="65" y="-114" font-family="Fira Code" font-size="10.00">t</text>
<text text-anchor="middle" x="65" y="-103" font-family="Fira Code" font-size="10.00">tick</text>
<text text-anchor="middle" x="65" y="-92" font-family="Fira Code" font-size="10.00">tpsAccumNs</text>
<text text-anchor="middle" x="65" y="-81" font-family="Fira Code" font-size="10.00">tpsAccumTicks</text>
</g>
<!-- Node3&#45;&gt;Node2 -->
<g id="edge2" class="edge">
<title>Node3&#45;&gt;Node2</title>
<path fill="none" stroke="#9a32cd" stroke-dasharray="5,2" d="M50.53,-195.75C75.41,-174.69 119.46,-137.42 139.31,-120.62"/>
<polygon fill="#9a32cd" stroke="#9a32cd" points="48.26,-193.08 42.88,-202.21 52.78,-198.43 48.26,-193.08"/>
<text text-anchor="middle" x="94" y="-176" font-family="Fira Code" font-size="10.00"> t</text>
<text text-anchor="middle" x="94" y="-165" font-family="Fira Code" font-size="10.00">t0</text>
</g>
<!-- Node4 -->
<g id="node4" class="node">
<title>Node4</title>
<g id="a_node4"><a xlink:title=" ">
<polygon fill="white" stroke="black" points="203,-101.5 203,-120.5 250,-120.5 250,-101.5 203,-101.5"/>
<text text-anchor="middle" x="226.5" y="-108.5" font-family="Fira Code" font-size="10.00">float</text>
</a>
</g>
</g>
<!-- Node4&#45;&gt;Node1 -->
<g id="edge4" class="edge">
<title>Node4&#45;&gt;Node1</title>
<path fill="none" stroke="#9a32cd" stroke-dasharray="5,2" d="M218.4,-91.92C210.96,-76.55 198.94,-54.43 184.5,-38 178.32,-30.97 170.08,-24.5 163.15,-19.67"/>
<polygon fill="#9a32cd" stroke="#9a32cd" points="215.38,-93.74 222.78,-101.33 221.73,-90.79 215.38,-93.74"/>
<text text-anchor="middle" x="209" y="-52" font-family="Fira Code" font-size="10.00"> dt</text>
<text text-anchor="middle" x="209" y="-41" font-family="Fira Code" font-size="10.00">tps</text>
</g>
</g>
</svg>
