<?xml version="1.0" encoding="UTF-8" standalone="no"?>
<!DOCTYPE svg PUBLIC "-//W3C//DTD SVG 1.1//EN"
 "http://www.w3.org/Graphics/SVG/1.1/DTD/svg11.dtd">
<!-- Generated by graphviz version 3.0.0 (20220226.1711)
 -->
<!-- Title: SdlContext Pages: 1 -->
<svg width="1741pt" height="643pt"
 viewBox="0.00 0.00 1741.00 643.00" xmlns="http://www.w3.org/2000/svg" xmlns:xlink="http://www.w3.org/1999/xlink">
<g id="graph0" class="graph" transform="scale(1 1) rotate(0) translate(4 639)">
<title>SdlContext</title>
<polygon fill="white" stroke="transparent" points="-4,4 -4,-639 1737,-639 1737,4 -4,4"/>
<!-- Node1 -->
<g id="node1" class="node">
<title>Node1</title>
<g id="a_node1"><a xlink:title="Parent node of the entire SDL state.">
<polygon fill="#bfbfbf" stroke="black" points="597,-296.5 597,-315.5 674,-315.5 674,-296.5 597,-296.5"/>
<text text-anchor="middle" x="635.5" y="-303.5" font-family="Fira Code" font-size="10.00">SdlContext</text>
</a>
</g>
</g>
<!-- Node12 -->
<g id="node12" class="node">
<title>Node12</title>
<g id="a_node12"><a xlink:href="struct_context.html" target="_top" xlink:title="The plugin context is a persistent state representing the entire application to the game plugin acros...">
<polygon fill="white" stroke="black" points="786,-429.5 786,-448.5 845,-448.5 845,-429.5 786,-429.5"/>
<text text-anchor="middle" x="815.5" y="-436.5" font-family="Fira Code" font-size="10.00">Context</text>
</a>
</g>
</g>
<!-- Node1&#45;&gt;Node12 -->
<g id="edge18" class="edge">
<title>Node1&#45;&gt;Node12</title>
<path fill="none" stroke="#9a32cd" stroke-dasharray="5,2" d="M657.42,-321.63C694.5,-349.34 770.71,-406.28 801.33,-429.16"/>
<polygon fill="#9a32cd" stroke="#9a32cd" points="659.41,-318.75 649.3,-315.57 655.22,-324.35 659.41,-318.75"/>
<text text-anchor="middle" x="710.5" y="-375" font-family="Fira Code" font-size="10.00"> sdl</text>
</g>
<!-- Node2 -->
<g id="node2" class="node">
<title>Node2</title>
<g id="a_node2"><a xlink:title=" ">
<polygon fill="white" stroke="black" points="390,-235.5 390,-254.5 479,-254.5 479,-235.5 390,-235.5"/>
<text text-anchor="middle" x="434.5" y="-242.5" font-family="Fira Code" font-size="10.00">SDL_Window *</text>
</a>
</g>
</g>
<!-- Node2&#45;&gt;Node1 -->
<g id="edge1" class="edge">
<title>Node2&#45;&gt;Node1</title>
<path fill="none" stroke="#9a32cd" stroke-dasharray="5,2" d="M489.07,-252.22C515.72,-256.76 548.12,-263.76 576,-274 591.65,-279.75 608.2,-289.15 619.69,-296.29"/>
<polygon fill="#9a32cd" stroke="#9a32cd" points="489.59,-248.75 479.15,-250.59 488.46,-255.66 489.59,-248.75"/>
<text text-anchor="middle" x="539.5" y="-277" font-family="Fira Code" font-size="10.00"> window</text>
</g>
<!-- Node3 -->
<g id="node3" class="node">
<title>Node3</title>
<g id="a_node3"><a xlink:title=" ">
<polygon fill="white" stroke="black" points="384,-273.5 384,-292.5 485,-292.5 485,-273.5 384,-273.5"/>
<text text-anchor="middle" x="434.5" y="-280.5" font-family="Fira Code" font-size="10.00">SDL_Renderer *</text>
</a>
</g>
</g>
<!-- Node3&#45;&gt;Node1 -->
<g id="edge2" class="edge">
<title>Node3&#45;&gt;Node1</title>
<path fill="none" stroke="#9a32cd" stroke-dasharray="5,2" d="M495.1,-287.49C520.13,-289.65 549.53,-292.52 576,-296 582.74,-296.89 589.9,-297.98 596.8,-299.12"/>
<polygon fill="#9a32cd" stroke="#9a32cd" points="495.28,-284 485.02,-286.64 494.69,-290.97 495.28,-284"/>
<text text-anchor="middle" x="539.5" y="-299" font-family="Fira Code" font-size="10.00"> renderer</text>
</g>
<!-- Node4 -->
<g id="node4" class="node">
<title>Node4</title>
<g id="a_node4"><a xlink:href="struct_font_book.html" target="_top" xlink:title=" ">
<polygon fill="white" stroke="black" points="402,-423.5 402,-442.5 467,-442.5 467,-423.5 402,-423.5"/>
<text text-anchor="middle" x="434.5" y="-430.5" font-family="Fira Code" font-size="10.00">FontBook</text>
</a>
</g>
</g>
<!-- Node4&#45;&gt;Node1 -->
<g id="edge3" class="edge">
<title>Node4&#45;&gt;Node1</title>
<path fill="none" stroke="#9a32cd" stroke-dasharray="5,2" d="M462.11,-418.4C469.58,-414.18 477.66,-409.5 485,-405 535.96,-373.77 594.57,-333.7 620.7,-315.61"/>
<polygon fill="#9a32cd" stroke="#9a32cd" points="460.1,-415.51 453.08,-423.45 463.52,-421.62 460.1,-415.51"/>
<text text-anchor="middle" x="539.5" y="-395" font-family="Fira Code" font-size="10.00"> fonts</text>
</g>
<!-- Node5 -->
<g id="node5" class="node">
<title>Node5</title>
<g id="a_node5"><a xlink:href="struct_text.html" target="_top" xlink:title="Represents a texture generated by rendering text in a TTF font.">
<polygon fill="white" stroke="black" points="213,-448.5 213,-467.5 254,-467.5 254,-448.5 213,-448.5"/>
<text text-anchor="middle" x="233.5" y="-455.5" font-family="Fira Code" font-size="10.00">Text</text>
</a>
</g>
</g>
<!-- Node5&#45;&gt;Node4 -->
<g id="edge4" class="edge">
<title>Node5&#45;&gt;Node4</title>
<path fill="none" stroke="#9a32cd" stroke-dasharray="5,2" d="M264.45,-454.24C301.41,-449.59 363.95,-441.74 401.72,-436.99"/>
<polygon fill="#9a32cd" stroke="#9a32cd" points="263.79,-450.79 254.31,-455.51 264.67,-457.74 263.79,-450.79"/>
<text text-anchor="middle" x="338.5" y="-450" font-family="Fira Code" font-size="10.00"> fpsFont</text>
</g>
<!-- Node6 -->
<g id="node6" class="node">
<title>Node6</title>
<g id="a_node6"><a xlink:title=" ">
<polygon fill="white" stroke="black" points="9,-449.5 9,-468.5 86,-468.5 86,-449.5 9,-449.5"/>
<text text-anchor="middle" x="47.5" y="-456.5" font-family="Fira Code" font-size="10.00">TTF_Font *</text>
</a>
</g>
</g>
<!-- Node6&#45;&gt;Node5 -->
<g id="edge5" class="edge">
<title>Node6&#45;&gt;Node5</title>
<path fill="none" stroke="#9a32cd" stroke-dasharray="5,2" d="M96.51,-458.74C134.46,-458.53 185.48,-458.26 212.98,-458.11"/>
<polygon fill="#9a32cd" stroke="#9a32cd" points="96.16,-455.24 86.18,-458.8 96.2,-462.24 96.16,-455.24"/>
<text text-anchor="middle" x="134.5" y="-461" font-family="Fira Code" font-size="10.00"> font</text>
</g>
<!-- Node7 -->
<g id="node7" class="node">
<title>Node7</title>
<g id="a_node7"><a xlink:title=" ">
<polygon fill="white" stroke="black" points="0,-487.5 0,-506.5 95,-506.5 95,-487.5 0,-487.5"/>
<text text-anchor="middle" x="47.5" y="-494.5" font-family="Fira Code" font-size="10.00">SDL_Texture *</text>
</a>
</g>
</g>
<!-- Node7&#45;&gt;Node5 -->
<g id="edge6" class="edge">
<title>Node7&#45;&gt;Node5</title>
<path fill="none" stroke="#9a32cd" stroke-dasharray="5,2" d="M103.63,-485.31C140.49,-477.5 186.81,-467.68 212.68,-462.2"/>
<polygon fill="#9a32cd" stroke="#9a32cd" points="102.57,-481.96 93.51,-487.46 104.02,-488.81 102.57,-481.96"/>
<text text-anchor="middle" x="134.5" y="-486" font-family="Fira Code" font-size="10.00"> tex</text>
</g>
<!-- Node8 -->
<g id="node8" class="node">
<title>Node8</title>
<g id="a_node8"><a xlink:title=" ">
<polygon fill="white" stroke="black" points="30,-371.5 30,-390.5 65,-390.5 65,-371.5 30,-371.5"/>
<text text-anchor="middle" x="47.5" y="-378.5" font-family="Fira Code" font-size="10.00">int</text>
</a>
</g>
</g>
<!-- Node8&#45;&gt;Node5 -->
<g id="edge7" class="edge">
<title>Node8&#45;&gt;Node5</title>
<path fill="none" stroke="#9a32cd" stroke-dasharray="5,2" d="M74.48,-394.11C99.59,-406.52 138.88,-425.24 174,-439 186.73,-443.99 201.35,-448.74 212.79,-452.24"/>
<polygon fill="#9a32cd" stroke="#9a32cd" points="75.79,-390.85 65.27,-389.53 72.67,-397.12 75.79,-390.85"/>
<text text-anchor="middle" x="134.5" y="-444" font-family="Fira Code" font-size="10.00"> height</text>
<text text-anchor="middle" x="134.5" y="-433" font-family="Fira Code" font-size="10.00">width</text>
</g>
<!-- Node14 -->
<g id="node14" class="node">
<title>Node14</title>
<g id="a_node14"><a xlink:href="struct_log_state.html" target="_top" xlink:title="Used to persist the log output streams between hot&#45;reloads.">
<polygon fill="white" stroke="black" points="402,-376.5 402,-395.5 467,-395.5 467,-376.5 402,-376.5"/>
<text text-anchor="middle" x="434.5" y="-383.5" font-family="Fira Code" font-size="10.00">LogState</text>
</a>
</g>
</g>
<!-- Node8&#45;&gt;Node14 -->
<g id="edge15" class="edge">
<title>Node8&#45;&gt;Node14</title>
<path fill="none" stroke="#9a32cd" stroke-dasharray="5,2" d="M75.07,-381.35C143.9,-382.24 327.81,-384.63 401.91,-385.59"/>
<polygon fill="#9a32cd" stroke="#9a32cd" points="75.09,-377.85 65.04,-381.21 75,-384.84 75.09,-377.85"/>
<text text-anchor="middle" x="233.5" y="-387" font-family="Fira Code" font-size="10.00"> level</text>
</g>
<!-- Node34 -->
<g id="node34" class="node">
<title>Node34</title>
<g id="a_node34"><a xlink:href="struct_mouse_axes.html" target="_top" xlink:title="Represents the mouse state.">
<polygon fill="white" stroke="black" points="399,-174.5 399,-193.5 470,-193.5 470,-174.5 399,-174.5"/>
<text text-anchor="middle" x="434.5" y="-181.5" font-family="Fira Code" font-size="10.00">MouseAxes</text>
</a>
</g>
</g>
<!-- Node8&#45;&gt;Node34 -->
<g id="edge42" class="edge">
<title>Node8&#45;&gt;Node34</title>
<path fill="none" stroke="#9a32cd" stroke-dasharray="5,2" d="M64.01,-364.14C86.03,-341.41 128.73,-301.66 174,-283 253.45,-250.24 295.14,-308.64 366,-260 380.1,-250.32 373.29,-239.33 384,-226 394.17,-213.35 408.56,-201.64 419.2,-193.82"/>
<polygon fill="#9a32cd" stroke="#9a32cd" points="61.46,-361.74 57.11,-371.4 66.54,-366.56 61.46,-361.74"/>
<text text-anchor="middle" x="233.5" y="-308" font-family="Fira Code" font-size="10.00"> scroll</text>
<text text-anchor="middle" x="233.5" y="-297" font-family="Fira Code" font-size="10.00">x</text>
<text text-anchor="middle" x="233.5" y="-286" font-family="Fira Code" font-size="10.00">y</text>
</g>
<!-- Node9 -->
<g id="node9" class="node">
<title>Node9</title>
<g id="a_node9"><a xlink:href="struct_input_action.html" target="_top" xlink:title="An input action is triggered by a button binding and may respond to either activation or deactivation...">
<polygon fill="white" stroke="black" points="1233,-301.5 1233,-320.5 1316,-320.5 1316,-301.5 1233,-301.5"/>
<text text-anchor="middle" x="1274.5" y="-308.5" font-family="Fira Code" font-size="10.00">InputAction</text>
</a>
</g>
</g>
<!-- Node9&#45;&gt;Node1 -->
<g id="edge8" class="edge">
<title>Node9&#45;&gt;Node1</title>
<path fill="none" stroke="#9a32cd" stroke-dasharray="5,2" d="M1222.57,-310.6C1098.66,-309.63 783.62,-307.15 674.44,-306.3"/>
<polygon fill="#9a32cd" stroke="#9a32cd" points="1222.88,-314.1 1232.91,-310.68 1222.94,-307.1 1222.88,-314.1"/>
<text text-anchor="middle" x="941.5" y="-312" font-family="Fira Code" font-size="10.00"> clickAction</text>
</g>
<!-- Node11 -->
<g id="node11" class="node">
<title>Node11</title>
<g id="a_node11"><a xlink:href="struct_input_action_args.html" target="_top" xlink:title="Arguments to an input action callback.">
<polygon fill="white" stroke="black" points="996,-340.5 996,-359.5 1103,-359.5 1103,-340.5 996,-340.5"/>
<text text-anchor="middle" x="1049.5" y="-347.5" font-family="Fira Code" font-size="10.00">InputActionArgs</text>
</a>
</g>
</g>
<!-- Node9&#45;&gt;Node11 -->
<g id="edge44" class="edge">
<title>Node9&#45;&gt;Node11</title>
<path fill="none" stroke="#9a32cd" stroke-dasharray="5,2" d="M1222.64,-315.96C1192.86,-319.29 1154.61,-324.3 1121,-331 1108.2,-333.55 1094.28,-337.13 1082.22,-340.49"/>
<polygon fill="#9a32cd" stroke="#9a32cd" points="1223.24,-319.41 1232.8,-314.85 1222.48,-312.46 1223.24,-319.41"/>
<text text-anchor="middle" x="1154.5" y="-334" font-family="Fira Code" font-size="10.00"> action</text>
</g>
<!-- Node13 -->
<g id="node13" class="node">
<title>Node13</title>
<g id="a_node13"><a xlink:href="struct_host_context.html" target="_top" xlink:title="Provides the plugin with an interface to the host for platform and application&#45;level operations.">
<polygon fill="white" stroke="black" points="1452,-391.5 1452,-410.5 1535,-410.5 1535,-391.5 1452,-391.5"/>
<text text-anchor="middle" x="1493.5" y="-398.5" font-family="Fira Code" font-size="10.00">HostContext</text>
</a>
</g>
</g>
<!-- Node9&#45;&gt;Node13 -->
<g id="edge13" class="edge">
<title>Node9&#45;&gt;Node13</title>
<path fill="none" stroke="#9a32cd" stroke-dasharray="5,2" d="M1308.18,-324.55C1352.54,-342.95 1430.73,-375.38 1469.44,-391.44"/>
<polygon fill="#9a32cd" stroke="#9a32cd" points="1309.3,-321.23 1298.72,-320.63 1306.62,-327.7 1309.3,-321.23"/>
<text text-anchor="middle" x="1394.5" y="-374" font-family="Fira Code" font-size="10.00"> quitAction</text>
</g>
<!-- Node24 -->
<g id="node24" class="node">
<title>Node24</title>
<g id="a_node24"><a xlink:href="struct_action_binding.html" target="_top" xlink:title="Closes over the callback for an input binding to a particular type of input device,...">
<polygon fill="white" stroke="black" points="1446,-166.5 1446,-185.5 1541,-185.5 1541,-166.5 1446,-166.5"/>
<text text-anchor="middle" x="1493.5" y="-173.5" font-family="Fira Code" font-size="10.00">ActionBinding</text>
</a>
</g>
</g>
<!-- Node9&#45;&gt;Node24 -->
<g id="edge28" class="edge">
<title>Node9&#45;&gt;Node24</title>
<path fill="none" stroke="#9a32cd" stroke-dasharray="5,2" d="M1299.63,-295.99C1344.53,-268.05 1439.72,-208.83 1477.04,-185.62"/>
<polygon fill="#9a32cd" stroke="#9a32cd" points="1297.75,-293.04 1291.11,-301.29 1301.45,-298.98 1297.75,-293.04"/>
<text text-anchor="middle" x="1394.5" y="-259" font-family="Fira Code" font-size="10.00"> action</text>
</g>
<!-- Node10 -->
<g id="node10" class="node">
<title>Node10</title>
<g id="a_node10"><a xlink:title=" ">
<polygon fill="white" stroke="black" points="1023,-251.5 1023,-270.5 1076,-270.5 1076,-251.5 1023,-251.5"/>
<text text-anchor="middle" x="1049.5" y="-258.5" font-family="Fira Code" font-size="10.00">char *</text>
</a>
</g>
</g>
<!-- Node10&#45;&gt;Node9 -->
<g id="edge9" class="edge">
<title>Node10&#45;&gt;Node9</title>
<path fill="none" stroke="#9a32cd" stroke-dasharray="5,2" d="M1086.4,-261.33C1114.45,-262.31 1154.23,-265.33 1188,-274 1212.44,-280.28 1238.84,-292.64 1255.74,-301.35"/>
<polygon fill="#9a32cd" stroke="#9a32cd" points="1086.35,-257.82 1076.25,-261.04 1086.15,-264.82 1086.35,-257.82"/>
<text text-anchor="middle" x="1154.5" y="-277" font-family="Fira Code" font-size="10.00"> name</text>
</g>
<!-- Node11&#45;&gt;Node9 -->
<g id="edge10" class="edge">
<title>Node11&#45;&gt;Node9</title>
<path fill="none" stroke="#9a32cd" stroke-dasharray="5,2" d="M1113.47,-351.52C1137.06,-350.98 1163.96,-349.02 1188,-344 1211.52,-339.09 1237.04,-328.49 1254.02,-320.62"/>
<polygon fill="#9a32cd" stroke="#9a32cd" points="1113.18,-348.03 1103.23,-351.68 1113.28,-355.03 1113.18,-348.03"/>
<text text-anchor="middle" x="1154.5" y="-354" font-family="Fira Code" font-size="10.00"> on_action</text>
</g>
<!-- Node12&#45;&gt;Node11 -->
<g id="edge11" class="edge">
<title>Node12&#45;&gt;Node11</title>
<path fill="none" stroke="#9a32cd" stroke-dasharray="5,2" d="M832.04,-421.94C848.42,-405.17 875.85,-380.34 905,-368 933.56,-355.91 967.96,-351.3 995.92,-349.76"/>
<polygon fill="#9a32cd" stroke="#9a32cd" points="829.27,-419.77 824.93,-429.44 834.35,-424.59 829.27,-419.77"/>
<text text-anchor="middle" x="941.5" y="-371" font-family="Fira Code" font-size="10.00"> ctx</text>
</g>
<!-- Node13&#45;&gt;Node12 -->
<g id="edge12" class="edge">
<title>Node13&#45;&gt;Node12</title>
<path fill="none" stroke="#9a32cd" stroke-dasharray="5,2" d="M1443.74,-412.52C1438.45,-413.49 1433.13,-414.35 1428,-415 1205.09,-443.35 933.12,-441.24 845.3,-439.65"/>
<polygon fill="#9a32cd" stroke="#9a32cd" points="1444.67,-415.91 1453.81,-410.54 1443.32,-409.04 1444.67,-415.91"/>
<text text-anchor="middle" x="1154.5" y="-440" font-family="Fira Code" font-size="10.00"> host</text>
</g>
<!-- Node14&#45;&gt;Node13 -->
<g id="edge14" class="edge">
<title>Node14&#45;&gt;Node13</title>
<path fill="none" stroke="#9a32cd" stroke-dasharray="5,2" d="M477.12,-390.97C517.34,-395.34 580,-401 634.5,-401 634.5,-401 634.5,-401 1275.5,-401 1336.91,-401 1408.09,-401 1451.71,-401"/>
<polygon fill="#9a32cd" stroke="#9a32cd" points="477.48,-387.49 467.15,-389.86 476.71,-394.44 477.48,-387.49"/>
<text text-anchor="middle" x="941.5" y="-404" font-family="Fira Code" font-size="10.00"> log</text>
</g>
<!-- Node15 -->
<g id="node15" class="node">
<title>Node15</title>
<g id="a_node15"><a xlink:title=" ">
<polygon fill="white" stroke="black" points="213,-211.5 213,-230.5 254,-230.5 254,-211.5 213,-211.5"/>
<text text-anchor="middle" x="233.5" y="-218.5" font-family="Fira Code" font-size="10.00">bool</text>
</a>
</g>
</g>
<!-- Node15&#45;&gt;Node14 -->
<g id="edge16" class="edge">
<title>Node15&#45;&gt;Node14</title>
<path fill="none" stroke="#9a32cd" stroke-dasharray="5,2" d="M263.72,-230.52C274.39,-235.37 285.64,-242.34 293,-252 315.35,-281.33 287.34,-304.72 311,-333 328,-353.32 341.67,-345.51 366,-356 381.54,-362.7 399,-370.47 412.27,-376.42"/>
<polygon fill="#9a32cd" stroke="#9a32cd" points="264.78,-227.18 254.2,-226.65 262.14,-233.66 264.78,-227.18"/>
<text text-anchor="middle" x="338.5" y="-359" font-family="Fira Code" font-size="10.00"> quiet</text>
</g>
<!-- Node27 -->
<g id="node27" class="node">
<title>Node27</title>
<g id="a_node27"><a xlink:href="struct_keybind.html" target="_top" xlink:title="Represents a keyboard key combination the state of which is being tracked by an action.">
<polygon fill="white" stroke="black" points="405,-37.5 405,-56.5 464,-56.5 464,-37.5 405,-37.5"/>
<text text-anchor="middle" x="434.5" y="-44.5" font-family="Fira Code" font-size="10.00">Keybind</text>
</a>
</g>
</g>
<!-- Node15&#45;&gt;Node27 -->
<g id="edge34" class="edge">
<title>Node15&#45;&gt;Node27</title>
<path fill="none" stroke="#9a32cd" stroke-dasharray="5,2" d="M263.14,-207.11C273.78,-200.73 285.15,-192.28 293,-182 308.36,-161.9 295.61,-148.08 311,-128 314.86,-122.97 386.74,-76.81 418.56,-56.51"/>
<polygon fill="#9a32cd" stroke="#9a32cd" points="261.11,-204.23 254.09,-212.17 264.53,-210.34 261.11,-204.23"/>
<text text-anchor="middle" x="338.5" y="-131" font-family="Fira Code" font-size="10.00"> state</text>
</g>
<!-- Node30 -->
<g id="node30" class="node">
<title>Node30</title>
<g id="a_node30"><a xlink:href="struct_mousebind.html" target="_top" xlink:title="Represents a mouse button combination the state of which is being tracked by an action.">
<polygon fill="white" stroke="black" points="399,-132.5 399,-151.5 470,-151.5 470,-132.5 399,-132.5"/>
<text text-anchor="middle" x="434.5" y="-139.5" font-family="Fira Code" font-size="10.00">Mousebind</text>
</a>
</g>
</g>
<!-- Node15&#45;&gt;Node30 -->
<g id="edge38" class="edge">
<title>Node15&#45;&gt;Node30</title>
<path fill="none" stroke="#9a32cd" stroke-dasharray="5,2" d="M264.24,-220.67C292.66,-219 335.54,-212.83 366,-192 377.9,-183.86 373.05,-174.39 384,-165 390.4,-159.51 398.34,-155.06 405.96,-151.58"/>
<polygon fill="#9a32cd" stroke="#9a32cd" points="263.96,-217.18 254.12,-221.11 264.26,-224.17 263.96,-217.18"/>
<text text-anchor="middle" x="338.5" y="-218" font-family="Fira Code" font-size="10.00"> state</text>
</g>
<!-- Node35 -->
<g id="node35" class="node">
<title>Node35</title>
<g id="a_node35"><a xlink:href="struct_sdl_mouse_cursor.html" target="_top" xlink:title="Represents the mouse cursor state.">
<polygon fill="white" stroke="black" points="384,-311.5 384,-330.5 485,-330.5 485,-311.5 384,-311.5"/>
<text text-anchor="middle" x="434.5" y="-318.5" font-family="Fira Code" font-size="10.00">SdlMouseCursor</text>
</a>
</g>
</g>
<!-- Node15&#45;&gt;Node35 -->
<g id="edge48" class="edge">
<title>Node15&#45;&gt;Node35</title>
<path fill="none" stroke="#9a32cd" stroke-dasharray="5,2" d="M261.69,-235.3C271.57,-240.52 282.8,-246.5 293,-252 333.61,-273.92 342.14,-282.58 384,-302 391.26,-305.37 399.31,-308.65 406.76,-311.5"/>
<polygon fill="#9a32cd" stroke="#9a32cd" points="263.2,-232.14 252.72,-230.56 259.93,-238.33 263.2,-232.14"/>
<text text-anchor="middle" x="338.5" y="-296" font-family="Fira Code" font-size="10.00"> visible</text>
</g>
<!-- Node16 -->
<g id="node16" class="node">
<title>Node16</title>
<g id="a_node16"><a xlink:title=" ">
<polygon fill="white" stroke="black" points="207,-410.5 207,-429.5 260,-429.5 260,-410.5 207,-410.5"/>
<text text-anchor="middle" x="233.5" y="-417.5" font-family="Fira Code" font-size="10.00">FILE *</text>
</a>
</g>
</g>
<!-- Node16&#45;&gt;Node14 -->
<g id="edge17" class="edge">
<title>Node16&#45;&gt;Node14</title>
<path fill="none" stroke="#9a32cd" stroke-dasharray="5,2" d="M270.07,-413.92C307.49,-407.53 365.84,-397.56 401.75,-391.42"/>
<polygon fill="#9a32cd" stroke="#9a32cd" points="269.38,-410.49 260.11,-415.62 270.56,-417.39 269.38,-410.49"/>
<text text-anchor="middle" x="338.5" y="-409" font-family="Fira Code" font-size="10.00"> file</text>
</g>
<!-- Node17 -->
<g id="node17" class="node">
<title>Node17</title>
<g id="a_node17"><a xlink:href="struct_game_context.html" target="_top" xlink:title="Parent node of the entire game state.">
<polygon fill="white" stroke="black" points="594,-465.5 594,-484.5 677,-484.5 677,-465.5 594,-465.5"/>
<text text-anchor="middle" x="635.5" y="-472.5" font-family="Fira Code" font-size="10.00">GameContext</text>
</a>
</g>
</g>
<!-- Node17&#45;&gt;Node12 -->
<g id="edge19" class="edge">
<title>Node17&#45;&gt;Node12</title>
<path fill="none" stroke="#9a32cd" stroke-dasharray="5,2" d="M687.39,-464.71C719.3,-458.25 759.27,-450.17 785.78,-444.81"/>
<polygon fill="#9a32cd" stroke="#9a32cd" points="686.44,-461.33 677.34,-466.74 687.83,-468.19 686.44,-461.33"/>
<text text-anchor="middle" x="710.5" y="-465" font-family="Fira Code" font-size="10.00"> game</text>
</g>
<!-- Node18 -->
<g id="node18" class="node">
<title>Node18</title>
<g id="a_node18"><a xlink:href="struct_sim_clock.html" target="_top" xlink:title="Represents time inside the game world.">
<polygon fill="white" stroke="black" points="402,-521.5 402,-540.5 467,-540.5 467,-521.5 402,-521.5"/>
<text text-anchor="middle" x="434.5" y="-528.5" font-family="Fira Code" font-size="10.00">SimClock</text>
</a>
</g>
</g>
<!-- Node18&#45;&gt;Node17 -->
<g id="edge20" class="edge">
<title>Node18&#45;&gt;Node17</title>
<path fill="none" stroke="#9a32cd" stroke-dasharray="5,2" d="M477.13,-523.93C505.38,-518.62 543.38,-510.47 576,-500 589.25,-495.75 603.63,-489.63 614.82,-484.5"/>
<polygon fill="#9a32cd" stroke="#9a32cd" points="476.4,-520.5 467.2,-525.76 477.66,-527.39 476.4,-520.5"/>
<text text-anchor="middle" x="539.5" y="-521" font-family="Fira Code" font-size="10.00"> clock</text>
</g>
<!-- Node19 -->
<g id="node19" class="node">
<title>Node19</title>
<g id="a_node19"><a xlink:href="struct_wall_clock.html" target="_top" xlink:title="Represents real outside&#45;world time.">
<polygon fill="white" stroke="black" points="198,-486.5 198,-505.5 269,-505.5 269,-486.5 198,-486.5"/>
<text text-anchor="middle" x="233.5" y="-493.5" font-family="Fira Code" font-size="10.00">WallClock</text>
</a>
</g>
</g>
<!-- Node19&#45;&gt;Node18 -->
<g id="edge21" class="edge">
<title>Node19&#45;&gt;Node18</title>
<path fill="none" stroke="#9a32cd" stroke-dasharray="5,2" d="M279.29,-502.63C304.76,-506.53 337.22,-511.72 366,-517 377.77,-519.16 390.65,-521.77 401.97,-524.15"/>
<polygon fill="#9a32cd" stroke="#9a32cd" points="279.6,-499.13 269.18,-501.09 278.54,-506.06 279.6,-499.13"/>
<text text-anchor="middle" x="338.5" y="-520" font-family="Fira Code" font-size="10.00"> real</text>
</g>
<!-- Node20 -->
<g id="node20" class="node">
<title>Node20</title>
<g id="a_node20"><a xlink:title=" ">
<polygon fill="white" stroke="black" points="15,-547.5 15,-566.5 80,-566.5 80,-547.5 15,-547.5"/>
<text text-anchor="middle" x="47.5" y="-554.5" font-family="Fira Code" font-size="10.00">uint64_t</text>
</a>
</g>
</g>
<!-- Node20&#45;&gt;Node18 -->
<g id="edge23" class="edge">
<title>Node20&#45;&gt;Node18</title>
<path fill="none" stroke="#9a32cd" stroke-dasharray="5,2" d="M90.5,-562.34C151.75,-568.96 268.87,-577.19 366,-558 383.21,-554.6 401.63,-546.93 414.88,-540.63"/>
<polygon fill="#9a32cd" stroke="#9a32cd" points="90.77,-558.85 80.44,-561.21 89.99,-565.8 90.77,-558.85"/>
<text text-anchor="middle" x="233.5" y="-627" font-family="Fira Code" font-size="10.00"> Dt</text>
<text text-anchor="middle" x="233.5" y="-616" font-family="Fira Code" font-size="10.00">period</text>
<text text-anchor="middle" x="233.5" y="-605" font-family="Fira Code" font-size="10.00">t</text>
<text text-anchor="middle" x="233.5" y="-594" font-family="Fira Code" font-size="10.00">tick</text>
<text text-anchor="middle" x="233.5" y="-583" font-family="Fira Code" font-size="10.00">tpsAccumNs</text>
<text text-anchor="middle" x="233.5" y="-572" font-family="Fira Code" font-size="10.00">tpsAccumTicks</text>
</g>
<!-- Node20&#45;&gt;Node19 -->
<g id="edge22" class="edge">
<title>Node20&#45;&gt;Node19</title>
<path fill="none" stroke="#9a32cd" stroke-dasharray="5,2" d="M86.66,-544.13C111.51,-535.77 144.66,-524.67 174,-515 183.43,-511.89 193.73,-508.53 203.02,-505.52"/>
<polygon fill="#9a32cd" stroke="#9a32cd" points="85.25,-540.91 76.89,-547.42 87.48,-547.55 85.25,-540.91"/>
<text text-anchor="middle" x="134.5" y="-548" font-family="Fira Code" font-size="10.00"> t</text>
<text text-anchor="middle" x="134.5" y="-537" font-family="Fira Code" font-size="10.00">t0</text>
</g>
<!-- Node21 -->
<g id="node21" class="node">
<title>Node21</title>
<g id="a_node21"><a xlink:title=" ">
<polygon fill="white" stroke="black" points="210,-524.5 210,-543.5 257,-543.5 257,-524.5 210,-524.5"/>
<text text-anchor="middle" x="233.5" y="-531.5" font-family="Fira Code" font-size="10.00">float</text>
</a>
</g>
</g>
<!-- Node21&#45;&gt;Node18 -->
<g id="edge24" class="edge">
<title>Node21&#45;&gt;Node18</title>
<path fill="none" stroke="#9a32cd" stroke-dasharray="5,2" d="M267.66,-533.5C304.96,-532.94 365.1,-532.03 401.79,-531.48"/>
<polygon fill="#9a32cd" stroke="#9a32cd" points="267.27,-530.01 257.33,-533.66 267.38,-537 267.27,-530.01"/>
<text text-anchor="middle" x="338.5" y="-546" font-family="Fira Code" font-size="10.00"> dt</text>
<text text-anchor="middle" x="338.5" y="-535" font-family="Fira Code" font-size="10.00">tps</text>
</g>
<!-- Node22 -->
<g id="node22" class="node">
<title>Node22</title>
<g id="a_node22"><a xlink:title=" ">
<polygon fill="white" stroke="black" points="387,-465.5 387,-484.5 482,-484.5 482,-465.5 387,-465.5"/>
<text text-anchor="middle" x="434.5" y="-472.5" font-family="Fira Code" font-size="10.00">volatile bool</text>
</a>
</g>
</g>
<!-- Node22&#45;&gt;Node17 -->
<g id="edge25" class="edge">
<title>Node22&#45;&gt;Node17</title>
<path fill="none" stroke="#9a32cd" stroke-dasharray="5,2" d="M492.39,-475C524.79,-475 564.62,-475 593.86,-475"/>
<polygon fill="#9a32cd" stroke="#9a32cd" points="492.16,-471.5 482.16,-475 492.16,-478.5 492.16,-471.5"/>
<text text-anchor="middle" x="539.5" y="-489" font-family="Fira Code" font-size="10.00"> paused</text>
<text text-anchor="middle" x="539.5" y="-478" font-family="Fira Code" font-size="10.00">running</text>
</g>
<!-- Node23 -->
<g id="node23" class="node">
<title>Node23</title>
<g id="a_node23"><a xlink:href="struct_input_context.html" target="_top" xlink:title="Represents the complete state of all input devices and all buffered inputs.">
<polygon fill="white" stroke="black" points="1644,-240.5 1644,-259.5 1733,-259.5 1733,-240.5 1644,-240.5"/>
<text text-anchor="middle" x="1688.5" y="-247.5" font-family="Fira Code" font-size="10.00">InputContext</text>
</a>
</g>
</g>
<!-- Node23&#45;&gt;Node12 -->
<g id="edge26" class="edge">
<title>Node23&#45;&gt;Node12</title>
<path fill="none" stroke="#9a32cd" stroke-dasharray="5,2" d="M1682.02,-269.28C1664.74,-325.45 1605.86,-485 1494.5,-485 1048.5,-485 1048.5,-485 1048.5,-485 973.97,-485 888.51,-461.88 845.07,-448.42"/>
<polygon fill="#9a32cd" stroke="#9a32cd" points="1685.43,-270.09 1684.92,-259.5 1678.72,-268.09 1685.43,-270.09"/>
<text text-anchor="middle" x="1274.5" y="-488" font-family="Fira Code" font-size="10.00"> input</text>
</g>
<!-- Node24&#45;&gt;Node23 -->
<g id="edge27" class="edge">
<title>Node24&#45;&gt;Node23</title>
<path fill="none" stroke="#9a32cd" stroke-dasharray="5,2" d="M1551.1,-181.93C1574.99,-185.86 1602.62,-192.35 1626,-203 1646.54,-212.36 1666.61,-229.68 1677.98,-240.48"/>
<polygon fill="#9a32cd" stroke="#9a32cd" points="1551.53,-178.46 1541.12,-180.4 1550.47,-185.37 1551.53,-178.46"/>
<text text-anchor="middle" x="1592.5" y="-217" font-family="Fira Code" font-size="10.00"> keybinds</text>
<text text-anchor="middle" x="1592.5" y="-206" font-family="Fira Code" font-size="10.00">mousebinds</text>
</g>
<!-- Node25 -->
<g id="node25" class="node">
<title>Node25</title>
<g id="a_node25"><a xlink:title=" ">
<polygon fill="white" stroke="black" points="744,-327.5 744,-346.5 887,-346.5 887,-327.5 744,-327.5"/>
<text text-anchor="middle" x="815.5" y="-334.5" font-family="Fira Code" font-size="10.00">enum SignalTransition</text>
</a>
</g>
</g>
<!-- Node25&#45;&gt;Node11 -->
<g id="edge45" class="edge">
<title>Node25&#45;&gt;Node11</title>
<path fill="none" stroke="#9a32cd" stroke-dasharray="5,2" d="M897.18,-331.39C923.06,-330.69 951.8,-331.06 978,-334 989.72,-335.31 1002.34,-337.82 1013.62,-340.47"/>
<polygon fill="#9a32cd" stroke="#9a32cd" points="896.92,-327.9 887.04,-331.72 897.15,-334.89 896.92,-327.9"/>
<text text-anchor="middle" x="941.5" y="-337" font-family="Fira Code" font-size="10.00"> transition</text>
</g>
<!-- Node25&#45;&gt;Node24 -->
<g id="edge29" class="edge">
<title>Node25&#45;&gt;Node24</title>
<path fill="none" stroke="#9a32cd" stroke-dasharray="5,2" d="M839.8,-322.05C873.17,-301.27 937.04,-263.75 996,-242 1153.45,-183.91 1355.69,-175.89 1445.7,-175.47"/>
<polygon fill="#9a32cd" stroke="#9a32cd" points="837.83,-319.16 831.23,-327.44 841.56,-325.08 837.83,-319.16"/>
<text text-anchor="middle" x="1154.5" y="-210" font-family="Fira Code" font-size="10.00"> transition</text>
</g>
<!-- Node26 -->
<g id="node26" class="node">
<title>Node26</title>
<g id="a_node26"><a xlink:title=" ">
<polygon fill="white" stroke="black" points="1206,-204.5 1206,-223.5 1343,-223.5 1343,-204.5 1206,-204.5"/>
<text text-anchor="middle" x="1274.5" y="-211.5" font-family="Fira Code" font-size="10.00">enum InputDeviceType</text>
</a>
</g>
</g>
<!-- Node26&#45;&gt;Node24 -->
<g id="edge30" class="edge">
<title>Node26&#45;&gt;Node24</title>
<path fill="none" stroke="#9a32cd" stroke-dasharray="5,2" d="M1340.26,-202.66C1374.17,-196.72 1414.92,-189.58 1445.73,-184.19"/>
<polygon fill="#9a32cd" stroke="#9a32cd" points="1339.22,-199.29 1329.98,-204.46 1340.43,-206.18 1339.22,-199.29"/>
<text text-anchor="middle" x="1394.5" y="-202" font-family="Fira Code" font-size="10.00"> type</text>
</g>
<!-- Node27&#45;&gt;Node24 -->
<g id="edge31" class="edge">
<title>Node27&#45;&gt;Node24</title>
<path fill="none" stroke="#9a32cd" stroke-dasharray="5,2" d="M474.3,-49.48C514.39,-51.83 578.8,-55 634.5,-55 634.5,-55 634.5,-55 1275.5,-55 1345.46,-55 1369.38,-55.82 1428,-94 1456.99,-112.88 1478.62,-149.23 1487.74,-166.48"/>
<polygon fill="#9a32cd" stroke="#9a32cd" points="474.35,-45.98 464.16,-48.88 473.93,-52.97 474.35,-45.98"/>
<text text-anchor="middle" x="941.5" y="-58" font-family="Fira Code" font-size="10.00"> keybind</text>
</g>
<!-- Node28 -->
<g id="node28" class="node">
<title>Node28</title>
<g id="a_node28"><a xlink:title=" ">
<polygon fill="white" stroke="black" points="183,-0.5 183,-19.5 284,-19.5 284,-0.5 183,-0.5"/>
<text text-anchor="middle" x="233.5" y="-7.5" font-family="Fira Code" font-size="10.00">unsigned short</text>
</a>
</g>
</g>
<!-- Node28&#45;&gt;Node27 -->
<g id="edge32" class="edge">
<title>Node28&#45;&gt;Node27</title>
<path fill="none" stroke="#9a32cd" stroke-dasharray="5,2" d="M294.2,-17.12C316.79,-20.21 342.68,-24.22 366,-29 378.83,-31.63 392.85,-35.24 404.77,-38.54"/>
<polygon fill="#9a32cd" stroke="#9a32cd" points="294.44,-13.62 284.07,-15.77 293.52,-20.56 294.44,-13.62"/>
<text text-anchor="middle" x="338.5" y="-32" font-family="Fira Code" font-size="10.00"> keyIndex</text>
</g>
<!-- Node29 -->
<g id="node29" class="node">
<title>Node29</title>
<g id="a_node29"><a xlink:title=" ">
<polygon fill="white" stroke="black" points="174,-53.5 174,-72.5 293,-72.5 293,-53.5 174,-53.5"/>
<text text-anchor="middle" x="233.5" y="-60.5" font-family="Fira Code" font-size="10.00">enum ModifierKeys</text>
</a>
</g>
</g>
<!-- Node29&#45;&gt;Node27 -->
<g id="edge33" class="edge">
<title>Node29&#45;&gt;Node27</title>
<path fill="none" stroke="#9a32cd" stroke-dasharray="5,2" d="M277.75,-50.99C288.53,-48.51 300.11,-46.26 311,-45 335.28,-42.18 341.56,-44.64 366,-45 378.78,-45.19 392.91,-45.58 404.93,-45.97"/>
<polygon fill="#9a32cd" stroke="#9a32cd" points="276.61,-47.66 267.72,-53.42 278.26,-54.47 276.61,-47.66"/>
<text text-anchor="middle" x="338.5" y="-48" font-family="Fira Code" font-size="10.00"> mod</text>
</g>
<!-- Node29&#45;&gt;Node30 -->
<g id="edge37" class="edge">
<title>Node29&#45;&gt;Node30</title>
<path fill="none" stroke="#9a32cd" stroke-dasharray="5,2" d="M303.38,-63.26C324.26,-65.45 346.74,-70.03 366,-79 392.45,-91.32 415.41,-117.97 426.47,-132.34"/>
<polygon fill="#9a32cd" stroke="#9a32cd" points="303.56,-59.76 293.29,-62.37 302.94,-66.73 303.56,-59.76"/>
<text text-anchor="middle" x="338.5" y="-82" font-family="Fira Code" font-size="10.00"> mod</text>
</g>
<!-- Node30&#45;&gt;Node24 -->
<g id="edge35" class="edge">
<title>Node30&#45;&gt;Node24</title>
<path fill="none" stroke="#9a32cd" stroke-dasharray="5,2" d="M480.05,-140.59C520.38,-139.44 581.41,-138 634.5,-138 634.5,-138 634.5,-138 1275.5,-138 1341.28,-138 1416.63,-155.15 1458.99,-166.41"/>
<polygon fill="#9a32cd" stroke="#9a32cd" points="479.9,-137.1 470.01,-140.89 480.11,-144.09 479.9,-137.1"/>
<text text-anchor="middle" x="941.5" y="-141" font-family="Fira Code" font-size="10.00"> mousebind</text>
</g>
<!-- Node31 -->
<g id="node31" class="node">
<title>Node31</title>
<g id="a_node31"><a xlink:title=" ">
<polygon fill="white" stroke="black" points="174,-153.5 174,-172.5 293,-172.5 293,-153.5 174,-153.5"/>
<text text-anchor="middle" x="233.5" y="-160.5" font-family="Fira Code" font-size="10.00">enum MouseButtons</text>
</a>
</g>
</g>
<!-- Node31&#45;&gt;Node30 -->
<g id="edge36" class="edge">
<title>Node31&#45;&gt;Node30</title>
<path fill="none" stroke="#9a32cd" stroke-dasharray="5,2" d="M283.93,-151.42C292.9,-149.67 302.19,-148.09 311,-147 340.47,-143.34 374.19,-142.19 398.79,-141.89"/>
<polygon fill="#9a32cd" stroke="#9a32cd" points="283.1,-148.01 274,-153.44 284.49,-154.87 283.1,-148.01"/>
<text text-anchor="middle" x="338.5" y="-150" font-family="Fira Code" font-size="10.00"> button</text>
</g>
<!-- Node31&#45;&gt;Node34 -->
<g id="edge43" class="edge">
<title>Node31&#45;&gt;Node34</title>
<path fill="none" stroke="#9a32cd" stroke-dasharray="5,2" d="M303.41,-170.27C335.66,-173.67 372.65,-177.58 398.92,-180.35"/>
<polygon fill="#9a32cd" stroke="#9a32cd" points="303.44,-166.76 293.13,-169.19 302.71,-173.72 303.44,-166.76"/>
<text text-anchor="middle" x="338.5" y="-180" font-family="Fira Code" font-size="10.00"> buttons</text>
</g>
<!-- Node32 -->
<g id="node32" class="node">
<title>Node32</title>
<g id="a_node32"><a xlink:title=" ">
<polygon fill="white" stroke="black" points="1230,-90.5 1230,-109.5 1319,-109.5 1319,-90.5 1230,-90.5"/>
<text text-anchor="middle" x="1274.5" y="-97.5" font-family="Fira Code" font-size="10.00">anonymous:@1</text>
</a>
</g>
</g>
<!-- Node32&#45;&gt;Node24 -->
<g id="edge39" class="edge">
<title>Node32&#45;&gt;Node24</title>
<path fill="none" stroke="#9a32cd" stroke-dasharray="5,2" d="M1329.57,-95.87C1359.8,-95.67 1397.42,-99 1428,-113 1453.9,-124.86 1475.58,-151.7 1485.94,-166.22"/>
<polygon fill="#9a32cd" stroke="#9a32cd" points="1329.14,-92.38 1319.22,-96.08 1329.28,-99.38 1329.14,-92.38"/>
<text text-anchor="middle" x="1394.5" y="-116" font-family="Fira Code" font-size="10.00"> @1</text>
</g>
<!-- Node33 -->
<g id="node33" class="node">
<title>Node33</title>
<g id="a_node33"><a xlink:title=" ">
<polygon fill="white" stroke="black" points="1467,-221.5 1467,-240.5 1520,-240.5 1520,-221.5 1467,-221.5"/>
<text text-anchor="middle" x="1493.5" y="-228.5" font-family="Fira Code" font-size="10.00">size_t</text>
</a>
</g>
</g>
<!-- Node33&#45;&gt;Node23 -->
<g id="edge40" class="edge">
<title>Node33&#45;&gt;Node23</title>
<path fill="none" stroke="#9a32cd" stroke-dasharray="5,2" d="M1530.69,-229.09C1557.21,-228.29 1594.02,-228.41 1626,-233 1636.86,-234.56 1648.51,-237.45 1658.73,-240.42"/>
<polygon fill="#9a32cd" stroke="#9a32cd" points="1530.22,-225.6 1520.35,-229.47 1530.47,-232.6 1530.22,-225.6"/>
<text text-anchor="middle" x="1592.5" y="-247" font-family="Fira Code" font-size="10.00"> nKeybinds</text>
<text text-anchor="middle" x="1592.5" y="-236" font-family="Fira Code" font-size="10.00">nMousebinds</text>
</g>
<!-- Node34&#45;&gt;Node23 -->
<g id="edge41" class="edge">
<title>Node34&#45;&gt;Node23</title>
<path fill="none" stroke="#9a32cd" stroke-dasharray="5,2" d="M480.05,-184C520.39,-184 581.42,-184 634.5,-184 634.5,-184 634.5,-184 942.5,-184 1061.62,-184 1088.45,-213.74 1206,-233 1274.66,-244.25 1291.59,-250.1 1361,-255 1478.49,-263.3 1508.32,-259.78 1626,-255 1631.78,-254.77 1637.86,-254.41 1643.85,-253.99"/>
<polygon fill="#9a32cd" stroke="#9a32cd" points="480.01,-180.5 470.01,-184 480.01,-187.5 480.01,-180.5"/>
<text text-anchor="middle" x="1049.5" y="-213" font-family="Fira Code" font-size="10.00"> mouse</text>
</g>
<!-- Node35&#45;&gt;Node1 -->
<g id="edge46" class="edge">
<title>Node35&#45;&gt;Node1</title>
<path fill="none" stroke="#9a32cd" stroke-dasharray="5,2" d="M495.21,-316.5C528.27,-314.01 568.33,-310.99 596.99,-308.83"/>
<polygon fill="#9a32cd" stroke="#9a32cd" points="494.91,-313.01 485.2,-317.25 495.44,-319.99 494.91,-313.01"/>
<text text-anchor="middle" x="539.5" y="-319" font-family="Fira Code" font-size="10.00"> mouseCursor</text>
</g>
<!-- Node36 -->
<g id="node36" class="node">
<title>Node36</title>
<g id="a_node36"><a xlink:title=" ">
<polygon fill="white" stroke="black" points="198,-325.5 198,-344.5 269,-344.5 269,-325.5 198,-325.5"/>
<text text-anchor="middle" x="233.5" y="-332.5" font-family="Fira Code" font-size="10.00">SDL_Color</text>
</a>
</g>
</g>
<!-- Node36&#45;&gt;Node35 -->
<g id="edge47" class="edge">
<title>Node36&#45;&gt;Node35</title>
<path fill="none" stroke="#9a32cd" stroke-dasharray="5,2" d="M279.14,-326.18C289.56,-324.46 300.63,-322.92 311,-322 334.94,-319.88 361.61,-319.44 383.94,-319.6"/>
<polygon fill="#9a32cd" stroke="#9a32cd" points="278.26,-322.78 269,-327.93 279.45,-329.68 278.26,-322.78"/>
<text text-anchor="middle" x="338.5" y="-325" font-family="Fira Code" font-size="10.00"> color</text>
</g>
</g>
</svg>
