<?xml version="1.0" encoding="UTF-8" standalone="no"?>
<!DOCTYPE svg PUBLIC "-//W3C//DTD SVG 1.1//EN"
 "http://www.w3.org/Graphics/SVG/1.1/DTD/svg11.dtd">
<!-- Generated by graphviz version 3.0.0 (20220226.1711)
 -->
<!-- Title: Plugin Pages: 1 -->
<!--zoomable 980 -->
<svg id="main" version="1.1" xmlns="http://www.w3.org/2000/svg" xmlns:xlink="http://www.w3.org/1999/xlink" xml:space="preserve" onload="init(evt)">
<style type="text/css"><![CDATA[
.edge:hover path { stroke: red; }
.edge:hover polygon { stroke: red; fill: red; }
]]></style>
<script type="text/javascript"><![CDATA[
var edges = document.getElementsByTagName('g');
if (edges && edges.length) {
  for (var i=0;i<edges.length;i++) {
    if (edges[i].id.substr(0,4)=='edge') {
      edges[i].setAttribute('class','edge');
    }
  }
}
]]></script>
        <defs>
                <circle id="rim" cx="0" cy="0" r="7"/>
                <circle id="rim2" cx="0" cy="0" r="3.5"/>
                <g id="zoomPlus">
                        <use xlink:href="#rim" fill="#404040">
                                <set attributeName="fill" to="#808080" begin="zoomplus.mouseover" end="zoomplus.mouseout"/>
                        </use>
                        <path d="M-4,0h8M0,-4v8" fill="none" stroke="white" stroke-width="1.5" pointer-events="none"/>
                </g>
                <g id="zoomMin">
                        <use xlink:href="#rim" fill="#404040">
                                <set attributeName="fill" to="#808080" begin="zoomminus.mouseover" end="zoomminus.mouseout"/>
                        </use>
                        <path d="M-4,0h8" fill="none" stroke="white" stroke-width="1.5" pointer-events="none"/>
                </g>
                <g id="dirArrow">
                        <path fill="none" stroke="white" stroke-width="1.5" d="M0,-3.0v7 M-2.5,-0.5L0,-3.0L2.5,-0.5"/>
                </g>
               <g id="resetDef">
                       <use xlink:href="#rim2" fill="#404040">
                               <set attributeName="fill" to="#808080" begin="reset.mouseover" end="reset.mouseout"/>
                       </use>
               </g>
        </defs>

<script type="text/javascript">
var viewWidth = 1593;
var viewHeight = 980;
var sectionId = 'dynsection-0';
</script>
<script xlink:href="svgpan.js"/>
<svg id="graph" class="graph">
<g id="viewport">
<title>Plugin</title>
<polygon fill="white" stroke="transparent" points="-4,4 -4,-976.35 1589,-976.35 1589,4 -4,4"/>
<!-- Node1 -->
<g id="node1" class="node">
<title>Node1</title>
<g id="a_node1"><a xlink:title="The game plugin packages the game functionality in a form that can be hot&#45;reloaded during development...">
<polygon fill="#bfbfbf" stroke="black" points="1094,-836.85 1094,-855.85 1147,-855.85 1147,-836.85 1094,-836.85"/>
<text text-anchor="middle" x="1120.5" y="-843.85" font-family="Fira Code" font-size="10.00">Plugin</text>
</a>
</g>
</g>
<!-- Node2 -->
<g id="node2" class="node">
<title>Node2</title>
<g id="a_node2"><a xlink:href="struct_context.html" target="_top" xlink:title="The plugin context is a persistent state representing the entire application to the game plugin acros...">
<polygon fill="white" stroke="black" points="626,-562.85 626,-581.85 685,-581.85 685,-562.85 626,-562.85"/>
<text text-anchor="middle" x="655.5" y="-569.85" font-family="Fira Code" font-size="10.00">Context</text>
</a>
</g>
</g>
<!-- Node2&#45;&gt;Node1 -->
<g id="edge1" class="edge">
<title>Node2&#45;&gt;Node1</title>
<path fill="none" stroke="#9a32cd" stroke-dasharray="5,2" d="M674.47,-588.91C720.02,-630.08 845.08,-738.17 967,-799.35 1009.22,-820.54 1062.85,-834.35 1093.96,-841.22"/>
<polygon fill="#9a32cd" stroke="#9a32cd" points="676.66,-586.17 666.91,-582.03 671.95,-591.35 676.66,-586.17"/>
<text text-anchor="middle" x="889.5" y="-791.35" font-family="Fira Code" font-size="10.00"> ctx</text>
</g>
<!-- Node6 -->
<g id="node6" class="node">
<title>Node6</title>
<g id="a_node6"><a xlink:href="struct_input_action_args.html" target="_top" xlink:title="Arguments to an input action callback.">
<polygon fill="white" stroke="black" points="836,-322.85 836,-341.85 943,-341.85 943,-322.85 836,-322.85"/>
<text text-anchor="middle" x="889.5" y="-329.85" font-family="Fira Code" font-size="10.00">InputActionArgs</text>
</a>
</g>
</g>
<!-- Node2&#45;&gt;Node6 -->
<g id="edge6" class="edge">
<title>Node2&#45;&gt;Node6</title>
<path fill="none" stroke="#9a32cd" stroke-dasharray="5,2" d="M685.69,-557.79C700.38,-548.96 717.11,-536.3 727,-520.35 751.26,-481.23 719.56,-456.72 745,-418.35 771.65,-378.17 824.07,-353.94 857.64,-341.87"/>
<polygon fill="#9a32cd" stroke="#9a32cd" points="683.86,-554.81 676.89,-562.79 687.32,-560.89 683.86,-554.81"/>
<text text-anchor="middle" x="778.5" y="-421.35" font-family="Fira Code" font-size="10.00"> ctx</text>
</g>
<!-- Node3 -->
<g id="node3" class="node">
<title>Node3</title>
<g id="a_node3"><a xlink:href="struct_host_context.html" target="_top" xlink:title="Provides the plugin with an interface to the host for platform and application&#45;level operations.">
<polygon fill="white" stroke="black" points="1304,-596.85 1304,-615.85 1387,-615.85 1387,-596.85 1304,-596.85"/>
<text text-anchor="middle" x="1345.5" y="-603.85" font-family="Fira Code" font-size="10.00">HostContext</text>
</a>
</g>
</g>
<!-- Node3&#45;&gt;Node2 -->
<g id="edge2" class="edge">
<title>Node3&#45;&gt;Node2</title>
<path fill="none" stroke="#9a32cd" stroke-dasharray="5,2" d="M1293.34,-609.21C1233.82,-610.93 1133.34,-608.88 1052,-582.35 1043.09,-579.45 1043.03,-573.89 1034,-571.35 1005.34,-563.29 996.78,-571.31 967,-571.35 863.23,-571.52 739.95,-572 685.18,-572.23"/>
<polygon fill="#9a32cd" stroke="#9a32cd" points="1293.72,-612.69 1303.6,-608.86 1293.49,-605.7 1293.72,-612.69"/>
<text text-anchor="middle" x="1000.5" y="-574.35" font-family="Fira Code" font-size="10.00"> host</text>
</g>
<!-- Node4 -->
<g id="node4" class="node">
<title>Node4</title>
<g id="a_node4"><a xlink:href="struct_input_action.html" target="_top" xlink:title="An input action is triggered by a button binding and may respond to either activation or deactivation...">
<polygon fill="white" stroke="black" points="1079,-357.85 1079,-376.85 1162,-376.85 1162,-357.85 1079,-357.85"/>
<text text-anchor="middle" x="1120.5" y="-364.85" font-family="Fira Code" font-size="10.00">InputAction</text>
</a>
</g>
</g>
<!-- Node4&#45;&gt;Node3 -->
<g id="edge3" class="edge">
<title>Node4&#45;&gt;Node3</title>
<path fill="none" stroke="#9a32cd" stroke-dasharray="5,2" d="M1171.57,-378.51C1178.27,-381.95 1184.41,-386.46 1189,-392.35 1234.62,-450.89 1159.95,-500.97 1207,-558.35 1228.57,-584.66 1247.9,-570.09 1280,-581.35 1293.71,-586.17 1308.87,-592.01 1321.05,-596.84"/>
<polygon fill="#9a32cd" stroke="#9a32cd" points="1172.74,-375.2 1162.17,-374.44 1169.96,-381.63 1172.74,-375.2"/>
<text text-anchor="middle" x="1243.5" y="-584.35" font-family="Fira Code" font-size="10.00"> quitAction</text>
</g>
<!-- Node4&#45;&gt;Node6 -->
<g id="edge7" class="edge">
<title>Node4&#45;&gt;Node6</title>
<path fill="none" stroke="#9a32cd" stroke-dasharray="5,2" d="M1093.81,-352.94C1077.29,-344.52 1055.05,-334.71 1034,-330.35 1004.36,-324.22 970.53,-324.35 943.16,-326.19"/>
<polygon fill="#9a32cd" stroke="#9a32cd" points="1092.34,-356.13 1102.82,-357.69 1095.61,-349.93 1092.34,-356.13"/>
<text text-anchor="middle" x="1000.5" y="-333.35" font-family="Fira Code" font-size="10.00"> action</text>
</g>
<!-- Node12 -->
<g id="node12" class="node">
<title>Node12</title>
<g id="a_node12"><a xlink:href="struct_sdl_context.html" target="_top" xlink:title="Parent node of the entire SDL state.">
<polygon fill="white" stroke="black" points="1307,-460.85 1307,-479.85 1384,-479.85 1384,-460.85 1307,-460.85"/>
<text text-anchor="middle" x="1345.5" y="-467.85" font-family="Fira Code" font-size="10.00">SdlContext</text>
</a>
</g>
</g>
<!-- Node4&#45;&gt;Node12 -->
<g id="edge21" class="edge">
<title>Node4&#45;&gt;Node12</title>
<path fill="none" stroke="#9a32cd" stroke-dasharray="5,2" d="M1172.34,-372.31C1204.79,-377.16 1246.84,-386.71 1280,-405.35 1305.22,-419.54 1327.18,-446.41 1337.77,-460.76"/>
<polygon fill="#9a32cd" stroke="#9a32cd" points="1172.55,-368.8 1162.16,-370.89 1171.58,-375.74 1172.55,-368.8"/>
<text text-anchor="middle" x="1243.5" y="-408.35" font-family="Fira Code" font-size="10.00"> clickAction</text>
</g>
<!-- Node28 -->
<g id="node28" class="node">
<title>Node28</title>
<g id="a_node28"><a xlink:href="struct_action_binding.html" target="_top" xlink:title="Closes over the callback for an input binding to a particular type of input device,...">
<polygon fill="white" stroke="black" points="1298,-196.85 1298,-215.85 1393,-215.85 1393,-196.85 1298,-196.85"/>
<text text-anchor="middle" x="1345.5" y="-203.85" font-family="Fira Code" font-size="10.00">ActionBinding</text>
</a>
</g>
</g>
<!-- Node4&#45;&gt;Node28 -->
<g id="edge34" class="edge">
<title>Node4&#45;&gt;Node28</title>
<path fill="none" stroke="#9a32cd" stroke-dasharray="5,2" d="M1147.08,-352.72C1179.18,-333.95 1235.41,-299.7 1280,-265.35 1300.68,-249.43 1322.69,-228.27 1334.9,-216.1"/>
<polygon fill="#9a32cd" stroke="#9a32cd" points="1145.21,-349.76 1138.32,-357.81 1148.72,-355.81 1145.21,-349.76"/>
<text text-anchor="middle" x="1243.5" y="-319.35" font-family="Fira Code" font-size="10.00"> action</text>
</g>
<!-- Node5 -->
<g id="node5" class="node">
<title>Node5</title>
<g id="a_node5"><a xlink:title=" ">
<polygon fill="white" stroke="black" points="863,-372.85 863,-391.85 916,-391.85 916,-372.85 863,-372.85"/>
<text text-anchor="middle" x="889.5" y="-379.85" font-family="Fira Code" font-size="10.00">char *</text>
</a>
</g>
</g>
<!-- Node5&#45;&gt;Node4 -->
<g id="edge4" class="edge">
<title>Node5&#45;&gt;Node4</title>
<path fill="none" stroke="#9a32cd" stroke-dasharray="5,2" d="M926.49,-380C967.83,-377.29 1035.51,-372.86 1078.75,-370.02"/>
<polygon fill="#9a32cd" stroke="#9a32cd" points="926.07,-376.52 916.32,-380.66 926.53,-383.5 926.07,-376.52"/>
<text text-anchor="middle" x="1000.5" y="-380.35" font-family="Fira Code" font-size="10.00"> name</text>
</g>
<!-- Node6&#45;&gt;Node4 -->
<g id="edge5" class="edge">
<title>Node6&#45;&gt;Node4</title>
<path fill="none" stroke="#9a32cd" stroke-dasharray="5,2" d="M952.99,-341.91C993.12,-348.04 1044.07,-355.83 1078.98,-361.16"/>
<polygon fill="#9a32cd" stroke="#9a32cd" points="953.45,-338.43 943.04,-340.38 952.39,-345.35 953.45,-338.43"/>
<text text-anchor="middle" x="1000.5" y="-357.35" font-family="Fira Code" font-size="10.00"> on_action</text>
</g>
<!-- Node7 -->
<g id="node7" class="node">
<title>Node7</title>
<g id="a_node7"><a xlink:title=" ">
<polygon fill="white" stroke="black" points="584,-221.85 584,-240.85 727,-240.85 727,-221.85 584,-221.85"/>
<text text-anchor="middle" x="655.5" y="-228.85" font-family="Fira Code" font-size="10.00">enum SignalTransition</text>
</a>
</g>
</g>
<!-- Node7&#45;&gt;Node6 -->
<g id="edge8" class="edge">
<title>Node7&#45;&gt;Node6</title>
<path fill="none" stroke="#9a32cd" stroke-dasharray="5,2" d="M687.54,-244.87C735.17,-265.6 825.11,-304.76 866.56,-322.8"/>
<polygon fill="#9a32cd" stroke="#9a32cd" points="688.89,-241.64 678.33,-240.86 686.1,-248.06 688.89,-241.64"/>
<text text-anchor="middle" x="778.5" y="-300.35" font-family="Fira Code" font-size="10.00"> transition</text>
</g>
<!-- Node7&#45;&gt;Node28 -->
<g id="edge35" class="edge">
<title>Node7&#45;&gt;Node28</title>
<path fill="none" stroke="#9a32cd" stroke-dasharray="5,2" d="M716.59,-220.02C778.93,-208.89 879.38,-192.67 967,-186.35 1086.14,-177.77 1226.68,-191.5 1297.97,-200.15"/>
<polygon fill="#9a32cd" stroke="#9a32cd" points="715.76,-216.62 706.54,-221.83 717,-223.51 715.76,-216.62"/>
<text text-anchor="middle" x="1000.5" y="-189.35" font-family="Fira Code" font-size="10.00"> transition</text>
</g>
<!-- Node8 -->
<g id="node8" class="node">
<title>Node8</title>
<g id="a_node8"><a xlink:href="struct_log_state.html" target="_top" xlink:title="Used to persist the log output streams between hot&#45;reloads.">
<polygon fill="white" stroke="black" points="1088,-629.85 1088,-648.85 1153,-648.85 1153,-629.85 1088,-629.85"/>
<text text-anchor="middle" x="1120.5" y="-636.85" font-family="Fira Code" font-size="10.00">LogState</text>
</a>
</g>
</g>
<!-- Node8&#45;&gt;Node3 -->
<g id="edge9" class="edge">
<title>Node8&#45;&gt;Node3</title>
<path fill="none" stroke="#9a32cd" stroke-dasharray="5,2" d="M1163.43,-633.89C1195.41,-629.64 1240.53,-623.46 1280,-617.35 1287.75,-616.16 1296,-614.81 1303.93,-613.47"/>
<polygon fill="#9a32cd" stroke="#9a32cd" points="1162.57,-630.48 1153.12,-635.26 1163.49,-637.42 1162.57,-630.48"/>
<text text-anchor="middle" x="1243.5" y="-630.35" font-family="Fira Code" font-size="10.00"> log</text>
</g>
<!-- Node9 -->
<g id="node9" class="node">
<title>Node9</title>
<g id="a_node9"><a xlink:title=" ">
<polygon fill="white" stroke="black" points="638,-491.85 638,-510.85 673,-510.85 673,-491.85 638,-491.85"/>
<text text-anchor="middle" x="655.5" y="-498.85" font-family="Fira Code" font-size="10.00">int</text>
</a>
</g>
</g>
<!-- Node9&#45;&gt;Node8 -->
<g id="edge10" class="edge">
<title>Node9&#45;&gt;Node8</title>
<path fill="none" stroke="#9a32cd" stroke-dasharray="5,2" d="M682.49,-513.43C735.04,-537.33 858.16,-590.72 967,-618.35 1008.06,-628.78 1056.73,-634.34 1087.85,-637.07"/>
<polygon fill="#9a32cd" stroke="#9a32cd" points="683.79,-510.18 673.24,-509.19 680.87,-516.54 683.79,-510.18"/>
<text text-anchor="middle" x="889.5" y="-615.35" font-family="Fira Code" font-size="10.00"> level</text>
</g>
<!-- Node16 -->
<g id="node16" class="node">
<title>Node16</title>
<g id="a_node16"><a xlink:href="struct_text.html" target="_top" xlink:title="Represents a texture generated by rendering text in a TTF font.">
<polygon fill="white" stroke="black" points="869,-486.85 869,-505.85 910,-505.85 910,-486.85 869,-486.85"/>
<text text-anchor="middle" x="889.5" y="-493.85" font-family="Fira Code" font-size="10.00">Text</text>
</a>
</g>
</g>
<!-- Node9&#45;&gt;Node16 -->
<g id="edge20" class="edge">
<title>Node9&#45;&gt;Node16</title>
<path fill="none" stroke="#9a32cd" stroke-dasharray="5,2" d="M683.22,-500.31C700.78,-499.66 724.25,-498.85 745,-498.35 789.09,-497.3 840.81,-496.75 868.53,-496.51"/>
<polygon fill="#9a32cd" stroke="#9a32cd" points="682.99,-496.82 673.13,-500.69 683.26,-503.81 682.99,-496.82"/>
<text text-anchor="middle" x="778.5" y="-512.35" font-family="Fira Code" font-size="10.00"> height</text>
<text text-anchor="middle" x="778.5" y="-501.35" font-family="Fira Code" font-size="10.00">width</text>
</g>
<!-- Node37 -->
<g id="node37" class="node">
<title>Node37</title>
<g id="a_node37"><a xlink:href="struct_mouse_axes.html" target="_top" xlink:title="Represents the mouse state.">
<polygon fill="white" stroke="black" points="1085,-41.85 1085,-60.85 1156,-60.85 1156,-41.85 1085,-41.85"/>
<text text-anchor="middle" x="1120.5" y="-48.85" font-family="Fira Code" font-size="10.00">MouseAxes</text>
</a>
</g>
</g>
<!-- Node9&#45;&gt;Node37 -->
<g id="edge48" class="edge">
<title>Node9&#45;&gt;Node37</title>
<path fill="none" stroke="#9a32cd" stroke-dasharray="5,2" d="M683.4,-501.25C698.54,-499.67 716.47,-494.96 727,-482.35 757.45,-445.9 735.02,-315.8 745,-269.35 768.86,-158.31 737.29,-93.96 830,-28.35 914.16,31.21 1048.6,-19.07 1099.28,-41.7"/>
<polygon fill="#9a32cd" stroke="#9a32cd" points="682.77,-497.79 673.01,-501.92 683.22,-504.77 682.77,-497.79"/>
<text text-anchor="middle" x="889.5" y="-53.35" font-family="Fira Code" font-size="10.00"> scroll</text>
<text text-anchor="middle" x="889.5" y="-42.35" font-family="Fira Code" font-size="10.00">x</text>
<text text-anchor="middle" x="889.5" y="-31.35" font-family="Fira Code" font-size="10.00">y</text>
</g>
<!-- Node10 -->
<g id="node10" class="node">
<title>Node10</title>
<g id="a_node10"><a xlink:title=" ">
<polygon fill="white" stroke="black" points="869,-448.85 869,-467.85 910,-467.85 910,-448.85 869,-448.85"/>
<text text-anchor="middle" x="889.5" y="-455.85" font-family="Fira Code" font-size="10.00">bool</text>
</a>
</g>
</g>
<!-- Node10&#45;&gt;Node1 -->
<g id="edge50" class="edge">
<title>Node10&#45;&gt;Node1</title>
<path fill="none" stroke="#9a32cd" stroke-dasharray="5,2" d="M920.14,-461.22C930.83,-463.79 941.98,-468.57 949,-477.35 976.43,-511.7 940.54,-639.25 967,-674.35 986.23,-699.86 1009.69,-679.64 1034,-700.35 1080.29,-739.78 1107.62,-810.91 1116.39,-836.69"/>
<polygon fill="#9a32cd" stroke="#9a32cd" points="920.66,-457.75 910.18,-459.36 919.38,-464.64 920.66,-457.75"/>
<text text-anchor="middle" x="1000.5" y="-791.35" font-family="Fira Code" font-size="10.00"> destroy</text>
<text text-anchor="middle" x="1000.5" y="-780.35" font-family="Fira Code" font-size="10.00">init</text>
<text text-anchor="middle" x="1000.5" y="-769.35" font-family="Fira Code" font-size="10.00">initialized</text>
<text text-anchor="middle" x="1000.5" y="-758.35" font-family="Fira Code" font-size="10.00">loaded</text>
<text text-anchor="middle" x="1000.5" y="-747.35" font-family="Fira Code" font-size="10.00">ready</text>
<text text-anchor="middle" x="1000.5" y="-736.35" font-family="Fira Code" font-size="10.00">resume</text>
<text text-anchor="middle" x="1000.5" y="-725.35" font-family="Fira Code" font-size="10.00">suspend</text>
<text text-anchor="middle" x="1000.5" y="-714.35" font-family="Fira Code" font-size="10.00">tick</text>
<text text-anchor="middle" x="1000.5" y="-703.35" font-family="Fira Code" font-size="10.00">upToDate</text>
</g>
<!-- Node10&#45;&gt;Node8 -->
<g id="edge11" class="edge">
<title>Node10&#45;&gt;Node8</title>
<path fill="none" stroke="#9a32cd" stroke-dasharray="5,2" d="M920.03,-461.56C930.61,-464.18 941.71,-468.9 949,-477.35 980.5,-513.87 935.81,-547.58 967,-584.35 987.36,-608.37 1004.37,-596.72 1034,-607.35 1054.44,-614.69 1077.49,-623.33 1094.5,-629.79"/>
<polygon fill="#9a32cd" stroke="#9a32cd" points="920.68,-458.12 910.19,-459.63 919.34,-464.99 920.68,-458.12"/>
<text text-anchor="middle" x="1000.5" y="-610.35" font-family="Fira Code" font-size="10.00"> quiet</text>
</g>
<!-- Node19 -->
<g id="node19" class="node">
<title>Node19</title>
<g id="a_node19"><a xlink:href="struct_sdl_mouse_cursor.html" target="_top" xlink:title="Represents the mouse cursor state.">
<polygon fill="white" stroke="black" points="1070,-401.85 1070,-420.85 1171,-420.85 1171,-401.85 1070,-401.85"/>
<text text-anchor="middle" x="1120.5" y="-408.85" font-family="Fira Code" font-size="10.00">SdlMouseCursor</text>
</a>
</g>
</g>
<!-- Node10&#45;&gt;Node19 -->
<g id="edge24" class="edge">
<title>Node10&#45;&gt;Node19</title>
<path fill="none" stroke="#9a32cd" stroke-dasharray="5,2" d="M919.96,-453.2C949.03,-448.02 994.68,-439.65 1034,-431.35 1049.21,-428.14 1065.88,-424.32 1080.42,-420.88"/>
<polygon fill="#9a32cd" stroke="#9a32cd" points="919.29,-449.77 910.05,-454.96 920.51,-456.66 919.29,-449.77"/>
<text text-anchor="middle" x="1000.5" y="-447.35" font-family="Fira Code" font-size="10.00"> visible</text>
</g>
<!-- Node30 -->
<g id="node30" class="node">
<title>Node30</title>
<g id="a_node30"><a xlink:href="struct_keybind.html" target="_top" xlink:title="Represents a keyboard key combination the state of which is being tracked by an action.">
<polygon fill="white" stroke="black" points="1091,-253.85 1091,-272.85 1150,-272.85 1150,-253.85 1091,-253.85"/>
<text text-anchor="middle" x="1120.5" y="-260.85" font-family="Fira Code" font-size="10.00">Keybind</text>
</a>
</g>
</g>
<!-- Node10&#45;&gt;Node30 -->
<g id="edge40" class="edge">
<title>Node10&#45;&gt;Node30</title>
<path fill="none" stroke="#9a32cd" stroke-dasharray="5,2" d="M919.93,-455.31C930.59,-452.72 941.77,-447.97 949,-439.35 986.19,-394.99 929.48,-354.43 967,-310.35 997.89,-274.07 1056.11,-265.33 1090.99,-263.49"/>
<polygon fill="#9a32cd" stroke="#9a32cd" points="919.18,-451.89 910.01,-457.2 920.49,-458.77 919.18,-451.89"/>
<text text-anchor="middle" x="1000.5" y="-313.35" font-family="Fira Code" font-size="10.00"> state</text>
</g>
<!-- Node33 -->
<g id="node33" class="node">
<title>Node33</title>
<g id="a_node33"><a xlink:href="struct_mousebind.html" target="_top" xlink:title="Represents a mouse button combination the state of which is being tracked by an action.">
<polygon fill="white" stroke="black" points="1085,-139.85 1085,-158.85 1156,-158.85 1156,-139.85 1085,-139.85"/>
<text text-anchor="middle" x="1120.5" y="-146.85" font-family="Fira Code" font-size="10.00">Mousebind</text>
</a>
</g>
</g>
<!-- Node10&#45;&gt;Node33 -->
<g id="edge44" class="edge">
<title>Node10&#45;&gt;Node33</title>
<path fill="none" stroke="#9a32cd" stroke-dasharray="5,2" d="M920.04,-455.65C930.82,-453.1 942.05,-448.3 949,-439.35 987.9,-389.22 921.45,-198.54 967,-154.35 999.04,-123.27 1054.97,-130.94 1089.46,-139.81"/>
<polygon fill="#9a32cd" stroke="#9a32cd" points="919.22,-452.24 910,-457.46 920.47,-459.13 919.22,-452.24"/>
<text text-anchor="middle" x="1000.5" y="-157.35" font-family="Fira Code" font-size="10.00"> state</text>
</g>
<!-- Node11 -->
<g id="node11" class="node">
<title>Node11</title>
<g id="a_node11"><a xlink:title=" ">
<polygon fill="white" stroke="black" points="863,-661.85 863,-680.85 916,-680.85 916,-661.85 863,-661.85"/>
<text text-anchor="middle" x="889.5" y="-668.85" font-family="Fira Code" font-size="10.00">FILE *</text>
</a>
</g>
</g>
<!-- Node11&#45;&gt;Node8 -->
<g id="edge12" class="edge">
<title>Node11&#45;&gt;Node8</title>
<path fill="none" stroke="#9a32cd" stroke-dasharray="5,2" d="M926.38,-666.34C970.76,-660.14 1045.63,-649.68 1087.93,-643.77"/>
<polygon fill="#9a32cd" stroke="#9a32cd" points="925.74,-662.9 916.32,-667.75 926.71,-669.83 925.74,-662.9"/>
<text text-anchor="middle" x="1000.5" y="-662.35" font-family="Fira Code" font-size="10.00"> file</text>
</g>
<!-- Node12&#45;&gt;Node2 -->
<g id="edge13" class="edge">
<title>Node12&#45;&gt;Node2</title>
<path fill="none" stroke="#9a32cd" stroke-dasharray="5,2" d="M1314.41,-483.79C1303.73,-488.08 1291.5,-492.46 1280,-495.35 1164.44,-524.41 791.93,-559.96 685.28,-569.75"/>
<polygon fill="#9a32cd" stroke="#9a32cd" points="1315.83,-486.99 1323.72,-479.92 1313.14,-480.53 1315.83,-486.99"/>
<text text-anchor="middle" x="1000.5" y="-543.35" font-family="Fira Code" font-size="10.00"> sdl</text>
</g>
<!-- Node13 -->
<g id="node13" class="node">
<title>Node13</title>
<g id="a_node13"><a xlink:title=" ">
<polygon fill="white" stroke="black" points="1076,-553.85 1076,-572.85 1165,-572.85 1165,-553.85 1076,-553.85"/>
<text text-anchor="middle" x="1120.5" y="-560.85" font-family="Fira Code" font-size="10.00">SDL_Window *</text>
</a>
</g>
</g>
<!-- Node13&#45;&gt;Node12 -->
<g id="edge14" class="edge">
<title>Node13&#45;&gt;Node12</title>
<path fill="none" stroke="#9a32cd" stroke-dasharray="5,2" d="M1175.42,-552.81C1213.84,-544.78 1261.79,-533.59 1280,-524.35 1302.67,-512.87 1324.32,-492.05 1335.86,-479.89"/>
<polygon fill="#9a32cd" stroke="#9a32cd" points="1174.46,-549.43 1165.38,-554.88 1175.88,-556.29 1174.46,-549.43"/>
<text text-anchor="middle" x="1243.5" y="-547.35" font-family="Fira Code" font-size="10.00"> window</text>
</g>
<!-- Node14 -->
<g id="node14" class="node">
<title>Node14</title>
<g id="a_node14"><a xlink:title=" ">
<polygon fill="white" stroke="black" points="1070,-477.85 1070,-496.85 1171,-496.85 1171,-477.85 1070,-477.85"/>
<text text-anchor="middle" x="1120.5" y="-484.85" font-family="Fira Code" font-size="10.00">SDL_Renderer *</text>
</a>
</g>
</g>
<!-- Node14&#45;&gt;Node12 -->
<g id="edge15" class="edge">
<title>Node14&#45;&gt;Node12</title>
<path fill="none" stroke="#9a32cd" stroke-dasharray="5,2" d="M1181.4,-482.79C1221.25,-479.75 1272.37,-475.85 1306.67,-473.24"/>
<polygon fill="#9a32cd" stroke="#9a32cd" points="1180.97,-479.31 1171.27,-483.56 1181.51,-486.29 1180.97,-479.31"/>
<text text-anchor="middle" x="1243.5" y="-483.35" font-family="Fira Code" font-size="10.00"> renderer</text>
</g>
<!-- Node15 -->
<g id="node15" class="node">
<title>Node15</title>
<g id="a_node15"><a xlink:href="struct_font_book.html" target="_top" xlink:title=" ">
<polygon fill="white" stroke="black" points="1088,-439.85 1088,-458.85 1153,-458.85 1153,-439.85 1088,-439.85"/>
<text text-anchor="middle" x="1120.5" y="-446.85" font-family="Fira Code" font-size="10.00">FontBook</text>
</a>
</g>
</g>
<!-- Node15&#45;&gt;Node12 -->
<g id="edge16" class="edge">
<title>Node15&#45;&gt;Node12</title>
<path fill="none" stroke="#9a32cd" stroke-dasharray="5,2" d="M1163.47,-451.3C1195.47,-453.01 1240.6,-455.94 1280,-460.35 1288.67,-461.33 1297.96,-462.62 1306.71,-463.95"/>
<polygon fill="#9a32cd" stroke="#9a32cd" points="1163.32,-447.79 1153.15,-450.76 1162.95,-454.78 1163.32,-447.79"/>
<text text-anchor="middle" x="1243.5" y="-463.35" font-family="Fira Code" font-size="10.00"> fonts</text>
</g>
<!-- Node16&#45;&gt;Node15 -->
<g id="edge17" class="edge">
<title>Node16&#45;&gt;Node15</title>
<path fill="none" stroke="#9a32cd" stroke-dasharray="5,2" d="M920.08,-492.62C949.22,-488.71 994.93,-481.94 1034,-473.35 1034.7,-473.2 1063.55,-465.1 1087.54,-458.35"/>
<polygon fill="#9a32cd" stroke="#9a32cd" points="919.59,-489.16 910.13,-493.93 920.5,-496.1 919.59,-489.16"/>
<text text-anchor="middle" x="1000.5" y="-488.35" font-family="Fira Code" font-size="10.00"> fpsFont</text>
</g>
<!-- Node17 -->
<g id="node17" class="node">
<title>Node17</title>
<g id="a_node17"><a xlink:title=" ">
<polygon fill="white" stroke="black" points="617,-453.85 617,-472.85 694,-472.85 694,-453.85 617,-453.85"/>
<text text-anchor="middle" x="655.5" y="-460.85" font-family="Fira Code" font-size="10.00">TTF_Font *</text>
</a>
</g>
</g>
<!-- Node17&#45;&gt;Node16 -->
<g id="edge18" class="edge">
<title>Node17&#45;&gt;Node16</title>
<path fill="none" stroke="#9a32cd" stroke-dasharray="5,2" d="M704.05,-467.88C734.91,-471.06 775.93,-475.74 812,-481.35 831.39,-484.37 853.36,-488.78 868.76,-492.04"/>
<polygon fill="#9a32cd" stroke="#9a32cd" points="704.3,-464.39 694,-466.86 703.6,-471.35 704.3,-464.39"/>
<text text-anchor="middle" x="778.5" y="-484.35" font-family="Fira Code" font-size="10.00"> font</text>
</g>
<!-- Node18 -->
<g id="node18" class="node">
<title>Node18</title>
<g id="a_node18"><a xlink:title=" ">
<polygon fill="white" stroke="black" points="608,-415.85 608,-434.85 703,-434.85 703,-415.85 608,-415.85"/>
<text text-anchor="middle" x="655.5" y="-422.85" font-family="Fira Code" font-size="10.00">SDL_Texture *</text>
</a>
</g>
</g>
<!-- Node18&#45;&gt;Node16 -->
<g id="edge19" class="edge">
<title>Node18&#45;&gt;Node16</title>
<path fill="none" stroke="#9a32cd" stroke-dasharray="5,2" d="M713.26,-428.43C744.13,-432.15 782.03,-440.18 812,-457.35 822.38,-463.3 819.97,-470.84 830,-477.35 841.82,-485.03 857.01,-489.84 868.94,-492.7"/>
<polygon fill="#9a32cd" stroke="#9a32cd" points="713.39,-424.92 703.08,-427.32 712.64,-431.88 713.39,-424.92"/>
<text text-anchor="middle" x="778.5" y="-460.35" font-family="Fira Code" font-size="10.00"> tex</text>
</g>
<!-- Node19&#45;&gt;Node12 -->
<g id="edge22" class="edge">
<title>Node19&#45;&gt;Node12</title>
<path fill="none" stroke="#9a32cd" stroke-dasharray="5,2" d="M1181.25,-417.35C1211.37,-421.41 1248.16,-427.99 1280,-438.35 1297.35,-444 1315.89,-453.62 1328.62,-460.84"/>
<polygon fill="#9a32cd" stroke="#9a32cd" points="1181.67,-413.87 1171.3,-416.06 1180.77,-420.82 1181.67,-413.87"/>
<text text-anchor="middle" x="1243.5" y="-441.35" font-family="Fira Code" font-size="10.00"> mouseCursor</text>
</g>
<!-- Node20 -->
<g id="node20" class="node">
<title>Node20</title>
<g id="a_node20"><a xlink:title=" ">
<polygon fill="white" stroke="black" points="854,-410.85 854,-429.85 925,-429.85 925,-410.85 854,-410.85"/>
<text text-anchor="middle" x="889.5" y="-417.85" font-family="Fira Code" font-size="10.00">SDL_Color</text>
</a>
</g>
</g>
<!-- Node20&#45;&gt;Node19 -->
<g id="edge23" class="edge">
<title>Node20&#45;&gt;Node19</title>
<path fill="none" stroke="#9a32cd" stroke-dasharray="5,2" d="M935.72,-418.58C974.41,-417.06 1030.02,-414.87 1069.93,-413.3"/>
<polygon fill="#9a32cd" stroke="#9a32cd" points="935.13,-415.1 925.28,-418.99 935.41,-422.09 935.13,-415.1"/>
<text text-anchor="middle" x="1000.5" y="-419.35" font-family="Fira Code" font-size="10.00"> color</text>
</g>
<!-- Node21 -->
<g id="node21" class="node">
<title>Node21</title>
<g id="a_node21"><a xlink:href="struct_game_context.html" target="_top" xlink:title="Parent node of the entire game state.">
<polygon fill="white" stroke="black" points="434,-562.85 434,-581.85 517,-581.85 517,-562.85 434,-562.85"/>
<text text-anchor="middle" x="475.5" y="-569.85" font-family="Fira Code" font-size="10.00">GameContext</text>
</a>
</g>
</g>
<!-- Node21&#45;&gt;Node2 -->
<g id="edge25" class="edge">
<title>Node21&#45;&gt;Node2</title>
<path fill="none" stroke="#9a32cd" stroke-dasharray="5,2" d="M527.39,-572.35C559.3,-572.35 599.27,-572.35 625.78,-572.35"/>
<polygon fill="#9a32cd" stroke="#9a32cd" points="527.34,-568.85 517.34,-572.35 527.34,-575.85 527.34,-568.85"/>
<text text-anchor="middle" x="550.5" y="-575.35" font-family="Fira Code" font-size="10.00"> game</text>
</g>
<!-- Node22 -->
<g id="node22" class="node">
<title>Node22</title>
<g id="a_node22"><a xlink:href="struct_sim_clock.html" target="_top" xlink:title="Represents time inside the game world.">
<polygon fill="white" stroke="black" points="275,-585.85 275,-604.85 340,-604.85 340,-585.85 275,-585.85"/>
<text text-anchor="middle" x="307.5" y="-592.85" font-family="Fira Code" font-size="10.00">SimClock</text>
</a>
</g>
</g>
<!-- Node22&#45;&gt;Node21 -->
<g id="edge26" class="edge">
<title>Node22&#45;&gt;Node21</title>
<path fill="none" stroke="#9a32cd" stroke-dasharray="5,2" d="M350.26,-589.57C375.86,-586.02 408.48,-581.5 433.87,-577.98"/>
<polygon fill="#9a32cd" stroke="#9a32cd" points="349.54,-586.13 340.11,-590.97 350.5,-593.07 349.54,-586.13"/>
<text text-anchor="middle" x="394.5" y="-588.35" font-family="Fira Code" font-size="10.00"> clock</text>
</g>
<!-- Node23 -->
<g id="node23" class="node">
<title>Node23</title>
<g id="a_node23"><a xlink:href="struct_wall_clock.html" target="_top" xlink:title="Represents real outside&#45;world time.">
<polygon fill="white" stroke="black" points="118,-679.85 118,-698.85 189,-698.85 189,-679.85 118,-679.85"/>
<text text-anchor="middle" x="153.5" y="-686.85" font-family="Fira Code" font-size="10.00">WallClock</text>
</a>
</g>
</g>
<!-- Node23&#45;&gt;Node22 -->
<g id="edge27" class="edge">
<title>Node23&#45;&gt;Node22</title>
<path fill="none" stroke="#9a32cd" stroke-dasharray="5,2" d="M178.53,-674.49C210.06,-654.99 264.5,-621.33 291.05,-604.91"/>
<polygon fill="#9a32cd" stroke="#9a32cd" points="176.58,-671.59 169.91,-679.82 180.26,-677.54 176.58,-671.59"/>
<text text-anchor="middle" x="226.5" y="-656.35" font-family="Fira Code" font-size="10.00"> real</text>
</g>
<!-- Node24 -->
<g id="node24" class="node">
<title>Node24</title>
<g id="a_node24"><a xlink:title=" ">
<polygon fill="white" stroke="black" points="0,-601.85 0,-620.85 65,-620.85 65,-601.85 0,-601.85"/>
<text text-anchor="middle" x="32.5" y="-608.85" font-family="Fira Code" font-size="10.00">uint64_t</text>
</a>
</g>
</g>
<!-- Node24&#45;&gt;Node22 -->
<g id="edge29" class="edge">
<title>Node24&#45;&gt;Node22</title>
<path fill="none" stroke="#9a32cd" stroke-dasharray="5,2" d="M75.32,-607.4C87.76,-606.31 101.42,-605.19 114,-604.35 170.58,-600.57 236.63,-597.85 274.8,-596.45"/>
<polygon fill="#9a32cd" stroke="#9a32cd" points="74.86,-603.92 65.21,-608.3 75.48,-610.9 74.86,-603.92"/>
<text text-anchor="middle" x="153.5" y="-662.35" font-family="Fira Code" font-size="10.00"> Dt</text>
<text text-anchor="middle" x="153.5" y="-651.35" font-family="Fira Code" font-size="10.00">period</text>
<text text-anchor="middle" x="153.5" y="-640.35" font-family="Fira Code" font-size="10.00">t</text>
<text text-anchor="middle" x="153.5" y="-629.35" font-family="Fira Code" font-size="10.00">tick</text>
<text text-anchor="middle" x="153.5" y="-618.35" font-family="Fira Code" font-size="10.00">tpsAccumNs</text>
<text text-anchor="middle" x="153.5" y="-607.35" font-family="Fira Code" font-size="10.00">tpsAccumTicks</text>
</g>
<!-- Node24&#45;&gt;Node23 -->
<g id="edge28" class="edge">
<title>Node24&#45;&gt;Node23</title>
<path fill="none" stroke="#9a32cd" stroke-dasharray="5,2" d="M56.06,-626.78C72.12,-637.69 94.27,-652.59 114,-665.35 121.41,-670.15 129.7,-675.34 136.69,-679.66"/>
<polygon fill="#9a32cd" stroke="#9a32cd" points="57.6,-623.6 47.37,-620.86 53.66,-629.38 57.6,-623.6"/>
<text text-anchor="middle" x="89.5" y="-665.35" font-family="Fira Code" font-size="10.00"> t</text>
<text text-anchor="middle" x="89.5" y="-654.35" font-family="Fira Code" font-size="10.00">t0</text>
</g>
<!-- Node25 -->
<g id="node25" class="node">
<title>Node25</title>
<g id="a_node25"><a xlink:title=" ">
<polygon fill="white" stroke="black" points="130,-539.85 130,-558.85 177,-558.85 177,-539.85 130,-539.85"/>
<text text-anchor="middle" x="153.5" y="-546.85" font-family="Fira Code" font-size="10.00">float</text>
</a>
</g>
</g>
<!-- Node25&#45;&gt;Node22 -->
<g id="edge30" class="edge">
<title>Node25&#45;&gt;Node22</title>
<path fill="none" stroke="#9a32cd" stroke-dasharray="5,2" d="M187.66,-550.07C204.3,-551.19 224.57,-553.74 242,-559.35 242.32,-559.46 270.33,-575.11 289.33,-585.74"/>
<polygon fill="#9a32cd" stroke="#9a32cd" points="187.48,-546.55 177.31,-549.52 187.11,-553.54 187.48,-546.55"/>
<text text-anchor="middle" x="226.5" y="-573.35" font-family="Fira Code" font-size="10.00"> dt</text>
<text text-anchor="middle" x="226.5" y="-562.35" font-family="Fira Code" font-size="10.00">tps</text>
</g>
<!-- Node26 -->
<g id="node26" class="node">
<title>Node26</title>
<g id="a_node26"><a xlink:title=" ">
<polygon fill="white" stroke="black" points="260,-540.85 260,-559.85 355,-559.85 355,-540.85 260,-540.85"/>
<text text-anchor="middle" x="307.5" y="-547.85" font-family="Fira Code" font-size="10.00">volatile bool</text>
</a>
</g>
</g>
<!-- Node26&#45;&gt;Node21 -->
<g id="edge31" class="edge">
<title>Node26&#45;&gt;Node21</title>
<path fill="none" stroke="#9a32cd" stroke-dasharray="5,2" d="M365.17,-547.34C381.66,-547.42 399.64,-548.43 416,-551.35 428.75,-553.63 442.4,-558.39 453.3,-562.8"/>
<polygon fill="#9a32cd" stroke="#9a32cd" points="365.09,-543.84 355.11,-547.41 365.14,-550.84 365.09,-543.84"/>
<text text-anchor="middle" x="394.5" y="-565.35" font-family="Fira Code" font-size="10.00"> paused</text>
<text text-anchor="middle" x="394.5" y="-554.35" font-family="Fira Code" font-size="10.00">running</text>
</g>
<!-- Node27 -->
<g id="node27" class="node">
<title>Node27</title>
<g id="a_node27"><a xlink:href="struct_input_context.html" target="_top" xlink:title="Represents the complete state of all input devices and all buffered inputs.">
<polygon fill="white" stroke="black" points="1496,-173.85 1496,-192.85 1585,-192.85 1585,-173.85 1496,-173.85"/>
<text text-anchor="middle" x="1540.5" y="-180.85" font-family="Fira Code" font-size="10.00">InputContext</text>
</a>
</g>
</g>
<!-- Node27&#45;&gt;Node2 -->
<g id="edge32" class="edge">
<title>Node27&#45;&gt;Node2</title>
<path fill="none" stroke="#9a32cd" stroke-dasharray="5,2" d="M1538.97,-202.94C1535.22,-323.64 1507.77,-961.35 1346.5,-961.35 888.5,-961.35 888.5,-961.35 888.5,-961.35 706.07,-961.35 663.76,-641.87 657.42,-581.97"/>
<polygon fill="#9a32cd" stroke="#9a32cd" points="1542.47,-203.01 1539.27,-192.91 1535.48,-202.8 1542.47,-203.01"/>
<text text-anchor="middle" x="1120.5" y="-964.35" font-family="Fira Code" font-size="10.00"> input</text>
</g>
<!-- Node28&#45;&gt;Node27 -->
<g id="edge33" class="edge">
<title>Node28&#45;&gt;Node27</title>
<path fill="none" stroke="#9a32cd" stroke-dasharray="5,2" d="M1403.4,-199.57C1432.95,-196.05 1468.5,-191.82 1495.86,-188.56"/>
<polygon fill="#9a32cd" stroke="#9a32cd" points="1402.74,-196.13 1393.22,-200.79 1403.56,-203.08 1402.74,-196.13"/>
<text text-anchor="middle" x="1444.5" y="-212.35" font-family="Fira Code" font-size="10.00"> keybinds</text>
<text text-anchor="middle" x="1444.5" y="-201.35" font-family="Fira Code" font-size="10.00">mousebinds</text>
</g>
<!-- Node29 -->
<g id="node29" class="node">
<title>Node29</title>
<g id="a_node29"><a xlink:title=" ">
<polygon fill="white" stroke="black" points="1052,-215.85 1052,-234.85 1189,-234.85 1189,-215.85 1052,-215.85"/>
<text text-anchor="middle" x="1120.5" y="-222.85" font-family="Fira Code" font-size="10.00">enum InputDeviceType</text>
</a>
</g>
</g>
<!-- Node29&#45;&gt;Node28 -->
<g id="edge36" class="edge">
<title>Node29&#45;&gt;Node28</title>
<path fill="none" stroke="#9a32cd" stroke-dasharray="5,2" d="M1199.06,-218.75C1231.93,-215.95 1269.15,-212.77 1297.71,-210.34"/>
<polygon fill="#9a32cd" stroke="#9a32cd" points="1198.68,-215.27 1189.01,-219.6 1199.27,-222.24 1198.68,-215.27"/>
<text text-anchor="middle" x="1243.5" y="-221.35" font-family="Fira Code" font-size="10.00"> type</text>
</g>
<!-- Node30&#45;&gt;Node28 -->
<g id="edge37" class="edge">
<title>Node30&#45;&gt;Node28</title>
<path fill="none" stroke="#9a32cd" stroke-dasharray="5,2" d="M1160.26,-258.34C1192.68,-253.59 1239.94,-245.38 1280,-233.35 1295.35,-228.75 1312.02,-221.71 1324.56,-215.98"/>
<polygon fill="#9a32cd" stroke="#9a32cd" points="1159.68,-254.88 1150.28,-259.76 1160.67,-261.81 1159.68,-254.88"/>
<text text-anchor="middle" x="1243.5" y="-253.35" font-family="Fira Code" font-size="10.00"> keybind</text>
</g>
<!-- Node31 -->
<g id="node31" class="node">
<title>Node31</title>
<g id="a_node31"><a xlink:title=" ">
<polygon fill="white" stroke="black" points="839,-245.85 839,-264.85 940,-264.85 940,-245.85 839,-245.85"/>
<text text-anchor="middle" x="889.5" y="-252.85" font-family="Fira Code" font-size="10.00">unsigned short</text>
</a>
</g>
</g>
<!-- Node31&#45;&gt;Node30 -->
<g id="edge38" class="edge">
<title>Node31&#45;&gt;Node30</title>
<path fill="none" stroke="#9a32cd" stroke-dasharray="5,2" d="M950.01,-254.77C975.84,-254.78 1006.42,-255.13 1034,-256.35 1052.9,-257.19 1074.09,-258.92 1090.64,-260.45"/>
<polygon fill="#9a32cd" stroke="#9a32cd" points="950,-251.27 940,-254.79 950.01,-258.27 950,-251.27"/>
<text text-anchor="middle" x="1000.5" y="-259.35" font-family="Fira Code" font-size="10.00"> keyIndex</text>
</g>
<!-- Node32 -->
<g id="node32" class="node">
<title>Node32</title>
<g id="a_node32"><a xlink:title=" ">
<polygon fill="white" stroke="black" points="830,-124.85 830,-143.85 949,-143.85 949,-124.85 830,-124.85"/>
<text text-anchor="middle" x="889.5" y="-131.85" font-family="Fira Code" font-size="10.00">enum ModifierKeys</text>
</a>
</g>
</g>
<!-- Node32&#45;&gt;Node30 -->
<g id="edge39" class="edge">
<title>Node32&#45;&gt;Node30</title>
<path fill="none" stroke="#9a32cd" stroke-dasharray="5,2" d="M907.8,-150.96C922.76,-164.84 945.33,-184.67 967,-199.35 1002.39,-223.33 1012.31,-228.47 1052,-244.35 1064.43,-249.33 1078.64,-253.54 1090.81,-256.72"/>
<polygon fill="#9a32cd" stroke="#9a32cd" points="910.01,-148.24 900.33,-143.93 905.21,-153.33 910.01,-148.24"/>
<text text-anchor="middle" x="1000.5" y="-240.35" font-family="Fira Code" font-size="10.00"> mod</text>
</g>
<!-- Node32&#45;&gt;Node33 -->
<g id="edge43" class="edge">
<title>Node32&#45;&gt;Node33</title>
<path fill="none" stroke="#9a32cd" stroke-dasharray="5,2" d="M932.7,-122.62C961.61,-116.42 1000.62,-111.7 1034,-120.35 1042.86,-122.65 1043.54,-126.87 1052,-130.35 1062.47,-134.67 1074.24,-138.35 1084.98,-141.3"/>
<polygon fill="#9a32cd" stroke="#9a32cd" points="931.89,-119.21 922.92,-124.85 933.45,-126.04 931.89,-119.21"/>
<text text-anchor="middle" x="1000.5" y="-123.35" font-family="Fira Code" font-size="10.00"> mod</text>
</g>
<!-- Node33&#45;&gt;Node28 -->
<g id="edge41" class="edge">
<title>Node33&#45;&gt;Node28</title>
<path fill="none" stroke="#9a32cd" stroke-dasharray="5,2" d="M1166.55,-145C1199.47,-143.68 1244.39,-145.87 1280,-162.35 1290.27,-167.11 1288.98,-173.53 1298,-180.35 1306.11,-186.49 1315.84,-192.16 1324.3,-196.62"/>
<polygon fill="#9a32cd" stroke="#9a32cd" points="1166.12,-141.51 1156.31,-145.53 1166.48,-148.5 1166.12,-141.51"/>
<text text-anchor="middle" x="1243.5" y="-165.35" font-family="Fira Code" font-size="10.00"> mousebind</text>
</g>
<!-- Node34 -->
<g id="node34" class="node">
<title>Node34</title>
<g id="a_node34"><a xlink:title=" ">
<polygon fill="white" stroke="black" points="830,-70.85 830,-89.85 949,-89.85 949,-70.85 830,-70.85"/>
<text text-anchor="middle" x="889.5" y="-77.85" font-family="Fira Code" font-size="10.00">enum MouseButtons</text>
</a>
</g>
</g>
<!-- Node34&#45;&gt;Node33 -->
<g id="edge42" class="edge">
<title>Node34&#45;&gt;Node33</title>
<path fill="none" stroke="#9a32cd" stroke-dasharray="5,2" d="M959.56,-78.64C984.7,-80.93 1012.25,-87.1 1034,-101.35 1046.69,-109.67 1039.88,-121.24 1052,-130.35 1061.53,-137.53 1073.66,-141.99 1085,-144.77"/>
<polygon fill="#9a32cd" stroke="#9a32cd" points="959.56,-75.13 949.33,-77.9 959.06,-82.11 959.56,-75.13"/>
<text text-anchor="middle" x="1000.5" y="-104.35" font-family="Fira Code" font-size="10.00"> button</text>
</g>
<!-- Node34&#45;&gt;Node37 -->
<g id="edge49" class="edge">
<title>Node34&#45;&gt;Node37</title>
<path fill="none" stroke="#9a32cd" stroke-dasharray="5,2" d="M920.26,-66.75C934.15,-61.11 951.1,-55.23 967,-52.35 1006.99,-45.13 1053.85,-46.21 1084.97,-48.23"/>
<polygon fill="#9a32cd" stroke="#9a32cd" points="918.6,-63.65 910.74,-70.77 921.32,-70.1 918.6,-63.65"/>
<text text-anchor="middle" x="1000.5" y="-55.35" font-family="Fira Code" font-size="10.00"> buttons</text>
</g>
<!-- Node35 -->
<g id="node35" class="node">
<title>Node35</title>
<g id="a_node35"><a xlink:title=" ">
<polygon fill="white" stroke="black" points="1076,-101.85 1076,-120.85 1165,-120.85 1165,-101.85 1076,-101.85"/>
<text text-anchor="middle" x="1120.5" y="-108.85" font-family="Fira Code" font-size="10.00">anonymous:@1</text>
</a>
</g>
</g>
<!-- Node35&#45;&gt;Node28 -->
<g id="edge45" class="edge">
<title>Node35&#45;&gt;Node28</title>
<path fill="none" stroke="#9a32cd" stroke-dasharray="5,2" d="M1175.27,-104.89C1208.78,-103.81 1250.89,-108.19 1280,-131.35 1298.15,-145.8 1282.94,-162.71 1298,-180.35 1303.88,-187.25 1312.08,-192.67 1319.95,-196.75"/>
<polygon fill="#9a32cd" stroke="#9a32cd" points="1174.99,-101.4 1165.18,-105.38 1175.34,-108.39 1174.99,-101.4"/>
<text text-anchor="middle" x="1243.5" y="-134.35" font-family="Fira Code" font-size="10.00"> @1</text>
</g>
<!-- Node36 -->
<g id="node36" class="node">
<title>Node36</title>
<g id="a_node36"><a xlink:title=" ">
<polygon fill="white" stroke="black" points="1319,-151.85 1319,-170.85 1372,-170.85 1372,-151.85 1319,-151.85"/>
<text text-anchor="middle" x="1345.5" y="-158.85" font-family="Fira Code" font-size="10.00">size_t</text>
</a>
</g>
</g>
<!-- Node36&#45;&gt;Node27 -->
<g id="edge46" class="edge">
<title>Node36&#45;&gt;Node27</title>
<path fill="none" stroke="#9a32cd" stroke-dasharray="5,2" d="M1382.42,-158.55C1409.01,-157.21 1446.01,-156.92 1478,-162.35 1491.35,-164.62 1505.69,-169.38 1517.17,-173.79"/>
<polygon fill="#9a32cd" stroke="#9a32cd" points="1382.2,-155.05 1372.42,-159.12 1382.6,-162.04 1382.2,-155.05"/>
<text text-anchor="middle" x="1444.5" y="-176.35" font-family="Fira Code" font-size="10.00"> nKeybinds</text>
<text text-anchor="middle" x="1444.5" y="-165.35" font-family="Fira Code" font-size="10.00">nMousebinds</text>
</g>
<!-- Node37&#45;&gt;Node27 -->
<g id="edge47" class="edge">
<title>Node37&#45;&gt;Node27</title>
<path fill="none" stroke="#9a32cd" stroke-dasharray="5,2" d="M1165.98,-61.78C1234.18,-78.3 1368.21,-112.91 1478,-154.35 1492.91,-159.98 1509.2,-167.74 1521.26,-173.81"/>
<polygon fill="#9a32cd" stroke="#9a32cd" points="1166.55,-58.31 1156.01,-59.38 1164.91,-65.12 1166.55,-58.31"/>
<text text-anchor="middle" x="1345.5" y="-128.35" font-family="Fira Code" font-size="10.00"> mouse</text>
</g>
<!-- Node38 -->
<g id="node38" class="node">
<title>Node38</title>
<g id="a_node38"><a xlink:title=" ">
<polygon fill="white" stroke="black" points="863,-913.85 863,-932.85 916,-932.85 916,-913.85 863,-913.85"/>
<text text-anchor="middle" x="889.5" y="-920.85" font-family="Fira Code" font-size="10.00">time_t</text>
</a>
</g>
</g>
<!-- Node38&#45;&gt;Node1 -->
<g id="edge51" class="edge">
<title>Node38&#45;&gt;Node1</title>
<path fill="none" stroke="#9a32cd" stroke-dasharray="5,2" d="M926.37,-920.06C955.96,-916.53 998.68,-909.55 1034,-896.35 1061.38,-886.12 1090.1,-867.43 1106.31,-856.03"/>
<polygon fill="#9a32cd" stroke="#9a32cd" points="925.64,-916.62 916.09,-921.21 926.42,-923.57 925.64,-916.62"/>
<text text-anchor="middle" x="1000.5" y="-916.35" font-family="Fira Code" font-size="10.00"> loadTime</text>
</g>
<!-- Node39 -->
<g id="node39" class="node">
<title>Node39</title>
<g id="a_node39"><a xlink:title=" ">
<polygon fill="white" stroke="black" points="869,-874.85 869,-893.85 910,-893.85 910,-874.85 869,-874.85"/>
<text text-anchor="middle" x="889.5" y="-881.85" font-family="Fira Code" font-size="10.00">char</text>
</a>
</g>
</g>
<!-- Node39&#45;&gt;Node1 -->
<g id="edge52" class="edge">
<title>Node39&#45;&gt;Node1</title>
<path fill="none" stroke="#9a32cd" stroke-dasharray="5,2" d="M920.09,-879.44C965.36,-871.93 1051.04,-857.71 1093.84,-850.61"/>
<polygon fill="#9a32cd" stroke="#9a32cd" points="919.32,-876.02 910.02,-881.11 920.46,-882.93 919.32,-876.02"/>
<text text-anchor="middle" x="1000.5" y="-884.35" font-family="Fira Code" font-size="10.00"> cachePath</text>
<text text-anchor="middle" x="1000.5" y="-873.35" font-family="Fira Code" font-size="10.00">path</text>
</g>
<!-- Node40 -->
<g id="node40" class="node">
<title>Node40</title>
<g id="a_node40"><a xlink:title=" ">
<polygon fill="white" stroke="black" points="863,-836.85 863,-855.85 916,-855.85 916,-836.85 863,-836.85"/>
<text text-anchor="middle" x="889.5" y="-843.85" font-family="Fira Code" font-size="10.00">void *</text>
</a>
</g>
</g>
<!-- Node40&#45;&gt;Node1 -->
<g id="edge53" class="edge">
<title>Node40&#45;&gt;Node1</title>
<path fill="none" stroke="#9a32cd" stroke-dasharray="5,2" d="M926.56,-846.35C973.09,-846.35 1052.92,-846.35 1093.77,-846.35"/>
<polygon fill="#9a32cd" stroke="#9a32cd" points="926.32,-842.85 916.32,-846.35 926.32,-849.85 926.32,-842.85"/>
<text text-anchor="middle" x="1000.5" y="-849.35" font-family="Fira Code" font-size="10.00"> lib</text>
</g>
</g>
</svg>
        <g id="navigator" transform="translate(0 0)" fill="#404254">
                <rect fill="#f2f5e9" fill-opacity="0.5" stroke="#606060" stroke-width=".5" x="0" y="0" width="60" height="60"/>
                <use id="zoomplus" xlink:href="#zoomPlus" x="17" y="9" onmousedown="handleZoom(evt,'in')"/>
                <use id="zoomminus" xlink:href="#zoomMin" x="42" y="9" onmousedown="handleZoom(evt,'out')"/>
                <use id="reset" xlink:href="#resetDef" x="30" y="36" onmousedown="handleReset()"/>
                <g id="arrowUp" xlink:href="#dirArrow" transform="translate(30 24)" onmousedown="handlePan(0,-1)">
                  <use xlink:href="#rim" fill="#404040">
                        <set attributeName="fill" to="#808080" begin="arrowUp.mouseover" end="arrowUp.mouseout"/>
                  </use>
                  <path fill="none" stroke="white" stroke-width="1.5" d="M0,-3.0v7 M-2.5,-0.5L0,-3.0L2.5,-0.5"/>
                </g>
                <g id="arrowRight" xlink:href="#dirArrow" transform="rotate(90) translate(36 -43)" onmousedown="handlePan(1,0)">
                  <use xlink:href="#rim" fill="#404040">
                        <set attributeName="fill" to="#808080" begin="arrowRight.mouseover" end="arrowRight.mouseout"/>
                  </use>
                  <path fill="none" stroke="white" stroke-width="1.5" d="M0,-3.0v7 M-2.5,-0.5L0,-3.0L2.5,-0.5"/>
                </g>
                <g id="arrowDown" xlink:href="#dirArrow" transform="rotate(180) translate(-30 -48)" onmousedown="handlePan(0,1)">
                  <use xlink:href="#rim" fill="#404040">
                        <set attributeName="fill" to="#808080" begin="arrowDown.mouseover" end="arrowDown.mouseout"/>
                  </use>
                  <path fill="none" stroke="white" stroke-width="1.5" d="M0,-3.0v7 M-2.5,-0.5L0,-3.0L2.5,-0.5"/>
                </g>
                <g id="arrowLeft" xlink:href="#dirArrow" transform="rotate(270) translate(-36 17)" onmousedown="handlePan(-1,0)">
                  <use xlink:href="#rim" fill="#404040">
                        <set attributeName="fill" to="#808080" begin="arrowLeft.mouseover" end="arrowLeft.mouseout"/>
                  </use>
                  <path fill="none" stroke="white" stroke-width="1.5" d="M0,-3.0v7 M-2.5,-0.5L0,-3.0L2.5,-0.5"/>
                </g>
        </g>
        <svg viewBox="0 0 15 15" width="100%" height="30px" preserveAspectRatio="xMaxYMin meet">
         <g id="arrow_out" transform="scale(0.3 0.3)">
          <a xlink:href="struct_plugin__coll__graph_org.svg" target="_base">
           <rect id="button" ry="5" rx="5" y="6" x="6" height="38" width="38"
                fill="#f2f5e9" fill-opacity="0.5" stroke="#606060" stroke-width="1.0"/>
           <path id="arrow"
             d="M 11.500037,31.436501 C 11.940474,20.09759 22.043105,11.32322 32.158766,21.979434 L 37.068811,17.246167 C 37.068811,17.246167 37.088388,32 37.088388,32 L 22.160133,31.978069 C 22.160133,31.978069 26.997745,27.140456 26.997745,27.140456 C 18.528582,18.264221 13.291696,25.230495 11.500037,31.436501 z"
             style="fill:#404040;"/>
          </a>
         </g>
        </svg>
</svg>
