<?xml version="1.0" encoding="UTF-8" standalone="no"?>
<!DOCTYPE svg PUBLIC "-//W3C//DTD SVG 1.1//EN"
 "http://www.w3.org/Graphics/SVG/1.1/DTD/svg11.dtd">
<!-- Generated by graphviz version 3.0.0 (20220226.1711)
 -->
<!-- Title: MouseAxes Pages: 1 -->
<svg width="180pt" height="117pt"
 viewBox="0.00 0.00 180.00 117.00" xmlns="http://www.w3.org/2000/svg" xmlns:xlink="http://www.w3.org/1999/xlink">
<g id="graph0" class="graph" transform="scale(1 1) rotate(0) translate(4 113)">
<title>MouseAxes</title>
<polygon fill="white" stroke="transparent" points="-4,4 -4,-113 176,-113 176,4 -4,4"/>
<!-- Node1 -->
<g id="node1" class="node">
<title>Node1</title>
<g id="a_node1"><a xlink:title="Represents the mouse state.">
<polygon fill="#bfbfbf" stroke="black" points="29,-0.5 29,-19.5 100,-19.5 100,-0.5 29,-0.5"/>
<text text-anchor="middle" x="64.5" y="-7.5" font-family="Fira Code" font-size="10.00">MouseAxes</text>
</a>
</g>
</g>
<!-- Node2 -->
<g id="node2" class="node">
<title>Node2</title>
<g id="a_node2"><a xlink:title=" ">
<polygon fill="white" stroke="black" points="0,-89.5 0,-108.5 35,-108.5 35,-89.5 0,-89.5"/>
<text text-anchor="middle" x="17.5" y="-96.5" font-family="Fira Code" font-size="10.00">int</text>
</a>
</g>
</g>
<!-- Node2&#45;&gt;Node1 -->
<g id="edge1" class="edge">
<title>Node2&#45;&gt;Node1</title>
<path fill="none" stroke="#9a32cd" stroke-dasharray="5,2" d="M25.96,-79.94C31.73,-67.9 39.72,-51.81 47.5,-38 50.98,-31.82 55.23,-25.07 58.61,-19.87"/>
<polygon fill="#9a32cd" stroke="#9a32cd" points="22.63,-78.78 21.51,-89.32 28.96,-81.78 22.63,-78.78"/>
<text text-anchor="middle" x="69" y="-63" font-family="Fira Code" font-size="10.00"> scroll</text>
<text text-anchor="middle" x="69" y="-52" font-family="Fira Code" font-size="10.00">x</text>
<text text-anchor="middle" x="69" y="-41" font-family="Fira Code" font-size="10.00">y</text>
</g>
<!-- Node3 -->
<g id="node3" class="node">
<title>Node3</title>
<g id="a_node3"><a xlink:title=" ">
<polygon fill="white" stroke="black" points="53,-89.5 53,-108.5 172,-108.5 172,-89.5 53,-89.5"/>
<text text-anchor="middle" x="112.5" y="-96.5" font-family="Fira Code" font-size="10.00">enum MouseButtons</text>
</a>
</g>
</g>
<!-- Node3&#45;&gt;Node1 -->
<g id="edge2" class="edge">
<title>Node3&#45;&gt;Node1</title>
<path fill="none" stroke="#9a32cd" stroke-dasharray="5,2" d="M107.83,-79.32C104.23,-66.99 98.52,-50.82 90.5,-38 86.22,-31.16 79.99,-24.61 74.7,-19.68"/>
<polygon fill="#9a32cd" stroke="#9a32cd" points="104.55,-80.6 110.53,-89.35 111.31,-78.78 104.55,-80.6"/>
<text text-anchor="middle" x="129" y="-52" font-family="Fira Code" font-size="10.00"> buttons</text>
</g>
</g>
</svg>
