<?xml version="1.0" encoding="UTF-8" standalone="no"?>
<!DOCTYPE svg PUBLIC "-//W3C//DTD SVG 1.1//EN"
 "http://www.w3.org/Graphics/SVG/1.1/DTD/svg11.dtd">
<!-- Generated by graphviz version 3.0.0 (20220226.1711)
 -->
<!-- Title: WallClock Pages: 1 -->
<svg width="79pt" height="106pt"
 viewBox="0.00 0.00 79.00 106.00" xmlns="http://www.w3.org/2000/svg" xmlns:xlink="http://www.w3.org/1999/xlink">
<g id="graph0" class="graph" transform="scale(1 1) rotate(0) translate(4 102)">
<title>WallClock</title>
<polygon fill="white" stroke="transparent" points="-4,4 -4,-102 75,-102 75,4 -4,4"/>
<!-- Node1 -->
<g id="node1" class="node">
<title>Node1</title>
<g id="a_node1"><a xlink:title="Represents real outside&#45;world time.">
<polygon fill="#bfbfbf" stroke="black" points="0,-0.5 0,-19.5 71,-19.5 71,-0.5 0,-0.5"/>
<text text-anchor="middle" x="35.5" y="-7.5" font-family="Fira Code" font-size="10.00">WallClock</text>
</a>
</g>
</g>
<!-- Node2 -->
<g id="node2" class="node">
<title>Node2</title>
<g id="a_node2"><a xlink:title=" ">
<polygon fill="white" stroke="black" points="3,-78.5 3,-97.5 68,-97.5 68,-78.5 3,-78.5"/>
<text text-anchor="middle" x="35.5" y="-85.5" font-family="Fira Code" font-size="10.00">uint64_t</text>
</a>
</g>
</g>
<!-- Node2&#45;&gt;Node1 -->
<g id="edge1" class="edge">
<title>Node2&#45;&gt;Node1</title>
<path fill="none" stroke="#9a32cd" stroke-dasharray="5,2" d="M35.5,-68.22C35.5,-52.7 35.5,-31.36 35.5,-19.62"/>
<polygon fill="#9a32cd" stroke="#9a32cd" points="32,-68.28 35.5,-78.28 39,-68.28 32,-68.28"/>
<text text-anchor="middle" x="42" y="-52" font-family="Fira Code" font-size="10.00"> t</text>
<text text-anchor="middle" x="42" y="-41" font-family="Fira Code" font-size="10.00">t0</text>
</g>
</g>
</svg>
