<?xml version="1.0" encoding="UTF-8" standalone="no"?>
<!DOCTYPE svg PUBLIC "-//W3C//DTD SVG 1.1//EN"
 "http://www.w3.org/Graphics/SVG/1.1/DTD/svg11.dtd">
<!-- Generated by graphviz version 3.0.0 (20220226.1711)
 -->
<!-- Title: Mousebind Pages: 1 -->
<svg width="323pt" height="95pt"
 viewBox="0.00 0.00 323.00 95.00" xmlns="http://www.w3.org/2000/svg" xmlns:xlink="http://www.w3.org/1999/xlink">
<g id="graph0" class="graph" transform="scale(1 1) rotate(0) translate(4 91)">
<title>Mousebind</title>
<polygon fill="white" stroke="transparent" points="-4,4 -4,-91 319,-91 319,4 -4,4"/>
<!-- Node1 -->
<g id="node1" class="node">
<title>Node1</title>
<g id="a_node1"><a xlink:title="Represents a mouse button combination the state of which is being tracked by an action.">
<polygon fill="#bfbfbf" stroke="black" points="161,-0.5 161,-19.5 232,-19.5 232,-0.5 161,-0.5"/>
<text text-anchor="middle" x="196.5" y="-7.5" font-family="Fira Code" font-size="10.00">Mousebind</text>
</a>
</g>
</g>
<!-- Node2 -->
<g id="node2" class="node">
<title>Node2</title>
<g id="a_node2"><a xlink:title=" ">
<polygon fill="white" stroke="black" points="0,-67.5 0,-86.5 119,-86.5 119,-67.5 0,-67.5"/>
<text text-anchor="middle" x="59.5" y="-74.5" font-family="Fira Code" font-size="10.00">enum MouseButtons</text>
</a>
</g>
</g>
<!-- Node2&#45;&gt;Node1 -->
<g id="edge1" class="edge">
<title>Node2&#45;&gt;Node1</title>
<path fill="none" stroke="#9a32cd" stroke-dasharray="5,2" d="M87.02,-62.94C114.15,-50.07 154.86,-30.76 178.23,-19.67"/>
<polygon fill="#9a32cd" stroke="#9a32cd" points="85.23,-59.92 77.69,-67.37 88.23,-66.24 85.23,-59.92"/>
<text text-anchor="middle" x="158" y="-41" font-family="Fira Code" font-size="10.00"> button</text>
</g>
<!-- Node3 -->
<g id="node3" class="node">
<title>Node3</title>
<g id="a_node3"><a xlink:title=" ">
<polygon fill="white" stroke="black" points="137,-67.5 137,-86.5 256,-86.5 256,-67.5 137,-67.5"/>
<text text-anchor="middle" x="196.5" y="-74.5" font-family="Fira Code" font-size="10.00">enum ModifierKeys</text>
</a>
</g>
</g>
<!-- Node3&#45;&gt;Node1 -->
<g id="edge2" class="edge">
<title>Node3&#45;&gt;Node1</title>
<path fill="none" stroke="#9a32cd" stroke-dasharray="5,2" d="M196.5,-57.04C196.5,-44.67 196.5,-29.12 196.5,-19.63"/>
<polygon fill="#9a32cd" stroke="#9a32cd" points="193,-57.23 196.5,-67.23 200,-57.23 193,-57.23"/>
<text text-anchor="middle" x="209" y="-41" font-family="Fira Code" font-size="10.00"> mod</text>
</g>
<!-- Node4 -->
<g id="node4" class="node">
<title>Node4</title>
<g id="a_node4"><a xlink:title=" ">
<polygon fill="white" stroke="black" points="274,-67.5 274,-86.5 315,-86.5 315,-67.5 274,-67.5"/>
<text text-anchor="middle" x="294.5" y="-74.5" font-family="Fira Code" font-size="10.00">bool</text>
</a>
</g>
</g>
<!-- Node4&#45;&gt;Node1 -->
<g id="edge3" class="edge">
<title>Node4&#45;&gt;Node1</title>
<path fill="none" stroke="#9a32cd" stroke-dasharray="5,2" d="M272.78,-61.59C253.39,-48.74 225.64,-30.33 209.51,-19.63"/>
<polygon fill="#9a32cd" stroke="#9a32cd" points="271.02,-64.62 281.28,-67.23 274.88,-58.79 271.02,-64.62"/>
<text text-anchor="middle" x="269" y="-41" font-family="Fira Code" font-size="10.00"> state</text>
</g>
</g>
</svg>
