<?xml version="1.0" encoding="UTF-8" standalone="no"?>
<!DOCTYPE svg PUBLIC "-//W3C//DTD SVG 1.1//EN"
 "http://www.w3.org/Graphics/SVG/1.1/DTD/svg11.dtd">
<!-- Generated by graphviz version 3.0.0 (20220226.1711)
 -->
<!-- Title: src/include/lmda/timing.h Pages: 1 -->
<!--zoomable 162 -->
<svg id="main" version="1.1" xmlns="http://www.w3.org/2000/svg" xmlns:xlink="http://www.w3.org/1999/xlink" xml:space="preserve" onload="init(evt)">
<style type="text/css"><![CDATA[
.edge:hover path { stroke: red; }
.edge:hover polygon { stroke: red; fill: red; }
]]></style>
<script type="text/javascript"><![CDATA[
var edges = document.getElementsByTagName('g');
if (edges && edges.length) {
  for (var i=0;i<edges.length;i++) {
    if (edges[i].id.substr(0,4)=='edge') {
      edges[i].setAttribute('class','edge');
    }
  }
}
]]></script>
        <defs>
                <circle id="rim" cx="0" cy="0" r="7"/>
                <circle id="rim2" cx="0" cy="0" r="3.5"/>
                <g id="zoomPlus">
                        <use xlink:href="#rim" fill="#404040">
                                <set attributeName="fill" to="#808080" begin="zoomplus.mouseover" end="zoomplus.mouseout"/>
                        </use>
                        <path d="M-4,0h8M0,-4v8" fill="none" stroke="white" stroke-width="1.5" pointer-events="none"/>
                </g>
                <g id="zoomMin">
                        <use xlink:href="#rim" fill="#404040">
                                <set attributeName="fill" to="#808080" begin="zoomminus.mouseover" end="zoomminus.mouseout"/>
                        </use>
                        <path d="M-4,0h8" fill="none" stroke="white" stroke-width="1.5" pointer-events="none"/>
                </g>
                <g id="dirArrow">
                        <path fill="none" stroke="white" stroke-width="1.5" d="M0,-3.0v7 M-2.5,-0.5L0,-3.0L2.5,-0.5"/>
                </g>
               <g id="resetDef">
                       <use xlink:href="#rim2" fill="#404040">
                               <set attributeName="fill" to="#808080" begin="reset.mouseover" end="reset.mouseout"/>
                       </use>
               </g>
        </defs>

<script type="text/javascript">
var viewWidth = 914;
var viewHeight = 162;
var sectionId = 'dynsection-0';
</script>
<script xlink:href="svgpan.js"/>
<svg id="graph" class="graph">
<g id="viewport">
<title>src/include/lmda/timing.h</title>
<polygon fill="white" stroke="transparent" points="-4,4 -4,-158 910,-158 910,4 -4,4"/>
<!-- Node1 -->
<g id="node1" class="node">
<title>Node1</title>
<g id="a_node1"><a xlink:title="Platform&#45;independent high&#45;resolution timing interface, for measurement and delays.">
<polygon fill="#bfbfbf" stroke="black" points="253,-134.5 253,-153.5 420,-153.5 420,-134.5 253,-134.5"/>
<text text-anchor="middle" x="336.5" y="-141.5" font-family="Fira Code" font-size="10.00">src/include/lmda/timing.h</text>
</a>
</g>
</g>
<!-- Node2 -->
<g id="node2" class="node">
<title>Node2</title>
<g id="a_node2"><a xlink:href="main_8c.html" target="_top" xlink:title="Entrypoint to game application (i.e. game plugin host).">
<polygon fill="white" stroke="black" points="0,-6 0,-25 101,-25 101,-6 0,-6"/>
<text text-anchor="middle" x="50.5" y="-13" font-family="Fira Code" font-size="10.00">src/app/main.c</text>
</a>
</g>
</g>
<!-- Node1&#45;&gt;Node2 -->
<g id="edge1" class="edge">
<title>Node1&#45;&gt;Node2</title>
<path fill="none" stroke="midnightblue" d="M300.27,-131.27C275.07,-122.8 240.86,-110.66 211.5,-98 156.55,-74.31 93.98,-40.6 65.74,-25.01"/>
<polygon fill="midnightblue" stroke="midnightblue" points="299.2,-134.61 309.8,-134.45 301.41,-127.97 299.2,-134.61"/>
</g>
<!-- Node3 -->
<g id="node3" class="node">
<title>Node3</title>
<g id="a_node3"><a xlink:href="sdl_8c.html" target="_top" xlink:title="High&#45;level SDL operations, e.g. opening a window.">
<polygon fill="white" stroke="black" points="119,-6 119,-25 244,-25 244,-6 119,-6"/>
<text text-anchor="middle" x="181.5" y="-13" font-family="Fira Code" font-size="10.00">src/game/sdl/sdl.c</text>
</a>
</g>
</g>
<!-- Node1&#45;&gt;Node3 -->
<g id="edge2" class="edge">
<title>Node1&#45;&gt;Node3</title>
<path fill="none" stroke="midnightblue" d="M302.24,-130.67C283.93,-123.03 261.67,-112 244.5,-98 217.88,-76.31 195.75,-41.31 186.35,-25.17"/>
<polygon fill="midnightblue" stroke="midnightblue" points="301.1,-133.98 311.69,-134.45 303.71,-127.48 301.1,-133.98"/>
</g>
<!-- Node4 -->
<g id="node4" class="node">
<title>Node4</title>
<g id="a_node4"><a xlink:href="plugin_8h.html" target="_top" xlink:title="Declares the interface to the game library; implementing that interface defines a game plugin.">
<polygon fill="white" stroke="black" points="253,-73 253,-92 420,-92 420,-73 253,-73"/>
<text text-anchor="middle" x="336.5" y="-80" font-family="Fira Code" font-size="10.00">src/include/lmda/plugin.h</text>
</a>
</g>
</g>
<!-- Node1&#45;&gt;Node4 -->
<g id="edge3" class="edge">
<title>Node1&#45;&gt;Node4</title>
<path fill="none" stroke="midnightblue" d="M336.5,-124.32C336.5,-113.5 336.5,-100.4 336.5,-92.01"/>
<polygon fill="midnightblue" stroke="midnightblue" points="333,-124.48 336.5,-134.48 340,-124.48 333,-124.48"/>
</g>
<!-- Node8 -->
<g id="node8" class="node">
<title>Node8</title>
<g id="a_node8"><a xlink:href="timing__mac_8c.html" target="_top" xlink:title="High&#45;resolution timing on MacOS.">
<polygon fill="white" stroke="black" points="751,-0.5 751,-30.5 906,-30.5 906,-0.5 751,-0.5"/>
<text text-anchor="start" x="759" y="-18.5" font-family="Fira Code" font-size="10.00">src/platform/mac/timing</text>
<text text-anchor="middle" x="828.5" y="-7.5" font-family="Fira Code" font-size="10.00">_mac.c</text>
</a>
</g>
</g>
<!-- Node1&#45;&gt;Node8 -->
<g id="edge11" class="edge">
<title>Node1&#45;&gt;Node8</title>
<path fill="none" stroke="midnightblue" d="M366.72,-130.42C385.36,-122.17 409.46,-110.6 429.5,-98 448.25,-86.22 448.12,-75.65 468.5,-67 581.57,-19.04 621.03,-49.21 742.5,-31 745.2,-30.6 747.94,-30.18 750.7,-29.75"/>
<polygon fill="midnightblue" stroke="midnightblue" points="365.29,-127.22 357.51,-134.42 368.08,-133.64 365.29,-127.22"/>
</g>
<!-- Node9 -->
<g id="node9" class="node">
<title>Node9</title>
<g id="a_node9"><a xlink:href="timing_8c.html" target="_top" xlink:title="Platform&#45;independent timing operations.">
<polygon fill="white" stroke="black" points="477,-67.5 477,-97.5 608,-97.5 608,-67.5 477,-67.5"/>
<text text-anchor="start" x="485" y="-85.5" font-family="Fira Code" font-size="10.00">src/platform/common</text>
<text text-anchor="middle" x="542.5" y="-74.5" font-family="Fira Code" font-size="10.00">/timing.c</text>
</a>
</g>
</g>
<!-- Node1&#45;&gt;Node9 -->
<g id="edge10" class="edge">
<title>Node1&#45;&gt;Node9</title>
<path fill="none" stroke="midnightblue" d="M375.94,-131.61C409.54,-121.9 457.97,-107.92 493.95,-97.52"/>
<polygon fill="midnightblue" stroke="midnightblue" points="374.65,-128.34 366.01,-134.48 376.59,-135.06 374.65,-128.34"/>
</g>
<!-- Node4&#45;&gt;Node2 -->
<g id="edge4" class="edge">
<title>Node4&#45;&gt;Node2</title>
<path fill="none" stroke="midnightblue" d="M286.65,-70.74C240.61,-60.73 170.35,-45.24 109.5,-31 101.49,-29.12 92.88,-27.05 84.79,-25.06"/>
<polygon fill="midnightblue" stroke="midnightblue" points="286.15,-74.21 296.66,-72.92 287.63,-67.37 286.15,-74.21"/>
</g>
<!-- Node4&#45;&gt;Node3 -->
<g id="edge6" class="edge">
<title>Node4&#45;&gt;Node3</title>
<path fill="none" stroke="midnightblue" d="M306.57,-68.95C275.88,-56.08 228.96,-36.4 202.17,-25.17"/>
<polygon fill="midnightblue" stroke="midnightblue" points="305.34,-72.23 315.92,-72.87 308.05,-65.77 305.34,-72.23"/>
</g>
<!-- Node5 -->
<g id="node5" class="node">
<title>Node5</title>
<g id="a_node5"><a xlink:href="game__plugin_8c.html" target="_top" xlink:title="The game plugin itself; implements the plugin interface to run the game.">
<polygon fill="white" stroke="black" points="262,-6 262,-25 411,-25 411,-6 262,-6"/>
<text text-anchor="middle" x="336.5" y="-13" font-family="Fira Code" font-size="10.00">src/game/game_plugin.c</text>
</a>
</g>
</g>
<!-- Node4&#45;&gt;Node5 -->
<g id="edge5" class="edge">
<title>Node4&#45;&gt;Node5</title>
<path fill="none" stroke="midnightblue" d="M336.5,-62.54C336.5,-50.17 336.5,-34.62 336.5,-25.13"/>
<polygon fill="midnightblue" stroke="midnightblue" points="333,-62.73 336.5,-72.73 340,-62.73 333,-62.73"/>
</g>
<!-- Node6 -->
<g id="node6" class="node">
<title>Node6</title>
<g id="a_node6"><a xlink:href="plugin_8c.html" target="_top" xlink:title="Platform&#45;independent plugin loading operations.">
<polygon fill="white" stroke="black" points="429,-0.5 429,-30.5 560,-30.5 560,-0.5 429,-0.5"/>
<text text-anchor="start" x="437" y="-18.5" font-family="Fira Code" font-size="10.00">src/platform/common</text>
<text text-anchor="middle" x="494.5" y="-7.5" font-family="Fira Code" font-size="10.00">/plugin.c</text>
</a>
</g>
</g>
<!-- Node4&#45;&gt;Node6 -->
<g id="edge7" class="edge">
<title>Node4&#45;&gt;Node6</title>
<path fill="none" stroke="midnightblue" d="M366.74,-69.06C393.51,-58.05 432.53,-41.99 460.4,-30.53"/>
<polygon fill="midnightblue" stroke="midnightblue" points="365.4,-65.83 357.48,-72.87 368.06,-72.3 365.4,-65.83"/>
</g>
<!-- Node7 -->
<g id="node7" class="node">
<title>Node7</title>
<g id="a_node7"><a xlink:href="plugin__mac_8c.html" target="_top" xlink:title="Plugin loading on MacOS.">
<polygon fill="white" stroke="black" points="578,-0.5 578,-30.5 733,-30.5 733,-0.5 578,-0.5"/>
<text text-anchor="start" x="586" y="-18.5" font-family="Fira Code" font-size="10.00">src/platform/mac/plugin</text>
<text text-anchor="middle" x="655.5" y="-7.5" font-family="Fira Code" font-size="10.00">_mac.c</text>
</a>
</g>
</g>
<!-- Node4&#45;&gt;Node7 -->
<g id="edge8" class="edge">
<title>Node4&#45;&gt;Node7</title>
<path fill="none" stroke="midnightblue" d="M388.56,-70.89C442.49,-59.9 527.04,-42.68 586.5,-30.56"/>
<polygon fill="midnightblue" stroke="midnightblue" points="387.63,-67.51 378.53,-72.94 389.03,-74.37 387.63,-67.51"/>
</g>
<!-- Node4&#45;&gt;Node8 -->
<g id="edge9" class="edge">
<title>Node4&#45;&gt;Node8</title>
<path fill="none" stroke="midnightblue" d="M401.82,-71.55C412.72,-69.97 423.93,-68.4 434.5,-67 571.13,-48.91 606.06,-50.46 742.5,-31 745.2,-30.62 747.94,-30.21 750.71,-29.8"/>
<polygon fill="midnightblue" stroke="midnightblue" points="401.3,-68.09 391.91,-73 402.32,-75.02 401.3,-68.09"/>
</g>
</g>
</svg>
        <g id="navigator" transform="translate(0 0)" fill="#404254">
                <rect fill="#f2f5e9" fill-opacity="0.5" stroke="#606060" stroke-width=".5" x="0" y="0" width="60" height="60"/>
                <use id="zoomplus" xlink:href="#zoomPlus" x="17" y="9" onmousedown="handleZoom(evt,'in')"/>
                <use id="zoomminus" xlink:href="#zoomMin" x="42" y="9" onmousedown="handleZoom(evt,'out')"/>
                <use id="reset" xlink:href="#resetDef" x="30" y="36" onmousedown="handleReset()"/>
                <g id="arrowUp" xlink:href="#dirArrow" transform="translate(30 24)" onmousedown="handlePan(0,-1)">
                  <use xlink:href="#rim" fill="#404040">
                        <set attributeName="fill" to="#808080" begin="arrowUp.mouseover" end="arrowUp.mouseout"/>
                  </use>
                  <path fill="none" stroke="white" stroke-width="1.5" d="M0,-3.0v7 M-2.5,-0.5L0,-3.0L2.5,-0.5"/>
                </g>
                <g id="arrowRight" xlink:href="#dirArrow" transform="rotate(90) translate(36 -43)" onmousedown="handlePan(1,0)">
                  <use xlink:href="#rim" fill="#404040">
                        <set attributeName="fill" to="#808080" begin="arrowRight.mouseover" end="arrowRight.mouseout"/>
                  </use>
                  <path fill="none" stroke="white" stroke-width="1.5" d="M0,-3.0v7 M-2.5,-0.5L0,-3.0L2.5,-0.5"/>
                </g>
                <g id="arrowDown" xlink:href="#dirArrow" transform="rotate(180) translate(-30 -48)" onmousedown="handlePan(0,1)">
                  <use xlink:href="#rim" fill="#404040">
                        <set attributeName="fill" to="#808080" begin="arrowDown.mouseover" end="arrowDown.mouseout"/>
                  </use>
                  <path fill="none" stroke="white" stroke-width="1.5" d="M0,-3.0v7 M-2.5,-0.5L0,-3.0L2.5,-0.5"/>
                </g>
                <g id="arrowLeft" xlink:href="#dirArrow" transform="rotate(270) translate(-36 17)" onmousedown="handlePan(-1,0)">
                  <use xlink:href="#rim" fill="#404040">
                        <set attributeName="fill" to="#808080" begin="arrowLeft.mouseover" end="arrowLeft.mouseout"/>
                  </use>
                  <path fill="none" stroke="white" stroke-width="1.5" d="M0,-3.0v7 M-2.5,-0.5L0,-3.0L2.5,-0.5"/>
                </g>
        </g>
        <svg viewBox="0 0 15 15" width="100%" height="30px" preserveAspectRatio="xMaxYMin meet">
         <g id="arrow_out" transform="scale(0.3 0.3)">
          <a xlink:href="timing_8h__dep__incl_org.svg" target="_base">
           <rect id="button" ry="5" rx="5" y="6" x="6" height="38" width="38"
                fill="#f2f5e9" fill-opacity="0.5" stroke="#606060" stroke-width="1.0"/>
           <path id="arrow"
             d="M 11.500037,31.436501 C 11.940474,20.09759 22.043105,11.32322 32.158766,21.979434 L 37.068811,17.246167 C 37.068811,17.246167 37.088388,32 37.088388,32 L 22.160133,31.978069 C 22.160133,31.978069 26.997745,27.140456 26.997745,27.140456 C 18.528582,18.264221 13.291696,25.230495 11.500037,31.436501 z"
             style="fill:#404040;"/>
          </a>
         </g>
        </svg>
</svg>
