<?xml version="1.0" encoding="UTF-8" standalone="no"?>
<!DOCTYPE svg PUBLIC "-//W3C//DTD SVG 1.1//EN"
 "http://www.w3.org/Graphics/SVG/1.1/DTD/svg11.dtd">
<!-- Generated by graphviz version 3.0.0 (20220226.1711)
 -->
<!-- Title: src/platform/mac/timing_mac.c Pages: 1 -->
<svg width="665pt" height="263pt"
 viewBox="0.00 0.00 665.00 263.00" xmlns="http://www.w3.org/2000/svg" xmlns:xlink="http://www.w3.org/1999/xlink">
<g id="graph0" class="graph" transform="scale(1 1) rotate(0) translate(4 259)">
<title>src/platform/mac/timing_mac.c</title>
<polygon fill="white" stroke="transparent" points="-4,4 -4,-259 661,-259 661,4 -4,4"/>
<!-- Node1 -->
<g id="node1" class="node">
<title>Node1</title>
<g id="a_node1"><a xlink:title="High&#45;resolution timing on MacOS.">
<polygon fill="#bfbfbf" stroke="black" points="201,-224.5 201,-254.5 356,-254.5 356,-224.5 201,-224.5"/>
<text text-anchor="start" x="209" y="-242.5" font-family="Fira Code" font-size="10.00">src/platform/mac/timing</text>
<text text-anchor="middle" x="278.5" y="-231.5" font-family="Fira Code" font-size="10.00">_mac.c</text>
</a>
</g>
</g>
<!-- Node2 -->
<g id="node2" class="node">
<title>Node2</title>
<g id="a_node2"><a xlink:href="timing_8h.html" target="_top" xlink:title="Platform&#45;independent high&#45;resolution timing interface, for measurement and delays.">
<polygon fill="white" stroke="black" points="0,-112.5 0,-131.5 95,-131.5 95,-112.5 0,-112.5"/>
<text text-anchor="middle" x="47.5" y="-119.5" font-family="Fira Code" font-size="10.00">lmda/timing.h</text>
</a>
</g>
</g>
<!-- Node1&#45;&gt;Node2 -->
<g id="edge1" class="edge">
<title>Node1&#45;&gt;Node2</title>
<path fill="none" stroke="midnightblue" d="M250.17,-224.34C205.04,-201.77 117.43,-157.97 73.68,-136.09"/>
<polygon fill="midnightblue" stroke="midnightblue" points="75.05,-132.86 64.54,-131.52 71.92,-139.12 75.05,-132.86"/>
</g>
<!-- Node3 -->
<g id="node3" class="node">
<title>Node3</title>
<g id="a_node3"><a xlink:href="plugin_8h.html" target="_top" xlink:title="Declares the interface to the game library; implementing that interface defines a game plugin.">
<polygon fill="white" stroke="black" points="231,-168.5 231,-187.5 326,-187.5 326,-168.5 231,-168.5"/>
<text text-anchor="middle" x="278.5" y="-175.5" font-family="Fira Code" font-size="10.00">lmda/plugin.h</text>
</a>
</g>
</g>
<!-- Node1&#45;&gt;Node3 -->
<g id="edge2" class="edge">
<title>Node1&#45;&gt;Node3</title>
<path fill="none" stroke="midnightblue" d="M278.5,-224.4C278.5,-216.47 278.5,-206.46 278.5,-197.86"/>
<polygon fill="midnightblue" stroke="midnightblue" points="282,-197.66 278.5,-187.66 275,-197.66 282,-197.66"/>
</g>
<!-- Node9 -->
<g id="node9" class="node">
<title>Node9</title>
<g id="a_node9"><a xlink:href="log_8h.html" target="_top" xlink:title=" ">
<polygon fill="white" stroke="black" points="455,-112.5 455,-131.5 532,-131.5 532,-112.5 455,-112.5"/>
<text text-anchor="middle" x="493.5" y="-119.5" font-family="Fira Code" font-size="10.00">lmda/log.h</text>
</a>
</g>
</g>
<!-- Node1&#45;&gt;Node9 -->
<g id="edge19" class="edge">
<title>Node1&#45;&gt;Node9</title>
<path fill="none" stroke="midnightblue" d="M304.86,-224.34C346.7,-201.86 427.73,-158.33 468.62,-136.37"/>
<polygon fill="midnightblue" stroke="midnightblue" points="470.48,-139.34 477.64,-131.52 467.17,-133.17 470.48,-139.34"/>
</g>
<!-- Node3&#45;&gt;Node2 -->
<g id="edge18" class="edge">
<title>Node3&#45;&gt;Node2</title>
<path fill="none" stroke="midnightblue" d="M241.9,-168.44C201.77,-159.06 137.3,-143.99 93.72,-133.8"/>
<polygon fill="midnightblue" stroke="midnightblue" points="94.47,-130.38 83.93,-131.52 92.87,-137.2 94.47,-130.38"/>
</g>
<!-- Node4 -->
<g id="node4" class="node">
<title>Node4</title>
<g id="a_node4"><a xlink:href="fs_8h.html" target="_top" xlink:title="Declares the game&#39;s interface to the platform filesystem.">
<polygon fill="white" stroke="black" points="113,-112.5 113,-131.5 184,-131.5 184,-112.5 113,-112.5"/>
<text text-anchor="middle" x="148.5" y="-119.5" font-family="Fira Code" font-size="10.00">lmda/fs.h</text>
</a>
</g>
</g>
<!-- Node3&#45;&gt;Node4 -->
<g id="edge3" class="edge">
<title>Node3&#45;&gt;Node4</title>
<path fill="none" stroke="midnightblue" d="M257.9,-168.44C236.51,-159.56 202.82,-145.56 178.48,-135.45"/>
<polygon fill="midnightblue" stroke="midnightblue" points="179.58,-132.12 169,-131.52 176.89,-138.58 179.58,-132.12"/>
</g>
<!-- Node5 -->
<g id="node5" class="node">
<title>Node5</title>
<g id="a_node5"><a xlink:href="game_8h.html" target="_top" xlink:title="Declares the highest&#45;level game state and evolution operations.">
<polygon fill="white" stroke="black" points="202,-112.5 202,-131.5 285,-131.5 285,-112.5 202,-112.5"/>
<text text-anchor="middle" x="243.5" y="-119.5" font-family="Fira Code" font-size="10.00">lmda/game.h</text>
</a>
</g>
</g>
<!-- Node3&#45;&gt;Node5 -->
<g id="edge4" class="edge">
<title>Node3&#45;&gt;Node5</title>
<path fill="none" stroke="midnightblue" d="M272.72,-168.08C267.83,-160.53 260.67,-149.49 254.67,-140.23"/>
<polygon fill="midnightblue" stroke="midnightblue" points="257.55,-138.24 249.17,-131.75 251.67,-142.05 257.55,-138.24"/>
</g>
<!-- Node6 -->
<g id="node6" class="node">
<title>Node6</title>
<g id="a_node6"><a xlink:href="input_8h.html" target="_top" xlink:title="The game&#39;s interface to the user input devices.">
<polygon fill="white" stroke="black" points="217,-56.5 217,-75.5 306,-75.5 306,-56.5 217,-56.5"/>
<text text-anchor="middle" x="261.5" y="-63.5" font-family="Fira Code" font-size="10.00">lmda/input.h</text>
</a>
</g>
</g>
<!-- Node3&#45;&gt;Node6 -->
<g id="edge5" class="edge">
<title>Node3&#45;&gt;Node6</title>
<path fill="none" stroke="midnightblue" d="M283.36,-168.47C289.85,-155.93 299.84,-131.86 293.5,-112 290.16,-101.54 283.4,-91.43 276.95,-83.45"/>
<polygon fill="midnightblue" stroke="midnightblue" points="279.44,-80.98 270.25,-75.71 274.15,-85.56 279.44,-80.98"/>
</g>
<!-- Node3&#45;&gt;Node9 -->
<g id="edge8" class="edge">
<title>Node3&#45;&gt;Node9</title>
<path fill="none" stroke="midnightblue" d="M312.57,-168.44C349.68,-159.12 409.16,-144.18 449.71,-134"/>
<polygon fill="midnightblue" stroke="midnightblue" points="450.75,-137.35 459.59,-131.52 449.04,-130.56 450.75,-137.35"/>
</g>
<!-- Node10 -->
<g id="node10" class="node">
<title>Node10</title>
<g id="a_node10"><a xlink:href="sdl_8h.html" target="_top" xlink:title="Interface to the SDL subsystems (rendering, image loading, sound, etc).">
<polygon fill="white" stroke="black" points="342,-112.5 342,-131.5 419,-131.5 419,-112.5 342,-112.5"/>
<text text-anchor="middle" x="380.5" y="-119.5" font-family="Fira Code" font-size="10.00">lmda/sdl.h</text>
</a>
</g>
</g>
<!-- Node3&#45;&gt;Node10 -->
<g id="edge9" class="edge">
<title>Node3&#45;&gt;Node10</title>
<path fill="none" stroke="midnightblue" d="M294.89,-168.32C311.17,-159.7 336.37,-146.36 355.22,-136.39"/>
<polygon fill="midnightblue" stroke="midnightblue" points="356.95,-139.43 364.15,-131.65 353.68,-133.24 356.95,-139.43"/>
</g>
<!-- Node7 -->
<g id="node7" class="node">
<title>Node7</title>
<g id="a_node7"><a xlink:href="keyboard_8h.html" target="_top" xlink:title="Defines symbols for SDL keyboard key identifiers.">
<polygon fill="white" stroke="black" points="122,-0.5 122,-19.5 265,-19.5 265,-0.5 122,-0.5"/>
<text text-anchor="middle" x="193.5" y="-7.5" font-family="Fira Code" font-size="10.00">lmda/input/keyboard.h</text>
</a>
</g>
</g>
<!-- Node6&#45;&gt;Node7 -->
<g id="edge6" class="edge">
<title>Node6&#45;&gt;Node7</title>
<path fill="none" stroke="midnightblue" d="M250.57,-56.32C240.33,-48.18 224.78,-35.84 212.5,-26.09"/>
<polygon fill="midnightblue" stroke="midnightblue" points="214.63,-23.31 204.62,-19.83 210.28,-28.79 214.63,-23.31"/>
</g>
<!-- Node8 -->
<g id="node8" class="node">
<title>Node8</title>
<g id="a_node8"><a xlink:href="signal_8h.html" target="_top" xlink:title="Declares the types of signal transitions that may represent a state change.">
<polygon fill="white" stroke="black" points="283,-0.5 283,-19.5 378,-19.5 378,-0.5 283,-0.5"/>
<text text-anchor="middle" x="330.5" y="-7.5" font-family="Fira Code" font-size="10.00">lmda/signal.h</text>
</a>
</g>
</g>
<!-- Node6&#45;&gt;Node8 -->
<g id="edge7" class="edge">
<title>Node6&#45;&gt;Node8</title>
<path fill="none" stroke="midnightblue" d="M272.59,-56.32C282.99,-48.18 298.76,-35.84 311.22,-26.09"/>
<polygon fill="midnightblue" stroke="midnightblue" points="313.49,-28.75 319.21,-19.83 309.18,-23.24 313.49,-28.75"/>
</g>
<!-- Node10&#45;&gt;Node6 -->
<g id="edge15" class="edge">
<title>Node10&#45;&gt;Node6</title>
<path fill="none" stroke="midnightblue" d="M361.64,-112.44C342.23,-103.64 311.77,-89.81 289.54,-79.72"/>
<polygon fill="midnightblue" stroke="midnightblue" points="290.82,-76.46 280.27,-75.52 287.93,-82.84 290.82,-76.46"/>
</g>
<!-- Node10&#45;&gt;Node10 -->
<g id="edge16" class="edge">
<title>Node10&#45;&gt;Node10</title>
<path fill="none" stroke="midnightblue" d="M404.6,-131.53C420.97,-134.31 437,-131.13 437,-122 437,-114.79 427.02,-111.3 414.77,-111.51"/>
<polygon fill="midnightblue" stroke="midnightblue" points="414.22,-108.04 404.6,-112.47 414.88,-115.01 414.22,-108.04"/>
</g>
<!-- Node11 -->
<g id="node11" class="node">
<title>Node11</title>
<g id="a_node11"><a xlink:href="color_8h.html" target="_top" xlink:title="Defines symbols for common SDL color values.">
<polygon fill="white" stroke="black" points="324,-56.5 324,-75.5 437,-75.5 437,-56.5 324,-56.5"/>
<text text-anchor="middle" x="380.5" y="-63.5" font-family="Fira Code" font-size="10.00">lmda/sdl/color.h</text>
</a>
</g>
</g>
<!-- Node10&#45;&gt;Node11 -->
<g id="edge10" class="edge">
<title>Node10&#45;&gt;Node11</title>
<path fill="none" stroke="midnightblue" d="M375.33,-112.08C373.82,-104.93 373.39,-94.64 374.04,-85.69"/>
<polygon fill="midnightblue" stroke="midnightblue" points="377.52,-86.13 375.37,-75.75 370.58,-85.2 377.52,-86.13"/>
</g>
<!-- Node12 -->
<g id="node12" class="node">
<title>Node12</title>
<g id="a_node12"><a xlink:href="ttf_8h.html" target="_top" xlink:title=" ">
<polygon fill="white" stroke="black" points="455,-56.5 455,-75.5 556,-75.5 556,-56.5 455,-56.5"/>
<text text-anchor="middle" x="505.5" y="-63.5" font-family="Fira Code" font-size="10.00">lmda/sdl/ttf.h</text>
</a>
</g>
</g>
<!-- Node10&#45;&gt;Node12 -->
<g id="edge12" class="edge">
<title>Node10&#45;&gt;Node12</title>
<path fill="none" stroke="midnightblue" d="M395.22,-112.44C413.92,-103.52 446.28,-89.44 471.22,-79.32"/>
<polygon fill="midnightblue" stroke="midnightblue" points="472.72,-82.48 480.71,-75.52 470.12,-75.99 472.72,-82.48"/>
</g>
<!-- Node14 -->
<g id="node14" class="node">
<title>Node14</title>
<g id="a_node14"><a xlink:title=" ">
<polygon fill="white" stroke="#bfbfbf" points="574,-56.5 574,-75.5 657,-75.5 657,-56.5 574,-56.5"/>
<text text-anchor="middle" x="615.5" y="-63.5" font-family="Fira Code" font-size="10.00">SDL_image.h</text>
</a>
</g>
</g>
<!-- Node10&#45;&gt;Node14 -->
<g id="edge17" class="edge">
<title>Node10&#45;&gt;Node14</title>
<path fill="none" stroke="midnightblue" d="M417.74,-112.44C458.56,-103.06 524.14,-87.99 568.48,-77.8"/>
<polygon fill="midnightblue" stroke="midnightblue" points="569.48,-81.17 578.44,-75.52 567.91,-74.34 569.48,-81.17"/>
</g>
<!-- Node11&#45;&gt;Node10 -->
<g id="edge11" class="edge">
<title>Node11&#45;&gt;Node10</title>
<path fill="none" stroke="midnightblue" d="M385.63,-75.75C387.16,-82.86 387.6,-93.14 386.97,-102.1"/>
<polygon fill="midnightblue" stroke="midnightblue" points="383.49,-101.71 385.67,-112.08 390.43,-102.62 383.49,-101.71"/>
</g>
<!-- Node12&#45;&gt;Node10 -->
<g id="edge13" class="edge">
<title>Node12&#45;&gt;Node10</title>
<path fill="none" stroke="midnightblue" d="M490.87,-75.52C472.2,-84.43 439.85,-98.5 414.89,-108.64"/>
<polygon fill="midnightblue" stroke="midnightblue" points="413.38,-105.48 405.4,-112.44 415.98,-111.97 413.38,-105.48"/>
</g>
<!-- Node13 -->
<g id="node13" class="node">
<title>Node13</title>
<g id="a_node13"><a xlink:title=" ">
<polygon fill="white" stroke="#bfbfbf" points="470,-0.5 470,-19.5 541,-19.5 541,-0.5 470,-0.5"/>
<text text-anchor="middle" x="505.5" y="-7.5" font-family="Fira Code" font-size="10.00">SDL_ttf.h</text>
</a>
</g>
</g>
<!-- Node12&#45;&gt;Node13 -->
<g id="edge14" class="edge">
<title>Node12&#45;&gt;Node13</title>
<path fill="none" stroke="midnightblue" d="M505.5,-56.08C505.5,-49.01 505.5,-38.86 505.5,-29.99"/>
<polygon fill="midnightblue" stroke="midnightblue" points="509,-29.75 505.5,-19.75 502,-29.75 509,-29.75"/>
</g>
</g>
</svg>
