<?xml version="1.0" encoding="UTF-8" standalone="no"?>
<!DOCTYPE svg PUBLIC "-//W3C//DTD SVG 1.1//EN"
 "http://www.w3.org/Graphics/SVG/1.1/DTD/svg11.dtd">
<!-- Generated by graphviz version 3.0.0 (20220226.1711)
 -->
<!-- Title: src/platform/common/timing.c Pages: 1 -->
<svg width="352pt" height="95pt"
 viewBox="0.00 0.00 352.00 95.00" xmlns="http://www.w3.org/2000/svg" xmlns:xlink="http://www.w3.org/1999/xlink">
<g id="graph0" class="graph" transform="scale(1 1) rotate(0) translate(4 91)">
<title>src/platform/common/timing.c</title>
<polygon fill="white" stroke="transparent" points="-4,4 -4,-91 348,-91 348,4 -4,4"/>
<!-- Node1 -->
<g id="node1" class="node">
<title>Node1</title>
<g id="a_node1"><a xlink:title="Platform&#45;independent timing operations.">
<polygon fill="#bfbfbf" stroke="black" points="127,-56.5 127,-86.5 258,-86.5 258,-56.5 127,-56.5"/>
<text text-anchor="start" x="135" y="-74.5" font-family="Fira Code" font-size="10.00">src/platform/common</text>
<text text-anchor="middle" x="192.5" y="-63.5" font-family="Fira Code" font-size="10.00">/timing.c</text>
</a>
</g>
</g>
<!-- Node2 -->
<g id="node2" class="node">
<title>Node2</title>
<g id="a_node2"><a xlink:href="timing_8h.html" target="_top" xlink:title="Platform&#45;independent high&#45;resolution timing interface, for measurement and delays.">
<polygon fill="white" stroke="black" points="0,-0.5 0,-19.5 95,-19.5 95,-0.5 0,-0.5"/>
<text text-anchor="middle" x="47.5" y="-7.5" font-family="Fira Code" font-size="10.00">lmda/timing.h</text>
</a>
</g>
</g>
<!-- Node1&#45;&gt;Node2 -->
<g id="edge1" class="edge">
<title>Node1&#45;&gt;Node2</title>
<path fill="none" stroke="midnightblue" d="M158.14,-56.4C133.81,-46.42 101.47,-33.15 78.04,-23.53"/>
<polygon fill="midnightblue" stroke="midnightblue" points="79.18,-20.22 68.6,-19.66 76.52,-26.69 79.18,-20.22"/>
</g>
<!-- Node3 -->
<g id="node3" class="node">
<title>Node3</title>
<g id="a_node3"><a xlink:href="log_8h.html" target="_top" xlink:title=" ">
<polygon fill="white" stroke="black" points="113,-0.5 113,-19.5 190,-19.5 190,-0.5 113,-0.5"/>
<text text-anchor="middle" x="151.5" y="-7.5" font-family="Fira Code" font-size="10.00">lmda/log.h</text>
</a>
</g>
</g>
<!-- Node1&#45;&gt;Node3 -->
<g id="edge2" class="edge">
<title>Node1&#45;&gt;Node3</title>
<path fill="none" stroke="midnightblue" d="M182.78,-56.4C176.95,-47.93 169.48,-37.1 163.31,-28.14"/>
<polygon fill="midnightblue" stroke="midnightblue" points="166.02,-25.91 157.47,-19.66 160.26,-29.88 166.02,-25.91"/>
</g>
<!-- Node4 -->
<g id="node4" class="node">
<title>Node4</title>
<g id="a_node4"><a xlink:title=" ">
<polygon fill="white" stroke="#bfbfbf" points="208,-0.5 208,-19.5 261,-19.5 261,-0.5 208,-0.5"/>
<text text-anchor="middle" x="234.5" y="-7.5" font-family="Fira Code" font-size="10.00">math.h</text>
</a>
</g>
</g>
<!-- Node1&#45;&gt;Node4 -->
<g id="edge3" class="edge">
<title>Node1&#45;&gt;Node4</title>
<path fill="none" stroke="midnightblue" d="M202.45,-56.4C208.49,-47.84 216.24,-36.87 222.6,-27.86"/>
<polygon fill="midnightblue" stroke="midnightblue" points="225.48,-29.85 228.39,-19.66 219.76,-25.81 225.48,-29.85"/>
</g>
<!-- Node5 -->
<g id="node5" class="node">
<title>Node5</title>
<g id="a_node5"><a xlink:title=" ">
<polygon fill="white" stroke="#bfbfbf" points="279,-0.5 279,-19.5 344,-19.5 344,-0.5 279,-0.5"/>
<text text-anchor="middle" x="311.5" y="-7.5" font-family="Fira Code" font-size="10.00">string.h</text>
</a>
</g>
</g>
<!-- Node1&#45;&gt;Node5 -->
<g id="edge4" class="edge">
<title>Node1&#45;&gt;Node5</title>
<path fill="none" stroke="midnightblue" d="M220.7,-56.4C240.22,-46.64 266.03,-33.74 285.13,-24.18"/>
<polygon fill="midnightblue" stroke="midnightblue" points="286.81,-27.26 294.18,-19.66 283.67,-21 286.81,-27.26"/>
</g>
</g>
</svg>
