<?xml version="1.0" encoding="UTF-8" standalone="no"?>
<!DOCTYPE svg PUBLIC "-//W3C//DTD SVG 1.1//EN"
 "http://www.w3.org/Graphics/SVG/1.1/DTD/svg11.dtd">
<!-- Generated by graphviz version 3.0.0 (20220226.1711)
 -->
<!-- Title: src/include/lmda/sdl/ttf.h Pages: 1 -->
<svg width="914pt" height="229pt"
 viewBox="0.00 0.00 914.00 229.00" xmlns="http://www.w3.org/2000/svg" xmlns:xlink="http://www.w3.org/1999/xlink">
<g id="graph0" class="graph" transform="scale(1 1) rotate(0) translate(4 225)">
<title>src/include/lmda/sdl/ttf.h</title>
<polygon fill="white" stroke="transparent" points="-4,4 -4,-225 910,-225 910,4 -4,4"/>
<!-- Node1 -->
<g id="node1" class="node">
<title>Node1</title>
<g id="a_node1"><a xlink:title=" ">
<polygon fill="#bfbfbf" stroke="black" points="268,-190.5 268,-220.5 405,-220.5 405,-190.5 268,-190.5"/>
<text text-anchor="start" x="276" y="-208.5" font-family="Fira Code" font-size="10.00">src/include/lmda/sdl</text>
<text text-anchor="middle" x="336.5" y="-197.5" font-family="Fira Code" font-size="10.00">/ttf.h</text>
</a>
</g>
</g>
<!-- Node2 -->
<g id="node2" class="node">
<title>Node2</title>
<g id="a_node2"><a xlink:href="sdl_8c.html" target="_top" xlink:title="High&#45;level SDL operations, e.g. opening a window.">
<polygon fill="white" stroke="black" points="0,-6 0,-25 125,-25 125,-6 0,-6"/>
<text text-anchor="middle" x="62.5" y="-13" font-family="Fira Code" font-size="10.00">src/game/sdl/sdl.c</text>
</a>
</g>
</g>
<!-- Node1&#45;&gt;Node2 -->
<g id="edge1" class="edge">
<title>Node1&#45;&gt;Node2</title>
<path fill="none" stroke="midnightblue" d="M257.99,-196.33C195.11,-185.26 110.4,-159.22 66.5,-98 50.65,-75.9 56.33,-41.1 60.15,-25.09"/>
<polygon fill="midnightblue" stroke="midnightblue" points="257.44,-199.78 267.88,-197.98 258.6,-192.88 257.44,-199.78"/>
</g>
<!-- Node3 -->
<g id="node3" class="node">
<title>Node3</title>
<g id="a_node3"><a xlink:href="ttf_8c.html" target="_top" xlink:title="Rendering text in truetype fonts.">
<polygon fill="white" stroke="black" points="447,-134.5 447,-153.5 572,-153.5 572,-134.5 447,-134.5"/>
<text text-anchor="middle" x="509.5" y="-141.5" font-family="Fira Code" font-size="10.00">src/game/sdl/ttf.c</text>
</a>
</g>
</g>
<!-- Node1&#45;&gt;Node3 -->
<g id="edge2" class="edge">
<title>Node1&#45;&gt;Node3</title>
<path fill="none" stroke="midnightblue" d="M387.16,-187.08C419.21,-176.05 459.22,-162.29 484.58,-153.57"/>
<polygon fill="midnightblue" stroke="midnightblue" points="385.82,-183.84 377.5,-190.4 388.09,-190.46 385.82,-183.84"/>
</g>
<!-- Node4 -->
<g id="node4" class="node">
<title>Node4</title>
<g id="a_node4"><a xlink:href="sdl_8h.html" target="_top" xlink:title="Interface to the SDL subsystems (rendering, image loading, sound, etc).">
<polygon fill="white" stroke="black" points="262,-134.5 262,-153.5 411,-153.5 411,-134.5 262,-134.5"/>
<text text-anchor="middle" x="336.5" y="-141.5" font-family="Fira Code" font-size="10.00">src/include/lmda/sdl.h</text>
</a>
</g>
</g>
<!-- Node1&#45;&gt;Node4 -->
<g id="edge3" class="edge">
<title>Node1&#45;&gt;Node4</title>
<path fill="none" stroke="midnightblue" d="M329.86,-180.29C329.49,-170.86 330.07,-160.65 331.57,-153.66"/>
<polygon fill="midnightblue" stroke="midnightblue" points="326.38,-180.71 330.66,-190.4 333.36,-180.15 326.38,-180.71"/>
</g>
<!-- Node4&#45;&gt;Node1 -->
<g id="edge17" class="edge">
<title>Node4&#45;&gt;Node1</title>
<path fill="none" stroke="midnightblue" d="M342.81,-163.57C343.53,-172.23 343.37,-182.38 342.34,-190.4"/>
<polygon fill="midnightblue" stroke="midnightblue" points="346.27,-163.08 341.43,-153.66 339.34,-164.04 346.27,-163.08"/>
</g>
<!-- Node4&#45;&gt;Node2 -->
<g id="edge4" class="edge">
<title>Node4&#45;&gt;Node2</title>
<path fill="none" stroke="midnightblue" d="M251.62,-136.88C189.66,-130.73 112.48,-119.06 88.5,-98 66.85,-78.99 63.08,-41.99 62.53,-25.18"/>
<polygon fill="midnightblue" stroke="midnightblue" points="251.53,-140.38 261.82,-137.85 252.2,-133.42 251.53,-140.38"/>
</g>
<!-- Node4&#45;&gt;Node4 -->
<g id="edge12" class="edge">
<title>Node4&#45;&gt;Node4</title>
<path fill="none" stroke="midnightblue" d="M380.69,-154.67C405.76,-156.76 429,-153.21 429,-144 429,-133.57 399.19,-130.39 370.65,-134.47"/>
<polygon fill="midnightblue" stroke="midnightblue" points="380.98,-151.18 370.65,-153.53 380.2,-158.13 380.98,-151.18"/>
</g>
<!-- Node5 -->
<g id="node5" class="node">
<title>Node5</title>
<g id="a_node5"><a xlink:href="plugin_8h.html" target="_top" xlink:title="Declares the interface to the game library; implementing that interface defines a game plugin.">
<polygon fill="white" stroke="black" points="253,-73 253,-92 420,-92 420,-73 253,-73"/>
<text text-anchor="middle" x="336.5" y="-80" font-family="Fira Code" font-size="10.00">src/include/lmda/plugin.h</text>
</a>
</g>
</g>
<!-- Node4&#45;&gt;Node5 -->
<g id="edge5" class="edge">
<title>Node4&#45;&gt;Node5</title>
<path fill="none" stroke="midnightblue" d="M336.5,-124.32C336.5,-113.5 336.5,-100.4 336.5,-92.01"/>
<polygon fill="midnightblue" stroke="midnightblue" points="333,-124.48 336.5,-134.48 340,-124.48 333,-124.48"/>
</g>
<!-- Node11 -->
<g id="node11" class="node">
<title>Node11</title>
<g id="a_node11"><a xlink:href="color_8h.html" target="_top" xlink:title="Defines symbols for common SDL color values.">
<polygon fill="white" stroke="black" points="438,-67.5 438,-97.5 575,-97.5 575,-67.5 438,-67.5"/>
<text text-anchor="start" x="446" y="-85.5" font-family="Fira Code" font-size="10.00">src/include/lmda/sdl</text>
<text text-anchor="middle" x="506.5" y="-74.5" font-family="Fira Code" font-size="10.00">/color.h</text>
</a>
</g>
</g>
<!-- Node4&#45;&gt;Node11 -->
<g id="edge13" class="edge">
<title>Node4&#45;&gt;Node11</title>
<path fill="none" stroke="midnightblue" d="M365.66,-130.85C391.79,-121.18 430.37,-107.65 460.6,-97.52"/>
<polygon fill="midnightblue" stroke="midnightblue" points="364.1,-127.69 355.96,-134.48 366.55,-134.25 364.1,-127.69"/>
</g>
<!-- Node12 -->
<g id="node12" class="node">
<title>Node12</title>
<g id="a_node12"><a xlink:href="event__type__name_8h.html" target="_top" xlink:title=" ">
<polygon fill="white" stroke="black" points="98,-67.5 98,-97.5 235,-97.5 235,-67.5 98,-67.5"/>
<text text-anchor="start" x="106" y="-85.5" font-family="Fira Code" font-size="10.00">src/include/lmda/sdl</text>
<text text-anchor="middle" x="166.5" y="-74.5" font-family="Fira Code" font-size="10.00">/event_type_name.h</text>
</a>
</g>
</g>
<!-- Node4&#45;&gt;Node12 -->
<g id="edge15" class="edge">
<title>Node4&#45;&gt;Node12</title>
<path fill="none" stroke="midnightblue" d="M302.51,-131.1C274.85,-121.42 235.75,-107.74 206.57,-97.52"/>
<polygon fill="midnightblue" stroke="midnightblue" points="301.55,-134.48 312.14,-134.48 303.86,-127.87 301.55,-134.48"/>
</g>
<!-- Node13 -->
<g id="node13" class="node">
<title>Node13</title>
<g id="a_node13"><a xlink:href="fs_8c.html" target="_top" xlink:title="Platform&#45;independent filesystem operations.">
<polygon fill="white" stroke="black" points="593,-73 593,-92 754,-92 754,-73 593,-73"/>
<text text-anchor="middle" x="673.5" y="-80" font-family="Fira Code" font-size="10.00">src/platform/common/fs.c</text>
</a>
</g>
</g>
<!-- Node4&#45;&gt;Node13 -->
<g id="edge18" class="edge">
<title>Node4&#45;&gt;Node13</title>
<path fill="none" stroke="midnightblue" d="M394.91,-132.69C460.14,-121.17 564.54,-102.74 625.31,-92.01"/>
<polygon fill="midnightblue" stroke="midnightblue" points="394.02,-129.29 384.78,-134.48 395.24,-136.18 394.02,-129.29"/>
</g>
<!-- Node5&#45;&gt;Node2 -->
<g id="edge8" class="edge">
<title>Node5&#45;&gt;Node2</title>
<path fill="none" stroke="midnightblue" d="M290.4,-70.56C236.38,-57.75 148.01,-36.78 98.68,-25.08"/>
<polygon fill="midnightblue" stroke="midnightblue" points="289.86,-74.03 300.4,-72.94 291.48,-67.22 289.86,-74.03"/>
</g>
<!-- Node6 -->
<g id="node6" class="node">
<title>Node6</title>
<g id="a_node6"><a xlink:href="main_8c.html" target="_top" xlink:title="Entrypoint to game application (i.e. game plugin host).">
<polygon fill="white" stroke="black" points="143,-6 143,-25 244,-25 244,-6 143,-6"/>
<text text-anchor="middle" x="193.5" y="-13" font-family="Fira Code" font-size="10.00">src/app/main.c</text>
</a>
</g>
</g>
<!-- Node5&#45;&gt;Node6 -->
<g id="edge6" class="edge">
<title>Node5&#45;&gt;Node6</title>
<path fill="none" stroke="midnightblue" d="M308.15,-68.61C279.83,-55.74 237.07,-36.31 212.57,-25.17"/>
<polygon fill="midnightblue" stroke="midnightblue" points="306.96,-71.92 317.51,-72.87 309.86,-65.54 306.96,-71.92"/>
</g>
<!-- Node7 -->
<g id="node7" class="node">
<title>Node7</title>
<g id="a_node7"><a xlink:href="game__plugin_8c.html" target="_top" xlink:title="The game plugin itself; implements the plugin interface to run the game.">
<polygon fill="white" stroke="black" points="262,-6 262,-25 411,-25 411,-6 262,-6"/>
<text text-anchor="middle" x="336.5" y="-13" font-family="Fira Code" font-size="10.00">src/game/game_plugin.c</text>
</a>
</g>
</g>
<!-- Node5&#45;&gt;Node7 -->
<g id="edge7" class="edge">
<title>Node5&#45;&gt;Node7</title>
<path fill="none" stroke="midnightblue" d="M336.5,-62.54C336.5,-50.17 336.5,-34.62 336.5,-25.13"/>
<polygon fill="midnightblue" stroke="midnightblue" points="333,-62.73 336.5,-72.73 340,-62.73 333,-62.73"/>
</g>
<!-- Node8 -->
<g id="node8" class="node">
<title>Node8</title>
<g id="a_node8"><a xlink:href="plugin_8c.html" target="_top" xlink:title="Platform&#45;independent plugin loading operations.">
<polygon fill="white" stroke="black" points="429,-0.5 429,-30.5 560,-30.5 560,-0.5 429,-0.5"/>
<text text-anchor="start" x="437" y="-18.5" font-family="Fira Code" font-size="10.00">src/platform/common</text>
<text text-anchor="middle" x="494.5" y="-7.5" font-family="Fira Code" font-size="10.00">/plugin.c</text>
</a>
</g>
</g>
<!-- Node5&#45;&gt;Node8 -->
<g id="edge9" class="edge">
<title>Node5&#45;&gt;Node8</title>
<path fill="none" stroke="midnightblue" d="M366.74,-69.06C393.51,-58.05 432.53,-41.99 460.4,-30.53"/>
<polygon fill="midnightblue" stroke="midnightblue" points="365.4,-65.83 357.48,-72.87 368.06,-72.3 365.4,-65.83"/>
</g>
<!-- Node9 -->
<g id="node9" class="node">
<title>Node9</title>
<g id="a_node9"><a xlink:href="plugin__mac_8c.html" target="_top" xlink:title="Plugin loading on MacOS.">
<polygon fill="white" stroke="black" points="578,-0.5 578,-30.5 733,-30.5 733,-0.5 578,-0.5"/>
<text text-anchor="start" x="586" y="-18.5" font-family="Fira Code" font-size="10.00">src/platform/mac/plugin</text>
<text text-anchor="middle" x="655.5" y="-7.5" font-family="Fira Code" font-size="10.00">_mac.c</text>
</a>
</g>
</g>
<!-- Node5&#45;&gt;Node9 -->
<g id="edge10" class="edge">
<title>Node5&#45;&gt;Node9</title>
<path fill="none" stroke="midnightblue" d="M388.56,-70.89C442.49,-59.9 527.04,-42.68 586.5,-30.56"/>
<polygon fill="midnightblue" stroke="midnightblue" points="387.63,-67.51 378.53,-72.94 389.03,-74.37 387.63,-67.51"/>
</g>
<!-- Node10 -->
<g id="node10" class="node">
<title>Node10</title>
<g id="a_node10"><a xlink:href="timing__mac_8c.html" target="_top" xlink:title="High&#45;resolution timing on MacOS.">
<polygon fill="white" stroke="black" points="751,-0.5 751,-30.5 906,-30.5 906,-0.5 751,-0.5"/>
<text text-anchor="start" x="759" y="-18.5" font-family="Fira Code" font-size="10.00">src/platform/mac/timing</text>
<text text-anchor="middle" x="828.5" y="-7.5" font-family="Fira Code" font-size="10.00">_mac.c</text>
</a>
</g>
</g>
<!-- Node5&#45;&gt;Node10 -->
<g id="edge11" class="edge">
<title>Node5&#45;&gt;Node10</title>
<path fill="none" stroke="midnightblue" d="M399.11,-71.39C409.26,-69.85 419.66,-68.33 429.5,-67 568.26,-48.21 603.86,-50.65 742.5,-31 745.2,-30.62 747.94,-30.22 750.71,-29.8"/>
<polygon fill="midnightblue" stroke="midnightblue" points="398.43,-67.95 389.07,-72.93 399.49,-74.87 398.43,-67.95"/>
</g>
<!-- Node11&#45;&gt;Node4 -->
<g id="edge14" class="edge">
<title>Node11&#45;&gt;Node4</title>
<path fill="none" stroke="midnightblue" d="M462.72,-101C432.23,-112.03 392.51,-125.78 365.76,-134.48"/>
<polygon fill="midnightblue" stroke="midnightblue" points="464.06,-104.23 472.26,-97.52 461.67,-97.66 464.06,-104.23"/>
</g>
<!-- Node12&#45;&gt;Node2 -->
<g id="edge16" class="edge">
<title>Node12&#45;&gt;Node2</title>
<path fill="none" stroke="midnightblue" d="M135.26,-61.97C115.54,-49.65 91.05,-34.35 76.11,-25.01"/>
<polygon fill="midnightblue" stroke="midnightblue" points="133.6,-65.06 143.93,-67.4 137.31,-59.13 133.6,-65.06"/>
</g>
</g>
</svg>
