<?xml version="1.0" encoding="UTF-8" standalone="no"?>
<!DOCTYPE svg PUBLIC "-//W3C//DTD SVG 1.1//EN"
 "http://www.w3.org/Graphics/SVG/1.1/DTD/svg11.dtd">
<!-- Generated by graphviz version 3.0.0 (20220226.1711)
 -->
<!-- Title: src/game/sdl/ttf.c Pages: 1 -->
<svg width="329pt" height="252pt"
 viewBox="0.00 0.00 329.00 252.00" xmlns="http://www.w3.org/2000/svg" xmlns:xlink="http://www.w3.org/1999/xlink">
<g id="graph0" class="graph" transform="scale(1 1) rotate(0) translate(4 248)">
<title>src/game/sdl/ttf.c</title>
<polygon fill="white" stroke="transparent" points="-4,4 -4,-248 325,-248 325,4 -4,4"/>
<!-- Node1 -->
<g id="node1" class="node">
<title>Node1</title>
<g id="a_node1"><a xlink:title="Rendering text in truetype fonts.">
<polygon fill="#bfbfbf" stroke="black" points="106,-224.5 106,-243.5 231,-243.5 231,-224.5 106,-224.5"/>
<text text-anchor="middle" x="168.5" y="-231.5" font-family="Fira Code" font-size="10.00">src/game/sdl/ttf.c</text>
</a>
</g>
</g>
<!-- Node2 -->
<g id="node2" class="node">
<title>Node2</title>
<g id="a_node2"><a xlink:href="ttf_8h.html" target="_top" xlink:title=" ">
<polygon fill="white" stroke="black" points="65,-168.5 65,-187.5 166,-187.5 166,-168.5 65,-168.5"/>
<text text-anchor="middle" x="115.5" y="-175.5" font-family="Fira Code" font-size="10.00">lmda/sdl/ttf.h</text>
</a>
</g>
</g>
<!-- Node1&#45;&gt;Node2 -->
<g id="edge1" class="edge">
<title>Node1&#45;&gt;Node2</title>
<path fill="none" stroke="midnightblue" d="M159.75,-224.08C152.03,-216.22 140.6,-204.57 131.28,-195.08"/>
<polygon fill="midnightblue" stroke="midnightblue" points="133.59,-192.44 124.09,-187.75 128.6,-197.34 133.59,-192.44"/>
</g>
<!-- Node10 -->
<g id="node10" class="node">
<title>Node10</title>
<g id="a_node10"><a xlink:href="log_8h.html" target="_top" xlink:title=" ">
<polygon fill="white" stroke="black" points="184,-168.5 184,-187.5 261,-187.5 261,-168.5 184,-168.5"/>
<text text-anchor="middle" x="222.5" y="-175.5" font-family="Fira Code" font-size="10.00">lmda/log.h</text>
</a>
</g>
</g>
<!-- Node1&#45;&gt;Node10 -->
<g id="edge12" class="edge">
<title>Node1&#45;&gt;Node10</title>
<path fill="none" stroke="midnightblue" d="M177.42,-224.08C185.28,-216.22 196.93,-204.57 206.42,-195.08"/>
<polygon fill="midnightblue" stroke="midnightblue" points="209.15,-197.3 213.75,-187.75 204.2,-192.35 209.15,-197.3"/>
</g>
<!-- Node3 -->
<g id="node3" class="node">
<title>Node3</title>
<g id="a_node3"><a xlink:href="sdl_8h.html" target="_top" xlink:title="Interface to the SDL subsystems (rendering, image loading, sound, etc).">
<polygon fill="white" stroke="black" points="92,-112.5 92,-131.5 139,-131.5 139,-112.5 92,-112.5"/>
<text text-anchor="middle" x="115.5" y="-119.5" font-family="Fira Code" font-size="10.00">SDL.h</text>
</a>
</g>
</g>
<!-- Node2&#45;&gt;Node3 -->
<g id="edge2" class="edge">
<title>Node2&#45;&gt;Node3</title>
<path fill="none" stroke="midnightblue" d="M110.33,-168.08C108.82,-160.93 108.39,-150.64 109.04,-141.69"/>
<polygon fill="midnightblue" stroke="midnightblue" points="112.52,-142.13 110.37,-131.75 105.58,-141.2 112.52,-142.13"/>
</g>
<!-- Node9 -->
<g id="node9" class="node">
<title>Node9</title>
<g id="a_node9"><a xlink:title=" ">
<polygon fill="white" stroke="#bfbfbf" points="175,-112.5 175,-131.5 246,-131.5 246,-112.5 175,-112.5"/>
<text text-anchor="middle" x="210.5" y="-119.5" font-family="Fira Code" font-size="10.00">SDL_ttf.h</text>
</a>
</g>
</g>
<!-- Node2&#45;&gt;Node9 -->
<g id="edge11" class="edge">
<title>Node2&#45;&gt;Node9</title>
<path fill="none" stroke="midnightblue" d="M130.76,-168.32C145.72,-159.82 168.75,-146.73 186.23,-136.8"/>
<polygon fill="midnightblue" stroke="midnightblue" points="188.31,-139.64 195.27,-131.65 184.85,-133.55 188.31,-139.64"/>
</g>
<!-- Node3&#45;&gt;Node2 -->
<g id="edge5" class="edge">
<title>Node3&#45;&gt;Node2</title>
<path fill="none" stroke="midnightblue" d="M120.63,-131.75C122.16,-138.86 122.6,-149.14 121.97,-158.1"/>
<polygon fill="midnightblue" stroke="midnightblue" points="118.49,-157.71 120.67,-168.08 125.43,-158.62 118.49,-157.71"/>
</g>
<!-- Node3&#45;&gt;Node3 -->
<g id="edge9" class="edge">
<title>Node3&#45;&gt;Node3</title>
<path fill="none" stroke="midnightblue" d="M133.42,-131.57C145.37,-134.27 157,-131.08 157,-122 157,-115.55 151.12,-112.07 143.43,-111.56"/>
<polygon fill="midnightblue" stroke="midnightblue" points="143.08,-108.08 133.42,-112.43 143.68,-115.06 143.08,-108.08"/>
</g>
<!-- Node4 -->
<g id="node4" class="node">
<title>Node4</title>
<g id="a_node4"><a xlink:href="color_8h.html" target="_top" xlink:title="Defines symbols for common SDL color values.">
<polygon fill="white" stroke="black" points="0,-56.5 0,-75.5 113,-75.5 113,-56.5 0,-56.5"/>
<text text-anchor="middle" x="56.5" y="-63.5" font-family="Fira Code" font-size="10.00">lmda/sdl/color.h</text>
</a>
</g>
</g>
<!-- Node3&#45;&gt;Node4 -->
<g id="edge3" class="edge">
<title>Node3&#45;&gt;Node4</title>
<path fill="none" stroke="midnightblue" d="M100.91,-112.32C90.66,-104.5 77.48,-92.78 67.98,-83.22"/>
<polygon fill="midnightblue" stroke="midnightblue" points="70.41,-80.7 61,-75.83 65.32,-85.51 70.41,-80.7"/>
</g>
<!-- Node5 -->
<g id="node5" class="node">
<title>Node5</title>
<g id="a_node5"><a xlink:href="input_8h.html" target="_top" xlink:title="The game&#39;s interface to the user input devices.">
<polygon fill="white" stroke="black" points="131,-56.5 131,-75.5 220,-75.5 220,-56.5 131,-56.5"/>
<text text-anchor="middle" x="175.5" y="-63.5" font-family="Fira Code" font-size="10.00">lmda/input.h</text>
</a>
</g>
</g>
<!-- Node3&#45;&gt;Node5 -->
<g id="edge6" class="edge">
<title>Node3&#45;&gt;Node5</title>
<path fill="none" stroke="midnightblue" d="M125.14,-112.32C134.01,-104.34 147.37,-92.31 158.11,-82.65"/>
<polygon fill="midnightblue" stroke="midnightblue" points="160.59,-85.13 165.68,-75.83 155.91,-79.92 160.59,-85.13"/>
</g>
<!-- Node8 -->
<g id="node8" class="node">
<title>Node8</title>
<g id="a_node8"><a xlink:title=" ">
<polygon fill="white" stroke="#bfbfbf" points="238,-56.5 238,-75.5 321,-75.5 321,-56.5 238,-56.5"/>
<text text-anchor="middle" x="279.5" y="-63.5" font-family="Fira Code" font-size="10.00">SDL_image.h</text>
</a>
</g>
</g>
<!-- Node3&#45;&gt;Node8 -->
<g id="edge10" class="edge">
<title>Node3&#45;&gt;Node8</title>
<path fill="none" stroke="midnightblue" d="M139.35,-113.15C166.76,-104.12 212.05,-89.21 243.7,-78.79"/>
<polygon fill="midnightblue" stroke="midnightblue" points="245.05,-82.03 253.46,-75.58 242.86,-75.38 245.05,-82.03"/>
</g>
<!-- Node4&#45;&gt;Node3 -->
<g id="edge4" class="edge">
<title>Node4&#45;&gt;Node3</title>
<path fill="none" stroke="midnightblue" d="M71.19,-75.75C81.4,-83.56 94.49,-95.2 103.96,-104.72"/>
<polygon fill="midnightblue" stroke="midnightblue" points="101.51,-107.22 110.92,-112.08 106.6,-102.41 101.51,-107.22"/>
</g>
<!-- Node6 -->
<g id="node6" class="node">
<title>Node6</title>
<g id="a_node6"><a xlink:href="keyboard_8h.html" target="_top" xlink:title="Defines symbols for SDL keyboard key identifiers.">
<polygon fill="white" stroke="black" points="35,-0.5 35,-19.5 178,-19.5 178,-0.5 35,-0.5"/>
<text text-anchor="middle" x="106.5" y="-7.5" font-family="Fira Code" font-size="10.00">lmda/input/keyboard.h</text>
</a>
</g>
</g>
<!-- Node5&#45;&gt;Node6 -->
<g id="edge7" class="edge">
<title>Node5&#45;&gt;Node6</title>
<path fill="none" stroke="midnightblue" d="M164.41,-56.32C154.01,-48.18 138.24,-35.84 125.78,-26.09"/>
<polygon fill="midnightblue" stroke="midnightblue" points="127.82,-23.24 117.79,-19.83 123.51,-28.75 127.82,-23.24"/>
</g>
<!-- Node7 -->
<g id="node7" class="node">
<title>Node7</title>
<g id="a_node7"><a xlink:href="signal_8h.html" target="_top" xlink:title="Declares the types of signal transitions that may represent a state change.">
<polygon fill="white" stroke="black" points="196,-0.5 196,-19.5 291,-19.5 291,-0.5 196,-0.5"/>
<text text-anchor="middle" x="243.5" y="-7.5" font-family="Fira Code" font-size="10.00">lmda/signal.h</text>
</a>
</g>
</g>
<!-- Node5&#45;&gt;Node7 -->
<g id="edge8" class="edge">
<title>Node5&#45;&gt;Node7</title>
<path fill="none" stroke="midnightblue" d="M186.43,-56.32C196.67,-48.18 212.22,-35.84 224.5,-26.09"/>
<polygon fill="midnightblue" stroke="midnightblue" points="226.72,-28.79 232.38,-19.83 222.37,-23.31 226.72,-28.79"/>
</g>
</g>
</svg>
