<?xml version="1.0" encoding="UTF-8" standalone="no"?>
<!DOCTYPE svg PUBLIC "-//W3C//DTD SVG 1.1//EN"
 "http://www.w3.org/Graphics/SVG/1.1/DTD/svg11.dtd">
<!-- Generated by graphviz version 3.0.0 (20220226.1711)
 -->
<!-- Title: src/include/lmda/version.h Pages: 1 -->
<svg width="479pt" height="151pt"
 viewBox="0.00 0.00 479.00 151.00" xmlns="http://www.w3.org/2000/svg" xmlns:xlink="http://www.w3.org/1999/xlink">
<g id="graph0" class="graph" transform="scale(1 1) rotate(0) translate(4 147)">
<title>src/include/lmda/version.h</title>
<polygon fill="white" stroke="transparent" points="-4,4 -4,-147 475,-147 475,4 -4,4"/>
<!-- Node1 -->
<g id="node1" class="node">
<title>Node1</title>
<g id="a_node1"><a xlink:title="Defines the build version; the build system labels output based on this.">
<polygon fill="#bfbfbf" stroke="black" points="107,-123.5 107,-142.5 280,-142.5 280,-123.5 107,-123.5"/>
<text text-anchor="middle" x="193.5" y="-130.5" font-family="Fira Code" font-size="10.00">src/include/lmda/version.h</text>
</a>
</g>
</g>
<!-- Node2 -->
<g id="node2" class="node">
<title>Node2</title>
<g id="a_node2"><a xlink:href="main_8c.html" target="_top" xlink:title="Entrypoint to game application (i.e. game plugin host).">
<polygon fill="white" stroke="black" points="0,-6 0,-25 101,-25 101,-6 0,-6"/>
<text text-anchor="middle" x="50.5" y="-13" font-family="Fira Code" font-size="10.00">src/app/main.c</text>
</a>
</g>
</g>
<!-- Node1&#45;&gt;Node2 -->
<g id="edge1" class="edge">
<title>Node1&#45;&gt;Node2</title>
<path fill="none" stroke="midnightblue" d="M153.68,-120C134.27,-112.71 111.5,-101.91 94.5,-87 74.32,-69.31 60.24,-40.11 54.04,-25.46"/>
<polygon fill="midnightblue" stroke="midnightblue" points="152.59,-123.32 163.18,-123.39 154.94,-116.73 152.59,-123.32"/>
</g>
<!-- Node3 -->
<g id="node3" class="node">
<title>Node3</title>
<g id="a_node3"><a xlink:href="platform_8h.html" target="_top" xlink:title="Declares generic platform initialization to allow platforms to do specialized setup (e....">
<polygon fill="white" stroke="black" points="104,-67.5 104,-86.5 283,-86.5 283,-67.5 104,-67.5"/>
<text text-anchor="middle" x="193.5" y="-74.5" font-family="Fira Code" font-size="10.00">src/include/lmda/platform.h</text>
</a>
</g>
</g>
<!-- Node1&#45;&gt;Node3 -->
<g id="edge2" class="edge">
<title>Node1&#45;&gt;Node3</title>
<path fill="none" stroke="midnightblue" d="M193.5,-112.8C193.5,-103.91 193.5,-93.78 193.5,-86.75"/>
<polygon fill="midnightblue" stroke="midnightblue" points="190,-113.08 193.5,-123.08 197,-113.08 190,-113.08"/>
</g>
<!-- Node6 -->
<g id="node6" class="node">
<title>Node6</title>
<g id="a_node6"><a xlink:href="fs_8c.html" target="_top" xlink:title="Platform&#45;independent filesystem operations.">
<polygon fill="white" stroke="black" points="301,-67.5 301,-86.5 462,-86.5 462,-67.5 301,-67.5"/>
<text text-anchor="middle" x="381.5" y="-74.5" font-family="Fira Code" font-size="10.00">src/platform/common/fs.c</text>
</a>
</g>
</g>
<!-- Node1&#45;&gt;Node6 -->
<g id="edge6" class="edge">
<title>Node1&#45;&gt;Node6</title>
<path fill="none" stroke="midnightblue" d="M233.3,-120.57C268.77,-110.38 319.87,-95.7 351.85,-86.52"/>
<polygon fill="midnightblue" stroke="midnightblue" points="231.93,-117.32 223.29,-123.44 233.87,-124.05 231.93,-117.32"/>
</g>
<!-- Node3&#45;&gt;Node2 -->
<g id="edge3" class="edge">
<title>Node3&#45;&gt;Node2</title>
<path fill="none" stroke="midnightblue" d="M163.77,-63.63C135.99,-52.07 95.25,-35.12 70.95,-25.01"/>
<polygon fill="midnightblue" stroke="midnightblue" points="162.43,-66.86 173.01,-67.48 165.12,-60.4 162.43,-66.86"/>
</g>
<!-- Node4 -->
<g id="node4" class="node">
<title>Node4</title>
<g id="a_node4"><a xlink:href="platform__mac_8c.html" target="_top" xlink:title="Generic platform initialization on MacOS.">
<polygon fill="white" stroke="black" points="119,-0.5 119,-30.5 286,-30.5 286,-0.5 119,-0.5"/>
<text text-anchor="start" x="127" y="-18.5" font-family="Fira Code" font-size="10.00">src/platform/mac/platform</text>
<text text-anchor="middle" x="202.5" y="-7.5" font-family="Fira Code" font-size="10.00">_mac.c</text>
</a>
</g>
</g>
<!-- Node3&#45;&gt;Node4 -->
<g id="edge4" class="edge">
<title>Node3&#45;&gt;Node4</title>
<path fill="none" stroke="midnightblue" d="M196.29,-57.53C197.61,-48.81 199.16,-38.59 200.38,-30.52"/>
<polygon fill="midnightblue" stroke="midnightblue" points="192.82,-57.06 194.79,-67.48 199.75,-58.11 192.82,-57.06"/>
</g>
<!-- Node5 -->
<g id="node5" class="node">
<title>Node5</title>
<g id="a_node5"><a xlink:href="platform__win_8c.html" target="_top" xlink:title="Generic platform initialization on Windows.">
<polygon fill="white" stroke="black" points="304,-0.5 304,-30.5 471,-30.5 471,-0.5 304,-0.5"/>
<text text-anchor="start" x="312" y="-18.5" font-family="Fira Code" font-size="10.00">src/platform/win/platform</text>
<text text-anchor="middle" x="387.5" y="-7.5" font-family="Fira Code" font-size="10.00">_win.c</text>
</a>
</g>
</g>
<!-- Node3&#45;&gt;Node5 -->
<g id="edge5" class="edge">
<title>Node3&#45;&gt;Node5</title>
<path fill="none" stroke="midnightblue" d="M231.05,-64.48C262.68,-54.78 308.04,-40.87 341.78,-30.52"/>
<polygon fill="midnightblue" stroke="midnightblue" points="229.83,-61.2 221.3,-67.48 231.88,-67.89 229.83,-61.2"/>
</g>
</g>
</svg>
